<svg xmlns="http://www.w3.org/2000/svg" id="_&#x5716;&#x5C64;_1" data-name="&#x5716;&#x5C64;_1" viewBox="0 0 259.03 72.87"><defs><style>      .st0 {        fill: #002d49;      }      .st1 {        fill: #384249;      }    </style></defs><g><path class="st1" d="M43.22,65.46h.8v5.49c.17-.03.42-.08.76-.14.29-.05.5-.09.65-.12v-6.68h-2.19v-4.39h4.45v4.39h-1.44v2.44h1.69v.67h-1.69v3.43c.24-.05.6-.12,1.07-.21.48-.09.84-.16,1.07-.21,0,.1,0,.2,0,.31,0,.17,0,.32.02.44-1.61.28-3.59.65-5.92,1.13l-.18-.78c.3-.06.6-.11.92-.15v-5.61ZM44.04,60.3v3.05h2.85v-3.05h-2.85ZM48.64,60.65h3.19c.29-.53.56-1.15.81-1.84l.84.17c-.25.62-.5,1.18-.73,1.67h4.61v.67h-3.22c.85,1.27,2.08,2.24,3.7,2.9-.1.11-.25.3-.44.57-.03.05-.06.08-.07.11-1.87-.89-3.22-2.08-4.03-3.58h-.93c-.76,1.36-2.06,2.61-3.88,3.76-.14-.18-.33-.39-.58-.62,1.66-1,2.84-2.04,3.53-3.14h-2.8v-.67ZM48.35,66.09h9.18v.67h-6.49l-.5,1.67h5.81c-.06.97-.14,1.76-.22,2.38-.08,1.16-.81,1.73-2.18,1.71-.71.02-1.51.03-2.4.03-.03-.22-.1-.49-.21-.82.62.02,1.12.04,1.48.04.2,0,.38,0,.54,0s.31,0,.43,0c.96.01,1.46-.35,1.5-1.08.09-.51.15-1.04.2-1.59h-6.01l.7-2.34h-1.83v-.67ZM50.55,63.91h4.79v.65h-4.79v-.65Z"></path><path class="st1" d="M68.7,70.44l-.17-.78s.1-.02.18-.04c.79-.17,1.41-.31,1.86-.43v-5.9h-1.78v-.7h1.78v-3.69h.84v3.69h1.57v.7h-1.57v5.71c.12-.03.31-.07.56-.14.55-.14.98-.24,1.29-.33v.43c0,.11.01.21.02.3-1.87.46-3.4.85-4.58,1.18ZM74.11,64.68h8.49v4.68h-2.68v1.65c0,.32.07.53.22.63.14.11.43.16.87.16h.97c.67.03,1.04-.23,1.13-.78.06-.29.13-.67.18-1.16.28.1.55.18.8.22-.07.53-.15.97-.25,1.32-.13.75-.73,1.1-1.8,1.07h-1.26c-1.17.02-1.73-.43-1.7-1.37v-1.75h-1.89c.08,1.85-1.52,3.01-4.81,3.51-.13-.24-.3-.47-.5-.7,2.98-.44,4.47-1.31,4.47-2.64,0-.06,0-.12,0-.17h-2.24v-4.68ZM77.86,58.99l.78-.19c.21.49.39,1.01.56,1.56h4.12v.65h-2.56l.79.27c-.35.54-.72,1.09-1.12,1.63h3.44v.65h-10.34v-.65h3.01c-.32-.54-.67-1.08-1.06-1.62l.58-.28h-2.19v-.65h4.45c-.05-.18-.15-.47-.3-.89-.08-.21-.14-.38-.18-.49ZM74.95,65.33v1.34h6.82v-1.34h-6.82ZM74.95,67.31v1.4h6.82v-1.4h-6.82ZM77.37,62.65l-.61.27h2.8c.54-.84.93-1.47,1.16-1.9h-4.48c.15.21.41.59.79,1.15.17.24.28.4.34.49Z"></path><path class="st1" d="M96.53,59.47h11.74v.61h-5.43v.98h6.73v2.51h-.82v-1.9h-5.9v3.09h-.81v-3.09h-5.9v1.9h-.81v-2.51h6.71v-.98h-5.5v-.61ZM96.53,65.64h11.66v4.43h-5.45v.6c0,.41.11.69.34.84.23.16.64.24,1.25.24h3c.98.03,1.54-.28,1.69-.94.13-.45.25-1.02.36-1.69.23.08.5.16.79.24-.13.69-.27,1.27-.42,1.72-.23.94-1,1.39-2.3,1.36h-3.24c-1.6.04-2.37-.51-2.31-1.66v-.71h-4.55v.79h-.83v-5.22ZM97.26,62.58h3.64v.58h-3.64v-.58ZM97.26,64.02h3.64v.58h-3.64v-.58ZM97.36,66.25v1.31h4.55v-1.31h-4.55ZM97.36,68.16v1.31h4.55v-1.31h-4.55ZM107.35,66.25h-4.61v1.31h4.61v-1.31ZM102.74,69.46h4.61v-1.31h-4.61v1.31ZM103.95,62.58h3.68v.58h-3.68v-.58ZM103.95,64.02h3.68v.58h-3.68v-.58Z"></path><path class="st1" d="M127.91,59.01l.83-.24c.27.63.5,1.22.69,1.74h6.88v.7h-15.33v-.7h7.49c-.2-.61-.38-1.11-.56-1.5ZM124.72,61.66l.72-.39c.58.66,1.06,1.25,1.45,1.77l-.77.42h3.86c.54-.68,1.09-1.42,1.64-2.2l.8.37c-.43.58-.91,1.19-1.45,1.83h4.04v7.48c.05,1.06-.54,1.58-1.77,1.56-.27,0-.54,0-.81.01h-1.1c-.04-.27-.1-.54-.2-.81.42.02.73.04.95.04.24,0,.56.01.93.01.44,0,.73-.06.9-.2.17-.14.25-.38.25-.73v-6.67h-11.16v8.67h-.85v-9.37h3.93c-.3-.47-.76-1.07-1.36-1.8ZM126.97,64.55l.64.52c-1.24.86-2.4,1.61-3.5,2.24-.11-.16-.29-.36-.56-.6,1.36-.73,2.5-1.45,3.42-2.17ZM131.65,70.65h-6.07v-3.75h6.07v3.75ZM126.4,67.59v2.38h4.43v-2.38h-4.43ZM129.61,65.09l.52-.52c1.06.58,2.23,1.27,3.51,2.06l-.54.61c-1.01-.69-2.17-1.4-3.48-2.14Z"></path><path class="st1" d="M154.36,66c-1.24-.86-2.24-1.54-3.01-2.04-.52,1.05-1.74,1.97-3.68,2.78-.16-.23-.34-.46-.52-.67,2.06-.72,3.27-1.65,3.64-2.78h-3.48v-.68h3.68c.11-.52.18-1.13.19-1.82h-2.12c-.29.38-.69.81-1.21,1.29-.23-.22-.42-.39-.56-.5,1.01-.82,1.73-1.78,2.17-2.89l.76.17c-.24.5-.47.92-.69,1.26h4.95v.67h-2.47c-.02.74-.08,1.35-.18,1.82h3.15v.68h-3.34s-.01.06-.03.1c1.26.76,2.35,1.44,3.27,2.03l-.52.58ZM149.7,66.52h10.34v6.3h-.85v-.67h-8.64v.67h-.86v-6.3ZM150.55,67.22v1.79h8.64v-1.79h-8.64ZM150.55,69.69v1.77h8.64v-1.77h-8.64ZM155.88,59.96h5.71v5.25h-5.71v-5.25ZM156.7,60.66v3.85h4.07v-3.85h-4.07Z"></path><path class="st1" d="M174.14,59.5h14.22v.68h-13.39v11.38h13.5v.68h-14.33v-12.75ZM175.47,63.84l.49-.55c.79.46,1.44.86,1.96,1.2l-.53.6c-.55-.39-1.19-.8-1.93-1.25ZM176.66,70.76l-.83-.3c.6-1.38,1.13-2.76,1.59-4.15.16.08.36.16.57.23.08.02.14.05.19.07-.63,1.75-1.14,3.13-1.53,4.15ZM176.51,61.29l.49-.54c.8.46,1.48.89,2.03,1.29l-.55.58c-.61-.46-1.26-.91-1.97-1.34ZM178.65,65.8c-.16-.14-.37-.31-.62-.5,1.31-1.34,2.3-2.89,2.98-4.64l.78.25c-.27.59-.53,1.09-.77,1.5h3.42c-.34-.52-.66-.98-.95-1.37l.67-.36c.2.23.47.6.83,1.11.08.11.14.2.18.25l-.62.36h3.35v.65h-3.22v1.64h2.96v.65h-2.96v1.63h2.96v.65h-2.96v1.67h3.45v.65h-7.49v.77h-.8v-6.43c-.36.49-.76.99-1.2,1.49ZM180.65,63.07v1.64h3.24v-1.64h-3.24ZM180.65,65.36v1.63h3.24v-1.63h-3.24ZM180.65,67.65v1.67h3.24v-1.67h-3.24Z"></path><path class="st1" d="M200.25,69.8c-.15-.27-.32-.51-.51-.74,2.63-.68,4.76-1.7,6.41-3.06-.03-.04-.08-.1-.14-.18-.22-.28-.4-.49-.54-.64-1.49.87-3.29,1.6-5.42,2.19-.11-.21-.26-.45-.47-.74,2.65-.6,4.9-1.55,6.74-2.87h-4.7v-.69h11.07v.69h-5.15c-.35.29-.81.62-1.41,1.01.64.64,1.16,1.33,1.56,2.08,1.9-.77,3.53-1.52,4.89-2.24l.49.65c-.92.45-1.94.91-3.06,1.4.83,2.12,2.39,3.53,4.68,4.26-.19.22-.38.46-.56.73-2.44-.97-4.05-2.53-4.84-4.67-.17.07-.42.18-.76.32-.24.1-.42.18-.55.23.32.77.48,1.55.48,2.33.05,1.86-.72,2.78-2.32,2.75-.67.02-1.32.03-1.95.03-.06-.29-.14-.57-.24-.84.82.03,1.48.04,1.97.04.62,0,1.05-.14,1.29-.43.25-.28.37-.79.37-1.54,0-.46-.06-.93-.18-1.41-1.8,1.69-4.23,3-7.3,3.93-.11-.2-.27-.45-.49-.75,3.14-.82,5.65-2.15,7.53-3.97-.14-.36-.33-.71-.56-1.05-1.63,1.35-3.74,2.41-6.33,3.18ZM206.4,58.96l.81-.27c.31.55.6,1.13.89,1.74l-.72.25h6.9v2.14h-.85v-1.45h-12.6v1.45h-.85v-2.14h7.26c-.31-.68-.59-1.26-.85-1.73Z"></path></g><g><path class="st0" d="M59.97,20.2"></path><path class="st0" d="M142.02,39.16c-1.24,1.14-8.71,9.25-9.51,5.85-.9-3.82,2.04-11.18,5.46-13.27,3.42-2.1,2.52-6.65,1-7.13-1.52-.49-9.86.45-11.44.73-1.96.35-6.65,1.64-6.57,4.04s.71,3.11.53,3.91c-.18.8-8.09,11.24-14.72,12.4-2.5.43-3.46-1.84-3.9-3.92,3.28-2.09,6.98-4.57,11.2-7.49.85-.59,7.81-5.69,4.27-9.8-2.91-3.38-5.91-2.58-9.4-1-4,1.81-13.97,11.21-12.93,19.26-5.93,3.73-10.54,3.93-12.86,3.2-3.39-1.07-3.37-4.33-3.37-4.33,3.25-1.39,21.93-12.19,15.18-18.3-6.74-6.11-18.21,6.53-20.12,12.93-.46,1.53-.81,3.46-.87,5.42-2.61,1.29-7.48,3.07-8.68,2.93-2.8-.32,1.44-8.27,3.76-11.14,2.32-2.87,4.65-3.92,2.37-6.61-3.87-4.56-11.29,3.76-13.07,5.84-3.03,3.53-7.66,9-7.66,9,0,0-1.51-2.15,2.69-8.8.15-.24.34-.51.55-.79,1.84-2.12,3.5-4.09,4.9-5.78,8.48-9.37,22.34-23.48,16.98-25.11-2.87-.88-9.61,4.65-12.4,8.29-2.78,3.64-14.25,22.06-15.03,24.72-1.23,1.23-17.72,17.05-26.52,18.45-8.8,1.4-12.46-7.09-9.05-16.17,3.87-10.32,17.47-25.84,29.47-29.13,2.71-.74,2.45,2.63-1.57,8.33-3.2,4.53-13.1,9.26-9.95,11.88,2.74,2.28,8,3.58,17.62-11.24,2.51-3.87,2.84-12.79-.5-15.28-3.7-2.75-14.72-.09-24.88,9.09-7.7,6.96-11.27,10.65-16.68,18.9-3.13,4.78-6.35,12.97-6.35,19.3,0,7.2,3.13,11.38,8.23,13.17,5.96,2.09,14.84.04,24.1-7.52,4.64-3.79,9.62-8.74,14.23-13.67-.68,3.52-.74,7.03.87,9.13,2.95,3.86,6.26-4.89,10.63-10.37,3.71-4.65,6.6-7.19,7.35-7.3-1.37,1.9-6.04,9.09-6.7,11.89-.71,3-1.71,5.42.78,6.74,1.56.83,9.15-3.07,14.61-6.09.34,2.71,1.43,5.18,3.82,6.4,3.4,1.74,8.23,2.83,18.62-4.99.95,3.5,3.16,5.73,6.82,5.9,6.77.32,17.62-10.7,22.63-18.69l7.52-1.41c-2.67,3.59-7.05,8.57-6.95,13.21.1,4.64,4.68,7.59,8.46,4.73,3.79-2.86,8.61-8.88,8.52-9.86s-.27-1.58-1.51-.43ZM90.84,27.14c2.24,1.47-7.49,10.69-11.01,11.92-.62-2.77,7-14.57,11.01-11.92ZM113.49,27.14c2.24,1.47-7.7,9.9-11.01,11.92-.62-2.77,7-14.57,11.01-11.92Z"></path></g><g><path class="st0" d="M169.92,5.74c-2.13-2.6-14.41-2.39-18.85-1.07-6.76,2.02-8.42,4-10.02,7.37-1.6,3.38-2.62,6.86-2.32,8.44.3,1.58,3.06,1.47,4.78.14,4.96-3.83,11.48-6.63,15.23-7.77,3.03-.93,8.96-.59,7.21,2.18-1.75,2.76-17.56,21.29-18.8,22.96-6.9,9.33,1.61,16.09,5.71,12.71s16.97-17.79,22.6-24.34c-7.94,14.84-8.09,22.07-5.37,24.26,8.53,6.84,21.82-11.04,25.67-19.28,3.85-8.24,8.5-18.74,6.68-21.85-1.25-2.14-5.88,10.96-12.27,20.96-2.72,4.26-8.87,13.68-13.67,14.38-3.08.45-2.37-5.23,0-9.89,1.13-2.21,13.2-20.84,14.01-21.95.81-1.11-.39-3.76-1.15-4.51s-1.55-.89-2.93.11-27.3,30.7-29.23,32.61c-2.95,2.95-5.04,1.01-3.97-1.05,2.32-4.47,16.43-19.12,18.48-22.72,3-5.28.65-8.69-1.8-11.68Z"></path><path class="st0" d="M259.03,38.88c-2.06,1.29-15.15,13.59-15.15,13.59,0,0,4.5-8.53,6.18-11.64,1.69-3.11,7.05-9.58,8.06-11.76,1-2.18-.67-6.4-2.59-4.29-1.92,2.1-14.96,16.32-18.83,17.17-3.88.84-3.05-2.42-1.49-3.78,1.56-1.36,8.83-8.45,9.89-10.62,1.06-2.17-1.74-5.81-4.03-3.98-2.29,1.83-11.5,11.19-11.87,15.7-3.06,2.38-7.24,5.61-9.67,3.59-2.43-2.02,3.3-9.11,3.88-10.23.58-1.12,1.71-2.69-.49-5.49,2.52-.5,2.4-2.69,1.49-3.9-.91-1.2-1.54-1.93-3.4-1.8-4.01.27-18.64,4.3-22.74,13.27-2.27,4.96-.9,12.08,1.73,14.3,2.63,2.22,4.49,1.16,6.45,0,1.95-1.16,8.89-9.38,8.89-9.38,0,0-3.26,5.75-3.03,7.57.26,2.01,2.4,7.26,7.09,3.37,7.13-5.9,8.38-7.11,9.52-8.49.19,4.04,2.43,7.01,4.45,7.24,1.69.19,7.35-1.84,13.49-8.76-7.27,9.69-11.68,19.85-12.21,21.46-.62,1.87.23,5.92,1.47,6.09,1.24.18,21.94-26.12,22.92-27.05s2.06-3.47,0-2.18ZM205.37,43.38c-2.93,1.43-4.62-1.85-2.51-5.83,3.79-7.15,16.9-9.62,16.9-9.62-1.4,4.59-11.46,14.03-14.39,15.45Z"></path></g><path class="st0" d="M59.97,57.7"></path></svg>