<svg xmlns="http://www.w3.org/2000/svg" viewBox="310.0095907670455 418.77688816 770.087518465909 152.10292636" id="svg2" version="1.1" style="max-height: 500px" width="770.087518465909" height="152.10292636">
  <defs id="defs6">
    <clipPath id="clipPath16" clipPathUnits="userSpaceOnUse">
      <path id="path14" d="m 260.306,384.961 c -0.909,-3.12 -2.589,-5.958 -4.886,-8.256 v 0 c -2.297,-2.297 -5.136,-3.977 -8.255,-4.886 v 0 l -6.312,-1.839 6.312,-1.839 c 3.119,-0.908 5.958,-2.589 8.255,-4.886 v 0 c 2.297,-2.297 3.978,-5.136 4.886,-8.254 v 0 l 1.839,-6.313 1.839,6.313 c 0.908,3.118 2.589,5.957 4.886,8.254 v 0 c 2.296,2.297 5.136,3.978 8.254,4.886 v 0 l 6.313,1.839 -6.313,1.839 c -3.118,0.909 -5.958,2.589 -8.254,4.886 v 0 c -2.297,2.298 -3.977,5.136 -4.886,8.256 v 0 l -1.839,6.311 z"/>
    </clipPath>
    <linearGradient id="linearGradient46" spreadMethod="pad" gradientTransform="matrix(52.582424,-14.759501,14.759501,52.582424,236.43398,377.19708)" gradientUnits="userSpaceOnUse" y2="0" x2="1" y1="0" x1="0">
      <stop id="stop34" offset="0" style="stop-opacity:1;stop-color:#fce100"/>
      <stop id="stop36" offset="0.286287" style="stop-opacity:1;stop-color:#6fee5d"/>
      <stop id="stop38" offset="0.497988" style="stop-opacity:1;stop-color:#00ddc9"/>
      <stop id="stop40" offset="0.708267" style="stop-opacity:1;stop-color:#00b5f3"/>
      <stop id="stop42" offset="0.952469" style="stop-opacity:1;stop-color:#591cf7"/>
      <stop id="stop44" offset="1" style="stop-opacity:1;stop-color:#591cf7"/>
    </linearGradient>
    <linearGradient id="linearGradient74" spreadMethod="pad" gradientTransform="matrix(25.8524,17.551901,-17.551901,25.8524,262.3913,375.49115)" gradientUnits="userSpaceOnUse" y2="0" x2="1" y1="0" x1="0">
      <stop id="stop62" offset="0" style="stop-opacity:1;stop-color:#fce100"/>
      <stop id="stop64" offset="0.286287" style="stop-opacity:1;stop-color:#6fee5d"/>
      <stop id="stop66" offset="0.497988" style="stop-opacity:1;stop-color:#00ddc9"/>
      <stop id="stop68" offset="0.708267" style="stop-opacity:1;stop-color:#00b5f3"/>
      <stop id="stop70" offset="0.952469" style="stop-opacity:1;stop-color:#591cf7"/>
      <stop id="stop72" offset="1" style="stop-opacity:1;stop-color:#591cf7"/>
    </linearGradient>
    <linearGradient id="linearGradient104" spreadMethod="pad" gradientTransform="matrix(-20.928303,-73.871597,73.871597,-20.928303,254.48187,372.02505)" gradientUnits="userSpaceOnUse" y2="0" x2="1" y1="0" x1="0">
      <stop id="stop90" offset="0" style="stop-opacity:1;stop-color:#fce100"/>
      <stop id="stop92" offset="0.00804494" style="stop-opacity:1;stop-color:#fce100"/>
      <stop id="stop94" offset="0.286287" style="stop-opacity:1;stop-color:#6fee5d"/>
      <stop id="stop96" offset="0.497988" style="stop-opacity:1;stop-color:#00ddc9"/>
      <stop id="stop98" offset="0.708267" style="stop-opacity:1;stop-color:#00b5f3"/>
      <stop id="stop100" offset="0.952469" style="stop-opacity:1;stop-color:#591cf7"/>
      <stop id="stop102" offset="1" style="stop-opacity:1;stop-color:#591cf7"/>
    </linearGradient>
    <clipPath id="clipPath114" clipPathUnits="userSpaceOnUse">
      <path id="path112" d="m 260.306,384.961 c -0.909,-3.12 -2.589,-5.958 -4.886,-8.256 v 0 c -2.297,-2.297 -5.136,-3.977 -8.255,-4.886 v 0 l -6.312,-1.839 6.312,-1.839 c 3.119,-0.908 5.958,-2.589 8.255,-4.886 v 0 c 2.297,-2.297 3.978,-5.136 4.886,-8.254 v 0 l 1.839,-6.313 1.839,6.313 c 0.908,3.118 2.589,5.957 4.886,8.254 v 0 c 2.296,2.297 5.136,3.978 8.254,4.886 v 0 l 6.313,1.839 -6.313,1.839 c -3.118,0.909 -5.958,2.589 -8.254,4.886 v 0 c -2.297,2.298 -3.977,5.136 -4.886,8.256 v 0 l -1.839,6.311 z"/>
    </clipPath>
    <linearGradient id="linearGradient156" spreadMethod="pad" gradientTransform="matrix(69.597595,11.995097,-11.995097,69.597595,258.22595,361.58691)" gradientUnits="userSpaceOnUse" y2="0" x2="1" y1="0" x1="0">
      <stop id="stop144" offset="0" style="stop-opacity:1;stop-color:#fce100"/>
      <stop id="stop146" offset="0.286287" style="stop-opacity:1;stop-color:#6fee5d"/>
      <stop id="stop148" offset="0.497988" style="stop-opacity:1;stop-color:#00ddc9"/>
      <stop id="stop150" offset="0.708267" style="stop-opacity:1;stop-color:#00b5f3"/>
      <stop id="stop152" offset="0.952469" style="stop-opacity:1;stop-color:#591cf7"/>
      <stop id="stop154" offset="1" style="stop-opacity:1;stop-color:#591cf7"/>
    </linearGradient>
    <linearGradient id="linearGradient184" spreadMethod="pad" gradientTransform="matrix(20.417215,71.934219,-71.934219,20.417215,304.93927,366.48718)" gradientUnits="userSpaceOnUse" y2="0" x2="1" y1="0" x1="0">
      <stop id="stop172" offset="0" style="stop-opacity:1;stop-color:#fce100"/>
      <stop id="stop174" offset="0.286287" style="stop-opacity:1;stop-color:#6fee5d"/>
      <stop id="stop176" offset="0.497988" style="stop-opacity:1;stop-color:#00ddc9"/>
      <stop id="stop178" offset="0.708267" style="stop-opacity:1;stop-color:#00b5f3"/>
      <stop id="stop180" offset="0.952469" style="stop-opacity:1;stop-color:#591cf7"/>
      <stop id="stop182" offset="1" style="stop-opacity:1;stop-color:#591cf7"/>
    </linearGradient>
    <clipPath id="clipPath194" clipPathUnits="userSpaceOnUse">
      <path id="path192" d="m 285.017,418.159 c -2.154,0 -4.298,-0.305 -6.368,-0.905 v 0 c -10.173,-2.943 -15.928,-13.709 -12.967,-23.877 v 0 c 1.327,-4.599 3.799,-8.786 7.184,-12.172 v 0 c 3.385,-3.385 7.571,-5.857 12.17,-7.186 v 0 10e-4 c 0.005,-10e-4 0.008,-0.002 0.013,-0.003 v 0 l 13.921,-4.057 -2.69,-0.783 c 2.449,-0.372 4.921,-0.541 7.389,-0.508 v 0 c -1.149,0.507 -2.296,0.934 -3.432,1.291 v 0 c 3.918,1.234 7.965,3.295 11.788,6.603 v 0 l -12.927,20.27 c -0.29,-0.536 -0.577,-1.067 -0.861,-1.592 v 0 c -4.949,-9.142 -8.936,-16.507 -13.201,-20.919 v 0 43.837 c -0.006,0 -0.012,0 -0.019,0"/>
    </clipPath>
    <linearGradient id="linearGradient214" spreadMethod="pad" gradientTransform="matrix(19.262775,14.213133,-14.213133,19.262775,271.14218,381.24582)" gradientUnits="userSpaceOnUse" y2="0" x2="1" y1="0" x1="0">
      <stop id="stop204" offset="0" style="stop-opacity:0.4;stop-color:#ffffff"/>
      <stop id="stop206" offset="0.0280707" style="stop-opacity:0.4;stop-color:#ffffff"/>
      <stop id="stop208" offset="0.32131582" style="stop-opacity:0;stop-color:#ffffff"/>
      <stop id="stop210" offset="0.805138" style="stop-opacity:0;stop-color:#ffffff"/>
      <stop id="stop212" offset="1" style="stop-opacity:0;stop-color:#ffffff"/>
    </linearGradient>
    <mask id="mask216" height="1" width="1" y="0" x="0" maskUnits="userSpaceOnUse">
      <g id="g226">
        <g id="g224">
          <g id="g222">
            <g id="g220">
              <path id="path218" style="fill:url(#linearGradient214);stroke:none" d="M -32768,32767 H 32767 V -32768 H -32768 Z"/>
            </g>
          </g>
        </g>
      </g>
    </mask>
    <linearGradient id="linearGradient242" spreadMethod="pad" gradientTransform="matrix(19.262775,14.213133,-14.213133,19.262775,271.14218,381.24582)" gradientUnits="userSpaceOnUse" y2="0" x2="1" y1="0" x1="0">
      <stop id="stop232" offset="0" style="stop-opacity:1;stop-color:#000000"/>
      <stop id="stop234" offset="0.0280707" style="stop-opacity:1;stop-color:#000000"/>
      <stop id="stop236" offset="0.32131582" style="stop-opacity:1;stop-color:#000000"/>
      <stop id="stop238" offset="0.805138" style="stop-opacity:1;stop-color:#000000"/>
      <stop id="stop240" offset="1" style="stop-opacity:1;stop-color:#000000"/>
    </linearGradient>
    <clipPath id="clipPath252" clipPathUnits="userSpaceOnUse">
      <path id="path250" d="m 292.869,368.184 -7.82,-2.277 -0.012,-0.004 v 0.002 c -4.599,-1.329 -8.786,-3.802 -12.17,-7.187 v 0 c -0.073,-0.072 -0.145,-0.145 -0.217,-0.219 v 0 c -1.74,-1.857 -3.275,-3.957 -4.552,-6.284 v 0 c -0.501,-0.909 -0.97,-1.834 -1.407,-2.772 v 0 c -0.387,-0.944 -0.724,-1.911 -1.009,-2.897 v 0 l -0.745,-2.565 c -1.213,-4.163 -2.033,-8.424 -2.453,-12.729 v 0 c -0.006,-0.299 -0.009,-0.598 -0.009,-0.898 v 0 c 10e-4,-1.969 0.13,-3.93 0.385,-5.871 v 0 c 2.764,0.086 5.493,0.672 8.052,1.732 v 0 c 2.776,1.15 5.299,2.836 7.424,4.962 v 0 c 2.125,2.125 3.81,4.648 4.961,7.425 v 0 c 1.149,2.776 1.741,5.752 1.74,8.757 v 0 18.241 c 4.264,-4.407 8.247,-11.763 13.187,-20.887 v 0 c 0.698,-1.288 1.414,-2.612 2.153,-3.967 v 0 l 16.953,16.953 c -1.367,1.781 -2.792,3.345 -4.256,4.716 v 0 c -1.082,0.76 -2.205,1.46 -3.366,2.099 v 0 c -4.624,2.551 -9.622,3.755 -14.557,3.755 v 0 c -0.763,10e-4 -1.524,-0.028 -2.282,-0.085"/>
    </clipPath>
    <linearGradient id="linearGradient272" spreadMethod="pad" gradientTransform="matrix(13.772599,-22.611198,22.611198,13.772599,275.14725,362.7652)" gradientUnits="userSpaceOnUse" y2="0" x2="1" y1="0" x1="0">
      <stop id="stop262" offset="0" style="stop-opacity:0.4;stop-color:#ffffff"/>
      <stop id="stop264" offset="0.0280707" style="stop-opacity:0.4;stop-color:#ffffff"/>
      <stop id="stop266" offset="0.32131582" style="stop-opacity:0;stop-color:#ffffff"/>
      <stop id="stop268" offset="0.805138" style="stop-opacity:0;stop-color:#ffffff"/>
      <stop id="stop270" offset="1" style="stop-opacity:0;stop-color:#ffffff"/>
    </linearGradient>
    <mask id="mask274" height="1" width="1" y="0" x="0" maskUnits="userSpaceOnUse">
      <g id="g284">
        <g id="g282">
          <g id="g280">
            <g id="g278">
              <path id="path276" style="fill:url(#linearGradient272);stroke:none" d="M -32768,32767 H 32767 V -32768 H -32768 Z"/>
            </g>
          </g>
        </g>
      </g>
    </mask>
    <linearGradient id="linearGradient300" spreadMethod="pad" gradientTransform="matrix(13.772599,-22.611198,22.611198,13.772599,275.14725,362.7652)" gradientUnits="userSpaceOnUse" y2="0" x2="1" y1="0" x1="0">
      <stop id="stop290" offset="0" style="stop-opacity:1;stop-color:#000000"/>
      <stop id="stop292" offset="0.0280707" style="stop-opacity:1;stop-color:#000000"/>
      <stop id="stop294" offset="0.32131582" style="stop-opacity:1;stop-color:#000000"/>
      <stop id="stop296" offset="0.805138" style="stop-opacity:1;stop-color:#000000"/>
      <stop id="stop298" offset="1" style="stop-opacity:1;stop-color:#000000"/>
    </linearGradient>
    <linearGradient id="linearGradient328" spreadMethod="pad" gradientTransform="matrix(-22.599001,79.580002,-79.580002,-22.599001,322.38803,312.22565)" gradientUnits="userSpaceOnUse" y2="0" x2="1" y1="0" x1="0">
      <stop id="stop316" offset="0" style="stop-opacity:1;stop-color:#fce100"/>
      <stop id="stop318" offset="0.286287" style="stop-opacity:1;stop-color:#6fee5d"/>
      <stop id="stop320" offset="0.497988" style="stop-opacity:1;stop-color:#00ddc9"/>
      <stop id="stop322" offset="0.708267" style="stop-opacity:1;stop-color:#00b5f3"/>
      <stop id="stop324" offset="0.952469" style="stop-opacity:1;stop-color:#591cf7"/>
      <stop id="stop326" offset="1" style="stop-opacity:1;stop-color:#591cf7"/>
    </linearGradient>
    <clipPath id="clipPath338" clipPathUnits="userSpaceOnUse">
      <path id="path336" d="M 0,740.761 H 1042.579 V 0 H 0 Z"/>
    </clipPath>
    <linearGradient id="linearGradient366" spreadMethod="pad" gradientTransform="matrix(113.20398,-48.05011,48.05011,113.20398,700.93604,393.53723)" gradientUnits="userSpaceOnUse" y2="0" x2="1" y1="0" x1="0">
      <stop id="stop354" offset="0" style="stop-opacity:1;stop-color:#fce100"/>
      <stop id="stop356" offset="0.286287" style="stop-opacity:1;stop-color:#6fee5d"/>
      <stop id="stop358" offset="0.497988" style="stop-opacity:1;stop-color:#00ddc9"/>
      <stop id="stop360" offset="0.708267" style="stop-opacity:1;stop-color:#00b5f3"/>
      <stop id="stop362" offset="0.952469" style="stop-opacity:1;stop-color:#591cf7"/>
      <stop id="stop364" offset="1" style="stop-opacity:1;stop-color:#591cf7"/>
    </linearGradient>
    <clipPath id="clipPath376" clipPathUnits="userSpaceOnUse">
      <path id="path374" d="M 0,740.761 H 1042.579 V 0 H 0 Z"/>
    </clipPath>
  </defs>
  
  <g transform="matrix(1.3333333,0,0,-1.3333333,0,987.68133)" id="g8">
    <g id="g10">
      <g clip-path="url(#clipPath16)" id="g12">
        <g transform="translate(262.1449,348.6884)" id="g18">
          <path id="path20" style="fill:#efd900;fill-opacity:1;fill-rule:nonzero;stroke:none" d="m 0,0 -1.839,6.312 c -0.908,3.119 -2.589,5.958 -4.886,8.255 -2.297,2.297 -5.136,3.978 -8.255,4.886 l -6.312,1.839 6.312,1.838 c 3.119,0.909 5.958,2.59 8.255,4.887 2.297,2.297 3.978,5.136 4.886,8.255 L 0,42.584 1.839,36.272 C 2.747,33.153 4.428,30.314 6.725,28.017 9.022,25.72 11.861,24.039 14.98,23.13 L 21.292,21.292 14.98,19.453 C 11.861,18.545 9.022,16.864 6.725,14.567 4.427,12.27 2.747,9.431 1.839,6.312 Z"/>
        </g>
      </g>
    </g>
    <g id="g22">
      <g id="g24">
        <g id="g30">
          <g id="g32">
            <path id="path48" style="fill:url(#linearGradient46);stroke:none" d="m 260.306,384.961 c -0.909,-3.12 -2.589,-5.958 -4.886,-8.256 v 0 c -2.297,-2.297 -5.136,-3.977 -8.255,-4.886 v 0 l -6.312,-1.839 6.312,-1.839 c 3.119,-0.908 5.958,-2.589 8.255,-4.886 v 0 c 2.297,-2.297 3.978,-5.136 4.886,-8.254 v 0 l 1.839,-6.313 1.839,6.313 c 0.908,3.118 2.589,5.957 4.886,8.254 v 0 c 2.296,2.297 5.136,3.978 8.254,4.886 v 0 l 6.313,1.839 -6.313,1.839 c -3.118,0.909 -5.958,2.589 -8.254,4.886 v 0 c -2.297,2.298 -3.977,5.136 -4.886,8.256 v 0 l -1.839,6.311 z"/>
          </g>
        </g>
      </g>
    </g>
    <g id="g50">
      <g id="g52">
        <g id="g58">
          <g id="g60">
            <path id="path76" style="fill:url(#linearGradient74);stroke:none" d="m 262.048,390.942 v -21.058 h 21.058 l 0.331,0.096 -6.313,1.839 c -3.118,0.909 -5.958,2.589 -8.254,4.886 v 0 c -2.297,2.298 -3.977,5.136 -4.886,8.256 v 0 l -1.839,6.311 z"/>
          </g>
        </g>
      </g>
    </g>
    <g id="g78">
      <g id="g80">
        <g id="g86">
          <g id="g88">
            <path id="path106" style="fill:url(#linearGradient104);stroke:none" d="m 241.192,369.881 5.973,-1.74 c 3.119,-0.908 5.958,-2.589 8.255,-4.886 v 0 c 2.297,-2.297 3.978,-5.136 4.886,-8.254 v 0 l 1.742,-5.982 v 20.862 z"/>
          </g>
        </g>
      </g>
    </g>
    <g id="g108">
      <g clip-path="url(#clipPath114)" id="g110">
        <g transform="translate(240.853,369.8821)" id="g116">
          <path id="path118" style="fill:#ffffff;fill-opacity:1;fill-rule:nonzero;stroke:none" d="m 0,0 h 21.194 l 0.098,0.687 z"/>
        </g>
        <g transform="translate(283.2397,369.9796)" id="g120">
          <path id="path122" style="fill:#ffffff;fill-opacity:1;fill-rule:nonzero;stroke:none" d="M 0,0 -20.997,0.589 V -0.098 Z"/>
        </g>
        <g transform="translate(262.0455,391.0768)" id="g124">
          <path id="path126" style="fill:#ffffff;fill-opacity:1;fill-rule:nonzero;stroke:none" d="M 0,0 -0.098,-21.194 H 0.589 Z"/>
        </g>
        <g transform="translate(262.0488,348.7877)" id="g128">
          <path id="path130" style="fill:#ffffff;fill-opacity:1;fill-rule:nonzero;stroke:none" d="M 0,0 0.589,21.292 H -0.098 Z"/>
        </g>
      </g>
    </g>
    <g id="g132">
      <g id="g134">
        <g id="g140">
          <g id="g142">
            <path id="path158" style="fill:url(#linearGradient156);stroke:none" d="m 278.649,417.254 c -10.173,-2.943 -15.928,-13.709 -12.967,-23.877 v 0 c 1.327,-4.599 3.799,-8.786 7.184,-12.172 v 0 c 3.385,-3.385 7.571,-5.857 12.17,-7.186 v 0 10e-4 c 0.005,-10e-4 0.008,-0.002 0.013,-0.003 v 0 l 13.921,-4.057 -13.921,-4.053 -0.012,-0.004 v 0.002 c -4.599,-1.329 -8.786,-3.802 -12.17,-7.187 v 0 c -3.385,-3.385 -5.857,-7.573 -7.185,-12.172 v 0 l -0.745,-2.565 c -1.846,-6.338 -2.784,-12.907 -2.783,-19.508 v 0 c 2.969,0.013 5.908,0.605 8.652,1.742 v 0 c 2.777,1.15 5.3,2.836 7.424,4.962 v 0 c 2.125,2.125 3.811,4.648 4.961,7.425 v 0 c 1.15,2.776 1.741,5.752 1.741,8.757 v 0 18.24 c 0.035,-0.036 0.07,-0.073 0.105,-0.11 v 0 0.111 c 4.264,-4.407 8.247,-11.763 13.187,-20.887 v 0 c 1.241,-2.292 2.542,-4.695 3.923,-7.19 v 0 c 6.88,-12.44 19.818,-14.91 28.963,-14.921 v 0 c 5.912,0.006 10.214,1.034 10.214,1.034 v 0 c -9.193,6.936 -22.197,31.379 -22.197,31.379 v 0 c -5.608,8.554 -12.48,12.895 -18.995,14.945 v 0 c 6.515,2.051 13.387,6.394 18.995,14.947 v 0 c 0,0 13.004,24.443 22.191,31.378 v 0 c 0,0 -4.299,1.028 -10.212,1.034 v 0 c -9.145,-0.01 -22.083,-2.478 -28.965,-14.918 v 0 c -1.374,-2.485 -2.67,-4.878 -3.904,-7.16 v 0 c -4.949,-9.142 -8.936,-16.507 -13.201,-20.919 v 0 0.11 c -0.035,-0.037 -0.07,-0.073 -0.105,-0.109 v 0 43.836 c -2.125,-0.008 -4.24,-0.313 -6.282,-0.905"/>
          </g>
        </g>
      </g>
    </g>
    <g id="g160">
      <g id="g162">
        <g id="g168">
          <g id="g170">
            <path id="path186" style="fill:url(#linearGradient184);stroke:none" d="m 302.141,402.401 c -1.374,-2.485 -2.67,-4.878 -3.904,-7.16 v 0 c -4.949,-9.142 -8.936,-16.507 -13.201,-20.919 v 0 0.132 c -0.043,-0.053 -0.086,-0.104 -0.128,-0.153 v 0 c 9.181,1.071 18.239,3.198 28.391,22.479 v 0 c 9.538,18.116 21.906,19.724 28.027,19.516 v 0 c -0.04,0.013 -0.081,0.026 -0.122,0.038 v 0 c -0.95,0.206 -4.888,0.985 -10.042,0.985 v 0 c -9.148,0 -22.125,-2.453 -29.021,-14.918"/>
          </g>
        </g>
      </g>
    </g>
    <g id="g188">
      <g clip-path="url(#clipPath194)" id="g190">
        <g id="g196">
          <g id="g198"/>
          <g mask="url(#mask216)" id="g228">
            <g id="g230">
              <path id="path244" style="fill:url(#linearGradient242);stroke:none" d="m 285.017,418.159 c -2.154,0 -4.298,-0.305 -6.368,-0.905 v 0 c -10.173,-2.943 -15.928,-13.709 -12.967,-23.877 v 0 c 1.327,-4.599 3.799,-8.786 7.184,-12.172 v 0 c 3.385,-3.385 7.571,-5.857 12.17,-7.186 v 0 10e-4 c 0.005,-10e-4 0.008,-0.002 0.013,-0.003 v 0 l 13.921,-4.057 -2.69,-0.783 c 2.449,-0.372 4.921,-0.541 7.389,-0.508 v 0 c -1.149,0.507 -2.296,0.934 -3.432,1.291 v 0 c 3.918,1.234 7.965,3.295 11.788,6.603 v 0 l -12.927,20.27 c -0.29,-0.536 -0.577,-1.067 -0.861,-1.592 v 0 c -4.949,-9.142 -8.936,-16.507 -13.201,-20.919 v 0 43.837 c -0.006,0 -0.012,0 -0.019,0"/>
            </g>
          </g>
        </g>
      </g>
    </g>
    <g id="g246">
      <g clip-path="url(#clipPath252)" id="g248">
        <g id="g254">
          <g id="g256"/>
          <g mask="url(#mask274)" id="g286">
            <g id="g288">
              <path id="path302" style="fill:url(#linearGradient300);stroke:none" d="m 292.869,368.184 -7.82,-2.277 -0.012,-0.004 v 0.002 c -4.599,-1.329 -8.786,-3.802 -12.17,-7.187 v 0 c -0.073,-0.072 -0.145,-0.145 -0.217,-0.219 v 0 c -1.74,-1.857 -3.275,-3.957 -4.552,-6.284 v 0 c -0.501,-0.909 -0.97,-1.834 -1.407,-2.772 v 0 c -0.387,-0.944 -0.724,-1.911 -1.009,-2.897 v 0 l -0.745,-2.565 c -1.213,-4.163 -2.033,-8.424 -2.453,-12.729 v 0 c -0.006,-0.299 -0.009,-0.598 -0.009,-0.898 v 0 c 10e-4,-1.969 0.13,-3.93 0.385,-5.871 v 0 c 2.764,0.086 5.493,0.672 8.052,1.732 v 0 c 2.776,1.15 5.299,2.836 7.424,4.962 v 0 c 2.125,2.125 3.81,4.648 4.961,7.425 v 0 c 1.149,2.776 1.741,5.752 1.74,8.757 v 0 18.241 c 4.264,-4.407 8.247,-11.763 13.187,-20.887 v 0 c 0.698,-1.288 1.414,-2.612 2.153,-3.967 v 0 l 16.953,16.953 c -1.367,1.781 -2.792,3.345 -4.256,4.716 v 0 c -1.082,0.76 -2.205,1.46 -3.366,2.099 v 0 c -4.624,2.551 -9.622,3.755 -14.557,3.755 v 0 c -0.763,10e-4 -1.524,-0.028 -2.282,-0.085"/>
            </g>
          </g>
        </g>
      </g>
    </g>
    <g id="g304">
      <g id="g306">
        <g id="g312">
          <g id="g314">
            <path id="path330" style="fill:url(#linearGradient328);stroke:none" d="m 298.936,369.95 -13.887,-4.043 -0.012,-0.004 v 0.002 c -0.241,-0.07 -0.481,-0.143 -0.72,-0.219 v 0 c 6.845,0.154 17.807,-0.889 27.96,-20.182 v 0 c 7.664,-14.562 14.764,-20.283 21.728,-22.824 v 0 c 4.43,0.24 7.425,0.956 7.425,0.956 v 0 c -9.194,6.936 -22.196,31.379 -22.196,31.379 v 0 c -5.609,8.554 -12.482,12.895 -18.997,14.945 v 0 c 0.147,0.047 0.294,0.094 0.441,0.143 v 0 c -0.574,-0.035 -1.155,-0.086 -1.742,-0.153"/>
          </g>
        </g>
      </g>
    </g>
    <g id="g332">
      <g clip-path="url(#clipPath338)" id="g334">
        <path id="path340" style="fill:#0d79e5;fill-opacity:1;fill-rule:evenodd;stroke:none" d="m 687.585,332.219 h 10.211 v 76.682 h -10.211 z m -20.451,76.682 h 10.211 v -76.682 h -10.211 z m -42.143,-34.977 c 2.008,0.863 4.179,1.284 6.364,1.233 2.247,0.037 4.475,-0.406 6.537,-1.299 2.062,-0.893 3.909,-2.215 5.419,-3.879 3.164,-3.329 4.889,-7.771 4.8,-12.363 0.056,-2.272 -0.339,-4.532 -1.163,-6.649 -0.824,-2.117 -2.06,-4.05 -3.637,-5.686 -1.541,-1.644 -3.415,-2.94 -5.497,-3.803 -2.081,-0.863 -4.323,-1.272 -6.575,-1.2 -2.185,-0.051 -4.356,0.37 -6.364,1.233 -2.008,0.863 -3.806,2.149 -5.272,3.77 -3.081,3.42 -4.7,7.91 -4.509,12.509 -0.137,4.568 1.524,9.007 4.625,12.363 1.466,1.621 3.265,2.907 5.272,3.771 m 16.109,8.855 c -3.14,1.055 -6.432,1.586 -9.745,1.57 h -0.145 c -4.054,0.066 -8.077,-0.717 -11.811,-2.298 -3.267,-1.333 -6.162,-3.44 -8.436,-6.138 -2.102,-2.506 -3.729,-5.375 -4.8,-8.465 -1.1,-3.071 -1.661,-6.309 -1.658,-9.571 -0.15,-7.041 2.484,-13.857 7.33,-18.967 2.452,-2.597 5.431,-4.639 8.738,-5.989 3.307,-1.349 6.864,-1.975 10.433,-1.836 1.967,0.005 3.925,0.279 5.818,0.815 1.616,0.444 3.178,1.069 4.654,1.862 1.202,0.647 2.333,1.417 3.375,2.298 1.008,0.834 1.707,1.444 2.094,1.832 0.276,0.27 0.529,0.562 0.757,0.873 v -6.545 h 10.24 v 25.57 c 0.07,4.118 -0.702,8.206 -2.27,12.014 -1.296,3.24 -3.387,6.101 -6.079,8.32 -2.538,2.037 -5.413,3.612 -8.495,4.655 m -124.622,-8.972 c 2.012,-0.851 3.81,-2.138 5.264,-3.77 2.972,-3.373 4.543,-7.754 4.392,-12.247 0.156,-4.503 -1.416,-8.894 -4.392,-12.276 -1.454,-1.632 -3.252,-2.92 -5.264,-3.77 -2.013,-0.85 -4.19,-1.242 -6.373,-1.146 -2.179,-0.072 -4.349,0.331 -6.358,1.18 -2.009,0.848 -3.809,2.123 -5.278,3.736 -3.037,3.353 -4.653,7.754 -4.509,12.276 -0.137,4.512 1.479,8.901 4.509,12.247 1.469,1.613 3.269,2.888 5.278,3.736 2.009,0.849 4.179,1.252 6.358,1.18 2.183,0.096 4.36,-0.296 6.373,-1.146 m -16.45,8.506 c -3.22,-1.343 -6.143,-3.31 -8.598,-5.789 -2.515,-2.423 -4.506,-5.335 -5.852,-8.557 -1.346,-3.222 -2.018,-6.685 -1.974,-10.177 0.015,-5.248 1.582,-10.374 4.505,-14.732 2.923,-4.359 7.07,-7.755 11.919,-9.762 4.849,-2.006 10.183,-2.532 15.331,-1.512 5.148,1.019 9.879,3.539 13.597,7.243 2.478,2.453 4.444,5.373 5.787,8.591 1.342,3.218 2.033,6.671 2.033,10.157 0,3.487 -0.691,6.939 -2.033,10.158 -1.343,3.218 -3.309,6.138 -5.787,8.591 -2.456,2.479 -5.378,4.446 -8.599,5.789 -3.22,1.342 -6.675,2.034 -10.164,2.034 -3.489,0 -6.944,-0.692 -10.165,-2.034 m -37.602,-12.276 c -1.445,1.642 -3.241,2.936 -5.256,3.787 -2.015,0.851 -4.195,1.237 -6.38,1.129 -2.18,0.078 -4.351,-0.322 -6.361,-1.171 -2.01,-0.85 -3.81,-2.128 -5.275,-3.745 -3.03,-3.346 -4.646,-7.735 -4.509,-12.247 -0.144,-4.522 1.472,-8.923 4.509,-12.276 1.465,-1.617 3.265,-2.895 5.275,-3.745 2.01,-0.849 4.181,-1.249 6.361,-1.171 2.185,-0.108 4.365,0.277 6.38,1.129 2.015,0.851 3.811,2.145 5.256,3.787 2.977,3.382 4.549,7.773 4.393,12.276 0.151,4.493 -1.42,8.874 -4.393,12.247 m -30.312,6.487 c 2.456,2.479 5.379,4.446 8.599,5.789 3.221,1.342 6.675,2.034 10.165,2.034 3.489,0 6.943,-0.692 10.164,-2.034 3.22,-1.343 6.143,-3.31 8.599,-5.789 2.478,-2.453 4.444,-5.373 5.787,-8.591 1.342,-3.219 2.033,-6.671 2.033,-10.158 0,-3.486 -0.691,-6.939 -2.033,-10.157 -1.343,-3.218 -3.309,-6.138 -5.787,-8.591 -2.456,-2.479 -5.379,-4.446 -8.599,-5.789 -3.221,-1.343 -6.675,-2.034 -10.164,-2.034 -3.49,0 -6.944,0.691 -10.165,2.034 -3.22,1.343 -6.143,3.31 -8.599,5.789 -2.477,2.453 -4.444,5.373 -5.786,8.591 -1.343,3.218 -2.034,6.671 -2.034,10.157 0,3.487 0.691,6.939 2.034,10.158 1.342,3.218 3.309,6.138 5.786,8.591 m -63.503,27.258 h 10.734 v -37.614 l 31.359,37.614 h 11.869 l -24.348,-29.556 28.014,-42.006 h -13.178 l -22.196,33.424 -11.636,-14.225 v -19.112 h -10.618 z m 200.868,-63.476 c 2.232,-0.063 4.451,0.348 6.512,1.206 2.06,0.857 3.916,2.142 5.445,3.769 1.586,1.636 2.831,3.572 3.66,5.695 0.829,2.123 1.226,4.39 1.169,6.668 0.058,2.27 -0.34,4.528 -1.169,6.641 -0.829,2.114 -2.074,4.04 -3.66,5.664 -1.527,1.633 -3.381,2.925 -5.441,3.793 -2.061,0.867 -4.281,1.289 -6.516,1.24 -2.186,0.043 -4.357,-0.384 -6.365,-1.252 -2.007,-0.868 -3.805,-2.158 -5.271,-3.781 -3.09,-3.361 -4.74,-7.8 -4.596,-12.363 -0.15,-4.521 1.444,-8.927 4.451,-12.305 1.486,-1.633 3.31,-2.924 5.344,-3.783 2.034,-0.859 4.231,-1.266 6.437,-1.192 m 0,-9.222 c -3.539,-0.179 -7.076,0.386 -10.383,1.659 -3.307,1.272 -6.311,3.224 -8.816,5.73 -2.506,2.506 -4.458,5.509 -5.731,8.816 -1.273,3.308 -1.838,6.845 -1.658,10.384 -0.282,6.95 2.019,13.758 6.458,19.112 2.385,2.572 5.309,4.583 8.563,5.891 3.254,1.307 6.757,1.879 10.258,1.673 h 0.204 c 2.147,0.02 4.288,-0.234 6.371,-0.757 1.733,-0.41 3.406,-1.045 4.974,-1.89 1.186,-0.688 2.323,-1.456 3.404,-2.299 0.751,-0.58 1.46,-1.211 2.123,-1.89 l 0.611,-0.815 v 32.203 h 10.211 v -51.228 c 0.078,-4.121 -0.704,-8.213 -2.298,-12.014 -1.347,-3.259 -3.475,-6.136 -6.196,-8.378 -2.518,-2.051 -5.386,-3.628 -8.466,-4.655 -3.106,-1.027 -6.357,-1.548 -9.629,-1.542"/>
      </g>
    </g>
    <g id="g342">
      <g id="g344">
        <g id="g350">
          <g id="g352">
            <path id="path368" style="fill:url(#linearGradient366);stroke:none" d="m 707.517,409.042 v -60.476 c 0,-8.896 7.211,-16.108 16.107,-16.108 v 0 h 61.995 c 8.896,0 16.107,7.212 16.107,16.108 v 0 44.369 c 0,8.895 -7.211,16.107 -16.107,16.107 v 0 z"/>
          </g>
        </g>
      </g>
    </g>
    <g id="g370">
      <g clip-path="url(#clipPath376)" id="g372">
        <g transform="translate(757.707,381.3676)" id="g378">
          <path id="path380" style="fill:#ffffff;fill-opacity:1;fill-rule:evenodd;stroke:none" d="m 0,0 c -2.448,0.871 -5.033,1.306 -7.753,1.306 h -0.163 c -3.483,0 -6.638,-0.626 -9.467,-1.877 -2.775,-1.197 -5.006,-2.83 -6.693,-4.897 -1.686,-2.013 -2.965,-4.271 -3.835,-6.774 -0.871,-2.448 -1.306,-4.978 -1.306,-7.59 0,-5.93 1.931,-10.99 5.794,-15.18 3.918,-4.135 9.032,-6.202 15.343,-6.202 h 0.082 c 1.578,0 3.101,0.217 4.57,0.653 1.524,0.435 2.775,0.925 3.754,1.469 0.98,0.544 1.878,1.142 2.694,1.795 0.816,0.707 1.36,1.197 1.632,1.469 0.326,0.327 0.544,0.571 0.653,0.735 v -5.224 h 8.161 v 20.404 c 0,3.591 -0.598,6.773 -1.795,9.548 -1.197,2.829 -2.83,5.06 -4.897,6.692 C 4.761,-2.04 2.503,-0.816 0,0 m -17.139,-10.038 c 2.449,2.666 5.577,3.999 9.386,3.999 3.808,0 6.991,-1.361 9.548,-4.081 2.558,-2.666 3.836,-5.958 3.836,-9.875 0,-3.863 -1.278,-7.128 -3.836,-9.794 -2.557,-2.666 -5.74,-3.999 -9.548,-3.999 -3.809,0 -6.937,1.333 -9.386,3.999 -2.448,2.666 -3.672,5.958 -3.672,9.876 0,3.917 1.224,7.209 3.672,9.875 M 28.94,20.076 h -8.161 v -8.08 h 8.161 z m 0,-19.587 h -8.161 v -40.806 h 8.161 z"/>
        </g>
      </g>
    </g>
  </g>
</svg>