<?xml version="1.0" standalone="no"?>
<!DOCTYPE svg PUBLIC "-//W3C//DTD SVG 20010904//EN"
 "http://www.w3.org/TR/2001/REC-SVG-20010904/DTD/svg10.dtd">
<svg version="1.0" xmlns="http://www.w3.org/2000/svg"
 width="808.000000pt" height="808.000000pt" viewBox="0 0 808.000000 808.000000"
 preserveAspectRatio="xMidYMid meet">
<metadata>
Created by potrace 1.14, written by Peter Selinger 2001-2017
</metadata>
<g transform="translate(0.000000,808.000000) scale(0.100000,-0.100000)"
fill="#000000" stroke="none">
<path d="M3468 7855 c-2 -2 -41 -5 -88 -8 -47 -3 -97 -8 -112 -12 -16 -3 -40
-7 -55 -9 -79 -10 -299 -75 -328 -96 -5 -4 -23 -10 -40 -14 -16 -4 -32 -11
-35 -14 -3 -4 -26 -17 -51 -29 -41 -19 -113 -64 -224 -140 -17 -11 -77 -65
-132 -120 -143 -140 -238 -275 -324 -459 -23 -49 -42 -93 -43 -99 -1 -5 -5
-15 -8 -20 -9 -14 -66 -235 -66 -255 0 -8 -3 -25 -6 -37 -30 -129 -23 -386 15
-553 6 -25 12 -52 14 -60 1 -8 8 -33 14 -55 6 -22 10 -43 11 -48 0 -4 6 -20
15 -37 8 -16 17 -37 18 -47 2 -10 9 -31 15 -46 7 -16 12 -30 12 -32 0 -6 79
-178 89 -195 5 -8 24 -42 41 -74 38 -72 149 -240 161 -244 5 -2 9 -9 9 -16 0
-6 9 -18 20 -26 11 -8 20 -18 20 -22 0 -22 249 -274 350 -355 198 -157 461
-301 685 -375 33 -11 69 -21 80 -24 11 -2 31 -8 45 -13 24 -10 165 -52 185
-57 6 -1 44 -12 85 -24 41 -12 80 -23 87 -24 7 -1 16 -5 19 -9 4 -4 15 -7 25
-7 10 0 60 -13 111 -29 51 -16 107 -33 123 -37 40 -10 44 -11 50 -14 3 -1 8
-3 13 -4 14 -4 128 -37 211 -63 47 -14 89 -26 95 -28 6 -1 26 -6 44 -10 18 -4
30 -11 25 -15 -7 -7 -132 -47 -172 -55 -9 -2 -27 -8 -41 -13 -14 -5 -28 -10
-32 -11 -5 0 -9 -1 -10 -2 -2 0 -10 -2 -18 -4 -8 -2 -40 -11 -70 -20 -98 -29
-183 -53 -280 -80 -52 -15 -104 -31 -115 -35 -28 -12 -277 -82 -292 -83 -7 0
-13 -3 -13 -7 0 -3 -9 -6 -21 -7 -60 -5 -328 -110 -466 -184 -74 -40 -203
-117 -213 -129 -3 -3 -18 -14 -35 -24 -68 -44 -177 -137 -285 -246 -126 -126
-164 -169 -213 -239 -18 -25 -35 -48 -38 -51 -3 -3 -14 -20 -24 -37 -11 -18
-23 -33 -27 -33 -4 0 -8 -6 -8 -14 0 -8 -6 -21 -13 -28 -56 -61 -241 -473
-261 -582 -3 -17 -36 -129 -43 -146 -3 -8 -7 -19 -9 -25 -1 -5 -20 -80 -42
-165 -46 -177 -89 -376 -107 -495 -3 -16 -7 -41 -10 -55 -2 -14 -7 -45 -10
-70 -3 -25 -8 -61 -11 -80 -2 -19 -6 -51 -8 -70 -2 -19 -7 -57 -10 -85 -19
-146 -35 -533 -23 -552 11 -17 158 -7 335 23 173 29 471 144 599 231 19 13 37
23 42 23 4 0 16 9 26 20 10 11 24 20 32 20 7 0 16 7 19 15 4 8 12 15 20 15 7
0 17 6 21 13 4 6 26 25 48 41 106 78 349 352 388 438 6 16 15 28 18 28 3 0 32
53 64 118 31 64 61 125 66 134 30 59 102 314 114 408 2 14 6 41 10 60 11 63
14 203 15 953 2 814 -3 757 60 682 14 -16 34 -39 45 -50 11 -12 50 -61 87
-111 38 -49 72 -94 76 -99 19 -23 162 -236 162 -241 0 -3 17 -31 38 -62 32
-48 95 -151 196 -325 10 -18 34 -61 54 -97 19 -36 38 -69 42 -75 4 -5 27 -46
50 -90 24 -44 52 -96 63 -115 11 -19 35 -64 55 -100 68 -127 84 -155 93 -165
5 -5 9 -17 9 -27 0 -10 5 -18 10 -18 6 0 10 -6 10 -14 0 -7 7 -19 15 -26 9 -7
13 -15 11 -18 -3 -2 5 -21 18 -41 12 -20 44 -75 69 -123 26 -49 68 -127 94
-175 25 -49 49 -90 52 -93 3 -3 20 -32 36 -65 17 -33 33 -61 38 -63 4 -2 7 -9
7 -15 0 -11 8 -25 89 -146 51 -76 82 -121 96 -137 6 -6 30 -36 55 -65 52 -62
207 -217 251 -251 17 -13 36 -28 43 -34 6 -6 48 -36 91 -67 44 -31 85 -60 91
-64 10 -8 30 -19 77 -45 12 -7 30 -19 40 -27 9 -8 17 -11 17 -7 0 4 12 -1 28
-12 84 -57 480 -209 568 -217 11 -1 24 -4 30 -7 5 -3 25 -8 44 -12 19 -3 46
-9 60 -12 348 -79 911 -92 1332 -29 148 22 221 39 207 48 -2 1 -33 27 -68 57
-97 82 -224 212 -326 335 -22 26 -45 53 -51 59 -5 6 -47 58 -92 116 -101 130
-87 111 -152 200 -30 41 -58 77 -62 78 -5 2 -8 9 -8 16 0 7 -8 21 -18 32 -31
34 -113 154 -106 154 4 0 1 6 -8 13 -8 6 -55 73 -103 147 -48 74 -101 154
-117 178 -15 24 -28 47 -28 53 0 5 -4 9 -10 9 -5 0 -10 5 -10 10 0 6 -18 38
-40 71 -22 33 -40 65 -40 70 0 5 -4 9 -10 9 -5 0 -10 4 -10 9 0 10 -142 248
-160 269 -6 6 -8 12 -4 12 4 0 0 8 -8 18 -9 9 -27 37 -40 62 -14 25 -48 84
-77 132 -28 48 -51 89 -51 91 0 2 -22 42 -48 88 -27 46 -65 116 -86 154 -21
39 -49 84 -62 102 -13 17 -24 36 -24 42 0 6 -4 11 -8 11 -4 0 -16 13 -25 30
-10 16 -23 35 -30 42 -7 7 -24 29 -37 48 -24 34 -45 61 -65 84 -6 6 -35 40
-65 75 -88 103 -267 277 -342 333 -20 15 -42 33 -50 40 -41 40 -259 188 -328
223 -19 10 -38 22 -41 27 -3 5 -9 9 -13 9 -3 0 -51 21 -106 48 -55 28 -100 47
-100 45 0 -3 -12 1 -27 9 -58 30 -203 83 -215 79 -5 -1 -8 3 -8 8 0 6 7 10 15
10 8 0 23 4 33 9 9 5 49 21 87 36 222 84 464 217 628 345 33 25 66 50 75 55 9
6 26 19 37 30 11 11 41 36 65 56 56 46 202 190 255 253 22 26 54 62 70 80 17
17 57 68 89 111 33 44 63 82 68 83 4 2 8 8 8 13 0 5 15 30 34 56 31 44 73 117
118 203 10 19 23 42 28 50 5 8 53 92 106 185 121 212 324 552 375 627 22 31
39 59 39 62 0 4 9 19 19 34 10 15 75 113 144 217 101 153 294 432 334 480 4 6
21 28 37 50 17 22 33 42 36 45 3 3 19 23 36 45 33 44 39 52 120 150 111 133
246 273 351 362 84 72 94 61 -97 93 -86 14 -187 27 -285 36 -80 8 -628 13
-639 6 -5 -2 -29 -6 -55 -7 -47 -3 -145 -13 -193 -21 -86 -13 -107 -17 -168
-30 -14 -3 -36 -7 -50 -9 -48 -8 -204 -49 -244 -65 -14 -5 -26 -7 -26 -4 0 4
-7 1 -15 -6 -8 -7 -15 -9 -15 -6 0 4 -10 1 -22 -6 -13 -6 -31 -13 -40 -15 -9
-1 -43 -14 -75 -28 -32 -15 -60 -26 -63 -26 -14 0 -227 -109 -303 -155 -82
-50 -193 -129 -261 -185 -58 -48 -262 -257 -308 -317 -58 -74 -163 -234 -208
-317 -18 -33 -42 -76 -53 -95 -11 -19 -38 -69 -59 -110 -22 -41 -43 -79 -48
-85 -4 -5 -36 -64 -70 -130 -35 -66 -67 -123 -72 -126 -6 -3 -9 -9 -8 -13 1
-6 -29 -62 -115 -221 -29 -53 -156 -283 -175 -317 -8 -15 -27 -49 -41 -75 -14
-26 -35 -64 -46 -83 -73 -124 -128 -219 -142 -242 -9 -14 -29 -48 -45 -75
-136 -225 -320 -479 -446 -615 -42 -45 -50 -47 -50 -10 0 15 0 36 -1 47 0 11
0 782 0 1714 1 932 -2 1697 -5 1700 -6 6 -61 11 -66 6z"/>
<path d="M1709 5693 c-1 -17 -9 -44 -49 -178 -23 -77 -48 -165 -56 -195 -17
-62 -50 -170 -67 -215 -7 -16 -12 -32 -13 -35 -2 -11 -44 -106 -54 -120 -5 -8
-20 -36 -32 -62 -13 -27 -26 -48 -30 -48 -5 0 -8 -5 -8 -10 0 -12 -41 -73 -52
-78 -5 -2 -8 -8 -8 -14 0 -28 -176 -216 -280 -300 -90 -74 -230 -164 -300
-194 -8 -4 -33 -15 -55 -24 -53 -23 -179 -68 -208 -74 -12 -3 -67 -19 -122
-36 -55 -17 -109 -33 -120 -36 -21 -4 -135 -38 -200 -58 l-40 -13 45 -13 c25
-7 54 -14 65 -17 27 -6 37 -9 55 -16 8 -4 87 -27 175 -52 207 -60 293 -89 384
-132 73 -35 191 -101 201 -112 3 -4 23 -18 45 -32 81 -53 221 -185 301 -284
112 -138 204 -307 269 -495 1 -3 4 -12 7 -20 6 -14 32 -110 33 -120 1 -3 9
-30 18 -60 24 -74 33 -107 48 -160 7 -25 13 -47 14 -50 1 -3 8 -25 15 -50 17
-55 17 -57 19 -72 2 -23 12 2 46 118 19 65 50 173 70 239 19 66 38 128 40 139
16 67 85 229 142 331 25 46 105 162 143 209 45 56 194 198 255 244 39 28 75
55 80 59 85 67 368 194 488 218 10 2 57 16 105 30 48 14 119 35 157 46 39 11
81 25 95 30 14 5 35 10 47 12 12 2 25 6 28 9 7 6 -63 29 -160 54 -5 1 -73 21
-150 44 -77 23 -157 46 -179 51 -21 5 -47 14 -58 20 -11 6 -29 12 -41 15 -11
2 -35 10 -52 18 -16 7 -57 26 -90 41 -33 15 -68 34 -77 42 -10 9 -18 13 -18 9
0 -7 -118 70 -156 102 -11 9 -36 28 -55 42 -45 33 -174 163 -224 225 -22 28
-43 52 -47 53 -5 2 -8 7 -8 12 0 5 -20 39 -45 75 -24 37 -65 109 -89 160 -49
103 -78 182 -122 340 -2 6 -10 34 -18 63 -9 28 -23 76 -32 105 -8 28 -17 59
-19 67 -2 8 -4 15 -5 15 -1 0 -3 7 -5 15 -1 8 -10 41 -20 73 -15 52 -24 69
-26 50z"/>
</g>
</svg>
