<svg xmlns="http://www.w3.org/2000/svg" width="180" height="40" viewBox="0 0 90 20">
  <path fill="#000" fill-rule="nonzero" d="M83.333 6.667c-3.69 0-6.666 2.963-6.666 6.623v.043c0 3.66 2.987 6.623 6.666 6.623h1.44a.49.49 0 0 0 .493-.49v-2.135a.49.49 0 0 0-.494-.49h-1.439c-1.955 0-3.547-1.58-3.547-3.519s1.581-3.518 3.547-3.518c1.966 0 3.548 1.58 3.548 3.518v5.12c0 .86.703 1.558 1.56 1.558.867 0 1.559-.697 1.559-1.558V13.28c0-3.638-2.987-6.612-6.667-6.612zm-61.666 0C17.977 6.667 15 9.63 15 13.29v.043c0 3.66 2.987 6.623 6.667 6.623h1.438a.49.49 0 0 0 .495-.49v-2.135a.49.49 0 0 0-.495-.49h-1.438c-1.955 0-3.548-1.58-3.548-3.519s1.582-3.518 3.548-3.518c1.955 0 3.547 1.58 3.547 3.518v5.12c0 .86.703 1.558 1.56 1.558.867 0 1.56-.697 1.56-1.558V13.28c.01-3.638-2.977-6.612-6.667-6.612zm-15 .021h-1.44a.49.49 0 0 0-.493.49v2.136c0 .272.22.49.494.49h1.439c1.955 0 3.547 1.58 3.547 3.518 0 1.94-1.581 3.519-3.547 3.519-1.955 0-3.548-1.58-3.548-3.519V1.558C3.12.698 2.416 0 1.56 0 .693 0 0 .697 0 1.558v11.819C0 17.037 2.987 20 6.667 20c3.69 0 6.666-2.963 6.666-6.623v-.044c.011-3.682-2.976-6.645-6.666-6.645zm30.822-.021c-3.684 0-6.656 2.906-6.656 6.495v3.024c0 .267.22.48.494.48h2.149a.485.485 0 0 0 .493-.48v-2.97c0-1.902 1.58-3.451 3.542-3.451 1.952 0 3.542 1.55 3.542 3.45v1.924c0 .844.701 1.528 1.557 1.528.866 0 1.557-.684 1.557-1.528v-1.977c-.011-3.579-2.994-6.495-6.678-6.495zM58.693 10H56.54a.486.486 0 0 0-.495.48v2.97c0 1.903-1.581 3.452-3.547 3.452-1.955 0-3.547-1.55-3.547-3.451v-1.923c0-.844-.703-1.528-1.56-1.528-.867 0-1.559.684-1.559 1.528v1.976c0 3.59 2.987 6.496 6.666 6.496 3.69 0 6.666-2.906 6.666-6.496v-3.023c.022-.267-.198-.481-.472-.481zm9.64-3.312h-1.438a.49.49 0 0 0-.495.49v2.136c0 .272.22.49.495.49h1.438c1.955 0 3.548 1.58 3.548 3.518 0 1.94-1.582 3.519-3.548 3.519-1.955 0-3.547-1.58-3.547-3.519V1.558c0-.86-.703-1.558-1.56-1.558-.867 0-1.56.697-1.56 1.558v11.819c0 3.66 2.988 6.623 6.667 6.623C72.023 20 75 17.037 75 13.377v-.044c0-3.682-2.987-6.645-6.667-6.645z"/>
</svg>
