<svg width="564" height="122" viewBox="0 0 564 122" fill="none" xmlns="http://www.w3.org/2000/svg">
<g clip-path="url(#clip0_1_84689)">
<path d="M23.4484 81.24L21.6084 74.93C20.6984 71.81 19.0184 68.97 16.7184 66.67C14.4184 64.37 11.5784 62.69 8.45844 61.78L2.14844 59.94L8.45844 58.1C11.5784 57.19 14.4184 55.51 16.7184 53.21C19.0184 50.91 20.6984 48.07 21.6084 44.95L23.4484 38.64L25.2884 44.95C26.1984 48.07 27.8784 50.91 30.1784 53.21C32.4784 55.51 35.3184 57.19 38.4384 58.1L44.7484 59.94L38.4384 61.78C35.3184 62.69 32.4784 64.37 30.1784 66.67C27.8784 68.97 26.1984 71.81 25.2884 74.93L23.4484 81.24Z" fill="white"/>
<mask id="mask0_1_84689" style="mask-type:luminance" maskUnits="userSpaceOnUse" x="2" y="38" width="43" height="44">
<path d="M23.4484 81.24L21.6084 74.93C20.6984 71.81 19.0184 68.97 16.7184 66.67C14.4184 64.37 11.5784 62.69 8.45844 61.78L2.14844 59.94L8.45844 58.1C11.5784 57.19 14.4184 55.51 16.7184 53.21C19.0184 50.91 20.6984 48.07 21.6084 44.95L23.4484 38.64L25.2884 44.95C26.1984 48.07 27.8784 50.91 30.1784 53.21C32.4784 55.51 35.3184 57.19 38.4384 58.1L44.7484 59.94L38.4384 61.78C35.3184 62.69 32.4784 64.37 30.1784 66.67C27.8784 68.97 26.1984 71.81 25.2884 74.93L23.4484 81.24Z" fill="white"/>
</mask>
<g mask="url(#mask0_1_84689)">
<path d="M23.4484 81.24L21.6084 74.93C20.6984 71.81 19.0184 68.97 16.7184 66.67C14.4184 64.37 11.5784 62.69 8.45844 61.78L2.14844 59.94L8.45844 58.1C11.5784 57.19 14.4184 55.51 16.7184 53.21C19.0184 50.91 20.6984 48.07 21.6084 44.95L23.4484 38.64L25.2884 44.95C26.1984 48.07 27.8784 50.91 30.1784 53.21C32.4784 55.51 35.3184 57.19 38.4384 58.1L44.7484 59.94L38.4384 61.78C35.3184 62.69 32.4784 64.37 30.1784 66.67C27.8784 68.97 26.1984 71.81 25.2884 74.93L23.4484 81.24Z" fill="white"/>
<path d="M23.4484 81.24L21.6084 74.93C20.6984 71.81 19.0184 68.97 16.7184 66.67C14.4184 64.37 11.5784 62.69 8.45844 61.78L2.14844 59.94L8.45844 58.1C11.5784 57.19 14.4184 55.51 16.7184 53.21C19.0184 50.91 20.6984 48.07 21.6084 44.95L23.4484 38.64L25.2884 44.95C26.1984 48.07 27.8784 50.91 30.1784 53.21C32.4784 55.51 35.3184 57.19 38.4384 58.1L44.7484 59.94L38.4384 61.78C35.3184 62.69 32.4784 64.37 30.1784 66.67C27.8784 68.97 26.1984 71.81 25.2884 74.93L23.4484 81.24Z" fill="white"/>
<path d="M48.2716 32.38H23.3516V60.05H48.2716V32.38Z" fill="white"/>
<path d="M23.35 60.05H0V84.78H23.35V60.05Z" fill="white"/>
<path d="M2.15625 60.05H23.3463L23.4463 59.36L2.15625 60.05Z" fill="white"/>
<path d="M44.5391 59.95L23.5391 59.36V60.05L44.5391 59.95Z" fill="white"/>
<path d="M23.35 38.86L23.25 60.05H23.94L23.35 38.86Z" fill="white"/>
<path d="M23.35 81.14L23.94 59.85H23.25L23.35 81.14Z" fill="white"/>
</g>
<path fill-rule="evenodd" clip-rule="evenodd" d="M34.1687 48.73C30.7887 45.34 28.3088 41.16 26.9888 36.56C24.0288 26.39 29.7787 15.63 39.9587 12.68C42.0387 12.08 44.1887 11.77 46.3487 11.78V55.62C50.6087 51.21 54.5988 43.84 59.5488 34.7C60.7888 32.42 62.0788 30.03 63.4488 27.54C74.8188 6.98002 102.729 13.66 102.729 13.66C93.5387 20.6 80.5387 45.04 80.5387 45.04C74.9287 53.59 68.0588 57.93 61.5387 59.99C68.0588 62.04 74.9287 66.38 80.5387 74.94C80.5387 74.94 93.5387 99.38 102.739 106.32C102.739 106.32 74.8287 112.99 63.4587 92.43C62.0787 89.93 60.7788 87.53 59.5387 85.24C54.5987 76.12 50.6187 68.76 46.3487 64.35V82.59C46.3487 85.6 45.7588 88.57 44.6088 91.35C43.4588 94.13 41.7688 96.65 39.6488 98.78C37.5288 100.91 34.9988 102.59 32.2288 103.74C29.4488 104.89 26.4787 105.48 23.4688 105.48C23.4688 98.88 24.4088 92.31 26.2488 85.97L26.9988 83.41C28.3288 78.81 30.7988 74.62 34.1788 71.24C37.5588 67.85 41.7487 65.38 46.3487 64.05H46.3588L60.2787 60L46.3588 55.94C46.3588 55.94 46.3587 55.94 46.3487 55.94C41.7487 54.61 37.5588 52.14 34.1788 48.76L34.1687 48.73Z" fill="white"/>
<mask id="mask1_1_84689" style="mask-type:luminance" maskUnits="userSpaceOnUse" x="23" y="11" width="80" height="97">
<path d="M34.1687 48.73C30.7887 45.34 28.3088 41.16 26.9888 36.56C24.0288 26.39 29.7787 15.63 39.9587 12.68C42.0387 12.08 44.1887 11.77 46.3487 11.78V55.62C50.6087 51.21 54.5988 43.84 59.5488 34.7C60.7888 32.42 62.0788 30.03 63.4488 27.54C74.8188 6.98002 102.729 13.66 102.729 13.66C93.5387 20.6 80.5387 45.04 80.5387 45.04C74.9287 53.59 68.0588 57.93 61.5387 59.99C68.0588 62.04 74.9287 66.38 80.5387 74.94C80.5387 74.94 93.5387 99.38 102.739 106.32C102.739 106.32 74.8287 112.99 63.4587 92.43C62.0787 89.93 60.7788 87.53 59.5387 85.24C54.5987 76.12 50.6187 68.76 46.3487 64.35V82.59C46.3487 85.6 45.7588 88.57 44.6088 91.35C43.4588 94.13 41.7688 96.65 39.6488 98.78C37.5288 100.91 34.9988 102.59 32.2288 103.74C29.4488 104.89 26.4787 105.48 23.4688 105.48C23.4688 98.88 24.4088 92.31 26.2488 85.97L26.9988 83.41C28.3288 78.81 30.7988 74.62 34.1788 71.24C37.5588 67.85 41.7487 65.38 46.3487 64.05H46.3588L60.2787 60L46.3588 55.94C46.3588 55.94 46.3587 55.94 46.3487 55.94C41.7487 54.61 37.5588 52.14 34.1788 48.76L34.1687 48.73Z" fill="white"/>
</mask>
<g mask="url(#mask1_1_84689)">
<path fill-rule="evenodd" clip-rule="evenodd" d="M34.0594 48.73C30.6794 45.34 28.1994 41.16 26.8794 36.56C23.9194 26.39 29.6694 15.63 39.8494 12.68C41.9294 12.08 44.0794 11.77 46.2394 11.78V55.62C50.4994 51.21 54.4894 43.84 59.4394 34.7C60.6794 32.42 61.9694 30.03 63.3394 27.54C74.7094 6.98002 102.619 13.66 102.619 13.66C93.4294 20.6 80.4294 45.04 80.4294 45.04C74.8194 53.59 67.9494 57.93 61.4294 59.99C67.9494 62.04 74.8194 66.38 80.4294 74.94C80.4294 74.94 93.4294 99.38 102.629 106.32C102.629 106.32 74.7194 112.99 63.3494 92.43C61.9694 89.93 60.6694 87.53 59.4294 85.24C54.4894 76.12 50.5094 68.76 46.2394 64.35V82.59C46.2394 85.6 45.6494 88.57 44.4994 91.35C43.3494 94.13 41.6594 96.65 39.5394 98.78C37.4194 100.91 34.8894 102.59 32.1194 103.74C29.3394 104.89 26.3694 105.48 23.3594 105.48C23.3594 98.88 24.2994 92.31 26.1394 85.97L26.8894 83.41C28.2194 78.81 30.6894 74.62 34.0694 71.24C37.4494 67.85 41.6394 65.38 46.2394 64.05H46.2494L60.1694 60L46.2494 55.94C46.2494 55.94 46.2494 55.94 46.2394 55.94C41.6394 54.61 37.4494 52.14 34.0694 48.76L34.0594 48.73Z" fill="white"/>
<path d="M74.6009 33.15C84.1409 15.03 96.5109 13.43 102.631 13.63C90.4109 9.73996 67.2409 11.75 60.3209 31.77C58.0009 37.37 49.6409 51.61 46.2109 55.63C55.3909 54.56 64.4509 52.43 74.6009 33.15Z" fill="white"/>
<path d="M34.4915 49.99C40.2315 55.04 47.1515 58.55 54.6215 60.2C62.0915 61.85 69.8515 61.58 77.1915 59.41L39.2915 0C36.3815 1.85 33.7415 4.11 31.4615 6.71C20.2815 19.41 21.7615 38.85 34.4815 49.99H34.4915Z" fill="white"/>
<path d="M29.4013 77.7199C25.7113 84.4099 23.7713 91.9299 23.7813 99.5799C23.7813 107.23 25.7213 114.75 29.4213 121.45L79.2513 71.6199C76.8113 69.1799 74.0413 67.0899 71.0113 65.4199C56.1913 57.2499 37.5313 62.8999 29.4013 77.7199Z" fill="white"/>
<path d="M73.5759 84.43C63.0259 64.38 51.6059 64.04 44.8359 64.27C63.5759 56.88 77.6559 56.62 86.9259 78.99C89.4959 85.19 101.186 104.86 104.976 109.31C94.8159 108.13 84.8059 105.77 73.5759 84.43Z" fill="white"/>
</g>
<path fill-rule="evenodd" clip-rule="evenodd" d="M330.778 98.85C327.238 99.03 323.698 98.46 320.398 97.19C317.088 95.92 314.088 93.97 311.578 91.46C309.068 88.95 307.118 85.95 305.848 82.64C304.578 79.33 304.008 75.8 304.188 72.26C303.908 65.31 306.208 58.5 310.648 53.15C313.038 50.58 315.958 48.57 319.208 47.26C322.458 45.95 325.968 45.38 329.468 45.59H329.668C331.818 45.57 333.958 45.82 336.038 46.35C337.768 46.76 339.448 47.4 341.008 48.24C342.198 48.93 343.328 49.7 344.408 50.54C345.158 51.12 345.868 51.75 346.528 52.43L347.138 53.24V21.03H357.348V72.26C357.428 76.38 356.648 80.47 355.048 84.27C353.698 87.53 351.568 90.41 348.848 92.65C346.328 94.7 343.458 96.28 340.378 97.3C337.268 98.33 334.018 98.85 330.748 98.84L330.778 98.85ZM330.778 89.63C333.008 89.69 335.228 89.28 337.288 88.42C339.348 87.56 341.208 86.28 342.738 84.65C344.328 83.01 345.568 81.08 346.398 78.95C347.228 76.83 347.628 74.56 347.568 72.28C347.628 70.01 347.228 67.75 346.398 65.64C345.568 63.53 344.328 61.6 342.738 59.98C341.208 58.35 339.358 57.05 337.298 56.19C335.238 55.32 333.018 54.9 330.778 54.95C328.588 54.91 326.418 55.33 324.408 56.2C322.398 57.07 320.608 58.36 319.138 59.98C316.048 63.34 314.398 67.78 314.538 72.34C314.388 76.86 315.978 81.27 318.988 84.65C320.478 86.28 322.298 87.57 324.328 88.43C326.358 89.29 328.558 89.7 330.768 89.62L330.778 89.63ZM129.918 26.15H140.648V63.76L172.008 26.15H183.878L159.528 55.71L187.538 97.72H174.358L152.158 64.3L140.518 78.53V97.64H129.898V26.15H129.918ZM193.418 53.41C195.878 50.93 198.798 48.96 202.018 47.62C205.238 46.28 208.698 45.59 212.178 45.59C215.658 45.59 219.118 46.28 222.338 47.62C225.558 48.96 228.478 50.93 230.938 53.41C233.418 55.86 235.378 58.78 236.728 62C238.068 65.22 238.758 68.67 238.758 72.16C238.758 75.65 238.068 79.1 236.728 82.32C235.388 85.54 233.418 88.46 230.938 90.91C228.478 93.39 225.558 95.36 222.338 96.7C219.118 98.04 215.668 98.73 212.178 98.73C208.688 98.73 205.238 98.04 202.018 96.7C198.798 95.36 195.878 93.39 193.418 90.91C190.938 88.46 188.978 85.54 187.628 82.32C186.288 79.1 185.598 75.65 185.598 72.16C185.598 68.67 186.288 65.22 187.628 62C188.968 58.78 190.938 55.86 193.418 53.41ZM223.728 59.9C222.288 58.26 220.488 56.96 218.468 56.11C216.458 55.26 214.268 54.87 212.088 54.98C209.908 54.9 207.738 55.3 205.728 56.15C203.718 57 201.918 58.28 200.448 59.89C197.418 63.24 195.798 67.63 195.938 72.14C195.798 76.66 197.408 81.06 200.448 84.42C201.918 86.04 203.708 87.32 205.728 88.16C207.738 89.01 209.908 89.41 212.088 89.33C214.268 89.44 216.458 89.05 218.468 88.2C220.478 87.35 222.278 86.05 223.728 84.41C226.708 81.03 228.278 76.64 228.118 72.13C228.268 67.64 226.698 63.26 223.728 59.88V59.9ZM261.328 47.62C258.108 48.96 255.188 50.93 252.728 53.41C250.218 55.83 248.218 58.75 246.878 61.97C245.528 65.19 244.858 68.66 244.908 72.15C244.918 77.4 246.488 82.52 249.408 86.88C252.328 91.24 256.478 94.64 261.328 96.64C266.178 98.65 271.508 99.17 276.658 98.15C281.808 97.13 286.538 94.61 290.258 90.91C292.738 88.46 294.698 85.54 296.048 82.32C297.388 79.1 298.078 75.65 298.078 72.16C298.078 68.67 297.388 65.22 296.048 62C294.708 58.78 292.738 55.86 290.258 53.41C287.798 50.93 284.878 48.96 281.658 47.62C278.438 46.28 274.988 45.59 271.498 45.59C268.008 45.59 264.558 46.28 261.328 47.62ZM277.778 56.13C279.788 56.98 281.588 58.27 283.038 59.9C286.008 63.27 287.578 67.65 287.428 72.15C287.588 76.65 286.008 81.04 283.038 84.43C281.588 86.06 279.788 87.35 277.778 88.2C275.768 89.05 273.588 89.44 271.408 89.35C269.228 89.42 267.058 89.02 265.048 88.17C263.038 87.32 261.238 86.05 259.768 84.43C256.728 81.08 255.118 76.68 255.258 72.15C255.118 67.64 256.738 63.25 259.768 59.9C261.238 58.29 263.038 57.01 265.048 56.16C267.058 55.31 269.228 54.91 271.408 54.98C273.588 54.88 275.768 55.28 277.778 56.13ZM402.398 47.15C399.258 46.09 395.968 45.56 392.658 45.58H392.508C388.458 45.51 384.428 46.3 380.698 47.88C377.428 49.21 374.538 51.32 372.258 54.02C370.158 56.53 368.528 59.4 367.458 62.49C366.358 65.56 365.798 68.8 365.798 72.06C365.648 79.1 368.278 85.92 373.128 91.03C375.578 93.63 378.558 95.67 381.868 97.02C385.178 98.37 388.728 99 392.298 98.86C394.268 98.86 396.218 98.58 398.118 98.05C399.738 97.61 401.298 96.98 402.768 96.19C403.968 95.54 405.098 94.77 406.148 93.89C407.158 93.06 407.858 92.45 408.238 92.06C408.518 91.79 408.768 91.5 408.998 91.19V97.74H419.238V72.17C419.308 68.05 418.538 63.96 416.968 60.16C415.668 56.92 413.578 54.06 410.888 51.84C408.348 49.8 405.478 48.23 402.398 47.19V47.15ZM386.298 56.01C388.308 55.15 390.478 54.73 392.658 54.78C394.908 54.74 397.128 55.19 399.198 56.08C401.258 56.97 403.108 58.3 404.618 59.96C407.778 63.29 409.508 67.73 409.418 72.32C409.478 74.59 409.078 76.85 408.258 78.97C407.438 81.09 406.198 83.02 404.618 84.66C403.078 86.3 401.198 87.6 399.118 88.46C397.038 89.32 394.798 89.73 392.538 89.66C390.358 89.71 388.178 89.29 386.178 88.43C384.168 87.57 382.368 86.28 380.908 84.66C377.828 81.24 376.208 76.75 376.398 72.15C376.258 67.58 377.918 63.14 381.018 59.79C382.488 58.17 384.288 56.88 386.288 56.02L386.298 56.01ZM428.438 97.71V21.03H438.648V97.71H428.438ZM448.888 21.03V97.71H459.098V21.03H448.888Z" fill="white"/>
<path fill-rule="evenodd" clip-rule="evenodd" d="M546.92 20.89H468.82V81.37C468.82 90.27 476.03 97.48 484.93 97.48H546.92C555.82 97.48 563.03 90.27 563.03 81.37V37C563.03 28.1 555.82 20.89 546.92 20.89ZM539.791 48.0796H547.951V88.8896H539.791V48.0796ZM539.791 28.4896H547.951V36.5696H539.791V28.4896ZM511.261 54.5996C507.451 54.5996 504.321 55.9296 501.871 58.5996V58.5896C499.421 61.2596 498.201 64.5496 498.201 68.4696C498.201 72.3896 499.421 75.6796 501.871 78.3496C504.321 81.0196 507.451 82.3496 511.261 82.3496C515.071 82.3496 518.251 81.0196 520.811 78.3496C523.371 75.6896 524.651 72.4796 524.651 68.5596C524.651 64.6396 523.371 61.3496 520.811 58.6796C518.251 55.9596 515.071 54.5996 511.261 54.5996ZM511.261 47.2496C513.981 47.2496 516.561 47.6896 519.011 48.5596H518.991C521.491 49.3696 523.751 50.5996 525.761 52.2296C527.831 53.8596 529.461 56.0896 530.661 58.9196C531.851 61.6996 532.451 64.8796 532.451 68.4696V88.8696H524.291V83.6496C524.181 83.8096 523.971 84.0496 523.641 84.3796C523.371 84.6496 522.831 85.1396 522.011 85.8496C521.201 86.5096 520.301 87.1096 519.321 87.6496C518.341 88.1996 517.091 88.6796 515.571 89.1196C514.101 89.5496 512.581 89.7696 511.001 89.7696H510.921C504.611 89.7696 499.501 87.7096 495.581 83.5696C491.721 79.3796 489.791 74.3196 489.791 68.3896C489.791 65.7796 490.231 63.2496 491.101 60.7996C491.971 58.2996 493.251 56.0396 494.941 54.0296C496.621 51.9596 498.861 50.3296 501.631 49.1296C504.461 47.8796 507.621 47.2496 511.101 47.2496H511.261Z" fill="white"/>
</g>
<defs>
<clipPath id="clip0_1_84689">
<rect width="563.03" height="121.45" fill="white"/>
</clipPath>
</defs>
</svg>
