<svg width="135" height="52" viewBox="0 0 135 52" fill="none" xmlns="http://www.w3.org/2000/svg">
<rect x="0.5" y="0.5" width="134" height="51" rx="3.5" fill="#CC4957" stroke="white"/>
<path fill-rule="evenodd" clip-rule="evenodd" d="M80.6146 4L54.5877 30L55.4371 30.8485L81.464 4.84853L80.6146 4ZM70.1053 18.64L79.2309 9.52384L80.0781 9.46403C83.7998 9.32168 87.3012 9.56212 90.2896 10.1753C90.8358 10.2641 91.921 10.763 91.9927 11.9883C92.0069 12.2383 91.9977 12.7023 91.9877 13.1144L91.9862 13.1852C91.9809 13.4268 91.9763 13.6426 91.9793 13.7688C91.9993 14.5947 91.6965 14.9215 91.4538 15.1834L91.4465 15.1913C91.372 15.2726 91.3071 15.3433 91.2578 15.4263C91.1436 15.6191 91.0618 15.8574 91.0159 16.1353C90.016 22.1931 89.7908 23.0196 87.2521 24.3552C86.0368 24.9942 83.5389 25.4242 81.0361 25.4242C79.0845 25.4242 76.2655 25.1684 73.921 23.9461C72.3427 23.1228 71.2219 21.3678 70.4677 19.6921L70.1053 18.64ZM71.9133 18.2481L78.7968 11.3716C78.9619 11.3603 79.1306 11.3496 79.303 11.3395C80.474 11.2716 81.4673 11.2383 82.3398 11.2383C86.278 11.2383 87.5314 11.9456 88.2769 13.0862C88.7233 13.7686 89.0267 15.1961 89.0301 16.101C89.0385 18.0771 88.6406 21.5897 85.8977 22.9178C84.6407 23.526 82.756 23.8893 80.8568 23.8893C77.2113 23.8893 74.2973 22.6512 73.0637 20.5783C72.56 19.7331 72.187 18.9545 71.9133 18.2481ZM68.6344 12.0863C69.0924 11.9859 69.8996 11.6827 70.5411 11.3765L66.9299 14.984C66.4673 15.464 66.245 15.754 66.05 16.0084C65.863 16.2524 65.7011 16.4635 65.3767 16.7779L56.9327 25.2131L55.9243 25.3352C55.2164 25.401 54.5505 25.4242 53.9631 25.4242C51.4604 25.4242 48.9619 24.9951 47.7468 24.3552C45.2084 23.0196 44.9833 22.1939 43.9829 16.1361C43.9368 15.8574 43.8555 15.6189 43.7413 15.427C43.6924 15.3452 43.6286 15.2755 43.5556 15.1958L43.5445 15.1836C43.3018 14.9218 42.9999 14.596 43.0196 13.7696C43.0222 13.6557 43.0187 13.4661 43.0146 13.25L43.0122 13.115C43.0027 12.7031 42.9925 12.2389 43.008 11.9891C43.0796 10.7638 44.1643 10.2647 44.7269 10.1727C48.1943 9.46039 52.3928 9.25219 56.8201 9.56867L57.0516 9.58509L57.0537 9.58523C59.7521 9.77597 61.2384 9.88102 63.0102 10.6736C63.4217 10.8578 63.8445 11.0662 64.2186 11.2581C64.8855 11.601 65.8478 11.973 66.3637 12.0863C66.5723 12.1326 66.7833 12.1772 66.9701 12.2155C67.2391 12.27 67.7595 12.27 68.0285 12.2155C68.2153 12.178 68.4263 12.1326 68.6344 12.0863ZM57.1558 23.5761C56.2314 23.7816 55.2188 23.8896 54.1424 23.8896C52.2425 23.8896 50.3575 23.5263 49.1003 22.9181C46.3572 21.59 45.9598 18.0775 45.9677 16.1013C45.9711 15.1951 46.2742 13.768 46.72 13.0856C47.4666 11.9445 48.7197 11.2377 52.6574 11.2377C53.5302 11.2377 54.5235 11.271 55.6944 11.3389C62.3719 11.7279 63.4496 13.1409 63.6409 13.6143C63.6483 13.6311 64.1035 14.9722 63.396 17.3423L57.1558 23.5761Z" fill="white"/>
<path d="M52.2889 37.0298C52.2065 36.7713 52.0957 36.5398 51.9565 36.3352C51.8201 36.1278 51.6568 35.9517 51.4664 35.8068C51.2761 35.6591 51.0588 35.5469 50.8145 35.4702C50.573 35.3935 50.3074 35.3551 50.0176 35.3551C49.5261 35.3551 49.0829 35.4815 48.688 35.7344C48.2931 35.9872 47.9806 36.358 47.7505 36.8466C47.5233 37.3324 47.4096 37.9276 47.4096 38.6321C47.4096 39.3395 47.5247 39.9375 47.7548 40.4261C47.9849 40.9148 48.3002 41.2855 48.7008 41.5384C49.1014 41.7912 49.5574 41.9176 50.0687 41.9176C50.5431 41.9176 50.9565 41.821 51.3088 41.6278C51.6639 41.4347 51.938 41.1619 52.1312 40.8097C52.3272 40.4545 52.4252 40.0369 52.4252 39.5568L52.7662 39.6207H50.269V38.5341H53.6994V39.527C53.6994 40.2599 53.5431 40.8963 53.2306 41.4361C52.921 41.973 52.492 42.3878 51.9437 42.6804C51.3983 42.973 50.7733 43.1193 50.0687 43.1193C49.2789 43.1193 48.5858 42.9375 47.9892 42.5739C47.3954 42.2102 46.9324 41.6946 46.6 41.027C46.2676 40.3565 46.1014 39.5611 46.1014 38.6406C46.1014 37.9446 46.198 37.3196 46.3912 36.7656C46.5843 36.2116 46.8556 35.7415 47.2051 35.3551C47.5574 34.9659 47.9707 34.669 48.4451 34.4645C48.9224 34.2571 49.4437 34.1534 50.0091 34.1534C50.4806 34.1534 50.9196 34.223 51.3258 34.3622C51.7349 34.5014 52.0985 34.6989 52.4167 34.9545C52.7377 35.2102 53.0034 35.5142 53.2136 35.8665C53.4238 36.2159 53.5659 36.6037 53.6397 37.0298H52.2889ZM56.5428 34.2727V43H55.2686V34.2727H56.5428ZM60.1618 43.1449C59.747 43.1449 59.372 43.0682 59.0368 42.9148C58.7015 42.7585 58.4359 42.5327 58.2399 42.2372C58.0467 41.9418 57.9501 41.5795 57.9501 41.1506C57.9501 40.7812 58.0211 40.4773 58.1632 40.2386C58.3052 40 58.497 39.8111 58.7385 39.6719C58.9799 39.5327 59.2498 39.4276 59.5481 39.3565C59.8464 39.2855 60.1504 39.2315 60.46 39.1946C60.8521 39.1491 61.1703 39.1122 61.4146 39.0838C61.6589 39.0526 61.8365 39.0028 61.9473 38.9347C62.0581 38.8665 62.1135 38.7557 62.1135 38.6023V38.5724C62.1135 38.2003 62.0083 37.9119 61.7981 37.7074C61.5907 37.5028 61.2811 37.4006 60.8691 37.4006C60.4402 37.4006 60.1021 37.4957 59.8549 37.6861C59.6106 37.8736 59.4416 38.0824 59.3478 38.3125L58.1504 38.0398C58.2924 37.642 58.4998 37.321 58.7725 37.0767C59.0481 36.8295 59.3649 36.6506 59.7228 36.5398C60.0808 36.4261 60.4572 36.3693 60.8521 36.3693C61.1135 36.3693 61.3904 36.4006 61.6831 36.4631C61.9785 36.5227 62.2541 36.6335 62.5098 36.7955C62.7683 36.9574 62.9799 37.1889 63.1447 37.4901C63.3095 37.7884 63.3919 38.1761 63.3919 38.6534V43H62.1475V42.1051H62.0964C62.014 42.2699 61.8904 42.4318 61.7257 42.5909C61.5609 42.75 61.3493 42.8821 61.0907 42.9872C60.8322 43.0923 60.5225 43.1449 60.1618 43.1449ZM60.4387 42.1222C60.791 42.1222 61.0922 42.0526 61.3422 41.9134C61.595 41.7741 61.7868 41.5923 61.9174 41.3679C62.051 41.1406 62.1177 40.8977 62.1177 40.6392V39.7955C62.0723 39.8409 61.9842 39.8835 61.8535 39.9233C61.7257 39.9602 61.5794 39.9929 61.4146 40.0213C61.2498 40.0469 61.0893 40.071 60.9331 40.0938C60.7768 40.1136 60.6461 40.1307 60.541 40.1449C60.2939 40.1761 60.068 40.2287 59.8635 40.3026C59.6618 40.3764 59.4998 40.483 59.3777 40.6222C59.2583 40.7585 59.1987 40.9403 59.1987 41.1676C59.1987 41.483 59.3152 41.7216 59.5481 41.8835C59.7811 42.0426 60.0779 42.1222 60.4387 42.1222ZM69.9938 38.0526L68.839 38.2571C68.7907 38.1094 68.714 37.9687 68.6088 37.8352C68.5066 37.7017 68.3674 37.5923 68.1912 37.5071C68.0151 37.4219 67.7949 37.3793 67.5307 37.3793C67.1699 37.3793 66.8688 37.4602 66.6273 37.6222C66.3858 37.7812 66.2651 37.9872 66.2651 38.2401C66.2651 38.4588 66.3461 38.6349 66.508 38.7685C66.6699 38.902 66.9313 39.0114 67.2921 39.0966L68.3319 39.3352C68.9341 39.4744 69.383 39.6889 69.6784 39.9787C69.9739 40.2685 70.1216 40.6449 70.1216 41.108C70.1216 41.5 70.008 41.8494 69.7807 42.1562C69.5563 42.4602 69.2424 42.6989 68.839 42.8722C68.4384 43.0455 67.9739 43.1321 67.4455 43.1321C66.7125 43.1321 66.1145 42.9759 65.6515 42.6634C65.1884 42.348 64.9043 41.9006 64.7992 41.321L66.0307 41.1335C66.1074 41.4545 66.2651 41.6974 66.5037 41.8622C66.7424 42.0241 67.0534 42.1051 67.437 42.1051C67.8546 42.1051 68.1884 42.0185 68.4384 41.8452C68.6884 41.669 68.8134 41.4545 68.8134 41.2017C68.8134 40.9972 68.7367 40.8253 68.5833 40.6861C68.4327 40.5469 68.2012 40.4418 67.8887 40.3707L66.7807 40.1278C66.1699 39.9886 65.7182 39.767 65.4256 39.4631C65.1358 39.1591 64.9909 38.7741 64.9909 38.3082C64.9909 37.9219 65.0989 37.5838 65.3148 37.294C65.5307 37.0043 65.829 36.7784 66.2097 36.6165C66.5904 36.4517 67.0265 36.3693 67.5179 36.3693C68.2253 36.3693 68.7821 36.5227 69.1884 36.8295C69.5946 37.1335 69.8631 37.5412 69.9938 38.0526ZM76.4274 38.0526L75.2725 38.2571C75.2243 38.1094 75.1475 37.9687 75.0424 37.8352C74.9402 37.7017 74.801 37.5923 74.6248 37.5071C74.4487 37.4219 74.2285 37.3793 73.9643 37.3793C73.6035 37.3793 73.3024 37.4602 73.0609 37.6222C72.8194 37.7812 72.6987 37.9872 72.6987 38.2401C72.6987 38.4588 72.7797 38.6349 72.9416 38.7685C73.1035 38.902 73.3649 39.0114 73.7257 39.0966L74.7654 39.3352C75.3677 39.4744 75.8166 39.6889 76.112 39.9787C76.4075 40.2685 76.5552 40.6449 76.5552 41.108C76.5552 41.5 76.4416 41.8494 76.2143 42.1562C75.9899 42.4602 75.676 42.6989 75.2725 42.8722C74.872 43.0455 74.4075 43.1321 73.8791 43.1321C73.1461 43.1321 72.5481 42.9759 72.085 42.6634C71.622 42.348 71.3379 41.9006 71.2328 41.321L72.4643 41.1335C72.541 41.4545 72.6987 41.6974 72.9373 41.8622C73.176 42.0241 73.487 42.1051 73.8706 42.1051C74.2882 42.1051 74.622 42.0185 74.872 41.8452C75.122 41.669 75.247 41.4545 75.247 41.2017C75.247 40.9972 75.1703 40.8253 75.0169 40.6861C74.8663 40.5469 74.6348 40.4418 74.3223 40.3707L73.2143 40.1278C72.6035 39.9886 72.1518 39.767 71.8592 39.4631C71.5694 39.1591 71.4245 38.7741 71.4245 38.3082C71.4245 37.9219 71.5325 37.5838 71.7484 37.294C71.9643 37.0043 72.2626 36.7784 72.6433 36.6165C73.024 36.4517 73.46 36.3693 73.9515 36.3693C74.6589 36.3693 75.2157 36.5227 75.622 36.8295C76.0282 37.1335 76.2967 37.5412 76.4274 38.0526ZM80.7772 43.1321C80.1323 43.1321 79.5769 42.9943 79.111 42.7188C78.6479 42.4403 78.29 42.0497 78.0371 41.5469C77.7871 41.0412 77.6621 40.4489 77.6621 39.7699C77.6621 39.0994 77.7871 38.5085 78.0371 37.9972C78.29 37.4858 78.6422 37.0866 79.0939 36.7997C79.5485 36.5128 80.0797 36.3693 80.6877 36.3693C81.057 36.3693 81.415 36.4304 81.7615 36.5526C82.1081 36.6747 82.4192 36.8665 82.6948 37.1278C82.9703 37.3892 83.1877 37.7287 83.3468 38.1463C83.5059 38.5611 83.5854 39.0653 83.5854 39.6591V40.1108H78.3823V39.1562H82.3368C82.3368 38.821 82.2686 38.5241 82.1323 38.2656C81.9959 38.0043 81.8042 37.7983 81.557 37.6477C81.3127 37.4972 81.0257 37.4219 80.6962 37.4219C80.3382 37.4219 80.0257 37.5099 79.7587 37.6861C79.4945 37.8594 79.29 38.0866 79.1451 38.3679C79.003 38.6463 78.932 38.9489 78.932 39.2756V40.0213C78.932 40.4588 79.0087 40.831 79.1621 41.1378C79.3184 41.4446 79.5357 41.679 79.8141 41.8409C80.0925 42 80.4178 42.0795 80.79 42.0795C81.0314 42.0795 81.2516 42.0455 81.4505 41.9773C81.6493 41.9062 81.8212 41.8011 81.9661 41.6619C82.111 41.5227 82.2218 41.3509 82.2985 41.1463L83.5044 41.3636C83.4078 41.7187 83.2346 42.0298 82.9846 42.2969C82.7374 42.5611 82.4263 42.767 82.0513 42.9148C81.6792 43.0597 81.2544 43.1321 80.7772 43.1321ZM89.9039 38.0526L88.7491 38.2571C88.7008 38.1094 88.6241 37.9687 88.519 37.8352C88.4167 37.7017 88.2775 37.5923 88.1014 37.5071C87.9252 37.4219 87.7051 37.3793 87.4409 37.3793C87.0801 37.3793 86.7789 37.4602 86.5375 37.6222C86.296 37.7812 86.1752 37.9872 86.1752 38.2401C86.1752 38.4588 86.2562 38.6349 86.4181 38.7685C86.5801 38.902 86.8414 39.0114 87.2022 39.0966L88.242 39.3352C88.8443 39.4744 89.2931 39.6889 89.5886 39.9787C89.8841 40.2685 90.0318 40.6449 90.0318 41.108C90.0318 41.5 89.9181 41.8494 89.6909 42.1562C89.4664 42.4602 89.1525 42.6989 88.7491 42.8722C88.3485 43.0455 87.8841 43.1321 87.3556 43.1321C86.6227 43.1321 86.0247 42.9759 85.5616 42.6634C85.0985 42.348 84.8145 41.9006 84.7093 41.321L85.9409 41.1335C86.0176 41.4545 86.1752 41.6974 86.4139 41.8622C86.6525 42.0241 86.9636 42.1051 87.3471 42.1051C87.7647 42.1051 88.0985 42.0185 88.3485 41.8452C88.5985 41.669 88.7235 41.4545 88.7235 41.2017C88.7235 40.9972 88.6468 40.8253 88.4934 40.6861C88.3429 40.5469 88.1113 40.4418 87.7988 40.3707L86.6909 40.1278C86.0801 39.9886 85.6284 39.767 85.3358 39.4631C85.046 39.1591 84.9011 38.7741 84.9011 38.3082C84.9011 37.9219 85.0091 37.5838 85.225 37.294C85.4409 37.0043 85.7392 36.7784 86.1199 36.6165C86.5005 36.4517 86.9366 36.3693 87.4281 36.3693C88.1355 36.3693 88.6923 36.5227 89.0985 36.8295C89.5048 37.1335 89.7733 37.5412 89.9039 38.0526Z" fill="white"/>
</svg>
