<svg width="135" height="52" viewBox="0 0 135 52" fill="none" xmlns="http://www.w3.org/2000/svg">
<rect x="0.5" y="0.5" width="134" height="51" rx="3.5" fill="#5C8570" stroke="white"/>
<path d="M43.0196 13.3453C42.9999 14.1723 43.3022 14.498 43.545 14.7599C43.6224 14.8446 43.6901 14.917 43.7413 15.0027C43.8555 15.1947 43.9368 15.4331 43.9829 15.7118C44.9833 21.7696 45.2084 22.5954 47.7468 23.931C48.9619 24.5709 51.4604 25 53.9631 25C55.9148 25 58.7337 24.7434 61.078 23.5218C64.4934 21.7415 65.766 15.5961 65.8258 15.2869C65.8291 15.2557 65.93 14.5224 67.4904 14.5224H67.492L67.5875 14.5216C69.0677 14.5216 69.1696 15.2557 69.1804 15.3348C69.2329 15.5961 70.5058 21.7405 73.921 23.5218C76.2655 24.7442 79.0845 25 81.0361 25C83.5389 25 86.0368 24.5699 87.2521 23.931C89.7908 22.5954 90.016 21.7688 91.0159 15.711C91.0618 15.4331 91.1436 15.1948 91.2578 15.0021C91.3087 14.9163 91.3762 14.8438 91.4538 14.7591C91.6965 14.4972 91.9993 14.1706 91.9793 13.3445C91.976 13.2061 91.9819 12.96 91.9877 12.6901C91.9977 12.2781 92.0069 11.814 91.9927 11.564C91.921 10.3388 90.8358 9.83981 90.2896 9.751C86.7976 9.03452 82.605 8.82696 78.179 9.14441L77.9478 9.16082C75.2481 9.35165 73.7611 9.45655 71.9889 10.2493C71.5777 10.4335 71.1548 10.6417 70.7803 10.8338C70.114 11.1767 69.1516 11.5487 68.6344 11.662C68.4263 11.7083 68.2153 11.7537 68.0285 11.7912C67.7595 11.8457 67.2391 11.8457 66.9701 11.7912C66.7833 11.7529 66.5723 11.7083 66.3637 11.662C65.8478 11.5487 64.8855 11.1767 64.2186 10.8338C63.8445 10.6419 63.4217 10.4335 63.0102 10.2493C61.238 9.45655 59.7513 9.35165 57.0516 9.16082L56.8201 9.14441C52.3928 8.82792 48.1943 9.03613 44.7269 9.74842C44.1643 9.84046 43.0796 10.3396 43.008 11.5648C42.9925 11.8147 43.0027 12.2789 43.0122 12.6908C43.017 12.9616 43.0228 13.2082 43.0196 13.3453ZM71.3765 13.1406C71.5476 12.7165 72.6242 11.3037 79.303 10.9153C80.474 10.8474 81.4673 10.8141 82.3398 10.8141C86.278 10.8141 87.5314 11.5214 88.2769 12.662C88.7233 13.3443 89.0267 14.7718 89.0301 15.6767C89.0385 17.6529 88.6406 21.1655 85.8977 22.4935C84.6407 23.1017 82.756 23.465 80.8568 23.465C77.2113 23.465 74.2973 22.2269 73.0637 20.1541C70.4681 15.7989 71.3447 13.2132 71.3765 13.1406ZM46.72 12.6613C47.4666 11.5202 48.7197 10.8134 52.6574 10.8134C53.5302 10.8134 54.5235 10.8467 55.6944 10.9146C62.3719 11.3037 63.4496 12.7167 63.6409 13.19C63.6512 13.2134 64.5282 15.8 61.9354 20.1544C60.7005 22.2272 57.7875 23.4654 54.1424 23.4654C52.2425 23.4654 50.3575 23.102 49.1003 22.4938C46.3572 21.1658 45.9598 17.6532 45.9677 15.6771C45.9711 14.7709 46.2742 13.3437 46.72 12.6613Z" fill="white"/>
<path d="M51.2889 37.0298C51.2065 36.7713 51.0957 36.5398 50.9565 36.3352C50.8201 36.1278 50.6568 35.9517 50.4664 35.8068C50.2761 35.6591 50.0588 35.5469 49.8145 35.4702C49.573 35.3935 49.3074 35.3551 49.0176 35.3551C48.5261 35.3551 48.0829 35.4815 47.688 35.7344C47.2931 35.9872 46.9806 36.358 46.7505 36.8466C46.5233 37.3324 46.4096 37.9276 46.4096 38.6321C46.4096 39.3395 46.5247 39.9375 46.7548 40.4261C46.9849 40.9148 47.3002 41.2855 47.7008 41.5384C48.1014 41.7912 48.5574 41.9176 49.0687 41.9176C49.5431 41.9176 49.9565 41.821 50.3088 41.6278C50.6639 41.4347 50.938 41.1619 51.1312 40.8097C51.3272 40.4545 51.4252 40.0369 51.4252 39.5568L51.7662 39.6207H49.269V38.5341H52.6994V39.527C52.6994 40.2599 52.5431 40.8963 52.2306 41.4361C51.921 41.973 51.492 42.3878 50.9437 42.6804C50.3983 42.973 49.7733 43.1193 49.0687 43.1193C48.2789 43.1193 47.5858 42.9375 46.9892 42.5739C46.3954 42.2102 45.9324 41.6946 45.6 41.027C45.2676 40.3565 45.1014 39.5611 45.1014 38.6406C45.1014 37.9446 45.198 37.3196 45.3912 36.7656C45.5843 36.2116 45.8556 35.7415 46.2051 35.3551C46.5574 34.9659 46.9707 34.669 47.4451 34.4645C47.9224 34.2571 48.4437 34.1534 49.0091 34.1534C49.4806 34.1534 49.9196 34.223 50.3258 34.3622C50.7349 34.5014 51.0985 34.6989 51.4167 34.9545C51.7377 35.2102 52.0034 35.5142 52.2136 35.8665C52.4238 36.2159 52.5659 36.6037 52.6397 37.0298H51.2889ZM55.5428 34.2727V43H54.2686V34.2727H55.5428ZM59.1618 43.1449C58.747 43.1449 58.372 43.0682 58.0368 42.9148C57.7015 42.7585 57.4359 42.5327 57.2399 42.2372C57.0467 41.9418 56.9501 41.5795 56.9501 41.1506C56.9501 40.7812 57.0211 40.4773 57.1632 40.2386C57.3052 40 57.497 39.8111 57.7385 39.6719C57.9799 39.5327 58.2498 39.4276 58.5481 39.3565C58.8464 39.2855 59.1504 39.2315 59.46 39.1946C59.8521 39.1491 60.1703 39.1122 60.4146 39.0838C60.6589 39.0526 60.8365 39.0028 60.9473 38.9347C61.0581 38.8665 61.1135 38.7557 61.1135 38.6023V38.5724C61.1135 38.2003 61.0083 37.9119 60.7981 37.7074C60.5907 37.5028 60.2811 37.4006 59.8691 37.4006C59.4402 37.4006 59.1021 37.4957 58.8549 37.6861C58.6106 37.8736 58.4416 38.0824 58.3478 38.3125L57.1504 38.0398C57.2924 37.642 57.4998 37.321 57.7725 37.0767C58.0481 36.8295 58.3649 36.6506 58.7228 36.5398C59.0808 36.4261 59.4572 36.3693 59.8521 36.3693C60.1135 36.3693 60.3904 36.4006 60.6831 36.4631C60.9785 36.5227 61.2541 36.6335 61.5098 36.7955C61.7683 36.9574 61.9799 37.1889 62.1447 37.4901C62.3095 37.7884 62.3919 38.1761 62.3919 38.6534V43H61.1475V42.1051H61.0964C61.014 42.2699 60.8904 42.4318 60.7257 42.5909C60.5609 42.75 60.3493 42.8821 60.0907 42.9872C59.8322 43.0923 59.5225 43.1449 59.1618 43.1449ZM59.4387 42.1222C59.791 42.1222 60.0922 42.0526 60.3422 41.9134C60.595 41.7741 60.7868 41.5923 60.9174 41.3679C61.051 41.1406 61.1177 40.8977 61.1177 40.6392V39.7955C61.0723 39.8409 60.9842 39.8835 60.8535 39.9233C60.7257 39.9602 60.5794 39.9929 60.4146 40.0213C60.2498 40.0469 60.0893 40.071 59.9331 40.0938C59.7768 40.1136 59.6461 40.1307 59.541 40.1449C59.2939 40.1761 59.068 40.2287 58.8635 40.3026C58.6618 40.3764 58.4998 40.483 58.3777 40.6222C58.2583 40.7585 58.1987 40.9403 58.1987 41.1676C58.1987 41.483 58.3152 41.7216 58.5481 41.8835C58.7811 42.0426 59.0779 42.1222 59.4387 42.1222ZM68.9938 38.0526L67.839 38.2571C67.7907 38.1094 67.714 37.9687 67.6088 37.8352C67.5066 37.7017 67.3674 37.5923 67.1912 37.5071C67.0151 37.4219 66.7949 37.3793 66.5307 37.3793C66.1699 37.3793 65.8688 37.4602 65.6273 37.6222C65.3858 37.7812 65.2651 37.9872 65.2651 38.2401C65.2651 38.4588 65.3461 38.6349 65.508 38.7685C65.6699 38.902 65.9313 39.0114 66.2921 39.0966L67.3319 39.3352C67.9341 39.4744 68.383 39.6889 68.6784 39.9787C68.9739 40.2685 69.1216 40.6449 69.1216 41.108C69.1216 41.5 69.008 41.8494 68.7807 42.1562C68.5563 42.4602 68.2424 42.6989 67.839 42.8722C67.4384 43.0455 66.9739 43.1321 66.4455 43.1321C65.7125 43.1321 65.1145 42.9759 64.6515 42.6634C64.1884 42.348 63.9043 41.9006 63.7992 41.321L65.0307 41.1335C65.1074 41.4545 65.2651 41.6974 65.5037 41.8622C65.7424 42.0241 66.0534 42.1051 66.437 42.1051C66.8546 42.1051 67.1884 42.0185 67.4384 41.8452C67.6884 41.669 67.8134 41.4545 67.8134 41.2017C67.8134 40.9972 67.7367 40.8253 67.5833 40.6861C67.4327 40.5469 67.2012 40.4418 66.8887 40.3707L65.7807 40.1278C65.1699 39.9886 64.7182 39.767 64.4256 39.4631C64.1358 39.1591 63.9909 38.7741 63.9909 38.3082C63.9909 37.9219 64.0989 37.5838 64.3148 37.294C64.5307 37.0043 64.829 36.7784 65.2097 36.6165C65.5904 36.4517 66.0265 36.3693 66.5179 36.3693C67.2253 36.3693 67.7821 36.5227 68.1884 36.8295C68.5946 37.1335 68.8631 37.5412 68.9938 38.0526ZM75.4274 38.0526L74.2725 38.2571C74.2243 38.1094 74.1475 37.9687 74.0424 37.8352C73.9402 37.7017 73.801 37.5923 73.6248 37.5071C73.4487 37.4219 73.2285 37.3793 72.9643 37.3793C72.6035 37.3793 72.3024 37.4602 72.0609 37.6222C71.8194 37.7812 71.6987 37.9872 71.6987 38.2401C71.6987 38.4588 71.7797 38.6349 71.9416 38.7685C72.1035 38.902 72.3649 39.0114 72.7257 39.0966L73.7654 39.3352C74.3677 39.4744 74.8166 39.6889 75.112 39.9787C75.4075 40.2685 75.5552 40.6449 75.5552 41.108C75.5552 41.5 75.4416 41.8494 75.2143 42.1562C74.9899 42.4602 74.676 42.6989 74.2725 42.8722C73.872 43.0455 73.4075 43.1321 72.8791 43.1321C72.1461 43.1321 71.5481 42.9759 71.085 42.6634C70.622 42.348 70.3379 41.9006 70.2328 41.321L71.4643 41.1335C71.541 41.4545 71.6987 41.6974 71.9373 41.8622C72.176 42.0241 72.487 42.1051 72.8706 42.1051C73.2882 42.1051 73.622 42.0185 73.872 41.8452C74.122 41.669 74.247 41.4545 74.247 41.2017C74.247 40.9972 74.1703 40.8253 74.0169 40.6861C73.8663 40.5469 73.6348 40.4418 73.3223 40.3707L72.2143 40.1278C71.6035 39.9886 71.1518 39.767 70.8592 39.4631C70.5694 39.1591 70.4245 38.7741 70.4245 38.3082C70.4245 37.9219 70.5325 37.5838 70.7484 37.294C70.9643 37.0043 71.2626 36.7784 71.6433 36.6165C72.024 36.4517 72.46 36.3693 72.9515 36.3693C73.6589 36.3693 74.2157 36.5227 74.622 36.8295C75.0282 37.1335 75.2967 37.5412 75.4274 38.0526ZM79.7772 43.1321C79.1323 43.1321 78.5769 42.9943 78.111 42.7188C77.6479 42.4403 77.29 42.0497 77.0371 41.5469C76.7871 41.0412 76.6621 40.4489 76.6621 39.7699C76.6621 39.0994 76.7871 38.5085 77.0371 37.9972C77.29 37.4858 77.6422 37.0866 78.0939 36.7997C78.5485 36.5128 79.0797 36.3693 79.6877 36.3693C80.057 36.3693 80.415 36.4304 80.7615 36.5526C81.1081 36.6747 81.4192 36.8665 81.6948 37.1278C81.9703 37.3892 82.1877 37.7287 82.3468 38.1463C82.5059 38.5611 82.5854 39.0653 82.5854 39.6591V40.1108H77.3823V39.1562H81.3368C81.3368 38.821 81.2686 38.5241 81.1323 38.2656C80.9959 38.0043 80.8042 37.7983 80.557 37.6477C80.3127 37.4972 80.0257 37.4219 79.6962 37.4219C79.3382 37.4219 79.0257 37.5099 78.7587 37.6861C78.4945 37.8594 78.29 38.0866 78.1451 38.3679C78.003 38.6463 77.932 38.9489 77.932 39.2756V40.0213C77.932 40.4588 78.0087 40.831 78.1621 41.1378C78.3184 41.4446 78.5357 41.679 78.8141 41.8409C79.0925 42 79.4178 42.0795 79.79 42.0795C80.0314 42.0795 80.2516 42.0455 80.4505 41.9773C80.6493 41.9062 80.8212 41.8011 80.9661 41.6619C81.111 41.5227 81.2218 41.3509 81.2985 41.1463L82.5044 41.3636C82.4078 41.7187 82.2346 42.0298 81.9846 42.2969C81.7374 42.5611 81.4263 42.767 81.0513 42.9148C80.6792 43.0597 80.2544 43.1321 79.7772 43.1321ZM88.9039 38.0526L87.7491 38.2571C87.7008 38.1094 87.6241 37.9687 87.519 37.8352C87.4167 37.7017 87.2775 37.5923 87.1014 37.5071C86.9252 37.4219 86.7051 37.3793 86.4409 37.3793C86.0801 37.3793 85.7789 37.4602 85.5375 37.6222C85.296 37.7812 85.1752 37.9872 85.1752 38.2401C85.1752 38.4588 85.2562 38.6349 85.4181 38.7685C85.5801 38.902 85.8414 39.0114 86.2022 39.0966L87.242 39.3352C87.8443 39.4744 88.2931 39.6889 88.5886 39.9787C88.8841 40.2685 89.0318 40.6449 89.0318 41.108C89.0318 41.5 88.9181 41.8494 88.6909 42.1562C88.4664 42.4602 88.1525 42.6989 87.7491 42.8722C87.3485 43.0455 86.8841 43.1321 86.3556 43.1321C85.6227 43.1321 85.0247 42.9759 84.5616 42.6634C84.0985 42.348 83.8145 41.9006 83.7093 41.321L84.9409 41.1335C85.0176 41.4545 85.1752 41.6974 85.4139 41.8622C85.6525 42.0241 85.9636 42.1051 86.3471 42.1051C86.7647 42.1051 87.0985 42.0185 87.3485 41.8452C87.5985 41.669 87.7235 41.4545 87.7235 41.2017C87.7235 40.9972 87.6468 40.8253 87.4934 40.6861C87.3429 40.5469 87.1113 40.4418 86.7988 40.3707L85.6909 40.1278C85.0801 39.9886 84.6284 39.767 84.3358 39.4631C84.046 39.1591 83.9011 38.7741 83.9011 38.3082C83.9011 37.9219 84.0091 37.5838 84.225 37.294C84.4409 37.0043 84.7392 36.7784 85.1199 36.6165C85.5005 36.4517 85.9366 36.3693 86.4281 36.3693C87.1355 36.3693 87.6923 36.5227 88.0985 36.8295C88.5048 37.1335 88.7733 37.5412 88.9039 38.0526Z" fill="white"/>
</svg>
