<svg width="62" height="64" viewBox="0 0 62 64" fill="none" xmlns="http://www.w3.org/2000/svg">
<path d="M48.0793 59.3097C34.7839 58.4127 25.1744 64.4099 18.768 63.9777L18.3756 63.9468C11.8397 63.3582 -0.79605 58.5355 1.21418 30.8019C3.26544 2.5022 21.6673 -0.431329 28.7138 0.0440321C61.7111 2.27003 71.6254 60.8981 48.0793 59.3097Z" fill="#EAE2FE" fill-opacity="0.6"/>
<path fill-rule="evenodd" clip-rule="evenodd" d="M52 8.5C52 9.87833 53.1217 11 54.5 11C55.8783 11 57 9.87833 57 8.5C57 7.12167 55.8783 6 54.5 6C53.1217 6 52 7.12167 52 8.5ZM53.6667 8.5C53.6667 8.04 54.04 7.66667 54.5 7.66667C54.96 7.66667 55.3333 8.04 55.3333 8.5C55.3333 8.96 54.96 9.33333 54.5 9.33333C54.04 9.33333 53.6667 8.96 53.6667 8.5Z" fill="#A4AFC1"/>
<rect x="10" y="35" width="44" height="20" fill="#8125F5"/>
<rect x="23" y="8" width="12" height="7" fill="white"/>
<rect x="40" y="17" width="5" height="8" fill="white"/>
<rect x="19" y="16" width="19" height="11" fill="#191428"/>
<path fill-rule="evenodd" clip-rule="evenodd" d="M37.1724 29H20.6207C18.6242 29 17 27.3616 17 25.3478V17C17 14.9862 18.6242 13.3478 20.6207 13.3478H20.7278C20.3297 12.5645 20.1034 11.6783 20.1034 10.7391C20.1034 7.57457 22.6558 5 25.7931 5C27.8463 5 29.6487 6.10296 30.6494 7.75207C31.3474 7.33019 32.1632 7.08696 33.0345 7.08696C35.6013 7.08696 37.6897 9.19343 37.6897 11.7826C37.6897 12.3348 37.594 12.8647 37.4196 13.3572C38.8334 13.4539 40.0265 14.3724 40.5326 15.6422L44.7543 13.513C45.2354 13.2704 45.8066 13.2964 46.2641 13.5816C46.7216 13.8667 47 14.3705 47 14.913V27.4347C47 27.9772 46.7216 28.481 46.2641 28.7662C46.015 28.9215 45.7319 28.9999 45.4482 28.9999C45.2111 28.9999 44.9733 28.9452 44.7543 28.8347L40.5326 26.7055C39.9972 28.0488 38.6933 29 37.1724 29ZM40.7931 23.3369L43.8966 24.9022V17.4456L40.7931 19.0108V23.3369ZM33.0345 10.2174C33.8901 10.2174 34.5862 10.9195 34.5862 11.7826C34.5862 12.6457 33.8901 13.3478 33.0345 13.3478C32.1789 13.3478 31.4828 12.6457 31.4828 11.7826C31.4828 10.9195 32.1789 10.2174 33.0345 10.2174ZM25.7931 8.13043C24.3671 8.13043 23.2069 9.3007 23.2069 10.7391C23.2069 12.1776 24.3671 13.3478 25.7931 13.3478C27.2191 13.3478 28.3793 12.1776 28.3793 10.7391C28.3793 9.3007 27.2191 8.13043 25.7931 8.13043ZM20.1034 17C20.1034 16.7123 20.3355 16.4783 20.6207 16.4783H37.1724C37.4576 16.4783 37.6897 16.7123 37.6897 17V18.0435V24.3043V25.3478C37.6897 25.6355 37.4576 25.8696 37.1724 25.8696H20.6207C20.3355 25.8696 20.1034 25.6355 20.1034 25.3478V17ZM51.3085 32H11.6915C9.1046 32 7 34.0994 7 36.68V53.32C7 55.9006 9.1046 58 11.6915 58H51.3085C53.8954 58 56 55.9006 56 53.32V36.68C56 34.0994 53.8954 32 51.3085 32ZM52.8723 53.32C52.8723 54.1802 52.1708 54.88 51.3085 54.88H11.6915C10.8292 54.88 10.1277 54.1802 10.1277 53.32V36.68C10.1277 35.8198 10.8292 35.12 11.6915 35.12H51.3085C52.1708 35.12 52.8723 35.8198 52.8723 36.68V53.32ZM19.3852 48.7595H19.376C18.6456 48.7636 17.8758 48.7666 17.2299 48.7679V39.6153C17.2299 38.7232 16.5068 38 15.615 38C14.7231 38 14 38.7232 14 39.6153V50.3748C14 51.1616 14.5667 51.8338 15.3419 51.9668C15.4582 51.9868 15.5355 52 16.7383 52C17.3183 52 18.16 51.997 19.3941 51.9901C20.2859 51.9851 21.0049 51.2578 21 50.3658C20.995 49.4767 20.2729 48.7595 19.3852 48.7595ZM23 39.6154C23 38.7233 23.6716 38 24.5 38C25.3284 38 26 38.7233 26 39.6154V50.3846C26 51.2767 25.3284 52 24.5 52C23.6716 52 23 51.2767 23 50.3846V39.6154ZM47.3365 41.2308C48.2552 41.2308 49 40.5075 49 39.6154C49 38.7233 48.2552 38 47.3365 38H42.6635C41.7448 38 41 38.7233 41 39.6154V50.3846C41 51.2767 41.7448 52 42.6635 52H47.3365C48.2552 52 49 51.2767 49 50.3846C49 49.4925 48.2552 48.7692 47.3365 48.7692H44.327V46.6154H46.9919C47.9106 46.6154 48.6554 45.8921 48.6554 45C48.6554 44.1079 47.9106 43.3846 46.9919 43.3846H44.327V41.2308H47.3365ZM36.1083 39.1264C36.3666 38.2798 37.206 37.8212 37.9838 38.1027C38.7613 38.3839 39.1823 39.2982 38.9239 40.1449L35.6949 50.7291L35.6914 50.7403C35.4574 51.4886 34.8127 51.9948 34.0867 52H34.0756C33.3542 52 32.7088 51.5043 32.4673 50.7633L32.4638 50.7527L29.0824 40.1455C28.8138 39.3028 29.2234 38.3824 29.9974 38.0899C30.7711 37.7971 31.6167 38.2432 31.8854 39.0861L34.0496 45.8746L36.1083 39.1264Z" fill="#191428"/>
</svg>
