<svg width="62" height="64" viewBox="0 0 62 64" fill="none" xmlns="http://www.w3.org/2000/svg">
<path d="M15.5038 8.20432C32.7545 1.56583 39.1172 -4.83819 49.0312 5.24553C58.9452 15.3293 64.7993 30.5002 58.1869 50.3534C51.5745 70.2066 22.2429 63.3103 16.4778 60.6867C-6.22916 50.3534 -1.68529 13.6663 15.5038 8.20432Z" fill="#EAE2FE" fill-opacity="0.6"/>
<path fill-rule="evenodd" clip-rule="evenodd" d="M55 47.5C55 48.8783 56.1217 50 57.5 50C58.8783 50 60 48.8783 60 47.5C60 46.1217 58.8783 45 57.5 45C56.1217 45 55 46.1217 55 47.5ZM56.6667 47.5C56.6667 47.04 57.04 46.6667 57.5 46.6667C57.96 46.6667 58.3333 47.04 58.3333 47.5C58.3333 47.96 57.96 48.3333 57.5 48.3333C57.04 48.3333 56.6667 47.96 56.6667 47.5Z" fill="#A4AFC1"/>
<path fill-rule="evenodd" clip-rule="evenodd" d="M2 27.5C2 28.8783 3.12167 30 4.5 30C5.87833 30 7 28.8783 7 27.5C7 26.1217 5.87833 25 4.5 25C3.12167 25 2 26.1217 2 27.5ZM3.66667 27.5C3.66667 27.04 4.04 26.6667 4.5 26.6667C4.96 26.6667 5.33333 27.04 5.33333 27.5C5.33333 27.96 4.96 28.3333 4.5 28.3333C4.04 28.3333 3.66667 27.96 3.66667 27.5Z" fill="#A4AFC1"/>
<rect x="15" y="26" width="4" height="10" fill="#191428"/>
<rect x="13" y="18" width="8" height="6" fill="white"/>
<rect x="22" y="18" width="8" height="6" fill="white"/>
<rect x="32" y="18" width="8" height="6" fill="white"/>
<rect x="42" y="18" width="8" height="6" fill="white"/>
<rect x="12" y="38" width="38" height="18" fill="#8125F5"/>
<rect x="44" y="26" width="4" height="10" fill="#191428"/>
<rect x="13" y="9" width="36" height="8" fill="#8125F5"/>
<path d="M52.2094 20.5776V17.314C52.2094 16.2158 51.9022 14.6199 51.4949 13.6016L49.4426 8.47305C48.879 7.06316 47.309 6 45.7906 6H16.4189C14.9004 6 13.3304 7.06316 12.7671 8.47254L10.7145 13.6019C10.3072 14.6201 10 16.2161 10 17.314V20.5776C10 22.6184 10.9585 24.4384 12.4477 25.6149V35.4529C11.0476 35.7751 10 37.0307 10 38.5271V54.8448C10 56.5846 11.4155 58 13.1552 58H49.0542C50.794 58 52.2094 56.5846 52.2094 54.8448V38.5271C52.2094 37.0307 51.1619 35.7751 49.7618 35.4529V25.6148C51.2509 24.4383 52.2094 22.6184 52.2094 20.5776ZM20.3898 35.3719V25.6151C20.7263 25.3493 21.0368 25.0517 21.3141 24.725C22.4924 26.1135 24.2498 26.9964 26.2094 26.9964C28.1689 26.9964 29.9264 26.1135 31.1047 24.725C32.283 26.1135 34.0405 26.9964 36 26.9964C37.9595 26.9964 39.717 26.1136 40.8953 24.725C41.1726 25.0517 41.483 25.3493 41.8195 25.6151V35.3719H20.3898ZM13.0469 20.5776V18.8374H19.7906V20.5776C19.7906 22.4369 18.2781 23.9494 16.4189 23.9494C14.5595 23.9494 13.0469 22.4369 13.0469 20.5776ZM29.5812 18.8374V20.5776C29.5812 22.4369 28.0686 23.9494 26.2094 23.9494C24.3502 23.9494 22.8375 22.4368 22.8375 20.5776V18.8374H29.5812ZM39.372 18.8374V20.5776C39.372 22.4369 37.8593 23.9494 36.0001 23.9494C34.1408 23.9494 32.6282 22.4368 32.6282 20.5776V18.8374H39.372ZM42.4188 20.5776V18.8374H49.1625V20.5776C49.1625 22.4369 47.6498 23.9494 45.7906 23.9494C43.9314 23.9494 42.4188 22.4369 42.4188 20.5776ZM15.5961 9.60395C15.6981 9.34882 16.144 9.04688 16.4189 9.04688H45.7906C46.0654 9.04688 46.5114 9.34892 46.6136 9.60455L48.666 14.7336C48.7763 15.0095 48.8823 15.3904 48.9679 15.7906H13.2414C13.327 15.3904 13.433 15.0096 13.5433 14.7337L15.5961 9.60395ZM16.4189 26.9963C16.7329 26.9963 17.0409 26.9712 17.3431 26.9275V35.3719H15.4946V26.9289C15.7965 26.9727 16.1049 26.9963 16.4189 26.9963ZM49.1625 54.8448C49.1625 54.9005 49.1099 54.9531 49.0542 54.9531H13.1552C13.0996 54.9531 13.047 54.9004 13.047 54.8448V38.5271C13.047 38.4715 13.0996 38.4188 13.1552 38.4188H13.9711H18.8664H43.343H48.2383H49.0541C49.1098 38.4188 49.1624 38.4715 49.1624 38.5271V54.8448H49.1625ZM46.7148 35.3719H44.8664V26.9275C45.1686 26.9712 45.4766 26.9963 45.7906 26.9963C46.1046 26.9963 46.413 26.9727 46.7149 26.9289V35.3719H46.7148Z" fill="#191428"/>
</svg>
