<svg width="62" height="64" viewBox="0 0 62 64" fill="none" xmlns="http://www.w3.org/2000/svg">
<path d="M48.7637 6.58337C35.9952 6.58337 27.2269 0 21.0743 0C14.9217 0 2 3.52044 2 31.6932C2 59.8659 19.3834 64 26.1507 64C57.8403 64.0018 71.3767 6.58337 48.7637 6.58337Z" fill="#EAE2FE" fill-opacity="0.6"/>
<path fill-rule="evenodd" clip-rule="evenodd" d="M39 5C39 6.654 40.346 8 42 8C43.654 8 45 6.654 45 5C45 3.346 43.654 2 42 2C40.346 2 39 3.346 39 5ZM41 5C41 4.45 41.448 4 42 4C42.552 4 43 4.45 43 5C43 5.55 42.552 6 42 6C41.448 6 41 5.55 41 5Z" fill="#A4AFC1"/>
<rect x="1.86816" y="11.6556" width="26.8908" height="22.6891" transform="rotate(-20.3608 1.86816 11.6556)" fill="white"/>
<path fill-rule="evenodd" clip-rule="evenodd" d="M25.9985 1.80407L2.16654 10.6485C0.97 11.0926 0.359985 12.4226 0.804042 13.6191L7.89423 32.724C8.33829 33.9206 9.66828 34.5306 10.8648 34.0865L34.6967 25.2421C35.8933 24.798 36.5033 23.468 36.0592 22.2715L28.969 3.16656C28.525 1.97002 27.195 1.36001 25.9985 1.80407ZM33.8927 23.0755L10.0608 31.92L2.97058 12.8151L26.8025 3.9706L33.8927 23.0755ZM12.47 28.449L29.8023 22.0166C30.4018 21.7981 30.7107 21.1349 30.4922 20.5353C30.3858 20.2436 30.1666 20.0071 29.884 19.8788L23.9428 17.1538C23.3644 16.8906 22.682 17.1438 22.4154 17.7207L21.5298 19.6515L16.6432 17.4102C16.0647 17.147 15.3824 17.4002 15.1158 17.9771L11.0283 26.8888C10.768 27.4715 11.0292 28.1548 11.6119 28.4151C11.883 28.5362 12.1902 28.5483 12.47 28.449ZM24.6988 11.5859C25.1429 12.7825 24.5329 14.1124 23.3363 14.5565C22.1398 15.0005 20.8098 14.3905 20.3657 13.194C19.9217 11.9974 20.5317 10.6675 21.7282 10.2234C22.9248 9.77935 24.2548 10.3894 24.6988 11.5859Z" fill="#191428"/>
<path d="M10.0608 31.92L9.82639 32.007L9.91338 32.2414L10.1478 32.1544L10.0608 31.92ZM33.8927 23.0755L33.9797 23.3099L34.2141 23.2229L34.1271 22.9885L33.8927 23.0755ZM2.97058 12.8151L2.8836 12.5807L2.64922 12.6677L2.7362 12.9021L2.97058 12.8151ZM26.8025 3.9706L27.0369 3.88362L26.9499 3.64924L26.7155 3.73622L26.8025 3.9706ZM29.8023 22.0166L29.7167 21.7818L29.7153 21.7823L29.8023 22.0166ZM12.47 28.449L12.5537 28.6846L12.557 28.6834L12.47 28.449ZM30.4922 20.5353L30.7271 20.4497L30.7271 20.4497L30.4922 20.5353ZM29.884 19.8788L29.7797 20.1061L29.7807 20.1065L29.884 19.8788ZM23.9428 17.1538L24.047 16.9266L24.0463 16.9263L23.9428 17.1538ZM22.4154 17.7207L22.1885 17.6158L22.1881 17.6164L22.4154 17.7207ZM21.5298 19.6515L21.4255 19.8788L21.6528 19.983L21.757 19.7558L21.5298 19.6515ZM16.6432 17.4102L16.7474 17.183L16.7467 17.1827L16.6432 17.4102ZM15.1158 17.9771L14.8888 17.8722L14.8885 17.8729L15.1158 17.9771ZM11.0283 26.8888L10.801 26.7846L10.8 26.7869L11.0283 26.8888ZM11.6119 28.4151L11.5099 28.6434L11.5099 28.6434L11.6119 28.4151ZM2.25352 10.8829L26.0854 2.03845L25.9115 1.56969L2.07956 10.4142L2.25352 10.8829ZM1.03842 13.5321C0.642404 12.465 1.18643 11.2789 2.25352 10.8829L2.07956 10.4142C0.753572 10.9063 0.0775656 12.3801 0.569662 13.7061L1.03842 13.5321ZM8.12861 32.6371L1.03842 13.5321L0.569662 13.7061L7.65985 32.811L8.12861 32.6371ZM10.7778 33.8522C9.71074 34.2482 8.52463 33.7042 8.12861 32.6371L7.65985 32.811C8.15195 34.137 9.62582 34.813 10.9518 34.3209L10.7778 33.8522ZM34.6098 25.0077L10.7778 33.8522L10.9518 34.3209L34.7837 25.4764L34.6098 25.0077ZM35.8248 22.3585C36.2209 23.4256 35.6768 24.6117 34.6098 25.0077L34.7837 25.4764C36.1097 24.9844 36.7857 23.5105 36.2936 22.1845L35.8248 22.3585ZM28.7347 3.25354L35.8248 22.3585L36.2936 22.1845L29.2034 3.07958L28.7347 3.25354ZM26.0854 2.03845C27.1525 1.64243 28.3386 2.18645 28.7347 3.25354L29.2034 3.07958C28.7113 1.7536 27.2375 1.07759 25.9115 1.56969L26.0854 2.03845ZM10.1478 32.1544L33.9797 23.3099L33.8057 22.8412L9.97379 31.6856L10.1478 32.1544ZM2.7362 12.9021L9.82639 32.007L10.2952 31.833L3.20496 12.7281L2.7362 12.9021ZM26.7155 3.73622L2.8836 12.5807L3.05756 13.0495L26.8895 4.20498L26.7155 3.73622ZM34.1271 22.9885L27.0369 3.88362L26.5681 4.05759L33.6583 23.1625L34.1271 22.9885ZM29.7153 21.7823L12.383 28.2146L12.557 28.6834L29.8893 22.251L29.7153 21.7823ZM30.2573 20.6209C30.4285 21.0908 30.1865 21.6105 29.7167 21.7818L29.8879 22.2515C30.6172 21.9857 30.9929 21.179 30.7271 20.4497L30.2573 20.6209ZM29.7807 20.1065C30.0022 20.207 30.174 20.3924 30.2573 20.6209L30.7271 20.4497C30.5977 20.0949 30.3311 19.8071 29.9872 19.6512L29.7807 20.1065ZM23.8386 17.3811L29.7797 20.1061L29.9882 19.6516L24.047 16.9266L23.8386 17.3811ZM22.6423 17.8256C22.8513 17.3735 23.386 17.1751 23.8392 17.3814L24.0463 16.9263C23.3428 16.6061 22.5128 16.9141 22.1885 17.6158L22.6423 17.8256ZM21.757 19.7558L22.6426 17.8249L22.1881 17.6164L21.3025 19.5473L21.757 19.7558ZM16.5389 17.6375L21.4255 19.8788L21.634 19.4243L16.7474 17.183L16.5389 17.6375ZM15.3427 18.082C15.5516 17.6299 16.0863 17.4315 16.5396 17.6378L16.7467 17.1827C16.0431 16.8625 15.2132 17.1705 14.8888 17.8722L15.3427 18.082ZM11.2555 26.9931L15.343 18.0813L14.8885 17.8729L10.801 26.7846L11.2555 26.9931ZM11.7138 28.1869C11.2573 27.9829 11.0526 27.4474 11.2565 26.9908L10.8 26.7869C10.4834 27.4955 10.8012 28.3268 11.5099 28.6434L11.7138 28.1869ZM12.3863 28.2134C12.1671 28.2913 11.9263 28.2817 11.7138 28.1868L11.5099 28.6434C11.8396 28.7906 12.2133 28.8054 12.5537 28.6846L12.3863 28.2134ZM23.4233 14.7909C24.7493 14.2988 25.4253 12.8249 24.9332 11.4989L24.4644 11.6729C24.8605 12.74 24.3164 13.9261 23.2493 14.3221L23.4233 14.7909ZM20.1314 13.281C20.6235 14.607 22.0973 15.283 23.4233 14.7909L23.2493 14.3221C22.1822 14.7181 20.9961 14.1741 20.6001 13.107L20.1314 13.281ZM21.6412 9.98903C20.3153 10.4811 19.6393 11.955 20.1314 13.281L20.6001 13.107C20.2041 12.0399 20.7481 10.8538 21.8152 10.4578L21.6412 9.98903ZM24.9332 11.4989C24.4411 10.1729 22.9672 9.49693 21.6412 9.98903L21.8152 10.4578C22.8823 10.0618 24.0684 10.6058 24.4644 11.6729L24.9332 11.4989Z" fill="#191428"/>
<path d="M23.4541 18.162L58.3382 27.454L53.2031 46.732L43.1051 44.0422L38.0882 48.1131L38.4871 52.1519L42.4036 52.212L44.7608 56.2809L42.2834 60.0451L38.1524 58.9448L34.3561 51.0516L27.0141 56.4694L22.7909 53.8698L22.9733 49.4943L25.8796 47.8106L29.8883 49.3699L32.1212 46.5237L30.2531 40.6189L18.319 37.44L23.4541 18.162Z" fill="#8125F5"/>
<path d="M36.0903 42.7948L44.2363 33.5811L45.4938 38.5729L44.3355 42.9213L37.8309 47.9153L38.8627 51.8122L36.0292 54.6795L33.9024 51.0084L30.8432 52.7807L29.5541 49.8501L32.5163 46.4997L29.8093 41.1217L36.0903 42.7948Z" fill="white"/>
<circle cx="26.1563" cy="52.3083" r="3.80005" transform="rotate(14.9155 26.1563 52.3083)" fill="#191428"/>
<circle cx="40.8443" cy="56.2207" r="3.80005" transform="rotate(14.9155 40.8443 56.2207)" fill="#191428"/>
<path d="M58.4256 26.4945L23.857 17.2866C23.2629 17.1283 22.6529 17.4817 22.4947 18.0758L17.3367 37.4399C17.1785 38.034 17.5318 38.6439 18.1259 38.8022L29.3238 41.7859C29.6188 42.8954 29.8118 43.2424 31.3939 46.8428L29.8821 48.5379C27.6456 46.2306 23.8625 46.5921 22.0873 49.2322C20.5381 51.5363 21.1523 54.6712 23.4564 56.2203C25.0865 57.3165 27.169 57.3455 28.8147 56.3829C29.0287 56.3027 28.6609 56.5513 33.9451 52.6488C36.5914 58.671 36.3924 58.2645 36.5387 58.441C37.4719 60.0669 39.2775 61.1067 41.2675 60.9646C44.0369 60.7669 46.1292 58.3529 45.9315 55.5834C45.7045 52.405 42.5981 50.2163 39.515 51.1037L39.0467 48.8812C42.2634 46.5055 42.5545 46.3352 43.3578 45.5247C43.362 45.5259 52.6887 48.0109 52.694 48.0124C53.2877 48.1705 53.898 47.8173 54.0563 47.2231L59.2149 27.8569C59.3731 27.2627 59.0197 26.6528 58.4256 26.4945ZM46.5468 39.46C46.9514 37.3348 46.7721 35.0862 45.9352 32.9634C45.6316 32.1936 44.6203 32.0121 44.0686 32.6308L39.6229 37.6157L20.9211 32.6341L23.2135 24.0278L55.6304 32.6627L53.338 41.2689L46.5468 39.46ZM36.3008 41.3406L31.2975 40.0075L31.8708 37.855L37.9624 39.4776L36.3008 41.3406ZM29.7192 37.2819L29.1459 39.4342L25.5361 38.4724L26.1093 36.3203L29.7192 37.2819ZM46.8323 28.0149L47.4054 25.8633L51.0153 26.8249L50.4422 28.9764L46.8323 28.0149ZM44.6807 27.4418L41.0709 26.4802L41.644 24.3287L45.2538 25.2902L44.6807 27.4418ZM38.9193 25.9071L35.3095 24.9456L35.8826 22.794L39.4924 23.7555L38.9193 25.9071ZM33.1579 24.3725L29.548 23.4109L30.1211 21.2593L33.731 22.2209L33.1579 24.3725ZM56.2036 30.5111L52.5937 29.5495L53.1668 27.398L56.7767 28.3595L56.2036 30.5111ZM27.9695 20.6862L27.3964 22.8378L23.7866 21.8762L24.3597 19.7247L27.9695 20.6862ZM20.3479 34.7857L23.9578 35.7472L23.3846 37.8991L19.7748 36.9372L20.3479 34.7857ZM31.9075 42.4743L34.6404 43.2025L33.0232 45.0158C31.839 42.3209 31.9502 42.5751 31.9075 42.4743ZM24.6987 54.3725C23.4106 53.5063 23.0688 51.7627 23.9351 50.4744C24.7992 49.1891 26.5476 48.8465 27.8332 49.7107C29.1214 50.5769 29.4631 52.3205 28.5969 53.6088C27.7326 54.8941 25.984 55.2364 24.6987 54.3725ZM37.0775 50.3353L37.4823 52.2568C37.1621 52.555 36.8813 52.8938 36.6477 53.2645L35.7812 51.2927L37.0775 50.3353ZM40.7088 53.1405C42.2536 53.03 43.6002 54.1972 43.7105 55.7419C43.8211 57.2903 42.6576 58.6331 41.1089 58.7437C39.5641 58.8542 38.2176 57.6869 38.1072 56.1421L38.1072 56.1422C37.9967 54.5938 39.1601 53.2511 40.7088 53.1405ZM36.0774 44.9365L44.384 35.6224C45.0049 39.1489 43.5875 42.7989 40.6003 44.9657C40.5881 44.9745 31.3079 51.8282 31.2944 51.8382C31.2762 51.4006 31.201 50.9672 31.0717 50.5492C31.3936 50.1883 34.1856 47.0577 34.5965 46.597L36.0774 44.9365ZM45.925 41.5986L47.0035 41.8858L46.43 44.0391L44.8822 43.6266C45.2966 42.9835 45.6451 42.3039 45.925 41.5986ZM48.5815 44.6123L49.1551 42.459L52.7649 43.4205L52.1912 45.5741L48.5815 44.6123Z" fill="#191428" stroke="#191428" stroke-width="0.5"/>
<path fill-rule="evenodd" clip-rule="evenodd" d="M9 45C9 46.654 10.346 48 12 48C13.654 48 15 46.654 15 45C15 43.346 13.654 42 12 42C10.346 42 9 43.346 9 45ZM11 45C11 44.45 11.448 44 12 44C12.552 44 13 44.45 13 45C13 45.55 12.552 46 12 46C11.448 46 11 45.55 11 45Z" fill="#A4AFC1"/>
</svg>
