<svg width="62" height="64" viewBox="0 0 62 64" fill="none" xmlns="http://www.w3.org/2000/svg">
<path d="M55.6225 12.3987C67.4921 19.6335 53.259 31.5475 58.4499 42.5C63.6407 53.4525 58.5897 64 31.2981 64C4.0066 64 0 44.8199 0 37.3509C0 -12.5536 32 -2.00001 55.6225 12.3987Z" fill="#EAE2FE" fill-opacity="0.6"/>
<path fill-rule="evenodd" clip-rule="evenodd" d="M29 57.5C29 58.8783 30.1217 60 31.5 60C32.8783 60 34 58.8783 34 57.5C34 56.1217 32.8783 55 31.5 55C30.1217 55 29 56.1217 29 57.5ZM30.6667 57.5C30.6667 57.04 31.04 56.6667 31.5 56.6667C31.96 56.6667 32.3333 57.04 32.3333 57.5C32.3333 57.96 31.96 58.3333 31.5 58.3333C31.04 58.3333 30.6667 57.96 30.6667 57.5Z" fill="#A4AFC1"/>
<path fill-rule="evenodd" clip-rule="evenodd" d="M9 15.5C9 16.8783 10.1217 18 11.5 18C12.8783 18 14 16.8783 14 15.5C14 14.1217 12.8783 13 11.5 13C10.1217 13 9 14.1217 9 15.5ZM10.6667 15.5C10.6667 15.04 11.04 14.6667 11.5 14.6667C11.96 14.6667 12.3333 15.04 12.3333 15.5C12.3333 15.96 11.96 16.3333 11.5 16.3333C11.04 16.3333 10.6667 15.96 10.6667 15.5Z" fill="#A4AFC1"/>
<path d="M20 23.5L45 13.5L42 30.5L46.5 48L20 36V23.5Z" fill="#8125F5"/>
<path d="M43.5 18.5L49.5 11L54.5 19.5L55.5 30L54.5 40L50 48.5L44.5 43.5L42.5 31L43.5 18.5Z" fill="#191428"/>
<path d="M19.5 36.5L22.5 48L20.5 52.5L16 50L13 36.5H19.5Z" fill="#191428"/>
<ellipse cx="46" cy="29.5" rx="3" ry="3.5" fill="white"/>
<circle cx="14" cy="30" r="7" fill="white"/>
<path d="M47.4529 10.9438L47.4771 10.934L47.5 10.9217C48.0083 10.6502 48.5737 10.5003 49.1409 10.5C50.2728 10.5088 51.2932 11.0483 52.208 12.0682C53.1297 13.0958 53.9208 14.5886 54.5638 16.4252C55.8488 20.0959 56.5 25.0169 56.5 29.9633C56.5 34.9096 55.8488 39.8307 54.5638 43.5013C53.9208 45.338 53.1297 46.8308 52.2081 47.8584C51.2933 48.8783 50.273 49.4177 49.1412 49.4267C48.6839 49.4264 48.1975 49.3341 47.7812 49.1612L21.9018 38.4025L20.963 38.0123L21.227 38.9941L23.45 47.2614L23.4499 47.2615L23.4529 47.2716C24.0724 49.3957 22.6661 51.8266 20.5064 52.355L20.5064 52.3549L20.4963 52.3576C20.1349 52.4541 19.7721 52.5 19.4156 52.5C17.5691 52.5001 15.8777 51.2696 15.3788 49.4147L12.2601 37.8162L12.1796 37.5169L11.8758 37.4558C2.65885 35.6028 3.72517 22.4399 13.2016 22.1539H19.8142H19.9121L20.0027 22.117L47.4529 10.9438ZM44.3627 27.1277H43.884L43.8632 27.606C43.8301 28.3646 43.8123 29.1501 43.8123 29.9633C43.8123 30.7766 43.8301 31.562 43.8632 32.3208L43.884 32.799H44.3627H44.9177H44.9279L44.9381 32.7986C48.6834 32.645 48.6894 27.2832 44.9383 27.1281L44.928 27.1277H44.9177H44.3627ZM43.4619 45.1545L44.576 45.6177L44.1161 44.5022C42.5682 40.7482 41.7615 35.3548 41.7615 29.9633C41.7615 24.6163 42.5554 19.2673 44.0788 15.5171L44.5231 14.4235L43.4285 14.8652L21.4477 23.7364L21.1348 23.8627V24.2001V35.539V35.8726L21.4429 36.0007L43.4619 45.1545ZM19.0841 24.694V24.194H18.5841H13.1941C10.06 24.194 7.50803 26.7346 7.50803 29.862C7.50803 32.9895 10.0601 35.53 13.1941 35.53H18.5841H19.0841V35.03V24.694ZM21.2528 49.3974L21.2529 49.3974C21.5368 48.9071 21.6156 48.3341 21.4688 47.7885C21.4688 47.7885 21.4688 47.7885 21.4688 47.7885L18.8207 37.9402L18.7212 37.5701H18.3379H14.9689H14.3167L14.486 38.1999L17.3599 48.8876C17.6641 50.0189 18.833 50.6891 19.9643 50.3873L19.9644 50.3872C20.5105 50.2414 20.9687 49.888 21.2528 49.3974ZM44.5901 34.839H44.0332L44.093 35.3927C44.5028 39.1885 45.3145 42.1283 46.2087 44.1339C46.6549 45.1347 47.1293 45.9204 47.5981 46.465C48.0441 46.9832 48.5748 47.3866 49.1427 47.3866C49.4976 47.3866 49.8313 47.2276 50.1226 47.0072C50.4185 46.7834 50.7108 46.4663 50.994 46.0755C51.561 45.2929 52.1332 44.1562 52.6446 42.6964C53.669 39.772 54.4731 35.4839 54.4731 29.9632C54.4731 24.4426 53.669 20.1544 52.6446 17.2301C52.1332 15.7703 51.561 14.6336 50.994 13.8511C50.7108 13.4602 50.4185 13.1432 50.1226 12.9193C49.8313 12.6989 49.4976 12.54 49.1427 12.54C48.5748 12.54 48.0441 12.9433 47.5981 13.4615C47.1293 14.0061 46.6549 14.7918 46.2087 15.7926C45.3145 17.7983 44.5028 20.7381 44.093 24.5339L44.0332 25.0875H44.5901H44.9071C51.4088 25.3638 51.4111 34.5604 44.907 34.839H44.5901Z" fill="#191428" stroke="#191428"/>
</svg>
