<svg width="62" height="64" viewBox="0 0 62 64" fill="none" xmlns="http://www.w3.org/2000/svg">
<path d="M15.5038 8.20432C32.7545 1.56583 39.1172 -4.83819 49.0312 5.24553C58.9452 15.3293 64.7993 30.5002 58.1869 50.3534C51.5745 70.2066 22.2429 63.3103 16.4778 60.6867C-6.22916 50.3534 -1.68529 13.6663 15.5038 8.20432Z" fill="#EAE2FE" fill-opacity="0.6"/>
<rect x="12" y="21" width="38" height="23" fill="#8125F5"/>
<rect x="18" y="29" width="6" height="15" fill="white"/>
<rect x="34" y="11" width="20" height="20" fill="#191428"/>
<rect x="8" y="45" width="45" height="6" fill="#191428"/>
<path fill-rule="evenodd" clip-rule="evenodd" d="M56 27.2511C56 29.5661 54.2016 31.4717 51.916 31.6721V41.4574C51.916 41.9761 51.8249 42.474 51.659 42.9372H53.3105C54.7935 42.9372 56 44.1321 56 45.6009C56 49.6808 52.6486 53 48.5293 53H12.4707C8.35136 53 5 49.6808 5 45.6009C5 44.1321 6.20647 42.9372 7.68945 42.9372H9.34098C9.17513 42.474 9.08398 41.9761 9.08398 41.4574V23.6996C9.08398 21.2516 11.0948 19.2601 13.5664 19.2601H32.1934V13.4395C32.1934 10.9915 34.2042 9 36.6758 9H51.5176C53.9892 9 56 10.9915 56 13.4395V27.2511ZM36.6758 11.9596C35.8519 11.9596 35.1816 12.6235 35.1816 13.4395V26.2646C35.1816 26.4086 35.1604 26.5519 35.1187 26.6898L33.8674 30.8207L36.88 28.9559C37.1175 28.8089 37.3918 28.7309 37.6719 28.7309H51.5176C52.3414 28.7309 53.0117 28.0671 53.0117 27.2511V13.4395C53.0117 12.6235 52.3414 11.9596 51.5176 11.9596H36.6758ZM48.5293 50.0404H12.4707C10.0995 50.0404 8.15254 48.2073 7.99814 45.8969H53.0019C52.8475 48.2073 50.9005 50.0404 48.5293 50.0404ZM20.9375 30.1121C20.0038 30.1121 19.2441 30.8644 19.2441 31.7892C19.2441 32.714 20.0038 33.4664 20.9375 33.4664C21.8712 33.4664 22.6309 32.714 22.6309 31.7892C22.6309 30.8644 21.8712 30.1121 20.9375 30.1121ZM18.4473 38.1031C18.4473 37.2097 19.6109 36.426 20.9375 36.426C21.6489 36.426 22.3343 36.6458 22.818 37.0291C23.0458 37.2095 23.4277 37.5889 23.4277 38.1031V42.9372H18.4473V38.1031ZM26.416 38.1031V42.9372H47.4336C48.2575 42.9372 48.9277 42.2734 48.9277 41.4574V31.6906H38.1004L35.451 33.3305C34.9597 33.6347 34.4112 33.7854 33.8649 33.7854C33.2271 33.7854 32.5923 33.58 32.0545 33.1736C31.0561 32.4191 30.6442 31.1616 31.0051 29.9702L32.1934 26.0474V22.2197H13.5664C12.7425 22.2197 12.0723 22.8836 12.0723 23.6996V41.4574C12.0723 42.2734 12.7425 42.9372 13.5664 42.9372H15.459V38.1031C15.459 36.74 16.1578 35.5126 17.2679 34.6634C16.6352 33.8726 16.2559 32.8743 16.2559 31.7892C16.2559 29.2325 18.356 27.1525 20.9375 27.1525C23.519 27.1525 25.6191 29.2325 25.6191 31.7892C25.6191 32.8731 25.2407 33.8705 24.6092 34.6609C24.6188 34.6682 24.6286 34.6755 24.6383 34.6827C24.654 34.6943 24.6696 34.7059 24.6848 34.718C25.7851 35.5897 26.416 36.8236 26.416 38.1031Z" fill="#191428"/>
<path d="M45.5484 23H42.4516C41.6499 23 41 23.6716 41 24.5C41 25.3284 41.6499 26 42.4516 26H45.5484C46.3501 26 47 25.3284 47 24.5C47 23.6716 46.3501 23 45.5484 23Z" fill="white"/>
<path d="M40.3636 18H47.6364C48.3895 18 49 17.3284 49 16.5C49 15.6716 48.3895 15 47.6364 15H40.3636C39.6105 15 39 15.6716 39 16.5C39 17.3284 39.6105 18 40.3636 18Z" fill="white"/>
<path fill-rule="evenodd" clip-rule="evenodd" d="M51 58.5C51 59.8783 52.1217 61 53.5 61C54.8783 61 56 59.8783 56 58.5C56 57.1217 54.8783 56 53.5 56C52.1217 56 51 57.1217 51 58.5ZM52.6667 58.5C52.6667 58.04 53.04 57.6667 53.5 57.6667C53.96 57.6667 54.3333 58.04 54.3333 58.5C54.3333 58.96 53.96 59.3333 53.5 59.3333C53.04 59.3333 52.6667 58.96 52.6667 58.5Z" fill="#A4AFC1"/>
<path fill-rule="evenodd" clip-rule="evenodd" d="M10 8.5C10 9.87833 11.1217 11 12.5 11C13.8783 11 15 9.87833 15 8.5C15 7.12167 13.8783 6 12.5 6C11.1217 6 10 7.12167 10 8.5ZM11.6667 8.5C11.6667 8.04 12.04 7.66667 12.5 7.66667C12.96 7.66667 13.3333 8.04 13.3333 8.5C13.3333 8.96 12.96 9.33333 12.5 9.33333C12.04 9.33333 11.6667 8.96 11.6667 8.5Z" fill="#A4AFC1"/>
</svg>
