<svg width="62" height="64" viewBox="0 0 62 64" fill="none" xmlns="http://www.w3.org/2000/svg">
<path d="M55.6225 12.3987C67.4921 19.6335 53.259 31.5475 58.4499 42.5C63.6407 53.4525 58.5897 64 31.2981 64C4.0066 64 0 44.8199 0 37.3509C0 -12.5536 32 -2.00001 55.6225 12.3987Z" fill="#EAE2FE" fill-opacity="0.6"/>
<path fill-rule="evenodd" clip-rule="evenodd" d="M9 15.5C9 16.8783 10.1217 18 11.5 18C12.8783 18 14 16.8783 14 15.5C14 14.1217 12.8783 13 11.5 13C10.1217 13 9 14.1217 9 15.5ZM10.6667 15.5C10.6667 15.04 11.04 14.6667 11.5 14.6667C11.96 14.6667 12.3333 15.04 12.3333 15.5C12.3333 15.96 11.96 16.3333 11.5 16.3333C11.04 16.3333 10.6667 15.96 10.6667 15.5Z" fill="#A4AFC1"/>
<path fill-rule="evenodd" clip-rule="evenodd" d="M49 43.5C49 44.8783 50.1217 46 51.5 46C52.8783 46 54 44.8783 54 43.5C54 42.1217 52.8783 41 51.5 41C50.1217 41 49 42.1217 49 43.5ZM50.6667 43.5C50.6667 43.04 51.04 42.6667 51.5 42.6667C51.96 42.6667 52.3333 43.04 52.3333 43.5C52.3333 43.96 51.96 44.3333 51.5 44.3333C51.04 44.3333 50.6667 43.96 50.6667 43.5Z" fill="#A4AFC1"/>
<circle cx="37" cy="26" r="17" fill="white"/>
<circle cx="38" cy="53" r="3" fill="#191428"/>
<circle cx="20" cy="53" r="3" fill="#191428"/>
<path d="M14 31H44L41 44H17L14 31Z" fill="#8125F5"/>
<path d="M9.50702 27.4029C9.964 27.4029 10.3628 27.7127 10.4759 28.1555L10.6976 29.0237L15.0576 46.0952C15.1707 46.538 15.5695 46.8478 16.0265 46.8478H41.5508C42.032 46.8478 42.445 46.505 42.5337 46.032L42.9452 43.8366C43.0131 43.4741 43.2759 43.1804 43.624 43.0585C43.9996 42.9271 44.3718 42.7837 44.7405 42.6278C47.0107 41.6676 49.0492 40.2933 50.7995 38.5431C52.5496 36.793 53.924 34.7544 54.8842 32.4841C55.8787 30.1328 56.383 27.636 56.383 25.0632C56.383 22.4904 55.8787 19.9937 54.8842 17.6424C53.924 15.3721 52.5496 13.3336 50.7995 11.5834C49.0493 9.83324 47.0107 8.45893 44.7405 7.4987C42.4358 6.52392 39.9911 6.02138 37.4722 6.00185C37.4214 6.00148 37.3706 6 37.3196 6C37.2687 6 37.2179 6.00148 37.167 6.00185C34.6481 6.02144 32.2036 6.52397 29.8987 7.49875C27.6284 8.45898 25.59 9.8333 23.8397 11.5835C22.0896 13.3337 20.7153 15.3722 19.7551 17.6424C18.7605 19.9938 18.2563 22.4905 18.2563 25.0633C18.2563 25.8357 18.3023 26.6012 18.3932 27.358C18.4677 27.9783 17.9977 28.5453 17.3729 28.5455L14.9037 28.5464C14.4466 28.5465 14.0476 28.2367 13.9344 27.7938L13.1481 24.7149C13.035 24.2722 12.6362 23.9624 12.1792 23.9624H6C5.44771 23.9624 5 24.4101 5 24.9624V25.6827V26.4029C5 26.9552 5.44772 27.4029 6 27.4029H7.93367H9.50702ZM21.9377 27.8151C21.8414 27.2683 22.2759 26.7835 22.8311 26.7835H25.8331C26.2905 26.7835 26.6664 27.1465 26.6993 27.6027C26.7359 28.1085 26.3403 28.5425 25.8332 28.5427L22.8297 28.5437C22.3938 28.5438 22.0133 28.2445 21.9377 27.8151ZM24.2033 16.5685C24.4675 16.1623 24.9947 16.0361 25.4386 16.2304C25.8415 16.4069 26.2571 16.5739 26.6842 16.7312C27.1782 16.9131 27.4659 17.4335 27.3533 17.9477C27.0425 19.3666 26.8257 20.8574 26.7091 22.3921C26.6687 22.924 26.2308 23.343 25.6973 23.343H22.9059C22.3108 23.343 21.8447 22.8255 21.951 22.24C22.3189 20.2129 23.0824 18.2916 24.2033 16.5685ZM29.1558 11.7374C29.3305 11.63 29.529 11.826 29.4346 12.008C29.2302 12.4023 29.0362 12.8109 28.8527 13.2322C28.7216 13.5331 28.3757 13.6885 28.0668 13.5778C27.6301 13.4213 27.5489 12.8618 27.9189 12.5821C28.319 12.2798 28.7318 11.9981 29.1558 11.7374ZM46.7253 12.5857C47.0964 12.8665 47.0147 13.4276 46.5765 13.5842C46.2667 13.6949 45.9202 13.5389 45.7889 13.2373C45.6048 12.8141 45.41 12.4039 45.2048 12.008C45.1103 11.8259 45.3088 11.63 45.4836 11.7374C45.9093 11.9991 46.3237 12.282 46.7253 12.5857ZM52.6885 22.2399C52.7948 22.8255 52.3287 23.343 51.7336 23.343H48.9421C48.4087 23.343 47.9707 22.924 47.9303 22.3921C47.8139 20.86 47.5977 19.3716 47.2878 17.9548C47.1752 17.4403 47.4633 16.9197 47.9577 16.7382C48.3858 16.581 48.8025 16.414 49.2065 16.2376C49.6504 16.0437 50.1774 16.1703 50.4413 16.5765C51.5593 18.2976 52.3211 20.216 52.6885 22.2399ZM50.4041 33.6075C50.1394 34.0111 49.6145 34.1362 49.1721 33.9432C48.7751 33.77 48.3657 33.6059 47.9443 33.4512C47.449 33.2693 47.1607 32.7472 47.2745 32.232C47.5915 30.7972 47.8122 29.2883 47.9303 27.7344C47.9707 27.2025 48.4087 26.7835 48.9421 26.7835H51.7336C52.3287 26.7835 52.7948 27.301 52.6885 27.8866C52.3171 29.933 51.5426 31.8717 50.4041 33.6075ZM30.16 27.7403C30.1166 27.2238 30.5298 26.7835 31.0481 26.7835H34.7214C35.2063 26.7835 35.5994 27.1766 35.5994 27.6616C35.5994 28.1464 35.2065 28.5395 34.7217 28.5396L31.0479 28.5408C30.5869 28.541 30.1986 28.1997 30.16 27.7403ZM30.6822 18.8161C30.793 18.2967 31.3046 17.9754 31.8286 18.0615C32.7483 18.2125 33.6914 18.3261 34.6499 18.4003C35.1813 18.4415 35.5995 18.8792 35.5995 19.4121V22.343C35.5995 22.8953 35.1517 23.343 34.5995 23.343H31.1491C30.5759 23.343 30.1184 22.862 30.1682 22.2909C30.2728 21.0901 30.4454 19.926 30.6822 18.8161ZM44.4713 22.291C44.521 22.862 44.0635 23.343 43.4903 23.343H40.04C39.4877 23.343 39.04 22.8953 39.04 22.343V19.4138C39.04 18.8806 39.4586 18.4428 39.9902 18.4019C40.9488 18.3283 41.8921 18.2153 42.8121 18.0648C43.336 17.979 43.8472 18.3004 43.9579 18.8196C44.1944 19.9285 44.3667 21.0914 44.4713 22.291ZM44.4796 27.7378C44.4411 28.1959 44.0541 28.5364 43.5944 28.5366L39.9175 28.5378C39.4329 28.538 39.04 28.1452 39.04 27.6606C39.04 27.1762 39.4327 26.7835 39.9172 26.7835H43.5937C44.1107 26.7835 44.5228 27.2226 44.4796 27.7378ZM42.1504 13.5916C42.4148 14.1017 42.0896 14.7062 41.5203 14.7838C41.0508 14.8478 40.5744 14.9011 40.0925 14.9435C39.5213 14.9937 39.04 14.5361 39.04 13.9628V11.6702C39.04 10.9008 39.851 10.4663 40.3808 11.0242C41.0132 11.69 41.6122 12.5536 42.1504 13.5916ZM34.2587 11.0241C34.7885 10.4663 35.5995 10.9008 35.5995 11.6702V13.9611C35.5995 14.5347 35.1177 14.9923 34.5463 14.9417C34.0637 14.8989 33.5867 14.8451 33.1166 14.7806C32.5493 14.7028 32.2254 14.1001 32.4889 13.5917C33.0272 12.5536 33.6262 11.6899 34.2587 11.0241ZM45.4835 38.389C45.3088 38.4964 45.1104 38.3005 45.2048 38.1184C45.4024 37.7373 45.5902 37.343 45.7683 36.9366C45.8964 36.6442 46.2326 36.4931 46.5335 36.5998C46.9625 36.7521 47.0426 37.3019 46.6786 37.5753C46.2916 37.8659 45.8928 38.1373 45.4835 38.389ZM21.4142 31.9847L23.3055 31.984L27.3108 31.9827L29.0729 31.9821L30.8344 31.9815L32.8549 31.9808L35.5995 31.9798L39.04 31.9787L40.4623 31.9782C41.0885 31.978 41.5609 32.5469 41.4455 33.1624L41.0349 35.3536L40.3203 39.1658L40.0808 40.4437L39.8429 41.7131L39.7447 42.2368L39.6782 42.5915C39.5896 43.0645 39.1766 43.4073 38.6954 43.4073H34.3267H32.1137H18.6989C18.2419 43.4073 17.8431 43.0975 17.73 42.6547L15.324 33.2339C15.1625 32.6016 15.64 31.9866 16.2925 31.9864L19.5531 31.9854L21.4142 31.9847Z" fill="#191428"/>
<path d="M37.9984 57.9863C40.7994 57.9863 43.0782 55.7075 43.0782 52.9065C43.0782 50.1055 40.7994 47.8266 37.9984 47.8266H19.5832C16.7822 47.8266 14.5034 50.1055 14.5034 52.9065C14.5034 55.7075 16.7822 57.9863 19.5832 57.9863C22.3843 57.9863 24.6631 55.7075 24.6631 52.9065C24.6631 52.3332 24.5674 51.7817 24.3916 51.2672H33.1901C33.0142 51.7817 32.9186 52.3332 32.9186 52.9065C32.9186 55.7075 35.1973 57.9863 37.9984 57.9863ZM21.2225 52.9065C21.2225 53.8104 20.4871 54.5457 19.5832 54.5457C18.6793 54.5457 17.9439 53.8104 17.9439 52.9065C17.9439 52.0025 18.6793 51.2672 19.5832 51.2672C20.4871 51.2672 21.2225 52.0026 21.2225 52.9065ZM39.6377 52.9065C39.6377 53.8104 38.9022 54.5457 37.9984 54.5457C37.0944 54.5457 36.359 53.8104 36.359 52.9065C36.359 52.0025 37.0944 51.2672 37.9984 51.2672C38.9023 51.2672 39.6377 52.0026 39.6377 52.9065Z" fill="#191428"/>
</svg>
