<svg width="62" height="64" viewBox="0 0 62 64" fill="none" xmlns="http://www.w3.org/2000/svg">
<path d="M48.7637 6.58337C35.9952 6.58337 27.2269 0 21.0743 0C14.9217 0 2 3.52044 2 31.6932C2 59.8659 19.3834 64 26.1507 64C57.8403 64.0018 71.3767 6.58337 48.7637 6.58337Z" fill="#EAE2FE" fill-opacity="0.6"/>
<path fill-rule="evenodd" clip-rule="evenodd" d="M6 57C6 58.654 7.346 60 9 60C10.654 60 12 58.654 12 57C12 55.346 10.654 54 9 54C7.346 54 6 55.346 6 57ZM8 57C8 56.45 8.448 56 9 56C9.552 56 10 56.45 10 57C10 57.55 9.552 58 9 58C8.448 58 8 57.55 8 57Z" fill="#A4AFC1"/>
<path fill-rule="evenodd" clip-rule="evenodd" d="M50 7C50 8.654 51.346 10 53 10C54.654 10 56 8.654 56 7C56 5.346 54.654 4 53 4C51.346 4 50 5.346 50 7ZM52 7C52 6.45 52.448 6 53 6C53.552 6 54 6.45 54 7C54 7.55 53.552 8 53 8C52.448 8 52 7.55 52 7Z" fill="#A4AFC1"/>
<path d="M45.6328 18.8528C42.0488 18.5833 38.6063 20.0222 36.2797 22.7266H32.4648V13.5375C34.7165 12.8981 36.3711 10.8249 36.3711 8.37109C36.3711 5.40947 33.9616 3 31 3C28.0384 3 25.6289 5.40947 25.6289 8.37109C25.6289 10.8249 27.2835 12.898 29.5352 13.5375V22.7266H25.7204C23.3939 20.0222 19.9504 18.5832 16.3673 18.8528C10.5538 19.2898 6 24.3388 6 30.3474V44.8911C6 49.3623 9.6376 53 14.1089 53C17.7556 53 20.9726 50.5429 21.932 47.0247L24.1588 38.8599C24.724 38.4146 25.2452 37.9178 25.7165 37.375H36.2834C36.7547 37.9178 37.2759 38.4146 37.8411 38.8599L40.0679 47.0247C41.0274 50.5429 44.2444 53 47.8911 53C52.3624 53 56 49.3623 56 44.8911V30.3474C56 24.3388 51.4462 19.2898 45.6328 18.8528Z" fill="#8125F5"/>
<circle cx="31" cy="8" r="3" fill="white"/>
<path fill-rule="evenodd" clip-rule="evenodd" d="M36.2797 22.7266C38.6063 20.0222 42.0488 18.5833 45.6328 18.8528C51.4462 19.2898 56 24.3388 56 30.3474V44.8911C56 49.3623 52.3624 53 47.8911 53C44.2444 53 41.0274 50.5429 40.0679 47.0247L37.8411 38.8599C37.2759 38.4146 36.7547 37.9178 36.2834 37.375H25.7165C25.2452 37.9178 24.724 38.4146 24.1588 38.8599L21.932 47.0247C20.9726 50.5429 17.7556 53 14.1089 53C9.6376 53 6 49.3623 6 44.8911V30.3474C6 24.3388 10.5538 19.2898 16.3673 18.8528C19.9504 18.5832 23.3939 20.0222 25.7204 22.7266H29.5352V13.5375C27.2835 12.898 25.6289 10.8249 25.6289 8.37109C25.6289 5.40947 28.0384 3 31 3C33.9616 3 36.3711 5.40947 36.3711 8.37109C36.3711 10.8249 34.7165 12.8981 32.4648 13.5375V22.7266H36.2797ZM31 5.92969C29.6538 5.92969 28.5586 7.0249 28.5586 8.37109C28.5586 9.71729 29.6538 10.8125 31 10.8125C32.3462 10.8125 33.4414 9.71729 33.4414 8.37109C33.4414 7.0249 32.3462 5.92969 31 5.92969ZM53.0703 44.8911C53.0703 47.7469 50.747 50.0703 47.8911 50.0703C45.5619 50.0703 43.5072 48.501 42.8944 46.2538L40.5357 37.6051C40.447 37.2797 40.2487 36.9949 39.9743 36.7988C39.2782 36.3013 38.6628 35.7039 38.1453 35.0234C37.8684 34.6592 37.437 34.4453 36.9794 34.4453H25.0206C24.5629 34.4453 24.1315 34.6592 23.8547 35.0234C23.3372 35.7039 22.7218 36.3012 22.0257 36.7988C21.7513 36.9949 21.553 37.2798 21.4643 37.6051L19.1056 46.2538C18.4928 48.501 16.4381 50.0703 14.1089 50.0703C11.253 50.0703 8.92969 47.7469 8.92969 44.8911V30.3474C8.92969 25.8628 12.2931 22.0971 16.5867 21.7743C19.4205 21.5608 22.1354 22.7941 23.8494 25.0722C24.1262 25.4399 24.5597 25.6562 25.0199 25.6562H36.98C37.4402 25.6562 37.8737 25.4399 38.1505 25.0722C39.8646 22.7941 42.579 21.5607 45.4132 21.7743C49.7069 22.097 53.0703 25.8628 53.0703 30.3474V44.8911ZM45.5 37C49.0899 37 52 34.0899 52 30.5C52 26.9101 49.0899 24 45.5 24C41.9101 24 39 26.9101 39 30.5C39 34.0899 41.9101 37 45.5 37ZM19 29H21.5C22.3284 29 23 29.6716 23 30.5C23 31.3284 22.3284 32 21.5 32H19V34.5C19 35.3284 18.3284 36 17.5 36C16.6716 36 16 35.3284 16 34.5V32H13.5C12.6716 32 12 31.3284 12 30.5C12 29.6716 12.6716 29 13.5 29H16V26.5C16 25.6716 16.6716 25 17.5 25C18.3284 25 19 25.6716 19 26.5V29ZM35.5268 28H27.4732C26.6596 28 26 28.6716 26 29.5C26 30.3284 26.6596 31 27.4732 31H35.5268C36.3404 31 37 30.3284 37 29.5C37 28.6716 36.3404 28 35.5268 28ZM47.5 40C46.6716 40 46 40.6716 46 41.5V45.5C46 46.3284 46.6716 47 47.5 47C48.3284 47 49 46.3284 49 45.5V41.5C49 40.6716 48.3284 40 47.5 40ZM13 41.5C13 40.6716 13.6716 40 14.5 40C15.3284 40 16 40.6716 16 41.5V45.5C16 46.3284 15.3284 47 14.5 47C13.6716 47 13 46.3284 13 45.5V41.5Z" fill="#191428"/>
<path d="M45.6328 18.8528L45.6141 19.1021L45.6141 19.1021L45.6328 18.8528ZM36.2797 22.7266V22.9766H36.3944L36.4692 22.8896L36.2797 22.7266ZM40.0679 47.0247L39.8267 47.0905L39.8267 47.0905L40.0679 47.0247ZM37.8411 38.8599L38.0823 38.7941L38.0606 38.7145L37.9958 38.6635L37.8411 38.8599ZM36.2834 37.375L36.4722 37.2111L36.3974 37.125H36.2834V37.375ZM25.7165 37.375V37.125H25.6025L25.5277 37.2111L25.7165 37.375ZM24.1588 38.8599L24.0041 38.6635L23.9393 38.7145L23.9176 38.7941L24.1588 38.8599ZM21.932 47.0247L21.6908 46.9589L21.6908 46.9589L21.932 47.0247ZM16.3673 18.8528L16.386 19.1021L16.386 19.1021L16.3673 18.8528ZM25.7204 22.7266L25.5309 22.8896L25.6057 22.9766H25.7204V22.7266ZM29.5352 22.7266V22.9766H29.7852V22.7266H29.5352ZM29.5352 13.5375H29.7852V13.3486L29.6035 13.297L29.5352 13.5375ZM32.4648 13.5375L32.3966 13.297L32.2148 13.3486V13.5375H32.4648ZM32.4648 22.7266H32.2148V22.9766H32.4648V22.7266ZM42.8944 46.2538L43.1356 46.188V46.188L42.8944 46.2538ZM40.5357 37.6051L40.7769 37.5393L40.7769 37.5393L40.5357 37.6051ZM39.9743 36.7988L39.8289 37.0022L39.829 37.0022L39.9743 36.7988ZM38.1453 35.0234L37.9463 35.1747L37.9463 35.1748L38.1453 35.0234ZM23.8547 35.0234L24.0537 35.1748L24.0537 35.1747L23.8547 35.0234ZM22.0257 36.7988L22.171 37.0022L22.1711 37.0022L22.0257 36.7988ZM21.4643 37.6051L21.2231 37.5393L21.2231 37.5393L21.4643 37.6051ZM19.1056 46.2538L18.8644 46.188L18.8644 46.188L19.1056 46.2538ZM16.5867 21.7743L16.6055 22.0236L16.6055 22.0236L16.5867 21.7743ZM23.8494 25.0722L23.6496 25.2225L23.6497 25.2225L23.8494 25.0722ZM38.1505 25.0722L38.3502 25.2225L38.3503 25.2225L38.1505 25.0722ZM45.4132 21.7743L45.3944 22.0236L45.3945 22.0236L45.4132 21.7743ZM19 29H18.75V29.25H19V29ZM19 32V31.75H18.75V32H19ZM16 32H16.25V31.75H16V32ZM16 29V29.25H16.25V29H16ZM45.6516 18.6035C41.9881 18.328 38.4683 19.7992 36.0902 22.5635L36.4692 22.8896C38.7442 20.2452 42.1096 18.8386 45.6141 19.1021L45.6516 18.6035ZM56.25 30.3474C56.25 24.2144 51.6017 19.0508 45.6516 18.6035L45.6141 19.1021C51.2907 19.5289 55.75 24.4632 55.75 30.3474H56.25ZM56.25 44.8911V30.3474H55.75V44.8911H56.25ZM47.8911 53.25C52.5005 53.25 56.25 49.5004 56.25 44.8911H55.75C55.75 49.2242 52.2243 52.75 47.8911 52.75V53.25ZM39.8267 47.0905C40.8159 50.7174 44.1317 53.25 47.8911 53.25V52.75C44.3572 52.75 41.239 50.3683 40.3091 46.9589L39.8267 47.0905ZM37.5999 38.9256L39.8267 47.0905L40.3091 46.9589L38.0823 38.7941L37.5999 38.9256ZM36.0946 37.5389C36.5762 38.0936 37.1088 38.6012 37.6864 39.0562L37.9958 38.6635C37.4429 38.2279 36.9331 37.742 36.4722 37.2111L36.0946 37.5389ZM25.7165 37.625H36.2834V37.125H25.7165V37.625ZM24.3135 39.0562C24.8911 38.6012 25.4237 38.0936 25.9053 37.5389L25.5277 37.2111C25.0668 37.742 24.557 38.2279 24.0041 38.6635L24.3135 39.0562ZM22.1732 47.0905L24.4 38.9256L23.9176 38.7941L21.6908 46.9589L22.1732 47.0905ZM14.1089 53.25C17.8683 53.25 21.1841 50.7174 22.1732 47.0905L21.6908 46.9589C20.761 50.3683 17.6428 52.75 14.1089 52.75V53.25ZM5.75 44.8911C5.75 49.5004 9.49952 53.25 14.1089 53.25V52.75C9.77567 52.75 6.25 49.2242 6.25 44.8911H5.75ZM5.75 30.3474V44.8911H6.25V30.3474H5.75ZM16.3485 18.6035C10.3983 19.0508 5.75 24.2144 5.75 30.3474H6.25C6.25 24.4632 10.7093 19.5289 16.386 19.1021L16.3485 18.6035ZM25.9099 22.5635C23.5319 19.7992 20.0111 18.3279 16.3485 18.6035L16.386 19.1021C19.8896 18.8385 23.256 20.2452 25.5309 22.8896L25.9099 22.5635ZM29.5352 22.4766H25.7204V22.9766H29.5352V22.4766ZM29.2852 13.5375V22.7266H29.7852V13.5375H29.2852ZM25.3789 8.37109C25.3789 10.94 27.1109 13.1089 29.4669 13.778L29.6035 13.297C27.4561 12.6872 25.8789 10.7098 25.8789 8.37109H25.3789ZM31 2.75C27.9003 2.75 25.3789 5.2714 25.3789 8.37109H25.8789C25.8789 5.54754 28.1765 3.25 31 3.25V2.75ZM36.6211 8.37109C36.6211 5.2714 34.0997 2.75 31 2.75V3.25C33.8235 3.25 36.1211 5.54754 36.1211 8.37109H36.6211ZM32.5331 13.778C34.8891 13.109 36.6211 10.94 36.6211 8.37109H36.1211C36.1211 10.7098 34.5439 12.6873 32.3966 13.297L32.5331 13.778ZM32.7148 22.7266V13.5375H32.2148V22.7266H32.7148ZM36.2797 22.4766H32.4648V22.9766H36.2797V22.4766ZM28.8086 8.37109C28.8086 7.16297 29.7919 6.17969 31 6.17969V5.67969C29.5157 5.67969 28.3086 6.88683 28.3086 8.37109H28.8086ZM31 10.5625C29.7919 10.5625 28.8086 9.57921 28.8086 8.37109H28.3086C28.3086 9.85536 29.5157 11.0625 31 11.0625V10.5625ZM33.1914 8.37109C33.1914 9.57921 32.2081 10.5625 31 10.5625V11.0625C32.4843 11.0625 33.6914 9.85536 33.6914 8.37109H33.1914ZM31 6.17969C32.2081 6.17969 33.1914 7.16297 33.1914 8.37109H33.6914C33.6914 6.88683 32.4843 5.67969 31 5.67969V6.17969ZM47.8911 50.3203C50.885 50.3203 53.3203 47.8849 53.3203 44.8911H52.8203C52.8203 47.6088 50.6089 49.8203 47.8911 49.8203V50.3203ZM42.6532 46.3196C43.2957 48.6755 45.4492 50.3203 47.8911 50.3203V49.8203C45.6746 49.8203 43.7188 48.3264 43.1356 46.188L42.6532 46.3196ZM40.2946 37.6709L42.6532 46.3196L43.1356 46.188L40.7769 37.5393L40.2946 37.6709ZM39.829 37.0022C40.0565 37.1648 40.2209 37.401 40.2946 37.6709L40.7769 37.5393C40.673 37.1584 40.4409 36.825 40.1197 36.5954L39.829 37.0022ZM37.9463 35.1748C38.479 35.8752 39.1125 36.4901 39.8289 37.0022L40.1197 36.5954C39.444 36.1124 38.8466 35.5326 38.3443 34.8721L37.9463 35.1748ZM36.9794 34.6953C37.3589 34.6953 37.7166 34.8727 37.9463 35.1747L38.3443 34.8721C38.0201 34.4457 37.5151 34.1953 36.9794 34.1953V34.6953ZM25.0206 34.6953H36.9794V34.1953H25.0206V34.6953ZM24.0537 35.1747C24.2833 34.8727 24.641 34.6953 25.0206 34.6953V34.1953C24.4848 34.1953 23.9798 34.4457 23.6557 34.8722L24.0537 35.1747ZM22.1711 37.0022C22.8875 36.49 23.521 35.8752 24.0537 35.1748L23.6557 34.8721C23.1534 35.5326 22.5561 36.1123 21.8803 36.5955L22.1711 37.0022ZM21.7054 37.6709C21.7791 37.4011 21.9435 37.1648 22.171 37.0022L21.8803 36.5954C21.559 36.825 21.327 37.1585 21.2231 37.5393L21.7054 37.6709ZM19.3468 46.3196L21.7054 37.6709L21.2231 37.5393L18.8644 46.188L19.3468 46.3196ZM14.1089 50.3203C16.5508 50.3203 18.7043 48.6755 19.3468 46.3196L18.8644 46.188C18.2812 48.3264 16.3253 49.8203 14.1089 49.8203V50.3203ZM8.67969 44.8911C8.67969 47.8849 11.115 50.3203 14.1089 50.3203V49.8203C11.3911 49.8203 9.17969 47.6088 9.17969 44.8911H8.67969ZM8.67969 30.3474V44.8911H9.17969V30.3474H8.67969ZM16.568 21.525C12.1354 21.8582 8.67969 25.7407 8.67969 30.3474H9.17969C9.17969 25.9849 12.4507 22.3359 16.6055 22.0236L16.568 21.525ZM24.0492 24.9219C22.2842 22.5761 19.4871 21.3051 16.5679 21.525L16.6055 22.0236C19.354 21.8166 21.9867 23.0122 23.6496 25.2225L24.0492 24.9219ZM25.0199 25.4062C24.6382 25.4062 24.2787 25.2269 24.0492 24.9218L23.6497 25.2225C23.9736 25.653 24.4811 25.9062 25.0199 25.9062V25.4062ZM36.98 25.4062H25.0199V25.9062H36.98V25.4062ZM37.9507 24.9218C37.7212 25.2269 37.3617 25.4062 36.98 25.4062V25.9062C37.5188 25.9062 38.0263 25.653 38.3502 25.2225L37.9507 24.9218ZM45.432 21.525C42.5124 21.305 39.7158 22.5761 37.9507 24.9219L38.3503 25.2225C40.0133 23.0122 42.6456 21.8165 45.3944 22.0236L45.432 21.525ZM53.3203 30.3474C53.3203 25.7407 49.8646 21.8581 45.4319 21.525L45.3945 22.0236C49.5493 22.3358 52.8203 25.9849 52.8203 30.3474H53.3203ZM53.3203 44.8911V30.3474H52.8203V44.8911H53.3203ZM51.75 30.5C51.75 33.9518 48.9518 36.75 45.5 36.75V37.25C49.2279 37.25 52.25 34.2279 52.25 30.5H51.75ZM45.5 24.25C48.9518 24.25 51.75 27.0482 51.75 30.5H52.25C52.25 26.7721 49.2279 23.75 45.5 23.75V24.25ZM39.25 30.5C39.25 27.0482 42.0482 24.25 45.5 24.25V23.75C41.7721 23.75 38.75 26.7721 38.75 30.5H39.25ZM45.5 36.75C42.0482 36.75 39.25 33.9518 39.25 30.5H38.75C38.75 34.2279 41.7721 37.25 45.5 37.25V36.75ZM21.5 28.75H19V29.25H21.5V28.75ZM23.25 30.5C23.25 29.5335 22.4665 28.75 21.5 28.75V29.25C22.1903 29.25 22.75 29.8097 22.75 30.5H23.25ZM21.5 32.25C22.4665 32.25 23.25 31.4665 23.25 30.5H22.75C22.75 31.1903 22.1903 31.75 21.5 31.75V32.25ZM19 32.25H21.5V31.75H19V32.25ZM19.25 34.5V32H18.75V34.5H19.25ZM17.5 36.25C18.4665 36.25 19.25 35.4665 19.25 34.5H18.75C18.75 35.1903 18.1903 35.75 17.5 35.75V36.25ZM15.75 34.5C15.75 35.4665 16.5335 36.25 17.5 36.25V35.75C16.8097 35.75 16.25 35.1903 16.25 34.5H15.75ZM15.75 32V34.5H16.25V32H15.75ZM13.5 32.25H16V31.75H13.5V32.25ZM11.75 30.5C11.75 31.4665 12.5335 32.25 13.5 32.25V31.75C12.8097 31.75 12.25 31.1903 12.25 30.5H11.75ZM13.5 28.75C12.5335 28.75 11.75 29.5335 11.75 30.5H12.25C12.25 29.8097 12.8097 29.25 13.5 29.25V28.75ZM16 28.75H13.5V29.25H16V28.75ZM15.75 26.5V29H16.25V26.5H15.75ZM17.5 24.75C16.5335 24.75 15.75 25.5335 15.75 26.5H16.25C16.25 25.8097 16.8097 25.25 17.5 25.25V24.75ZM19.25 26.5C19.25 25.5335 18.4665 24.75 17.5 24.75V25.25C18.1903 25.25 18.75 25.8097 18.75 26.5H19.25ZM19.25 29V26.5H18.75V29H19.25ZM27.4732 28.25H35.5268V27.75H27.4732V28.25ZM26.25 29.5C26.25 28.8054 26.8019 28.25 27.4732 28.25V27.75C26.5173 27.75 25.75 28.5378 25.75 29.5H26.25ZM27.4732 30.75C26.8019 30.75 26.25 30.1946 26.25 29.5H25.75C25.75 30.4622 26.5173 31.25 27.4732 31.25V30.75ZM35.5268 30.75H27.4732V31.25H35.5268V30.75ZM36.75 29.5C36.75 30.1946 36.1981 30.75 35.5268 30.75V31.25C36.4827 31.25 37.25 30.4622 37.25 29.5H36.75ZM35.5268 28.25C36.1981 28.25 36.75 28.8054 36.75 29.5H37.25C37.25 28.5378 36.4827 27.75 35.5268 27.75V28.25ZM46.25 41.5C46.25 40.8097 46.8097 40.25 47.5 40.25V39.75C46.5335 39.75 45.75 40.5335 45.75 41.5H46.25ZM46.25 45.5V41.5H45.75V45.5H46.25ZM47.5 46.75C46.8097 46.75 46.25 46.1903 46.25 45.5H45.75C45.75 46.4665 46.5335 47.25 47.5 47.25V46.75ZM48.75 45.5C48.75 46.1903 48.1903 46.75 47.5 46.75V47.25C48.4665 47.25 49.25 46.4665 49.25 45.5H48.75ZM48.75 41.5V45.5H49.25V41.5H48.75ZM47.5 40.25C48.1903 40.25 48.75 40.8097 48.75 41.5H49.25C49.25 40.5335 48.4665 39.75 47.5 39.75V40.25ZM14.5 39.75C13.5335 39.75 12.75 40.5335 12.75 41.5H13.25C13.25 40.8097 13.8097 40.25 14.5 40.25V39.75ZM16.25 41.5C16.25 40.5335 15.4665 39.75 14.5 39.75V40.25C15.1903 40.25 15.75 40.8097 15.75 41.5H16.25ZM16.25 45.5V41.5H15.75V45.5H16.25ZM14.5 47.25C15.4665 47.25 16.25 46.4665 16.25 45.5H15.75C15.75 46.1903 15.1903 46.75 14.5 46.75V47.25ZM12.75 45.5C12.75 46.4665 13.5335 47.25 14.5 47.25V46.75C13.8097 46.75 13.25 46.1903 13.25 45.5H12.75ZM12.75 41.5V45.5H13.25V41.5H12.75Z" fill="#191428"/>
<circle cx="45.5" cy="30.5" r="4.5" fill="white"/>
</svg>
