<svg width="62" height="64" viewBox="0 0 62 64" fill="none" xmlns="http://www.w3.org/2000/svg">
<path d="M55.6225 12.3987C67.4921 19.6335 53.259 31.5475 58.4499 42.5C63.6407 53.4525 58.5897 64 31.2981 64C4.0066 64 0 44.8199 0 37.3509C0 -12.5536 32 -2.00001 55.6225 12.3987Z" fill="#EAE2FE" fill-opacity="0.6"/>
<path fill-rule="evenodd" clip-rule="evenodd" d="M4.17383 17.5484C4.17383 19.2558 5.55884 20.6452 7.26078 20.6452C8.96273 20.6452 10.3477 19.2558 10.3477 17.5484C10.3477 15.8411 8.96273 14.4517 7.26078 14.4517C5.55884 14.4517 4.17383 15.8411 4.17383 17.5484ZM6.2318 17.5484C6.2318 16.9807 6.69484 16.5162 7.26078 16.5162C7.82673 16.5162 8.28977 16.9807 8.28977 17.5484C8.28977 18.1162 7.82673 18.5807 7.26078 18.5807C6.69484 18.5807 6.2318 18.1162 6.2318 17.5484Z" fill="#A4AFC1"/>
<rect x="16" y="9" width="30" height="23" fill="#8125F5"/>
<rect x="7" y="47" width="48" height="9" fill="#FFEC6D"/>
<rect x="11" y="31" width="7" height="15" fill="white"/>
<rect x="28" y="31" width="7" height="15" fill="white"/>
<rect x="44" y="31" width="7" height="15" fill="white"/>
<rect x="7" y="47" width="48" height="9" fill="#191428"/>
<path fill-rule="evenodd" clip-rule="evenodd" d="M52.9216 45.1304V40.125C52.9216 38.8076 52.2757 37.5375 51.1496 36.6401L51.1437 36.6354L51.124 36.6203L51.102 36.6038L51.0721 36.5812C51.7185 35.7676 52.1059 34.7408 52.1059 33.625C52.1059 31.5256 50.7376 29.7396 48.8431 29.1023V10.5703C48.8431 8.05024 46.7849 6 44.2549 6H17.7451C15.2151 6 13.1569 8.05024 13.1569 10.5703V29.1023C11.2624 29.7396 9.89412 31.5256 9.89412 33.625C9.89412 34.742 10.2824 35.7698 10.93 36.5839C9.79379 37.4581 9.07843 38.7217 9.07843 40.125V45.1304C6.78758 45.3839 5 47.3234 5 49.6719V53.4297C5 55.9498 7.05828 58 9.58824 58H52.4118C54.9417 58 57 55.9498 57 53.4297V49.6719C57 47.3234 55.2124 45.3839 52.9216 45.1304ZM36.6078 45.1016V40.125C36.6078 38.8076 35.9619 37.5375 34.8359 36.6401C34.826 36.6322 34.8159 36.6245 34.8058 36.6168L34.7883 36.6038L34.7584 36.5812C35.0962 36.1559 35.3627 35.6726 35.5404 35.1484H42.7733C42.9514 35.6737 43.2187 36.158 43.5575 36.5839C42.4212 37.4581 41.7059 38.7217 41.7059 40.125V45.1016H36.6078ZM20.2941 40.125V45.1016H25.3922V40.125C25.3922 38.7217 26.1075 37.4581 27.2438 36.5839C26.9049 36.158 26.6377 35.6737 26.4596 35.1484H19.2267C19.049 35.6726 18.7824 36.1559 18.4447 36.5812L18.4746 36.6038L18.4747 36.6038L18.4747 36.6039L18.4747 36.6039L18.4748 36.6039C18.4907 36.6158 18.5066 36.6277 18.5221 36.6401C19.6482 37.5375 20.2941 38.8076 20.2941 40.125ZM12.1373 40.125C12.1373 39.2052 13.3285 38.3984 14.6863 38.3984C15.4146 38.3984 16.1161 38.6248 16.6113 39.0193C16.8443 39.205 17.2353 39.5957 17.2353 40.125V45.1016H12.1373V40.125ZM29.2667 33.625C29.2667 34.577 30.0442 35.3516 31 35.3516C31.9558 35.3516 32.7333 34.577 32.7333 33.625C32.7333 32.673 31.9558 31.8984 31 31.8984C30.0442 31.8984 29.2667 32.673 29.2667 33.625ZM28.451 40.125C28.451 39.2052 29.6422 38.3984 31 38.3984C31.7283 38.3984 32.4298 38.6248 32.925 39.0193C33.158 39.205 33.549 39.5957 33.549 40.125V45.1016H28.451V40.125ZM47.3137 38.3984C45.9559 38.3984 44.7647 39.2052 44.7647 40.125V45.1016H49.8627V40.125C49.8627 39.5957 49.4717 39.205 49.2387 39.0193C48.7435 38.6248 48.042 38.3984 47.3137 38.3984ZM47.3137 35.3516C46.3579 35.3516 45.5804 34.577 45.5804 33.625C45.5804 32.673 46.3579 31.8984 47.3137 31.8984C48.2695 31.8984 49.0471 32.673 49.0471 33.625C49.0471 34.577 48.2695 35.3516 47.3137 35.3516ZM44.2549 9.04688H17.7451C16.9018 9.04688 16.2157 9.73029 16.2157 10.5703V29.1023C17.6295 29.5779 18.7491 30.6933 19.2267 32.1016H26.4596C27.0995 30.2145 28.8924 28.8516 31 28.8516C33.1076 28.8516 34.9005 30.2145 35.5404 32.1016H42.7733C43.2508 30.6933 44.3705 29.578 45.7843 29.1023V10.5703C45.7843 9.73029 45.0982 9.04688 44.2549 9.04688ZM12.9529 33.625C12.9529 32.673 13.7305 31.8984 14.6863 31.8984C15.6421 31.8984 16.4196 32.673 16.4196 33.625C16.4196 34.577 15.6421 35.3516 14.6863 35.3516C13.7305 35.3516 12.9529 34.577 12.9529 33.625ZM52.4118 54.9531C53.2551 54.9531 53.9412 54.2697 53.9412 53.4297V49.6719C53.9412 48.8319 53.2551 48.1484 52.4118 48.1484H9.58824C8.74492 48.1484 8.05882 48.8319 8.05882 49.6719V53.4297C8.05882 54.2697 8.74492 54.9531 9.58824 54.9531H52.4118Z" fill="#191428"/>
<rect x="29" y="17" width="6" height="6" fill="#191428"/>
<path fill-rule="evenodd" clip-rule="evenodd" d="M29.5782 26C29.1665 26.0001 28.7534 25.91 28.3742 25.728C27.5265 25.321 26.9999 24.5266 27 23.6547V16.3454C27 15.4708 27.5291 14.6752 28.3808 14.2691C29.2327 13.8629 30.2531 13.9199 31.0439 14.4173L36.8888 18.0946L36.8887 18.0946C37.5869 18.5337 38.0023 19.2569 38 20.0291C37.9977 20.8014 37.5778 21.5225 36.8767 21.9583L31.0318 25.5904C30.5942 25.8624 30.0872 26 29.5782 26ZM34.4497 20.0201L30.1285 17.3015V22.7055L34.4497 20.0201Z" fill="#191428"/>
</svg>
