<svg width="60" height="60" viewBox="0 0 60 60" fill="none" xmlns="http://www.w3.org/2000/svg">
<circle cx="30.0001" cy="30.0001" r="29.0001" fill="white" stroke="white" stroke-width="2"/>
<g filter="url(#filter0_d_1241_7831)">
<path d="M48.4155 33.5981C48.4155 34.4013 48.3831 35.1984 48.3182 35.983C48.0761 38.9221 47.3921 42.1353 46.3488 45.2986C45.7048 47.2508 44.926 49.1842 44.0299 51.0212C33.741 49.7042 34.8734 45.5921 30.1159 46.5253C25.2297 47.4293 20.1377 49.1673 15.2429 49.7042C14.7986 48.7141 14.3893 47.7022 14.0174 46.6779C12.7069 43.0787 11.8483 39.3518 11.5712 35.9861C11.5063 35.2015 11.4739 34.4044 11.4739 33.5981C11.4739 33.5296 11.4739 33.4642 11.4739 33.3957V33.377C11.4739 33.3272 11.4739 33.2774 11.4764 33.2275C11.4764 33.212 11.4764 33.1995 11.4764 33.184C11.4764 33.1497 11.4764 33.1155 11.4789 33.0812C11.4789 33.0625 11.4789 33.0438 11.4789 33.0252C11.4789 32.9971 11.4789 32.9691 11.4814 32.9411C11.4839 32.8851 11.4839 32.829 11.4864 32.7761C11.4864 32.7667 11.4864 32.7574 11.4864 32.7481C11.4913 32.6111 11.4963 32.4741 11.5013 32.3402C11.5038 32.281 11.5063 32.2188 11.5088 32.1596C11.5088 32.1378 11.5113 32.116 11.5113 32.0942C11.5138 32.0382 11.5163 31.9821 11.5213 31.9261C11.5238 31.8701 11.5288 31.814 11.5313 31.758C11.5338 31.7331 11.5338 31.7113 11.5363 31.6895C11.5388 31.6334 11.5438 31.5805 11.5463 31.5276C11.5463 31.512 11.5488 31.4964 11.5488 31.4809C11.5562 31.3594 11.5662 31.238 11.5762 31.1197C11.5887 30.9703 11.6037 30.8177 11.6186 30.6682C11.6236 30.6091 11.6311 30.5468 11.6386 30.4877C11.6386 30.4845 11.6386 30.4846 11.6386 30.4814C11.6461 30.4223 11.6511 30.3631 11.6586 30.304C11.6686 30.2137 11.681 30.1203 11.691 30.03C11.696 29.9802 11.7035 29.9335 11.7085 29.8836C11.7085 29.8805 11.7085 29.8743 11.711 29.8712C11.7185 29.8089 11.726 29.7467 11.736 29.6875C11.736 29.6813 11.7385 29.6782 11.7385 29.6719C11.7484 29.6065 11.7559 29.5412 11.7659 29.4758C11.7759 29.4073 11.7859 29.3419 11.7959 29.2765C11.8059 29.2174 11.8133 29.1582 11.8233 29.099C11.8258 29.0866 11.8258 29.0741 11.8283 29.0648C11.8483 28.9434 11.8683 28.8188 11.8882 28.6974C11.8907 28.6787 11.8932 28.6632 11.8982 28.6445C11.9082 28.5884 11.9182 28.5355 11.9282 28.4795C11.9406 28.4141 11.9531 28.3487 11.9656 28.2833C11.9781 28.2179 11.9906 28.1525 12.003 28.0872C12.013 28.0311 12.0255 27.9751 12.0355 27.9221C12.0505 27.8443 12.0679 27.7633 12.0854 27.6855C12.1129 27.561 12.1378 27.4395 12.1653 27.315C12.1678 27.3088 12.1678 27.3057 12.1678 27.3026C12.1828 27.2403 12.1952 27.178 12.2102 27.1157C12.2227 27.0659 12.2352 27.0161 12.2452 26.9663C12.2526 26.9383 12.2576 26.9134 12.2651 26.8853C12.2776 26.8355 12.2901 26.7826 12.3026 26.7328C12.3175 26.6736 12.3325 26.6176 12.3475 26.5584C12.3824 26.4245 12.4174 26.2876 12.4548 26.1537C12.4673 26.107 12.4798 26.0603 12.4923 26.0136C12.4998 25.9887 12.5072 25.9637 12.5122 25.9388C12.5272 25.889 12.5397 25.8392 12.5547 25.7925C12.5746 25.7271 12.5921 25.6617 12.6121 25.5964C12.6296 25.5372 12.647 25.478 12.6645 25.4189C12.7044 25.2912 12.7419 25.1636 12.7843 25.039C12.8043 24.9768 12.8242 24.9176 12.8442 24.8553V24.8522C12.8617 24.7962 12.8792 24.7433 12.8991 24.6903C12.9041 24.6779 12.9066 24.6685 12.9116 24.6561C12.9316 24.6 12.949 24.544 12.969 24.4879C12.989 24.4288 13.0114 24.3665 13.0339 24.3074C13.0339 24.3043 13.0364 24.3043 13.0364 24.3011C13.0564 24.242 13.0788 24.1828 13.0988 24.1268C13.1412 24.0116 13.1837 23.8995 13.2261 23.7843C13.2311 23.775 13.2336 23.7625 13.2386 23.7532C13.281 23.638 13.326 23.5228 13.3709 23.4107C13.3933 23.3515 13.4183 23.2924 13.4408 23.2332C13.4907 23.1118 13.5406 22.9904 13.5905 22.872C13.613 22.816 13.638 22.7631 13.6604 22.7101C13.6854 22.651 13.7103 22.5949 13.7353 22.5358C13.7603 22.4797 13.7852 22.4206 13.8127 22.3645C13.8152 22.3552 13.8202 22.349 13.8227 22.3396C13.8451 22.2898 13.8676 22.24 13.8901 22.1933C13.915 22.1373 13.9425 22.0781 13.9699 22.0221C13.9899 21.9785 14.0099 21.9349 14.0298 21.8944C14.0398 21.8695 14.0523 21.8477 14.0623 21.8259C14.0848 21.7823 14.1047 21.7356 14.1272 21.692C14.1546 21.6329 14.1846 21.5768 14.2121 21.5177C14.2395 21.4647 14.2645 21.4118 14.2919 21.3589C14.2944 21.3558 14.2944 21.3527 14.2969 21.3495C14.3219 21.2966 14.3493 21.2468 14.3743 21.197C14.4092 21.1285 14.4442 21.06 14.4816 20.9915C14.5041 20.951 14.5241 20.9105 14.5465 20.8669C14.6364 20.7019 14.7262 20.5369 14.8186 20.3719C14.8485 20.319 14.8785 20.266 14.9109 20.2131C14.9384 20.1664 14.9634 20.1228 14.9908 20.0761C14.9958 20.0699 15.0008 20.0605 15.0033 20.0543C15.0333 20.0045 15.0632 19.9516 15.0932 19.9018C15.1256 19.8457 15.1581 19.7897 15.193 19.7367C15.2205 19.6932 15.2479 19.6496 15.2754 19.6029C15.3128 19.5437 15.3503 19.4846 15.3877 19.4223C15.4201 19.3725 15.4501 19.3227 15.4825 19.2728C15.485 19.2697 15.4875 19.2635 15.49 19.2604C15.52 19.2137 15.5474 19.1701 15.5774 19.1234C15.5799 19.1203 15.5824 19.1172 15.5849 19.114C15.6148 19.0705 15.6423 19.0238 15.6722 18.9802C15.7022 18.9366 15.7322 18.8899 15.7596 18.8463C15.7771 18.8214 15.7921 18.7965 15.8095 18.7716C15.8095 18.7684 15.812 18.7653 15.8145 18.7653C15.8594 18.6999 15.9019 18.6346 15.9468 18.5723C15.9593 18.5536 15.9718 18.5349 15.9843 18.5194C16.0167 18.4727 16.0491 18.426 16.0816 18.3793C16.0841 18.3761 16.0841 18.3761 16.0841 18.373C16.114 18.3294 16.1465 18.2859 16.1789 18.2423C16.1914 18.2236 16.2039 18.2049 16.2189 18.1893C16.2438 18.1551 16.2713 18.1177 16.2963 18.0835C16.3337 18.0337 16.3711 17.9838 16.4086 17.934C16.431 17.906 16.451 17.8749 16.4735 17.8469C16.4934 17.8188 16.5159 17.7908 16.5384 17.7628C16.5558 17.741 16.5733 17.7192 16.5908 17.6943C16.6183 17.6569 16.6482 17.6196 16.6782 17.5822C16.6956 17.5604 16.7131 17.5386 16.7306 17.5137C16.768 17.467 16.8055 17.4203 16.8404 17.3736C16.8604 17.3487 16.8803 17.3207 16.9028 17.2958C16.9303 17.2615 16.9577 17.2273 16.9852 17.1961C16.9977 17.1806 17.0101 17.165 17.0201 17.1525C17.0476 17.1183 17.075 17.0872 17.1 17.0529C17.125 17.0218 17.1499 16.9938 17.1749 16.9626C17.2198 16.9097 17.2647 16.8568 17.3097 16.8038C17.3521 16.754 17.3945 16.7042 17.437 16.6544C17.4444 16.6482 17.4494 16.6388 17.4569 16.6326C17.4944 16.589 17.5318 16.5454 17.5692 16.5049C17.5867 16.4831 17.6067 16.4645 17.6242 16.4427C17.7065 16.3493 17.7914 16.259 17.8763 16.1687C17.8987 16.1438 17.9237 16.1189 17.9462 16.0939C17.9711 16.0659 17.9961 16.0379 18.0235 16.013C18.0485 15.985 18.0759 15.957 18.1009 15.9289C18.1983 15.8262 18.2956 15.7266 18.3954 15.63C18.4379 15.5896 18.4803 15.546 18.5202 15.5055C18.5327 15.493 18.5427 15.4837 18.5552 15.4712C18.6026 15.4245 18.6525 15.3778 18.7025 15.3311C18.7374 15.2969 18.7723 15.2626 18.8073 15.2315C18.8198 15.2191 18.8347 15.2066 18.8472 15.1941C18.8722 15.1692 18.8972 15.1474 18.9221 15.1225C18.9521 15.0945 18.982 15.0665 19.012 15.0385C19.022 15.0291 19.0319 15.0198 19.0444 15.0105C19.0893 14.9669 19.1368 14.9264 19.1817 14.8859C19.1892 14.8797 19.1942 14.8735 19.2017 14.8672C19.2516 14.8205 19.304 14.7769 19.3539 14.7302C19.4014 14.6898 19.4463 14.6493 19.4937 14.6088C19.5262 14.5808 19.5586 14.5528 19.5911 14.5247C19.606 14.5123 19.621 14.4998 19.636 14.4874C19.6709 14.4594 19.7034 14.4313 19.7383 14.4002C19.7833 14.3628 19.8307 14.3255 19.8756 14.2881C19.928 14.2445 19.9804 14.2041 20.0329 14.1605C20.0478 14.148 20.0628 14.1356 20.0778 14.1262C20.1127 14.0982 20.1502 14.0702 20.1876 14.039C20.2051 14.0266 20.2251 14.011 20.2425 13.9986C20.285 13.9643 20.3299 13.9301 20.3723 13.8989C20.3848 13.8896 20.3998 13.8803 20.4123 13.8678C20.4672 13.8273 20.5221 13.7868 20.577 13.7464C20.6319 13.7059 20.6893 13.6654 20.7442 13.6249C20.7492 13.6218 20.7567 13.6156 20.7617 13.6125C20.8091 13.5782 20.8566 13.544 20.9015 13.5129C20.9839 13.4537 21.0687 13.3977 21.1511 13.3416C21.1935 13.3136 21.2335 13.2856 21.2759 13.2576C21.3433 13.214 21.4107 13.1704 21.4781 13.1268C21.508 13.1081 21.5405 13.0863 21.5704 13.0676C21.5979 13.0489 21.6278 13.0303 21.6578 13.0116C21.7027 12.9836 21.7452 12.9555 21.7901 12.9275C21.8101 12.9151 21.83 12.9026 21.85 12.8902C21.8824 12.8715 21.9149 12.8497 21.9473 12.831C21.9773 12.8123 22.0072 12.7968 22.0372 12.7781C22.0871 12.7469 22.1395 12.7189 22.1895 12.6909C22.2319 12.666 22.2768 12.6411 22.3192 12.6162C22.3392 12.6037 22.3617 12.5913 22.3841 12.5788C22.4191 12.5601 22.4515 12.5414 22.4865 12.5228C22.494 12.5197 22.5015 12.5134 22.5089 12.5103C22.5314 12.4979 22.5539 12.4854 22.5763 12.4729C22.6163 12.4512 22.6587 12.4294 22.7011 12.4076C22.7111 12.4013 22.7186 12.3982 22.7286 12.392C22.7785 12.3671 22.8284 12.3391 22.8784 12.3142C23.0107 12.2457 23.1454 12.1772 23.2802 12.1149C23.3277 12.0931 23.3751 12.0713 23.42 12.0464C23.4924 12.0122 23.5648 11.9779 23.6397 11.9468C23.6921 11.9219 23.7445 11.9001 23.7994 11.8752C23.8543 11.8502 23.9117 11.8253 23.9666 11.8035C23.9891 11.7942 24.0116 11.7849 24.034 11.7755C24.0765 11.7568 24.1189 11.7413 24.1588 11.7226C24.1763 11.7164 24.1963 11.707 24.2138 11.7008C24.2637 11.6821 24.3136 11.6603 24.3635 11.6416C24.366 11.6416 24.3685 11.6385 24.3735 11.6385C24.4309 11.6167 24.4883 11.5918 24.5482 11.57C24.5532 11.5669 24.5607 11.5669 24.5657 11.5638C24.5981 11.5514 24.6331 11.5389 24.6655 11.5264C24.698 11.514 24.7329 11.5015 24.7654 11.4891C24.7978 11.4766 24.8328 11.4642 24.8677 11.4517C24.9027 11.4393 24.9351 11.4268 24.9701 11.4175C25.0375 11.3926 25.1048 11.3708 25.1747 11.349C25.1972 11.3427 25.2172 11.3334 25.2396 11.3272C25.2671 11.3178 25.2945 11.3085 25.322 11.2992C25.3744 11.2805 25.4293 11.2649 25.4818 11.2493C25.5142 11.24 25.5466 11.2307 25.5791 11.2213C25.7538 11.1684 25.926 11.1186 26.1033 11.0719C26.1382 11.0625 26.1732 11.0532 26.2081 11.0439C26.2505 11.0314 26.2955 11.0221 26.3379 11.0127C26.3629 11.0065 26.3903 11.0003 26.4153 10.994C26.5276 10.966 26.6399 10.9411 26.7522 10.9162C26.7772 10.91 26.8047 10.9037 26.8296 10.9006C26.882 10.8882 26.9345 10.8788 26.9869 10.8695C27.0193 10.8633 27.0543 10.857 27.0867 10.8508C27.1092 10.8477 27.1316 10.8415 27.1541 10.8384C27.1841 10.8321 27.2165 10.8259 27.2465 10.8228C27.3912 10.7948 27.5385 10.773 27.6858 10.7481C28.4221 10.636 29.1734 10.5799 29.9347 10.5799C30.686 10.5799 31.4299 10.636 32.1587 10.745C32.266 10.7605 32.3734 10.7792 32.4807 10.7979C32.5156 10.8041 32.5506 10.8103 32.588 10.8166C32.6205 10.8228 32.6529 10.829 32.6879 10.8352C32.7228 10.8415 32.7578 10.8477 32.7927 10.8539C32.8177 10.857 32.8426 10.8633 32.8701 10.8695C32.925 10.8788 32.9799 10.8913 33.0323 10.9037C33.0623 10.91 33.0897 10.9162 33.1197 10.9224C33.1546 10.9287 33.1896 10.938 33.2245 10.9442C33.2894 10.9598 33.3518 10.9722 33.4167 10.9878C33.4517 10.9971 33.4866 11.0034 33.5191 11.0127C33.6688 11.0501 33.8186 11.0874 33.9658 11.131C34.1356 11.1777 34.3028 11.2275 34.4701 11.2805C34.505 11.2898 34.5374 11.3023 34.5724 11.3147C34.6073 11.3241 34.6398 11.3365 34.6747 11.349C34.7147 11.3614 34.7521 11.3739 34.7895 11.3863C34.8195 11.3957 34.8495 11.4081 34.8769 11.4175C35.0117 11.4642 35.1465 11.514 35.2813 11.5638C35.3112 11.5763 35.3437 11.5887 35.3761 11.5981C35.3986 11.6074 35.4211 11.6167 35.4435 11.623C35.4735 11.6354 35.5059 11.6479 35.5384 11.6603C35.6781 11.7164 35.8179 11.7724 35.9552 11.8316C35.9802 11.8409 36.0051 11.8534 36.0301 11.8627C36.0476 11.8689 36.065 11.8783 36.0825 11.8876C36.115 11.9032 36.1474 11.9156 36.1823 11.9312C36.2023 11.9405 36.2223 11.9499 36.2423 11.9592C36.2672 11.9717 36.2947 11.9841 36.3196 11.9935C36.3521 12.009 36.3845 12.0246 36.417 12.0371C36.4369 12.0464 36.4569 12.0557 36.4744 12.0651C36.5043 12.0806 36.5368 12.0931 36.5667 12.1087C36.7639 12.2021 36.9586 12.3017 37.1508 12.4045C37.1733 12.4169 37.1957 12.4294 37.2182 12.4418C37.2606 12.4636 37.3006 12.4854 37.343 12.5103C37.3705 12.5259 37.3979 12.5414 37.4229 12.5539C37.4603 12.5726 37.4953 12.5944 37.5327 12.6162C37.5627 12.6317 37.5926 12.6504 37.6226 12.6691C37.655 12.6878 37.6875 12.7065 37.7199 12.7251C37.7499 12.7438 37.7798 12.7594 37.8123 12.7781C37.8447 12.7968 37.8772 12.8154 37.9096 12.8341C37.9396 12.8528 37.972 12.8715 38.002 12.8902C38.0644 12.9275 38.1268 12.9649 38.1892 13.0054C38.284 13.0645 38.3789 13.1268 38.4737 13.1859C38.5062 13.2077 38.5361 13.2264 38.5686 13.2482C38.626 13.2856 38.6834 13.3229 38.7408 13.3634C38.8007 13.4039 38.8631 13.4475 38.923 13.488C38.9779 13.5253 39.0303 13.5627 39.0853 13.6C39.0977 13.6094 39.1102 13.6187 39.1227 13.6281C39.2949 13.7526 39.4647 13.8771 39.6344 14.0079C39.6369 14.0079 39.6369 14.011 39.6394 14.011C39.7542 14.1013 39.869 14.1916 39.9838 14.285C39.9838 14.285 39.9863 14.2881 39.9888 14.2881C40.0388 14.3286 40.0887 14.3691 40.1386 14.4095C40.1511 14.4189 40.1611 14.4282 40.1735 14.4376C40.226 14.4812 40.2784 14.5247 40.3283 14.5683C40.3857 14.615 40.4406 14.6649 40.498 14.7147C40.548 14.7583 40.5954 14.8018 40.6453 14.8423C40.6603 14.8548 40.6777 14.8703 40.6927 14.8859C40.7252 14.917 40.7601 14.9451 40.7926 14.9762C40.8125 14.9949 40.83 15.0105 40.85 15.0291C40.8999 15.0758 40.9473 15.1194 40.9972 15.1661C41.0447 15.2097 41.0896 15.2533 41.1345 15.2969C41.1495 15.3093 41.162 15.3249 41.177 15.3374C41.3292 15.4837 41.479 15.63 41.6287 15.7826C41.6387 15.7951 41.6512 15.8044 41.6612 15.8168C41.7086 15.8667 41.756 15.9134 41.801 15.9632C41.9058 16.0722 42.0081 16.1811 42.1105 16.2932C42.113 16.2963 42.113 16.2963 42.1155 16.2994C42.1654 16.3555 42.2153 16.4115 42.2677 16.4676C42.3177 16.5236 42.3701 16.5828 42.42 16.6388C42.4674 16.6949 42.5173 16.7478 42.5648 16.8038C42.5698 16.8101 42.5747 16.8132 42.5797 16.8194C42.6222 16.8692 42.6646 16.919 42.7095 16.972C42.717 16.9782 42.722 16.9875 42.7295 16.9969C42.7769 17.0529 42.8244 17.109 42.8693 17.1681C42.9192 17.2273 42.9666 17.2864 43.0141 17.3487C43.0615 17.4078 43.1114 17.4701 43.1588 17.5293C43.2063 17.5915 43.2537 17.6507 43.3011 17.713C43.3485 17.7752 43.396 17.8375 43.4434 17.8998C43.4883 17.9589 43.5332 18.0181 43.5757 18.0804C43.5782 18.0835 43.5807 18.0897 43.5857 18.0928C43.6281 18.152 43.6705 18.2111 43.7129 18.2672C43.7379 18.3014 43.7629 18.3388 43.7878 18.373C43.8103 18.4042 43.8328 18.4353 43.8527 18.4664C43.8552 18.4696 43.8577 18.4727 43.8602 18.4758C43.9251 18.5692 43.99 18.6657 44.0549 18.7591C44.0998 18.8245 44.1423 18.8899 44.1872 18.9553C44.2072 18.9864 44.2271 19.0144 44.2471 19.0455C44.2521 19.0518 44.2571 19.058 44.2596 19.0642C44.297 19.1203 44.3345 19.1794 44.3694 19.2355C44.3944 19.2728 44.4193 19.3133 44.4443 19.3538C44.4867 19.4223 44.5292 19.4877 44.5716 19.5562C44.6565 19.69 44.7388 19.827 44.8187 19.9671C44.8586 20.0325 44.8961 20.0979 44.9335 20.1633C44.936 20.1695 44.941 20.1757 44.9435 20.1789C44.9635 20.21 44.9809 20.2442 45.0009 20.2785C45.0384 20.3408 45.0733 20.4061 45.1082 20.4684C45.1707 20.5805 45.2331 20.6926 45.2955 20.8078C45.3154 20.842 45.3329 20.8794 45.3529 20.9136C45.4103 21.0195 45.4652 21.1285 45.5226 21.2375C45.5426 21.2748 45.56 21.3122 45.58 21.3495C45.6249 21.4367 45.6674 21.5239 45.7098 21.6142C45.7323 21.6578 45.7522 21.7014 45.7747 21.7481C45.8346 21.8726 45.8945 21.9971 45.9519 22.1217C45.9694 22.1559 45.9844 22.1933 46.0018 22.2275C46.0268 22.2836 46.0518 22.3365 46.0767 22.3926C46.0967 22.4361 46.1167 22.4797 46.1341 22.5233C46.1591 22.5763 46.1816 22.6292 46.204 22.6821C46.2065 22.6852 46.2065 22.6883 46.209 22.6915C46.2315 22.7413 46.2514 22.7911 46.2739 22.8409C46.3538 23.0277 46.4287 23.2145 46.5035 23.4013C46.521 23.4449 46.5385 23.4916 46.556 23.5352C46.561 23.5477 46.5634 23.557 46.5684 23.5695C46.5909 23.6255 46.6109 23.6784 46.6308 23.7314C46.6533 23.7905 46.6758 23.8497 46.6982 23.9088C46.7132 23.9462 46.7282 23.9867 46.7407 24.024C46.7457 24.0396 46.7507 24.0521 46.7581 24.0676C46.7681 24.0956 46.7781 24.1237 46.7881 24.1517C46.8006 24.1891 46.8156 24.2264 46.828 24.2638C46.8505 24.3229 46.8705 24.3821 46.8904 24.4412C46.9104 24.5004 46.9304 24.5596 46.9503 24.6156C46.9728 24.681 46.9953 24.7464 47.0177 24.8149C47.0352 24.8709 47.0552 24.927 47.0726 24.983C47.0901 25.0359 47.1076 25.0889 47.1226 25.1418C47.1251 25.1542 47.1301 25.1636 47.1325 25.176C47.15 25.2321 47.17 25.2912 47.1875 25.3473C47.2024 25.4002 47.2199 25.4531 47.2349 25.5061C47.2399 25.5216 47.2449 25.5372 47.2499 25.5528C47.2648 25.6057 47.2823 25.6617 47.2973 25.7147C47.3148 25.7769 47.3322 25.8392 47.3497 25.8984C47.3822 26.0136 47.4146 26.1256 47.4446 26.2408C47.4645 26.3125 47.482 26.3841 47.502 26.4588C47.5145 26.5117 47.5294 26.5647 47.5419 26.6145C47.5444 26.6238 47.5469 26.6363 47.5494 26.6456C47.5793 26.7608 47.6068 26.8729 47.6343 26.9881C47.6392 27.0037 47.6417 27.0223 47.6467 27.0379L47.6792 27.178C47.6992 27.2621 47.7166 27.343 47.7366 27.4271C47.7491 27.4831 47.7616 27.5392 47.774 27.5952C47.789 27.6606 47.8015 27.7229 47.814 27.7883C47.8265 27.8536 47.8414 27.9159 47.8539 27.9813C47.8639 28.0342 47.8739 28.084 47.8839 28.1339C47.8988 28.2117 47.9138 28.2895 47.9288 28.3674C47.9388 28.4172 47.9488 28.4701 47.9562 28.5199C47.9587 28.5324 47.9612 28.548 47.9637 28.5604C47.9737 28.6164 47.9837 28.6756 47.9937 28.7316C48.0087 28.8157 48.0211 28.8967 48.0361 28.9807C48.0461 29.0368 48.0536 29.0928 48.0636 29.1489C48.0761 29.2205 48.086 29.289 48.096 29.3606C48.106 29.4228 48.1135 29.482 48.1235 29.5443C48.1335 29.6097 48.141 29.675 48.1509 29.7404C48.1509 29.7435 48.1509 29.7466 48.1509 29.7466C48.1609 29.812 48.1684 29.8774 48.1759 29.9397C48.1759 29.9459 48.1784 29.9521 48.1784 29.9553C48.1859 30.0175 48.1934 30.0767 48.2009 30.139C48.2084 30.2043 48.2158 30.2728 48.2233 30.3382C48.2333 30.4161 48.2408 30.4939 48.2483 30.5717C48.2533 30.6153 48.2583 30.662 48.2633 30.7056C48.2732 30.7959 48.2807 30.8831 48.2882 30.9734C48.2932 31.0294 48.2982 31.0886 48.3032 31.1446C48.3032 31.1477 48.3032 31.1508 48.3032 31.1571C48.3082 31.2162 48.3132 31.2723 48.3182 31.3314C48.3182 31.3439 48.3207 31.3563 48.3207 31.3719C48.3232 31.4093 48.3257 31.4497 48.3282 31.4871C48.3307 31.512 48.3307 31.5369 48.3332 31.5618C48.3356 31.6085 48.3381 31.6521 48.3431 31.6957C48.3456 31.7299 48.3481 31.7611 48.3481 31.7922C48.3506 31.8483 48.3556 31.9012 48.3581 31.9572C48.3606 32.0071 48.3631 32.0569 48.3656 32.1098C48.3681 32.144 48.3681 32.1752 48.3706 32.2094C48.3756 32.3091 48.3806 32.4087 48.3831 32.5114C48.3831 32.5177 48.3831 32.5208 48.3831 32.5239C48.3856 32.5519 48.3856 32.5799 48.3856 32.608C48.3881 32.6484 48.3881 32.6889 48.3906 32.7325C48.3906 32.7667 48.3931 32.801 48.3931 32.8352C48.3931 32.8757 48.3956 32.9162 48.3956 32.9536C48.3956 32.9847 48.3956 33.0158 48.3981 33.0438C48.3981 33.0968 48.4005 33.1528 48.4005 33.2057C48.4005 33.2711 48.403 33.3334 48.403 33.3988V33.4019C48.4155 33.4611 48.4155 33.5296 48.4155 33.5981Z" fill="white"/>
<path d="M48.4155 33.5981C48.4155 34.4013 48.3831 35.1984 48.3182 35.983C48.0761 38.9221 47.3921 42.1353 46.3488 45.2986C45.7048 47.2508 44.926 49.1842 44.0299 51.0212C33.741 49.7042 34.8734 45.5921 30.1159 46.5253C25.2297 47.4293 20.1377 49.1673 15.2429 49.7042C14.7986 48.7141 14.3893 47.7022 14.0174 46.6779C12.7069 43.0787 11.8483 39.3518 11.5712 35.9861C11.5063 35.2015 11.4739 34.4044 11.4739 33.5981C11.4739 33.5296 11.4739 33.4642 11.4739 33.3957V33.377C11.4739 33.3272 11.4739 33.2774 11.4764 33.2275C11.4764 33.212 11.4764 33.1995 11.4764 33.184C11.4764 33.1497 11.4764 33.1155 11.4789 33.0812C11.4789 33.0625 11.4789 33.0438 11.4789 33.0252C11.4789 32.9971 11.4789 32.9691 11.4814 32.9411C11.4839 32.8851 11.4839 32.829 11.4864 32.7761C11.4864 32.7667 11.4864 32.7574 11.4864 32.7481C11.4913 32.6111 11.4963 32.4741 11.5013 32.3402C11.5038 32.281 11.5063 32.2188 11.5088 32.1596C11.5088 32.1378 11.5113 32.116 11.5113 32.0942C11.5138 32.0382 11.5163 31.9821 11.5213 31.9261C11.5238 31.8701 11.5288 31.814 11.5313 31.758C11.5338 31.7331 11.5338 31.7113 11.5363 31.6895C11.5388 31.6334 11.5438 31.5805 11.5463 31.5276C11.5463 31.512 11.5488 31.4964 11.5488 31.4809C11.5562 31.3594 11.5662 31.238 11.5762 31.1197C11.5887 30.9703 11.6037 30.8177 11.6186 30.6682C11.6236 30.6091 11.6311 30.5468 11.6386 30.4877C11.6386 30.4845 11.6386 30.4846 11.6386 30.4814C11.6461 30.4223 11.6511 30.3631 11.6586 30.304C11.6686 30.2137 11.681 30.1203 11.691 30.03C11.696 29.9802 11.7035 29.9335 11.7085 29.8836C11.7085 29.8805 11.7085 29.8743 11.711 29.8712C11.7185 29.8089 11.726 29.7467 11.736 29.6875C11.736 29.6813 11.7385 29.6782 11.7385 29.6719C11.7484 29.6065 11.7559 29.5412 11.7659 29.4758C11.7759 29.4073 11.7859 29.3419 11.7959 29.2765C11.8059 29.2174 11.8133 29.1582 11.8233 29.099C11.8258 29.0866 11.8258 29.0741 11.8283 29.0648C11.8483 28.9434 11.8683 28.8188 11.8882 28.6974C11.8907 28.6787 11.8932 28.6632 11.8982 28.6445C11.9082 28.5884 11.9182 28.5355 11.9282 28.4795C11.9406 28.4141 11.9531 28.3487 11.9656 28.2833C11.9781 28.2179 11.9906 28.1525 12.003 28.0872C12.013 28.0311 12.0255 27.9751 12.0355 27.9221C12.0505 27.8443 12.0679 27.7633 12.0854 27.6855C12.1129 27.561 12.1378 27.4395 12.1653 27.315C12.1678 27.3088 12.1678 27.3057 12.1678 27.3026C12.1828 27.2403 12.1952 27.178 12.2102 27.1157C12.2227 27.0659 12.2352 27.0161 12.2452 26.9663C12.2526 26.9383 12.2576 26.9134 12.2651 26.8853C12.2776 26.8355 12.2901 26.7826 12.3026 26.7328C12.3175 26.6736 12.3325 26.6176 12.3475 26.5584C12.3824 26.4245 12.4174 26.2876 12.4548 26.1537C12.4673 26.107 12.4798 26.0603 12.4923 26.0136C12.4998 25.9887 12.5072 25.9637 12.5122 25.9388C12.5272 25.889 12.5397 25.8392 12.5547 25.7925C12.5746 25.7271 12.5921 25.6617 12.6121 25.5964C12.6296 25.5372 12.647 25.478 12.6645 25.4189C12.7044 25.2912 12.7419 25.1636 12.7843 25.039C12.8043 24.9768 12.8242 24.9176 12.8442 24.8553V24.8522C12.8617 24.7962 12.8792 24.7433 12.8991 24.6903C12.9041 24.6779 12.9066 24.6685 12.9116 24.6561C12.9316 24.6 12.949 24.544 12.969 24.4879C12.989 24.4288 13.0114 24.3665 13.0339 24.3074C13.0339 24.3043 13.0364 24.3043 13.0364 24.3011C13.0564 24.242 13.0788 24.1828 13.0988 24.1268C13.1412 24.0116 13.1837 23.8995 13.2261 23.7843C13.2311 23.775 13.2336 23.7625 13.2386 23.7532C13.281 23.638 13.326 23.5228 13.3709 23.4107C13.3933 23.3515 13.4183 23.2924 13.4408 23.2332C13.4907 23.1118 13.5406 22.9904 13.5905 22.872C13.613 22.816 13.638 22.7631 13.6604 22.7101C13.6854 22.651 13.7103 22.5949 13.7353 22.5358C13.7603 22.4797 13.7852 22.4206 13.8127 22.3645C13.8152 22.3552 13.8202 22.349 13.8227 22.3396C13.8451 22.2898 13.8676 22.24 13.8901 22.1933C13.915 22.1373 13.9425 22.0781 13.9699 22.0221C13.9899 21.9785 14.0099 21.9349 14.0298 21.8944C14.0398 21.8695 14.0523 21.8477 14.0623 21.8259C14.0848 21.7823 14.1047 21.7356 14.1272 21.692C14.1546 21.6329 14.1846 21.5768 14.2121 21.5177C14.2395 21.4647 14.2645 21.4118 14.2919 21.3589C14.2944 21.3558 14.2944 21.3527 14.2969 21.3495C14.3219 21.2966 14.3493 21.2468 14.3743 21.197C14.4092 21.1285 14.4442 21.06 14.4816 20.9915C14.5041 20.951 14.5241 20.9105 14.5465 20.8669C14.6364 20.7019 14.7262 20.5369 14.8186 20.3719C14.8485 20.319 14.8785 20.266 14.9109 20.2131C14.9384 20.1664 14.9634 20.1228 14.9908 20.0761C14.9958 20.0699 15.0008 20.0605 15.0033 20.0543C15.0333 20.0045 15.0632 19.9516 15.0932 19.9018C15.1256 19.8457 15.1581 19.7897 15.193 19.7367C15.2205 19.6932 15.2479 19.6496 15.2754 19.6029C15.3128 19.5437 15.3503 19.4846 15.3877 19.4223C15.4201 19.3725 15.4501 19.3227 15.4825 19.2728C15.485 19.2697 15.4875 19.2635 15.49 19.2604C15.52 19.2137 15.5474 19.1701 15.5774 19.1234C15.5799 19.1203 15.5824 19.1172 15.5849 19.114C15.6148 19.0705 15.6423 19.0238 15.6722 18.9802C15.7022 18.9366 15.7322 18.8899 15.7596 18.8463C15.7771 18.8214 15.7921 18.7965 15.8095 18.7716C15.8095 18.7684 15.812 18.7653 15.8145 18.7653C15.8594 18.6999 15.9019 18.6346 15.9468 18.5723C15.9593 18.5536 15.9718 18.5349 15.9843 18.5194C16.0167 18.4727 16.0491 18.426 16.0816 18.3793C16.0841 18.3761 16.0841 18.3761 16.0841 18.373C16.114 18.3294 16.1465 18.2859 16.1789 18.2423C16.1914 18.2236 16.2039 18.2049 16.2189 18.1893C16.2438 18.1551 16.2713 18.1177 16.2963 18.0835C16.3337 18.0337 16.3711 17.9838 16.4086 17.934C16.431 17.906 16.451 17.8749 16.4735 17.8469C16.4934 17.8188 16.5159 17.7908 16.5384 17.7628C16.5558 17.741 16.5733 17.7192 16.5908 17.6943C16.6183 17.6569 16.6482 17.6196 16.6782 17.5822C16.6956 17.5604 16.7131 17.5386 16.7306 17.5137C16.768 17.467 16.8055 17.4203 16.8404 17.3736C16.8604 17.3487 16.8803 17.3207 16.9028 17.2958C16.9303 17.2615 16.9577 17.2273 16.9852 17.1961C16.9977 17.1806 17.0101 17.165 17.0201 17.1525C17.0476 17.1183 17.075 17.0872 17.1 17.0529C17.125 17.0218 17.1499 16.9938 17.1749 16.9626C17.2198 16.9097 17.2647 16.8568 17.3097 16.8038C17.3521 16.754 17.3945 16.7042 17.437 16.6544C17.4444 16.6482 17.4494 16.6388 17.4569 16.6326C17.4944 16.589 17.5318 16.5454 17.5692 16.5049C17.5867 16.4831 17.6067 16.4645 17.6242 16.4427C17.7065 16.3493 17.7914 16.259 17.8763 16.1687C17.8987 16.1438 17.9237 16.1189 17.9462 16.0939C17.9711 16.0659 17.9961 16.0379 18.0235 16.013C18.0485 15.985 18.0759 15.957 18.1009 15.9289C18.1983 15.8262 18.2956 15.7266 18.3954 15.63C18.4379 15.5896 18.4803 15.546 18.5202 15.5055C18.5327 15.493 18.5427 15.4837 18.5552 15.4712C18.6026 15.4245 18.6525 15.3778 18.7025 15.3311C18.7374 15.2969 18.7723 15.2626 18.8073 15.2315C18.8198 15.2191 18.8347 15.2066 18.8472 15.1941C18.8722 15.1692 18.8972 15.1474 18.9221 15.1225C18.9521 15.0945 18.982 15.0665 19.012 15.0385C19.022 15.0291 19.0319 15.0198 19.0444 15.0105C19.0893 14.9669 19.1368 14.9264 19.1817 14.8859C19.1892 14.8797 19.1942 14.8735 19.2017 14.8672C19.2516 14.8205 19.304 14.7769 19.3539 14.7302C19.4014 14.6898 19.4463 14.6493 19.4937 14.6088C19.5262 14.5808 19.5586 14.5528 19.5911 14.5247C19.606 14.5123 19.621 14.4998 19.636 14.4874C19.6709 14.4594 19.7034 14.4313 19.7383 14.4002C19.7833 14.3628 19.8307 14.3255 19.8756 14.2881C19.928 14.2445 19.9804 14.2041 20.0329 14.1605C20.0478 14.148 20.0628 14.1356 20.0778 14.1262C20.1127 14.0982 20.1502 14.0702 20.1876 14.039C20.2051 14.0266 20.2251 14.011 20.2425 13.9986C20.285 13.9643 20.3299 13.9301 20.3723 13.8989C20.3848 13.8896 20.3998 13.8803 20.4123 13.8678C20.4672 13.8273 20.5221 13.7868 20.577 13.7464C20.6319 13.7059 20.6893 13.6654 20.7442 13.6249C20.7492 13.6218 20.7567 13.6156 20.7617 13.6125C20.8091 13.5782 20.8566 13.544 20.9015 13.5129C20.9839 13.4537 21.0687 13.3977 21.1511 13.3416C21.1935 13.3136 21.2335 13.2856 21.2759 13.2576C21.3433 13.214 21.4107 13.1704 21.4781 13.1268C21.508 13.1081 21.5405 13.0863 21.5704 13.0676C21.5979 13.0489 21.6278 13.0303 21.6578 13.0116C21.7027 12.9836 21.7452 12.9555 21.7901 12.9275C21.8101 12.9151 21.83 12.9026 21.85 12.8902C21.8824 12.8715 21.9149 12.8497 21.9473 12.831C21.9773 12.8123 22.0072 12.7968 22.0372 12.7781C22.0871 12.7469 22.1395 12.7189 22.1895 12.6909C22.2319 12.666 22.2768 12.6411 22.3192 12.6162C22.3392 12.6037 22.3617 12.5913 22.3841 12.5788C22.4191 12.5601 22.4515 12.5414 22.4865 12.5228C22.494 12.5197 22.5015 12.5134 22.5089 12.5103C22.5314 12.4979 22.5539 12.4854 22.5763 12.4729C22.6163 12.4512 22.6587 12.4294 22.7011 12.4076C22.7111 12.4013 22.7186 12.3982 22.7286 12.392C22.7785 12.3671 22.8284 12.3391 22.8784 12.3142C23.0107 12.2457 23.1454 12.1772 23.2802 12.1149C23.3277 12.0931 23.3751 12.0713 23.42 12.0464C23.4924 12.0122 23.5648 11.9779 23.6397 11.9468C23.6921 11.9219 23.7445 11.9001 23.7994 11.8752C23.8543 11.8502 23.9117 11.8253 23.9666 11.8035C23.9891 11.7942 24.0116 11.7849 24.034 11.7755C24.0765 11.7568 24.1189 11.7413 24.1588 11.7226C24.1763 11.7164 24.1963 11.707 24.2138 11.7008C24.2637 11.6821 24.3136 11.6603 24.3635 11.6416C24.366 11.6416 24.3685 11.6385 24.3735 11.6385C24.4309 11.6167 24.4883 11.5918 24.5482 11.57C24.5532 11.5669 24.5607 11.5669 24.5657 11.5638C24.5981 11.5514 24.6331 11.5389 24.6655 11.5264C24.698 11.514 24.7329 11.5015 24.7654 11.4891C24.7978 11.4766 24.8328 11.4642 24.8677 11.4517C24.9027 11.4393 24.9351 11.4268 24.9701 11.4175C25.0375 11.3926 25.1048 11.3708 25.1747 11.349C25.1972 11.3427 25.2172 11.3334 25.2396 11.3272C25.2671 11.3178 25.2945 11.3085 25.322 11.2992C25.3744 11.2805 25.4293 11.2649 25.4818 11.2493C25.5142 11.24 25.5466 11.2307 25.5791 11.2213C25.7538 11.1684 25.926 11.1186 26.1033 11.0719C26.1382 11.0625 26.1732 11.0532 26.2081 11.0439C26.2505 11.0314 26.2955 11.0221 26.3379 11.0127C26.3629 11.0065 26.3903 11.0003 26.4153 10.994C26.5276 10.966 26.6399 10.9411 26.7522 10.9162C26.7772 10.91 26.8047 10.9037 26.8296 10.9006C26.882 10.8882 26.9345 10.8788 26.9869 10.8695C27.0193 10.8633 27.0543 10.857 27.0867 10.8508C27.1092 10.8477 27.1316 10.8415 27.1541 10.8384C27.1841 10.8321 27.2165 10.8259 27.2465 10.8228C27.3912 10.7948 27.5385 10.773 27.6858 10.7481C28.4221 10.636 29.1734 10.5799 29.9347 10.5799C30.686 10.5799 31.4299 10.636 32.1587 10.745C32.266 10.7605 32.3734 10.7792 32.4807 10.7979C32.5156 10.8041 32.5506 10.8103 32.588 10.8166C32.6205 10.8228 32.6529 10.829 32.6879 10.8352C32.7228 10.8415 32.7578 10.8477 32.7927 10.8539C32.8177 10.857 32.8426 10.8633 32.8701 10.8695C32.925 10.8788 32.9799 10.8913 33.0323 10.9037C33.0623 10.91 33.0897 10.9162 33.1197 10.9224C33.1546 10.9287 33.1896 10.938 33.2245 10.9442C33.2894 10.9598 33.3518 10.9722 33.4167 10.9878C33.4517 10.9971 33.4866 11.0034 33.5191 11.0127C33.6688 11.0501 33.8186 11.0874 33.9658 11.131C34.1356 11.1777 34.3028 11.2275 34.4701 11.2805C34.505 11.2898 34.5374 11.3023 34.5724 11.3147C34.6073 11.3241 34.6398 11.3365 34.6747 11.349C34.7147 11.3614 34.7521 11.3739 34.7895 11.3863C34.8195 11.3957 34.8495 11.4081 34.8769 11.4175C35.0117 11.4642 35.1465 11.514 35.2813 11.5638C35.3112 11.5763 35.3437 11.5887 35.3761 11.5981C35.3986 11.6074 35.4211 11.6167 35.4435 11.623C35.4735 11.6354 35.5059 11.6479 35.5384 11.6603C35.6781 11.7164 35.8179 11.7724 35.9552 11.8316C35.9802 11.8409 36.0051 11.8534 36.0301 11.8627C36.0476 11.8689 36.065 11.8783 36.0825 11.8876C36.115 11.9032 36.1474 11.9156 36.1823 11.9312C36.2023 11.9405 36.2223 11.9499 36.2423 11.9592C36.2672 11.9717 36.2947 11.9841 36.3196 11.9935C36.3521 12.009 36.3845 12.0246 36.417 12.0371C36.4369 12.0464 36.4569 12.0557 36.4744 12.0651C36.5043 12.0806 36.5368 12.0931 36.5667 12.1087C36.7639 12.2021 36.9586 12.3017 37.1508 12.4045C37.1733 12.4169 37.1957 12.4294 37.2182 12.4418C37.2606 12.4636 37.3006 12.4854 37.343 12.5103C37.3705 12.5259 37.3979 12.5414 37.4229 12.5539C37.4603 12.5726 37.4953 12.5944 37.5327 12.6162C37.5627 12.6317 37.5926 12.6504 37.6226 12.6691C37.655 12.6878 37.6875 12.7065 37.7199 12.7251C37.7499 12.7438 37.7798 12.7594 37.8123 12.7781C37.8447 12.7968 37.8772 12.8154 37.9096 12.8341C37.9396 12.8528 37.972 12.8715 38.002 12.8902C38.0644 12.9275 38.1268 12.9649 38.1892 13.0054C38.284 13.0645 38.3789 13.1268 38.4737 13.1859C38.5062 13.2077 38.5361 13.2264 38.5686 13.2482C38.626 13.2856 38.6834 13.3229 38.7408 13.3634C38.8007 13.4039 38.8631 13.4475 38.923 13.488C38.9779 13.5253 39.0303 13.5627 39.0853 13.6C39.0977 13.6094 39.1102 13.6187 39.1227 13.6281C39.2949 13.7526 39.4647 13.8771 39.6344 14.0079C39.6369 14.0079 39.6369 14.011 39.6394 14.011C39.7542 14.1013 39.869 14.1916 39.9838 14.285C39.9838 14.285 39.9863 14.2881 39.9888 14.2881C40.0388 14.3286 40.0887 14.3691 40.1386 14.4095C40.1511 14.4189 40.1611 14.4282 40.1735 14.4376C40.226 14.4812 40.2784 14.5247 40.3283 14.5683C40.3857 14.615 40.4406 14.6649 40.498 14.7147C40.548 14.7583 40.5954 14.8018 40.6453 14.8423C40.6603 14.8548 40.6777 14.8703 40.6927 14.8859C40.7252 14.917 40.7601 14.9451 40.7926 14.9762C40.8125 14.9949 40.83 15.0105 40.85 15.0291C40.8999 15.0758 40.9473 15.1194 40.9972 15.1661C41.0447 15.2097 41.0896 15.2533 41.1345 15.2969C41.1495 15.3093 41.162 15.3249 41.177 15.3374C41.3292 15.4837 41.479 15.63 41.6287 15.7826C41.6387 15.7951 41.6512 15.8044 41.6612 15.8168C41.7086 15.8667 41.756 15.9134 41.801 15.9632C41.9058 16.0722 42.0081 16.1811 42.1105 16.2932C42.113 16.2963 42.113 16.2963 42.1155 16.2994C42.1654 16.3555 42.2153 16.4115 42.2677 16.4676C42.3177 16.5236 42.3701 16.5828 42.42 16.6388C42.4674 16.6949 42.5173 16.7478 42.5648 16.8038C42.5698 16.8101 42.5747 16.8132 42.5797 16.8194C42.6222 16.8692 42.6646 16.919 42.7095 16.972C42.717 16.9782 42.722 16.9875 42.7295 16.9969C42.7769 17.0529 42.8244 17.109 42.8693 17.1681C42.9192 17.2273 42.9666 17.2864 43.0141 17.3487C43.0615 17.4078 43.1114 17.4701 43.1588 17.5293C43.2063 17.5915 43.2537 17.6507 43.3011 17.713C43.3485 17.7752 43.396 17.8375 43.4434 17.8998C43.4883 17.9589 43.5332 18.0181 43.5757 18.0804C43.5782 18.0835 43.5807 18.0897 43.5857 18.0928C43.6281 18.152 43.6705 18.2111 43.7129 18.2672C43.7379 18.3014 43.7629 18.3388 43.7878 18.373C43.8103 18.4042 43.8328 18.4353 43.8527 18.4664C43.8552 18.4696 43.8577 18.4727 43.8602 18.4758C43.9251 18.5692 43.99 18.6657 44.0549 18.7591C44.0998 18.8245 44.1423 18.8899 44.1872 18.9553C44.2072 18.9864 44.2271 19.0144 44.2471 19.0455C44.2521 19.0518 44.2571 19.058 44.2596 19.0642C44.297 19.1203 44.3345 19.1794 44.3694 19.2355C44.3944 19.2728 44.4193 19.3133 44.4443 19.3538C44.4867 19.4223 44.5292 19.4877 44.5716 19.5562C44.6565 19.69 44.7388 19.827 44.8187 19.9671C44.8586 20.0325 44.8961 20.0979 44.9335 20.1633C44.936 20.1695 44.941 20.1757 44.9435 20.1789C44.9635 20.21 44.9809 20.2442 45.0009 20.2785C45.0384 20.3408 45.0733 20.4061 45.1082 20.4684C45.1707 20.5805 45.2331 20.6926 45.2955 20.8078C45.3154 20.842 45.3329 20.8794 45.3529 20.9136C45.4103 21.0195 45.4652 21.1285 45.5226 21.2375C45.5426 21.2748 45.56 21.3122 45.58 21.3495C45.6249 21.4367 45.6674 21.5239 45.7098 21.6142C45.7323 21.6578 45.7522 21.7014 45.7747 21.7481C45.8346 21.8726 45.8945 21.9971 45.9519 22.1217C45.9694 22.1559 45.9844 22.1933 46.0018 22.2275C46.0268 22.2836 46.0518 22.3365 46.0767 22.3926C46.0967 22.4361 46.1167 22.4797 46.1341 22.5233C46.1591 22.5763 46.1816 22.6292 46.204 22.6821C46.2065 22.6852 46.2065 22.6883 46.209 22.6915C46.2315 22.7413 46.2514 22.7911 46.2739 22.8409C46.3538 23.0277 46.4287 23.2145 46.5035 23.4013C46.521 23.4449 46.5385 23.4916 46.556 23.5352C46.561 23.5477 46.5634 23.557 46.5684 23.5695C46.5909 23.6255 46.6109 23.6784 46.6308 23.7314C46.6533 23.7905 46.6758 23.8497 46.6982 23.9088C46.7132 23.9462 46.7282 23.9867 46.7407 24.024C46.7457 24.0396 46.7507 24.0521 46.7581 24.0676C46.7681 24.0956 46.7781 24.1237 46.7881 24.1517C46.8006 24.1891 46.8156 24.2264 46.828 24.2638C46.8505 24.3229 46.8705 24.3821 46.8904 24.4412C46.9104 24.5004 46.9304 24.5596 46.9503 24.6156C46.9728 24.681 46.9953 24.7464 47.0177 24.8149C47.0352 24.8709 47.0552 24.927 47.0726 24.983C47.0901 25.0359 47.1076 25.0889 47.1226 25.1418C47.1251 25.1542 47.1301 25.1636 47.1325 25.176C47.15 25.2321 47.17 25.2912 47.1875 25.3473C47.2024 25.4002 47.2199 25.4531 47.2349 25.5061C47.2399 25.5216 47.2449 25.5372 47.2499 25.5528C47.2648 25.6057 47.2823 25.6617 47.2973 25.7147C47.3148 25.7769 47.3322 25.8392 47.3497 25.8984C47.3822 26.0136 47.4146 26.1256 47.4446 26.2408C47.4645 26.3125 47.482 26.3841 47.502 26.4588C47.5145 26.5117 47.5294 26.5647 47.5419 26.6145C47.5444 26.6238 47.5469 26.6363 47.5494 26.6456C47.5793 26.7608 47.6068 26.8729 47.6343 26.9881C47.6392 27.0037 47.6417 27.0223 47.6467 27.0379L47.6792 27.178C47.6992 27.2621 47.7166 27.343 47.7366 27.4271C47.7491 27.4831 47.7616 27.5392 47.774 27.5952C47.789 27.6606 47.8015 27.7229 47.814 27.7883C47.8265 27.8536 47.8414 27.9159 47.8539 27.9813C47.8639 28.0342 47.8739 28.084 47.8839 28.1339C47.8988 28.2117 47.9138 28.2895 47.9288 28.3674C47.9388 28.4172 47.9488 28.4701 47.9562 28.5199C47.9587 28.5324 47.9612 28.548 47.9637 28.5604C47.9737 28.6164 47.9837 28.6756 47.9937 28.7316C48.0087 28.8157 48.0211 28.8967 48.0361 28.9807C48.0461 29.0368 48.0536 29.0928 48.0636 29.1489C48.0761 29.2205 48.086 29.289 48.096 29.3606C48.106 29.4228 48.1135 29.482 48.1235 29.5443C48.1335 29.6097 48.141 29.675 48.1509 29.7404C48.1509 29.7435 48.1509 29.7466 48.1509 29.7466C48.1609 29.812 48.1684 29.8774 48.1759 29.9397C48.1759 29.9459 48.1784 29.9521 48.1784 29.9553C48.1859 30.0175 48.1934 30.0767 48.2009 30.139C48.2084 30.2043 48.2158 30.2728 48.2233 30.3382C48.2333 30.4161 48.2408 30.4939 48.2483 30.5717C48.2533 30.6153 48.2583 30.662 48.2633 30.7056C48.2732 30.7959 48.2807 30.8831 48.2882 30.9734C48.2932 31.0294 48.2982 31.0886 48.3032 31.1446C48.3032 31.1477 48.3032 31.1508 48.3032 31.1571C48.3082 31.2162 48.3132 31.2723 48.3182 31.3314C48.3182 31.3439 48.3207 31.3563 48.3207 31.3719C48.3232 31.4093 48.3257 31.4497 48.3282 31.4871C48.3307 31.512 48.3307 31.5369 48.3332 31.5618C48.3356 31.6085 48.3381 31.6521 48.3431 31.6957C48.3456 31.7299 48.3481 31.7611 48.3481 31.7922C48.3506 31.8483 48.3556 31.9012 48.3581 31.9572C48.3606 32.0071 48.3631 32.0569 48.3656 32.1098C48.3681 32.144 48.3681 32.1752 48.3706 32.2094C48.3756 32.3091 48.3806 32.4087 48.3831 32.5114C48.3831 32.5177 48.3831 32.5208 48.3831 32.5239C48.3856 32.5519 48.3856 32.5799 48.3856 32.608C48.3881 32.6484 48.3881 32.6889 48.3906 32.7325C48.3906 32.7667 48.3931 32.801 48.3931 32.8352C48.3931 32.8757 48.3956 32.9162 48.3956 32.9536C48.3956 32.9847 48.3956 33.0158 48.3981 33.0438C48.3981 33.0968 48.4005 33.1528 48.4005 33.2057C48.4005 33.2711 48.403 33.3334 48.403 33.3988V33.4019C48.4155 33.4611 48.4155 33.5296 48.4155 33.5981Z" stroke="black"/>
</g>
<path d="M13.1431 39.3218C13.1431 39.3218 13.4727 34.8966 15.3403 29.2046C17.2079 23.5126 20.9497 19.4307 20.9497 19.4307C20.9497 19.4307 18.4466 24.7497 17.5464 30.7842C16.6462 36.8186 18.8918 41.4428 18.8918 41.4428L13.1431 39.3218Z" fill="#CAC9C9"/>
<path d="M14.1971 38.3015C14.1971 38.3015 14.5266 33.8763 16.3942 28.1843C18.2619 22.4923 22.0036 18.4105 22.0036 18.4105C22.0036 18.4105 19.5005 23.7294 18.6004 29.7639C17.7002 35.7984 19.9457 40.4225 19.9457 40.4225L14.1971 38.3015Z" fill="#9B9B9B"/>
<path d="M46.557 38.5448C46.557 38.5448 46.9745 33.6078 45.8174 27.1075C44.6603 20.6073 42.2749 22.0866 42.2749 22.0866C42.2749 22.0866 41.0518 19.8074 41.0115 26.5867C40.9712 33.366 39.4262 40.298 39.4262 40.298L46.557 38.5448Z" fill="#CAC9C9"/>
<path d="M44.4058 38.6887C44.4058 38.6887 44.8233 33.7517 43.6661 27.2514C42.509 20.7511 40.1237 22.2305 40.1237 22.2305C40.1237 22.2305 38.9006 19.9513 38.8603 26.7306C38.8199 33.5098 37.275 40.4419 37.275 40.4419L44.4058 38.6887Z" fill="#9B9B9B"/>
<path d="M43.2748 49.4056C43.2748 49.4056 45.9074 45.9791 46.9873 40.0867C48.0671 34.1942 46.7749 27.0867 46.7749 27.0867C46.7749 27.0867 46.6439 34.9551 44.5506 40.686C42.4573 46.4169 38.2748 49.4056 38.2748 49.4056H43.2748Z" fill="#CAC9C9"/>
<path fill-rule="evenodd" clip-rule="evenodd" d="M36.2506 11.4785C35.0902 10.5235 32.7192 9.76264 29.9427 9.56801C27.1661 9.37339 24.7122 9.79601 23.4299 10.5798C24.4124 8.90511 27.045 7.82586 30.05 8.0365C33.055 8.24714 35.5114 9.68311 36.2506 11.4785Z" fill="#CAC9C9"/>
<g filter="url(#filter1_d_1241_7831)">
<path d="M45.2147 35.914C45.6888 39.4941 45.1433 43.8777 43.3431 45.8539C39.9819 49.5436 35.6459 51.1236 30.4131 51.1234C26.0646 51.1234 19.6174 49.5468 17.0979 45.8539C15.2568 43.1552 14.0438 39.8202 14.6872 35.914C15.3305 32.0078 16.9232 32.4644 17.5139 30.6876C18.1045 28.9109 19.4424 25.0305 21.0018 22.187C22.5611 19.3435 26.2453 17.8921 30.4131 17.8919C34.5809 17.8917 36.4412 19.9284 38.7118 22.187C40.9497 24.4131 42.3576 28.9715 42.8659 30.6173L42.8876 30.6876C43.3766 32.2698 44.7406 32.3339 45.2147 35.914Z" fill="white"/>
<path d="M45.2147 35.914C45.6888 39.4941 45.1433 43.8777 43.3431 45.8539C39.9819 49.5436 35.6459 51.1236 30.4131 51.1234C26.0646 51.1234 19.6174 49.5468 17.0979 45.8539C15.2568 43.1552 14.0438 39.8202 14.6872 35.914C15.3305 32.0078 16.9232 32.4644 17.5139 30.6876C18.1045 28.9109 19.4424 25.0305 21.0018 22.187C22.5611 19.3435 26.2453 17.8921 30.4131 17.8919C34.5809 17.8917 36.4412 19.9284 38.7118 22.187C40.9497 24.4131 42.3576 28.9715 42.8659 30.6173L42.8876 30.6876C43.3766 32.2698 44.7406 32.3339 45.2147 35.914Z" stroke="black"/>
</g>
<path fill-rule="evenodd" clip-rule="evenodd" d="M28.3399 31.2336C27.863 31.0234 27.0622 30.3105 26.2408 29.9485C25.4513 29.6006 24.1227 30.0947 23.0814 30.2667L22.8542 30.6148C24.4175 30.7472 24.6738 30.5803 25.4359 30.662C26.3224 30.7569 27.7566 31.4115 28.1794 31.5978L28.3399 31.2336Z" fill="#CAC9C9"/>
<path fill-rule="evenodd" clip-rule="evenodd" d="M32.6057 31.2336C33.0826 31.0234 33.8834 30.3105 34.7048 29.9485C35.4942 29.6006 36.8229 30.0947 37.8641 30.2667L38.0914 30.6148C36.5281 30.7472 36.2718 30.5803 35.5096 30.662C34.6232 30.7569 33.189 31.4115 32.7662 31.5978L32.6057 31.2336Z" fill="#CAC9C9"/>
<path d="M30.5639 38.6441C30.3545 38.5426 31.1689 37.2923 31.9557 37.6529C32.52 37.9115 31.333 37.9187 30.5639 38.6441Z" fill="black"/>
<path d="M30.175 38.6441C30.3875 38.5426 29.5613 37.2923 28.7631 37.6529C28.1906 37.9115 29.3948 37.9187 30.175 38.6441Z" fill="black"/>
<path fill-rule="evenodd" clip-rule="evenodd" d="M26.4672 41.0454C25.9998 41.3524 27.5832 42.1026 28.0558 42.198C28.2085 42.2289 28.4373 42.2686 28.6553 42.2591C29.2078 42.2352 29.6616 41.9814 30.1564 41.8423C30.2197 41.8245 30.2582 41.8167 30.2765 41.8134C30.2952 41.8169 30.3357 41.8252 30.4036 41.8444C30.5221 41.8779 30.6569 41.9245 30.8265 41.9832C30.9838 42.0376 31.1749 42.1037 31.3604 42.1548C31.5343 42.2028 31.7801 42.2601 32.0409 42.2601C32.251 42.2601 32.4586 42.2222 32.6166 42.1866C33.1281 42.0711 34.5591 41.5067 34.1679 41.0952C33.8077 40.7164 32.6465 41.2997 32.1653 41.4083C32.0906 41.4252 32.0495 41.4305 32.0358 41.4322C32.0225 41.4302 31.9758 41.423 31.8848 41.398C31.3579 41.2528 30.864 40.9839 30.2717 40.9839C29.6321 40.9839 29.145 41.3013 28.5658 41.4305C28.5457 41.4277 28.5089 41.4221 28.4523 41.4107C28.3406 41.3881 28.2021 41.3533 28.0558 41.3108C27.5766 41.1717 26.9856 40.8349 26.4672 41.0454Z" fill="black"/>
<path fill-rule="evenodd" clip-rule="evenodd" d="M32.997 42.6826C33.2139 42.8953 33.1321 43.1853 32.8142 43.3304C32.0102 43.6975 31.0353 43.8159 30.1634 43.7925C29.298 43.7694 28.4388 43.6041 27.8417 43.3296C27.5246 43.1838 27.4406 42.8947 27.6585 42.6825C27.8381 42.5075 28.1945 43.1273 30.1634 43.1799C32.1323 43.2325 32.8529 42.5413 32.997 42.6826Z" fill="black"/>
<circle cx="24.4295" cy="33.0544" r="1.26487" fill="black"/>
<circle cx="36.1172" cy="33.0546" r="1.26487" fill="black"/>
<circle cx="25.3837" cy="32.4266" r="0.563286" fill="white"/>
<circle cx="37.0301" cy="32.4264" r="0.563286" fill="white"/>
<path fill-rule="evenodd" clip-rule="evenodd" d="M38.6632 33.251C36.9236 31.5114 34.4888 32.1169 33.596 33.222C33.468 33.3804 33.2276 33.3743 33.1474 33.3099C33.0788 33.2548 33.1485 32.9718 33.2765 32.8134C34.4216 31.396 37.1099 30.6546 39.1847 32.7295C39.3288 32.8735 39.3288 33.107 39.1847 33.251C39.0407 33.395 38.8072 33.395 38.6632 33.251Z" fill="black"/>
<path fill-rule="evenodd" clip-rule="evenodd" d="M21.7543 33.2509C23.4939 31.5113 25.9287 32.1168 26.8215 33.2219C26.9495 33.3803 27.1899 33.3742 27.2701 33.3098C27.3387 33.2547 27.269 32.9717 27.141 32.8133C25.9959 31.3958 23.3076 30.6545 21.2327 32.7293C21.0887 32.8734 21.0887 33.1069 21.2327 33.2509C21.3768 33.3949 21.6103 33.3949 21.7543 33.2509Z" fill="black"/>
<path d="M17.8544 22.969C14.8544 27.3023 10.6544 38.369 15.8544 43.969C22.3544 50.969 39.8544 47.969 42.8544 45.969C45.8544 43.969 48.8544 33.969 43.8544 22.969" stroke="black"/>
<g style="mix-blend-mode:multiply">
<path d="M30.7104 51.4687C45.509 51.9171 47.5479 34.4687 44.8544 35.9687C44.4961 36.7555 44.7504 40.6338 38.7105 42.0325C36.0587 42.6466 36.6615 38.7203 30.3428 38.7203C25.4875 38.7203 23.8261 42.0325 22.9724 42.0325C16.928 42.0325 16.232 39.0692 14.6983 36.4281C13.6983 42.2615 14.2105 50.9687 30.7104 51.4687Z" fill="#CAC9C9"/>
</g>
<path d="M24.0644 42.7097C22.806 41.932 27.4906 39.469 30.3551 39.469C35.5356 39.469 37.2799 42.5315 36.7691 42.7097C36.2583 42.888 35.9468 42.6179 35.4123 42.5315C35.659 42.7908 35.6097 42.969 35.4123 42.969C35.2149 42.969 34.8327 42.5315 34.3432 42.3866C34.8327 42.5315 34.6392 42.969 34.3432 42.969C33.9732 42.969 33.5788 42.3866 33.3643 42.5315C33.1497 42.6764 33.7343 42.969 33.3643 42.969C33.0682 42.969 31.753 41.6727 31.3419 41.1542C31.3419 41.1542 31.6941 41.8023 31.5042 41.932C31.3143 42.0616 30.5524 41.3616 30.3551 41.1542C30.2564 41.569 29.3554 42.0616 29.2689 41.932C29.1825 41.8023 29.467 41.206 29.3683 41.4134C29.2696 41.6208 28.2896 42.3866 28.1349 42.3866C27.7518 42.3866 28.0287 42.0447 28.1199 41.9457C27.9557 42.0844 26.9182 42.7097 26.5808 42.7097C26.4416 42.7097 26.8077 42.3241 26.5117 42.5315C26.1416 42.7908 25.4508 42.8977 25.2691 42.7097C25.0184 42.4505 25.5035 42.4505 25.7913 42.1912C25.6268 42.2776 24.2854 42.8463 24.0644 42.7097Z" fill="black"/>
<path d="M20.8542 43.9689V44.0689" stroke="black" stroke-width="0.4" stroke-linecap="round"/>
<path d="M15.8542 39.9689V40.0689" stroke="black" stroke-width="0.4" stroke-linecap="round"/>
<path d="M17.8542 42.9689V43.0689" stroke="black" stroke-width="0.4" stroke-linecap="round"/>
<path d="M23.8542 44.9689V45.0689" stroke="black" stroke-width="0.4" stroke-linecap="round"/>
<path d="M28.8542 45.9689V46.0689" stroke="black" stroke-width="0.4" stroke-linecap="round"/>
<path d="M41.6447 43.8688V43.9688" stroke="black" stroke-width="0.4" stroke-linecap="round"/>
<path d="M29.4114 47.1367V47.2367" stroke="black" stroke-width="0.4" stroke-linecap="round"/>
<path d="M27.0067 46.9866V47.0866" stroke="black" stroke-width="0.4" stroke-linecap="round"/>
<path d="M34.2347 44.6442V44.7442" stroke="black" stroke-width="0.4" stroke-linecap="round"/>
<path d="M39.6775 45.069V45.169" stroke="black" stroke-width="0.4" stroke-linecap="round"/>
<path d="M43.6227 41.3688V41.4688" stroke="black" stroke-width="0.4" stroke-linecap="round"/>
<path d="M44.2686 39.8689V39.9689" stroke="black" stroke-width="0.4" stroke-linecap="round"/>
<path d="M40.887 42.5514V42.6514" stroke="black" stroke-width="0.4" stroke-linecap="round"/>
<path d="M43.0179 43.7453V43.8453" stroke="black" stroke-width="0.4" stroke-linecap="round"/>
<path d="M38.756 43.4286V43.5286" stroke="black" stroke-width="0.4" stroke-linecap="round"/>
<path d="M38.2377 46.069V46.169" stroke="black" stroke-width="0.4" stroke-linecap="round"/>
<path d="M30.8308 45.019V45.119" stroke="black" stroke-width="0.4" stroke-linecap="round"/>
<path d="M27.5371 44.5441V44.6441" stroke="black" stroke-width="0.4" stroke-linecap="round"/>
<path d="M22.6871 43.3285V43.4285" stroke="black" stroke-width="0.4" stroke-linecap="round"/>
<path d="M22.0248 45.8688V45.9688" stroke="black" stroke-width="0.4" stroke-linecap="round"/>
<path d="M19.2314 44.3424V44.4424" stroke="black" stroke-width="0.4" stroke-linecap="round"/>
<path d="M18.8282 42.2607V42.3607" stroke="black" stroke-width="0.4" stroke-linecap="round"/>
<path d="M16.4668 42.2607V42.3607" stroke="black" stroke-width="0.4" stroke-linecap="round"/>
<path d="M25.4803 43.9189V44.0189" stroke="black" stroke-width="0.4" stroke-linecap="round"/>
<path d="M31.3167 47.0866V47.1866" stroke="black" stroke-width="0.4" stroke-linecap="round"/>
<path d="M35.4347 46.6176V46.7176" stroke="black" stroke-width="0.4" stroke-linecap="round"/>
<path d="M25.947 45.5291V45.6291" stroke="black" stroke-width="0.4" stroke-linecap="round"/>
<path d="M24.1268 46.6677V46.7677" stroke="black" stroke-width="0.4" stroke-linecap="round"/>
<path d="M32.8542 45.9689V46.0689" stroke="black" stroke-width="0.4" stroke-linecap="round"/>
<path d="M35.8542 44.9689V45.0689" stroke="black" stroke-width="0.4" stroke-linecap="round"/>
<path d="M37.03 44.019V44.119" stroke="black" stroke-width="0.4" stroke-linecap="round"/>
<g filter="url(#filter2_d_1241_7831)">
<path d="M7.60414 22.1474C7.53253 20.0701 13.6031 18.2973 16.6474 17.6706C20.587 17.6706 29.9704 17.581 35.9873 17.2229C43.5084 16.7752 51.119 18.3868 51.3876 20.3567C51.6562 22.3265 45.9672 26.209 31.9099 27.0148C17.8526 27.8206 7.69366 24.744 7.60414 22.1474Z" fill="black" stroke="black" stroke-width="1.07976"/>
<path d="M19.9458 9.61693L16.2863 20.7429C16.2699 20.7925 16.2949 20.8465 16.3432 20.8664C26.7535 25.1587 38.4895 22.2952 43.1933 20.2144C43.2417 20.193 43.2628 20.1408 43.244 20.0913C42.1694 17.2692 39.6753 11.2071 37.9676 8.68755C37.9404 8.64745 37.9004 8.62047 37.8534 8.60868C30.8998 6.86506 23.1697 8.44952 20.0683 9.49144C20.0089 9.51139 19.9654 9.55742 19.9458 9.61693Z" fill="black" stroke="black" stroke-width="1.07976"/>
<path d="M16.1984 20.6036L16.7812 18.6888C17.2997 18.6888 22.5793 20.2626 29.3196 20.2626C34.7119 20.2626 41.1354 18.5486 42.7402 17.6055L43.7116 19.5959C41.8351 20.4081 34.9998 22.8236 29.6183 22.8236C24.3164 22.8236 18.692 21.5992 16.1984 20.6036Z" fill="#CAC9C9"/>
<path d="M26.835 10.6234C24.8799 10.6234 20.1898 10.695 20.4238 10.0559C24.9115 8.05928 37.4354 8.3665 37.5893 9.23707C37.7818 10.3253 29.043 10.6234 26.835 10.6234Z" fill="white"/>
<path d="M7.79785 21.8332L8.32414 23.7804C8.3517 23.8824 8.4538 23.9454 8.55729 23.9242L10.7695 23.4717C10.8509 23.4551 10.934 23.4904 10.9785 23.5606L12.3095 25.6595C12.362 25.7422 12.4666 25.7748 12.5567 25.7364L14.9677 24.7105C15.0489 24.6759 15.1432 24.6987 15.1997 24.7665L16.73 26.6029C16.789 26.6736 16.8887 26.695 16.9715 26.6545L19.2985 25.5168C19.3716 25.4811 19.4591 25.4932 19.5197 25.5475L21.5136 27.3314C21.57 27.3819 21.6501 27.3962 21.7206 27.3683L24.2741 26.3576C24.3327 26.3344 24.3988 26.3402 24.4525 26.3732L26.5048 27.6361C26.5698 27.6761 26.6519 27.6757 26.7164 27.6349L28.6956 26.3849C28.7581 26.3454 28.8374 26.3437 28.9016 26.3804L31.1144 27.6448C31.1759 27.6799 31.2513 27.6799 31.3128 27.6448L33.5493 26.3668C33.6005 26.3376 33.6619 26.3324 33.7172 26.3526L36.5018 27.37C36.5749 27.3967 36.6568 27.3786 36.7119 27.3236L38.4952 25.5402C38.5462 25.4892 38.6207 25.4697 38.6902 25.489L41.5441 26.2817C41.6278 26.3049 41.7169 26.2715 41.7646 26.199L43.159 24.0816C43.2062 24.01 43.2937 23.9764 43.3766 23.998L45.7352 24.6133C45.8231 24.6363 45.9154 24.5971 45.96 24.5179L46.8438 22.9466C46.8886 22.8669 46.9817 22.8278 47.0699 22.8515L48.9556 23.3574C49.1017 23.3966 49.2377 23.2656 49.2087 23.1172C49.0745 22.4304 48.9651 21.4697 49.2788 21.4305C49.647 21.3844 51.1198 21.0278 51.8102 20.8552" stroke="white" stroke-width="0.5" stroke-linecap="round" stroke-linejoin="round"/>
<circle cx="19.5015" cy="25.5483" r="1.05078" fill="#EBEBEB"/>
<circle cx="16.8235" cy="26.6184" r="1.06958" fill="#EBEBEB"/>
<circle cx="15.174" cy="24.7239" r="1.02441" fill="#EBEBEB"/>
<circle cx="12.4929" cy="25.6305" r="1.13293" fill="#EBEBEB"/>
<circle cx="10.8873" cy="23.4729" r="1.00024" fill="#EBEBEB"/>
<circle cx="8.60376" cy="23.7236" r="1.00024" fill="#EBEBEB"/>
<circle cx="7.80188" cy="21.6708" r="0.80188" fill="#EBEBEB"/>
<circle cx="24.2998" cy="26.2351" r="1.0979" fill="#EBEBEB"/>
<circle cx="21.4263" cy="27.333" r="0.998779" fill="#EBEBEB"/>
<circle cx="26.5455" cy="27.6881" r="1.07288" fill="#EBEBEB"/>
<circle cx="28.9607" cy="26.2101" r="1.07288" fill="#EBEBEB"/>
<circle cx="31.4888" cy="27.5624" r="1.07288" fill="#EBEBEB"/>
<circle cx="33.8683" cy="26.2601" r="1.07288" fill="#EBEBEB"/>
<circle cx="36.931" cy="27.1954" r="1.07288" fill="#EBEBEB"/>
<circle cx="38.9808" cy="25.309" r="0.976929" fill="#EBEBEB"/>
<circle cx="41.6522" cy="26.0558" r="1.08972" fill="#EBEBEB"/>
<circle cx="43.4869" cy="24.1113" r="1.01611" fill="#EBEBEB"/>
<circle cx="45.974" cy="24.7925" r="0.943359" fill="#EBEBEB"/>
<circle cx="47.0277" cy="22.6761" r="0.901733" fill="#EBEBEB"/>
<circle cx="49.2584" cy="23.3783" r="0.7948" fill="#EBEBEB"/>
<circle cx="49.567" cy="21.3405" r="0.80603" fill="#EBEBEB"/>
<circle cx="51.8374" cy="20.9033" r="0.871094" fill="#EBEBEB"/>
</g>
<defs>
<filter id="filter0_d_1241_7831" x="9.97388" y="10.0799" width="38.9417" height="42.4827" filterUnits="userSpaceOnUse" color-interpolation-filters="sRGB">
<feFlood flood-opacity="0" result="BackgroundImageFix"/>
<feColorMatrix in="SourceAlpha" type="matrix" values="0 0 0 0 0 0 0 0 0 0 0 0 0 0 0 0 0 0 127 0" result="hardAlpha"/>
<feOffset dx="-1" dy="1"/>
<feComposite in2="hardAlpha" operator="out"/>
<feColorMatrix type="matrix" values="0 0 0 0 0 0 0 0 0 0 0 0 0 0 0 0 0 0 0.25 0"/>
<feBlend mode="normal" in2="BackgroundImageFix" result="effect1_dropShadow_1241_7831"/>
<feBlend mode="normal" in="SourceGraphic" in2="effect1_dropShadow_1241_7831" result="shape"/>
</filter>
<filter id="filter1_d_1241_7831" x="13.0128" y="17.3919" width="32.8644" height="35.2315" filterUnits="userSpaceOnUse" color-interpolation-filters="sRGB">
<feFlood flood-opacity="0" result="BackgroundImageFix"/>
<feColorMatrix in="SourceAlpha" type="matrix" values="0 0 0 0 0 0 0 0 0 0 0 0 0 0 0 0 0 0 127 0" result="hardAlpha"/>
<feOffset dx="-1" dy="1"/>
<feComposite in2="hardAlpha" operator="out"/>
<feColorMatrix type="matrix" values="0 0 0 0 0 0 0 0 0 0 0 0 0 0 0 0 0 0 0.25 0"/>
<feBlend mode="normal" in2="BackgroundImageFix" result="effect1_dropShadow_1241_7831"/>
<feBlend mode="normal" in="SourceGraphic" in2="effect1_dropShadow_1241_7831" result="shape"/>
</filter>
<filter id="filter2_d_1241_7831" x="7" y="7.29045" width="45.7085" height="22.5503" filterUnits="userSpaceOnUse" color-interpolation-filters="sRGB">
<feFlood flood-opacity="0" result="BackgroundImageFix"/>
<feColorMatrix in="SourceAlpha" type="matrix" values="0 0 0 0 0 0 0 0 0 0 0 0 0 0 0 0 0 0 127 0" result="hardAlpha"/>
<feOffset dy="1.07976"/>
<feComposite in2="hardAlpha" operator="out"/>
<feColorMatrix type="matrix" values="0 0 0 0 0 0 0 0 0 0 0 0 0 0 0 0 0 0 0.18 0"/>
<feBlend mode="normal" in2="BackgroundImageFix" result="effect1_dropShadow_1241_7831"/>
<feBlend mode="normal" in="SourceGraphic" in2="effect1_dropShadow_1241_7831" result="shape"/>
</filter>
</defs>
</svg>
