<svg width="61" height="61" viewBox="0 0 61 61" fill="none" xmlns="http://www.w3.org/2000/svg">
<circle cx="30.043" cy="30.9073" r="29.0001" fill="white" stroke="white" stroke-width="2"/>
<path d="M40.1948 27.2645C35.3517 26.7964 34.8597 24.9066 32.684 23.7564C30.5083 22.6062 27.8836 25.2072 25.3078 28.9684C24.7243 29.8204 19.0755 33.587 16.7438 33.7215C14.4121 33.856 12.5274 34.1874 11.901 36.9051C11.2747 39.6229 14.5073 40.14 13.5945 41.76C12.6817 43.3799 10.7671 41.22 11.1836 42.9137C11.45 43.9971 13.2046 43.9451 14.8637 42.9137C16.5228 41.8824 15.2163 39.8537 14.9503 39.274C14.7412 38.8182 14.3045 37.508 14.9503 37.508C16.2955 37.508 18.2137 37.1566 20.1531 36.2547C22.0924 35.3528 25.9357 30.3136 25.3078 32.4659C24.6799 34.6183 25.1092 37.7928 25.3078 41.6582C25.5064 45.5236 27.5465 49.7105 28.869 49.1102C29.8926 48.6456 27.8246 45.2745 27.774 40.8511C27.7235 36.4277 29.8815 30.5378 31.1371 29.9549C32.3926 29.372 36.204 30.5378 36.9663 32.4659C37.7286 34.3941 37.1861 36.8624 36.4265 38.7423C35.667 40.6222 34.1456 41.7482 34.8588 42.5999C35.572 43.4515 38.3529 40.2287 39.009 38.7423C39.9395 36.6345 40.4522 34.4508 40.1948 32.4659C40.0333 31.2208 36.4731 29.2823 36.9663 29.2823C37.4595 29.2823 41.8464 29.5183 43.8542 30.5169C46.0241 31.5961 46.1468 33.5631 46.029 34.9482C45.8868 36.6204 44.2008 39.1472 43.8869 40.8511C43.5731 42.555 44.1408 44.4399 46.0241 45.7403C47.9074 47.0406 50.433 46.4055 49.4465 46.0019C48.46 45.5983 46.4869 44.89 46.0241 43.9899C45.5613 43.0898 45.594 42.4862 46.0241 40.8511C46.4542 39.216 48.3343 37.5884 48.6697 35.1564C49.005 32.7244 48.4536 31.2922 47.0635 29.6331C45.6735 27.974 45.0379 27.7325 40.1948 27.2645Z" fill="#CAC9C9" stroke="black"/>
<g filter="url(#filter0_d_1241_6777)">
<path d="M15.7523 18.6206C18.9139 18.7954 19.0667 19.9538 18.9433 20.3389C18.82 20.724 16.6504 20.0587 15.4866 20.1258C14.3227 20.1928 11.5148 21.0648 11.7485 25.8084C12.0407 31.7379 18.3795 32.2218 20.8474 32.0004C22.8745 31.8185 24.856 24.8443 24.856 24.1182C24.856 23.3921 24.5741 22.2022 23.6458 21.9572C22.7176 21.7123 21.5696 22.2091 20.9489 18.6206C20.3957 15.4224 21.1907 11.2953 28.1123 10.6309C35.0339 9.96659 36.7871 14.5191 36.9642 17.0436C37.1414 19.5681 36.0413 20.5396 35.004 21.1101C33.9667 21.6806 32.2255 21.0039 32.128 22.8204C32.0305 24.6368 38.0465 30.3093 42.0936 28.7871C46.1408 27.2648 46.0197 23.3544 45.2804 20.1125C44.541 16.8706 42.1696 13.9361 40.8876 12.2835C39.6056 10.6309 44.7027 12.6858 47.0719 16.0459C49.4412 19.406 48.9716 23.3304 48.2074 26.1285C47.4431 28.9267 44.5707 31.4832 39.6056 32.206C33.9507 33.0292 35.1221 29.6561 34.6036 30.6279C34.085 31.5996 37.0022 33.425 37.8909 34.6945C38.7796 35.964 43.2024 41.0306 42.6378 44.7529C42.0732 48.4751 40.3166 50.3052 37.1426 50.3052C33.9685 50.3052 31.9798 46.6512 32.5723 46.4967C36.0298 48.9561 38.8021 48.5743 39.5638 47.2413C41.1557 44.4556 39.495 42.0055 38.2255 40.3197C36.9559 38.6338 32.9532 34.6268 30.6046 34.4364C29.3068 34.3312 28.471 37.0374 27.1633 39.3786C26.1047 41.2742 25.035 41.8719 23.6458 42.4181C22.2567 42.9643 20.1688 42.9084 19.4526 45.1183C18.7364 47.3283 25.7639 52.4479 22.0148 50.7373C18.2658 49.0266 16.9036 46.506 17.0789 44.8114C17.2631 43.0312 18.5757 41.7736 20.4962 41.0054C22.4166 40.2372 22.9248 39.1743 23.9012 37.4757C24.9073 35.7252 25.6363 33.2335 25.4717 33.5627C25.3071 33.8919 23.3775 35.3453 21.1827 35.5099C18.9878 35.6745 15.8154 35.8475 13.1131 33.5627C10.4107 31.2779 9.30494 29.0037 9.53554 24.9814C9.76613 20.959 12.5908 18.4458 15.7523 18.6206Z" fill="white"/>
<path d="M15.7523 18.6206C18.9139 18.7954 19.0667 19.9538 18.9433 20.3389C18.82 20.724 16.6504 20.0587 15.4866 20.1258C14.3227 20.1928 11.5148 21.0648 11.7485 25.8084C12.0407 31.7379 18.3795 32.2218 20.8474 32.0004C22.8745 31.8185 24.856 24.8443 24.856 24.1182C24.856 23.3921 24.5741 22.2022 23.6458 21.9572C22.7176 21.7123 21.5696 22.2091 20.9489 18.6206C20.3957 15.4224 21.1907 11.2953 28.1123 10.6309C35.0339 9.96659 36.7871 14.5191 36.9642 17.0436C37.1414 19.5681 36.0413 20.5396 35.004 21.1101C33.9667 21.6806 32.2255 21.0039 32.128 22.8204C32.0305 24.6368 38.0465 30.3093 42.0936 28.7871C46.1408 27.2648 46.0197 23.3544 45.2804 20.1125C44.541 16.8706 42.1696 13.9361 40.8876 12.2835C39.6056 10.6309 44.7027 12.6858 47.0719 16.0459C49.4412 19.406 48.9716 23.3304 48.2074 26.1285C47.4431 28.9267 44.5707 31.4832 39.6056 32.206C33.9507 33.0292 35.1221 29.6561 34.6036 30.6279C34.085 31.5996 37.0022 33.425 37.8909 34.6945C38.7796 35.964 43.2024 41.0306 42.6378 44.7529C42.0732 48.4751 40.3166 50.3052 37.1426 50.3052C33.9685 50.3052 31.9798 46.6512 32.5723 46.4967C36.0298 48.9561 38.8021 48.5743 39.5638 47.2413C41.1557 44.4556 39.495 42.0055 38.2255 40.3197C36.9559 38.6338 32.9532 34.6268 30.6046 34.4364C29.3068 34.3312 28.471 37.0374 27.1633 39.3786C26.1047 41.2742 25.035 41.8719 23.6458 42.4181C22.2567 42.9643 20.1688 42.9084 19.4526 45.1183C18.7364 47.3283 25.7639 52.4479 22.0148 50.7373C18.2658 49.0266 16.9036 46.506 17.0789 44.8114C17.2631 43.0312 18.5757 41.7736 20.4962 41.0054C22.4166 40.2372 22.9248 39.1743 23.9012 37.4757C24.9073 35.7252 25.6363 33.2335 25.4717 33.5627C25.3071 33.8919 23.3775 35.3453 21.1827 35.5099C18.9878 35.6745 15.8154 35.8475 13.1131 33.5627C10.4107 31.2779 9.30494 29.0037 9.53554 24.9814C9.76613 20.959 12.5908 18.4458 15.7523 18.6206Z" stroke="black"/>
</g>
<ellipse cx="28.7974" cy="16.0145" rx="7.4146" ry="5.38598" transform="rotate(-4.27441 28.7974 16.0145)" fill="white"/>
<path fill-rule="evenodd" clip-rule="evenodd" d="M31.2416 18.0494C29.6306 18.2542 28.8574 19.2884 28.8574 20.1457C28.8574 20.5606 29.0492 20.909 29.4343 21.1724C29.8331 21.4453 30.1268 21.7216 31.2416 21.6422C32.3565 21.5628 33.4461 20.5625 33.4461 19.626C33.4461 19.1862 33.5201 19.0022 33.2894 18.6648C33.0587 18.3273 32.8527 17.8446 31.2416 18.0494ZM27.8574 20.1457C27.8574 18.6087 30.4643 17.5727 31.2416 17.553C32.019 17.5333 32.9438 17.4577 33.5201 17.8446C34.1251 18.2508 34.4461 18.8686 34.4461 19.626C34.4461 21.0837 33.5201 23.3294 31.6308 23.5436C29.7415 23.7579 29.2015 22.8858 28.6247 22.2972C28.0479 21.7087 27.8574 20.9279 27.8574 20.1457Z" fill="black"/>
<path d="M26.0954 21.2827C26.0954 22.5233 25.1242 23.8742 23.4085 23.8742C21.6928 23.8742 20.543 23.0619 20.543 21.8213C20.543 20.5806 21.6928 19.3815 23.4085 19.3815C25.1242 19.3815 26.0954 20.042 26.0954 21.2827Z" fill="white"/>
<path fill-rule="evenodd" clip-rule="evenodd" d="M23.4085 19.5306C22.0795 19.604 21.043 20.902 21.043 21.8213C21.043 22.2672 21.2416 22.634 21.6228 22.906C22.0172 23.1875 22.6229 23.3742 23.4085 23.3742C24.8135 23.3742 25.5954 22.2831 25.5954 21.2827C25.5954 20.8122 25.5954 20.666 25.252 20.2757C24.9085 19.8854 24.7375 19.4573 23.4085 19.5306ZM20.043 21.8213C20.043 20.2593 21.4641 18.8815 23.4085 18.8815C24.3185 18.8815 25.1073 19.0547 25.6822 19.4573C26.2836 19.8785 26.5954 20.5126 26.5954 21.2827C26.5954 22.7635 25.5931 24.9947 23.5666 24.9947C22.6365 24.9947 21.8868 24.7615 21.1362 24.0545C20.3855 23.3474 20.043 22.616 20.043 21.8213Z" fill="black"/>
<circle cx="31.152" cy="19.9591" r="1.15205" fill="black"/>
<circle cx="23.6696" cy="21.4125" r="1.15205" fill="black"/>
<path d="M21.4978 17.0556C19.7282 17.487 19.1736 18.3293 19.1738 19.637C19.6982 18.828 20.7633 18.3634 21.4978 18.3634C22.988 18.3634 24.4783 18.3141 24.9369 18.2134C25.3956 18.1127 24.9151 17.8644 24.9369 17.2743C24.9588 16.6841 23.1353 16.6564 21.4978 17.0556Z" fill="black"/>
<path d="M30.7617 15.1665C32.5761 15.0061 33.8876 15.7885 34.3078 17.0269C33.5512 16.4294 30.5418 16.5606 29.8462 16.7967C28.4351 17.2758 27.778 17.9564 27.3114 18.0085C26.8447 18.0606 26.8512 17.3485 26.6408 16.7967C26.4303 16.2449 29.0829 15.3148 30.7617 15.1665Z" fill="black"/>
<ellipse cx="44.2749" cy="14.7516" rx="0.280762" ry="0.232422" fill="#CAC9C9"/>
<ellipse cx="45.6694" cy="15.9651" rx="0.460449" ry="0.336792" fill="#CAC9C9"/>
<ellipse cx="44.6543" cy="15.5656" rx="0.378906" ry="0.259888" fill="#CAC9C9"/>
<ellipse cx="45.3252" cy="16.869" rx="0.446289" ry="0.386414" fill="#CAC9C9"/>
<ellipse cx="46.7473" cy="17.7445" rx="0.539062" ry="0.420105" transform="rotate(14.4494 46.7473 17.7445)" fill="#CAC9C9"/>
<ellipse cx="46.2088" cy="18.7682" rx="0.539062" ry="0.480469" transform="rotate(15 46.2088 18.7682)" fill="#CAC9C9"/>
<ellipse cx="47.3745" cy="19.773" rx="0.420714" ry="0.392353" transform="rotate(16.4349 47.3745 19.773)" fill="#CAC9C9"/>
<ellipse cx="46.9557" cy="20.8328" rx="0.432227" ry="0.424053" fill="#CAC9C9"/>
<path d="M29.7589 29.2682C29.9597 29.4547 31.1344 32.6103 31.3528 33.1991C31.5712 33.788 30.4972 33.3723 30.032 33.4558C29.5668 33.5393 28.0528 34.9206 28.8441 33.4558C29.6355 31.9911 29.5581 29.0818 29.7589 29.2682Z" fill="#CAC9C9"/>
<path d="M34.8043 14.3431C35.2354 14.0895 37.0793 17.8028 35.2997 19.1642C35.0726 19.2059 35.2161 17.9353 34.6816 17.8016C35.3089 16.9983 34.6989 14.7949 34.8043 14.3431Z" fill="#CAC9C9"/>
<path d="M46.1758 26.7753C45.284 31.0781 37.5245 32.0394 36.474 30.9209C35.4235 29.8024 36.2932 28.4861 37.9876 29.5988C40.1793 30.6062 44.1559 29.8813 46.1758 26.7753Z" fill="#CAC9C9"/>
<path d="M14.7266 33.0756C18.7387 35.583 24.2447 34.4866 24.9644 32.3143C25.1156 31.8582 25.1288 31.5166 25.0513 31.2738C24.9093 30.8287 25.3495 29.9272 24.8879 30.0482C24.402 30.1757 23.0126 31.3509 22.8326 31.884C21.3134 34.0067 18.5381 34.2791 14.7266 33.0756Z" fill="#CAC9C9"/>
<path d="M18.5568 45.569C16.7556 43.0485 21.3231 41.381 22.186 41.2995C23.0488 41.2179 23.2646 41.8179 22.0471 42.0634C20.6825 42.1237 18.8411 43.3249 18.5568 45.569Z" fill="#CAC9C9"/>
<path fill-rule="evenodd" clip-rule="evenodd" d="M30.2867 25.2383C30.2867 25.2929 29.6054 26.0457 28.7618 26.4253C28.0114 26.7629 27.4973 26.9081 26.9915 26.6444C26.4856 26.3808 26.306 26.0177 26.526 25.78C26.624 25.6741 27.5133 25.8902 28.3225 25.7028C29.3302 25.4693 30.2867 24.8383 30.2867 24.8383C30.2867 24.8383 30.2867 25.135 30.2867 25.2383Z" fill="#CAC9C9"/>
<path fill-rule="evenodd" clip-rule="evenodd" d="M30.4359 24.7832C30.4359 24.8421 29.702 25.6544 28.7933 26.0639C27.9848 26.4282 27.431 26.5848 26.8861 26.3003C26.3412 26.0159 26.1477 25.6242 26.3847 25.3676C26.4903 25.2534 27.4483 25.4866 28.32 25.2843C29.4055 25.0324 30.4359 24.3516 30.4359 24.3516C30.4359 24.3516 30.4359 24.6718 30.4359 24.7832Z" fill="black"/>
<defs>
<filter id="filter0_d_1241_6777" x="8.00586" y="10.0656" width="41.3224" height="42.5153" filterUnits="userSpaceOnUse" color-interpolation-filters="sRGB">
<feFlood flood-opacity="0" result="BackgroundImageFix"/>
<feColorMatrix in="SourceAlpha" type="matrix" values="0 0 0 0 0 0 0 0 0 0 0 0 0 0 0 0 0 0 127 0" result="hardAlpha"/>
<feOffset dx="-1" dy="1"/>
<feComposite in2="hardAlpha" operator="out"/>
<feColorMatrix type="matrix" values="0 0 0 0 0 0 0 0 0 0 0 0 0 0 0 0 0 0 0.25 0"/>
<feBlend mode="normal" in2="BackgroundImageFix" result="effect1_dropShadow_1241_6777"/>
<feBlend mode="normal" in="SourceGraphic" in2="effect1_dropShadow_1241_6777" result="shape"/>
</filter>
</defs>
</svg>
