<svg width="60" height="60" viewBox="0 0 60 60" fill="none" xmlns="http://www.w3.org/2000/svg">
<circle cx="30.0001" cy="30.0001" r="29.0001" fill="white" stroke="white" stroke-width="2"/>
<g filter="url(#filter0_d_1241_7068)">
<mask id="path-2-inside-1_1241_7068" fill="white">
<path d="M47.783 30.6074C47.783 31.2546 47.7504 31.8967 47.6851 32.5288C47.4418 34.8967 46.7545 37.4852 45.7061 40.0337C45.0589 41.6064 44.2763 43.1641 43.3759 44.644C42.9218 44.8271 42.4227 44.9299 41.901 44.9299C41.7354 44.9299 41.5699 44.9199 41.4093 44.8998C39.1845 50.1773 35.3292 53.8846 30.8468 54.5894C30.3226 54.6672 29.7908 54.7098 29.2566 54.7123C24.0468 54.6973 19.4967 50.6489 17.0461 44.6289C16.0428 44.6114 15.1322 44.2176 14.4475 43.583C14.001 42.7853 13.5896 41.9701 13.2159 41.1449C11.899 38.2453 11.0362 35.2428 10.7577 32.5313C10.6925 31.8992 10.6599 31.2571 10.6599 30.6074C10.6599 30.5523 10.6599 30.4996 10.6599 30.4444V30.4294C10.6599 30.3892 10.6599 30.3491 10.6624 30.309C10.6624 30.2964 10.6624 30.2864 10.6624 30.2738C10.6624 30.2462 10.6624 30.2187 10.6649 30.1911C10.6649 30.176 10.6649 30.161 10.6649 30.1459C10.6649 30.1233 10.6649 30.1008 10.6674 30.0782C10.6699 30.033 10.6699 29.9879 10.6725 29.9452C10.6725 29.9377 10.6725 29.9302 10.6725 29.9227C10.6775 29.8123 10.6825 29.7019 10.6875 29.5941C10.69 29.5464 10.6925 29.4963 10.695 29.4486C10.695 29.431 10.6975 29.4135 10.6975 29.3959C10.7 29.3508 10.7026 29.3056 10.7076 29.2605C10.7101 29.2153 10.7151 29.1702 10.7176 29.125C10.7201 29.105 10.7201 29.0874 10.7226 29.0698C10.7251 29.0247 10.7301 28.9821 10.7327 28.9394C10.7327 28.9269 10.7352 28.9143 10.7352 28.9018C10.7427 28.804 10.7527 28.7061 10.7628 28.6108C10.7753 28.4904 10.7903 28.3675 10.8054 28.2471C10.8104 28.1995 10.8179 28.1493 10.8255 28.1016C10.8255 28.0991 10.8255 28.0991 10.8255 28.0966C10.833 28.049 10.838 28.0013 10.8455 27.9536C10.8556 27.8809 10.8681 27.8057 10.8781 27.7329C10.8832 27.6928 10.8907 27.6552 10.8957 27.615C10.8957 27.6125 10.8957 27.6075 10.8982 27.605C10.9057 27.5548 10.9133 27.5047 10.9233 27.457C10.9233 27.452 10.9258 27.4495 10.9258 27.4445C10.9358 27.3918 10.9434 27.3391 10.9534 27.2864C10.9634 27.2312 10.9735 27.1786 10.9835 27.1259C10.9935 27.0782 11.001 27.0306 11.0111 26.9829C11.0136 26.9729 11.0136 26.9629 11.0161 26.9553C11.0362 26.8575 11.0562 26.7572 11.0763 26.6594C11.0788 26.6443 11.0813 26.6318 11.0863 26.6167C11.0964 26.5716 11.1064 26.5289 11.1164 26.4838C11.129 26.4311 11.1415 26.3784 11.154 26.3257C11.1666 26.2731 11.1791 26.2204 11.1917 26.1677C11.2017 26.1226 11.2142 26.0774 11.2243 26.0348C11.2393 25.9721 11.2569 25.9069 11.2744 25.8442C11.302 25.7438 11.3271 25.646 11.3547 25.5457C11.3572 25.5406 11.3572 25.5381 11.3572 25.5356C11.3723 25.4855 11.3848 25.4353 11.3999 25.3851C11.4124 25.345 11.4249 25.3049 11.435 25.2647C11.4425 25.2422 11.4475 25.2221 11.455 25.1995C11.4676 25.1594 11.4801 25.1167 11.4927 25.0766C11.5077 25.029 11.5228 24.9838 11.5378 24.9361C11.5729 24.8283 11.6081 24.7179 11.6457 24.6101C11.6582 24.5724 11.6708 24.5348 11.6833 24.4972C11.6908 24.4771 11.6984 24.4571 11.7034 24.437C11.7184 24.3969 11.731 24.3567 11.746 24.3191C11.7661 24.2664 11.7836 24.2137 11.8037 24.1611C11.8213 24.1134 11.8388 24.0658 11.8564 24.0181C11.8965 23.9153 11.9341 23.8124 11.9768 23.7121C11.9968 23.6619 12.0169 23.6143 12.037 23.5641V23.5616C12.0545 23.5164 12.0721 23.4738 12.0922 23.4312C12.0972 23.4211 12.0997 23.4136 12.1047 23.4036C12.1248 23.3584 12.1423 23.3133 12.1624 23.2681C12.1825 23.2205 12.205 23.1703 12.2276 23.1226C12.2276 23.1201 12.2301 23.1201 12.2301 23.1176C12.2502 23.07 12.2728 23.0223 12.2928 22.9771C12.3355 22.8843 12.3781 22.794 12.4207 22.7012C12.4258 22.6937 12.4283 22.6837 12.4333 22.6762C12.4759 22.5833 12.5211 22.4905 12.5662 22.4002C12.5888 22.3526 12.6139 22.3049 12.6365 22.2573C12.6866 22.1594 12.7368 22.0616 12.787 21.9663C12.8095 21.9212 12.8346 21.8785 12.8572 21.8359C12.8823 21.7882 12.9074 21.7431 12.9324 21.6954C12.9575 21.6503 12.9826 21.6026 13.0102 21.5574C13.0127 21.5499 13.0177 21.5449 13.0202 21.5374C13.0428 21.4972 13.0654 21.4571 13.088 21.4195C13.113 21.3743 13.1406 21.3267 13.1682 21.2815C13.1883 21.2464 13.2084 21.2113 13.2284 21.1787C13.2385 21.1586 13.251 21.1411 13.261 21.1235C13.2836 21.0884 13.3037 21.0508 13.3262 21.0156C13.3538 20.968 13.3839 20.9228 13.4115 20.8752C13.4391 20.8325 13.4642 20.7899 13.4918 20.7473C13.4943 20.7448 13.4943 20.7422 13.4968 20.7397C13.5219 20.6971 13.5495 20.657 13.5746 20.6168C13.6097 20.5616 13.6448 20.5065 13.6824 20.4513C13.705 20.4187 13.7251 20.3861 13.7476 20.3509C13.8379 20.218 13.9282 20.0851 14.0211 19.9521C14.0512 19.9095 14.0813 19.8668 14.1139 19.8242C14.1415 19.7866 14.1665 19.7515 14.1941 19.7138C14.1991 19.7088 14.2042 19.7013 14.2067 19.6963C14.2368 19.6561 14.2669 19.6135 14.297 19.5734C14.3296 19.5282 14.3622 19.4831 14.3973 19.4404C14.4249 19.4053 14.4525 19.3702 14.4801 19.3326C14.5177 19.2849 14.5553 19.2373 14.5929 19.1871C14.6256 19.147 14.6557 19.1068 14.6883 19.0667C14.6908 19.0642 14.6933 19.0592 14.6958 19.0567C14.7259 19.019 14.7535 18.9839 14.7836 18.9463C14.7861 18.9438 14.7886 18.9413 14.7911 18.9388C14.8212 18.9036 14.8488 18.866 14.8789 18.8309C14.909 18.7958 14.9391 18.7582 14.9667 18.7231C14.9842 18.703 14.9993 18.6829 15.0169 18.6628C15.0169 18.6603 15.0194 18.6578 15.0219 18.6578C15.067 18.6052 15.1097 18.5525 15.1548 18.5023C15.1674 18.4873 15.1799 18.4722 15.1924 18.4597C15.225 18.4221 15.2577 18.3844 15.2903 18.3468C15.2928 18.3443 15.2928 18.3443 15.2928 18.3418C15.3229 18.3067 15.3555 18.2716 15.3881 18.2364C15.4006 18.2214 15.4132 18.2063 15.4282 18.1938C15.4533 18.1662 15.4809 18.1361 15.506 18.1085C15.5436 18.0684 15.5812 18.0282 15.6188 17.9881C15.6414 17.9655 15.6615 17.9405 15.6841 17.9179C15.7041 17.8953 15.7267 17.8727 15.7493 17.8502C15.7668 17.8326 15.7844 17.815 15.802 17.795C15.8295 17.7649 15.8596 17.7348 15.8897 17.7047C15.9073 17.6871 15.9249 17.6696 15.9424 17.6495C15.98 17.6119 16.0177 17.5742 16.0528 17.5366C16.0729 17.5166 16.0929 17.494 16.1155 17.4739C16.1431 17.4463 16.1707 17.4187 16.1983 17.3936C16.2108 17.3811 16.2234 17.3686 16.2334 17.3585C16.261 17.3309 16.2886 17.3059 16.3137 17.2783C16.3387 17.2532 16.3638 17.2306 16.3889 17.2055C16.4341 17.1629 16.4792 17.1202 16.5244 17.0776C16.567 17.0375 16.6096 16.9973 16.6523 16.9572C16.6598 16.9522 16.6648 16.9447 16.6723 16.9396C16.71 16.9045 16.7476 16.8694 16.7852 16.8368C16.8028 16.8192 16.8228 16.8042 16.8404 16.7866C16.9232 16.7114 17.0085 16.6386 17.0937 16.5659C17.1163 16.5458 17.1414 16.5258 17.164 16.5057C17.1891 16.4831 17.2141 16.4606 17.2417 16.4405C17.2668 16.4179 17.2944 16.3953 17.3195 16.3728C17.4173 16.29 17.5151 16.2097 17.6155 16.132C17.6581 16.0994 17.7007 16.0642 17.7409 16.0316C17.7534 16.0216 17.7635 16.0141 17.776 16.004C17.8237 15.9664 17.8738 15.9288 17.924 15.8912C17.9591 15.8636 17.9942 15.836 18.0293 15.8109C18.0419 15.8009 18.0569 15.7908 18.0695 15.7808C18.0946 15.7607 18.1196 15.7432 18.1447 15.7231C18.1748 15.7005 18.2049 15.678 18.235 15.6554C18.2451 15.6479 18.2551 15.6403 18.2676 15.6328C18.3128 15.5977 18.3604 15.5651 18.4056 15.5325C18.4131 15.5275 18.4181 15.5224 18.4257 15.5174C18.4758 15.4798 18.5285 15.4447 18.5787 15.4071C18.6263 15.3745 18.6715 15.3418 18.7191 15.3092C18.7517 15.2867 18.7843 15.2641 18.8169 15.2415C18.832 15.2315 18.847 15.2214 18.8621 15.2114C18.8972 15.1888 18.9298 15.1663 18.9649 15.1412C19.0101 15.1111 19.0577 15.081 19.1029 15.0509C19.1556 15.0158 19.2082 14.9832 19.2609 14.948C19.276 14.938 19.291 14.928 19.3061 14.9204C19.3412 14.8979 19.3788 14.8753 19.4164 14.8502C19.434 14.8402 19.4541 14.8276 19.4716 14.8176C19.5143 14.79 19.5594 14.7624 19.6021 14.7373C19.6146 14.7298 19.6296 14.7223 19.6422 14.7123C19.6974 14.6796 19.7526 14.647 19.8077 14.6144C19.8629 14.5818 19.9206 14.5492 19.9758 14.5166C19.9808 14.5141 19.9883 14.5091 19.9933 14.5066C20.041 14.479 20.0887 14.4514 20.1338 14.4263C20.2166 14.3786 20.3019 14.3335 20.3846 14.2884C20.4273 14.2658 20.4674 14.2432 20.5101 14.2206C20.5778 14.1855 20.6455 14.1504 20.7132 14.1153C20.7433 14.1002 20.7759 14.0827 20.806 14.0676C20.8336 14.0526 20.8637 14.0375 20.8938 14.0225C20.939 13.9999 20.9816 13.9773 21.0268 13.9547C21.0468 13.9447 21.0669 13.9347 21.087 13.9246C21.1196 13.9096 21.1522 13.892 21.1848 13.877C21.2149 13.8619 21.245 13.8494 21.2751 13.8343C21.3253 13.8093 21.3779 13.7867 21.4281 13.7641C21.4707 13.744 21.5159 13.724 21.5585 13.7039C21.5786 13.6939 21.6012 13.6838 21.6238 13.6738C21.6589 13.6588 21.6915 13.6437 21.7266 13.6287C21.7341 13.6262 21.7416 13.6211 21.7492 13.6186C21.7717 13.6086 21.7943 13.5986 21.8169 13.5885C21.857 13.571 21.8997 13.5534 21.9423 13.5359C21.9523 13.5308 21.9599 13.5283 21.9699 13.5233C22.0201 13.5032 22.0702 13.4807 22.1204 13.4606C22.2533 13.4054 22.3888 13.3502 22.5242 13.3001C22.5719 13.2825 22.6196 13.265 22.6647 13.2449C22.7374 13.2173 22.8102 13.1897 22.8854 13.1646C22.9381 13.1446 22.9908 13.127 23.046 13.1069C23.1011 13.0869 23.1588 13.0668 23.214 13.0492C23.2366 13.0417 23.2592 13.0342 23.2817 13.0267C23.3244 13.0116 23.367 12.9991 23.4072 12.984C23.4247 12.979 23.4448 12.9715 23.4623 12.9665C23.5125 12.9514 23.5627 12.9339 23.6128 12.9188C23.6154 12.9188 23.6179 12.9163 23.6229 12.9163C23.6806 12.8987 23.7383 12.8787 23.7985 12.8611C23.8035 12.8586 23.811 12.8586 23.816 12.8561C23.8486 12.8461 23.8837 12.836 23.9164 12.826C23.949 12.816 23.9841 12.8059 24.0167 12.7959C24.0493 12.7859 24.0844 12.7758 24.1195 12.7658C24.1546 12.7558 24.1872 12.7457 24.2224 12.7382C24.2901 12.7181 24.3578 12.7006 24.428 12.683C24.4506 12.678 24.4707 12.6705 24.4933 12.6655C24.5209 12.6579 24.5484 12.6504 24.576 12.6429C24.6287 12.6278 24.6839 12.6153 24.7366 12.6028C24.7692 12.5952 24.8018 12.5877 24.8344 12.5802C25.01 12.5375 25.183 12.4974 25.3611 12.4598C25.3963 12.4523 25.4314 12.4447 25.4665 12.4372C25.5091 12.4272 25.5543 12.4197 25.5969 12.4121C25.622 12.4071 25.6496 12.4021 25.6747 12.3971C25.7876 12.3745 25.9004 12.3544 26.0133 12.3344C26.0384 12.3294 26.066 12.3243 26.0911 12.3218C26.1437 12.3118 26.1964 12.3043 26.2491 12.2967C26.2817 12.2917 26.3168 12.2867 26.3494 12.2817C26.372 12.2792 26.3946 12.2742 26.4171 12.2717C26.4472 12.2666 26.4798 12.2616 26.5099 12.2591C26.6554 12.2365 26.8034 12.219 26.9514 12.1989C27.6914 12.1086 28.4464 12.0635 29.2114 12.0635C29.9664 12.0635 30.7139 12.1086 31.4463 12.1964C31.5542 12.209 31.662 12.224 31.7699 12.2391C31.805 12.2441 31.8401 12.2491 31.8777 12.2541C31.9103 12.2591 31.943 12.2641 31.9781 12.2692C32.0132 12.2742 32.0483 12.2792 32.0834 12.2842C32.1085 12.2867 32.1336 12.2917 32.1612 12.2967C32.2164 12.3043 32.2715 12.3143 32.3242 12.3243C32.3543 12.3294 32.3819 12.3344 32.412 12.3394C32.4471 12.3444 32.4822 12.3519 32.5174 12.3569C32.5826 12.3695 32.6453 12.3795 32.7105 12.3921C32.7456 12.3996 32.7807 12.4046 32.8133 12.4121C32.9638 12.4422 33.1143 12.4723 33.2623 12.5074C33.4329 12.5451 33.601 12.5852 33.769 12.6278C33.8041 12.6354 33.8367 12.6454 33.8719 12.6554C33.907 12.663 33.9396 12.673 33.9747 12.683C34.0148 12.6931 34.0524 12.7031 34.0901 12.7131C34.1202 12.7207 34.1503 12.7307 34.1779 12.7382C34.3133 12.7758 34.4488 12.816 34.5842 12.8561C34.6143 12.8661 34.6469 12.8762 34.6795 12.8837C34.7021 12.8912 34.7247 12.8987 34.7473 12.9038C34.7774 12.9138 34.81 12.9238 34.8426 12.9339C34.983 12.979 35.1235 13.0242 35.2615 13.0718C35.2865 13.0793 35.3116 13.0894 35.3367 13.0969C35.3543 13.1019 35.3718 13.1094 35.3894 13.117C35.422 13.1295 35.4546 13.1395 35.4897 13.1521C35.5098 13.1596 35.5298 13.1671 35.5499 13.1747C35.575 13.1847 35.6026 13.1947 35.6277 13.2023C35.6603 13.2148 35.6929 13.2273 35.7255 13.2374C35.7456 13.2449 35.7656 13.2524 35.7832 13.2599C35.8133 13.2725 35.8459 13.2825 35.876 13.2951C36.0741 13.3703 36.2698 13.4506 36.4629 13.5333C36.4855 13.5434 36.5081 13.5534 36.5307 13.5634C36.5733 13.581 36.6134 13.5986 36.6561 13.6186C36.6837 13.6312 36.7113 13.6437 36.7363 13.6537C36.774 13.6688 36.8091 13.6864 36.8467 13.7039C36.8768 13.7165 36.9069 13.7315 36.937 13.7466C36.9696 13.7616 37.0022 13.7767 37.0348 13.7917C37.0649 13.8068 37.095 13.8193 37.1276 13.8343C37.1602 13.8494 37.1929 13.8644 37.2255 13.8795C37.2556 13.8945 37.2882 13.9096 37.3183 13.9246C37.381 13.9547 37.4437 13.9848 37.5064 14.0175C37.6017 14.0651 37.697 14.1153 37.7923 14.1629C37.825 14.1805 37.8551 14.1955 37.8877 14.2131C37.9454 14.2432 38.003 14.2733 38.0607 14.3059C38.1209 14.3385 38.1836 14.3736 38.2438 14.4062C38.299 14.4363 38.3517 14.4664 38.4069 14.4965C38.4194 14.5041 38.432 14.5116 38.4445 14.5191C38.6176 14.6194 38.7881 14.7198 38.9587 14.8251C38.9612 14.8251 38.9612 14.8276 38.9637 14.8276C39.0791 14.9004 39.1945 14.9731 39.3099 15.0484C39.3099 15.0484 39.3124 15.0509 39.3149 15.0509C39.3651 15.0835 39.4152 15.1161 39.4654 15.1487C39.4779 15.1562 39.488 15.1638 39.5005 15.1713C39.5532 15.2064 39.6059 15.2415 39.656 15.2766C39.7137 15.3143 39.7689 15.3544 39.8266 15.3945C39.8768 15.4296 39.9244 15.4647 39.9746 15.4974C39.9896 15.5074 40.0072 15.5199 40.0222 15.5325C40.0548 15.5576 40.09 15.5801 40.1226 15.6052C40.1426 15.6203 40.1602 15.6328 40.1803 15.6479C40.2304 15.6855 40.2781 15.7206 40.3283 15.7582C40.3759 15.7933 40.4211 15.8285 40.4662 15.8636C40.4813 15.8736 40.4938 15.8861 40.5088 15.8962C40.6619 16.0141 40.8124 16.132 40.9629 16.2549C40.9729 16.2649 40.9854 16.2724 40.9955 16.2825C41.0431 16.3226 41.0908 16.3602 41.1359 16.4004C41.2413 16.4881 41.3441 16.5759 41.447 16.6662C41.4495 16.6687 41.4495 16.6687 41.452 16.6712C41.5021 16.7164 41.5523 16.7615 41.605 16.8067C41.6551 16.8518 41.7078 16.8995 41.758 16.9447C41.8056 16.9898 41.8558 17.0324 41.9035 17.0776C41.9085 17.0826 41.9135 17.0851 41.9185 17.0901C41.9612 17.1303 42.0038 17.1704 42.049 17.213C42.0565 17.2181 42.0615 17.2256 42.069 17.2331C42.1167 17.2783 42.1643 17.3234 42.2095 17.3711C42.2597 17.4187 42.3073 17.4664 42.355 17.5166C42.4026 17.5642 42.4528 17.6144 42.5005 17.662C42.5481 17.7122 42.5958 17.7599 42.6434 17.81C42.6911 17.8602 42.7387 17.9104 42.7864 17.9605C42.8315 18.0082 42.8767 18.0558 42.9193 18.106C42.9218 18.1085 42.9244 18.1135 42.9294 18.116C42.972 18.1637 43.0147 18.2114 43.0573 18.2565C43.0824 18.2841 43.1075 18.3142 43.1325 18.3418C43.1551 18.3669 43.1777 18.392 43.1978 18.417C43.2003 18.4195 43.2028 18.4221 43.2053 18.4246C43.2705 18.4998 43.3357 18.5776 43.4009 18.6528C43.4461 18.7055 43.4887 18.7582 43.5339 18.8108C43.5539 18.8359 43.574 18.8585 43.5941 18.8836C43.5991 18.8886 43.6041 18.8936 43.6066 18.8986C43.6442 18.9438 43.6819 18.9914 43.717 19.0366C43.7421 19.0667 43.7671 19.0993 43.7922 19.1319C43.8349 19.1871 43.8775 19.2398 43.9202 19.2949C44.0054 19.4028 44.0882 19.5132 44.1685 19.626C44.2086 19.6787 44.2462 19.7314 44.2839 19.7841C44.2864 19.7891 44.2914 19.7941 44.2939 19.7966C44.314 19.8217 44.3315 19.8493 44.3516 19.8769C44.3892 19.927 44.4243 19.9797 44.4594 20.0299C44.5222 20.1202 44.5849 20.2105 44.6476 20.3033C44.6676 20.3309 44.6852 20.361 44.7053 20.3886C44.763 20.4739 44.8181 20.5616 44.8758 20.6494C44.8959 20.6795 44.9134 20.7096 44.9335 20.7397C44.9787 20.81 45.0213 20.8802 45.0639 20.9529C45.0865 20.9881 45.1066 21.0232 45.1292 21.0608C45.1894 21.1611 45.2496 21.2615 45.3073 21.3618C45.3248 21.3894 45.3399 21.4195 45.3574 21.4471C45.3825 21.4922 45.4076 21.5349 45.4327 21.58C45.4527 21.6151 45.4728 21.6503 45.4904 21.6854C45.5154 21.728 45.538 21.7707 45.5606 21.8133C45.5631 21.8158 45.5631 21.8183 45.5656 21.8208C45.5882 21.861 45.6082 21.9011 45.6308 21.9412C45.7111 22.0917 45.7863 22.2422 45.8616 22.3927C45.8792 22.4278 45.8967 22.4655 45.9143 22.5006C45.9193 22.5106 45.9218 22.5181 45.9268 22.5282C45.9494 22.5733 45.9694 22.616 45.9895 22.6586C46.0121 22.7063 46.0347 22.7539 46.0572 22.8016C46.0723 22.8317 46.0873 22.8643 46.0999 22.8944C46.1049 22.9069 46.1099 22.917 46.1174 22.9295C46.1275 22.9521 46.1375 22.9746 46.1475 22.9972C46.1601 23.0273 46.1751 23.0574 46.1877 23.0875C46.2102 23.1352 46.2303 23.1828 46.2504 23.2305C46.2704 23.2781 46.2905 23.3258 46.3106 23.371C46.3332 23.4236 46.3557 23.4763 46.3783 23.5315C46.3959 23.5766 46.4159 23.6218 46.4335 23.6669C46.451 23.7096 46.4686 23.7522 46.4837 23.7949C46.4862 23.8049 46.4912 23.8124 46.4937 23.8225C46.5112 23.8676 46.5313 23.9153 46.5489 23.9604C46.5639 24.0031 46.5815 24.0457 46.5965 24.0883C46.6015 24.1009 46.6066 24.1134 46.6116 24.126C46.6266 24.1686 46.6442 24.2137 46.6592 24.2564C46.6768 24.3066 46.6944 24.3567 46.7119 24.4044C46.7445 24.4972 46.7771 24.5875 46.8072 24.6803C46.8273 24.738 46.8448 24.7957 46.8649 24.8559C46.8775 24.8985 46.8925 24.9412 46.905 24.9813C46.9076 24.9888 46.9101 24.9989 46.9126 25.0064C46.9427 25.0992 46.9703 25.1895 46.9979 25.2823C47.0029 25.2948 47.0054 25.3099 47.0104 25.3224L47.043 25.4353C47.0631 25.503 47.0806 25.5682 47.1007 25.636C47.1132 25.6811 47.1258 25.7263 47.1383 25.7714C47.1534 25.8241 47.1659 25.8743 47.1785 25.9269C47.191 25.9796 47.206 26.0298 47.2186 26.0824C47.2286 26.1251 47.2387 26.1652 47.2487 26.2053C47.2637 26.2681 47.2788 26.3308 47.2938 26.3935C47.3039 26.4336 47.3139 26.4762 47.3214 26.5164C47.3239 26.5264 47.3264 26.539 47.329 26.549C47.339 26.5941 47.349 26.6418 47.3591 26.6869C47.3741 26.7547 47.3866 26.8199 47.4017 26.8876C47.4117 26.9328 47.4193 26.9779 47.4293 27.0231C47.4418 27.0808 47.4519 27.1359 47.4619 27.1936C47.4719 27.2438 47.4795 27.2914 47.4895 27.3416C47.4995 27.3943 47.507 27.447 47.5171 27.4996C47.5171 27.5021 47.5171 27.5047 47.5171 27.5047C47.5271 27.5573 47.5346 27.61 47.5422 27.6602C47.5422 27.6652 47.5447 27.6702 47.5447 27.6727C47.5522 27.7229 47.5597 27.7705 47.5672 27.8207C47.5748 27.8734 47.5823 27.9286 47.5898 27.9812C47.5999 28.0439 47.6074 28.1067 47.6149 28.1694C47.6199 28.2045 47.6249 28.2421 47.63 28.2772C47.64 28.35 47.6475 28.4202 47.655 28.4929C47.6601 28.5381 47.6651 28.5857 47.6701 28.6309C47.6701 28.6334 47.6701 28.6359 47.6701 28.6409C47.6751 28.6886 47.6801 28.7337 47.6851 28.7814C47.6851 28.7914 47.6876 28.8015 47.6876 28.814C47.6902 28.8441 47.6927 28.8767 47.6952 28.9068C47.6977 28.9269 47.6977 28.9469 47.7002 28.967C47.7027 29.0046 47.7052 29.0397 47.7102 29.0749C47.7127 29.1025 47.7152 29.1275 47.7152 29.1526C47.7177 29.1978 47.7228 29.2404 47.7253 29.2856C47.7278 29.3257 47.7303 29.3658 47.7328 29.4085C47.7353 29.4361 47.7353 29.4611 47.7378 29.4887C47.7428 29.569 47.7478 29.6493 47.7504 29.732C47.7504 29.7371 47.7504 29.7396 47.7504 29.7421C47.7529 29.7646 47.7529 29.7872 47.7529 29.8098C47.7554 29.8424 47.7554 29.875 47.7579 29.9101C47.7579 29.9377 47.7604 29.9653 47.7604 29.9929C47.7604 30.0255 47.7629 30.0581 47.7629 30.0882C47.7629 30.1133 47.7629 30.1384 47.7654 30.161C47.7654 30.2036 47.7679 30.2488 47.7679 30.2914C47.7679 30.3441 47.7704 30.3942 47.7704 30.4469V30.4494C47.783 30.4971 47.783 30.5523 47.783 30.6074Z"/>
</mask>
<path d="M47.783 30.6074C47.783 31.2546 47.7504 31.8967 47.6851 32.5288C47.4418 34.8967 46.7545 37.4852 45.7061 40.0337C45.0589 41.6064 44.2763 43.1641 43.3759 44.644C42.9218 44.8271 42.4227 44.9299 41.901 44.9299C41.7354 44.9299 41.5699 44.9199 41.4093 44.8998C39.1845 50.1773 35.3292 53.8846 30.8468 54.5894C30.3226 54.6672 29.7908 54.7098 29.2566 54.7123C24.0468 54.6973 19.4967 50.6489 17.0461 44.6289C16.0428 44.6114 15.1322 44.2176 14.4475 43.583C14.001 42.7853 13.5896 41.9701 13.2159 41.1449C11.899 38.2453 11.0362 35.2428 10.7577 32.5313C10.6925 31.8992 10.6599 31.2571 10.6599 30.6074C10.6599 30.5523 10.6599 30.4996 10.6599 30.4444V30.4294C10.6599 30.3892 10.6599 30.3491 10.6624 30.309C10.6624 30.2964 10.6624 30.2864 10.6624 30.2738C10.6624 30.2462 10.6624 30.2187 10.6649 30.1911C10.6649 30.176 10.6649 30.161 10.6649 30.1459C10.6649 30.1233 10.6649 30.1008 10.6674 30.0782C10.6699 30.033 10.6699 29.9879 10.6725 29.9452C10.6725 29.9377 10.6725 29.9302 10.6725 29.9227C10.6775 29.8123 10.6825 29.7019 10.6875 29.5941C10.69 29.5464 10.6925 29.4963 10.695 29.4486C10.695 29.431 10.6975 29.4135 10.6975 29.3959C10.7 29.3508 10.7026 29.3056 10.7076 29.2605C10.7101 29.2153 10.7151 29.1702 10.7176 29.125C10.7201 29.105 10.7201 29.0874 10.7226 29.0698C10.7251 29.0247 10.7301 28.9821 10.7327 28.9394C10.7327 28.9269 10.7352 28.9143 10.7352 28.9018C10.7427 28.804 10.7527 28.7061 10.7628 28.6108C10.7753 28.4904 10.7903 28.3675 10.8054 28.2471C10.8104 28.1995 10.8179 28.1493 10.8255 28.1016C10.8255 28.0991 10.8255 28.0991 10.8255 28.0966C10.833 28.049 10.838 28.0013 10.8455 27.9536C10.8556 27.8809 10.8681 27.8057 10.8781 27.7329C10.8832 27.6928 10.8907 27.6552 10.8957 27.615C10.8957 27.6125 10.8957 27.6075 10.8982 27.605C10.9057 27.5548 10.9133 27.5047 10.9233 27.457C10.9233 27.452 10.9258 27.4495 10.9258 27.4445C10.9358 27.3918 10.9434 27.3391 10.9534 27.2864C10.9634 27.2312 10.9735 27.1786 10.9835 27.1259C10.9935 27.0782 11.001 27.0306 11.0111 26.9829C11.0136 26.9729 11.0136 26.9629 11.0161 26.9553C11.0362 26.8575 11.0562 26.7572 11.0763 26.6594C11.0788 26.6443 11.0813 26.6318 11.0863 26.6167C11.0964 26.5716 11.1064 26.5289 11.1164 26.4838C11.129 26.4311 11.1415 26.3784 11.154 26.3257C11.1666 26.2731 11.1791 26.2204 11.1917 26.1677C11.2017 26.1226 11.2142 26.0774 11.2243 26.0348C11.2393 25.9721 11.2569 25.9069 11.2744 25.8442C11.302 25.7438 11.3271 25.646 11.3547 25.5457C11.3572 25.5406 11.3572 25.5381 11.3572 25.5356C11.3723 25.4855 11.3848 25.4353 11.3999 25.3851C11.4124 25.345 11.4249 25.3049 11.435 25.2647C11.4425 25.2422 11.4475 25.2221 11.455 25.1995C11.4676 25.1594 11.4801 25.1167 11.4927 25.0766C11.5077 25.029 11.5228 24.9838 11.5378 24.9361C11.5729 24.8283 11.6081 24.7179 11.6457 24.6101C11.6582 24.5724 11.6708 24.5348 11.6833 24.4972C11.6908 24.4771 11.6984 24.4571 11.7034 24.437C11.7184 24.3969 11.731 24.3567 11.746 24.3191C11.7661 24.2664 11.7836 24.2137 11.8037 24.1611C11.8213 24.1134 11.8388 24.0658 11.8564 24.0181C11.8965 23.9153 11.9341 23.8124 11.9768 23.7121C11.9968 23.6619 12.0169 23.6143 12.037 23.5641V23.5616C12.0545 23.5164 12.0721 23.4738 12.0922 23.4312C12.0972 23.4211 12.0997 23.4136 12.1047 23.4036C12.1248 23.3584 12.1423 23.3133 12.1624 23.2681C12.1825 23.2205 12.205 23.1703 12.2276 23.1226C12.2276 23.1201 12.2301 23.1201 12.2301 23.1176C12.2502 23.07 12.2728 23.0223 12.2928 22.9771C12.3355 22.8843 12.3781 22.794 12.4207 22.7012C12.4258 22.6937 12.4283 22.6837 12.4333 22.6762C12.4759 22.5833 12.5211 22.4905 12.5662 22.4002C12.5888 22.3526 12.6139 22.3049 12.6365 22.2573C12.6866 22.1594 12.7368 22.0616 12.787 21.9663C12.8095 21.9212 12.8346 21.8785 12.8572 21.8359C12.8823 21.7882 12.9074 21.7431 12.9324 21.6954C12.9575 21.6503 12.9826 21.6026 13.0102 21.5574C13.0127 21.5499 13.0177 21.5449 13.0202 21.5374C13.0428 21.4972 13.0654 21.4571 13.088 21.4195C13.113 21.3743 13.1406 21.3267 13.1682 21.2815C13.1883 21.2464 13.2084 21.2113 13.2284 21.1787C13.2385 21.1586 13.251 21.1411 13.261 21.1235C13.2836 21.0884 13.3037 21.0508 13.3262 21.0156C13.3538 20.968 13.3839 20.9228 13.4115 20.8752C13.4391 20.8325 13.4642 20.7899 13.4918 20.7473C13.4943 20.7448 13.4943 20.7422 13.4968 20.7397C13.5219 20.6971 13.5495 20.657 13.5746 20.6168C13.6097 20.5616 13.6448 20.5065 13.6824 20.4513C13.705 20.4187 13.7251 20.3861 13.7476 20.3509C13.8379 20.218 13.9282 20.0851 14.0211 19.9521C14.0512 19.9095 14.0813 19.8668 14.1139 19.8242C14.1415 19.7866 14.1665 19.7515 14.1941 19.7138C14.1991 19.7088 14.2042 19.7013 14.2067 19.6963C14.2368 19.6561 14.2669 19.6135 14.297 19.5734C14.3296 19.5282 14.3622 19.4831 14.3973 19.4404C14.4249 19.4053 14.4525 19.3702 14.4801 19.3326C14.5177 19.2849 14.5553 19.2373 14.5929 19.1871C14.6256 19.147 14.6557 19.1068 14.6883 19.0667C14.6908 19.0642 14.6933 19.0592 14.6958 19.0567C14.7259 19.019 14.7535 18.9839 14.7836 18.9463C14.7861 18.9438 14.7886 18.9413 14.7911 18.9388C14.8212 18.9036 14.8488 18.866 14.8789 18.8309C14.909 18.7958 14.9391 18.7582 14.9667 18.7231C14.9842 18.703 14.9993 18.6829 15.0169 18.6628C15.0169 18.6603 15.0194 18.6578 15.0219 18.6578C15.067 18.6052 15.1097 18.5525 15.1548 18.5023C15.1674 18.4873 15.1799 18.4722 15.1924 18.4597C15.225 18.4221 15.2577 18.3844 15.2903 18.3468C15.2928 18.3443 15.2928 18.3443 15.2928 18.3418C15.3229 18.3067 15.3555 18.2716 15.3881 18.2364C15.4006 18.2214 15.4132 18.2063 15.4282 18.1938C15.4533 18.1662 15.4809 18.1361 15.506 18.1085C15.5436 18.0684 15.5812 18.0282 15.6188 17.9881C15.6414 17.9655 15.6615 17.9405 15.6841 17.9179C15.7041 17.8953 15.7267 17.8727 15.7493 17.8502C15.7668 17.8326 15.7844 17.815 15.802 17.795C15.8295 17.7649 15.8596 17.7348 15.8897 17.7047C15.9073 17.6871 15.9249 17.6696 15.9424 17.6495C15.98 17.6119 16.0177 17.5742 16.0528 17.5366C16.0729 17.5166 16.0929 17.494 16.1155 17.4739C16.1431 17.4463 16.1707 17.4187 16.1983 17.3936C16.2108 17.3811 16.2234 17.3686 16.2334 17.3585C16.261 17.3309 16.2886 17.3059 16.3137 17.2783C16.3387 17.2532 16.3638 17.2306 16.3889 17.2055C16.4341 17.1629 16.4792 17.1202 16.5244 17.0776C16.567 17.0375 16.6096 16.9973 16.6523 16.9572C16.6598 16.9522 16.6648 16.9447 16.6723 16.9396C16.71 16.9045 16.7476 16.8694 16.7852 16.8368C16.8028 16.8192 16.8228 16.8042 16.8404 16.7866C16.9232 16.7114 17.0085 16.6386 17.0937 16.5659C17.1163 16.5458 17.1414 16.5258 17.164 16.5057C17.1891 16.4831 17.2141 16.4606 17.2417 16.4405C17.2668 16.4179 17.2944 16.3953 17.3195 16.3728C17.4173 16.29 17.5151 16.2097 17.6155 16.132C17.6581 16.0994 17.7007 16.0642 17.7409 16.0316C17.7534 16.0216 17.7635 16.0141 17.776 16.004C17.8237 15.9664 17.8738 15.9288 17.924 15.8912C17.9591 15.8636 17.9942 15.836 18.0293 15.8109C18.0419 15.8009 18.0569 15.7908 18.0695 15.7808C18.0946 15.7607 18.1196 15.7432 18.1447 15.7231C18.1748 15.7005 18.2049 15.678 18.235 15.6554C18.2451 15.6479 18.2551 15.6403 18.2676 15.6328C18.3128 15.5977 18.3604 15.5651 18.4056 15.5325C18.4131 15.5275 18.4181 15.5224 18.4257 15.5174C18.4758 15.4798 18.5285 15.4447 18.5787 15.4071C18.6263 15.3745 18.6715 15.3418 18.7191 15.3092C18.7517 15.2867 18.7843 15.2641 18.8169 15.2415C18.832 15.2315 18.847 15.2214 18.8621 15.2114C18.8972 15.1888 18.9298 15.1663 18.9649 15.1412C19.0101 15.1111 19.0577 15.081 19.1029 15.0509C19.1556 15.0158 19.2082 14.9832 19.2609 14.948C19.276 14.938 19.291 14.928 19.3061 14.9204C19.3412 14.8979 19.3788 14.8753 19.4164 14.8502C19.434 14.8402 19.4541 14.8276 19.4716 14.8176C19.5143 14.79 19.5594 14.7624 19.6021 14.7373C19.6146 14.7298 19.6296 14.7223 19.6422 14.7123C19.6974 14.6796 19.7526 14.647 19.8077 14.6144C19.8629 14.5818 19.9206 14.5492 19.9758 14.5166C19.9808 14.5141 19.9883 14.5091 19.9933 14.5066C20.041 14.479 20.0887 14.4514 20.1338 14.4263C20.2166 14.3786 20.3019 14.3335 20.3846 14.2884C20.4273 14.2658 20.4674 14.2432 20.5101 14.2206C20.5778 14.1855 20.6455 14.1504 20.7132 14.1153C20.7433 14.1002 20.7759 14.0827 20.806 14.0676C20.8336 14.0526 20.8637 14.0375 20.8938 14.0225C20.939 13.9999 20.9816 13.9773 21.0268 13.9547C21.0468 13.9447 21.0669 13.9347 21.087 13.9246C21.1196 13.9096 21.1522 13.892 21.1848 13.877C21.2149 13.8619 21.245 13.8494 21.2751 13.8343C21.3253 13.8093 21.3779 13.7867 21.4281 13.7641C21.4707 13.744 21.5159 13.724 21.5585 13.7039C21.5786 13.6939 21.6012 13.6838 21.6238 13.6738C21.6589 13.6588 21.6915 13.6437 21.7266 13.6287C21.7341 13.6262 21.7416 13.6211 21.7492 13.6186C21.7717 13.6086 21.7943 13.5986 21.8169 13.5885C21.857 13.571 21.8997 13.5534 21.9423 13.5359C21.9523 13.5308 21.9599 13.5283 21.9699 13.5233C22.0201 13.5032 22.0702 13.4807 22.1204 13.4606C22.2533 13.4054 22.3888 13.3502 22.5242 13.3001C22.5719 13.2825 22.6196 13.265 22.6647 13.2449C22.7374 13.2173 22.8102 13.1897 22.8854 13.1646C22.9381 13.1446 22.9908 13.127 23.046 13.1069C23.1011 13.0869 23.1588 13.0668 23.214 13.0492C23.2366 13.0417 23.2592 13.0342 23.2817 13.0267C23.3244 13.0116 23.367 12.9991 23.4072 12.984C23.4247 12.979 23.4448 12.9715 23.4623 12.9665C23.5125 12.9514 23.5627 12.9339 23.6128 12.9188C23.6154 12.9188 23.6179 12.9163 23.6229 12.9163C23.6806 12.8987 23.7383 12.8787 23.7985 12.8611C23.8035 12.8586 23.811 12.8586 23.816 12.8561C23.8486 12.8461 23.8837 12.836 23.9164 12.826C23.949 12.816 23.9841 12.8059 24.0167 12.7959C24.0493 12.7859 24.0844 12.7758 24.1195 12.7658C24.1546 12.7558 24.1872 12.7457 24.2224 12.7382C24.2901 12.7181 24.3578 12.7006 24.428 12.683C24.4506 12.678 24.4707 12.6705 24.4933 12.6655C24.5209 12.6579 24.5484 12.6504 24.576 12.6429C24.6287 12.6278 24.6839 12.6153 24.7366 12.6028C24.7692 12.5952 24.8018 12.5877 24.8344 12.5802C25.01 12.5375 25.183 12.4974 25.3611 12.4598C25.3963 12.4523 25.4314 12.4447 25.4665 12.4372C25.5091 12.4272 25.5543 12.4197 25.5969 12.4121C25.622 12.4071 25.6496 12.4021 25.6747 12.3971C25.7876 12.3745 25.9004 12.3544 26.0133 12.3344C26.0384 12.3294 26.066 12.3243 26.0911 12.3218C26.1437 12.3118 26.1964 12.3043 26.2491 12.2967C26.2817 12.2917 26.3168 12.2867 26.3494 12.2817C26.372 12.2792 26.3946 12.2742 26.4171 12.2717C26.4472 12.2666 26.4798 12.2616 26.5099 12.2591C26.6554 12.2365 26.8034 12.219 26.9514 12.1989C27.6914 12.1086 28.4464 12.0635 29.2114 12.0635C29.9664 12.0635 30.7139 12.1086 31.4463 12.1964C31.5542 12.209 31.662 12.224 31.7699 12.2391C31.805 12.2441 31.8401 12.2491 31.8777 12.2541C31.9103 12.2591 31.943 12.2641 31.9781 12.2692C32.0132 12.2742 32.0483 12.2792 32.0834 12.2842C32.1085 12.2867 32.1336 12.2917 32.1612 12.2967C32.2164 12.3043 32.2715 12.3143 32.3242 12.3243C32.3543 12.3294 32.3819 12.3344 32.412 12.3394C32.4471 12.3444 32.4822 12.3519 32.5174 12.3569C32.5826 12.3695 32.6453 12.3795 32.7105 12.3921C32.7456 12.3996 32.7807 12.4046 32.8133 12.4121C32.9638 12.4422 33.1143 12.4723 33.2623 12.5074C33.4329 12.5451 33.601 12.5852 33.769 12.6278C33.8041 12.6354 33.8367 12.6454 33.8719 12.6554C33.907 12.663 33.9396 12.673 33.9747 12.683C34.0148 12.6931 34.0524 12.7031 34.0901 12.7131C34.1202 12.7207 34.1503 12.7307 34.1779 12.7382C34.3133 12.7758 34.4488 12.816 34.5842 12.8561C34.6143 12.8661 34.6469 12.8762 34.6795 12.8837C34.7021 12.8912 34.7247 12.8987 34.7473 12.9038C34.7774 12.9138 34.81 12.9238 34.8426 12.9339C34.983 12.979 35.1235 13.0242 35.2615 13.0718C35.2865 13.0793 35.3116 13.0894 35.3367 13.0969C35.3543 13.1019 35.3718 13.1094 35.3894 13.117C35.422 13.1295 35.4546 13.1395 35.4897 13.1521C35.5098 13.1596 35.5298 13.1671 35.5499 13.1747C35.575 13.1847 35.6026 13.1947 35.6277 13.2023C35.6603 13.2148 35.6929 13.2273 35.7255 13.2374C35.7456 13.2449 35.7656 13.2524 35.7832 13.2599C35.8133 13.2725 35.8459 13.2825 35.876 13.2951C36.0741 13.3703 36.2698 13.4506 36.4629 13.5333C36.4855 13.5434 36.5081 13.5534 36.5307 13.5634C36.5733 13.581 36.6134 13.5986 36.6561 13.6186C36.6837 13.6312 36.7113 13.6437 36.7363 13.6537C36.774 13.6688 36.8091 13.6864 36.8467 13.7039C36.8768 13.7165 36.9069 13.7315 36.937 13.7466C36.9696 13.7616 37.0022 13.7767 37.0348 13.7917C37.0649 13.8068 37.095 13.8193 37.1276 13.8343C37.1602 13.8494 37.1929 13.8644 37.2255 13.8795C37.2556 13.8945 37.2882 13.9096 37.3183 13.9246C37.381 13.9547 37.4437 13.9848 37.5064 14.0175C37.6017 14.0651 37.697 14.1153 37.7923 14.1629C37.825 14.1805 37.8551 14.1955 37.8877 14.2131C37.9454 14.2432 38.003 14.2733 38.0607 14.3059C38.1209 14.3385 38.1836 14.3736 38.2438 14.4062C38.299 14.4363 38.3517 14.4664 38.4069 14.4965C38.4194 14.5041 38.432 14.5116 38.4445 14.5191C38.6176 14.6194 38.7881 14.7198 38.9587 14.8251C38.9612 14.8251 38.9612 14.8276 38.9637 14.8276C39.0791 14.9004 39.1945 14.9731 39.3099 15.0484C39.3099 15.0484 39.3124 15.0509 39.3149 15.0509C39.3651 15.0835 39.4152 15.1161 39.4654 15.1487C39.4779 15.1562 39.488 15.1638 39.5005 15.1713C39.5532 15.2064 39.6059 15.2415 39.656 15.2766C39.7137 15.3143 39.7689 15.3544 39.8266 15.3945C39.8768 15.4296 39.9244 15.4647 39.9746 15.4974C39.9896 15.5074 40.0072 15.5199 40.0222 15.5325C40.0548 15.5576 40.09 15.5801 40.1226 15.6052C40.1426 15.6203 40.1602 15.6328 40.1803 15.6479C40.2304 15.6855 40.2781 15.7206 40.3283 15.7582C40.3759 15.7933 40.4211 15.8285 40.4662 15.8636C40.4813 15.8736 40.4938 15.8861 40.5088 15.8962C40.6619 16.0141 40.8124 16.132 40.9629 16.2549C40.9729 16.2649 40.9854 16.2724 40.9955 16.2825C41.0431 16.3226 41.0908 16.3602 41.1359 16.4004C41.2413 16.4881 41.3441 16.5759 41.447 16.6662C41.4495 16.6687 41.4495 16.6687 41.452 16.6712C41.5021 16.7164 41.5523 16.7615 41.605 16.8067C41.6551 16.8518 41.7078 16.8995 41.758 16.9447C41.8056 16.9898 41.8558 17.0324 41.9035 17.0776C41.9085 17.0826 41.9135 17.0851 41.9185 17.0901C41.9612 17.1303 42.0038 17.1704 42.049 17.213C42.0565 17.2181 42.0615 17.2256 42.069 17.2331C42.1167 17.2783 42.1643 17.3234 42.2095 17.3711C42.2597 17.4187 42.3073 17.4664 42.355 17.5166C42.4026 17.5642 42.4528 17.6144 42.5005 17.662C42.5481 17.7122 42.5958 17.7599 42.6434 17.81C42.6911 17.8602 42.7387 17.9104 42.7864 17.9605C42.8315 18.0082 42.8767 18.0558 42.9193 18.106C42.9218 18.1085 42.9244 18.1135 42.9294 18.116C42.972 18.1637 43.0147 18.2114 43.0573 18.2565C43.0824 18.2841 43.1075 18.3142 43.1325 18.3418C43.1551 18.3669 43.1777 18.392 43.1978 18.417C43.2003 18.4195 43.2028 18.4221 43.2053 18.4246C43.2705 18.4998 43.3357 18.5776 43.4009 18.6528C43.4461 18.7055 43.4887 18.7582 43.5339 18.8108C43.5539 18.8359 43.574 18.8585 43.5941 18.8836C43.5991 18.8886 43.6041 18.8936 43.6066 18.8986C43.6442 18.9438 43.6819 18.9914 43.717 19.0366C43.7421 19.0667 43.7671 19.0993 43.7922 19.1319C43.8349 19.1871 43.8775 19.2398 43.9202 19.2949C44.0054 19.4028 44.0882 19.5132 44.1685 19.626C44.2086 19.6787 44.2462 19.7314 44.2839 19.7841C44.2864 19.7891 44.2914 19.7941 44.2939 19.7966C44.314 19.8217 44.3315 19.8493 44.3516 19.8769C44.3892 19.927 44.4243 19.9797 44.4594 20.0299C44.5222 20.1202 44.5849 20.2105 44.6476 20.3033C44.6676 20.3309 44.6852 20.361 44.7053 20.3886C44.763 20.4739 44.8181 20.5616 44.8758 20.6494C44.8959 20.6795 44.9134 20.7096 44.9335 20.7397C44.9787 20.81 45.0213 20.8802 45.0639 20.9529C45.0865 20.9881 45.1066 21.0232 45.1292 21.0608C45.1894 21.1611 45.2496 21.2615 45.3073 21.3618C45.3248 21.3894 45.3399 21.4195 45.3574 21.4471C45.3825 21.4922 45.4076 21.5349 45.4327 21.58C45.4527 21.6151 45.4728 21.6503 45.4904 21.6854C45.5154 21.728 45.538 21.7707 45.5606 21.8133C45.5631 21.8158 45.5631 21.8183 45.5656 21.8208C45.5882 21.861 45.6082 21.9011 45.6308 21.9412C45.7111 22.0917 45.7863 22.2422 45.8616 22.3927C45.8792 22.4278 45.8967 22.4655 45.9143 22.5006C45.9193 22.5106 45.9218 22.5181 45.9268 22.5282C45.9494 22.5733 45.9694 22.616 45.9895 22.6586C46.0121 22.7063 46.0347 22.7539 46.0572 22.8016C46.0723 22.8317 46.0873 22.8643 46.0999 22.8944C46.1049 22.9069 46.1099 22.917 46.1174 22.9295C46.1275 22.9521 46.1375 22.9746 46.1475 22.9972C46.1601 23.0273 46.1751 23.0574 46.1877 23.0875C46.2102 23.1352 46.2303 23.1828 46.2504 23.2305C46.2704 23.2781 46.2905 23.3258 46.3106 23.371C46.3332 23.4236 46.3557 23.4763 46.3783 23.5315C46.3959 23.5766 46.4159 23.6218 46.4335 23.6669C46.451 23.7096 46.4686 23.7522 46.4837 23.7949C46.4862 23.8049 46.4912 23.8124 46.4937 23.8225C46.5112 23.8676 46.5313 23.9153 46.5489 23.9604C46.5639 24.0031 46.5815 24.0457 46.5965 24.0883C46.6015 24.1009 46.6066 24.1134 46.6116 24.126C46.6266 24.1686 46.6442 24.2137 46.6592 24.2564C46.6768 24.3066 46.6944 24.3567 46.7119 24.4044C46.7445 24.4972 46.7771 24.5875 46.8072 24.6803C46.8273 24.738 46.8448 24.7957 46.8649 24.8559C46.8775 24.8985 46.8925 24.9412 46.905 24.9813C46.9076 24.9888 46.9101 24.9989 46.9126 25.0064C46.9427 25.0992 46.9703 25.1895 46.9979 25.2823C47.0029 25.2948 47.0054 25.3099 47.0104 25.3224L47.043 25.4353C47.0631 25.503 47.0806 25.5682 47.1007 25.636C47.1132 25.6811 47.1258 25.7263 47.1383 25.7714C47.1534 25.8241 47.1659 25.8743 47.1785 25.9269C47.191 25.9796 47.206 26.0298 47.2186 26.0824C47.2286 26.1251 47.2387 26.1652 47.2487 26.2053C47.2637 26.2681 47.2788 26.3308 47.2938 26.3935C47.3039 26.4336 47.3139 26.4762 47.3214 26.5164C47.3239 26.5264 47.3264 26.539 47.329 26.549C47.339 26.5941 47.349 26.6418 47.3591 26.6869C47.3741 26.7547 47.3866 26.8199 47.4017 26.8876C47.4117 26.9328 47.4193 26.9779 47.4293 27.0231C47.4418 27.0808 47.4519 27.1359 47.4619 27.1936C47.4719 27.2438 47.4795 27.2914 47.4895 27.3416C47.4995 27.3943 47.507 27.447 47.5171 27.4996C47.5171 27.5021 47.5171 27.5047 47.5171 27.5047C47.5271 27.5573 47.5346 27.61 47.5422 27.6602C47.5422 27.6652 47.5447 27.6702 47.5447 27.6727C47.5522 27.7229 47.5597 27.7705 47.5672 27.8207C47.5748 27.8734 47.5823 27.9286 47.5898 27.9812C47.5999 28.0439 47.6074 28.1067 47.6149 28.1694C47.6199 28.2045 47.6249 28.2421 47.63 28.2772C47.64 28.35 47.6475 28.4202 47.655 28.4929C47.6601 28.5381 47.6651 28.5857 47.6701 28.6309C47.6701 28.6334 47.6701 28.6359 47.6701 28.6409C47.6751 28.6886 47.6801 28.7337 47.6851 28.7814C47.6851 28.7914 47.6876 28.8015 47.6876 28.814C47.6902 28.8441 47.6927 28.8767 47.6952 28.9068C47.6977 28.9269 47.6977 28.9469 47.7002 28.967C47.7027 29.0046 47.7052 29.0397 47.7102 29.0749C47.7127 29.1025 47.7152 29.1275 47.7152 29.1526C47.7177 29.1978 47.7228 29.2404 47.7253 29.2856C47.7278 29.3257 47.7303 29.3658 47.7328 29.4085C47.7353 29.4361 47.7353 29.4611 47.7378 29.4887C47.7428 29.569 47.7478 29.6493 47.7504 29.732C47.7504 29.7371 47.7504 29.7396 47.7504 29.7421C47.7529 29.7646 47.7529 29.7872 47.7529 29.8098C47.7554 29.8424 47.7554 29.875 47.7579 29.9101C47.7579 29.9377 47.7604 29.9653 47.7604 29.9929C47.7604 30.0255 47.7629 30.0581 47.7629 30.0882C47.7629 30.1133 47.7629 30.1384 47.7654 30.161C47.7654 30.2036 47.7679 30.2488 47.7679 30.2914C47.7679 30.3441 47.7704 30.3942 47.7704 30.4469V30.4494C47.783 30.4971 47.783 30.5523 47.783 30.6074Z" fill="white" stroke="black" stroke-width="2" mask="url(#path-2-inside-1_1241_7068)"/>
<path d="M40.9482 44.7054L40.9483 44.7052C41.8861 42.4835 42.5291 39.974 42.8002 37.2845C42.8939 36.3452 42.9432 35.3837 42.9432 34.4073C42.9432 33.7935 42.9235 33.1848 42.8841 32.5839L42.884 32.5827C42.4317 25.413 39.3425 19.4059 35.1133 16.4986L35.1132 16.4986C33.9635 15.708 32.729 15.1462 31.4387 14.8481L31.4386 14.848C30.7379 14.686 30.0182 14.6025 29.2838 14.6025C28.5005 14.6025 27.733 14.7001 26.9855 14.884C25.788 15.1798 24.6398 15.7035 23.5625 16.4265C19.2795 19.3012 16.1432 25.3409 15.681 32.568L15.681 32.5686C15.6416 33.1746 15.6218 33.7859 15.6218 34.4073C15.6218 35.3539 15.6687 36.2832 15.7574 37.1955L40.9482 44.7054ZM40.9482 44.7054C38.7636 49.8873 35.0215 53.4263 30.7693 54.0952M40.9482 44.7054L30.7693 54.0952M30.7693 54.0952C30.2794 54.1717 29.7859 54.2121 29.2838 54.2121H29.2837H29.2836H29.2836H29.2835H29.2835H29.2834H29.2834H29.2833H29.2832H29.2832H29.2831H29.2831H29.283H29.2829H29.2829H29.2828H29.2828H29.2827H29.2826H29.2826H29.2825H29.2825H29.2824H29.2824H29.2823H29.2822H29.2822H29.2821H29.2821H29.282H29.2819H29.2819H29.2818H29.2818H29.2817H29.2817H29.2816H29.2815H29.2815H29.2814H29.2814H29.2813H29.2812H29.2812H29.2811H29.2811H29.281H29.2809H29.2809H29.2808H29.2808H29.2807H29.2807H29.2806H29.2805H29.2805H29.2804H29.2804H29.2803H29.2802H29.2802H29.2801H29.2801H29.28H29.28H29.2799H29.2798H29.2798H29.2797H29.2797H29.2796H29.2795H29.2795H29.2794H29.2794H29.2793H29.2792H29.2792H29.2791H29.2791H29.279H29.279H29.2789H29.2788H29.2788H29.2787H29.2787H29.2786H29.2785H29.2785H29.2784H29.2784H29.2783H29.2783H29.2782H29.2781H29.2781H29.278H29.278H29.2779H29.2778H29.2778H29.2777H29.2777H29.2776H29.2776H29.2775H29.2774H29.2774H29.2773H29.2773H29.2772H29.2772H29.2771H29.277H29.277H29.2769H29.2769H29.2768H29.2767H29.2767H29.2766H29.2766H29.2765H29.2765H29.2764H29.2763H29.2763H29.2762H29.2762H29.2761H29.276H29.276H29.2759H29.2759H29.2758H29.2758H29.2757H29.2756H29.2756H29.2755H29.2755H29.2754H29.2754H29.2753H29.2752H29.2752H29.2751H29.2751H29.275H29.275H29.2749H29.2748H29.2748H29.2747H29.2747H29.2746H29.2746H29.2745H29.2744H29.2744H29.2743H29.2743H29.2742H29.2742H29.2741H29.274H29.274H29.2739H29.2739H29.2738H29.2738H29.2737H29.2736H29.2736H29.2735H29.2735H29.2734H29.2734H29.2733H29.2732H29.2732H29.2731H29.2731H29.273H29.273H29.2729H29.2728H29.2728H29.2727H29.2727H29.2726H29.2726H29.2725H29.2724H29.2724H29.2723H29.2723H29.2722H29.2722H29.2721H29.272H29.272H29.2719H29.2719H29.2718H29.2718H29.2717H29.2717H29.2716H29.2715H29.2715H29.2714H29.2714H29.2713H29.2713H29.2712H29.2711H29.2711H29.271H29.271H29.2709H29.2709H29.2708H29.2708H29.2707H29.2706H29.2706H29.2705H29.2705H29.2704H29.2704H29.2703H29.2703H29.2702H29.2701H29.2701H29.27H29.27H29.2699H29.2699H29.2698H29.2697H29.2697H29.2696H29.2696H29.2695H29.2695H29.2694H29.2694H29.2693H29.2693H29.2692H29.2691H29.2691H29.269H29.269H29.2689H29.2689H29.2688H29.2688H29.2687H29.2686H29.2686H29.2685H29.2685H29.2684H29.2684H29.2683H29.2683H29.2682H29.2682H29.2681H29.268H29.268H29.2679H29.2679H29.2678H29.2678H29.2677H29.2677H29.2676H29.2676H29.2675H29.2674H29.2674H29.2673H29.2673H29.2672H29.2672H29.2671H29.2671H29.267H29.267H29.2669H29.2669H29.2668H29.2667H29.2667H29.2666H29.2666H29.2665H29.2665H29.2664H29.2664H29.2663H29.2663H29.2662H29.2662H29.2661H29.266H29.266H29.2659H29.2659H29.2658H29.2658H29.2657H29.2657H29.2656H29.2656H29.2655H29.2655H29.2654H29.2654H29.2653H29.2653H29.2652H29.2651H29.2651H29.265H29.265H29.2649H29.2649H29.2648H29.2648H29.2647H29.2647H29.2646H29.2646H29.2645H29.2645H29.2644H29.2644H29.2643H29.2643H29.2642H29.2641H29.2641H29.264H29.264H29.2639H29.2639H29.2638H29.2638H29.2637H29.2637H29.2636H29.2636H29.2635H29.2635H29.2634H29.2634H29.2633H29.2633H29.2632H29.2632H29.2631H29.2631H29.263H29.263H29.2629H29.2629H29.2628H29.2628H29.2627H29.2627H29.2626H29.2626H29.2625H29.2625H29.2624H29.2624H29.2623H29.2623H29.2622H29.2621H29.2621H29.262H29.262H29.2619H29.2619H29.2618H29.2618H29.2617H29.2617H29.2616H29.2616H29.2615H29.2615H29.2614H29.2614H29.2613H29.2613H29.2612H29.2612H29.2612H29.2611H29.2611H29.261H29.261H29.2609H29.2609H29.2608H29.2608H29.2607H29.2607H29.2606H29.2606H29.2605H29.2605H29.2604H29.2604H29.2603H29.2603H29.2602H29.2602H29.2601H29.2601H29.26H29.26H29.2599H29.2599H29.2598H29.2598H29.2597H29.2597H29.2596H29.2596H29.2595H29.2595H29.2594H29.2594H29.2593H29.2593H29.2593H29.2592H29.2592H29.2591H29.2591H29.259H29.259H29.2589H29.2589H29.2588H29.2588H29.2587H29.2587H29.2586H29.2586H29.2585H29.2585H29.2585H29.2584H29.2584H29.2583H29.2583H29.2582H29.2582H29.2581H29.2581H29.258H29.258H29.2579H29.2579H29.2578H29.2578H29.2578H29.2577H29.2577H29.2576H29.2576H29.2575H29.2575H29.2574H29.2574H29.2573H29.2573H29.2573H29.2572H29.2572H29.2571H29.2571H29.257H29.257H29.2569H29.2569H29.2568H29.2568H29.2568H29.2567H29.2567H29.2566H29.2566H29.2565H29.2565H29.2564H29.2564L30.7693 54.0952ZM29.2564 54.2121C24.3288 54.1972 19.9177 50.3576 17.5089 44.4404L29.2564 54.2121ZM17.5088 44.4402C16.6223 42.2594 16.0138 39.811 15.7574 37.1956L17.5088 44.4402Z" fill="white" stroke="black"/>
<path fill-rule="evenodd" clip-rule="evenodd" d="M31.4564 12.1789C40.6541 13.2828 47.7824 21.1137 47.7824 30.6074C47.7824 31.2275 47.7524 31.843 47.6926 32.4494C47.688 32.4959 47.6517 32.5328 47.6054 32.5383C46.8908 32.6223 46.1623 32.6642 45.4246 32.6642C38.5182 32.6642 32.4933 28.892 29.2967 23.2967C29.2579 23.2287 29.1593 23.2287 29.1205 23.2967C25.9239 28.892 19.899 32.6642 12.9926 32.6642C12.2649 32.6642 11.5441 32.6223 10.8371 32.5406C10.7907 32.5353 10.7543 32.4983 10.7497 32.4518C10.6898 31.8454 10.6599 31.2298 10.6599 30.6074C10.6599 21.1212 17.7757 13.2979 26.9608 12.1814C26.9608 12.1814 26.9609 12.1814 26.9609 12.1814C26.9609 12.1814 26.9609 12.1813 26.9609 12.1813C27.7008 12.091 28.4558 12.0459 29.2209 12.0459C29.9759 12.0459 30.7233 12.091 31.4558 12.1788C31.456 12.1789 31.4562 12.1789 31.4564 12.1789Z" fill="white"/>
<path fill-rule="evenodd" clip-rule="evenodd" d="M29.7967 24.1214C33.0975 29.2595 38.8238 32.9113 45.3852 32.9113C45.6237 32.9113 47.6357 33.0628 47.6644 32.7721C47.7243 32.1656 47.7824 31.2275 47.7824 30.6074C47.7824 21.1137 40.6541 13.2828 31.4564 12.1789C30.7239 12.0911 29.9759 12.0459 29.2209 12.0459C28.4558 12.0459 27.7008 12.091 26.9609 12.1813C17.7758 13.2978 10.6599 21.1212 10.6599 30.6074C10.6599 31.2298 10.6898 31.8454 10.7497 32.4518C10.778 32.7389 12.7284 32.9113 12.9926 32.9113C19.554 32.9113 25.3197 29.2595 28.6205 24.1214C28.6336 24.101 28.6466 24.0806 28.6596 24.0601C29.2543 23.1264 29.4456 23.5703 29.7576 24.0601C29.7706 24.0806 29.7836 24.101 29.7967 24.1214ZM31.3371 13.1718C30.6442 13.0887 29.9361 13.0459 29.2209 13.0459C28.4992 13.0459 27.7887 13.0882 27.0938 13.1725C27.0897 13.1731 27.0856 13.1736 27.0815 13.1741C18.392 14.2303 11.6599 21.633 11.6599 30.6074C11.6599 30.9465 11.6693 31.283 11.688 31.6166C12.1189 31.6482 12.5544 31.6642 12.9926 31.6642C19.5256 31.6642 25.2264 28.0971 28.2522 22.8006C28.6749 22.0608 29.7423 22.0607 30.165 22.8006C33.1908 28.0971 38.8916 31.6642 45.4246 31.6642C45.8724 31.6642 46.316 31.6479 46.7543 31.6154C46.773 31.2817 46.7824 30.9454 46.7824 30.6074C46.7824 21.626 40.038 14.2163 31.3371 13.1718Z" fill="black"/>
<path d="M12.55 30.4604C14.4491 24.272 20.6286 17.5484 25.8285 14.0534C25.9242 13.9891 25.8539 13.8397 25.7437 13.8739C18.0956 16.254 13.2274 21.5509 12.322 30.4192C12.3095 30.5422 12.5138 30.5786 12.55 30.4604Z" fill="#CAC9C9"/>
<path d="M13.619 38.4884C13.2476 38.056 12.3119 35.0495 12.1533 33.4296C12.1499 33.3953 12.165 33.3597 12.1992 33.3557C12.3583 33.3369 12.6499 33.6077 12.7862 33.831C12.9363 34.0772 13.5968 36.3902 13.9611 37.8362C13.9716 37.8778 13.9578 37.9262 13.9423 37.9663C13.8863 38.1113 13.8246 38.456 13.682 38.5082C13.659 38.5167 13.6351 38.5071 13.619 38.4884Z" fill="#CAC9C9"/>
<path d="M41.124 9.48891C37.2794 8.9163 34.7907 16.7622 33.8533 21.5501C33.748 22.088 34.112 22.5979 34.648 22.712C37.5978 23.3398 40.021 24.3216 41.3056 24.9537C41.6659 25.131 42.0965 25.1035 42.4124 24.8555C45.6753 22.2938 51.31 17.3687 51.31 15.2937C51.091 13.7604 46.272 10.2556 41.124 9.48891Z" fill="white" stroke="black" stroke-linecap="round"/>
<g style="mix-blend-mode:multiply">
<path d="M36.814 14.5381L35.9316 15.8302C35.8715 15.9182 35.8259 16.0152 35.7964 16.1176L34.274 21.409C34.1188 21.9482 34.4375 22.5094 34.9799 22.6525L41.6585 24.4139C41.8799 24.4723 42.1156 24.4378 42.311 24.3184L44.4048 23.0388C44.9593 22.6999 44.5687 21.8488 43.9502 22.0483C43.5163 22.1883 43.1116 21.769 43.2698 21.3414C43.6444 20.3289 44.0677 19.2214 44.1187 19.2214H41.3712C40.7416 19.2214 40.2687 18.6465 40.3901 18.0286L40.7052 16.4242C40.8391 15.7428 40.0273 15.2842 39.5127 15.7505C39.049 16.1708 38.3067 15.8418 38.3067 15.216V14.9992C38.3067 14.195 37.2675 13.874 36.814 14.5381Z" fill="#CAC9C9"/>
</g>
<path d="M38.6396 22.4159C38.0078 20.4532 43.4337 12.6852 43.6914 12.3523C44.1496 13.1918 44.9817 15.0707 44.6447 15.87C44.2233 16.869 39.2714 24.3786 38.6396 22.4159Z" fill="black" stroke="black" stroke-linecap="round"/>
<path d="M42.7427 20.878C39.851 19.3462 39.6895 12.9841 39.9452 10.2396C40.5823 8.90242 43.1742 9.42771 46.7665 10.7297C51.7588 12.5392 53.5861 16.2826 53.148 17.3357C52.7099 18.3889 46.3574 22.7928 42.7427 20.878Z" fill="white" stroke="black" stroke-linecap="round"/>
<path d="M8.39612 12.6923C7.36832 15.0045 14.121 21.9451 18.0634 25.537C18.3663 25.8129 18.8047 25.8703 19.1687 25.682C20.5116 24.9877 22.8574 23.7178 25.0426 22.3611C25.3251 22.1857 25.5048 21.8829 25.4707 21.5521C25.0272 17.2446 18.4998 6.84919 17.0008 6.09962C15.4365 5.31743 9.73722 9.67535 8.39612 12.6923Z" fill="white" stroke="black" stroke-linecap="round"/>
<g style="mix-blend-mode:multiply">
<path d="M13.3872 20.6376L17.725 25.217C18.0267 25.5354 18.4997 25.6213 18.8907 25.4224C21.4443 24.1229 25.4952 21.8597 25.3661 21.0851C25.2668 20.4894 24.0541 17.6435 22.9355 15.1105C22.6435 14.4492 21.6674 14.659 21.6674 15.3819C21.6674 15.9849 20.9349 16.2829 20.5139 15.8512L20.116 15.4432C19.5105 14.8222 18.4628 15.3277 18.5719 16.1882L18.6069 16.4639C18.7314 17.4456 17.5044 17.9897 16.8604 17.2384L16.5576 16.885C15.9534 16.1801 14.7983 16.6074 14.7983 17.5358V18.9477C14.7983 19.3636 14.409 19.6698 14.0048 19.5718C13.3829 19.4211 12.9472 20.1731 13.3872 20.6376Z" fill="#CAC9C9"/>
</g>
<path d="M20.1277 22.7305C17.7727 22.251 12.8671 11.7034 12.6709 11.2239C13.7829 11.2239 16.1639 11.4349 16.7918 12.2787C17.5768 13.3335 22.4826 23.21 20.1277 22.7305Z" fill="black" stroke="black" stroke-linecap="round"/>
<path d="M15.1536 15.0485C13.0495 16.7217 9.45356 14.7988 8.04352 13.7257C7.57899 12.819 8.99508 11.0471 11.2759 8.77543C14.4455 5.61862 17.3132 5.45296 17.7067 6.11931C18.1002 6.78567 17.7837 12.9571 15.1536 15.0485Z" fill="white" stroke="black" stroke-linecap="round"/>
<path fill-rule="evenodd" clip-rule="evenodd" d="M15.6757 43.6937C15.7706 43.2628 16.4332 43.3852 16.8641 43.4801L22.75 44.434C23.1808 44.5289 23.4532 44.9551 23.3583 45.386C23.2634 45.8168 22.8371 46.0892 22.4063 45.9942L16.4699 44.434C16.039 44.3391 15.5808 44.1245 15.6757 43.6937Z" fill="black"/>
<path fill-rule="evenodd" clip-rule="evenodd" d="M14.2833 49.332C14.2041 49.0877 14.7231 48.6859 15.1469 48.5635L20.8522 46.6037C21.2761 46.4813 21.7189 46.7257 21.8413 47.1496C21.9637 47.5734 21.7193 48.0163 21.2954 48.1387L15.3481 49.4822C14.9242 49.6046 14.3626 49.5763 14.2833 49.332Z" fill="black"/>
<path fill-rule="evenodd" clip-rule="evenodd" d="M17.3764 53.3694C17.2513 53.2592 17.5838 52.7262 17.9221 52.4429L22.4132 48.2264C22.7515 47.9431 23.1926 47.8881 23.476 48.2264C23.7595 48.5647 23.6375 48.9579 23.2993 49.2412L18.2552 53.0662C17.9169 53.3495 17.5015 53.4795 17.3764 53.3694Z" fill="black"/>
<path fill-rule="evenodd" clip-rule="evenodd" d="M42.7674 43.6937C42.6725 43.2628 42.0099 43.3852 41.579 43.4801L35.6931 44.434C35.2623 44.5289 34.9899 44.9551 35.0849 45.386C35.1798 45.8168 35.606 46.0892 36.0368 45.9942L41.9733 44.434C42.4041 44.3391 42.8623 44.1245 42.7674 43.6937Z" fill="black"/>
<path fill-rule="evenodd" clip-rule="evenodd" d="M44.1598 49.332C44.239 49.0877 43.7201 48.6859 43.2962 48.5635L37.5909 46.6037C37.1671 46.4813 36.7242 46.7257 36.6018 47.1496C36.4794 47.5734 36.7238 48.0163 37.1477 48.1387L43.095 49.4822C43.5189 49.6046 44.0806 49.5763 44.1598 49.332Z" fill="black"/>
<path fill-rule="evenodd" clip-rule="evenodd" d="M41.0667 53.3694C41.1918 53.2592 40.8593 52.7262 40.5211 52.4429L36.0299 48.2264C35.6916 47.9431 35.2505 47.8881 34.9671 48.2264C34.6836 48.5647 34.8056 48.9579 35.1438 49.2412L40.1879 53.0662C40.5262 53.3495 40.9416 53.4795 41.0667 53.3694Z" fill="black"/>
<path d="M27.3189 44.5435C25.2597 44.7496 27.7369 47.0715 28.9775 47.0715C30.2181 47.0715 31.791 45.181 31.1116 44.7499C30.8246 44.5678 29.8929 44.286 27.3189 44.5435Z" fill="black"/>
<path d="M48.6436 19.0751C46.3516 18.6502 43.6881 16.6414 42.2491 14.8826C42.1934 14.8145 42.0819 14.8475 42.0704 14.9347C41.4128 19.9519 44.1111 21.2123 48.668 19.2761C48.7617 19.2363 48.7437 19.0937 48.6436 19.0751Z" fill="#CAC9C9"/>
<path d="M15.4718 11.4925C14.6794 12.5537 13.0919 13.4455 11.8543 13.8113C11.7699 13.8363 11.7541 13.9507 11.8299 13.9954C14.2954 15.448 15.5917 14.3451 15.6701 11.5549C15.6729 11.4532 15.5327 11.411 15.4718 11.4925Z" fill="#CAC9C9"/>
<g filter="url(#filter1_d_1241_7068)">
<circle cx="22.2631" cy="36.5405" r="5.36666" fill="white"/>
<circle cx="20.3091" cy="37.4947" r="1.95267" fill="black"/>
<path fill-rule="evenodd" clip-rule="evenodd" d="M22.2622 41.4263C24.9798 41.4263 27.1828 39.2233 27.1828 36.5057C27.1828 33.7881 24.9798 31.5851 22.2622 31.5851C19.5447 31.5851 17.3416 33.7881 17.3416 36.5057C17.3416 39.2233 19.5447 41.4263 22.2622 41.4263ZM22.2622 42.5023C26.6215 42.5023 29.5205 39.8175 29.5205 36.5057C29.5205 32.4801 26.382 29.7261 23.0701 29.7261C19.7583 29.7261 16.2656 33.1939 16.2656 36.5057C16.2656 39.8175 18.9504 42.5023 22.2622 42.5023Z" fill="black"/>
</g>
<g filter="url(#filter2_d_1241_7068)">
<circle cx="36.0433" cy="34.9078" r="4.45921" fill="white"/>
<path fill-rule="evenodd" clip-rule="evenodd" d="M35.9631 39.0947C38.1419 39.0947 39.9082 37.3283 39.9082 35.1496C39.9082 32.9708 38.1419 31.2044 35.9631 31.2044C33.7842 31.2044 32.0179 32.9708 32.0179 35.1496C32.0179 37.3283 33.7842 39.0947 35.9631 39.0947ZM35.9631 40.1459C38.7225 40.1459 40.9594 37.9089 40.9594 35.1496C40.9594 32.3902 38.2304 29.4711 35.471 29.4711C32.7116 29.4711 30.121 32.1084 30.121 34.8678C30.121 37.6271 33.2036 40.1459 35.9631 40.1459Z" fill="black"/>
<circle cx="36.8917" cy="36.4964" r="1.90768" fill="black"/>
</g>
</g>
<defs>
<filter id="filter0_d_1241_7068" x="6.45544" y="5.30219" width="47.2553" height="50.9102" filterUnits="userSpaceOnUse" color-interpolation-filters="sRGB">
<feFlood flood-opacity="0" result="BackgroundImageFix"/>
<feColorMatrix in="SourceAlpha" type="matrix" values="0 0 0 0 0 0 0 0 0 0 0 0 0 0 0 0 0 0 127 0" result="hardAlpha"/>
<feOffset dx="-1" dy="1.5"/>
<feComposite in2="hardAlpha" operator="out"/>
<feColorMatrix type="matrix" values="0 0 0 0 0 0 0 0 0 0 0 0 0 0 0 0 0 0 0.25 0"/>
<feBlend mode="normal" in2="BackgroundImageFix" result="effect1_dropShadow_1241_7068"/>
<feBlend mode="normal" in="SourceGraphic" in2="effect1_dropShadow_1241_7068" result="shape"/>
</filter>
<filter id="filter1_d_1241_7068" x="15.2656" y="29.7261" width="14.2549" height="13.7762" filterUnits="userSpaceOnUse" color-interpolation-filters="sRGB">
<feFlood flood-opacity="0" result="BackgroundImageFix"/>
<feColorMatrix in="SourceAlpha" type="matrix" values="0 0 0 0 0 0 0 0 0 0 0 0 0 0 0 0 0 0 127 0" result="hardAlpha"/>
<feOffset dx="-1" dy="1"/>
<feComposite in2="hardAlpha" operator="out"/>
<feColorMatrix type="matrix" values="0 0 0 0 0 0 0 0 0 0 0 0 0 0 0 0 0 0 0.25 0"/>
<feBlend mode="normal" in2="BackgroundImageFix" result="effect1_dropShadow_1241_7068"/>
<feBlend mode="normal" in="SourceGraphic" in2="effect1_dropShadow_1241_7068" result="shape"/>
</filter>
<filter id="filter2_d_1241_7068" x="29.121" y="29.4711" width="11.8384" height="11.6748" filterUnits="userSpaceOnUse" color-interpolation-filters="sRGB">
<feFlood flood-opacity="0" result="BackgroundImageFix"/>
<feColorMatrix in="SourceAlpha" type="matrix" values="0 0 0 0 0 0 0 0 0 0 0 0 0 0 0 0 0 0 127 0" result="hardAlpha"/>
<feOffset dx="-1" dy="1"/>
<feComposite in2="hardAlpha" operator="out"/>
<feColorMatrix type="matrix" values="0 0 0 0 0 0 0 0 0 0 0 0 0 0 0 0 0 0 0.25 0"/>
<feBlend mode="normal" in2="BackgroundImageFix" result="effect1_dropShadow_1241_7068"/>
<feBlend mode="normal" in="SourceGraphic" in2="effect1_dropShadow_1241_7068" result="shape"/>
</filter>
</defs>
</svg>
