<svg width="61" height="61" viewBox="0 0 61 61" fill="none" xmlns="http://www.w3.org/2000/svg">
<circle cx="30.1052" cy="30.6275" r="29.0001" fill="white" stroke="white" stroke-width="2"/>
<g filter="url(#filter0_d_1241_5606)">
<path d="M38.9002 42.4165C38.9002 46.4304 35.6463 49.6843 31.6324 49.6843C27.6184 49.6843 24.3645 46.4304 24.3645 42.4165C24.3645 39.2787 28.8059 30.9955 30.7447 27.529C31.1367 26.8283 32.128 26.8283 32.52 27.529C34.4588 30.9955 38.9002 39.2787 38.9002 42.4165Z" fill="white"/>
<path fill-rule="evenodd" clip-rule="evenodd" d="M31.6324 48.2098C35.0667 48.2098 37.8507 45.8508 37.8507 42.4165C37.8507 41.8222 37.6274 40.8595 37.1857 39.6018C36.7551 38.3755 36.1551 36.9723 35.4863 35.5401C34.1624 32.7056 32.5993 30.5465 31.6324 28.816C30.6654 30.5465 29.1023 32.7056 27.7785 35.5401C27.1096 36.9723 26.5096 38.3755 26.079 39.6018C25.6373 40.8595 25.414 41.8222 25.414 42.4165C25.414 45.8508 28.1981 48.2098 31.6324 48.2098ZM31.6324 49.6843C35.6463 49.6843 38.9002 46.4304 38.9002 42.4165C38.9002 39.2787 34.4588 30.9955 32.52 27.529C32.128 26.8283 31.1367 26.8283 30.7447 27.529C28.8059 30.9955 24.3645 39.2787 24.3645 42.4165C24.3645 46.4304 27.6184 49.6843 31.6324 49.6843Z" fill="black"/>
<path d="M35.6878 41.9253C35.6878 44.1645 33.8725 45.9798 31.6332 45.9798C29.3939 45.9798 27.5786 44.1645 27.5786 41.9253C27.5786 40.3588 29.5628 36.4937 30.7551 34.3125C31.1402 33.6079 32.1262 33.6079 32.5113 34.3125C33.7036 36.4937 35.6878 40.3588 35.6878 41.9253Z" fill="#CAC9C9"/>
<path fill-rule="evenodd" clip-rule="evenodd" d="M31.6332 44.4578C33.2928 44.4578 34.6383 43.5849 34.6383 41.9253C34.6383 41.7099 34.5605 41.3074 34.363 40.7122C34.1739 40.1422 33.9042 39.4798 33.5894 38.7798C32.9757 37.4146 32.2185 35.9678 31.6332 34.8942C31.0479 35.9678 30.2907 37.4146 29.6769 38.7797C29.3622 39.4798 29.0925 40.1422 28.9034 40.7122C28.7059 41.3074 28.6281 41.7099 28.6281 41.9253C28.6281 43.5849 29.9735 44.4578 31.6332 44.4578ZM31.6332 45.9798C33.8725 45.9798 35.6878 44.1645 35.6878 41.9253C35.6878 40.3588 33.7036 36.4937 32.5113 34.3125C32.1262 33.6079 31.1402 33.6079 30.7551 34.3125C29.5628 36.4937 27.5786 40.3588 27.5786 41.9253C27.5786 44.1645 29.3939 45.9798 31.6332 45.9798Z" fill="black"/>
<path d="M34.7531 25.4149C34.7531 27.1384 33.3559 28.5357 31.6323 28.5357C29.9087 28.5357 28.5115 27.1384 28.5115 25.4149C28.5115 23.6913 29.9087 22.2941 31.6323 22.2941C33.3559 22.2941 34.7531 23.6913 34.7531 25.4149Z" fill="white"/>
<path fill-rule="evenodd" clip-rule="evenodd" d="M30.9342 23.8356C31.158 23.7105 31.425 23.6182 31.674 23.6182C31.6998 23.6182 31.7259 23.6182 31.7519 23.6184C32.1611 23.6211 32.0343 23.9888 31.6871 24.2053C30.7934 24.7626 30.6767 25.329 30.9247 25.9461C31.1419 26.4867 30.84 27.0977 30.4956 26.6279C30.1919 26.2137 29.9411 25.7751 29.9166 25.3896C29.8918 25.0007 30.098 24.6991 30.28 24.429C30.4587 24.1637 30.6996 23.9669 30.9342 23.8356Z" fill="#CAC9C9"/>
<path fill-rule="evenodd" clip-rule="evenodd" d="M31.6344 27.2745C32.7784 27.2745 33.5198 26.5588 33.5198 25.4149C33.5198 24.2709 32.7784 23.3436 31.6344 23.3436C30.4904 23.3436 29.5631 24.2709 29.5631 25.4149C29.5631 26.5588 30.4904 27.2745 31.6344 27.2745ZM31.6344 28.5357C33.358 28.5357 34.7552 27.1384 34.7552 25.4149C34.7552 23.6913 33.358 22.2941 31.6344 22.2941C29.9108 22.2941 28.5135 23.6913 28.5135 25.4149C28.5135 27.1384 29.9108 28.5357 31.6344 28.5357Z" fill="black"/>
<path fill-rule="evenodd" clip-rule="evenodd" d="M30.8776 11.0106C31.7298 11.7839 32.2805 12.9215 32.2805 14.374V22.7102C32.2805 23 32.0455 23.2349 31.7557 23.2349C31.4659 23.2349 31.231 23 31.231 22.7102V14.374C31.231 13.2061 30.797 12.3546 30.1724 11.7878C29.5388 11.213 28.6816 10.907 27.811 10.8964C26.9405 10.8859 26.0887 11.1707 25.4606 11.7356C24.8416 12.2922 24.4037 13.1526 24.4037 14.374C24.4037 14.3946 24.4025 14.4152 24.4001 14.4357C24.3361 14.9753 24.2861 15.4922 24.2382 15.9927C24.2358 16.0182 24.2333 16.0437 24.2309 16.0692C24.1858 16.5408 24.1419 16.9996 24.0898 17.441C23.9802 18.3702 23.8313 19.2516 23.5411 20.0777C22.9462 21.7714 21.7857 23.1511 19.3866 24.3506C19.1274 24.4802 18.8122 24.3751 18.6826 24.1159C18.553 23.8567 18.658 23.5415 18.9173 23.4119C21.1175 22.3118 22.0617 21.1226 22.5509 19.7299C22.8028 19.0129 22.941 18.2217 23.0476 17.318C23.0982 16.8886 23.1411 16.4404 23.1865 15.9653C23.1888 15.9412 23.1911 15.917 23.1935 15.8927C23.2405 15.4017 23.2905 14.8842 23.3543 14.3424C23.3619 12.8631 23.907 11.7212 24.7588 10.9552C25.6076 10.1919 26.7122 9.6711 27.811 9.68445C28.9096 9.6978 30.0342 10.2454 30.8776 11.0106Z" fill="black"/>
</g>
<circle cx="50.1051" cy="50.6274" r="9.6" fill="#CAC9C9" stroke="white" stroke-width="1.2"/>
<circle cx="50.1051" cy="50.6274" r="8.4" fill="black" stroke="black" stroke-width="1.2"/>
<path d="M46.0856 55.6274V45.4456H50.5003C51.2759 45.4456 51.9272 45.55 52.4542 45.7588C52.9845 45.9676 53.3839 46.2626 53.6523 46.6438C53.9241 47.0249 54.06 47.474 54.06 47.9911C54.06 48.3656 53.9771 48.707 53.8114 49.0152C53.649 49.3235 53.4203 49.582 53.1253 49.7908C52.8304 49.9963 52.4857 50.1388 52.0913 50.2184V50.3178C52.5288 50.3344 52.9265 50.4454 53.2844 50.6509C53.6424 50.8531 53.9274 51.1331 54.1395 51.4911C54.3517 51.8457 54.4577 52.2633 54.4577 52.7439C54.4577 53.3007 54.3119 53.7962 54.0202 54.2304C53.7319 54.6646 53.3209 55.006 52.7873 55.2546C52.2537 55.5032 51.6173 55.6274 50.8782 55.6274H46.0856ZM48.8498 53.4201H50.1424C50.6064 53.4201 50.9544 53.3339 51.1864 53.1615C51.4184 52.9859 51.5344 52.7273 51.5344 52.386C51.5344 52.1473 51.4797 51.9451 51.3704 51.7794C51.261 51.6137 51.1052 51.4878 50.903 51.4016C50.7042 51.3154 50.4639 51.2723 50.1822 51.2723H48.8498V53.4201ZM48.8498 49.5621H49.9833C50.2252 49.5621 50.439 49.524 50.6246 49.4478C50.8102 49.3715 50.9544 49.2621 51.0572 49.1196C51.1632 48.9738 51.2163 48.7965 51.2163 48.5877C51.2163 48.2728 51.1036 48.0325 50.8782 47.8668C50.6528 47.6978 50.3678 47.6132 50.0231 47.6132H48.8498V49.5621Z" fill="white"/>
<defs>
<filter id="filter0_d_1241_5606" x="17.5776" y="9.6842" width="21.3227" height="41.5744" filterUnits="userSpaceOnUse" color-interpolation-filters="sRGB">
<feFlood flood-opacity="0" result="BackgroundImageFix"/>
<feColorMatrix in="SourceAlpha" type="matrix" values="0 0 0 0 0 0 0 0 0 0 0 0 0 0 0 0 0 0 127 0" result="hardAlpha"/>
<feOffset dx="-1.0495" dy="1.57425"/>
<feComposite in2="hardAlpha" operator="out"/>
<feColorMatrix type="matrix" values="0 0 0 0 0 0 0 0 0 0 0 0 0 0 0 0 0 0 0.25 0"/>
<feBlend mode="normal" in2="BackgroundImageFix" result="effect1_dropShadow_1241_5606"/>
<feBlend mode="normal" in="SourceGraphic" in2="effect1_dropShadow_1241_5606" result="shape"/>
</filter>
</defs>
</svg>
