<svg width="61" height="60" viewBox="0 0 61 60" fill="none" xmlns="http://www.w3.org/2000/svg">
<circle cx="30.1052" cy="30.0001" r="29.0001" fill="white" stroke="white" stroke-width="2"/>
<g filter="url(#filter0_d_1241_7540)">
<path d="M20.0388 36.3273H17.3424" stroke="black" stroke-width="1.07976" stroke-linecap="round"/>
<path d="M43.3542 36.3273H40.6578" stroke="black" stroke-width="1.07976" stroke-linecap="round"/>
<path d="M17.4984 38.4643C17.4984 36.5867 19.0205 35.0646 20.8981 35.0646H26.027C28.058 35.0646 29.7045 36.7111 29.7045 38.7421Lnan nanL29.7045 38.7421C29.7045 42.398 26.7408 45.3616 23.0849 45.3616H21.748C19.401 45.3616 17.4984 43.459 17.4984 41.112V38.4643Z" fill="#696969"/>
<path fill-rule="evenodd" clip-rule="evenodd" d="M26.027 35.5789H20.8981C19.3046 35.5789 18.1936 36.7434 18.1936 38.3369L18.0128 41.112C18.0128 43.1749 19.6851 44.8473 21.748 44.8473H23.0849C26.4567 44.8473 29.122 41.8361 29.122 38.4643C29.122 36.7173 27.7739 35.5789 26.027 35.5789ZM20.8981 35.0646C19.0205 35.0646 17.4984 36.5867 17.4984 38.4643V41.112C17.4984 43.459 19.401 45.3616 21.748 45.3616H23.0849C26.7408 45.3616 29.7045 42.398 29.7045 38.7421C29.7045 36.7111 28.058 35.0646 26.027 35.0646H20.8981Z" fill="black"/>
<g style="mix-blend-mode:multiply">
<path d="M17.7583 38.2737L20.3526 35.4201C20.3935 35.3751 20.4515 35.3494 20.5124 35.3494H27.0241C27.2125 35.3494 27.3105 35.5739 27.1825 35.7121L19.2694 44.2542C19.1638 44.3682 18.9759 44.3367 18.9133 44.1944L18.5117 43.2821C18.4791 43.2079 18.4907 43.1218 18.5417 43.0589L24.4017 35.8413C24.5163 35.7001 24.4159 35.4892 24.2341 35.4892H23.9555C23.893 35.4892 23.8336 35.5163 23.7926 35.5634L18.4443 41.7082C18.3211 41.8497 18.0884 41.7776 18.0669 41.5912L17.7035 38.4437C17.6964 38.3818 17.7163 38.3198 17.7583 38.2737Z" fill="#CAC9C9"/>
</g>
<path d="M43.3544 38.4642C43.3544 36.5866 41.8323 35.0645 39.9547 35.0645H34.8258C32.7948 35.0645 31.1483 36.7109 31.1483 38.742Lnan nanL31.1483 38.742C31.1483 42.3978 34.112 45.3615 37.7678 45.3615H39.1047C41.4518 45.3615 43.3544 43.4589 43.3544 41.1119V38.4642Z" fill="#696969"/>
<path fill-rule="evenodd" clip-rule="evenodd" d="M34.8258 35.5788H39.5683C41.1618 35.5788 42.6692 36.638 42.6692 38.2316L42.84 41.1119C42.84 43.1748 41.1677 44.8471 39.1047 44.8471H37.7678C34.3961 44.8471 31.7621 42.1138 31.7621 38.742C31.7621 36.995 33.0789 35.5788 34.8258 35.5788ZM39.9547 35.0645C41.8323 35.0645 43.3544 36.5866 43.3544 38.4642V41.1119C43.3544 43.4589 41.4518 45.3615 39.1047 45.3615H37.7678C34.112 45.3615 31.1483 42.3978 31.1483 38.742C31.1483 36.7109 32.7948 35.0645 34.8258 35.0645H39.9547Z" fill="black"/>
<g style="mix-blend-mode:multiply">
<path d="M31.6394 39.8256L34.1846 35.4106C34.2241 35.342 34.298 35.3006 34.3772 35.3026L40.692 35.4645C40.8842 35.4694 40.9746 35.7042 40.8353 35.8368L33.4286 42.89C33.33 42.9839 33.1702 42.9643 33.0973 42.8493L32.9335 42.591C32.883 42.5113 32.8901 42.4079 32.9511 42.3359L38.4851 35.7987C38.5987 35.6645 38.5129 35.4581 38.3377 35.4439L37.7339 35.395C37.6629 35.3892 37.5937 35.4188 37.5488 35.4741L32.4945 41.6995C32.3856 41.8336 32.1711 41.7919 32.1204 41.6267L31.6201 39.9968C31.6025 39.9396 31.6095 39.8775 31.6394 39.8256Z" fill="#CAC9C9"/>
</g>
<path fill-rule="evenodd" clip-rule="evenodd" d="M30.4229 37.842C30.0534 37.8517 29.7281 37.9787 29.5472 38.1595L29.1836 37.7957C29.4829 37.4966 29.9623 37.2569 30.4229 37.2448C30.8874 37.2325 31.3773 37.4489 31.7551 37.7856L31.4128 38.1696C31.1543 37.9391 30.7886 37.8324 30.4229 37.842Z" fill="black"/>
<g style="mix-blend-mode:multiply">
<path d="M24.4597 44.4211L28.7452 39.7679C28.8784 39.6232 29.12 39.7175 29.12 39.9142V40.4604C29.12 40.5133 29.1005 40.5643 29.0654 40.6039L25.6182 44.4822C25.5903 44.5135 25.554 44.5361 25.5136 44.5471L24.6754 44.7757C24.4663 44.8328 24.3129 44.5805 24.4597 44.4211Z" fill="#CAC9C9"/>
</g>
<g style="mix-blend-mode:multiply">
<path d="M38.582 44.8094L42.8675 40.1562C43.0007 40.0115 43.2423 40.1058 43.2423 40.3025V40.8487C43.2423 40.9016 43.2229 40.9527 43.1877 40.9922L39.7405 44.8705C39.7127 44.9018 39.6763 44.9244 39.6359 44.9354L38.7977 45.164C38.5886 45.2211 38.4352 44.9689 38.582 44.8094Z" fill="#CAC9C9"/>
</g>
</g>
<g filter="url(#filter1_d_1241_7540)">
<path d="M52.4348 21.1734C55.4154 20.1218 53.6622 23.4441 50.1029 26.0829C43.9704 30.6294 41.3391 34.0538 30.9399 34.2548C20.5407 34.4557 17.9288 31.1514 11.5549 26.9973C5.18091 22.8431 3.69039 20.9399 7.6226 21.84C11.5548 22.74 30.0609 24.3471 32.2449 24.2328C39.3193 23.8629 49.4543 22.225 52.4348 21.1734Z" fill="#CAC9C9"/>
<path d="M52.4348 21.1734C55.4154 20.1218 53.6622 23.4441 50.1029 26.0829C43.9704 30.6294 41.3391 34.0538 30.9399 34.2548C20.5407 34.4557 17.9288 31.1514 11.5549 26.9973C5.18091 22.8431 3.69039 20.9399 7.6226 21.84C11.5548 22.74 30.0609 24.3471 32.2449 24.2328C39.3193 23.8629 49.4543 22.225 52.4348 21.1734Z" stroke="black" stroke-width="1.07976"/>
</g>
<path d="M41.7387 25.1977C41.0005 25.5208 33.3885 26.6736 29.8891 26.8582C26.3897 27.0428 20.3328 26.6276 19.5056 25.8433C18.6785 25.059 22.0397 11.865 23.885 11.1729C25.7304 10.4808 27.8986 12.6493 30.7589 12.4185C33.6192 12.1876 35.8797 10.1117 37.8173 11.1729C39.7549 12.2342 42.4768 24.8746 41.7387 25.1977Z" fill="#D9D9D9" stroke="black" stroke-width="1.07976"/>
<path d="M41.736 25.1478C40.9979 25.4709 34.2586 27.68 30.7592 27.8646C27.2598 28.0492 20.0499 26.5133 19.2214 25.7304C19.0602 25.578 19.3236 23.1141 19.5057 23.1141C19.6877 23.1141 26.3715 25.4311 30.7592 25.1478C35.1469 24.8645 41.6056 22.645 41.6056 22.645C41.6056 22.645 42.0706 25.0014 41.736 25.1478Z" fill="black" stroke="black" stroke-width="1.07976"/>
<path d="M28.1247 15.7164C28.1248 14.3719 24.6359 12.0822 23.9089 12.1912C23.1818 12.3001 20.7618 21.0295 21.6921 21.2039C22.8551 21.4219 28.1245 17.061 28.1247 15.7164Z" fill="white"/>
<path d="M33.4159 16.8161C33.4158 15.4716 36.8825 12.0811 37.6096 12.19C38.3366 12.299 40.7566 21.028 39.8263 21.2024C38.6634 21.4205 33.416 18.1606 33.4159 16.8161Z" fill="white"/>
<path d="M30.3971 14.5793C29.0983 14.2315 24.3608 12.3379 24.6542 11.6638C24.7924 11.3462 26.9532 12.8801 29.5421 13.3235C32.4478 13.8211 36.8976 11.1647 36.8593 11.6638C36.769 12.8436 31.6958 14.9272 30.3971 14.5793Z" fill="white"/>
<path d="M25.8696 32.3809C20.1024 31.4788 14.3545 27.8447 14.7206 27.1901C14.8931 26.8817 20.6308 29.7265 24.9658 30.6378C29.8315 31.6606 36.6702 29.7676 36.6936 30.2832C36.7488 31.502 31.6368 33.2831 25.8696 32.3809Z" fill="white"/>
<defs>
<filter id="filter0_d_1241_7540" x="15.7227" y="35.0645" width="28.1714" height="11.9168" filterUnits="userSpaceOnUse" color-interpolation-filters="sRGB">
<feFlood flood-opacity="0" result="BackgroundImageFix"/>
<feColorMatrix in="SourceAlpha" type="matrix" values="0 0 0 0 0 0 0 0 0 0 0 0 0 0 0 0 0 0 127 0" result="hardAlpha"/>
<feOffset dx="-1.07976" dy="1.61964"/>
<feComposite in2="hardAlpha" operator="out"/>
<feColorMatrix type="matrix" values="0 0 0 0 0 0 0 0 0 0 0 0 0 0 0 0 0 0 0.25 0"/>
<feBlend mode="normal" in2="BackgroundImageFix" result="effect1_dropShadow_1241_7540"/>
<feBlend mode="normal" in="SourceGraphic" in2="effect1_dropShadow_1241_7540" result="shape"/>
</filter>
<filter id="filter1_d_1241_7540" x="3.83797" y="20.4341" width="50.6521" height="15.449" filterUnits="userSpaceOnUse" color-interpolation-filters="sRGB">
<feFlood flood-opacity="0" result="BackgroundImageFix"/>
<feColorMatrix in="SourceAlpha" type="matrix" values="0 0 0 0 0 0 0 0 0 0 0 0 0 0 0 0 0 0 127 0" result="hardAlpha"/>
<feOffset dx="-1.07976" dy="1.07976"/>
<feComposite in2="hardAlpha" operator="out"/>
<feColorMatrix type="matrix" values="0 0 0 0 0 0 0 0 0 0 0 0 0 0 0 0 0 0 0.25 0"/>
<feBlend mode="normal" in2="BackgroundImageFix" result="effect1_dropShadow_1241_7540"/>
<feBlend mode="normal" in="SourceGraphic" in2="effect1_dropShadow_1241_7540" result="shape"/>
</filter>
</defs>
</svg>
