<svg width="61" height="60" viewBox="0 0 61 60" fill="none" xmlns="http://www.w3.org/2000/svg">
<circle cx="30.1052" cy="30.0001" r="29.0001" fill="white" stroke="white" stroke-width="2"/>
<g filter="url(#filter0_d_1241_5508)">
<path d="M19.4967 22.1746H44.0651" stroke="black"/>
<path d="M10.4098 24.0757H5.1676" stroke="black" stroke-linecap="round"/>
<path d="M55.7389 24.0757H50.4967" stroke="black" stroke-linecap="round"/>
<path d="M5.47034 28.2301C5.47034 24.5798 8.42951 21.6206 12.0798 21.6206H22.051C25.9996 21.6206 29.2006 24.8216 29.2006 28.7702Lnan nanL29.2006 28.7702C29.2006 35.8777 23.4388 41.6395 16.3313 41.6395H13.7322C9.16929 41.6395 5.47034 37.9405 5.47034 33.3776V28.2301Z" fill="white"/>
<path fill-rule="evenodd" clip-rule="evenodd" d="M22.051 22.6206H12.0798C8.98179 22.6206 6.8219 24.8844 6.8219 27.9824L6.47034 33.3776C6.47034 37.3882 9.72157 40.6395 13.7322 40.6395H16.3313C22.8865 40.6395 28.0683 34.7853 28.0683 28.2301C28.0683 24.8338 25.4473 22.6206 22.051 22.6206ZM12.0798 21.6206C8.42951 21.6206 5.47034 24.5798 5.47034 28.2301V33.3776C5.47034 37.9405 9.16929 41.6395 13.7322 41.6395H16.3313C23.4388 41.6395 29.2006 35.8777 29.2006 28.7702C29.2006 24.8216 25.9996 21.6206 22.051 21.6206H12.0798Z" fill="black"/>
<g style="mix-blend-mode:multiply">
<path d="M5.90841 27.9336L11.0847 22.24C11.1226 22.1983 11.1764 22.1746 11.2327 22.1746H24.4929C24.6674 22.1746 24.7582 22.3824 24.6396 22.5105L8.68586 39.7323C8.58804 39.8379 8.41407 39.8087 8.35609 39.677L7.38633 37.4738C7.35612 37.4052 7.36685 37.3254 7.41412 37.2672L19.1824 22.7724C19.2885 22.6417 19.1955 22.4463 19.0271 22.4463H17.9237C17.8659 22.4463 17.8109 22.4714 17.7729 22.515L6.98228 34.9127C6.86818 35.0438 6.65267 34.9769 6.63274 34.8043L5.85771 28.0911C5.85109 28.0337 5.86957 27.9763 5.90841 27.9336Z" fill="#CAC9C9"/>
</g>
<path d="M55.739 28.2301C55.739 24.5798 52.7798 21.6206 49.1295 21.6206H39.1583C35.2097 21.6206 32.0088 24.8216 32.0088 28.7702Lnan nanL32.0088 28.7702C32.0088 35.8777 37.7705 41.6395 44.878 41.6395H47.4772C52.0401 41.6395 55.739 37.9405 55.739 33.3776V28.2301Z" fill="white"/>
<path fill-rule="evenodd" clip-rule="evenodd" d="M39.1583 22.6206H48.3783C51.4764 22.6206 54.4069 24.6799 54.4069 27.7779L54.739 33.3776C54.739 37.3882 51.4878 40.6395 47.4772 40.6395H44.878C38.3228 40.6395 33.2021 35.3254 33.2021 28.7702C33.2021 25.3739 35.762 22.6206 39.1583 22.6206ZM49.1295 21.6206C52.7798 21.6206 55.739 24.5798 55.739 28.2301V33.3776C55.739 37.9405 52.0401 41.6395 47.4772 41.6395H44.878C37.7705 41.6395 32.0088 35.8777 32.0088 28.7702C32.0088 24.8216 35.2097 21.6206 39.1583 21.6206H49.1295Z" fill="black"/>
<g style="mix-blend-mode:multiply">
<path d="M32.9161 30.9599L37.9773 22.1804C38.0139 22.1169 38.0823 22.0785 38.1557 22.0804L51.0929 22.4121C51.2709 22.4167 51.3546 22.6341 51.2257 22.7569L36.2484 37.0194C36.1571 37.1063 36.0091 37.0881 35.9416 36.9817L35.3933 36.117C35.3464 36.0431 35.353 35.9474 35.4095 35.8807L46.5493 22.7216C46.6545 22.5973 46.5751 22.4061 46.4128 22.393L44.6969 22.2539C44.6312 22.2486 44.567 22.276 44.5255 22.3272L34.3664 34.8402C34.2656 34.9644 34.0669 34.9258 34.0199 34.7728L32.8981 31.1185C32.8819 31.0655 32.8883 31.008 32.9161 30.9599Z" fill="#CAC9C9"/>
</g>
<path fill-rule="evenodd" clip-rule="evenodd" d="M30.5985 27.0205C29.88 27.0394 29.2477 27.2863 28.896 27.6378L28.1891 26.9305C28.771 26.3489 29.7031 25.883 30.5985 25.8594C31.5016 25.8357 32.4541 26.2562 33.1884 26.911L32.5229 27.6574C32.0204 27.2093 31.3094 27.0018 30.5985 27.0205Z" fill="black"/>
<g style="mix-blend-mode:multiply">
<path d="M18.4872 40.3729L27.7179 30.35C27.8414 30.216 28.0651 30.3034 28.0651 30.4855V32.1942C28.0651 32.2432 28.0471 32.2905 28.0145 32.3271L21.2137 39.9784C21.1879 40.0074 21.1543 40.0283 21.1169 40.0385L18.687 40.7013C18.4933 40.7541 18.3512 40.5206 18.4872 40.3729Z" fill="#CAC9C9"/>
</g>
<g style="mix-blend-mode:multiply">
<path d="M45.9433 41.128L55.174 31.1052C55.2974 30.9712 55.5211 31.0585 55.5211 31.2407V32.9493C55.5211 32.9983 55.5031 33.0456 55.4706 33.0822L48.6698 40.7335C48.644 40.7625 48.6103 40.7834 48.5729 40.7936L46.143 41.4564C45.9493 41.5093 45.8073 41.2757 45.9433 41.128Z" fill="#CAC9C9"/>
</g>
</g>
<defs>
<filter id="filter0_d_1241_5508" x="3.6676" y="21.6206" width="52.5713" height="21.5189" filterUnits="userSpaceOnUse" color-interpolation-filters="sRGB">
<feFlood flood-opacity="0" result="BackgroundImageFix"/>
<feColorMatrix in="SourceAlpha" type="matrix" values="0 0 0 0 0 0 0 0 0 0 0 0 0 0 0 0 0 0 127 0" result="hardAlpha"/>
<feOffset dx="-1" dy="1.5"/>
<feComposite in2="hardAlpha" operator="out"/>
<feColorMatrix type="matrix" values="0 0 0 0 0 0 0 0 0 0 0 0 0 0 0 0 0 0 0.25 0"/>
<feBlend mode="normal" in2="BackgroundImageFix" result="effect1_dropShadow_1241_5508"/>
<feBlend mode="normal" in="SourceGraphic" in2="effect1_dropShadow_1241_5508" result="shape"/>
</filter>
</defs>
</svg>
