<svg width="61" height="61" viewBox="0 0 61 61" fill="none" xmlns="http://www.w3.org/2000/svg">
<circle cx="30.1052" cy="30.47" r="29.0001" fill="white" stroke="white" stroke-width="2"/>
<path d="M10.2794 19.7302C9.7876 17.6885 11.0441 15.6346 13.0858 15.1428L41.4391 8.31314C43.4808 7.82133 45.5347 9.07778 46.0265 11.1195L53.5879 42.5107C54.0797 44.5524 52.8233 46.6062 50.7815 47.098L22.4282 53.9277C20.3865 54.4195 18.3327 53.1631 17.8409 51.1213L10.2794 19.7302Z" fill="url(#paint0_radial_1241_7565)"/>
<mask id="mask0_1241_7565" style="mask-type:alpha" maskUnits="userSpaceOnUse" x="10" y="8" width="45" height="47">
<path d="M10.3261 20.3038C9.835 18.2651 11.1095 16.2094 13.1728 15.7124L41.8258 8.81053C43.8891 8.31352 45.9598 9.56338 46.4509 11.6022L54.0015 42.9481C54.4926 44.9869 53.2181 47.0426 51.1548 47.5396L22.5018 54.4414C20.4385 54.9384 18.3678 53.6886 17.8767 51.6498L10.3261 20.3038Z" fill="url(#paint1_radial_1241_7565)"/>
</mask>
<g mask="url(#mask0_1241_7565)">
<rect x="25.5513" y="2.65979" width="3.73104" height="47.9818" transform="rotate(26.0084 25.5513 2.65979)" fill="#D9D9D9"/>
<rect x="25.5513" y="2.65979" width="3.73104" height="47.9818" transform="rotate(26.0084 25.5513 2.65979)" fill="#D9D9D9"/>
<rect x="35.1492" y="7.68188" width="3.73104" height="47.9818" transform="rotate(26.0084 35.1492 7.68188)" fill="#D9D9D9"/>
<rect x="44.7704" y="12.3757" width="3.73104" height="47.9818" transform="rotate(26.0084 44.7704 12.3757)" fill="#D9D9D9"/>
<rect x="54.0144" y="16.8866" width="3.73104" height="47.9818" transform="rotate(26.0084 54.0144 16.8866)" fill="#D9D9D9"/>
<rect x="30.2266" y="5.78528" width="1.22177" height="47.9818" transform="rotate(26.0084 30.2266 5.78528)" fill="#D9D9D9"/>
<rect x="30.0245" y="5.68677" width="1.22177" height="47.9818" transform="rotate(26.0084 30.0245 5.68677)" fill="#D9D9D9"/>
<rect x="39.6224" y="10.7089" width="1.22177" height="47.9818" transform="rotate(26.0084 39.6224 10.7089)" fill="#D9D9D9"/>
<rect x="49.2432" y="15.4032" width="1.22177" height="47.9818" transform="rotate(26.0084 49.2432 15.4032)" fill="#D9D9D9"/>
<rect x="59.8306" y="20.5686" width="1.22177" height="47.9818" transform="rotate(26.0084 59.8306 20.5686)" fill="#D9D9D9"/>
<rect x="24.0424" y="-5.86292" width="1.22177" height="47.9818" transform="rotate(26.0084 24.0424 -5.86292)" fill="#D9D9D9"/>
</g>
<path fill-rule="evenodd" clip-rule="evenodd" d="M9.90818 20.3337C9.35489 18.0367 10.7684 15.7262 13.0653 15.1729L41.4187 8.34318C43.7156 7.7899 46.0262 9.20341 46.5795 11.5003L54.1409 42.8915C54.6942 45.1884 53.2807 47.499 50.9837 48.0523L22.6304 54.882C20.3335 55.4353 18.0229 54.0218 17.4696 51.7248L9.90818 20.3337ZM12.8638 15.9569C11.0773 16.3872 10.4021 18.3245 10.8324 20.111L14.3164 36.415L18.5309 52.2533C18.9612 54.0398 20.6213 54.3881 22.4078 53.9578L50.7355 46.7118C52.522 46.2814 53.413 43.8156 52.9827 42.0291L46.2252 12.3608C45.7949 10.5743 43.4278 8.83707 41.6413 9.2674L22.0584 13.5078L12.8638 15.9569Z" fill="black"/>
<path d="M36.1856 20.1822C40.9076 20.1822 44.7356 17.3076 44.7356 13.7616C44.7356 10.2156 40.9076 7.34106 36.1856 7.34106C31.4636 7.34106 27.6356 10.2156 27.6356 13.7616C27.6356 17.3076 31.4636 20.1822 36.1856 20.1822Z" fill="white"/>
<path fill-rule="evenodd" clip-rule="evenodd" d="M41.7164 17.6159C43.1012 16.5761 43.8781 15.2046 43.8781 13.7616C43.8781 12.3186 43.1012 10.9472 41.7164 9.90731C40.3314 8.86721 38.3788 8.4802 36.1856 8.4802C33.9924 8.4802 32.0398 8.86721 30.6548 9.90731C29.27 10.9472 28.4931 12.3186 28.4931 13.7616C28.4931 15.2046 29.27 16.5761 30.6548 17.6159C32.0398 18.656 33.9924 19.3247 36.1856 19.3247C38.3788 19.3247 40.3314 18.656 41.7164 17.6159ZM44.7356 13.7616C44.7356 17.3076 40.9076 20.1822 36.1856 20.1822C31.4636 20.1822 27.6356 17.3076 27.6356 13.7616C27.6356 10.2156 31.4636 7.34106 36.1856 7.34106C40.9076 7.34106 44.7356 10.2156 44.7356 13.7616Z" fill="black"/>
<path d="M35.3954 8.92556C30.1553 9.51837 28.6302 13.5908 29.1624 14.6772C29.2206 14.7959 29.3706 14.757 29.4252 14.6366C30.4389 12.4023 32.9461 10.6242 35.4576 9.10955C35.5509 9.05332 35.5035 8.91332 35.3954 8.92556Z" fill="#CAC9C9"/>
<mask id="path-19-inside-1_1241_7565" fill="white">
<path d="M52.0508 27.915C52.0508 28.4699 52.0229 29.0205 51.9669 29.5626C51.7583 31.5931 51.1689 33.8128 50.2698 35.9982C49.7149 37.3468 49.0438 38.6826 48.2716 39.9516C47.8823 40.1086 47.4543 40.1968 47.0069 40.1968C46.8649 40.1968 46.7229 40.1882 46.5853 40.171C44.6774 44.6966 41.3714 47.8757 37.5277 48.4801C37.0781 48.5468 36.6221 48.5833 36.164 48.5855C31.6965 48.5726 27.7947 45.101 25.6932 39.9387C24.8328 39.9237 24.052 39.586 23.4648 39.0418C23.082 38.3578 22.7292 37.6587 22.4087 36.9511C21.2795 34.4646 20.5396 31.8899 20.3008 29.5647C20.2449 29.0227 20.2169 28.4721 20.2169 27.915C20.2169 27.8676 20.2169 27.8225 20.2169 27.7751V27.7622C20.2169 27.7278 20.2169 27.6934 20.2191 27.659C20.2191 27.6482 20.2191 27.6396 20.2191 27.6289C20.2191 27.6052 20.2191 27.5816 20.2212 27.5579C20.2212 27.545 20.2212 27.5321 20.2212 27.5192C20.2212 27.4998 20.2212 27.4805 20.2234 27.4611C20.2255 27.4224 20.2255 27.3837 20.2277 27.3471C20.2277 27.3407 20.2277 27.3342 20.2277 27.3278C20.232 27.2331 20.2363 27.1385 20.2406 27.046C20.2427 27.0051 20.2449 26.9621 20.247 26.9212C20.247 26.9062 20.2492 26.8911 20.2492 26.8761C20.2513 26.8373 20.2535 26.7986 20.2578 26.7599C20.2599 26.7212 20.2642 26.6825 20.2664 26.6438C20.2685 26.6265 20.2685 26.6115 20.2707 26.5964C20.2728 26.5577 20.2771 26.5211 20.2793 26.4846C20.2793 26.4738 20.2814 26.4631 20.2814 26.4523C20.2879 26.3684 20.2965 26.2845 20.3051 26.2028C20.3159 26.0996 20.3288 25.9942 20.3417 25.8909C20.346 25.8501 20.3524 25.807 20.3589 25.7662C20.3589 25.764 20.3589 25.764 20.3589 25.7619C20.3653 25.721 20.3696 25.6801 20.3761 25.6393C20.3847 25.5769 20.3954 25.5124 20.4041 25.45C20.4084 25.4156 20.4148 25.3833 20.4191 25.3489C20.4191 25.3467 20.4191 25.3424 20.4213 25.3403C20.4277 25.2973 20.4342 25.2542 20.4428 25.2134C20.4428 25.2091 20.4449 25.2069 20.4449 25.2026C20.4535 25.1575 20.46 25.1123 20.4686 25.0671C20.4772 25.0198 20.4858 24.9746 20.4944 24.9295C20.503 24.8886 20.5094 24.8477 20.5181 24.8069C20.5202 24.7982 20.5202 24.7896 20.5224 24.7832C20.5396 24.6993 20.5568 24.6133 20.574 24.5294C20.5761 24.5165 20.5783 24.5057 20.5826 24.4928C20.5912 24.4541 20.5998 24.4175 20.6084 24.3788C20.6191 24.3336 20.6299 24.2885 20.6407 24.2433C20.6514 24.1981 20.6622 24.153 20.6729 24.1078C20.6815 24.0691 20.6923 24.0304 20.7009 23.9938C20.7138 23.94 20.7288 23.8841 20.7439 23.8303C20.7676 23.7443 20.7891 23.6604 20.8127 23.5744C20.8149 23.5701 20.8149 23.5679 20.8149 23.5658C20.8278 23.5227 20.8385 23.4797 20.8514 23.4367C20.8622 23.4023 20.873 23.3679 20.8816 23.3335C20.888 23.3141 20.8923 23.2969 20.8988 23.2775C20.9095 23.2431 20.9203 23.2066 20.931 23.1721C20.9439 23.1313 20.9568 23.0926 20.9697 23.0517C20.9999 22.9592 21.03 22.8646 21.0622 22.7721C21.073 22.7398 21.0837 22.7075 21.0945 22.6753C21.101 22.6581 21.1074 22.6409 21.1117 22.6236C21.1246 22.5892 21.1354 22.5548 21.1483 22.5226C21.1655 22.4774 21.1805 22.4322 21.1977 22.387C21.2128 22.3462 21.2279 22.3053 21.2429 22.2644C21.2773 22.1763 21.3096 22.0881 21.3462 22.002C21.3634 21.959 21.3806 21.9181 21.3978 21.8751V21.873C21.4128 21.8343 21.4279 21.7977 21.4451 21.7611C21.4494 21.7525 21.4516 21.7461 21.4559 21.7375C21.4731 21.6987 21.4881 21.66 21.5053 21.6213C21.5225 21.5804 21.5419 21.5374 21.5613 21.4966C21.5613 21.4944 21.5634 21.4944 21.5634 21.4923C21.5806 21.4514 21.6 21.4105 21.6172 21.3718C21.6537 21.2922 21.6903 21.2148 21.7269 21.1352C21.7312 21.1287 21.7333 21.1201 21.7376 21.1137C21.7742 21.0341 21.8129 20.9545 21.8516 20.8771C21.871 20.8362 21.8925 20.7953 21.9119 20.7545C21.9549 20.6706 21.9979 20.5867 22.0409 20.505C22.0603 20.4663 22.0818 20.4297 22.1011 20.3931C22.1227 20.3523 22.1442 20.3135 22.1657 20.2727C22.1872 20.234 22.2087 20.1931 22.2323 20.1544C22.2345 20.1479 22.2388 20.1436 22.241 20.1372C22.2603 20.1027 22.2797 20.0683 22.299 20.0361C22.3205 19.9974 22.3442 19.9565 22.3679 19.9178C22.3851 19.8877 22.4023 19.8575 22.4195 19.8296C22.4281 19.8124 22.4388 19.7973 22.4474 19.7823C22.4668 19.7521 22.484 19.7199 22.5034 19.6898C22.527 19.6489 22.5528 19.6102 22.5765 19.5693C22.6002 19.5327 22.6217 19.4962 22.6453 19.4596C22.6475 19.4575 22.6475 19.4553 22.6496 19.4532C22.6711 19.4166 22.6948 19.3822 22.7163 19.3478C22.7464 19.3004 22.7765 19.2531 22.8088 19.2058C22.8282 19.1778 22.8454 19.1499 22.8647 19.1198C22.9422 19.0058 23.0196 18.8918 23.0992 18.7778C23.125 18.7412 23.1508 18.7046 23.1788 18.6681C23.2024 18.6358 23.2239 18.6057 23.2476 18.5734C23.2519 18.5691 23.2562 18.5627 23.2583 18.5584C23.2842 18.524 23.31 18.4874 23.3358 18.453C23.3637 18.4143 23.3917 18.3755 23.4218 18.339C23.4455 18.3089 23.4691 18.2787 23.4928 18.2465C23.5251 18.2056 23.5573 18.1647 23.5896 18.1217C23.6176 18.0873 23.6434 18.0529 23.6713 18.0185C23.6735 18.0163 23.6756 18.012 23.6778 18.0099C23.7036 17.9776 23.7273 17.9475 23.7531 17.9152C23.7552 17.9131 23.7574 17.9109 23.7595 17.9088C23.7853 17.8787 23.809 17.8464 23.8348 17.8163C23.8606 17.7862 23.8864 17.7539 23.9101 17.7238C23.9251 17.7066 23.938 17.6894 23.9531 17.6722C23.9531 17.67 23.9553 17.6679 23.9574 17.6679C23.9961 17.6227 24.0327 17.5775 24.0714 17.5345C24.0822 17.5216 24.0929 17.5087 24.1037 17.498C24.1316 17.4657 24.1596 17.4334 24.1876 17.4012C24.1897 17.399 24.1897 17.399 24.1897 17.3969C24.2155 17.3668 24.2435 17.3366 24.2714 17.3065C24.2822 17.2936 24.2929 17.2807 24.3059 17.27C24.3274 17.2463 24.351 17.2205 24.3725 17.1968C24.4048 17.1624 24.4371 17.128 24.4693 17.0936C24.4887 17.0742 24.5059 17.0527 24.5253 17.0334C24.5425 17.014 24.5618 16.9946 24.5812 16.9753C24.5962 16.9602 24.6113 16.9452 24.6263 16.928C24.65 16.9021 24.6758 16.8763 24.7016 16.8505C24.7167 16.8355 24.7317 16.8204 24.7468 16.8032C24.7791 16.7709 24.8113 16.7387 24.8414 16.7064C24.8586 16.6892 24.8759 16.6698 24.8952 16.6526C24.9189 16.629 24.9425 16.6053 24.9662 16.5838C24.9769 16.5731 24.9877 16.5623 24.9963 16.5537C25.02 16.53 25.0436 16.5085 25.0651 16.4849C25.0866 16.4634 25.1082 16.444 25.1297 16.4225C25.1684 16.3859 25.2071 16.3494 25.2458 16.3128C25.2824 16.2784 25.3189 16.244 25.3555 16.2095C25.362 16.2052 25.3663 16.1988 25.3727 16.1945C25.405 16.1644 25.4372 16.1343 25.4695 16.1063C25.4846 16.0912 25.5018 16.0783 25.5168 16.0633C25.5878 15.9988 25.6609 15.9364 25.7341 15.874C25.7534 15.8568 25.7749 15.8396 25.7943 15.8224C25.8158 15.803 25.8373 15.7837 25.861 15.7665C25.8825 15.7471 25.9062 15.7277 25.9277 15.7084C26.0116 15.6374 26.0954 15.5686 26.1815 15.5019C26.218 15.4739 26.2546 15.4438 26.289 15.4158C26.2998 15.4072 26.3084 15.4008 26.3191 15.3922C26.36 15.3599 26.403 15.3277 26.446 15.2954C26.4762 15.2717 26.5063 15.2481 26.5364 15.2266C26.5471 15.218 26.56 15.2094 26.5708 15.2008C26.5923 15.1835 26.6138 15.1685 26.6353 15.1513C26.6611 15.1319 26.6869 15.1126 26.7128 15.0932C26.7214 15.0868 26.73 15.0803 26.7407 15.0738C26.7794 15.0437 26.8203 15.0158 26.859 14.9878C26.8655 14.9835 26.8698 14.9792 26.8762 14.9749C26.9192 14.9426 26.9644 14.9125 27.0074 14.8803C27.0483 14.8523 27.087 14.8243 27.1279 14.7964C27.1558 14.777 27.1838 14.7577 27.2118 14.7383C27.2247 14.7297 27.2376 14.7211 27.2505 14.7125C27.2806 14.6931 27.3086 14.6738 27.3387 14.6523C27.3774 14.6265 27.4183 14.6006 27.457 14.5748C27.5022 14.5447 27.5473 14.5168 27.5925 14.4866C27.6054 14.478 27.6183 14.4694 27.6312 14.463C27.6613 14.4436 27.6936 14.4243 27.7258 14.4028C27.7409 14.3942 27.7581 14.3834 27.7732 14.3748C27.8097 14.3511 27.8485 14.3275 27.885 14.306C27.8958 14.2995 27.9087 14.2931 27.9194 14.2845C27.9668 14.2565 28.0141 14.2285 28.0614 14.2006C28.1087 14.1726 28.1582 14.1446 28.2055 14.1167C28.2098 14.1145 28.2163 14.1102 28.2206 14.1081C28.2614 14.0844 28.3023 14.0608 28.341 14.0392C28.412 13.9984 28.4851 13.9597 28.5561 13.9209C28.5927 13.9016 28.6271 13.8822 28.6637 13.8629C28.7217 13.8328 28.7798 13.8026 28.8379 13.7725C28.8637 13.7596 28.8917 13.7446 28.9175 13.7317C28.9411 13.7188 28.9669 13.7059 28.9928 13.6929C29.0315 13.6736 29.068 13.6542 29.1068 13.6349C29.124 13.6263 29.1412 13.6177 29.1584 13.6091C29.1863 13.5962 29.2143 13.5811 29.2423 13.5682C29.2681 13.5553 29.2939 13.5445 29.3197 13.5316C29.3627 13.5101 29.4079 13.4908 29.4509 13.4714C29.4875 13.4542 29.5262 13.437 29.5628 13.4198C29.58 13.4112 29.5993 13.4026 29.6187 13.394C29.6488 13.3811 29.6768 13.3682 29.7069 13.3552C29.7133 13.3531 29.7198 13.3488 29.7262 13.3466C29.7456 13.338 29.7649 13.3294 29.7843 13.3208C29.8187 13.3058 29.8553 13.2907 29.8918 13.2757C29.9004 13.2714 29.9069 13.2692 29.9155 13.2649C29.9585 13.2477 30.0015 13.2283 30.0446 13.2111C30.1586 13.1638 30.2747 13.1165 30.3909 13.0735C30.4317 13.0584 30.4726 13.0434 30.5113 13.0262C30.5737 13.0025 30.6361 12.9788 30.7006 12.9573C30.7458 12.9401 30.7909 12.9251 30.8383 12.9079C30.8856 12.8906 30.9351 12.8734 30.9824 12.8584C31.0017 12.8519 31.0211 12.8455 31.0404 12.839C31.077 12.8261 31.1136 12.8154 31.148 12.8025C31.1631 12.7982 31.1803 12.7917 31.1953 12.7874C31.2383 12.7745 31.2814 12.7594 31.3244 12.7465C31.3265 12.7465 31.3287 12.7444 31.333 12.7444C31.3824 12.7293 31.4319 12.7121 31.4835 12.6971C31.4878 12.6949 31.4943 12.6949 31.4986 12.6928C31.5266 12.6842 31.5567 12.6756 31.5846 12.6669C31.6126 12.6583 31.6427 12.6497 31.6707 12.6411C31.6986 12.6325 31.7287 12.6239 31.7589 12.6153C31.789 12.6067 31.8169 12.5981 31.847 12.5917C31.9051 12.5745 31.9632 12.5594 32.0234 12.5443C32.0428 12.54 32.06 12.5336 32.0794 12.5293C32.103 12.5228 32.1267 12.5164 32.1503 12.5099C32.1955 12.497 32.2428 12.4863 32.288 12.4755C32.316 12.4691 32.3439 12.4626 32.3719 12.4562C32.5224 12.4196 32.6709 12.3852 32.8236 12.3529C32.8537 12.3465 32.8838 12.34 32.9139 12.3336C32.9505 12.3249 32.9892 12.3185 33.0258 12.312C33.0473 12.3077 33.0709 12.3034 33.0924 12.2991C33.1892 12.2798 33.286 12.2626 33.3828 12.2454C33.4043 12.2411 33.428 12.2368 33.4495 12.2346C33.4947 12.226 33.5398 12.2196 33.585 12.2131C33.613 12.2088 33.6431 12.2045 33.671 12.2002C33.6904 12.198 33.7098 12.1937 33.7291 12.1916C33.7549 12.1873 33.7829 12.183 33.8087 12.1808C33.9335 12.1615 34.0604 12.1464 34.1873 12.1292C34.8218 12.0518 35.4692 12.0131 36.1253 12.0131C36.7727 12.0131 37.4137 12.0518 38.0418 12.1271C38.1342 12.1378 38.2267 12.1507 38.3192 12.1636C38.3493 12.1679 38.3795 12.1722 38.4117 12.1765C38.4397 12.1808 38.4676 12.1851 38.4978 12.1894C38.5279 12.1937 38.558 12.198 38.5881 12.2023C38.6096 12.2045 38.6311 12.2088 38.6548 12.2131C38.7021 12.2196 38.7494 12.2282 38.7946 12.2368C38.8204 12.2411 38.8441 12.2454 38.8699 12.2497C38.9 12.254 38.9301 12.2604 38.9602 12.2647C39.0161 12.2755 39.0699 12.2841 39.1258 12.2948C39.1559 12.3013 39.1861 12.3056 39.214 12.312C39.3431 12.3379 39.4721 12.3637 39.599 12.3938C39.7453 12.426 39.8894 12.4605 40.0335 12.497C40.0636 12.5035 40.0916 12.5121 40.1217 12.5207C40.1518 12.5271 40.1798 12.5357 40.2099 12.5443C40.2443 12.5529 40.2766 12.5616 40.3088 12.5702C40.3347 12.5766 40.3605 12.5852 40.3841 12.5917C40.5003 12.6239 40.6164 12.6583 40.7326 12.6928C40.7584 12.7014 40.7864 12.71 40.8143 12.7164C40.8337 12.7229 40.853 12.7293 40.8724 12.7336C40.8982 12.7422 40.9262 12.7508 40.9541 12.7594C41.0746 12.7982 41.195 12.8369 41.3133 12.8777C41.3348 12.8842 41.3564 12.8928 41.3779 12.8992C41.3929 12.9036 41.408 12.91 41.423 12.9165C41.451 12.9272 41.479 12.9358 41.5091 12.9466C41.5263 12.953 41.5435 12.9595 41.5607 12.9659C41.5822 12.9745 41.6059 12.9831 41.6274 12.9896C41.6553 13.0003 41.6833 13.0111 41.7113 13.0197C41.7285 13.0262 41.7457 13.0326 41.7607 13.0391C41.7865 13.0498 41.8145 13.0584 41.8403 13.0692C42.0102 13.1337 42.178 13.2025 42.3436 13.2735C42.363 13.2821 42.3824 13.2907 42.4017 13.2993C42.4383 13.3144 42.4727 13.3294 42.5093 13.3466C42.5329 13.3574 42.5566 13.3682 42.5781 13.3768C42.6103 13.3897 42.6405 13.4047 42.6727 13.4198C42.6985 13.4305 42.7243 13.4434 42.7502 13.4563C42.7781 13.4692 42.8061 13.4822 42.834 13.4951C42.8599 13.508 42.8857 13.5187 42.9136 13.5316C42.9416 13.5445 42.9696 13.5574 42.9975 13.5703C43.0233 13.5832 43.0513 13.5962 43.0771 13.6091C43.1309 13.6349 43.1847 13.6607 43.2384 13.6886C43.3202 13.7295 43.4019 13.7725 43.4836 13.8134C43.5116 13.8285 43.5374 13.8414 43.5654 13.8564C43.6148 13.8822 43.6643 13.908 43.7138 13.936C43.7654 13.964 43.8192 13.9941 43.8708 14.022C43.9181 14.0479 43.9633 14.0737 44.0106 14.0995C44.0214 14.1059 44.0321 14.1124 44.0429 14.1188C44.1913 14.2049 44.3376 14.2909 44.4838 14.3812C44.486 14.3812 44.486 14.3834 44.4881 14.3834C44.5871 14.4458 44.686 14.5082 44.785 14.5727C44.785 14.5727 44.7871 14.5748 44.7893 14.5748C44.8323 14.6028 44.8753 14.6308 44.9183 14.6587C44.9291 14.6652 44.9377 14.6716 44.9484 14.6781C44.9936 14.7082 45.0388 14.7383 45.0818 14.7684C45.1313 14.8007 45.1786 14.8351 45.228 14.8695C45.2711 14.8996 45.3119 14.9297 45.3549 14.9577C45.3679 14.9663 45.3829 14.9771 45.3958 14.9878C45.4238 15.0093 45.4539 15.0287 45.4819 15.0502C45.4991 15.0631 45.5141 15.0738 45.5313 15.0868C45.5743 15.119 45.6152 15.1491 45.6582 15.1814C45.6991 15.2115 45.7378 15.2416 45.7765 15.2717C45.7894 15.2803 45.8002 15.2911 45.8131 15.2997C45.9443 15.4008 46.0734 15.5019 46.2024 15.6073C46.211 15.6159 46.2218 15.6223 46.2304 15.6309C46.2713 15.6654 46.3121 15.6976 46.3508 15.732C46.4412 15.8073 46.5294 15.8826 46.6176 15.96C46.6197 15.9622 46.6197 15.9622 46.6219 15.9643C46.6649 16.0031 46.7079 16.0418 46.7531 16.0805C46.7961 16.1192 46.8412 16.1601 46.8843 16.1988C46.9251 16.2375 46.9682 16.2741 47.009 16.3128C47.0133 16.3171 47.0176 16.3192 47.0219 16.3235C47.0585 16.358 47.0951 16.3924 47.1338 16.4289C47.1402 16.4332 47.1445 16.4397 47.151 16.4461C47.1919 16.4849 47.2327 16.5236 47.2714 16.5644C47.3145 16.6053 47.3553 16.6462 47.3962 16.6892C47.4371 16.7301 47.4801 16.7731 47.5209 16.814C47.5618 16.857 47.6027 16.8978 47.6435 16.9409C47.6844 16.9839 47.7253 17.0269 47.7662 17.0699C47.8049 17.1108 47.8436 17.1517 47.8802 17.1947C47.8823 17.1968 47.8845 17.2011 47.8888 17.2033C47.9253 17.2441 47.9619 17.285 47.9985 17.3237C48.02 17.3474 48.0415 17.3732 48.063 17.3969C48.0823 17.4184 48.1017 17.4399 48.1189 17.4614C48.1211 17.4635 48.1232 17.4657 48.1254 17.4678C48.1813 17.5324 48.2372 17.5991 48.2931 17.6636C48.3319 17.7088 48.3684 17.7539 48.4071 17.7991C48.4243 17.8206 48.4415 17.84 48.4588 17.8615C48.4631 17.8658 48.4674 17.8701 48.4695 17.8744C48.5018 17.9131 48.534 17.954 48.5642 17.9927C48.5857 18.0185 48.6072 18.0464 48.6287 18.0744C48.6652 18.1217 48.7018 18.1669 48.7384 18.2142C48.8115 18.3067 48.8825 18.4014 48.9513 18.4981C48.9857 18.5433 49.018 18.5885 49.0503 18.6337C49.0524 18.638 49.0567 18.6423 49.0589 18.6444C49.0761 18.6659 49.0911 18.6896 49.1083 18.7132C49.1406 18.7563 49.1707 18.8014 49.2008 18.8444C49.2546 18.9219 49.3084 18.9993 49.3622 19.0789C49.3794 19.1026 49.3944 19.1284 49.4116 19.152C49.4611 19.2252 49.5084 19.3004 49.5579 19.3757C49.5751 19.4015 49.5902 19.4274 49.6074 19.4532C49.6461 19.5134 49.6826 19.5736 49.7192 19.636C49.7386 19.6661 49.7558 19.6962 49.7751 19.7285C49.8268 19.8145 49.8784 19.9006 49.9278 19.9866C49.9429 20.0103 49.9558 20.0361 49.9709 20.0597C49.9924 20.0984 50.0139 20.135 50.0354 20.1737C50.0526 20.2038 50.0698 20.234 50.0849 20.2641C50.1064 20.3006 50.1257 20.3372 50.1451 20.3738C50.1472 20.3759 50.1472 20.3781 50.1494 20.3802C50.1688 20.4146 50.186 20.449 50.2053 20.4835C50.2741 20.6125 50.3387 20.7416 50.4032 20.8706C50.4183 20.9007 50.4333 20.933 50.4484 20.9631C50.4527 20.9717 50.4548 20.9782 50.4591 20.9868C50.4785 21.0255 50.4957 21.0621 50.5129 21.0986C50.5323 21.1395 50.5516 21.1804 50.571 21.2212C50.5839 21.247 50.5968 21.275 50.6075 21.3008C50.6118 21.3116 50.6161 21.3202 50.6226 21.3309C50.6312 21.3503 50.6398 21.3696 50.6484 21.389C50.6592 21.4148 50.6721 21.4406 50.6828 21.4664C50.7022 21.5073 50.7194 21.5482 50.7366 21.589C50.7538 21.6299 50.771 21.6708 50.7882 21.7095C50.8076 21.7547 50.8269 21.7998 50.8463 21.8472C50.8614 21.8859 50.8786 21.9246 50.8936 21.9633C50.9087 21.9999 50.9237 22.0364 50.9366 22.073C50.9388 22.0816 50.9431 22.0881 50.9452 22.0967C50.9603 22.1354 50.9775 22.1763 50.9926 22.215C51.0055 22.2515 51.0205 22.2881 51.0334 22.3247C51.0377 22.3354 51.042 22.3462 51.0463 22.3569C51.0592 22.3935 51.0743 22.4322 51.0872 22.4688C51.1023 22.5118 51.1173 22.5548 51.1324 22.5957C51.1603 22.6753 51.1883 22.7527 51.2141 22.8323C51.2313 22.8818 51.2464 22.9312 51.2636 22.9829C51.2743 23.0194 51.2872 23.056 51.298 23.0904C51.3001 23.0969 51.3023 23.1055 51.3044 23.1119C51.3303 23.1915 51.3539 23.2689 51.3776 23.3485C51.3819 23.3593 51.384 23.3722 51.3883 23.3829L51.4163 23.4797C51.4335 23.5378 51.4486 23.5937 51.4658 23.6518C51.4765 23.6905 51.4873 23.7292 51.498 23.7679C51.5109 23.8131 51.5217 23.8561 51.5324 23.9013C51.5432 23.9465 51.5561 23.9895 51.5669 24.0347C51.5755 24.0712 51.5841 24.1056 51.5927 24.1401C51.6056 24.1938 51.6185 24.2476 51.6314 24.3014C51.64 24.3358 51.6486 24.3724 51.6551 24.4068C51.6572 24.4154 51.6594 24.4261 51.6615 24.4347C51.6701 24.4735 51.6787 24.5143 51.6873 24.553C51.7002 24.6111 51.711 24.667 51.7239 24.7251C51.7325 24.7638 51.7389 24.8025 51.7475 24.8413C51.7583 24.8907 51.7669 24.9381 51.7755 24.9875C51.7841 25.0305 51.7906 25.0714 51.7992 25.1144C51.8078 25.1596 51.8142 25.2048 51.8228 25.2499C51.8228 25.2521 51.8228 25.2542 51.8228 25.2542C51.8314 25.2994 51.8379 25.3446 51.8443 25.3876C51.8443 25.3919 51.8465 25.3962 51.8465 25.3984C51.8529 25.4414 51.8594 25.4822 51.8658 25.5253C51.8723 25.5704 51.8787 25.6178 51.8852 25.6629C51.8938 25.7167 51.9003 25.7705 51.9067 25.8242C51.911 25.8544 51.9153 25.8866 51.9196 25.9167C51.9282 25.9791 51.9347 26.0393 51.9411 26.1017C51.9454 26.1404 51.9497 26.1813 51.954 26.22C51.954 26.2222 51.954 26.2243 51.954 26.2286C51.9583 26.2695 51.9626 26.3082 51.9669 26.3491C51.9669 26.3577 51.9691 26.3663 51.9691 26.377C51.9712 26.4028 51.9734 26.4308 51.9755 26.4566C51.9777 26.4738 51.9777 26.491 51.9798 26.5082C51.982 26.5405 51.9841 26.5706 51.9884 26.6007C51.9906 26.6244 51.9928 26.6459 51.9928 26.6674C51.9949 26.7061 51.9992 26.7427 52.0014 26.7814C52.0035 26.8158 52.0057 26.8502 52.0078 26.8868C52.01 26.9105 52.01 26.932 52.0121 26.9556C52.0164 27.0245 52.0207 27.0933 52.0229 27.1643C52.0229 27.1686 52.0229 27.1707 52.0229 27.1729C52.025 27.1922 52.025 27.2116 52.025 27.231C52.0272 27.2589 52.0272 27.2869 52.0293 27.317C52.0293 27.3407 52.0315 27.3643 52.0315 27.388C52.0315 27.4159 52.0336 27.4439 52.0336 27.4697C52.0336 27.4912 52.0336 27.5127 52.0358 27.5321C52.0358 27.5687 52.0379 27.6074 52.0379 27.6439C52.0379 27.6891 52.0401 27.7321 52.0401 27.7773V27.7794C52.0508 27.8203 52.0508 27.8676 52.0508 27.915Z"/>
</mask>
<path d="M52.0508 27.915C52.0508 28.4699 52.0229 29.0205 51.9669 29.5626C51.7583 31.5931 51.1689 33.8128 50.2698 35.9982C49.7149 37.3468 49.0438 38.6826 48.2716 39.9516C47.8823 40.1086 47.4543 40.1968 47.0069 40.1968C46.8649 40.1968 46.7229 40.1882 46.5853 40.171C44.6774 44.6966 41.3714 47.8757 37.5277 48.4801C37.0781 48.5468 36.6221 48.5833 36.164 48.5855C31.6965 48.5726 27.7947 45.101 25.6932 39.9387C24.8328 39.9237 24.052 39.586 23.4648 39.0418C23.082 38.3578 22.7292 37.6587 22.4087 36.9511C21.2795 34.4646 20.5396 31.8899 20.3008 29.5647C20.2449 29.0227 20.2169 28.4721 20.2169 27.915C20.2169 27.8676 20.2169 27.8225 20.2169 27.7751V27.7622C20.2169 27.7278 20.2169 27.6934 20.2191 27.659C20.2191 27.6482 20.2191 27.6396 20.2191 27.6289C20.2191 27.6052 20.2191 27.5816 20.2212 27.5579C20.2212 27.545 20.2212 27.5321 20.2212 27.5192C20.2212 27.4998 20.2212 27.4805 20.2234 27.4611C20.2255 27.4224 20.2255 27.3837 20.2277 27.3471C20.2277 27.3407 20.2277 27.3342 20.2277 27.3278C20.232 27.2331 20.2363 27.1385 20.2406 27.046C20.2427 27.0051 20.2449 26.9621 20.247 26.9212C20.247 26.9062 20.2492 26.8911 20.2492 26.8761C20.2513 26.8373 20.2535 26.7986 20.2578 26.7599C20.2599 26.7212 20.2642 26.6825 20.2664 26.6438C20.2685 26.6265 20.2685 26.6115 20.2707 26.5964C20.2728 26.5577 20.2771 26.5211 20.2793 26.4846C20.2793 26.4738 20.2814 26.4631 20.2814 26.4523C20.2879 26.3684 20.2965 26.2845 20.3051 26.2028C20.3159 26.0996 20.3288 25.9942 20.3417 25.8909C20.346 25.8501 20.3524 25.807 20.3589 25.7662C20.3589 25.764 20.3589 25.764 20.3589 25.7619C20.3653 25.721 20.3696 25.6801 20.3761 25.6393C20.3847 25.5769 20.3954 25.5124 20.4041 25.45C20.4084 25.4156 20.4148 25.3833 20.4191 25.3489C20.4191 25.3467 20.4191 25.3424 20.4213 25.3403C20.4277 25.2973 20.4342 25.2542 20.4428 25.2134C20.4428 25.2091 20.4449 25.2069 20.4449 25.2026C20.4535 25.1575 20.46 25.1123 20.4686 25.0671C20.4772 25.0198 20.4858 24.9746 20.4944 24.9295C20.503 24.8886 20.5094 24.8477 20.5181 24.8069C20.5202 24.7982 20.5202 24.7896 20.5224 24.7832C20.5396 24.6993 20.5568 24.6133 20.574 24.5294C20.5761 24.5165 20.5783 24.5057 20.5826 24.4928C20.5912 24.4541 20.5998 24.4175 20.6084 24.3788C20.6191 24.3336 20.6299 24.2885 20.6407 24.2433C20.6514 24.1981 20.6622 24.153 20.6729 24.1078C20.6815 24.0691 20.6923 24.0304 20.7009 23.9938C20.7138 23.94 20.7288 23.8841 20.7439 23.8303C20.7676 23.7443 20.7891 23.6604 20.8127 23.5744C20.8149 23.5701 20.8149 23.5679 20.8149 23.5658C20.8278 23.5227 20.8385 23.4797 20.8514 23.4367C20.8622 23.4023 20.873 23.3679 20.8816 23.3335C20.888 23.3141 20.8923 23.2969 20.8988 23.2775C20.9095 23.2431 20.9203 23.2066 20.931 23.1721C20.9439 23.1313 20.9568 23.0926 20.9697 23.0517C20.9999 22.9592 21.03 22.8646 21.0622 22.7721C21.073 22.7398 21.0837 22.7075 21.0945 22.6753C21.101 22.6581 21.1074 22.6409 21.1117 22.6236C21.1246 22.5892 21.1354 22.5548 21.1483 22.5226C21.1655 22.4774 21.1805 22.4322 21.1977 22.387C21.2128 22.3462 21.2279 22.3053 21.2429 22.2644C21.2773 22.1763 21.3096 22.0881 21.3462 22.002C21.3634 21.959 21.3806 21.9181 21.3978 21.8751V21.873C21.4128 21.8343 21.4279 21.7977 21.4451 21.7611C21.4494 21.7525 21.4516 21.7461 21.4559 21.7375C21.4731 21.6987 21.4881 21.66 21.5053 21.6213C21.5225 21.5804 21.5419 21.5374 21.5613 21.4966C21.5613 21.4944 21.5634 21.4944 21.5634 21.4923C21.5806 21.4514 21.6 21.4105 21.6172 21.3718C21.6537 21.2922 21.6903 21.2148 21.7269 21.1352C21.7312 21.1287 21.7333 21.1201 21.7376 21.1137C21.7742 21.0341 21.8129 20.9545 21.8516 20.8771C21.871 20.8362 21.8925 20.7953 21.9119 20.7545C21.9549 20.6706 21.9979 20.5867 22.0409 20.505C22.0603 20.4663 22.0818 20.4297 22.1011 20.3931C22.1227 20.3523 22.1442 20.3135 22.1657 20.2727C22.1872 20.234 22.2087 20.1931 22.2323 20.1544C22.2345 20.1479 22.2388 20.1436 22.241 20.1372C22.2603 20.1027 22.2797 20.0683 22.299 20.0361C22.3205 19.9974 22.3442 19.9565 22.3679 19.9178C22.3851 19.8877 22.4023 19.8575 22.4195 19.8296C22.4281 19.8124 22.4388 19.7973 22.4474 19.7823C22.4668 19.7521 22.484 19.7199 22.5034 19.6898C22.527 19.6489 22.5528 19.6102 22.5765 19.5693C22.6002 19.5327 22.6217 19.4962 22.6453 19.4596C22.6475 19.4575 22.6475 19.4553 22.6496 19.4532C22.6711 19.4166 22.6948 19.3822 22.7163 19.3478C22.7464 19.3004 22.7765 19.2531 22.8088 19.2058C22.8282 19.1778 22.8454 19.1499 22.8647 19.1198C22.9422 19.0058 23.0196 18.8918 23.0992 18.7778C23.125 18.7412 23.1508 18.7046 23.1788 18.6681C23.2024 18.6358 23.2239 18.6057 23.2476 18.5734C23.2519 18.5691 23.2562 18.5627 23.2583 18.5584C23.2842 18.524 23.31 18.4874 23.3358 18.453C23.3637 18.4143 23.3917 18.3755 23.4218 18.339C23.4455 18.3089 23.4691 18.2787 23.4928 18.2465C23.5251 18.2056 23.5573 18.1647 23.5896 18.1217C23.6176 18.0873 23.6434 18.0529 23.6713 18.0185C23.6735 18.0163 23.6756 18.012 23.6778 18.0099C23.7036 17.9776 23.7273 17.9475 23.7531 17.9152C23.7552 17.9131 23.7574 17.9109 23.7595 17.9088C23.7853 17.8787 23.809 17.8464 23.8348 17.8163C23.8606 17.7862 23.8864 17.7539 23.9101 17.7238C23.9251 17.7066 23.938 17.6894 23.9531 17.6722C23.9531 17.67 23.9553 17.6679 23.9574 17.6679C23.9961 17.6227 24.0327 17.5775 24.0714 17.5345C24.0822 17.5216 24.0929 17.5087 24.1037 17.498C24.1316 17.4657 24.1596 17.4334 24.1876 17.4012C24.1897 17.399 24.1897 17.399 24.1897 17.3969C24.2155 17.3668 24.2435 17.3366 24.2714 17.3065C24.2822 17.2936 24.2929 17.2807 24.3059 17.27C24.3274 17.2463 24.351 17.2205 24.3725 17.1968C24.4048 17.1624 24.4371 17.128 24.4693 17.0936C24.4887 17.0742 24.5059 17.0527 24.5253 17.0334C24.5425 17.014 24.5618 16.9946 24.5812 16.9753C24.5962 16.9602 24.6113 16.9452 24.6263 16.928C24.65 16.9021 24.6758 16.8763 24.7016 16.8505C24.7167 16.8355 24.7317 16.8204 24.7468 16.8032C24.7791 16.7709 24.8113 16.7387 24.8414 16.7064C24.8586 16.6892 24.8759 16.6698 24.8952 16.6526C24.9189 16.629 24.9425 16.6053 24.9662 16.5838C24.9769 16.5731 24.9877 16.5623 24.9963 16.5537C25.02 16.53 25.0436 16.5085 25.0651 16.4849C25.0866 16.4634 25.1082 16.444 25.1297 16.4225C25.1684 16.3859 25.2071 16.3494 25.2458 16.3128C25.2824 16.2784 25.3189 16.244 25.3555 16.2095C25.362 16.2052 25.3663 16.1988 25.3727 16.1945C25.405 16.1644 25.4372 16.1343 25.4695 16.1063C25.4846 16.0912 25.5018 16.0783 25.5168 16.0633C25.5878 15.9988 25.6609 15.9364 25.7341 15.874C25.7534 15.8568 25.7749 15.8396 25.7943 15.8224C25.8158 15.803 25.8373 15.7837 25.861 15.7665C25.8825 15.7471 25.9062 15.7277 25.9277 15.7084C26.0116 15.6374 26.0954 15.5686 26.1815 15.5019C26.218 15.4739 26.2546 15.4438 26.289 15.4158C26.2998 15.4072 26.3084 15.4008 26.3191 15.3922C26.36 15.3599 26.403 15.3277 26.446 15.2954C26.4762 15.2717 26.5063 15.2481 26.5364 15.2266C26.5471 15.218 26.56 15.2094 26.5708 15.2008C26.5923 15.1835 26.6138 15.1685 26.6353 15.1513C26.6611 15.1319 26.6869 15.1126 26.7128 15.0932C26.7214 15.0868 26.73 15.0803 26.7407 15.0738C26.7794 15.0437 26.8203 15.0158 26.859 14.9878C26.8655 14.9835 26.8698 14.9792 26.8762 14.9749C26.9192 14.9426 26.9644 14.9125 27.0074 14.8803C27.0483 14.8523 27.087 14.8243 27.1279 14.7964C27.1558 14.777 27.1838 14.7577 27.2118 14.7383C27.2247 14.7297 27.2376 14.7211 27.2505 14.7125C27.2806 14.6931 27.3086 14.6738 27.3387 14.6523C27.3774 14.6265 27.4183 14.6006 27.457 14.5748C27.5022 14.5447 27.5473 14.5168 27.5925 14.4866C27.6054 14.478 27.6183 14.4694 27.6312 14.463C27.6613 14.4436 27.6936 14.4243 27.7258 14.4028C27.7409 14.3942 27.7581 14.3834 27.7732 14.3748C27.8097 14.3511 27.8485 14.3275 27.885 14.306C27.8958 14.2995 27.9087 14.2931 27.9194 14.2845C27.9668 14.2565 28.0141 14.2285 28.0614 14.2006C28.1087 14.1726 28.1582 14.1446 28.2055 14.1167C28.2098 14.1145 28.2163 14.1102 28.2206 14.1081C28.2614 14.0844 28.3023 14.0608 28.341 14.0392C28.412 13.9984 28.4851 13.9597 28.5561 13.9209C28.5927 13.9016 28.6271 13.8822 28.6637 13.8629C28.7217 13.8328 28.7798 13.8026 28.8379 13.7725C28.8637 13.7596 28.8917 13.7446 28.9175 13.7317C28.9411 13.7188 28.9669 13.7059 28.9928 13.6929C29.0315 13.6736 29.068 13.6542 29.1068 13.6349C29.124 13.6263 29.1412 13.6177 29.1584 13.6091C29.1863 13.5962 29.2143 13.5811 29.2423 13.5682C29.2681 13.5553 29.2939 13.5445 29.3197 13.5316C29.3627 13.5101 29.4079 13.4908 29.4509 13.4714C29.4875 13.4542 29.5262 13.437 29.5628 13.4198C29.58 13.4112 29.5993 13.4026 29.6187 13.394C29.6488 13.3811 29.6768 13.3682 29.7069 13.3552C29.7133 13.3531 29.7198 13.3488 29.7262 13.3466C29.7456 13.338 29.7649 13.3294 29.7843 13.3208C29.8187 13.3058 29.8553 13.2907 29.8918 13.2757C29.9004 13.2714 29.9069 13.2692 29.9155 13.2649C29.9585 13.2477 30.0015 13.2283 30.0446 13.2111C30.1586 13.1638 30.2747 13.1165 30.3909 13.0735C30.4317 13.0584 30.4726 13.0434 30.5113 13.0262C30.5737 13.0025 30.6361 12.9788 30.7006 12.9573C30.7458 12.9401 30.7909 12.9251 30.8383 12.9079C30.8856 12.8906 30.9351 12.8734 30.9824 12.8584C31.0017 12.8519 31.0211 12.8455 31.0404 12.839C31.077 12.8261 31.1136 12.8154 31.148 12.8025C31.1631 12.7982 31.1803 12.7917 31.1953 12.7874C31.2383 12.7745 31.2814 12.7594 31.3244 12.7465C31.3265 12.7465 31.3287 12.7444 31.333 12.7444C31.3824 12.7293 31.4319 12.7121 31.4835 12.6971C31.4878 12.6949 31.4943 12.6949 31.4986 12.6928C31.5266 12.6842 31.5567 12.6756 31.5846 12.6669C31.6126 12.6583 31.6427 12.6497 31.6707 12.6411C31.6986 12.6325 31.7287 12.6239 31.7589 12.6153C31.789 12.6067 31.8169 12.5981 31.847 12.5917C31.9051 12.5745 31.9632 12.5594 32.0234 12.5443C32.0428 12.54 32.06 12.5336 32.0794 12.5293C32.103 12.5228 32.1267 12.5164 32.1503 12.5099C32.1955 12.497 32.2428 12.4863 32.288 12.4755C32.316 12.4691 32.3439 12.4626 32.3719 12.4562C32.5224 12.4196 32.6709 12.3852 32.8236 12.3529C32.8537 12.3465 32.8838 12.34 32.9139 12.3336C32.9505 12.3249 32.9892 12.3185 33.0258 12.312C33.0473 12.3077 33.0709 12.3034 33.0924 12.2991C33.1892 12.2798 33.286 12.2626 33.3828 12.2454C33.4043 12.2411 33.428 12.2368 33.4495 12.2346C33.4947 12.226 33.5398 12.2196 33.585 12.2131C33.613 12.2088 33.6431 12.2045 33.671 12.2002C33.6904 12.198 33.7098 12.1937 33.7291 12.1916C33.7549 12.1873 33.7829 12.183 33.8087 12.1808C33.9335 12.1615 34.0604 12.1464 34.1873 12.1292C34.8218 12.0518 35.4692 12.0131 36.1253 12.0131C36.7727 12.0131 37.4137 12.0518 38.0418 12.1271C38.1342 12.1378 38.2267 12.1507 38.3192 12.1636C38.3493 12.1679 38.3795 12.1722 38.4117 12.1765C38.4397 12.1808 38.4676 12.1851 38.4978 12.1894C38.5279 12.1937 38.558 12.198 38.5881 12.2023C38.6096 12.2045 38.6311 12.2088 38.6548 12.2131C38.7021 12.2196 38.7494 12.2282 38.7946 12.2368C38.8204 12.2411 38.8441 12.2454 38.8699 12.2497C38.9 12.254 38.9301 12.2604 38.9602 12.2647C39.0161 12.2755 39.0699 12.2841 39.1258 12.2948C39.1559 12.3013 39.1861 12.3056 39.214 12.312C39.3431 12.3379 39.4721 12.3637 39.599 12.3938C39.7453 12.426 39.8894 12.4605 40.0335 12.497C40.0636 12.5035 40.0916 12.5121 40.1217 12.5207C40.1518 12.5271 40.1798 12.5357 40.2099 12.5443C40.2443 12.5529 40.2766 12.5616 40.3088 12.5702C40.3347 12.5766 40.3605 12.5852 40.3841 12.5917C40.5003 12.6239 40.6164 12.6583 40.7326 12.6928C40.7584 12.7014 40.7864 12.71 40.8143 12.7164C40.8337 12.7229 40.853 12.7293 40.8724 12.7336C40.8982 12.7422 40.9262 12.7508 40.9541 12.7594C41.0746 12.7982 41.195 12.8369 41.3133 12.8777C41.3348 12.8842 41.3564 12.8928 41.3779 12.8992C41.3929 12.9036 41.408 12.91 41.423 12.9165C41.451 12.9272 41.479 12.9358 41.5091 12.9466C41.5263 12.953 41.5435 12.9595 41.5607 12.9659C41.5822 12.9745 41.6059 12.9831 41.6274 12.9896C41.6553 13.0003 41.6833 13.0111 41.7113 13.0197C41.7285 13.0262 41.7457 13.0326 41.7607 13.0391C41.7865 13.0498 41.8145 13.0584 41.8403 13.0692C42.0102 13.1337 42.178 13.2025 42.3436 13.2735C42.363 13.2821 42.3824 13.2907 42.4017 13.2993C42.4383 13.3144 42.4727 13.3294 42.5093 13.3466C42.5329 13.3574 42.5566 13.3682 42.5781 13.3768C42.6103 13.3897 42.6405 13.4047 42.6727 13.4198C42.6985 13.4305 42.7243 13.4434 42.7502 13.4563C42.7781 13.4692 42.8061 13.4822 42.834 13.4951C42.8599 13.508 42.8857 13.5187 42.9136 13.5316C42.9416 13.5445 42.9696 13.5574 42.9975 13.5703C43.0233 13.5832 43.0513 13.5962 43.0771 13.6091C43.1309 13.6349 43.1847 13.6607 43.2384 13.6886C43.3202 13.7295 43.4019 13.7725 43.4836 13.8134C43.5116 13.8285 43.5374 13.8414 43.5654 13.8564C43.6148 13.8822 43.6643 13.908 43.7138 13.936C43.7654 13.964 43.8192 13.9941 43.8708 14.022C43.9181 14.0479 43.9633 14.0737 44.0106 14.0995C44.0214 14.1059 44.0321 14.1124 44.0429 14.1188C44.1913 14.2049 44.3376 14.2909 44.4838 14.3812C44.486 14.3812 44.486 14.3834 44.4881 14.3834C44.5871 14.4458 44.686 14.5082 44.785 14.5727C44.785 14.5727 44.7871 14.5748 44.7893 14.5748C44.8323 14.6028 44.8753 14.6308 44.9183 14.6587C44.9291 14.6652 44.9377 14.6716 44.9484 14.6781C44.9936 14.7082 45.0388 14.7383 45.0818 14.7684C45.1313 14.8007 45.1786 14.8351 45.228 14.8695C45.2711 14.8996 45.3119 14.9297 45.3549 14.9577C45.3679 14.9663 45.3829 14.9771 45.3958 14.9878C45.4238 15.0093 45.4539 15.0287 45.4819 15.0502C45.4991 15.0631 45.5141 15.0738 45.5313 15.0868C45.5743 15.119 45.6152 15.1491 45.6582 15.1814C45.6991 15.2115 45.7378 15.2416 45.7765 15.2717C45.7894 15.2803 45.8002 15.2911 45.8131 15.2997C45.9443 15.4008 46.0734 15.5019 46.2024 15.6073C46.211 15.6159 46.2218 15.6223 46.2304 15.6309C46.2713 15.6654 46.3121 15.6976 46.3508 15.732C46.4412 15.8073 46.5294 15.8826 46.6176 15.96C46.6197 15.9622 46.6197 15.9622 46.6219 15.9643C46.6649 16.0031 46.7079 16.0418 46.7531 16.0805C46.7961 16.1192 46.8412 16.1601 46.8843 16.1988C46.9251 16.2375 46.9682 16.2741 47.009 16.3128C47.0133 16.3171 47.0176 16.3192 47.0219 16.3235C47.0585 16.358 47.0951 16.3924 47.1338 16.4289C47.1402 16.4332 47.1445 16.4397 47.151 16.4461C47.1919 16.4849 47.2327 16.5236 47.2714 16.5644C47.3145 16.6053 47.3553 16.6462 47.3962 16.6892C47.4371 16.7301 47.4801 16.7731 47.5209 16.814C47.5618 16.857 47.6027 16.8978 47.6435 16.9409C47.6844 16.9839 47.7253 17.0269 47.7662 17.0699C47.8049 17.1108 47.8436 17.1517 47.8802 17.1947C47.8823 17.1968 47.8845 17.2011 47.8888 17.2033C47.9253 17.2441 47.9619 17.285 47.9985 17.3237C48.02 17.3474 48.0415 17.3732 48.063 17.3969C48.0823 17.4184 48.1017 17.4399 48.1189 17.4614C48.1211 17.4635 48.1232 17.4657 48.1254 17.4678C48.1813 17.5324 48.2372 17.5991 48.2931 17.6636C48.3319 17.7088 48.3684 17.7539 48.4071 17.7991C48.4243 17.8206 48.4415 17.84 48.4588 17.8615C48.4631 17.8658 48.4674 17.8701 48.4695 17.8744C48.5018 17.9131 48.534 17.954 48.5642 17.9927C48.5857 18.0185 48.6072 18.0464 48.6287 18.0744C48.6652 18.1217 48.7018 18.1669 48.7384 18.2142C48.8115 18.3067 48.8825 18.4014 48.9513 18.4981C48.9857 18.5433 49.018 18.5885 49.0503 18.6337C49.0524 18.638 49.0567 18.6423 49.0589 18.6444C49.0761 18.6659 49.0911 18.6896 49.1083 18.7132C49.1406 18.7563 49.1707 18.8014 49.2008 18.8444C49.2546 18.9219 49.3084 18.9993 49.3622 19.0789C49.3794 19.1026 49.3944 19.1284 49.4116 19.152C49.4611 19.2252 49.5084 19.3004 49.5579 19.3757C49.5751 19.4015 49.5902 19.4274 49.6074 19.4532C49.6461 19.5134 49.6826 19.5736 49.7192 19.636C49.7386 19.6661 49.7558 19.6962 49.7751 19.7285C49.8268 19.8145 49.8784 19.9006 49.9278 19.9866C49.9429 20.0103 49.9558 20.0361 49.9709 20.0597C49.9924 20.0984 50.0139 20.135 50.0354 20.1737C50.0526 20.2038 50.0698 20.234 50.0849 20.2641C50.1064 20.3006 50.1257 20.3372 50.1451 20.3738C50.1472 20.3759 50.1472 20.3781 50.1494 20.3802C50.1688 20.4146 50.186 20.449 50.2053 20.4835C50.2741 20.6125 50.3387 20.7416 50.4032 20.8706C50.4183 20.9007 50.4333 20.933 50.4484 20.9631C50.4527 20.9717 50.4548 20.9782 50.4591 20.9868C50.4785 21.0255 50.4957 21.0621 50.5129 21.0986C50.5323 21.1395 50.5516 21.1804 50.571 21.2212C50.5839 21.247 50.5968 21.275 50.6075 21.3008C50.6118 21.3116 50.6161 21.3202 50.6226 21.3309C50.6312 21.3503 50.6398 21.3696 50.6484 21.389C50.6592 21.4148 50.6721 21.4406 50.6828 21.4664C50.7022 21.5073 50.7194 21.5482 50.7366 21.589C50.7538 21.6299 50.771 21.6708 50.7882 21.7095C50.8076 21.7547 50.8269 21.7998 50.8463 21.8472C50.8614 21.8859 50.8786 21.9246 50.8936 21.9633C50.9087 21.9999 50.9237 22.0364 50.9366 22.073C50.9388 22.0816 50.9431 22.0881 50.9452 22.0967C50.9603 22.1354 50.9775 22.1763 50.9926 22.215C51.0055 22.2515 51.0205 22.2881 51.0334 22.3247C51.0377 22.3354 51.042 22.3462 51.0463 22.3569C51.0592 22.3935 51.0743 22.4322 51.0872 22.4688C51.1023 22.5118 51.1173 22.5548 51.1324 22.5957C51.1603 22.6753 51.1883 22.7527 51.2141 22.8323C51.2313 22.8818 51.2464 22.9312 51.2636 22.9829C51.2743 23.0194 51.2872 23.056 51.298 23.0904C51.3001 23.0969 51.3023 23.1055 51.3044 23.1119C51.3303 23.1915 51.3539 23.2689 51.3776 23.3485C51.3819 23.3593 51.384 23.3722 51.3883 23.3829L51.4163 23.4797C51.4335 23.5378 51.4486 23.5937 51.4658 23.6518C51.4765 23.6905 51.4873 23.7292 51.498 23.7679C51.5109 23.8131 51.5217 23.8561 51.5324 23.9013C51.5432 23.9465 51.5561 23.9895 51.5669 24.0347C51.5755 24.0712 51.5841 24.1056 51.5927 24.1401C51.6056 24.1938 51.6185 24.2476 51.6314 24.3014C51.64 24.3358 51.6486 24.3724 51.6551 24.4068C51.6572 24.4154 51.6594 24.4261 51.6615 24.4347C51.6701 24.4735 51.6787 24.5143 51.6873 24.553C51.7002 24.6111 51.711 24.667 51.7239 24.7251C51.7325 24.7638 51.7389 24.8025 51.7475 24.8413C51.7583 24.8907 51.7669 24.9381 51.7755 24.9875C51.7841 25.0305 51.7906 25.0714 51.7992 25.1144C51.8078 25.1596 51.8142 25.2048 51.8228 25.2499C51.8228 25.2521 51.8228 25.2542 51.8228 25.2542C51.8314 25.2994 51.8379 25.3446 51.8443 25.3876C51.8443 25.3919 51.8465 25.3962 51.8465 25.3984C51.8529 25.4414 51.8594 25.4822 51.8658 25.5253C51.8723 25.5704 51.8787 25.6178 51.8852 25.6629C51.8938 25.7167 51.9003 25.7705 51.9067 25.8242C51.911 25.8544 51.9153 25.8866 51.9196 25.9167C51.9282 25.9791 51.9347 26.0393 51.9411 26.1017C51.9454 26.1404 51.9497 26.1813 51.954 26.22C51.954 26.2222 51.954 26.2243 51.954 26.2286C51.9583 26.2695 51.9626 26.3082 51.9669 26.3491C51.9669 26.3577 51.9691 26.3663 51.9691 26.377C51.9712 26.4028 51.9734 26.4308 51.9755 26.4566C51.9777 26.4738 51.9777 26.491 51.9798 26.5082C51.982 26.5405 51.9841 26.5706 51.9884 26.6007C51.9906 26.6244 51.9928 26.6459 51.9928 26.6674C51.9949 26.7061 51.9992 26.7427 52.0014 26.7814C52.0035 26.8158 52.0057 26.8502 52.0078 26.8868C52.01 26.9105 52.01 26.932 52.0121 26.9556C52.0164 27.0245 52.0207 27.0933 52.0229 27.1643C52.0229 27.1686 52.0229 27.1707 52.0229 27.1729C52.025 27.1922 52.025 27.2116 52.025 27.231C52.0272 27.2589 52.0272 27.2869 52.0293 27.317C52.0293 27.3407 52.0315 27.3643 52.0315 27.388C52.0315 27.4159 52.0336 27.4439 52.0336 27.4697C52.0336 27.4912 52.0336 27.5127 52.0358 27.5321C52.0358 27.5687 52.0379 27.6074 52.0379 27.6439C52.0379 27.6891 52.0401 27.7321 52.0401 27.7773V27.7794C52.0508 27.8203 52.0508 27.8676 52.0508 27.915Z" fill="white" stroke="black" stroke-width="2.06266" mask="url(#path-19-inside-1_1241_7565)"/>
<path d="M46.1092 39.9706L46.1093 39.9704C46.9098 38.0737 47.4592 35.9303 47.6909 33.6323C47.7709 32.8296 47.8131 32.0079 47.8131 31.1736C47.8131 30.649 47.7962 30.129 47.7626 29.6156L47.7625 29.6143C47.3758 23.4848 44.7352 18.3619 41.1364 15.8881L41.1364 15.888C40.1585 15.2156 39.1099 14.7387 38.015 14.4857L38.0149 14.4857C37.4205 14.3482 36.8099 14.2774 36.1867 14.2774C35.5223 14.2774 34.8711 14.3601 34.2367 14.5162C33.2206 14.7672 32.2452 15.2119 31.329 15.8268C27.6848 18.2727 25.0039 23.423 24.6087 29.6019L24.6087 29.6024C24.575 30.1202 24.5581 30.6425 24.5581 31.1736C24.5581 31.9824 24.5982 32.7765 24.674 33.556L46.1092 39.9706ZM46.1092 39.9706C44.2427 44.3979 41.0532 47.4035 37.4466 47.9706M46.1092 39.9706L37.4466 47.9706M37.4466 47.9706C37.0308 48.0355 36.6124 48.0698 36.1867 48.0698M37.4466 47.9706L36.1867 48.0698M36.1867 48.0698H36.1866M36.1867 48.0698H36.1866M36.1866 48.0698H36.1866M36.1866 48.0698H36.1866M36.1866 48.0698H36.1865M36.1866 48.0698H36.1865M36.1865 48.0698H36.1865M36.1865 48.0698H36.1865M36.1865 48.0698H36.1864M36.1865 48.0698H36.1864M36.1864 48.0698H36.1864M36.1864 48.0698H36.1864M36.1864 48.0698H36.1863M36.1864 48.0698H36.1863M36.1863 48.0698H36.1863M36.1863 48.0698H36.1863M36.1863 48.0698H36.1862M36.1863 48.0698H36.1862M36.1862 48.0698H36.1862M36.1862 48.0698H36.1862M36.1862 48.0698H36.1861M36.1862 48.0698H36.1861M36.1861 48.0698H36.1861M36.1861 48.0698H36.1861M36.1861 48.0698H36.186M36.1861 48.0698H36.186M36.186 48.0698H36.186M36.186 48.0698H36.186M36.186 48.0698H36.1859M36.186 48.0698H36.1859M36.1859 48.0698H36.1859M36.1859 48.0698H36.1859M36.1859 48.0698H36.1858M36.1859 48.0698H36.1858M36.1858 48.0698H36.1858M36.1858 48.0698H36.1858M36.1858 48.0698H36.1857M36.1858 48.0698H36.1857M36.1857 48.0698H36.1857M36.1857 48.0698H36.1857M36.1857 48.0698H36.1856M36.1857 48.0698H36.1856M36.1856 48.0698H36.1856M36.1856 48.0698H36.1856M36.1856 48.0698H36.1855M36.1856 48.0698H36.1855M36.1855 48.0698H36.1855M36.1855 48.0698H36.1855M36.1855 48.0698H36.1854M36.1855 48.0698H36.1854M36.1854 48.0698H36.1854M36.1854 48.0698H36.1854M36.1854 48.0698H36.1853M36.1854 48.0698H36.1853M36.1853 48.0698H36.1853M36.1853 48.0698H36.1853M36.1853 48.0698H36.1852M36.1853 48.0698H36.1852M36.1852 48.0698H36.1852M36.1852 48.0698H36.1852M36.1852 48.0698H36.1851M36.1852 48.0698H36.1851M36.1851 48.0698H36.1851M36.1851 48.0698H36.1851M36.1851 48.0698H36.185M36.1851 48.0698H36.185M36.185 48.0698H36.185M36.185 48.0698H36.185M36.185 48.0698H36.1849M36.185 48.0698H36.1849M36.1849 48.0698H36.1849M36.1849 48.0698H36.1849M36.1849 48.0698H36.1848M36.1849 48.0698H36.1848M36.1848 48.0698H36.1848M36.1848 48.0698H36.1848M36.1848 48.0698H36.1847M36.1848 48.0698H36.1847M36.1847 48.0698H36.1847M36.1847 48.0698H36.1847M36.1847 48.0698H36.1846M36.1847 48.0698H36.1846M36.1846 48.0698H36.1846M36.1846 48.0698H36.1846M36.1846 48.0698H36.1845M36.1846 48.0698H36.1845M36.1845 48.0698H36.1845M36.1845 48.0698H36.1845M36.1845 48.0698H36.1844M36.1845 48.0698H36.1844M36.1844 48.0698H36.1844M36.1844 48.0698H36.1844M36.1844 48.0698H36.1843M36.1844 48.0698H36.1843M36.1843 48.0698H36.1843M36.1843 48.0698H36.1843M36.1843 48.0698H36.1842M36.1843 48.0698H36.1842M36.1842 48.0698H36.1842M36.1842 48.0698H36.1842M36.1842 48.0698H36.1841M36.1842 48.0698H36.1841M36.1841 48.0698H36.1841M36.1841 48.0698H36.1841M36.1841 48.0698H36.184M36.1841 48.0698H36.184M36.184 48.0698H36.184M36.184 48.0698H36.184M36.184 48.0698H36.1839M36.184 48.0698H36.1839M36.1839 48.0698H36.1839M36.1839 48.0698H36.1839M36.1839 48.0698H36.1838M36.1839 48.0698H36.1838M36.1838 48.0698H36.1838M36.1838 48.0698H36.1838M36.1838 48.0698H36.1837M36.1838 48.0698H36.1837M36.1837 48.0698H36.1837M36.1837 48.0698H36.1837M36.1837 48.0698H36.1836M36.1837 48.0698H36.1836M36.1836 48.0698H36.1836M36.1836 48.0698H36.1836M36.1836 48.0698H36.1835M36.1836 48.0698H36.1835M36.1835 48.0698H36.1835M36.1835 48.0698H36.1835M36.1835 48.0698H36.1834M36.1835 48.0698H36.1834M36.1834 48.0698H36.1834M36.1834 48.0698H36.1834M36.1834 48.0698H36.1833M36.1834 48.0698H36.1833M36.1833 48.0698H36.1833M36.1833 48.0698H36.1833M36.1833 48.0698H36.1832M36.1833 48.0698H36.1832M36.1832 48.0698H36.1832M36.1832 48.0698H36.1832M36.1832 48.0698H36.1831M36.1832 48.0698H36.1831M36.1831 48.0698H36.1831M36.1831 48.0698H36.1831M36.1831 48.0698H36.183M36.1831 48.0698H36.183M36.183 48.0698H36.183M36.183 48.0698H36.183M36.183 48.0698H36.1829M36.183 48.0698H36.1829M36.1829 48.0698H36.1829M36.1829 48.0698H36.1829M36.1829 48.0698H36.1828M36.1829 48.0698H36.1828M36.1828 48.0698H36.1828M36.1828 48.0698H36.1828M36.1828 48.0698H36.1827M36.1828 48.0698H36.1827M36.1827 48.0698H36.1827M36.1827 48.0698H36.1827M36.1827 48.0698H36.1826M36.1827 48.0698H36.1826M36.1826 48.0698H36.1826M36.1826 48.0698H36.1826M36.1826 48.0698H36.1825M36.1826 48.0698H36.1825M36.1825 48.0698H36.1825M36.1825 48.0698H36.1825M36.1825 48.0698H36.1824M36.1825 48.0698H36.1824M36.1824 48.0698H36.1824M36.1824 48.0698H36.1824M36.1824 48.0698H36.1823M36.1824 48.0698H36.1823M36.1823 48.0698H36.1823M36.1823 48.0698H36.1823M36.1823 48.0698H36.1822M36.1823 48.0698H36.1822M36.1822 48.0698H36.1822M36.1822 48.0698H36.1822M36.1822 48.0698H36.1821M36.1822 48.0698H36.1821M36.1821 48.0698H36.1821M36.1821 48.0698H36.1821M36.1821 48.0698H36.182M36.1821 48.0698H36.182M36.182 48.0698H36.182M36.182 48.0698H36.182M36.182 48.0698H36.1819M36.182 48.0698H36.1819M36.1819 48.0698H36.1819M36.1819 48.0698H36.1819M36.1819 48.0698H36.1818M36.1819 48.0698H36.1818M36.1818 48.0698H36.1818M36.1818 48.0698H36.1818M36.1818 48.0698H36.1817M36.1818 48.0698H36.1817M36.1817 48.0698H36.1817M36.1817 48.0698H36.1817M36.1817 48.0698H36.1816M36.1817 48.0698H36.1816M36.1816 48.0698H36.1816M36.1816 48.0698H36.1816M36.1816 48.0698H36.1815M36.1816 48.0698H36.1815M36.1815 48.0698H36.1815M36.1815 48.0698H36.1815M36.1815 48.0698H36.1814M36.1815 48.0698H36.1814M36.1814 48.0698H36.1814M36.1814 48.0698H36.1814M36.1814 48.0698H36.1813M36.1814 48.0698H36.1813M36.1813 48.0698H36.1813M36.1813 48.0698H36.1813M36.1813 48.0698H36.1812M36.1813 48.0698H36.1812M36.1812 48.0698H36.1812M36.1812 48.0698H36.1812M36.1812 48.0698H36.1811M36.1812 48.0698H36.1811M36.1811 48.0698H36.1811M36.1811 48.0698H36.1811M36.1811 48.0698H36.181M36.1811 48.0698H36.181M36.181 48.0698H36.181M36.181 48.0698H36.181M36.181 48.0698H36.1809M36.181 48.0698H36.1809M36.1809 48.0698H36.1809M36.1809 48.0698H36.1809M36.1809 48.0698H36.1808M36.1809 48.0698H36.1808M36.1808 48.0698H36.1808M36.1808 48.0698H36.1808M36.1808 48.0698H36.1807M36.1808 48.0698H36.1807M36.1807 48.0698H36.1807M36.1807 48.0698H36.1807M36.1807 48.0698H36.1806M36.1807 48.0698H36.1806M36.1806 48.0698H36.1806M36.1806 48.0698H36.1806M36.1806 48.0698H36.1805M36.1806 48.0698H36.1805M36.1805 48.0698H36.1805M36.1805 48.0698H36.1805M36.1805 48.0698H36.1804M36.1805 48.0698H36.1804M36.1804 48.0698H36.1804M36.1804 48.0698H36.1804M36.1804 48.0698H36.1803M36.1804 48.0698H36.1803M36.1803 48.0698H36.1803M36.1803 48.0698H36.1803M36.1803 48.0698H36.1802M36.1803 48.0698H36.1802M36.1802 48.0698H36.1802M36.1802 48.0698H36.1802M36.1802 48.0698H36.1801M36.1802 48.0698H36.1801M36.1801 48.0698H36.1801M36.1801 48.0698H36.1801M36.1801 48.0698H36.18M36.1801 48.0698H36.18M36.18 48.0698H36.18M36.18 48.0698H36.18M36.18 48.0698H36.1799M36.18 48.0698H36.1799M36.1799 48.0698H36.1799M36.1799 48.0698H36.1799M36.1799 48.0698H36.1798M36.1799 48.0698H36.1798M36.1798 48.0698H36.1798M36.1798 48.0698H36.1798M36.1798 48.0698H36.1797M36.1798 48.0698H36.1797M36.1797 48.0698H36.1797M36.1797 48.0698H36.1797M36.1797 48.0698H36.1796M36.1797 48.0698H36.1796M36.1796 48.0698H36.1796M36.1796 48.0698H36.1796M36.1796 48.0698H36.1795M36.1796 48.0698H36.1795M36.1795 48.0698H36.1795M36.1795 48.0698H36.1795M36.1795 48.0698H36.1794M36.1795 48.0698H36.1794M36.1794 48.0698H36.1794M36.1794 48.0698H36.1794M36.1794 48.0698H36.1793M36.1794 48.0698H36.1793M36.1793 48.0698H36.1793M36.1793 48.0698H36.1793M36.1793 48.0698H36.1792M36.1793 48.0698H36.1792M36.1792 48.0698H36.1792M36.1792 48.0698H36.1792M36.1792 48.0698H36.1791M36.1792 48.0698H36.1791M36.1791 48.0698H36.1791M36.1791 48.0698H36.1791M36.1791 48.0698H36.179M36.1791 48.0698H36.179M36.179 48.0698H36.179M36.179 48.0698H36.179M36.179 48.0698H36.1789M36.179 48.0698H36.1789M36.1789 48.0698H36.1789M36.1789 48.0698H36.1789M36.1789 48.0698H36.1788M36.1789 48.0698H36.1788M36.1788 48.0698H36.1788M36.1788 48.0698H36.1788M36.1788 48.0698H36.1787M36.1788 48.0698H36.1787M36.1787 48.0698H36.1787M36.1787 48.0698H36.1787M36.1787 48.0698H36.1786M36.1787 48.0698H36.1786M36.1786 48.0698H36.1786M36.1786 48.0698H36.1786M36.1786 48.0698H36.1785M36.1786 48.0698H36.1785M36.1785 48.0698H36.1785M36.1785 48.0698H36.1785M36.1785 48.0698H36.1784M36.1785 48.0698H36.1784M36.1784 48.0698H36.1784M36.1784 48.0698H36.1784M36.1784 48.0698H36.1783M36.1784 48.0698H36.1783M36.1783 48.0698H36.1783M36.1783 48.0698H36.1783M36.1783 48.0698H36.1782M36.1783 48.0698H36.1782M36.1782 48.0698H36.1782M36.1782 48.0698H36.1782M36.1782 48.0698H36.1781M36.1782 48.0698H36.1781M36.1781 48.0698H36.1781M36.1781 48.0698H36.1781M36.1781 48.0698H36.178M36.1781 48.0698H36.178M36.178 48.0698H36.178M36.178 48.0698H36.178M36.178 48.0698H36.178M36.178 48.0698H36.178M36.178 48.0698H36.1779M36.178 48.0698H36.1779M36.1779 48.0698H36.1779M36.1779 48.0698H36.1779M36.1779 48.0698H36.1778M36.1779 48.0698H36.1778M36.1778 48.0698H36.1778M36.1778 48.0698H36.1778M36.1778 48.0698H36.1777M36.1778 48.0698H36.1777M36.1777 48.0698H36.1777M36.1777 48.0698H36.1777M36.1777 48.0698H36.1776M36.1777 48.0698H36.1776M36.1776 48.0698H36.1776M36.1776 48.0698H36.1776M36.1776 48.0698H36.1775M36.1776 48.0698H36.1775M36.1775 48.0698H36.1775M36.1775 48.0698H36.1775M36.1775 48.0698H36.1774M36.1775 48.0698H36.1774M36.1774 48.0698H36.1774M36.1774 48.0698H36.1774M36.1774 48.0698H36.1773M36.1774 48.0698H36.1773M36.1773 48.0698H36.1773M36.1773 48.0698H36.1773M36.1773 48.0698H36.1772M36.1773 48.0698H36.1772M36.1772 48.0698H36.1772M36.1772 48.0698H36.1772M36.1772 48.0698H36.1771M36.1772 48.0698H36.1771M36.1771 48.0698H36.1771M36.1771 48.0698H36.1771M36.1771 48.0698H36.177M36.1771 48.0698H36.177M36.177 48.0698H36.177M36.177 48.0698H36.177M36.177 48.0698H36.1769M36.177 48.0698H36.1769M36.1769 48.0698H36.1769M36.1769 48.0698H36.1769M36.1769 48.0698H36.1768M36.1769 48.0698H36.1768M36.1768 48.0698H36.1768M36.1768 48.0698H36.1768M36.1768 48.0698H36.1767M36.1768 48.0698H36.1767M36.1767 48.0698H36.1767M36.1767 48.0698H36.1767M36.1767 48.0698H36.1766M36.1767 48.0698H36.1766M36.1766 48.0698H36.1766M36.1766 48.0698H36.1766M36.1766 48.0698H36.1765M36.1766 48.0698H36.1765M36.1765 48.0698H36.1765M36.1765 48.0698H36.1765M36.1765 48.0698H36.1764M36.1765 48.0698H36.1764M36.1764 48.0698H36.1764M36.1764 48.0698H36.1764M36.1764 48.0698H36.1763M36.1764 48.0698H36.1763M36.1763 48.0698H36.1763M36.1763 48.0698H36.1763M36.1763 48.0698H36.1762M36.1763 48.0698H36.1762M36.1762 48.0698H36.1762M36.1762 48.0698H36.1762M36.1762 48.0698H36.1762M36.1762 48.0698H36.1762M36.1762 48.0698H36.1761M36.1762 48.0698H36.1761M36.1761 48.0698H36.1761M36.1761 48.0698H36.1761M36.1761 48.0698H36.176M36.1761 48.0698H36.176M36.176 48.0698H36.176M36.176 48.0698H36.176M36.176 48.0698H36.1759M36.176 48.0698H36.1759M36.1759 48.0698H36.1759M36.1759 48.0698H36.1759M36.1759 48.0698H36.1758M36.1759 48.0698H36.1758M36.1758 48.0698H36.1758M36.1758 48.0698H36.1758M36.1758 48.0698H36.1757M36.1758 48.0698H36.1757M36.1757 48.0698H36.1757M36.1757 48.0698H36.1757M36.1757 48.0698H36.1756M36.1757 48.0698H36.1756M36.1756 48.0698H36.1756M36.1756 48.0698H36.1756M36.1756 48.0698H36.1755M36.1756 48.0698H36.1755M36.1755 48.0698H36.1755M36.1755 48.0698H36.1755M36.1755 48.0698H36.1754M36.1755 48.0698H36.1754M36.1754 48.0698H36.1754M36.1754 48.0698H36.1754M36.1754 48.0698H36.1753M36.1754 48.0698H36.1753M36.1753 48.0698H36.1753M36.1753 48.0698H36.1753M36.1753 48.0698H36.1752M36.1753 48.0698H36.1752M36.1752 48.0698H36.1752M36.1752 48.0698H36.1752M36.1752 48.0698H36.1751M36.1752 48.0698H36.1751M36.1751 48.0698H36.1751M36.1751 48.0698H36.1751M36.1751 48.0698H36.175M36.1751 48.0698H36.175M36.175 48.0698H36.175M36.175 48.0698H36.175M36.175 48.0698H36.175M36.175 48.0698H36.175M36.175 48.0698H36.1749M36.175 48.0698H36.1749M36.1749 48.0698H36.1749M36.1749 48.0698H36.1749M36.1749 48.0698H36.1748M36.1749 48.0698H36.1748M36.1748 48.0698H36.1748M36.1748 48.0698H36.1748M36.1748 48.0698H36.1747M36.1748 48.0698H36.1747M36.1747 48.0698H36.1747M36.1747 48.0698H36.1747M36.1747 48.0698H36.1746M36.1747 48.0698H36.1746M36.1746 48.0698H36.1746M36.1746 48.0698H36.1746M36.1746 48.0698H36.1745M36.1746 48.0698H36.1745M36.1745 48.0698H36.1745M36.1745 48.0698H36.1745M36.1745 48.0698H36.1744M36.1745 48.0698H36.1744M36.1744 48.0698H36.1744M36.1744 48.0698H36.1744M36.1744 48.0698H36.1743M36.1744 48.0698H36.1743M36.1743 48.0698H36.1743M36.1743 48.0698H36.1743M36.1743 48.0698H36.1742M36.1743 48.0698H36.1742M36.1742 48.0698H36.1742M36.1742 48.0698H36.1742M36.1742 48.0698H36.1741M36.1742 48.0698H36.1741M36.1741 48.0698H36.1741M36.1741 48.0698H36.1741M36.1741 48.0698H36.1741M36.1741 48.0698H36.1741M36.1741 48.0698H36.174M36.1741 48.0698H36.174M36.174 48.0698H36.174M36.174 48.0698H36.174M36.174 48.0698H36.1739M36.174 48.0698H36.1739M36.1739 48.0698H36.1739M36.1739 48.0698H36.1739M36.1739 48.0698H36.1738M36.1739 48.0698H36.1738M36.1738 48.0698H36.1738M36.1738 48.0698H36.1738M36.1738 48.0698H36.1737M36.1738 48.0698H36.1737M36.1737 48.0698H36.1737M36.1737 48.0698H36.1737M36.1737 48.0698H36.1736M36.1737 48.0698H36.1736M36.1736 48.0698H36.1736M36.1736 48.0698H36.1736M36.1736 48.0698H36.1735M36.1736 48.0698H36.1735M36.1735 48.0698H36.1735M36.1735 48.0698H36.1735M36.1735 48.0698H36.1734M36.1735 48.0698H36.1734M36.1734 48.0698H36.1734M36.1734 48.0698H36.1734M36.1734 48.0698H36.1733M36.1734 48.0698H36.1733M36.1733 48.0698H36.1733M36.1733 48.0698H36.1733M36.1733 48.0698H36.1733M36.1733 48.0698H36.1733M36.1733 48.0698H36.1732M36.1733 48.0698H36.1732M36.1732 48.0698H36.1732M36.1732 48.0698H36.1732M36.1732 48.0698H36.1731M36.1732 48.0698H36.1731M36.1731 48.0698H36.1731M36.1731 48.0698H36.1731M36.1731 48.0698H36.173M36.1731 48.0698H36.173M36.173 48.0698H36.173M36.173 48.0698H36.173M36.173 48.0698H36.1729M36.173 48.0698H36.1729M36.1729 48.0698H36.1729M36.1729 48.0698H36.1729M36.1729 48.0698H36.1728M36.1729 48.0698H36.1728M36.1728 48.0698H36.1728M36.1728 48.0698H36.1728M36.1728 48.0698H36.1727M36.1728 48.0698H36.1727M36.1727 48.0698H36.1727M36.1727 48.0698H36.1727M36.1727 48.0698H36.1726M36.1727 48.0698H36.1726M36.1726 48.0698H36.1726M36.1726 48.0698H36.1726M36.1726 48.0698H36.1726M36.1726 48.0698H36.1726M36.1726 48.0698H36.1725M36.1726 48.0698H36.1725M36.1725 48.0698H36.1725M36.1725 48.0698H36.1725M36.1725 48.0698H36.1724M36.1725 48.0698H36.1724M36.1724 48.0698H36.1724M36.1724 48.0698H36.1724M36.1724 48.0698H36.1723M36.1724 48.0698H36.1723M36.1723 48.0698H36.1723M36.1723 48.0698H36.1723M36.1723 48.0698H36.1722M36.1723 48.0698H36.1722M36.1722 48.0698H36.1722M36.1722 48.0698H36.1722M36.1722 48.0698H36.1721M36.1722 48.0698H36.1721M36.1721 48.0698H36.1721M36.1721 48.0698H36.1721M36.1721 48.0698H36.172M36.1721 48.0698H36.172M36.172 48.0698H36.172M36.172 48.0698H36.172M36.172 48.0698H36.172M36.172 48.0698H36.172M36.172 48.0698H36.1719M36.172 48.0698H36.1719M36.1719 48.0698H36.1719M36.1719 48.0698H36.1719M36.1719 48.0698H36.1718M36.1719 48.0698H36.1718M36.1718 48.0698H36.1718M36.1718 48.0698H36.1718M36.1718 48.0698H36.1717M36.1718 48.0698H36.1717M36.1717 48.0698H36.1717M36.1717 48.0698H36.1717M36.1717 48.0698H36.1716M36.1717 48.0698H36.1716M36.1716 48.0698H36.1716M36.1716 48.0698H36.1716M36.1716 48.0698H36.1715M36.1716 48.0698H36.1715M36.1715 48.0698H36.1715M36.1715 48.0698H36.1715M36.1715 48.0698H36.1714M36.1715 48.0698H36.1714M36.1714 48.0698H36.1714M36.1714 48.0698H36.1714M36.1714 48.0698H36.1714M36.1714 48.0698H36.1714M36.1714 48.0698H36.1713M36.1714 48.0698H36.1713M36.1713 48.0698H36.1713M36.1713 48.0698H36.1713M36.1713 48.0698H36.1712M36.1713 48.0698H36.1712M36.1712 48.0698H36.1712M36.1712 48.0698H36.1712M36.1712 48.0698H36.1711M36.1712 48.0698H36.1711M36.1711 48.0698H36.1711M36.1711 48.0698H36.1711M36.1711 48.0698H36.171M36.1711 48.0698H36.171M36.171 48.0698H36.171M36.171 48.0698H36.171M36.171 48.0698H36.1709M36.171 48.0698H36.1709M36.1709 48.0698H36.1709M36.1709 48.0698H36.1709M36.1709 48.0698H36.1709M36.1709 48.0698H36.1709M36.1709 48.0698H36.1708M36.1709 48.0698H36.1708M36.1708 48.0698H36.1708M36.1708 48.0698H36.1708M36.1708 48.0698H36.1707M36.1708 48.0698H36.1707M36.1707 48.0698H36.1707M36.1707 48.0698H36.1707M36.1707 48.0698H36.1706M36.1707 48.0698H36.1706M36.1706 48.0698H36.1706M36.1706 48.0698H36.1706M36.1706 48.0698H36.1705M36.1706 48.0698H36.1705M36.1705 48.0698H36.1705M36.1705 48.0698H36.1705M36.1705 48.0698H36.1704M36.1705 48.0698H36.1704M36.1704 48.0698H36.1704M36.1704 48.0698H36.1704M36.1704 48.0698H36.1704M36.1704 48.0698H36.1704M36.1704 48.0698H36.1703M36.1704 48.0698H36.1703M36.1703 48.0698H36.1703M36.1703 48.0698H36.1703M36.1703 48.0698H36.1702M36.1703 48.0698H36.1702M36.1702 48.0698H36.1702M36.1702 48.0698H36.1702M36.1702 48.0698H36.1701M36.1702 48.0698H36.1701M36.1701 48.0698H36.1701M36.1701 48.0698H36.1701M36.1701 48.0698H36.17M36.1701 48.0698H36.17M36.17 48.0698H36.17M36.17 48.0698H36.17M36.17 48.0698H36.17M36.17 48.0698H36.17M36.17 48.0698H36.1699M36.17 48.0698H36.1699M36.1699 48.0698H36.1699M36.1699 48.0698H36.1699M36.1699 48.0698H36.1698M36.1699 48.0698H36.1698M36.1698 48.0698H36.1698M36.1698 48.0698H36.1698M36.1698 48.0698H36.1697M36.1698 48.0698H36.1697M36.1697 48.0698H36.1697M36.1697 48.0698H36.1697M36.1697 48.0698H36.1696M36.1697 48.0698H36.1696M36.1696 48.0698H36.1696M36.1696 48.0698H36.1696M36.1696 48.0698H36.1696M36.1696 48.0698H36.1696M36.1696 48.0698H36.1695M36.1696 48.0698H36.1695M36.1695 48.0698H36.1695M36.1695 48.0698H36.1695M36.1695 48.0698H36.1694M36.1695 48.0698H36.1694M36.1694 48.0698H36.1694M36.1694 48.0698H36.1694M36.1694 48.0698H36.1693M36.1694 48.0698H36.1693M36.1693 48.0698H36.1693M36.1693 48.0698H36.1693M36.1693 48.0698H36.1692M36.1693 48.0698H36.1692M36.1692 48.0698H36.1692M36.1692 48.0698H36.1692M36.1692 48.0698H36.1692M36.1692 48.0698H36.1692M36.1692 48.0698H36.1691M36.1692 48.0698H36.1691M36.1691 48.0698H36.1691M36.1691 48.0698H36.1691M36.1691 48.0698H36.169M36.1691 48.0698H36.169M36.169 48.0698H36.169M36.169 48.0698H36.169M36.169 48.0698H36.1689M36.169 48.0698H36.1689M36.1689 48.0698H36.1689M36.1689 48.0698H36.1689M36.1689 48.0698H36.1688M36.1689 48.0698H36.1688M36.1688 48.0698H36.1688M36.1688 48.0698H36.1688M36.1688 48.0698H36.1688M36.1688 48.0698H36.1688M36.1688 48.0698H36.1687M36.1688 48.0698H36.1687M36.1687 48.0698H36.1687M36.1687 48.0698H36.1687M36.1687 48.0698H36.1686M36.1687 48.0698H36.1686M36.1686 48.0698H36.1686M36.1686 48.0698H36.1686M36.1686 48.0698H36.1685M36.1686 48.0698H36.1685M36.1685 48.0698H36.1685M36.1685 48.0698H36.1685M36.1685 48.0698H36.1685M36.1685 48.0698H36.1685M36.1685 48.0698H36.1684M36.1685 48.0698H36.1684M36.1684 48.0698H36.1684M36.1684 48.0698H36.1684M36.1684 48.0698H36.1683M36.1684 48.0698H36.1683M36.1683 48.0698H36.1683M36.1683 48.0698H36.1683M36.1683 48.0698H36.1682M36.1683 48.0698H36.1682M36.1682 48.0698H36.1682M36.1682 48.0698H36.1682M36.1682 48.0698H36.1681M36.1682 48.0698H36.1681M36.1681 48.0698H36.1681M36.1681 48.0698H36.1681M36.1681 48.0698H36.1681M36.1681 48.0698H36.1681M36.1681 48.0698H36.168M36.1681 48.0698H36.168M36.168 48.0698H36.168M36.168 48.0698H36.168M36.168 48.0698H36.1679M36.168 48.0698H36.1679M36.1679 48.0698H36.1679M36.1679 48.0698H36.1679M36.1679 48.0698H36.1678M36.1679 48.0698H36.1678M36.1678 48.0698H36.1678M36.1678 48.0698H36.1678M36.1678 48.0698H36.1678M36.1678 48.0698H36.1678M36.1678 48.0698H36.1677M36.1678 48.0698H36.1677M36.1677 48.0698H36.1677M36.1677 48.0698H36.1677M36.1677 48.0698H36.1676M36.1677 48.0698H36.1676M36.1676 48.0698H36.1676M36.1676 48.0698H36.1676M36.1676 48.0698H36.1675M36.1676 48.0698H36.1675M36.1675 48.0698H36.1675M36.1675 48.0698H36.1675M36.1675 48.0698H36.1675M36.1675 48.0698H36.1675M36.1675 48.0698H36.1674M36.1675 48.0698H36.1674M36.1674 48.0698H36.1674M36.1674 48.0698H36.1674M36.1674 48.0698H36.1673M36.1674 48.0698H36.1673M36.1673 48.0698H36.1673M36.1673 48.0698H36.1673M36.1673 48.0698H36.1672M36.1673 48.0698H36.1672M36.1672 48.0698H36.1672M36.1672 48.0698H36.1672M36.1672 48.0698H36.1672M36.1672 48.0698H36.1672M36.1672 48.0698H36.1671M36.1672 48.0698H36.1671M36.1671 48.0698H36.1671M36.1671 48.0698H36.1671M36.1671 48.0698H36.167M36.1671 48.0698H36.167M36.167 48.0698H36.167M36.167 48.0698H36.167M36.167 48.0698H36.167M36.167 48.0698H36.167M36.167 48.0698H36.1669M36.167 48.0698H36.1669M36.1669 48.0698H36.1669M36.1669 48.0698H36.1669M36.1669 48.0698H36.1668M36.1669 48.0698H36.1668M36.1668 48.0698H36.1668M36.1668 48.0698H36.1668M36.1668 48.0698H36.1667M36.1668 48.0698H36.1667M36.1667 48.0698H36.1667M36.1667 48.0698H36.1667M36.1667 48.0698H36.1667M36.1667 48.0698H36.1667M36.1667 48.0698H36.1666M36.1667 48.0698H36.1666M36.1666 48.0698H36.1666M36.1666 48.0698H36.1666M36.1666 48.0698H36.1665M36.1666 48.0698H36.1665M36.1665 48.0698H36.1665M36.1665 48.0698H36.1665M36.1665 48.0698H36.1665M36.1665 48.0698H36.1665M36.1665 48.0698H36.1664M36.1665 48.0698H36.1664M36.1664 48.0698H36.1664M36.1664 48.0698H36.1664M36.1664 48.0698H36.1663M36.1664 48.0698H36.1663M36.1663 48.0698H36.1663M36.1663 48.0698H36.1663M36.1663 48.0698H36.1662M36.1663 48.0698H36.1662M36.1662 48.0698H36.1662M36.1662 48.0698H36.1662M36.1662 48.0698H36.1662M36.1662 48.0698H36.1662M36.1662 48.0698H36.1661M36.1662 48.0698H36.1661M36.1661 48.0698H36.1661M36.1661 48.0698H36.1661M36.1661 48.0698H36.166M36.1661 48.0698H36.166M36.166 48.0698H36.166M36.166 48.0698H36.166M36.166 48.0698H36.166M36.166 48.0698H36.166M36.166 48.0698H36.1659M36.166 48.0698H36.1659M36.1659 48.0698H36.1659M36.1659 48.0698H36.1659M36.1659 48.0698H36.1658M36.1659 48.0698H36.1658M36.1658 48.0698H36.1658M36.1658 48.0698H36.1658M36.1658 48.0698H36.1657M36.1658 48.0698H36.1657M36.1657 48.0698H36.1657M36.1657 48.0698H36.1657M36.1657 48.0698H36.1657M36.1657 48.0698H36.1657M36.1657 48.0698H36.1656M36.1657 48.0698H36.1656M36.1656 48.0698H36.1656M36.1656 48.0698H36.1656M36.1656 48.0698H36.1655M36.1656 48.0698H36.1655M36.1655 48.0698H36.1655M36.1655 48.0698H36.1655M36.1655 48.0698H36.1655M36.1655 48.0698H36.1655M36.1655 48.0698H36.1654M36.1655 48.0698H36.1654M36.1654 48.0698H36.1654M36.1654 48.0698H36.1654M36.1654 48.0698H36.1653M36.1654 48.0698H36.1653M36.1653 48.0698H36.1653M36.1653 48.0698H36.1653M36.1653 48.0698H36.1653M36.1653 48.0698H36.1653M36.1653 48.0698H36.1652M36.1653 48.0698H36.1652M36.1652 48.0698H36.1652M36.1652 48.0698H36.1652M36.1652 48.0698H36.1651M36.1652 48.0698H36.1651M36.1651 48.0698H36.1651M36.1651 48.0698H36.1651M36.1651 48.0698H36.1651M36.1651 48.0698H36.1651M36.1651 48.0698H36.165M36.1651 48.0698H36.165M36.165 48.0698H36.165M36.165 48.0698H36.165M36.165 48.0698H36.1649M36.165 48.0698H36.1649M36.1649 48.0698H36.1649M36.1649 48.0698H36.1649M36.1649 48.0698H36.1649M36.1649 48.0698H36.1649M36.1649 48.0698H36.1648M36.1649 48.0698H36.1648M36.1648 48.0698H36.1648M36.1648 48.0698H36.1648M36.1648 48.0698H36.1647M36.1648 48.0698H36.1647M36.1647 48.0698H36.1647M36.1647 48.0698H36.1647M36.1647 48.0698H36.1647M36.1647 48.0698H36.1647M36.1647 48.0698H36.1646M36.1647 48.0698H36.1646M36.1646 48.0698H36.1646M36.1646 48.0698H36.1646M36.1646 48.0698H36.1645M36.1646 48.0698H36.1645M36.1645 48.0698C31.9876 48.0577 28.2286 44.8012 26.17 39.7445M36.1645 48.0698L26.17 39.7445M26.17 39.7445C25.413 37.8824 24.8931 35.7909 24.674 33.5561L26.17 39.7445Z" fill="white" stroke="black" stroke-width="1.03133"/>
<circle cx="30.4305" cy="33.6707" r="1.47052" fill="black"/>
<circle cx="42.0075" cy="33.6707" r="1.47052" fill="black"/>
<circle cx="31.5398" cy="32.9411" r="0.654867" fill="white"/>
<circle cx="43.0681" cy="32.9411" r="0.654867" fill="white"/>
<path fill-rule="evenodd" clip-rule="evenodd" d="M44.9668 33.8991C42.9443 31.8766 40.1137 32.5806 39.0758 33.8654C38.927 34.0496 38.6475 34.0425 38.5542 33.9676C38.4744 33.9035 38.5555 33.5745 38.7043 33.3903C40.0356 31.7424 43.1609 30.8805 45.5732 33.2927C45.7406 33.4602 45.7406 33.7317 45.5732 33.8991C45.4057 34.0665 45.1342 34.0665 44.9668 33.8991Z" fill="black"/>
<path fill-rule="evenodd" clip-rule="evenodd" d="M27.3203 33.8991C29.3428 31.8766 32.1734 32.5806 33.2113 33.8654C33.3602 34.0496 33.6396 34.0425 33.7329 33.9676C33.8127 33.9035 33.7316 33.5745 33.5828 33.3903C32.2515 31.7424 29.1262 30.8805 26.714 33.2927C26.5465 33.4602 26.5465 33.7317 26.714 33.8991C26.8814 34.0665 27.1529 34.0665 27.3203 33.8991Z" fill="black"/>
<path fill-rule="evenodd" clip-rule="evenodd" d="M33.7793 42.1986C33.4917 41.9163 34.4662 41.2263 34.7571 41.1384C34.851 41.1101 34.9919 41.0736 35.1261 41.0822C35.4661 41.1042 35.7454 41.3377 36.0499 41.4657C36.0889 41.482 36.1126 41.4892 36.1238 41.4922C36.1353 41.489 36.1603 41.4814 36.2021 41.4637C36.275 41.4329 36.3579 41.39 36.4623 41.336C36.5592 41.286 36.6768 41.2252 36.7909 41.1782C36.898 41.1341 37.0492 41.0813 37.2098 41.0813C37.339 41.0813 37.4669 41.1162 37.5641 41.149C37.8789 41.2552 38.7596 41.7744 38.5188 42.1529C38.2972 42.5013 37.5825 41.9647 37.2863 41.8648C37.2404 41.8493 37.2151 41.8444 37.2066 41.8429C37.1984 41.8447 37.1697 41.8513 37.1137 41.8744C36.7894 42.0079 36.4854 42.2552 36.1208 42.2552C35.7272 42.2552 35.4274 41.9633 35.071 41.8444C35.0586 41.847 35.0359 41.8521 35.0011 41.8626C34.9324 41.8834 34.8471 41.9155 34.7571 41.9545C34.4621 42.0825 34.0984 42.3923 33.7793 42.1986Z" fill="#CAC9C9"/>
<path fill-rule="evenodd" clip-rule="evenodd" d="M37.798 42.8169C37.9315 43.0125 37.8811 43.2793 37.6855 43.4127C37.1907 43.7504 36.5907 43.8593 36.054 43.8378C35.5214 43.8165 34.9926 43.6645 34.6251 43.412C34.4299 43.2779 34.3782 43.0119 34.5123 42.8168C34.6229 42.6558 34.8422 43.2259 36.054 43.2743C37.2658 43.3227 37.7093 42.6869 37.798 42.8169Z" fill="#CAC9C9"/>
<path fill-rule="evenodd" clip-rule="evenodd" d="M38.0504 12.1122C45.9376 13.0589 52.0503 19.774 52.0503 27.9151C52.0503 28.4469 52.0247 28.9746 51.9733 29.4947C51.9694 29.5345 51.9383 29.5662 51.8985 29.5709C51.2857 29.6429 50.6611 29.6789 50.0284 29.6789C44.106 29.6789 38.9395 26.4441 36.1984 21.646C36.1651 21.5877 36.0806 21.5877 36.0473 21.646C33.3062 26.4441 28.1397 29.6789 22.2173 29.6789C21.5932 29.6789 20.9752 29.6429 20.3689 29.5729C20.3291 29.5683 20.2979 29.5366 20.2939 29.4967C20.2426 28.9767 20.2169 28.4489 20.2169 27.9151C20.2169 19.7805 26.3189 13.0718 34.1953 12.1144C34.1954 12.1144 34.1954 12.1144 34.1954 12.1144C34.1954 12.1143 34.1954 12.1143 34.1954 12.1143C34.8299 12.0369 35.4773 11.9982 36.1334 11.9982C36.7808 11.9982 37.4218 12.0369 38.0499 12.1122C38.05 12.1122 38.0502 12.1122 38.0504 12.1122Z" fill="white"/>
<path d="M22.8804 27.2572C24.5065 22.3355 29.3613 17.0529 33.4994 14.2326C33.5977 14.1656 33.5243 14.0121 33.411 14.0483C27.3374 15.9841 23.4447 20.2048 22.6388 27.2116C22.6243 27.3382 22.8404 27.3783 22.8804 27.2572Z" fill="black"/>
<path d="M28.1679 24.9234C28.1764 20.5266 31.0188 16.1102 33.7006 14.0872C33.7886 14.0208 33.7282 13.8788 33.6202 13.901C29.4434 14.7604 27.346 18.209 28.1679 24.9234Z" fill="black"/>
<path d="M30.6486 23.518C30.7297 20.5003 32.7733 17.422 34.7088 15.9214C34.7969 15.853 34.734 15.709 34.6257 15.7357C31.6946 16.4573 30.1805 18.9058 30.6486 23.518Z" fill="black"/>
<path d="M40.8902 23.5188C40.8091 20.501 38.7655 17.4227 36.8301 15.9221C36.7419 15.8537 36.8048 15.7097 36.9131 15.7364C39.8442 16.458 41.3583 18.9065 40.8902 23.5188Z" fill="black"/>
<path d="M49.4918 27.2572C47.8657 22.3355 43.0109 17.0529 38.8728 14.2326C38.7745 14.1656 38.8479 14.0121 38.9612 14.0483C45.0348 15.9841 48.9275 20.2048 49.7334 27.2116C49.7479 27.3382 49.5318 27.3783 49.4918 27.2572Z" fill="black"/>
<path d="M44.2048 24.9234C44.1963 20.5266 41.3539 16.1102 38.6721 14.0872C38.5841 14.0208 38.6445 13.8788 38.7525 13.901C42.9293 14.7604 45.0267 18.209 44.2048 24.9234Z" fill="black"/>
<path fill-rule="evenodd" clip-rule="evenodd" d="M36.6272 22.3532C39.4577 26.7592 44.3681 29.8908 49.9947 29.8908C50.1992 29.8908 51.9245 30.0206 51.9492 29.7714C52.0005 29.2513 52.0503 28.4469 52.0503 27.9151C52.0503 19.774 45.9376 13.0589 38.0504 12.1122C37.4223 12.0369 36.7808 11.9982 36.1334 11.9982C35.4773 11.9982 34.8299 12.0369 34.1954 12.1143C26.3189 13.0717 20.2169 19.7805 20.2169 27.9151C20.2169 28.4489 20.2426 28.9767 20.2939 29.4967C20.3182 29.7429 21.9907 29.8908 22.2173 29.8908C27.8438 29.8908 32.7881 26.7592 35.6185 22.3532C35.6298 22.3357 35.641 22.3182 35.6521 22.3007C36.1621 21.5 36.3261 21.8806 36.5936 22.3007C36.6048 22.3182 36.616 22.3357 36.6272 22.3532ZM37.9481 12.9636C37.3539 12.8924 36.7467 12.8557 36.1334 12.8557C35.5145 12.8557 34.9052 12.892 34.3094 12.9643C34.3059 12.9648 34.3024 12.9652 34.2988 12.9656C26.8474 13.8714 21.0744 20.2194 21.0744 27.9151C21.0744 28.2059 21.0825 28.4945 21.0985 28.7805C21.4681 28.8076 21.8415 28.8214 22.2173 28.8214C27.8195 28.8214 32.708 25.7625 35.3027 21.2206C35.6652 20.5862 36.5805 20.5861 36.943 21.2206C39.5377 25.7625 44.4262 28.8214 50.0284 28.8214C50.4125 28.8214 50.7929 28.8074 51.1687 28.7795C51.1848 28.4933 51.1928 28.205 51.1928 27.9151C51.1928 20.2133 45.4093 13.8593 37.9481 12.9636Z" fill="black"/>
<path d="M34.2397 46.8024C27.9454 42.2194 26.472 34.5104 25.5788 30.681C25.5525 30.5683 25.4037 30.5796 25.3983 30.6953C25.1953 35.0658 27.0004 44.1512 34.1496 46.9773C34.2611 47.0214 34.3366 46.8729 34.2397 46.8024Z" fill="#CAC9C9"/>
<path d="M36.098 38.2776C36.0986 36.5302 36.0981 33.6847 36.0988 32.0544C36.0988 31.9845 36.0302 31.9363 35.9709 31.9731C34.6801 32.7745 34.8315 39.0044 36.0479 38.362C36.0784 38.3459 36.098 38.312 36.098 38.2776Z" fill="#CAC9C9"/>
<path opacity="0.9" d="M41.9278 9.31875C41.9793 9.21485 42.1053 9.17239 42.2093 9.22392L44.7496 10.4838C45.2444 10.7292 45.4465 11.3292 45.2011 11.824L25.1238 52.3067L21.4995 50.5092L41.9278 9.31875Z" fill="white"/>
<path opacity="0.9" d="M49.2364 18.7453C49.2879 18.6414 49.4139 18.5989 49.5178 18.6504L51.7417 19.7534C52.2365 19.9988 52.4387 20.5988 52.1933 21.0936L38.1895 49.33C37.9441 49.8248 37.3441 50.027 36.8493 49.7816L34.4373 48.5853L49.2364 18.7453Z" fill="white"/>
<defs>
<radialGradient id="paint0_radial_1241_7565" cx="0" cy="0" r="1" gradientUnits="userSpaceOnUse" gradientTransform="translate(21.6488 45.9443) rotate(-58.3553) scale(40.4532 37.2847)">
<stop stop-color="white"/>
<stop offset="1" stop-color="white"/>
</radialGradient>
<radialGradient id="paint1_radial_1241_7565" cx="0" cy="0" r="1" gradientUnits="userSpaceOnUse" gradientTransform="translate(21.7365 46.4664) rotate(-58.0129) scale(40.6402 37.4514)">
<stop stop-color="white"/>
<stop offset="1" stop-color="white"/>
</radialGradient>
</defs>
</svg>
