<svg width="42" height="28" viewBox="0 0 42 28" fill="none" xmlns="http://www.w3.org/2000/svg">
<path fill-rule="evenodd" clip-rule="evenodd" d="M34.6465 0.646484L8.64648 26.6465L9.35359 27.3536L35.3536 1.35359L34.6465 0.646484ZM28.3828 20C25.4587 20 22.9871 19.369 21.3306 18.2053L30.0021 9.53381C30.4348 9.81092 30.8702 10.1085 31.3113 10.4112C34.7567 12.7904 37.1766 14.04 39.9573 11.6128L42 9.83438C41.9863 9.85609 41.9826 9.95647 41.9765 10.1212C41.915 11.7837 41.6109 20 28.3828 20ZM21 10.0508C21.728 9.44647 22.7923 8.61447 24.2429 8.22199L12.4858 19.9791C0.390171 19.5225 0.0866775 11.7317 0.0239029 10.1202C0.0175079 9.95604 0.0136111 9.856 0 9.83438L2.04266 11.6128C4.79891 14.016 7.24328 12.7665 10.7626 10.3871L10.845 10.3317C12.635 9.12675 14.3088 8 16.0781 8C18.3914 8 20.0155 9.23358 21 10.0508Z" fill="white"/>
</svg>
