<svg width="49" height="28" viewBox="0 0 49 28" fill="none" xmlns="http://www.w3.org/2000/svg">
<path fill-rule="evenodd" clip-rule="evenodd" d="M37.6146 0.575684L11.5877 26.5757L12.4371 27.4242L38.464 1.42421L37.6146 0.575684ZM27.1053 15.2157L36.2309 6.09953L37.0781 6.03972C40.7998 5.89736 44.3012 6.1378 47.2896 6.75094C47.8358 6.83976 48.921 7.33871 48.9927 8.56395C49.0069 8.81399 48.9977 9.27802 48.9877 9.69008L48.9862 9.76086C48.9809 10.0025 48.9763 10.2183 48.9793 10.3445C48.9993 11.1704 48.6965 11.4972 48.4538 11.7591L48.4465 11.767C48.372 11.8483 48.3071 11.919 48.2578 12.002C48.1436 12.1948 48.0618 12.4331 48.0159 12.7109C47.016 18.7688 46.7908 19.5953 44.2521 20.9309C43.0368 21.5699 40.5389 21.9999 38.0361 21.9999C36.0845 21.9999 33.2655 21.7441 30.921 20.5218C29.3427 19.6985 28.2219 17.9434 27.4677 16.2678L27.1053 15.2157ZM28.9133 14.8237L35.7968 7.9473C35.9619 7.93594 36.1306 7.92523 36.303 7.91521C37.474 7.84731 38.4673 7.814 39.3398 7.814C43.278 7.814 44.5314 8.52131 45.2769 9.66192C45.7233 10.3443 46.0267 11.7718 46.0301 12.6767C46.0385 14.6528 45.6406 18.1654 42.8977 19.4935C41.6407 20.1017 39.756 20.465 37.8568 20.465C34.2113 20.465 31.2973 19.2268 30.0637 17.154C29.56 16.3088 29.187 15.5302 28.9133 14.8237ZM25.6344 8.66194C26.0924 8.56162 26.8996 8.25839 27.5411 7.95217L23.9299 11.5597C23.4673 12.0397 23.245 12.3297 23.05 12.5841C22.863 12.828 22.7011 13.0392 22.3767 13.3535L13.9327 21.7888L12.9243 21.9109C12.2164 21.9767 11.5505 21.9999 10.9631 21.9999C8.46035 21.9999 5.96191 21.5708 4.74683 20.9309C2.20845 19.5953 1.98328 18.7696 0.982903 12.7118C0.936838 12.4331 0.855501 12.1946 0.741305 12.0027C0.692436 11.9208 0.628611 11.8512 0.555566 11.7714L0.544456 11.7593C0.301818 11.4975 -6.37919e-05 11.1717 0.0195724 10.3453C0.0222488 10.2314 0.0186988 10.0418 0.01465 9.82565L0.0121634 9.69072C0.00266054 9.27882 -0.00748657 8.81463 0.00797569 8.56475C0.0796497 7.33951 1.16426 6.8404 1.72686 6.74837C5.19427 6.03607 9.39276 5.82787 13.8201 6.14436L14.0516 6.16077L14.0537 6.16092C16.7521 6.35165 18.2384 6.45671 20.0102 7.24925C20.4217 7.43348 20.8445 7.64184 21.2186 7.83379C21.8855 8.17667 22.8478 8.54866 23.3637 8.66194C23.5723 8.70827 23.7833 8.75284 23.9701 8.79114C24.2391 8.84568 24.7595 8.84568 25.0285 8.79114C25.2153 8.75365 25.4263 8.70827 25.6344 8.66194ZM14.1558 20.1518C13.2314 20.3573 12.2188 20.4653 11.1424 20.4653C9.24249 20.4653 7.35754 20.102 6.10026 19.4938C3.35716 18.1657 2.95982 14.6532 2.96771 12.677C2.97109 11.7708 3.27422 10.3436 3.72004 9.66128C4.46658 8.52018 5.71967 7.81336 9.65739 7.81336C10.5302 7.81336 11.5235 7.84666 12.6944 7.91456C19.3719 8.30361 20.4496 9.71662 20.6409 10.19C20.6483 10.2068 21.1035 11.5479 20.396 13.918L14.1558 20.1518Z" fill="white"/>
</svg>
