<svg width="49" height="16" viewBox="0 0 49 16" fill="none" xmlns="http://www.w3.org/2000/svg">
<path d="M0.0195724 4.34531C-7.75675e-05 5.17233 0.302242 5.49799 0.544967 5.75993C0.622439 5.84456 0.690087 5.91697 0.741305 6.00273C0.855501 6.19468 0.936838 6.43313 0.982903 6.71181C1.98328 12.7696 2.20845 13.5954 4.74683 14.931C5.96191 15.5709 8.46035 16 10.9631 16C12.9148 16 15.7337 15.7434 18.078 14.5218C21.4934 12.7415 22.766 6.59612 22.8258 6.28687C22.8291 6.25566 22.93 5.52245 24.4904 5.52245H24.492L24.5875 5.52164C26.0677 5.52164 26.1696 6.25566 26.1804 6.33482C26.2329 6.59612 27.5058 12.7405 30.921 14.5218C33.2655 15.7442 36.0845 16 38.0361 16C40.5389 16 43.0368 15.5699 44.2521 14.931C46.7908 13.5954 47.016 12.7688 48.0159 6.711C48.0618 6.43313 48.1436 6.19484 48.2578 6.00209C48.3087 5.91633 48.3762 5.84376 48.4538 5.75913C48.6965 5.49718 48.9993 5.17056 48.9793 4.34451C48.976 4.20613 48.9819 3.95996 48.9877 3.69013C48.9977 3.27807 49.0069 2.81404 48.9927 2.564C48.921 1.33876 47.8358 0.839814 47.2896 0.750998C43.7976 0.0345165 39.605 -0.173042 35.179 0.144411L34.9478 0.160822C32.2481 0.351648 30.7611 0.456553 28.9889 1.2493C28.5777 1.43353 28.1548 1.64173 27.7803 1.83385C27.114 2.17672 26.1516 2.54872 25.6344 2.66199C25.4263 2.70833 25.2153 2.7537 25.0285 2.79119C24.7595 2.84574 24.2391 2.84574 23.9701 2.79119C23.7833 2.7529 23.5723 2.70833 23.3637 2.66199C22.8478 2.54872 21.8855 2.17672 21.2186 1.83385C20.8445 1.64189 20.4217 1.43353 20.0102 1.2493C18.238 0.456553 16.7513 0.351648 14.0516 0.160822L13.8201 0.144411C9.39276 -0.172077 5.19427 0.0361257 1.72686 0.748424C1.16426 0.840458 0.0796497 1.33957 0.00797569 2.56481C-0.00748657 2.81468 0.00266054 3.27888 0.0121634 3.69078C0.0169953 3.96157 0.0227937 4.20823 0.0195724 4.34531ZM28.3765 4.14065C28.5476 3.71652 29.6242 2.30367 36.303 1.91526C37.474 1.84736 38.4673 1.81406 39.3398 1.81406C43.278 1.81406 44.5314 2.52137 45.2769 3.66198C45.7233 4.34435 46.0267 5.77184 46.0301 6.67673C46.0385 8.65289 45.6406 12.1655 42.8977 13.4935C41.6407 14.1017 39.756 14.465 37.8568 14.465C34.2113 14.465 31.2973 13.2269 30.0637 11.1541C27.4681 6.79885 28.3447 4.21321 28.3765 4.14065ZM3.72004 3.66133C4.46658 2.52024 5.71967 1.81341 9.65739 1.81341C10.5302 1.81341 11.5235 1.84672 12.6944 1.91462C19.3719 2.30367 20.4496 3.71668 20.6409 4.19004C20.6512 4.21337 21.5282 6.79998 18.9354 11.1544C17.7005 13.2272 14.7875 14.4654 11.1424 14.4654C9.24249 14.4654 7.35754 14.102 6.10027 13.4938C3.35716 12.1658 2.95982 8.65321 2.96771 6.67705C2.97109 5.77087 3.27422 4.3437 3.72004 3.66133Z" fill="white"/>
</svg>
