<svg width="42" height="12" viewBox="0 0 42 12" fill="none" xmlns="http://www.w3.org/2000/svg">
<path d="M31.3113 2.41117C29.4902 1.16156 27.7676 0 25.9219 0C23.584 0 21.9845 1.23358 21 2.05076C20.0155 1.23358 18.3914 0 16.0781 0C14.2817 0 12.5837 1.16156 10.7626 2.38713C7.24328 4.7665 4.79891 6.01602 2.04266 3.61279L0 1.83439C0.151266 2.07463 -0.897258 12 13.6172 12C16.7427 12 19.3513 11.279 21 9.95733C22.6487 11.2791 25.2573 12 28.3828 12C42.9213 12 41.8484 2.07519 42 1.83439L39.9573 3.61279C37.1766 6.04005 34.7567 4.79037 31.3113 2.41117Z" fill="white"/>
</svg>
