<svg width="35" height="28" viewBox="0 0 35 28" fill="none" xmlns="http://www.w3.org/2000/svg">
<path fill-rule="evenodd" clip-rule="evenodd" d="M29.6465 0.646484L3.64648 26.6465L4.35359 27.3536L30.3536 1.35359L29.6465 0.646484ZM17.1699 24C15.192 23.5987 13.5329 23.0422 12.1722 22.3637L26.8515 7.68442C28.474 7.05143 30.1408 5.93664 31.8376 4.34678C32.1928 4.01414 32.6981 3.91124 33.149 4.07978C33.6008 4.24832 33.9242 4.6599 33.9897 5.14954C33.9927 5.17187 33.999 5.20762 34.0076 5.25606C34.1626 6.13355 35.0531 11.1752 30.1683 15.9987C29.7483 16.4138 29.1103 16.4892 28.6102 16.1814L27.6074 15.5658C27.3496 16.4333 26.9452 17.5164 26.3175 18.6509C25.0257 21.051 22.0801 23.0038 17.1699 24ZM18.1158 5.78821C18.1273 5.80219 18.8416 6.64448 20.1139 7.35094L8.3175 19.1473C8.21098 18.9842 8.11264 18.8186 8.02237 18.6509C7.39466 17.5164 6.99027 16.4333 6.73246 15.5658L5.72967 16.1814C5.22956 16.4892 4.5915 16.4138 4.17159 15.9987C-0.71321 11.1752 0.177281 6.13358 0.332274 5.25607C0.340831 5.20762 0.347146 5.17187 0.350124 5.14954C0.415654 4.6599 0.738996 4.24832 1.19081 4.07978C1.64177 3.91124 2.14704 4.01414 2.50229 4.34678C5.47962 7.13651 8.36468 8.46351 11.0799 8.29142C14.2736 8.08829 16.2051 5.81127 16.224 5.78821C16.7048 5.17465 17.6349 5.17456 18.1158 5.78821Z" fill="white"/>
</svg>
