<svg width="16" height="9" viewBox="0 0 16 9" fill="none" xmlns="http://www.w3.org/2000/svg">
<path d="M7.97948 9C7.83171 9 7.69626 8.9748 7.57312 8.92441C7.44998 8.87401 7.33915 8.78581 7.24064 8.65982L0.221652 1.4783C0.0738842 1.32711 0 1.12552 0 0.873542C0 0.621558 0.0738842 0.419972 0.221652 0.268782C0.418676 0.0671958 0.621857 -0.0209986 0.831196 0.00419971C1.04053 0.029398 1.2314 0.117592 1.4038 0.268782L7.97948 6.99673L14.5552 0.268782C14.7029 0.117592 14.8999 0.0356973 15.1462 0.0230982C15.3925 0.010499 15.5895 0.0923941 15.7373 0.268782C15.9343 0.445171 16.0205 0.653056 15.9959 0.89244C15.9713 1.13182 15.8851 1.33971 15.7373 1.5161L8.71832 8.65982C8.61981 8.78581 8.50898 8.87401 8.38584 8.92441C8.2627 8.9748 8.12724 9 7.97948 9Z" fill="black"/>
</svg>
