<svg width="35" height="20" viewBox="0 0 35 20" fill="none" xmlns="http://www.w3.org/2000/svg">
<path d="M33.149 0.0797794C32.6981 -0.0887574 32.1928 0.0141397 31.8376 0.346778C28.8602 3.13651 25.9752 4.46351 23.26 4.29142C20.0662 4.08829 18.1348 1.81127 18.1158 1.78821C17.6349 1.17456 16.7048 1.17465 16.224 1.78821C16.2051 1.81127 14.2736 4.08829 11.0799 4.29142C8.36468 4.46351 5.47962 3.13651 2.50229 0.346778C2.14704 0.0141397 1.64177 -0.0887574 1.19081 0.0797794C0.738996 0.248316 0.415654 0.659901 0.350124 1.14954C0.293216 1.57621 -0.982905 6.90888 4.17159 11.9987C4.5915 12.4138 5.22956 12.4892 5.72967 12.1814L6.73246 11.5658C6.99027 12.4333 7.39466 13.5164 8.02237 14.6509C9.3141 17.051 12.2598 19.0038 17.1699 20C22.0801 19.0038 25.0257 17.051 26.3175 14.6509C26.9452 13.5164 27.3496 12.4333 27.6074 11.5658L28.6102 12.1814C29.1103 12.4892 29.7483 12.4138 30.1683 11.9987C35.3228 6.90888 34.0466 1.57621 33.9897 1.14954C33.9242 0.659901 33.6008 0.248316 33.149 0.0797794Z" fill="white"/>
</svg>
