<svg width="60" height="60" viewBox="0 0 60 60" fill="none" xmlns="http://www.w3.org/2000/svg">
<circle cx="30" cy="30" r="30" fill="white"/>
<path fill-rule="evenodd" clip-rule="evenodd" d="M36.9818 19.3396C36.8203 17.3294 35.5958 15.167 33.9066 13.4812L33.7539 13.3289C31.719 11.3007 29.9805 9.56799 30.5245 6C28.1348 8.22851 27.3835 9.93927 27.6708 12.2659C27.7781 13.1349 28.1287 13.7869 28.4429 14.3711C28.8017 15.0383 29.1129 15.6171 28.9602 16.3298C28.717 17.4641 27.3164 17.8728 26.3326 17.4916C24.451 16.7624 24.2104 13.8749 24.7835 11.5659C22.0614 12.7812 21.5194 15.8821 21.8358 17.7674C21.9834 18.6473 22.0665 19.4988 21.8924 20.4628C21.1804 19.5513 20.3657 18.5011 20 18.0109C19.9822 17.987 19.9578 17.957 19.928 17.9205C19.4552 17.3393 18.1478 14.418 20.5 9.3C17.4776 10.7835 14.8438 15.8228 16.8778 19.7634L17 20C17.7911 21.5307 18.0334 22.857 18.2807 24.135C18.183 24.0909 18.084 24.0469 17.9841 24.0025C16.6968 23.4301 16.0633 22.2499 15 20.4628C14 23 14.507 24.941 15.5285 26.142C16.3163 27.0682 17.1264 28.0205 17.2194 29.7654C17.143 29.9333 17.0624 30.105 16.9776 30.2807L12 28.791C12 28.791 12.2796 32.6785 12.4722 35.6058C13.06 44.5409 15.5 50.5599 22.8078 55L23.2188 50.4203C25.384 51.9699 26.8057 52.7654 28.3778 52.8612C28.6612 52.8785 28.9454 52.8785 29.2289 52.8612C30.8886 52.7601 32.3808 51.879 34.7573 50.1538L35.1922 55C42.5 50.5599 44.94 44.5409 45.5278 35.6058C45.7204 32.6785 46 28.791 46 28.791L41.0224 30.2807C40.9376 30.105 40.857 29.9333 40.7806 29.7654C40.8736 28.0205 41.6837 27.0682 42.4715 26.142C43.493 24.941 44.1647 25.284 43.5 22.5C42.4367 24.2871 41.3032 23.4301 40.0159 24.0025C39.916 24.0469 39.8169 24.0909 39.7193 24.135C39.9666 22.857 40.5866 21.6573 41.3778 20.1266L41.5 19.89C43.534 15.9494 42.0224 10.4835 39 9C41 14 37.428 16.0711 38 17.4916C37.9703 17.5281 37.9459 17.5581 37.928 17.582C37.7096 17.8748 37.403 18.7962 36.9818 19.3396ZM34.0152 28H33.9881L33.9884 28.0304L34.0151 28.0312L34.0152 28ZM23.9849 28.0204L23.9848 28H24.0119L24.0117 28.0198C24.0028 28.02 23.9938 28.0202 23.9849 28.0204Z" fill="#BFBFBF"/>
<path d="M31.0352 28H31M33.9066 13.4812C35.5958 15.167 36.8203 17.3294 36.9818 19.3396C37.403 18.7962 37.7096 17.8748 37.928 17.582C37.9459 17.5581 37.9703 17.5281 38 17.4916C37.428 16.0711 41 14 39 9C42.0224 10.4835 43.534 15.9494 41.5 19.89L41.3778 20.1266C40.5866 21.6573 39.9666 22.857 39.7193 24.135C39.8169 24.0909 39.916 24.0469 40.0159 24.0025C41.3032 23.4301 42.4367 24.2871 43.5 22.5C44.1647 25.284 43.493 24.941 42.4715 26.142C41.6837 27.0682 40.8736 28.0205 40.7806 29.7654C40.857 29.9333 40.9376 30.105 41.0224 30.2807L46 28.791C46 28.791 45.7204 32.6785 45.5278 35.6058C44.94 44.5409 42.5 50.5599 35.1922 55L34.7573 50.1538C32.3808 51.879 30.8886 52.7601 29.2289 52.8612C28.9454 52.8785 28.6612 52.8785 28.3778 52.8612C26.8057 52.7654 25.384 51.9699 23.2188 50.4203L22.8078 55C15.5 50.5599 13.06 44.5409 12.4722 35.6058C12.2796 32.6785 12 28.791 12 28.791L16.9776 30.2807C17.0624 30.105 17.143 29.9333 17.2194 29.7654C17.1264 28.0205 16.3163 27.0682 15.5285 26.142C14.507 24.941 14 23 15 20.4628C16.0633 22.2499 16.6968 23.4301 17.9841 24.0025C18.084 24.0469 18.183 24.0909 18.2807 24.135C18.0334 22.857 17.7911 21.5307 17 20L16.8778 19.7634C14.8438 15.8228 17.4776 10.7835 20.5 9.3C18.1478 14.418 19.4552 17.3393 19.928 17.9205C19.9578 17.957 19.9822 17.987 20 18.0109C20.3657 18.5011 21.1804 19.5513 21.8924 20.4628C22.0665 19.4988 21.9834 18.6473 21.8358 17.7674C21.5194 15.8821 22.0614 12.7812 24.7835 11.5659C24.2104 13.8749 24.451 16.7624 26.3326 17.4916C27.3164 17.8728 28.717 17.4641 28.9602 16.3298C29.1129 15.6171 28.8017 15.0383 28.4429 14.3711C28.1287 13.7869 27.7781 13.1349 27.6708 12.2659C27.3835 9.93927 28.1348 8.22851 30.5245 6C29.9805 9.56799 31.719 11.3007 33.7539 13.3289L33.9066 13.4812ZM33.9881 28H34.0152L34.0151 28.0312L33.9884 28.0304L33.9881 28ZM23.9848 28L23.9849 28.0204C23.9938 28.0202 24.0028 28.02 24.0117 28.0198L24.0119 28H23.9848Z" stroke="#BFBFBF" stroke-linejoin="round"/>
<path d="M37.522 20.8605C38.8115 18.3331 37.3421 14.9117 34.9066 12.4812C32.8071 10.386 30.967 8.65694 31.5245 5C29.1348 7.22851 28.3835 8.93927 28.6708 11.2659C28.9006 13.1272 30.2467 13.993 29.9602 15.3298C29.717 16.4641 28.3164 16.8728 27.3326 16.4916C25.451 15.7624 24.7104 13.5749 25.2835 11.2659C22.5614 12.4812 22.5194 14.8821 22.8358 16.7674C23.1521 18.6528 23.172 20.4084 21 23.4186L22.8358 27H35.6862C35.6862 27 36.9101 23.4186 37.522 20.8605Z" fill="white"/>
<path d="M17.9998 36.9999L17.9998 40.0247C17.9997 42.2502 17.9997 43.3629 18.436 44.3376C18.4961 44.4719 18.5622 44.6035 18.6339 44.732C19.1544 45.6645 20.0464 46.3298 21.8303 47.6603C25.4718 50.3762 27.2925 51.7342 29.3775 51.8612C29.661 51.8784 29.9452 51.8784 30.2286 51.8612C32.3136 51.7342 34.1344 50.3762 37.7759 47.6603C39.5598 46.3298 40.4518 45.6645 40.9723 44.732C41.044 44.6035 41.11 44.4719 41.1701 44.3376C41.6064 43.3629 41.6064 42.2502 41.6064 40.0247V37C41.6064 32.286 41.6064 29.9289 40.1419 28.4645C38.6775 27 36.3205 27 31.6064 27L27.9998 27C23.2857 27 20.9287 27 19.4643 28.4644C17.9998 29.9289 17.9998 32.2859 17.9998 36.9999Z" fill="white" stroke="black" stroke-linejoin="round"/>
<path d="M37.8354 20.5C37.8354 20.5 38.967 16 35.2991 12.3112C33.2632 10.2636 31.4997 9 31.4998 5C30.313 7.5 30.2863 9.95549 31.4996 12C32.6865 14 34.4997 16 33.9997 19C33.3874 22.674 34.4995 25 34.4995 25L37.8354 20.5Z" fill="#BFBFBF"/>
<path d="M37.522 20.8605C38.8115 18.3331 37.3421 14.9117 34.9066 12.4812C32.8071 10.386 30.967 8.65694 31.5245 5C29.1348 7.22851 28.3835 8.93927 28.6708 11.2659C28.9006 13.1272 30.2467 13.993 29.9602 15.3298C29.717 16.4641 28.3164 16.8728 27.3326 16.4916C25.451 15.7624 24.7104 13.5749 25.2835 11.2659C22.5614 12.4812 22.5194 14.8821 22.8358 16.7674C23.1521 18.6528 23.172 20.4084 21 23.4186L22.8358 27H35.6862C35.6862 27 36.9101 23.4186 37.522 20.8605Z" stroke="black" stroke-linejoin="round"/>
<path d="M41.9947 31L38.0631 28.2785C37.3264 21.8997 42.2131 24.369 44.8125 20C46.1749 25.7058 40.6108 24.5778 41.9947 31Z" fill="white" stroke="black" stroke-linejoin="round"/>
<path d="M18.0053 31L21.9369 28.2785C22.6736 21.8997 17.7869 24.369 15.1875 20C13.8251 25.7058 19.3892 24.5778 18.0053 31Z" fill="white" stroke="black" stroke-linejoin="round"/>
<path d="M24.4604 46.7274L23.8078 54C16.5 49.5599 14.06 43.5409 13.4722 34.6058C13.2796 31.6785 13 27.791 13 27.791L17.9776 29.2807C20.3927 24.2752 19.3829 22.5379 17.5 18.89C15.466 14.9494 17.9776 10.4835 21 9C18.5 14.4395 20.6987 16.607 21 17.0109C21.6356 17.8629 23.6274 20.4062 24.079 20.9736C24.8417 21.9322 24.9688 23 24.9688 24.3817L25 29.5C22.4013 29.3044 19.6242 30.8167 19.1217 34.6058C18.9374 35.9951 18.9355 37.2825 19.0718 38.4676L19.0855 38.5825C19.6569 43.2196 22.3458 45.2932 24.4604 46.7274Z" fill="white"/>
<path d="M35.5396 46.7274L36.1922 54C43.5 49.5599 45.94 43.5409 46.5278 34.6058C46.7204 31.6785 47 27.791 47 27.791L42.0224 29.2807C39.6073 24.2752 40.6171 22.5379 42.5 18.89C44.534 14.9494 42.0224 10.4835 39 9C41.5 14.4395 39.3013 16.607 39 17.0109C38.3644 17.8629 36.3726 20.4062 35.921 20.9736C35.1583 21.9322 35.0312 23 35.0312 24.3817L35 29.5C37.5987 29.3044 40.3758 30.8167 40.8783 34.6058C41.0626 35.9951 41.0645 37.2825 40.9282 38.4676L40.9145 38.5825C40.3431 43.2196 37.6542 45.2932 35.5396 46.7274Z" fill="white"/>
<path d="M42.0225 29.2807C39.6074 24.2752 40.6171 22.5379 42.5001 18.89C44.534 14.9494 42.0225 10.4835 39.0001 9C41.5 11.5 42.4731 15.0538 41.5 17C40 20 39.2693 20.8267 39 21.5C38 24 38.5 26 39.5 28C40.4927 29.9853 41.4853 31.9707 41.0107 34.4451L41 34.5C41.0037 34.4817 41.0072 34.4634 41.0107 34.4451L42.0225 29.2807Z" fill="#BFBFBF"/>
<path fill-rule="evenodd" clip-rule="evenodd" d="M30 20L28 22.1818V29.8182L30 32L32 29.8182V22.1818L30 20Z" fill="white" stroke="black" stroke-linejoin="round"/>
<path d="M36.1922 50.5V54C43.5 49.5599 45.94 43.5409 46.5278 34.6058C46.7204 31.6785 47 27.791 47 27.791L44.7 28.5L44 37C43.5 45 38.3067 49.0658 36.1922 50.5Z" fill="#BFBFBF"/>
<path d="M20.4997 19.5C22.5 22 23.4999 24.5 22.194 30C23.073 29.5857 24.0484 29.4284 24.9999 29.5L24.9687 24.3817C24.9687 23 24.8416 21.9322 24.0789 20.9736C23.6274 20.4062 21.6355 17.8629 20.9999 17.0109C20.6986 16.607 18.4999 14.4395 20.9999 9C17.9999 11.5 17.8126 16.1416 20.4997 19.5Z" fill="#BFBFBF"/>
<path d="M24.4605 46.7274L24 51C17.9777 46 17.0974 41.5846 16.5 38C16 35 15.5 28.5 15.5 28.5L17.9777 29.2807L19.0856 38.5825C19.657 43.2196 22.3459 45.2932 24.4605 46.7274Z" fill="#BFBFBF"/>
<path d="M17.9776 29.2807L13 27.791C13 27.791 13.2796 31.6785 13.4722 34.6058C14.06 43.5409 16.5 49.5599 23.8078 54L24.4604 46.7274C22.3458 45.2932 19.6569 43.2196 19.0855 38.5825M17.9776 29.2807C20.3927 24.2752 19.3829 22.5379 17.5 18.89C15.466 14.9494 17.9776 10.4835 21 9C18.5 14.4395 20.6987 16.607 21 17.0109C21.6356 17.8629 23.6274 20.4062 24.079 20.9736C24.8417 21.9322 24.9688 23 24.9688 24.3817L25 29.5C22.4013 29.3044 19.6242 30.8167 19.1217 34.6058C18.9315 36.0401 18.9356 37.3658 19.0855 38.5825M17.9776 29.2807L19.0855 38.5825" stroke="black" stroke-linejoin="round"/>
<path fill-rule="evenodd" clip-rule="evenodd" d="M30 22L29.5 22.7844V29.2156L30 30L30.5 29.2156V22.7844L30 22Z" fill="black"/>
<ellipse cx="25.0204" cy="35.9599" rx="1.53895" ry="1.53897" fill="black"/>
<ellipse cx="35.1366" cy="35.9599" rx="1.53895" ry="1.53897" fill="black"/>
<ellipse cx="26.1824" cy="35.1958" rx="0.685342" ry="0.685349" fill="white"/>
<ellipse cx="36.2459" cy="35.1958" rx="0.685342" ry="0.685349" fill="white"/>
<path fill-rule="evenodd" clip-rule="evenodd" d="M38.2339 36.1987C36.1174 34.0821 33.155 34.8187 32.0688 36.1634C31.913 36.3561 31.6206 36.3487 31.523 36.2703C31.4395 36.2033 31.5243 35.859 31.68 35.6662C33.0733 33.9416 36.3441 33.0396 38.8685 35.5641C39.0438 35.7393 39.0438 36.0234 38.8685 36.1987C38.6933 36.3739 38.4092 36.3739 38.2339 36.1987Z" fill="black"/>
<path fill-rule="evenodd" clip-rule="evenodd" d="M21.7661 36.1987C23.8826 34.0821 26.845 34.8187 27.9312 36.1634C28.087 36.3561 28.3794 36.3487 28.477 36.2703C28.5605 36.2033 28.4757 35.859 28.32 35.6662C26.9267 33.9416 23.6559 33.0396 21.1315 35.5641C20.9562 35.7393 20.9562 36.0234 21.1315 36.1987C21.3067 36.3739 21.5908 36.3739 21.7661 36.1987Z" fill="black"/>
<path d="M30.2842 42.106C30.0451 41.9998 30.975 40.6906 31.8734 41.0682C32.5178 41.339 31.1624 41.3465 30.2842 42.106Z" fill="black"/>
<path d="M29.8403 42.106C30.0828 41.9998 29.1394 40.6906 28.228 41.0682C27.5743 41.339 28.9493 41.3465 29.8403 42.106Z" fill="black"/>
<path fill-rule="evenodd" clip-rule="evenodd" d="M27.0652 45.1312C26.7081 44.8099 27.9179 44.0243 28.279 43.9244C28.3956 43.8921 28.5705 43.8505 28.7371 43.8604C29.1591 43.8854 29.5059 44.1512 29.8839 44.2968C29.9323 44.3155 29.9617 44.3236 29.9757 44.3271C29.99 44.3234 30.0209 44.3148 30.0728 44.2947C30.1634 44.2595 30.2663 44.2107 30.3959 44.1493C30.5162 44.0923 30.6622 44.0231 30.8038 43.9696C30.9368 43.9194 31.1245 43.8594 31.3238 43.8594C31.4843 43.8594 31.643 43.899 31.7637 43.9364C32.1545 44.0572 33.2478 44.6483 32.9489 45.0791C32.6737 45.4757 31.7865 44.865 31.4188 44.7512C31.3618 44.7336 31.3304 44.728 31.3199 44.7262C31.3097 44.7284 31.2741 44.7358 31.2046 44.7621C30.802 44.9141 30.4246 45.1956 29.972 45.1956C29.4834 45.1956 29.1112 44.8633 28.6687 44.728C28.6533 44.7309 28.6252 44.7368 28.582 44.7487C28.4966 44.7724 28.3908 44.8089 28.279 44.8534C27.9128 44.999 27.4613 45.3517 27.0652 45.1312Z" fill="black"/>
<path fill-rule="evenodd" clip-rule="evenodd" d="M32.0545 45.8349C32.2201 46.0576 32.1576 46.3612 31.9148 46.5132C31.3005 46.8976 30.5556 47.0215 29.8894 46.997C29.2283 46.9728 28.5718 46.7997 28.1155 46.5123C27.8733 46.3596 27.8091 46.0569 27.9756 45.8347C28.1128 45.6515 28.3851 46.3005 29.8894 46.3556C31.3938 46.4107 31.9443 45.6869 32.0545 45.8349Z" fill="black"/>
<path d="M42.0224 29.2807L47 27.791C47 27.791 46.7204 31.6785 46.5278 34.6058C45.94 43.5409 43.5 49.5599 36.1922 54L35.5396 46.7274C37.6542 45.2932 40.3431 43.2196 40.9145 38.5825M42.0224 29.2807C39.6073 24.2752 40.6171 22.5379 42.5 18.89C44.534 14.9494 42.0224 10.4835 39 9C41.5 14.4395 39.3013 16.607 39 17.0109C38.3644 17.8629 36.3726 20.4062 35.921 20.9736C35.1583 21.9322 35.0312 23 35.0312 24.3817L35 29.5C37.5987 29.3044 40.3758 30.8167 40.8783 34.6058C41.0685 36.0401 41.0644 37.3658 40.9145 38.5825M42.0224 29.2807L40.9145 38.5825" stroke="black" stroke-linejoin="round"/>
<path d="M34.9704 25.5232L32 24L32.0407 27.4676L35 28L34.9704 25.5232Z" fill="white" stroke="black" stroke-linejoin="round"/>
<path d="M25.0296 25.5232L28 24L27.9593 27.4676L25 28L25.0296 25.5232Z" fill="white" stroke="black" stroke-linejoin="round"/>
</svg>
