<svg width="61" height="61" viewBox="0 0 61 61" fill="none" xmlns="http://www.w3.org/2000/svg">
<circle cx="30.0001" cy="30.585" r="29.0001" fill="white" stroke="white" stroke-width="2"/>
<path d="M48.6537 30.1468C48.8389 30.4191 48.848 30.7578 48.6766 31.039C47.3422 33.2273 41.8921 42.585 30.4803 42.585C19.1093 42.585 12.9912 33.7548 11.5398 31.5233C11.35 31.2315 11.3591 30.8675 11.5626 30.5851C13.1485 28.3844 19.8944 19.0468 30.4803 19.0468C41.1023 19.0468 47.1849 27.9876 48.6537 30.1468Z" fill="white"/>
<path fill-rule="evenodd" clip-rule="evenodd" d="M48.041 29.6617C47.3025 28.5836 46.0771 27.0851 42.9641 24.5849C39.7987 22.0426 35.5314 19.9696 30.5024 19.9696C25.4873 19.9696 21.1978 21.7209 17.9311 24.2583C14.718 26.7541 12.3601 29.948 11.5637 31.0463C13.065 33.3368 19.732 41.6616 30.5024 41.6616C41.2944 41.6616 48.041 31.5079 48.041 29.6617ZM48.5025 31.9694C48.6739 31.6883 50.0497 29.0109 49.8645 28.7387C48.9415 28.2771 43.4031 18.585 30.5024 18.585C19.9165 18.585 12.3637 28.3572 10.7778 30.5579C10.5743 30.8403 10.5652 31.2043 10.7549 31.4961C12.2063 33.7276 19.1314 42.5846 30.5024 42.5846C41.9142 42.5846 47.1681 34.1578 48.5025 31.9694Z" fill="black"/>
<mask id="mask0_1241_5790" style="mask-type:alpha" maskUnits="userSpaceOnUse" x="20" y="19" width="22" height="23">
<circle cx="30.9476" cy="30.5846" r="10.0879" fill="#CAC9C9" stroke="black"/>
</mask>
<g mask="url(#mask0_1241_5790)">
<rect width="8.34974" height="24.507" transform="matrix(-0.64985 -0.760062 -0.763491 0.645818 36.5969 19.9808)" fill="white"/>
</g>
<circle cx="30.9476" cy="30.5846" r="10.0879" fill="#CAC9C9" stroke="black"/>
<circle cx="30.948" cy="30.585" r="2.84617" fill="black"/>
<circle cx="33.0873" cy="28.5291" r="1.26111" fill="white"/>
<path fill-rule="evenodd" clip-rule="evenodd" d="M13.1562 29.0635C13.0174 29.2449 12.8834 29.4342 12.7586 29.6245C12.528 29.9764 12.3417 30.3119 12.2231 30.5789C12.1634 30.7132 12.1257 30.8194 12.1064 30.8952C12.1005 30.9185 12.0972 30.9352 12.0954 30.9464C12.1546 31.1133 12.3257 31.3793 12.6273 31.7482C12.7061 31.8444 12.7903 31.9438 12.8792 32.0461C12.7569 30.9546 12.9215 29.9102 13.1562 29.0635ZM14.7929 26.4312C14.7929 26.4312 15.75 25.5079 14.6116 27.8117C14.1973 28.6505 13.3708 31.9425 14.1095 34.0737C14.2237 34.4033 14.0098 34.6503 13.8676 34.742C13.7261 34.8333 13.3273 33.9107 13.0759 33.6378C13.0547 33.6149 13.0336 33.5919 13.0124 33.569C12.618 33.141 12.2266 32.7163 11.9128 32.3325C11.596 31.9452 11.3011 31.5337 11.1963 31.1634C11.1446 30.981 11.1802 30.792 11.2118 30.6675C11.2485 30.5234 11.3079 30.3653 11.3795 30.2041C11.5235 29.8799 11.7366 29.4999 11.9867 29.1184C12.4779 28.3692 13.1643 27.5349 13.8314 27.1059C14.0604 26.9586 14.7929 26.4312 14.7929 26.4312Z" fill="black"/>
<circle cx="30.9476" cy="30.5846" r="10.0879" stroke="black"/>
<circle cx="50" cy="50.585" r="9.6" fill="#CAC9C9" stroke="white" stroke-width="1.2"/>
<circle cx="50" cy="50.585" r="8.4" fill="black" stroke="black" stroke-width="1.2"/>
<path d="M47.7298 55.585H44.7469L48.1077 45.4031H51.8861L55.2469 55.585H52.2639L50.0367 48.2071H49.9571L47.7298 55.585ZM47.173 51.5679H52.781V53.6361H47.173V51.5679Z" fill="white"/>
</svg>
