<svg width="61" height="61" viewBox="0 0 61 61" fill="none" xmlns="http://www.w3.org/2000/svg">
<circle cx="30.0002" cy="30.585" r="29.0001" fill="white" stroke="white" stroke-width="2"/>
<g filter="url(#filter0_d_1241_5751)">
<path d="M34.1231 26.5737V16.4954C34.1231 15.8408 33.7582 15.241 33.1776 14.9412L28.1632 12.3524C27.0022 11.753 25.6201 12.5977 25.6201 13.9065V26.5737" fill="#CAC9C9"/>
<path fill-rule="evenodd" clip-rule="evenodd" d="M28.4244 11.8458L33.5534 13.9061C34.3237 14.3038 34.6926 15.6277 34.6926 16.4949V26.5732C34.6926 26.8878 34.4376 27.1428 34.123 27.1428C33.8084 27.1428 33.5534 26.8878 33.5534 26.5732V16.4949C33.5534 16.0529 33.307 15.6487 32.9162 15.4469L27.3326 12.8521C26.5527 12.4494 26.1896 14.074 26.1896 14.9583V26.5732C26.1896 26.8878 25.9345 27.1428 25.62 27.1428C25.3054 27.1428 25.0504 26.8878 25.0504 26.5732V13.9061C25.0504 12.1727 26.8824 11.0497 28.4244 11.8458Z" fill="black"/>
<path d="M24.306 31.1318H35.4371V26.6708H24.306V31.1318Z" fill="white"/>
<path fill-rule="evenodd" clip-rule="evenodd" d="M36.0068 31.1316C36.0068 31.4462 35.7518 31.7012 35.4372 31.7012H24.3061C23.9916 31.7012 23.7365 31.4462 23.7365 31.1316V26.6706C23.7365 26.356 23.9916 26.101 24.3061 26.101H35.4372C35.7518 26.101 36.0068 26.356 36.0068 26.6706V31.1316ZM34.8676 30.562V27.2402L24.8758 27.5029V30.562H34.8676Z" fill="black"/>
<path d="M25.9386 49.015H33.8044C35.1127 49.015 36.1733 47.9544 36.1733 46.6462V31.1318H23.5698V46.6461C23.5698 47.9545 24.6304 49.015 25.9386 49.015Z" fill="white"/>
<path fill-rule="evenodd" clip-rule="evenodd" d="M23.0001 31.132C23.0001 30.8175 23.2551 30.5624 23.5697 30.5624H36.1732C36.4878 30.5624 36.7429 30.8175 36.7429 31.132V46.6464C36.7429 48.2692 35.4272 49.5849 33.8044 49.5849H25.9386C24.3157 49.5849 23.0001 48.2692 23.0001 46.6463V31.132ZM24.1393 31.7017V46.6463C24.1393 47.6401 24.9449 48.4456 25.9386 48.4456H33.8044C34.7981 48.4456 35.6036 47.6401 35.6036 46.6464V31.9338L24.1393 31.7017Z" fill="black"/>
<path d="M27.0245 13.6923C26.3154 13.895 26.609 21.1351 26.7947 25.3015C26.809 25.6218 27.189 25.7814 27.428 25.5677C27.5052 25.4987 27.5509 25.4011 27.5545 25.2977L27.8947 15.6821C27.8947 15.6821 31.1978 16.3656 30.8609 15.6821C30.524 14.9986 27.3227 13.4117 27.0245 13.6923Z" fill="white"/>
<path d="M25.231 27.6229C25.5685 27.5196 25.5899 28.1382 25.5899 28.1382C25.5899 28.1382 25.6842 29.5002 25.6965 29.6049C25.7089 29.7095 25.6357 30.1738 25.3593 30.3749C25.083 30.576 24.8934 27.7262 25.231 27.6229Z" fill="#CAC9C9"/>
<path d="M24.8558 32.0807C33.1225 32.0808 25.5836 33.2381 25.5836 33.2381C25.5836 33.2381 25.5435 44.0006 25.5836 44.5794C25.6236 45.1583 26.3004 47.6213 25.1534 47.6213C24.3832 47.6213 24.1178 32.0807 24.8558 32.0807Z" fill="#CAC9C9"/>
</g>
<circle cx="50.0001" cy="50.585" r="9.6" fill="#CAC9C9" stroke="white" stroke-width="1.2"/>
<circle cx="50.0001" cy="50.585" r="8.4" fill="black" stroke="black" stroke-width="1.2"/>
<path d="M45.9806 55.585V45.4031H50.3954C51.1709 45.4031 51.8222 45.5075 52.3492 45.7164C52.8795 45.9252 53.2789 46.2201 53.5474 46.6013C53.8191 46.9825 53.955 47.4316 53.955 47.9486C53.955 48.3231 53.8722 48.6645 53.7064 48.9727C53.544 49.281 53.3153 49.5395 53.0204 49.7483C52.7254 49.9538 52.3807 50.0963 51.9863 50.1759V50.2753C52.4238 50.2919 52.8215 50.4029 53.1795 50.6084C53.5374 50.8106 53.8224 51.0906 54.0346 51.4486C54.2467 51.8032 54.3528 52.2209 54.3528 52.7014C54.3528 53.2583 54.2069 53.7538 53.9153 54.1879C53.6269 54.6221 53.2159 54.9635 52.6823 55.2121C52.1487 55.4607 51.5123 55.585 50.7732 55.585H45.9806ZM48.7448 53.3776H50.0374C50.5014 53.3776 50.8494 53.2914 51.0814 53.1191C51.3135 52.9434 51.4295 52.6849 51.4295 52.3435C51.4295 52.1048 51.3748 51.9027 51.2654 51.7369C51.156 51.5712 51.0002 51.4453 50.7981 51.3591C50.5992 51.2729 50.3589 51.2298 50.0772 51.2298H48.7448V53.3776ZM48.7448 49.5196H49.8783C50.1203 49.5196 50.334 49.4815 50.5197 49.4053C50.7053 49.329 50.8494 49.2197 50.9522 49.0771C51.0582 48.9313 51.1113 48.754 51.1113 48.5452C51.1113 48.2303 50.9986 47.99 50.7732 47.8243C50.5478 47.6553 50.2628 47.5708 49.9181 47.5708H48.7448V49.5196Z" fill="white"/>
<defs>
<filter id="filter0_d_1241_5751" x="21.9431" y="11.585" width="14.7998" height="39.5854" filterUnits="userSpaceOnUse" color-interpolation-filters="sRGB">
<feFlood flood-opacity="0" result="BackgroundImageFix"/>
<feColorMatrix in="SourceAlpha" type="matrix" values="0 0 0 0 0 0 0 0 0 0 0 0 0 0 0 0 0 0 127 0" result="hardAlpha"/>
<feOffset dx="-1.05703" dy="1.58555"/>
<feComposite in2="hardAlpha" operator="out"/>
<feColorMatrix type="matrix" values="0 0 0 0 0 0 0 0 0 0 0 0 0 0 0 0 0 0 0.25 0"/>
<feBlend mode="normal" in2="BackgroundImageFix" result="effect1_dropShadow_1241_5751"/>
<feBlend mode="normal" in="SourceGraphic" in2="effect1_dropShadow_1241_5751" result="shape"/>
</filter>
</defs>
</svg>
