<svg width="61" height="61" viewBox="0 0 61 61" fill="none" xmlns="http://www.w3.org/2000/svg">
<circle cx="30.0001" cy="30.585" r="29.0001" fill="white" stroke="white" stroke-width="2"/>
<g filter="url(#filter0_d_1241_5731)">
<path d="M34.123 26.5737V16.4954C34.123 15.8408 33.7581 15.241 33.1774 14.9412L28.163 12.3524C27.0021 11.753 25.6199 12.5977 25.6199 13.9065V26.5737" fill="#CAC9C9"/>
<path fill-rule="evenodd" clip-rule="evenodd" d="M28.4242 11.8458L33.5533 13.9061C34.3236 14.3038 34.6925 15.6277 34.6925 16.4949V26.5732C34.6925 26.8878 34.4374 27.1428 34.1229 27.1428C33.8083 27.1428 33.5533 26.8878 33.5533 26.5732V16.4949C33.5533 16.0529 33.3069 15.6487 32.916 15.4469L27.3325 12.8521C26.5526 12.4494 26.1894 14.074 26.1894 14.9583V26.5732C26.1894 26.8878 25.9344 27.1428 25.6198 27.1428C25.3053 27.1428 25.0502 26.8878 25.0502 26.5732V13.9061C25.0502 12.1727 26.8823 11.0497 28.4242 11.8458Z" fill="black"/>
<path d="M24.3059 31.1318H35.437V26.6708H24.3059V31.1318Z" fill="white"/>
<path fill-rule="evenodd" clip-rule="evenodd" d="M36.0067 31.1316C36.0067 31.4462 35.7517 31.7012 35.4371 31.7012H24.306C23.9914 31.7012 23.7364 31.4462 23.7364 31.1316V26.6706C23.7364 26.356 23.9914 26.101 24.306 26.101H35.4371C35.7517 26.101 36.0067 26.356 36.0067 26.6706V31.1316ZM34.8675 30.562V27.2402L24.8756 27.5029V30.562H34.8675Z" fill="black"/>
<path d="M25.9385 49.015H33.8043C35.1126 49.015 36.1732 47.9544 36.1732 46.6462V31.1318H23.5696V46.6461C23.5696 47.9545 24.6302 49.015 25.9385 49.015Z" fill="white"/>
<path fill-rule="evenodd" clip-rule="evenodd" d="M23 31.132C23 30.8175 23.255 30.5624 23.5696 30.5624H36.1731C36.4877 30.5624 36.7427 30.8175 36.7427 31.132V46.6464C36.7427 48.2692 35.4271 49.5849 33.8043 49.5849H25.9385C24.3156 49.5849 23 48.2692 23 46.6463V31.132ZM24.1392 31.7017V46.6463C24.1392 47.6401 24.9448 48.4456 25.9385 48.4456H33.8043C34.7979 48.4456 35.6035 47.6401 35.6035 46.6464V31.9338L24.1392 31.7017Z" fill="black"/>
<path d="M27.0243 13.6923C26.3153 13.895 26.6088 21.1351 26.7946 25.3015C26.8089 25.6218 27.1889 25.7814 27.4279 25.5677C27.5051 25.4987 27.5508 25.4011 27.5544 25.2977L27.8946 15.6821C27.8946 15.6821 31.1976 16.3656 30.8608 15.6821C30.5239 14.9986 27.3225 13.4117 27.0243 13.6923Z" fill="white"/>
<path d="M25.2309 27.6229C25.5684 27.5196 25.5898 28.1382 25.5898 28.1382C25.5898 28.1382 25.6841 29.5002 25.6964 29.6049C25.7088 29.7095 25.6356 30.1738 25.3592 30.3749C25.0828 30.576 24.8933 27.7262 25.2309 27.6229Z" fill="#CAC9C9"/>
<path d="M24.8557 32.0807C33.1224 32.0808 25.5835 33.2381 25.5835 33.2381C25.5835 33.2381 25.5434 44.0006 25.5835 44.5794C25.6235 45.1583 26.3003 47.6213 25.1532 47.6213C24.383 47.6213 24.1176 32.0807 24.8557 32.0807Z" fill="#CAC9C9"/>
</g>
<circle cx="50" cy="50.585" r="9.6" fill="#CAC9C9" stroke="white" stroke-width="1.2"/>
<circle cx="50" cy="50.585" r="8.4" fill="black" stroke="black" stroke-width="1.2"/>
<path d="M47.7298 55.585H44.7469L48.1077 45.4031H51.8861L55.2469 55.585H52.2639L50.0367 48.2071H49.9571L47.7298 55.585ZM47.173 51.5679H52.781V53.6361H47.173V51.5679Z" fill="white"/>
<defs>
<filter id="filter0_d_1241_5731" x="21.943" y="11.585" width="14.7998" height="39.5854" filterUnits="userSpaceOnUse" color-interpolation-filters="sRGB">
<feFlood flood-opacity="0" result="BackgroundImageFix"/>
<feColorMatrix in="SourceAlpha" type="matrix" values="0 0 0 0 0 0 0 0 0 0 0 0 0 0 0 0 0 0 127 0" result="hardAlpha"/>
<feOffset dx="-1.05703" dy="1.58555"/>
<feComposite in2="hardAlpha" operator="out"/>
<feColorMatrix type="matrix" values="0 0 0 0 0 0 0 0 0 0 0 0 0 0 0 0 0 0 0.25 0"/>
<feBlend mode="normal" in2="BackgroundImageFix" result="effect1_dropShadow_1241_5731"/>
<feBlend mode="normal" in="SourceGraphic" in2="effect1_dropShadow_1241_5731" result="shape"/>
</filter>
</defs>
</svg>
