<svg width="61" height="61" viewBox="0 0 61 61" fill="none" xmlns="http://www.w3.org/2000/svg">
<circle cx="29.9996" cy="30.585" r="29.0001" fill="white" stroke="white" stroke-width="2"/>
<path d="M48.6532 30.1468C48.8384 30.4191 48.8475 30.7578 48.6761 31.039C47.3417 33.2273 41.8916 42.585 30.4798 42.585C19.1088 42.585 12.9907 33.7548 11.5393 31.5233C11.3495 31.2315 11.3586 30.8675 11.5621 30.5851C13.148 28.3844 19.8939 19.0468 30.4798 19.0468C41.1018 19.0468 47.1844 27.9876 48.6532 30.1468Z" fill="white"/>
<path fill-rule="evenodd" clip-rule="evenodd" d="M48.0405 29.6617C47.302 28.5836 46.0766 27.0851 42.9636 24.5849C39.7983 22.0426 35.5309 19.9696 30.5019 19.9696C25.4868 19.9696 21.1973 21.7209 17.9306 24.2583C14.7175 26.7541 12.3596 29.948 11.5632 31.0463C13.0645 33.3368 19.7315 41.6616 30.5019 41.6616C41.2939 41.6616 48.0405 31.5079 48.0405 29.6617ZM48.502 31.9694C48.6734 31.6883 50.0492 29.0109 49.8641 28.7387C48.941 28.2771 43.4026 18.585 30.5019 18.585C19.916 18.585 12.3632 28.3572 10.7773 30.5579C10.5738 30.8403 10.5647 31.2043 10.7545 31.4961C12.2059 33.7276 19.1309 42.5846 30.5019 42.5846C41.9137 42.5846 47.1676 34.1578 48.502 31.9694Z" fill="black"/>
<mask id="mask0_1241_5807" style="mask-type:alpha" maskUnits="userSpaceOnUse" x="20" y="19" width="22" height="23">
<circle cx="30.9471" cy="30.5846" r="10.0879" fill="#CAC9C9" stroke="black"/>
</mask>
<g mask="url(#mask0_1241_5807)">
<rect width="8.34974" height="24.507" transform="matrix(-0.64985 -0.760062 -0.763491 0.645818 36.5964 19.9808)" fill="white"/>
</g>
<circle cx="30.9471" cy="30.5846" r="10.0879" fill="#CAC9C9" stroke="black"/>
<circle cx="30.9475" cy="30.585" r="2.84617" fill="black"/>
<circle cx="33.0868" cy="28.5291" r="1.26111" fill="white"/>
<path fill-rule="evenodd" clip-rule="evenodd" d="M13.1557 29.0635C13.0169 29.2449 12.883 29.4342 12.7582 29.6245C12.5275 29.9764 12.3412 30.3119 12.2226 30.5789C12.1629 30.7132 12.1252 30.8194 12.1059 30.8952C12.1 30.9185 12.0968 30.9352 12.095 30.9464C12.1542 31.1133 12.3252 31.3793 12.6269 31.7482C12.7056 31.8444 12.7899 31.9438 12.8787 32.0461C12.7564 30.9546 12.9211 29.9102 13.1557 29.0635ZM14.7925 26.4312C14.7925 26.4312 15.7495 25.5079 14.6111 27.8117C14.1968 28.6505 13.3704 31.9425 14.109 34.0737C14.2233 34.4033 14.0093 34.6503 13.8671 34.742C13.7257 34.8333 13.3269 33.9107 13.0754 33.6378C13.0543 33.6149 13.0331 33.5919 13.012 33.569C12.6176 33.141 12.2262 32.7163 11.9123 32.3325C11.5955 31.9452 11.3006 31.5337 11.1958 31.1634C11.1441 30.981 11.1797 30.792 11.2114 30.6675C11.248 30.5234 11.3074 30.3653 11.379 30.2041C11.5231 29.8799 11.7361 29.4999 11.9862 29.1184C12.4774 28.3692 13.1639 27.5349 13.8309 27.1059C14.06 26.9586 14.7925 26.4312 14.7925 26.4312Z" fill="black"/>
<circle cx="30.9471" cy="30.5846" r="10.0879" stroke="black"/>
<circle cx="49.9995" cy="50.585" r="9.6" fill="#CAC9C9" stroke="white" stroke-width="1.2"/>
<circle cx="49.9995" cy="50.585" r="8.4" fill="black" stroke="black" stroke-width="1.2"/>
<path d="M45.98 55.585V45.4031H50.3948C51.1703 45.4031 51.8216 45.5075 52.3486 45.7164C52.8789 45.9252 53.2783 46.2201 53.5467 46.6013C53.8185 46.9825 53.9544 47.4316 53.9544 47.9486C53.9544 48.3231 53.8716 48.6645 53.7058 48.9727C53.5434 49.281 53.3147 49.5395 53.0198 49.7483C52.7248 49.9538 52.3801 50.0963 51.9857 50.1759V50.2753C52.4232 50.2919 52.8209 50.4029 53.1788 50.6084C53.5368 50.8106 53.8218 51.0906 54.034 51.4486C54.2461 51.8032 54.3521 52.2209 54.3521 52.7014C54.3521 53.2583 54.2063 53.7538 53.9146 54.1879C53.6263 54.6221 53.2153 54.9635 52.6817 55.2121C52.1481 55.4607 51.5117 55.585 50.7726 55.585H45.98ZM48.7442 53.3776H50.0368C50.5008 53.3776 50.8488 53.2914 51.0808 53.1191C51.3128 52.9434 51.4288 52.6849 51.4288 52.3435C51.4288 52.1048 51.3742 51.9027 51.2648 51.7369C51.1554 51.5712 50.9996 51.4453 50.7975 51.3591C50.5986 51.2729 50.3583 51.2298 50.0766 51.2298H48.7442V53.3776ZM48.7442 49.5196H49.8777C50.1197 49.5196 50.3334 49.4815 50.519 49.4053C50.7046 49.329 50.8488 49.2197 50.9516 49.0771C51.0576 48.9313 51.1107 48.754 51.1107 48.5452C51.1107 48.2303 50.998 47.99 50.7726 47.8243C50.5472 47.6553 50.2622 47.5708 49.9175 47.5708H48.7442V49.5196Z" fill="white"/>
</svg>
