<svg width="61" height="61" viewBox="0 0 61 61" fill="none" xmlns="http://www.w3.org/2000/svg">
<circle cx="30.1052" cy="30.585" r="29.0001" fill="white" stroke="white" stroke-width="2"/>
<g filter="url(#filter0_d_1241_5698)">
<path d="M22.5357 42.0655H36.9189C41.9064 39.4607 45.3119 34.2313 45.3119 28.2047C45.3119 19.5781 38.3345 12.585 29.7273 12.585C21.1201 12.585 14.1427 19.5782 14.1427 28.2047C14.1427 34.2313 17.5482 39.4607 22.5357 42.0655Z" fill="white" stroke="black" stroke-width="1.15263" stroke-miterlimit="10" stroke-linecap="round" stroke-linejoin="round"/>
<path d="M29.7267 38.0313C35.1359 38.0313 39.521 33.6364 39.521 28.215C39.521 22.7937 35.1359 18.3988 29.7267 18.3988C24.3175 18.3988 19.9325 22.7937 19.9325 28.215C19.9325 33.6364 24.3175 38.0313 29.7267 38.0313Z" fill="#CAC9C9"/>
<mask id="mask0_1241_5698" style="mask-type:alpha" maskUnits="userSpaceOnUse" x="19" y="18" width="21" height="20">
<circle cx="29.7269" cy="27.8767" r="9.79445" fill="#D9D9D9"/>
</mask>
<g mask="url(#mask0_1241_5698)">
<path d="M18.3029 24.8416L23.3728 19.2253C23.4166 19.1769 23.4787 19.1493 23.544 19.1493H36.4918C36.6926 19.1493 36.7974 19.3881 36.6615 19.5359L21.06 36.4974C20.9473 36.6199 20.7458 36.5862 20.6791 36.4336L19.7541 34.3171C19.7196 34.2384 19.7319 34.147 19.7858 34.0801L31.303 19.7936C31.4246 19.6428 31.3172 19.4184 31.1235 19.4184H30.1235C30.0565 19.4184 29.9929 19.4475 29.9491 19.4982L19.4002 31.7044C19.2689 31.8564 19.0196 31.7795 18.9967 31.58L18.245 25.0223C18.2375 24.9565 18.2586 24.8907 18.3029 24.8416Z" fill="white"/>
</g>
<path fill-rule="evenodd" clip-rule="evenodd" d="M29.7265 19.3572C24.6508 19.3572 20.5339 23.1247 20.5339 28.2151C20.5339 33.3054 24.6508 37.4296 29.7265 37.4296C34.8021 37.4296 38.919 33.3054 38.919 28.2151C38.919 23.1247 34.8021 19.3572 29.7265 19.3572ZM19.3306 28.2151C19.3306 22.4627 23.9837 17.7972 29.7265 17.7972C35.4692 17.7972 40.1223 22.4627 40.1223 28.2151C40.1223 33.9674 35.4692 38.9995 29.7265 38.9995C23.9837 38.9995 19.3306 33.9674 19.3306 28.2151Z" fill="black"/>
<path d="M15.3182 27.4785C15.7998 18.1802 22.9508 14.7023 27.4858 13.9561C19.9999 17.8946 17.3526 21.1712 16.4989 27.4785C15.7112 33.2988 22.4941 40.3151 26.3455 42.095C22.1842 41.5784 14.8365 36.7767 15.3182 27.4785Z" fill="#CAC9C9"/>
<path d="M39.8372 48.5847H19.6175C16.0208 48.5847 13.1051 45.669 13.1051 42.0723V42.0649H46.3496V42.0723C46.3496 45.669 43.4338 48.5847 39.8372 48.5847Z" fill="white" stroke="black" stroke-width="1.15263" stroke-miterlimit="10" stroke-linecap="round" stroke-linejoin="round"/>
<path fill-rule="evenodd" clip-rule="evenodd" d="M16.4511 46.3281C16.2529 46.1444 14.3243 44.7337 14.4687 43.9847C15.3969 44.5536 17.1235 45.4227 17.795 45.7055C18.2558 45.8995 19.0561 46.1099 20.3374 46.2738C22.8912 46.6005 27.208 46.7251 34.1832 46.2755L34.2701 47.4759C27.2554 47.928 22.8324 47.8092 20.1448 47.4654C18.8055 47.2941 17.8598 47.0624 17.2302 46.7973C16.9161 46.6651 16.6487 46.5113 16.4511 46.3281Z" fill="#CAC9C9"/>
</g>
<circle cx="50.1051" cy="50.585" r="9.6" fill="#CAC9C9" stroke="white" stroke-width="1.2"/>
<circle cx="50.1051" cy="50.585" r="8.4" fill="black" stroke="black" stroke-width="1.2"/>
<path d="M46.0856 55.585V45.4031H50.5003C51.2759 45.4031 51.9272 45.5075 52.4542 45.7164C52.9845 45.9252 53.3839 46.2201 53.6523 46.6013C53.9241 46.9825 54.06 47.4316 54.06 47.9486C54.06 48.3231 53.9771 48.6645 53.8114 48.9727C53.649 49.281 53.4203 49.5395 53.1253 49.7483C52.8304 49.9538 52.4857 50.0963 52.0913 50.1759V50.2753C52.5288 50.2919 52.9265 50.4029 53.2844 50.6084C53.6424 50.8106 53.9274 51.0906 54.1395 51.4486C54.3517 51.8032 54.4577 52.2209 54.4577 52.7014C54.4577 53.2583 54.3119 53.7538 54.0202 54.1879C53.7319 54.6221 53.3209 54.9635 52.7873 55.2121C52.2537 55.4607 51.6173 55.585 50.8782 55.585H46.0856ZM48.8498 53.3776H50.1424C50.6064 53.3776 50.9544 53.2914 51.1864 53.1191C51.4184 52.9434 51.5344 52.6849 51.5344 52.3435C51.5344 52.1048 51.4797 51.9027 51.3704 51.7369C51.261 51.5712 51.1052 51.4453 50.903 51.3591C50.7042 51.2729 50.4639 51.2298 50.1822 51.2298H48.8498V53.3776ZM48.8498 49.5196H49.9833C50.2252 49.5196 50.439 49.4815 50.6246 49.4053C50.8102 49.329 50.9544 49.2197 51.0572 49.0771C51.1632 48.9313 51.2163 48.754 51.2163 48.5452C51.2163 48.2303 51.1036 47.99 50.8782 47.8243C50.6528 47.6553 50.3678 47.5708 50.0231 47.5708H48.8498V49.5196Z" fill="white"/>
<defs>
<filter id="filter0_d_1241_5698" x="11.3762" y="12.0087" width="35.5497" height="38.8812" filterUnits="userSpaceOnUse" color-interpolation-filters="sRGB">
<feFlood flood-opacity="0" result="BackgroundImageFix"/>
<feColorMatrix in="SourceAlpha" type="matrix" values="0 0 0 0 0 0 0 0 0 0 0 0 0 0 0 0 0 0 127 0" result="hardAlpha"/>
<feOffset dx="-1.15263" dy="1.72895"/>
<feComposite in2="hardAlpha" operator="out"/>
<feColorMatrix type="matrix" values="0 0 0 0 0 0 0 0 0 0 0 0 0 0 0 0 0 0 0.25 0"/>
<feBlend mode="normal" in2="BackgroundImageFix" result="effect1_dropShadow_1241_5698"/>
<feBlend mode="normal" in="SourceGraphic" in2="effect1_dropShadow_1241_5698" result="shape"/>
</filter>
</defs>
</svg>
