<svg width="61" height="61" viewBox="0 0 61 61" fill="none" xmlns="http://www.w3.org/2000/svg">
<circle cx="30.0001" cy="30.585" r="29.0001" fill="white" stroke="white" stroke-width="2"/>
<g filter="url(#filter0_d_1241_5840)">
<path d="M30.0623 21.5308C35.5689 21.5308 40.0329 18.1786 40.0329 14.0435C40.0329 9.90834 35.5689 6.55615 30.0623 6.55615C24.5558 6.55615 20.0918 9.90834 20.0918 14.0435C20.0918 18.1786 24.5558 21.5308 30.0623 21.5308Z" fill="white"/>
<path fill-rule="evenodd" clip-rule="evenodd" d="M36.5121 18.5382C38.1269 17.3255 39.0329 15.7263 39.0329 14.0435C39.0329 12.3607 38.1269 10.7614 36.5121 9.54877C34.8969 8.33587 32.6199 7.88455 30.0623 7.88455C27.5048 7.88455 25.2278 8.33587 23.6126 9.54877C21.9978 10.7614 21.0918 12.3607 21.0918 14.0435C21.0918 15.7262 21.9978 17.3255 23.6126 18.5382C25.2278 19.7511 27.5048 20.5308 30.0623 20.5308C32.6199 20.5308 34.8969 19.7511 36.5121 18.5382ZM40.0329 14.0435C40.0329 18.1786 35.5689 21.5308 30.0623 21.5308C24.5558 21.5308 20.0918 18.1786 20.0918 14.0435C20.0918 9.90834 24.5558 6.55615 30.0623 6.55615C35.5689 6.55615 40.0329 9.90834 40.0329 14.0435Z" fill="black"/>
<path d="M29.2236 8.39482C22.971 9.05944 21.2047 13.9534 21.8938 15.1554C21.9575 15.2666 22.104 15.2275 22.1561 15.1103C23.3341 12.4611 26.3145 10.3607 29.2853 8.57431C29.3757 8.51991 29.3286 8.38366 29.2236 8.39482Z" fill="#CAC9C9"/>
<mask id="path-5-inside-1_1241_5840" fill="white">
<path d="M48.5624 30.5484C48.5624 31.1955 48.5298 31.8376 48.4646 32.4697C48.2213 34.8376 47.534 37.4262 46.4855 39.9746C45.8384 41.5473 45.0558 43.105 44.1553 44.5849C43.7013 44.768 43.2021 44.8708 42.6804 44.8708C42.5148 44.8708 42.3493 44.8608 42.1888 44.8407C39.9639 50.1182 36.1086 53.8255 31.6263 54.5304C31.102 54.6081 30.5703 54.6507 30.036 54.6533C24.8262 54.6382 20.2761 50.5898 17.8255 44.5698C16.8222 44.5523 15.9117 44.1585 15.2269 43.5239C14.7804 42.7262 14.3691 41.911 13.9953 41.0858C12.6785 38.1862 11.8156 35.1837 11.5372 32.4722C11.472 31.8401 11.4393 31.198 11.4393 30.5484C11.4393 30.4932 11.4393 30.4405 11.4393 30.3853V30.3703C11.4393 30.3301 11.4393 30.29 11.4419 30.2499C11.4419 30.2373 11.4419 30.2273 11.4419 30.2148C11.4419 30.1872 11.4419 30.1596 11.4444 30.132C11.4444 30.1169 11.4444 30.1019 11.4444 30.0868C11.4444 30.0643 11.4444 30.0417 11.4469 30.0191C11.4494 29.974 11.4494 29.9288 11.4519 29.8862C11.4519 29.8786 11.4519 29.8711 11.4519 29.8636C11.4569 29.7532 11.4619 29.6429 11.4669 29.535C11.4694 29.4873 11.472 29.4372 11.4745 29.3895C11.4745 29.372 11.477 29.3544 11.477 29.3368C11.4795 29.2917 11.482 29.2465 11.487 29.2014C11.4895 29.1562 11.4945 29.1111 11.497 29.0659C11.4995 29.0459 11.4995 29.0283 11.5021 29.0108C11.5046 28.9656 11.5096 28.923 11.5121 28.8803C11.5121 28.8678 11.5146 28.8552 11.5146 28.8427C11.5221 28.7449 11.5322 28.6471 11.5422 28.5517C11.5547 28.4313 11.5698 28.3084 11.5848 28.188C11.5898 28.1404 11.5974 28.0902 11.6049 28.0426C11.6049 28.04 11.6049 28.04 11.6049 28.0375C11.6124 27.9899 11.6174 27.9422 11.625 27.8946C11.635 27.8218 11.6475 27.7466 11.6576 27.6738C11.6626 27.6337 11.6701 27.5961 11.6751 27.5559C11.6751 27.5534 11.6751 27.5484 11.6776 27.5459C11.6852 27.4957 11.6927 27.4456 11.7027 27.3979C11.7027 27.3929 11.7052 27.3904 11.7052 27.3854C11.7153 27.3327 11.7228 27.28 11.7328 27.2274C11.7429 27.1722 11.7529 27.1195 11.7629 27.0668C11.773 27.0192 11.7805 26.9715 11.7905 26.9238C11.793 26.9138 11.793 26.9038 11.7955 26.8963C11.8156 26.7984 11.8357 26.6981 11.8557 26.6003C11.8582 26.5852 11.8607 26.5727 11.8658 26.5576C11.8758 26.5125 11.8858 26.4698 11.8959 26.4247C11.9084 26.372 11.9209 26.3193 11.9335 26.2667C11.946 26.214 11.9586 26.1613 11.9711 26.1086C11.9811 26.0635 11.9937 26.0183 12.0037 25.9757C12.0188 25.913 12.0363 25.8478 12.0539 25.7851C12.0815 25.6847 12.1066 25.5869 12.1341 25.4866C12.1367 25.4816 12.1367 25.4791 12.1367 25.4765C12.1517 25.4264 12.1642 25.3762 12.1793 25.326C12.1918 25.2859 12.2044 25.2458 12.2144 25.2057C12.2219 25.1831 12.227 25.163 12.2345 25.1404C12.247 25.1003 12.2596 25.0577 12.2721 25.0175C12.2872 24.9699 12.3022 24.9247 12.3173 24.8771C12.3524 24.7692 12.3875 24.6588 12.4251 24.551C12.4377 24.5134 12.4502 24.4757 12.4627 24.4381C12.4703 24.418 12.4778 24.398 12.4828 24.3779C12.4979 24.3378 12.5104 24.2976 12.5254 24.26C12.5455 24.2073 12.5631 24.1547 12.5831 24.102C12.6007 24.0543 12.6183 24.0067 12.6358 23.959C12.6759 23.8562 12.7136 23.7533 12.7562 23.653C12.7763 23.6028 12.7963 23.5552 12.8164 23.505V23.5025C12.834 23.4574 12.8515 23.4147 12.8716 23.3721C12.8766 23.362 12.8791 23.3545 12.8841 23.3445C12.9042 23.2993 12.9218 23.2542 12.9418 23.209C12.9619 23.1614 12.9845 23.1112 13.007 23.0635C13.007 23.061 13.0096 23.061 13.0096 23.0585C13.0296 23.0109 13.0522 22.9632 13.0723 22.9181C13.1149 22.8253 13.1575 22.735 13.2002 22.6422C13.2052 22.6346 13.2077 22.6246 13.2127 22.6171C13.2554 22.5243 13.3005 22.4315 13.3457 22.3412C13.3682 22.2935 13.3933 22.2458 13.4159 22.1982C13.4661 22.1004 13.5162 22.0025 13.5664 21.9072C13.589 21.8621 13.6141 21.8194 13.6366 21.7768C13.6617 21.7291 13.6868 21.684 13.7119 21.6363C13.737 21.5912 13.762 21.5435 13.7896 21.4984C13.7921 21.4908 13.7972 21.4858 13.7997 21.4783C13.8222 21.4382 13.8448 21.398 13.8674 21.3604C13.8925 21.3153 13.9201 21.2676 13.9477 21.2224C13.9677 21.1873 13.9878 21.1522 14.0079 21.1196C14.0179 21.0995 14.0304 21.082 14.0405 21.0644C14.063 21.0293 14.0831 20.9917 14.1057 20.9566C14.1333 20.9089 14.1634 20.8638 14.191 20.8161C14.2186 20.7735 14.2436 20.7308 14.2712 20.6882C14.2737 20.6857 14.2737 20.6832 14.2762 20.6807C14.3013 20.638 14.3289 20.5979 14.354 20.5577C14.3891 20.5026 14.4242 20.4474 14.4619 20.3922C14.4844 20.3596 14.5045 20.327 14.5271 20.2919C14.6174 20.1589 14.7077 20.026 14.8005 19.893C14.8306 19.8504 14.8607 19.8078 14.8933 19.7651C14.9209 19.7275 14.946 19.6924 14.9736 19.6548C14.9786 19.6497 14.9836 19.6422 14.9861 19.6372C15.0162 19.5971 15.0463 19.5544 15.0764 19.5143C15.109 19.4691 15.1416 19.424 15.1767 19.3813C15.2043 19.3462 15.2319 19.3111 15.2595 19.2735C15.2971 19.2258 15.3348 19.1782 15.3724 19.128C15.405 19.0879 15.4351 19.0477 15.4677 19.0076C15.4702 19.0051 15.4727 19.0001 15.4752 18.9976C15.5053 18.9599 15.5329 18.9248 15.563 18.8872C15.5655 18.8847 15.568 18.8822 15.5705 18.8797C15.6006 18.8446 15.6282 18.8069 15.6583 18.7718C15.6884 18.7367 15.7185 18.6991 15.7461 18.664C15.7637 18.6439 15.7787 18.6238 15.7963 18.6038C15.7963 18.6013 15.7988 18.5988 15.8013 18.5988C15.8465 18.5461 15.8891 18.4934 15.9342 18.4432C15.9468 18.4282 15.9593 18.4131 15.9719 18.4006C16.0045 18.363 16.0371 18.3253 16.0697 18.2877C16.0722 18.2852 16.0722 18.2852 16.0722 18.2827C16.1023 18.2476 16.1349 18.2125 16.1675 18.1774C16.1801 18.1623 16.1926 18.1473 16.2077 18.1347C16.2327 18.1071 16.2603 18.077 16.2854 18.0494C16.323 18.0093 16.3607 17.9692 16.3983 17.929C16.4209 17.9065 16.4409 17.8814 16.4635 17.8588C16.4836 17.8362 16.5061 17.8137 16.5287 17.7911C16.5463 17.7735 16.5638 17.756 16.5814 17.7359C16.609 17.7058 16.6391 17.6757 16.6692 17.6456C16.6867 17.628 16.7043 17.6105 16.7219 17.5904C16.7595 17.5528 16.7971 17.5152 16.8322 17.4775C16.8523 17.4575 16.8724 17.4349 16.8949 17.4148C16.9225 17.3872 16.9501 17.3596 16.9777 17.3346C16.9902 17.322 17.0028 17.3095 17.0128 17.2994C17.0404 17.2719 17.068 17.2468 17.0931 17.2192C17.1182 17.1941 17.1433 17.1715 17.1683 17.1464C17.2135 17.1038 17.2586 17.0612 17.3038 17.0185C17.3464 16.9784 17.3891 16.9382 17.4317 16.8981C17.4392 16.8931 17.4442 16.8856 17.4518 16.8806C17.4894 16.8454 17.527 16.8103 17.5646 16.7777C17.5822 16.7602 17.6023 16.7451 17.6198 16.7275C17.7026 16.6523 17.7879 16.5796 17.8732 16.5068C17.8957 16.4868 17.9208 16.4667 17.9434 16.4466C17.9685 16.424 17.9936 16.4015 18.0212 16.3814C18.0462 16.3588 18.0738 16.3363 18.0989 16.3137C18.1967 16.2309 18.2946 16.1506 18.3949 16.0729C18.4375 16.0403 18.4802 16.0052 18.5203 15.9725C18.5329 15.9625 18.5429 15.955 18.5554 15.945C18.6031 15.9073 18.6533 15.8697 18.7034 15.8321C18.7385 15.8045 18.7737 15.7769 18.8088 15.7518C18.8213 15.7418 18.8364 15.7317 18.8489 15.7217C18.874 15.7016 18.8991 15.6841 18.9242 15.664C18.9543 15.6414 18.9844 15.6189 19.0145 15.5963C19.0245 15.5888 19.0345 15.5812 19.0471 15.5737C19.0922 15.5386 19.1399 15.506 19.185 15.4734C19.1925 15.4684 19.1976 15.4634 19.2051 15.4583C19.2553 15.4207 19.3079 15.3856 19.3581 15.348C19.4058 15.3154 19.4509 15.2828 19.4986 15.2502C19.5312 15.2276 19.5638 15.205 19.5964 15.1824C19.6114 15.1724 19.6265 15.1624 19.6415 15.1523C19.6766 15.1298 19.7093 15.1072 19.7444 15.0821C19.7895 15.052 19.8372 15.0219 19.8823 14.9918C19.935 14.9567 19.9877 14.9241 20.0404 14.889C20.0554 14.8789 20.0705 14.8689 20.0855 14.8614C20.1206 14.8388 20.1582 14.8162 20.1959 14.7911C20.2134 14.7811 20.2335 14.7686 20.2511 14.7585C20.2937 14.7309 20.3388 14.7033 20.3815 14.6783C20.394 14.6707 20.4091 14.6632 20.4216 14.6532C20.4768 14.6206 20.532 14.588 20.5872 14.5553C20.6424 14.5227 20.7 14.4901 20.7552 14.4575C20.7602 14.455 20.7678 14.45 20.7728 14.4475C20.8204 14.4199 20.8681 14.3923 20.9132 14.3672C20.996 14.3196 21.0813 14.2744 21.1641 14.2293C21.2067 14.2067 21.2469 14.1841 21.2895 14.1615C21.3572 14.1264 21.4249 14.0913 21.4927 14.0562C21.5228 14.0411 21.5554 14.0236 21.5855 14.0085C21.6131 13.9935 21.6432 13.9784 21.6733 13.9634C21.7184 13.9408 21.7611 13.9182 21.8062 13.8957C21.8263 13.8856 21.8463 13.8756 21.8664 13.8656C21.899 13.8505 21.9316 13.833 21.9642 13.8179C21.9943 13.8029 22.0244 13.7903 22.0545 13.7753C22.1047 13.7502 22.1574 13.7276 22.2075 13.705C22.2502 13.685 22.2953 13.6649 22.338 13.6448C22.358 13.6348 22.3806 13.6248 22.4032 13.6147C22.4383 13.5997 22.4709 13.5846 22.506 13.5696C22.5136 13.5671 22.5211 13.5621 22.5286 13.5595C22.5512 13.5495 22.5738 13.5395 22.5963 13.5294C22.6365 13.5119 22.6791 13.4943 22.7217 13.4768C22.7318 13.4718 22.7393 13.4692 22.7493 13.4642C22.7995 13.4442 22.8497 13.4216 22.8998 13.4015C23.0328 13.3463 23.1682 13.2912 23.3037 13.241C23.3513 13.2234 23.399 13.2059 23.4441 13.1858C23.5169 13.1582 23.5896 13.1306 23.6649 13.1055C23.7175 13.0855 23.7702 13.0679 23.8254 13.0479C23.8806 13.0278 23.9383 13.0077 23.9935 12.9902C24.016 12.9826 24.0386 12.9751 24.0612 12.9676C24.1038 12.9525 24.1465 12.94 24.1866 12.9249C24.2042 12.9199 24.2242 12.9124 24.2418 12.9074C24.2919 12.8923 24.3421 12.8748 24.3923 12.8597C24.3948 12.8597 24.3973 12.8572 24.4023 12.8572C24.46 12.8397 24.5177 12.8196 24.5779 12.802C24.5829 12.7995 24.5904 12.7995 24.5955 12.797C24.6281 12.787 24.6632 12.777 24.6958 12.7669C24.7284 12.7569 24.7635 12.7469 24.7961 12.7368C24.8287 12.7268 24.8638 12.7168 24.899 12.7067C24.9341 12.6967 24.9667 12.6867 25.0018 12.6791C25.0695 12.6591 25.1372 12.6415 25.2075 12.6239C25.2301 12.6189 25.2501 12.6114 25.2727 12.6064C25.3003 12.5989 25.3279 12.5913 25.3555 12.5838C25.4081 12.5688 25.4633 12.5562 25.516 12.5437C25.5486 12.5362 25.5812 12.5286 25.6138 12.5211C25.7894 12.4785 25.9625 12.4383 26.1406 12.4007C26.1757 12.3932 26.2108 12.3857 26.2459 12.3781C26.2886 12.3681 26.3337 12.3606 26.3764 12.3531C26.4014 12.348 26.429 12.343 26.4541 12.338C26.567 12.3154 26.6799 12.2954 26.7927 12.2753C26.8178 12.2703 26.8454 12.2653 26.8705 12.2628C26.9232 12.2527 26.9758 12.2452 27.0285 12.2377C27.0611 12.2327 27.0962 12.2276 27.1288 12.2226C27.1514 12.2201 27.174 12.2151 27.1966 12.2126C27.2267 12.2076 27.2593 12.2026 27.2894 12.2C27.4349 12.1775 27.5829 12.1599 27.7308 12.1398C28.4708 12.0495 29.2258 12.0044 29.9908 12.0044C30.7458 12.0044 31.4933 12.0495 32.2257 12.1373C32.3336 12.1499 32.4415 12.1649 32.5493 12.18C32.5844 12.185 32.6196 12.19 32.6572 12.195C32.6898 12.2 32.7224 12.2051 32.7575 12.2101C32.7926 12.2151 32.8277 12.2201 32.8629 12.2251C32.8879 12.2276 32.913 12.2327 32.9406 12.2377C32.9958 12.2452 33.051 12.2552 33.1037 12.2653C33.1338 12.2703 33.1613 12.2753 33.1914 12.2803C33.2266 12.2853 33.2617 12.2929 33.2968 12.2979C33.362 12.3104 33.4247 12.3204 33.4899 12.333C33.525 12.3405 33.5602 12.3455 33.5928 12.3531C33.7433 12.3831 33.8938 12.4132 34.0418 12.4484C34.2123 12.486 34.3804 12.5261 34.5484 12.5688C34.5836 12.5763 34.6162 12.5863 34.6513 12.5964C34.6864 12.6039 34.719 12.6139 34.7541 12.6239C34.7943 12.634 34.8319 12.644 34.8695 12.654C34.8996 12.6616 34.9297 12.6716 34.9573 12.6791C35.0927 12.7168 35.2282 12.7569 35.3636 12.797C35.3937 12.8071 35.4264 12.8171 35.459 12.8246C35.4815 12.8321 35.5041 12.8397 35.5267 12.8447C35.5568 12.8547 35.5894 12.8647 35.622 12.8748C35.7625 12.9199 35.9029 12.9651 36.0409 13.0127C36.066 13.0203 36.0911 13.0303 36.1161 13.0378C36.1337 13.0428 36.1513 13.0504 36.1688 13.0579C36.2014 13.0704 36.234 13.0805 36.2691 13.093C36.2892 13.1005 36.3093 13.1081 36.3293 13.1156C36.3544 13.1256 36.382 13.1356 36.4071 13.1432C36.4397 13.1557 36.4723 13.1683 36.5049 13.1783C36.525 13.1858 36.5451 13.1933 36.5626 13.2009C36.5927 13.2134 36.6253 13.2234 36.6554 13.236C36.8536 13.3112 37.0492 13.3915 37.2424 13.4743C37.2649 13.4843 37.2875 13.4943 37.3101 13.5044C37.3527 13.5219 37.3929 13.5395 37.4355 13.5595C37.4631 13.5721 37.4907 13.5846 37.5158 13.5947C37.5534 13.6097 37.5885 13.6273 37.6261 13.6448C37.6562 13.6574 37.6863 13.6724 37.7164 13.6875C37.7491 13.7025 37.7817 13.7176 37.8143 13.7326C37.8444 13.7477 37.8745 13.7602 37.9071 13.7753C37.9397 13.7903 37.9723 13.8054 38.0049 13.8204C38.035 13.8355 38.0676 13.8505 38.0977 13.8656C38.1604 13.8957 38.2231 13.9258 38.2858 13.9584C38.3811 14.006 38.4765 14.0562 38.5718 14.1039C38.6044 14.1214 38.6345 14.1365 38.6671 14.154C38.7248 14.1841 38.7825 14.2142 38.8402 14.2468C38.9004 14.2794 38.9631 14.3146 39.0233 14.3472C39.0785 14.3773 39.1311 14.4074 39.1863 14.4375C39.1989 14.445 39.2114 14.4525 39.2239 14.46C39.397 14.5604 39.5676 14.6607 39.7381 14.766C39.7407 14.766 39.7407 14.7686 39.7432 14.7686C39.8585 14.8413 39.9739 14.914 40.0893 14.9893C40.0893 14.9893 40.0918 14.9918 40.0943 14.9918C40.1445 15.0244 40.1947 15.057 40.2448 15.0896C40.2574 15.0971 40.2674 15.1047 40.2799 15.1122C40.3326 15.1473 40.3853 15.1824 40.4355 15.2175C40.4931 15.2552 40.5483 15.2953 40.606 15.3354C40.6562 15.3706 40.7038 15.4057 40.754 15.4383C40.7691 15.4483 40.7866 15.4609 40.8017 15.4734C40.8343 15.4985 40.8694 15.5211 40.902 15.5461C40.9221 15.5612 40.9396 15.5737 40.9597 15.5888C41.0099 15.6264 41.0575 15.6615 41.1077 15.6991C41.1553 15.7343 41.2005 15.7694 41.2456 15.8045C41.2607 15.8145 41.2732 15.8271 41.2883 15.8371C41.4413 15.955 41.5918 16.0729 41.7423 16.1958C41.7523 16.2058 41.7649 16.2133 41.7749 16.2234C41.8226 16.2635 41.8702 16.3011 41.9154 16.3413C42.0207 16.4291 42.1236 16.5169 42.2264 16.6072C42.2289 16.6097 42.2289 16.6097 42.2314 16.6122C42.2816 16.6573 42.3317 16.7025 42.3844 16.7476C42.4346 16.7928 42.4873 16.8404 42.5374 16.8856C42.5851 16.9307 42.6352 16.9734 42.6829 17.0185C42.6879 17.0235 42.6929 17.026 42.698 17.0311C42.7406 17.0712 42.7832 17.1113 42.8284 17.154C42.8359 17.159 42.8409 17.1665 42.8485 17.174C42.8961 17.2192 42.9438 17.2643 42.9889 17.312C43.0391 17.3596 43.0867 17.4073 43.1344 17.4575C43.1821 17.5051 43.2322 17.5553 43.2799 17.603C43.3275 17.6531 43.3752 17.7008 43.4229 17.7509C43.4705 17.8011 43.5182 17.8513 43.5658 17.9014C43.611 17.9491 43.6561 17.9968 43.6988 18.0469C43.7013 18.0494 43.7038 18.0544 43.7088 18.057C43.7514 18.1046 43.7941 18.1523 43.8367 18.1974C43.8618 18.225 43.8869 18.2551 43.912 18.2827C43.9346 18.3078 43.9571 18.3329 43.9772 18.358C43.9797 18.3605 43.9822 18.363 43.9847 18.3655C44.0499 18.4407 44.1152 18.5185 44.1804 18.5937C44.2255 18.6464 44.2682 18.6991 44.3133 18.7518C44.3334 18.7768 44.3534 18.7994 44.3735 18.8245C44.3785 18.8295 44.3835 18.8345 44.3861 18.8396C44.4237 18.8847 44.4613 18.9324 44.4964 18.9775C44.5215 19.0076 44.5466 19.0402 44.5717 19.0728C44.6143 19.128 44.6569 19.1807 44.6996 19.2359C44.7849 19.3437 44.8676 19.4541 44.9479 19.567C44.988 19.6196 45.0257 19.6723 45.0633 19.725C45.0658 19.73 45.0708 19.735 45.0733 19.7375C45.0934 19.7626 45.111 19.7902 45.131 19.8178C45.1686 19.868 45.2038 19.9206 45.2389 19.9708C45.3016 20.0611 45.3643 20.1514 45.427 20.2442C45.4471 20.2718 45.4646 20.3019 45.4847 20.3295C45.5424 20.4148 45.5976 20.5026 45.6553 20.5904C45.6753 20.6205 45.6929 20.6506 45.7129 20.6807C45.7581 20.7509 45.8007 20.8211 45.8434 20.8939C45.866 20.929 45.886 20.9641 45.9086 21.0017C45.9688 21.102 46.029 21.2024 46.0867 21.3027C46.1042 21.3303 46.1193 21.3604 46.1369 21.388C46.1619 21.4331 46.187 21.4758 46.2121 21.5209C46.2322 21.5561 46.2522 21.5912 46.2698 21.6263C46.2949 21.6689 46.3175 21.7116 46.34 21.7542C46.3425 21.7567 46.3425 21.7592 46.345 21.7617C46.3676 21.8019 46.3877 21.842 46.4103 21.8821C46.4905 22.0326 46.5658 22.1831 46.641 22.3336C46.6586 22.3687 46.6761 22.4064 46.6937 22.4415C46.6987 22.4515 46.7012 22.459 46.7062 22.4691C46.7288 22.5142 46.7489 22.5569 46.7689 22.5995C46.7915 22.6472 46.8141 22.6948 46.8367 22.7425C46.8517 22.7726 46.8668 22.8052 46.8793 22.8353C46.8843 22.8478 46.8893 22.8579 46.8969 22.8704C46.9069 22.893 46.9169 22.9156 46.927 22.9381C46.9395 22.9682 46.9546 22.9983 46.9671 23.0284C46.9897 23.0761 47.0097 23.1238 47.0298 23.1714C47.0499 23.2191 47.0699 23.2667 47.09 23.3119C47.1126 23.3645 47.1352 23.4172 47.1577 23.4724C47.1753 23.5176 47.1954 23.5627 47.2129 23.6079C47.2305 23.6505 47.248 23.6931 47.2631 23.7358C47.2656 23.7458 47.2706 23.7533 47.2731 23.7634C47.2907 23.8085 47.3107 23.8562 47.3283 23.9013C47.3434 23.944 47.3609 23.9866 47.376 24.0293C47.381 24.0418 47.386 24.0543 47.391 24.0669C47.4061 24.1095 47.4236 24.1547 47.4387 24.1973C47.4562 24.2475 47.4738 24.2976 47.4913 24.3453C47.524 24.4381 47.5566 24.5284 47.5867 24.6212C47.6067 24.6789 47.6243 24.7366 47.6444 24.7968C47.6569 24.8394 47.6719 24.8821 47.6845 24.9222C47.687 24.9297 47.6895 24.9398 47.692 24.9473C47.7221 25.0401 47.7497 25.1304 47.7773 25.2232C47.7823 25.2358 47.7848 25.2508 47.7898 25.2633L47.8224 25.3762C47.8425 25.4439 47.8601 25.5092 47.8801 25.5769C47.8927 25.622 47.9052 25.6672 47.9178 25.7123C47.9328 25.765 47.9453 25.8152 47.9579 25.8678C47.9704 25.9205 47.9855 25.9707 47.998 26.0234C48.0081 26.066 48.0181 26.1061 48.0281 26.1463C48.0432 26.209 48.0582 26.2717 48.0733 26.3344C48.0833 26.3745 48.0933 26.4172 48.1009 26.4573C48.1034 26.4673 48.1059 26.4799 48.1084 26.4899C48.1184 26.5351 48.1285 26.5827 48.1385 26.6279C48.1535 26.6956 48.1661 26.7608 48.1811 26.8285C48.1912 26.8737 48.1987 26.9188 48.2087 26.964C48.2213 27.0217 48.2313 27.0769 48.2413 27.1345C48.2514 27.1847 48.2589 27.2324 48.2689 27.2825C48.279 27.3352 48.2865 27.3879 48.2965 27.4406C48.2965 27.4431 48.2965 27.4456 48.2965 27.4456C48.3065 27.4982 48.3141 27.5509 48.3216 27.6011C48.3216 27.6061 48.3241 27.6111 48.3241 27.6136C48.3316 27.6638 48.3392 27.7115 48.3467 27.7616C48.3542 27.8143 48.3617 27.8695 48.3693 27.9222C48.3793 27.9849 48.3868 28.0476 48.3943 28.1103C48.3994 28.1454 48.4044 28.183 48.4094 28.2181C48.4194 28.2909 48.4269 28.3611 48.4345 28.4338C48.4395 28.479 48.4445 28.5267 48.4495 28.5718C48.4495 28.5743 48.4495 28.5768 48.4495 28.5818C48.4545 28.6295 48.4596 28.6746 48.4646 28.7223C48.4646 28.7323 48.4671 28.7424 48.4671 28.7549C48.4696 28.785 48.4721 28.8176 48.4746 28.8477C48.4771 28.8678 48.4771 28.8879 48.4796 28.9079C48.4821 28.9455 48.4846 28.9807 48.4897 29.0158C48.4922 29.0434 48.4947 29.0685 48.4947 29.0935C48.4972 29.1387 48.5022 29.1813 48.5047 29.2265C48.5072 29.2666 48.5097 29.3067 48.5122 29.3494C48.5147 29.377 48.5147 29.4021 48.5172 29.4297C48.5223 29.5099 48.5273 29.5902 48.5298 29.673C48.5298 29.678 48.5298 29.6805 48.5298 29.683C48.5323 29.7056 48.5323 29.7281 48.5323 29.7507C48.5348 29.7833 48.5348 29.8159 48.5373 29.851C48.5373 29.8786 48.5398 29.9062 48.5398 29.9338C48.5398 29.9664 48.5423 29.999 48.5423 30.0291C48.5423 30.0542 48.5423 30.0793 48.5448 30.1019C48.5448 30.1445 48.5473 30.1897 48.5473 30.2323C48.5473 30.285 48.5499 30.3352 48.5499 30.3878V30.3903C48.5624 30.438 48.5624 30.4932 48.5624 30.5484Z"/>
</mask>
<path d="M48.5624 30.5484C48.5624 31.1955 48.5298 31.8376 48.4646 32.4697C48.2213 34.8376 47.534 37.4262 46.4855 39.9746C45.8384 41.5473 45.0558 43.105 44.1553 44.5849C43.7013 44.768 43.2021 44.8708 42.6804 44.8708C42.5148 44.8708 42.3493 44.8608 42.1888 44.8407C39.9639 50.1182 36.1086 53.8255 31.6263 54.5304C31.102 54.6081 30.5703 54.6507 30.036 54.6533C24.8262 54.6382 20.2761 50.5898 17.8255 44.5698C16.8222 44.5523 15.9117 44.1585 15.2269 43.5239C14.7804 42.7262 14.3691 41.911 13.9953 41.0858C12.6785 38.1862 11.8156 35.1837 11.5372 32.4722C11.472 31.8401 11.4393 31.198 11.4393 30.5484C11.4393 30.4932 11.4393 30.4405 11.4393 30.3853V30.3703C11.4393 30.3301 11.4393 30.29 11.4419 30.2499C11.4419 30.2373 11.4419 30.2273 11.4419 30.2148C11.4419 30.1872 11.4419 30.1596 11.4444 30.132C11.4444 30.1169 11.4444 30.1019 11.4444 30.0868C11.4444 30.0643 11.4444 30.0417 11.4469 30.0191C11.4494 29.974 11.4494 29.9288 11.4519 29.8862C11.4519 29.8786 11.4519 29.8711 11.4519 29.8636C11.4569 29.7532 11.4619 29.6429 11.4669 29.535C11.4694 29.4873 11.472 29.4372 11.4745 29.3895C11.4745 29.372 11.477 29.3544 11.477 29.3368C11.4795 29.2917 11.482 29.2465 11.487 29.2014C11.4895 29.1562 11.4945 29.1111 11.497 29.0659C11.4995 29.0459 11.4995 29.0283 11.5021 29.0108C11.5046 28.9656 11.5096 28.923 11.5121 28.8803C11.5121 28.8678 11.5146 28.8552 11.5146 28.8427C11.5221 28.7449 11.5322 28.6471 11.5422 28.5517C11.5547 28.4313 11.5698 28.3084 11.5848 28.188C11.5898 28.1404 11.5974 28.0902 11.6049 28.0426C11.6049 28.04 11.6049 28.04 11.6049 28.0375C11.6124 27.9899 11.6174 27.9422 11.625 27.8946C11.635 27.8218 11.6475 27.7466 11.6576 27.6738C11.6626 27.6337 11.6701 27.5961 11.6751 27.5559C11.6751 27.5534 11.6751 27.5484 11.6776 27.5459C11.6852 27.4957 11.6927 27.4456 11.7027 27.3979C11.7027 27.3929 11.7052 27.3904 11.7052 27.3854C11.7153 27.3327 11.7228 27.28 11.7328 27.2274C11.7429 27.1722 11.7529 27.1195 11.7629 27.0668C11.773 27.0192 11.7805 26.9715 11.7905 26.9238C11.793 26.9138 11.793 26.9038 11.7955 26.8963C11.8156 26.7984 11.8357 26.6981 11.8557 26.6003C11.8582 26.5852 11.8607 26.5727 11.8658 26.5576C11.8758 26.5125 11.8858 26.4698 11.8959 26.4247C11.9084 26.372 11.9209 26.3193 11.9335 26.2667C11.946 26.214 11.9586 26.1613 11.9711 26.1086C11.9811 26.0635 11.9937 26.0183 12.0037 25.9757C12.0188 25.913 12.0363 25.8478 12.0539 25.7851C12.0815 25.6847 12.1066 25.5869 12.1341 25.4866C12.1367 25.4816 12.1367 25.4791 12.1367 25.4765C12.1517 25.4264 12.1642 25.3762 12.1793 25.326C12.1918 25.2859 12.2044 25.2458 12.2144 25.2057C12.2219 25.1831 12.227 25.163 12.2345 25.1404C12.247 25.1003 12.2596 25.0577 12.2721 25.0175C12.2872 24.9699 12.3022 24.9247 12.3173 24.8771C12.3524 24.7692 12.3875 24.6588 12.4251 24.551C12.4377 24.5134 12.4502 24.4757 12.4627 24.4381C12.4703 24.418 12.4778 24.398 12.4828 24.3779C12.4979 24.3378 12.5104 24.2976 12.5254 24.26C12.5455 24.2073 12.5631 24.1547 12.5831 24.102C12.6007 24.0543 12.6183 24.0067 12.6358 23.959C12.6759 23.8562 12.7136 23.7533 12.7562 23.653C12.7763 23.6028 12.7963 23.5552 12.8164 23.505V23.5025C12.834 23.4574 12.8515 23.4147 12.8716 23.3721C12.8766 23.362 12.8791 23.3545 12.8841 23.3445C12.9042 23.2993 12.9218 23.2542 12.9418 23.209C12.9619 23.1614 12.9845 23.1112 13.007 23.0635C13.007 23.061 13.0096 23.061 13.0096 23.0585C13.0296 23.0109 13.0522 22.9632 13.0723 22.9181C13.1149 22.8253 13.1575 22.735 13.2002 22.6422C13.2052 22.6346 13.2077 22.6246 13.2127 22.6171C13.2554 22.5243 13.3005 22.4315 13.3457 22.3412C13.3682 22.2935 13.3933 22.2458 13.4159 22.1982C13.4661 22.1004 13.5162 22.0025 13.5664 21.9072C13.589 21.8621 13.6141 21.8194 13.6366 21.7768C13.6617 21.7291 13.6868 21.684 13.7119 21.6363C13.737 21.5912 13.762 21.5435 13.7896 21.4984C13.7921 21.4908 13.7972 21.4858 13.7997 21.4783C13.8222 21.4382 13.8448 21.398 13.8674 21.3604C13.8925 21.3153 13.9201 21.2676 13.9477 21.2224C13.9677 21.1873 13.9878 21.1522 14.0079 21.1196C14.0179 21.0995 14.0304 21.082 14.0405 21.0644C14.063 21.0293 14.0831 20.9917 14.1057 20.9566C14.1333 20.9089 14.1634 20.8638 14.191 20.8161C14.2186 20.7735 14.2436 20.7308 14.2712 20.6882C14.2737 20.6857 14.2737 20.6832 14.2762 20.6807C14.3013 20.638 14.3289 20.5979 14.354 20.5577C14.3891 20.5026 14.4242 20.4474 14.4619 20.3922C14.4844 20.3596 14.5045 20.327 14.5271 20.2919C14.6174 20.1589 14.7077 20.026 14.8005 19.893C14.8306 19.8504 14.8607 19.8078 14.8933 19.7651C14.9209 19.7275 14.946 19.6924 14.9736 19.6548C14.9786 19.6497 14.9836 19.6422 14.9861 19.6372C15.0162 19.5971 15.0463 19.5544 15.0764 19.5143C15.109 19.4691 15.1416 19.424 15.1767 19.3813C15.2043 19.3462 15.2319 19.3111 15.2595 19.2735C15.2971 19.2258 15.3348 19.1782 15.3724 19.128C15.405 19.0879 15.4351 19.0477 15.4677 19.0076C15.4702 19.0051 15.4727 19.0001 15.4752 18.9976C15.5053 18.9599 15.5329 18.9248 15.563 18.8872C15.5655 18.8847 15.568 18.8822 15.5705 18.8797C15.6006 18.8446 15.6282 18.8069 15.6583 18.7718C15.6884 18.7367 15.7185 18.6991 15.7461 18.664C15.7637 18.6439 15.7787 18.6238 15.7963 18.6038C15.7963 18.6013 15.7988 18.5988 15.8013 18.5988C15.8465 18.5461 15.8891 18.4934 15.9342 18.4432C15.9468 18.4282 15.9593 18.4131 15.9719 18.4006C16.0045 18.363 16.0371 18.3253 16.0697 18.2877C16.0722 18.2852 16.0722 18.2852 16.0722 18.2827C16.1023 18.2476 16.1349 18.2125 16.1675 18.1774C16.1801 18.1623 16.1926 18.1473 16.2077 18.1347C16.2327 18.1071 16.2603 18.077 16.2854 18.0494C16.323 18.0093 16.3607 17.9692 16.3983 17.929C16.4209 17.9065 16.4409 17.8814 16.4635 17.8588C16.4836 17.8362 16.5061 17.8137 16.5287 17.7911C16.5463 17.7735 16.5638 17.756 16.5814 17.7359C16.609 17.7058 16.6391 17.6757 16.6692 17.6456C16.6867 17.628 16.7043 17.6105 16.7219 17.5904C16.7595 17.5528 16.7971 17.5152 16.8322 17.4775C16.8523 17.4575 16.8724 17.4349 16.8949 17.4148C16.9225 17.3872 16.9501 17.3596 16.9777 17.3346C16.9902 17.322 17.0028 17.3095 17.0128 17.2994C17.0404 17.2719 17.068 17.2468 17.0931 17.2192C17.1182 17.1941 17.1433 17.1715 17.1683 17.1464C17.2135 17.1038 17.2586 17.0612 17.3038 17.0185C17.3464 16.9784 17.3891 16.9382 17.4317 16.8981C17.4392 16.8931 17.4442 16.8856 17.4518 16.8806C17.4894 16.8454 17.527 16.8103 17.5646 16.7777C17.5822 16.7602 17.6023 16.7451 17.6198 16.7275C17.7026 16.6523 17.7879 16.5796 17.8732 16.5068C17.8957 16.4868 17.9208 16.4667 17.9434 16.4466C17.9685 16.424 17.9936 16.4015 18.0212 16.3814C18.0462 16.3588 18.0738 16.3363 18.0989 16.3137C18.1967 16.2309 18.2946 16.1506 18.3949 16.0729C18.4375 16.0403 18.4802 16.0052 18.5203 15.9725C18.5329 15.9625 18.5429 15.955 18.5554 15.945C18.6031 15.9073 18.6533 15.8697 18.7034 15.8321C18.7385 15.8045 18.7737 15.7769 18.8088 15.7518C18.8213 15.7418 18.8364 15.7317 18.8489 15.7217C18.874 15.7016 18.8991 15.6841 18.9242 15.664C18.9543 15.6414 18.9844 15.6189 19.0145 15.5963C19.0245 15.5888 19.0345 15.5812 19.0471 15.5737C19.0922 15.5386 19.1399 15.506 19.185 15.4734C19.1925 15.4684 19.1976 15.4634 19.2051 15.4583C19.2553 15.4207 19.3079 15.3856 19.3581 15.348C19.4058 15.3154 19.4509 15.2828 19.4986 15.2502C19.5312 15.2276 19.5638 15.205 19.5964 15.1824C19.6114 15.1724 19.6265 15.1624 19.6415 15.1523C19.6766 15.1298 19.7093 15.1072 19.7444 15.0821C19.7895 15.052 19.8372 15.0219 19.8823 14.9918C19.935 14.9567 19.9877 14.9241 20.0404 14.889C20.0554 14.8789 20.0705 14.8689 20.0855 14.8614C20.1206 14.8388 20.1582 14.8162 20.1959 14.7911C20.2134 14.7811 20.2335 14.7686 20.2511 14.7585C20.2937 14.7309 20.3388 14.7033 20.3815 14.6783C20.394 14.6707 20.4091 14.6632 20.4216 14.6532C20.4768 14.6206 20.532 14.588 20.5872 14.5553C20.6424 14.5227 20.7 14.4901 20.7552 14.4575C20.7602 14.455 20.7678 14.45 20.7728 14.4475C20.8204 14.4199 20.8681 14.3923 20.9132 14.3672C20.996 14.3196 21.0813 14.2744 21.1641 14.2293C21.2067 14.2067 21.2469 14.1841 21.2895 14.1615C21.3572 14.1264 21.4249 14.0913 21.4927 14.0562C21.5228 14.0411 21.5554 14.0236 21.5855 14.0085C21.6131 13.9935 21.6432 13.9784 21.6733 13.9634C21.7184 13.9408 21.7611 13.9182 21.8062 13.8957C21.8263 13.8856 21.8463 13.8756 21.8664 13.8656C21.899 13.8505 21.9316 13.833 21.9642 13.8179C21.9943 13.8029 22.0244 13.7903 22.0545 13.7753C22.1047 13.7502 22.1574 13.7276 22.2075 13.705C22.2502 13.685 22.2953 13.6649 22.338 13.6448C22.358 13.6348 22.3806 13.6248 22.4032 13.6147C22.4383 13.5997 22.4709 13.5846 22.506 13.5696C22.5136 13.5671 22.5211 13.5621 22.5286 13.5595C22.5512 13.5495 22.5738 13.5395 22.5963 13.5294C22.6365 13.5119 22.6791 13.4943 22.7217 13.4768C22.7318 13.4718 22.7393 13.4692 22.7493 13.4642C22.7995 13.4442 22.8497 13.4216 22.8998 13.4015C23.0328 13.3463 23.1682 13.2912 23.3037 13.241C23.3513 13.2234 23.399 13.2059 23.4441 13.1858C23.5169 13.1582 23.5896 13.1306 23.6649 13.1055C23.7175 13.0855 23.7702 13.0679 23.8254 13.0479C23.8806 13.0278 23.9383 13.0077 23.9935 12.9902C24.016 12.9826 24.0386 12.9751 24.0612 12.9676C24.1038 12.9525 24.1465 12.94 24.1866 12.9249C24.2042 12.9199 24.2242 12.9124 24.2418 12.9074C24.2919 12.8923 24.3421 12.8748 24.3923 12.8597C24.3948 12.8597 24.3973 12.8572 24.4023 12.8572C24.46 12.8397 24.5177 12.8196 24.5779 12.802C24.5829 12.7995 24.5904 12.7995 24.5955 12.797C24.6281 12.787 24.6632 12.777 24.6958 12.7669C24.7284 12.7569 24.7635 12.7469 24.7961 12.7368C24.8287 12.7268 24.8638 12.7168 24.899 12.7067C24.9341 12.6967 24.9667 12.6867 25.0018 12.6791C25.0695 12.6591 25.1372 12.6415 25.2075 12.6239C25.2301 12.6189 25.2501 12.6114 25.2727 12.6064C25.3003 12.5989 25.3279 12.5913 25.3555 12.5838C25.4081 12.5688 25.4633 12.5562 25.516 12.5437C25.5486 12.5362 25.5812 12.5286 25.6138 12.5211C25.7894 12.4785 25.9625 12.4383 26.1406 12.4007C26.1757 12.3932 26.2108 12.3857 26.2459 12.3781C26.2886 12.3681 26.3337 12.3606 26.3764 12.3531C26.4014 12.348 26.429 12.343 26.4541 12.338C26.567 12.3154 26.6799 12.2954 26.7927 12.2753C26.8178 12.2703 26.8454 12.2653 26.8705 12.2628C26.9232 12.2527 26.9758 12.2452 27.0285 12.2377C27.0611 12.2327 27.0962 12.2276 27.1288 12.2226C27.1514 12.2201 27.174 12.2151 27.1966 12.2126C27.2267 12.2076 27.2593 12.2026 27.2894 12.2C27.4349 12.1775 27.5829 12.1599 27.7308 12.1398C28.4708 12.0495 29.2258 12.0044 29.9908 12.0044C30.7458 12.0044 31.4933 12.0495 32.2257 12.1373C32.3336 12.1499 32.4415 12.1649 32.5493 12.18C32.5844 12.185 32.6196 12.19 32.6572 12.195C32.6898 12.2 32.7224 12.2051 32.7575 12.2101C32.7926 12.2151 32.8277 12.2201 32.8629 12.2251C32.8879 12.2276 32.913 12.2327 32.9406 12.2377C32.9958 12.2452 33.051 12.2552 33.1037 12.2653C33.1338 12.2703 33.1613 12.2753 33.1914 12.2803C33.2266 12.2853 33.2617 12.2929 33.2968 12.2979C33.362 12.3104 33.4247 12.3204 33.4899 12.333C33.525 12.3405 33.5602 12.3455 33.5928 12.3531C33.7433 12.3831 33.8938 12.4132 34.0418 12.4484C34.2123 12.486 34.3804 12.5261 34.5484 12.5688C34.5836 12.5763 34.6162 12.5863 34.6513 12.5964C34.6864 12.6039 34.719 12.6139 34.7541 12.6239C34.7943 12.634 34.8319 12.644 34.8695 12.654C34.8996 12.6616 34.9297 12.6716 34.9573 12.6791C35.0927 12.7168 35.2282 12.7569 35.3636 12.797C35.3937 12.8071 35.4264 12.8171 35.459 12.8246C35.4815 12.8321 35.5041 12.8397 35.5267 12.8447C35.5568 12.8547 35.5894 12.8647 35.622 12.8748C35.7625 12.9199 35.9029 12.9651 36.0409 13.0127C36.066 13.0203 36.0911 13.0303 36.1161 13.0378C36.1337 13.0428 36.1513 13.0504 36.1688 13.0579C36.2014 13.0704 36.234 13.0805 36.2691 13.093C36.2892 13.1005 36.3093 13.1081 36.3293 13.1156C36.3544 13.1256 36.382 13.1356 36.4071 13.1432C36.4397 13.1557 36.4723 13.1683 36.5049 13.1783C36.525 13.1858 36.5451 13.1933 36.5626 13.2009C36.5927 13.2134 36.6253 13.2234 36.6554 13.236C36.8536 13.3112 37.0492 13.3915 37.2424 13.4743C37.2649 13.4843 37.2875 13.4943 37.3101 13.5044C37.3527 13.5219 37.3929 13.5395 37.4355 13.5595C37.4631 13.5721 37.4907 13.5846 37.5158 13.5947C37.5534 13.6097 37.5885 13.6273 37.6261 13.6448C37.6562 13.6574 37.6863 13.6724 37.7164 13.6875C37.7491 13.7025 37.7817 13.7176 37.8143 13.7326C37.8444 13.7477 37.8745 13.7602 37.9071 13.7753C37.9397 13.7903 37.9723 13.8054 38.0049 13.8204C38.035 13.8355 38.0676 13.8505 38.0977 13.8656C38.1604 13.8957 38.2231 13.9258 38.2858 13.9584C38.3811 14.006 38.4765 14.0562 38.5718 14.1039C38.6044 14.1214 38.6345 14.1365 38.6671 14.154C38.7248 14.1841 38.7825 14.2142 38.8402 14.2468C38.9004 14.2794 38.9631 14.3146 39.0233 14.3472C39.0785 14.3773 39.1311 14.4074 39.1863 14.4375C39.1989 14.445 39.2114 14.4525 39.2239 14.46C39.397 14.5604 39.5676 14.6607 39.7381 14.766C39.7407 14.766 39.7407 14.7686 39.7432 14.7686C39.8585 14.8413 39.9739 14.914 40.0893 14.9893C40.0893 14.9893 40.0918 14.9918 40.0943 14.9918C40.1445 15.0244 40.1947 15.057 40.2448 15.0896C40.2574 15.0971 40.2674 15.1047 40.2799 15.1122C40.3326 15.1473 40.3853 15.1824 40.4355 15.2175C40.4931 15.2552 40.5483 15.2953 40.606 15.3354C40.6562 15.3706 40.7038 15.4057 40.754 15.4383C40.7691 15.4483 40.7866 15.4609 40.8017 15.4734C40.8343 15.4985 40.8694 15.5211 40.902 15.5461C40.9221 15.5612 40.9396 15.5737 40.9597 15.5888C41.0099 15.6264 41.0575 15.6615 41.1077 15.6991C41.1553 15.7343 41.2005 15.7694 41.2456 15.8045C41.2607 15.8145 41.2732 15.8271 41.2883 15.8371C41.4413 15.955 41.5918 16.0729 41.7423 16.1958C41.7523 16.2058 41.7649 16.2133 41.7749 16.2234C41.8226 16.2635 41.8702 16.3011 41.9154 16.3413C42.0207 16.4291 42.1236 16.5169 42.2264 16.6072C42.2289 16.6097 42.2289 16.6097 42.2314 16.6122C42.2816 16.6573 42.3317 16.7025 42.3844 16.7476C42.4346 16.7928 42.4873 16.8404 42.5374 16.8856C42.5851 16.9307 42.6352 16.9734 42.6829 17.0185C42.6879 17.0235 42.6929 17.026 42.698 17.0311C42.7406 17.0712 42.7832 17.1113 42.8284 17.154C42.8359 17.159 42.8409 17.1665 42.8485 17.174C42.8961 17.2192 42.9438 17.2643 42.9889 17.312C43.0391 17.3596 43.0867 17.4073 43.1344 17.4575C43.1821 17.5051 43.2322 17.5553 43.2799 17.603C43.3275 17.6531 43.3752 17.7008 43.4229 17.7509C43.4705 17.8011 43.5182 17.8513 43.5658 17.9014C43.611 17.9491 43.6561 17.9968 43.6988 18.0469C43.7013 18.0494 43.7038 18.0544 43.7088 18.057C43.7514 18.1046 43.7941 18.1523 43.8367 18.1974C43.8618 18.225 43.8869 18.2551 43.912 18.2827C43.9346 18.3078 43.9571 18.3329 43.9772 18.358C43.9797 18.3605 43.9822 18.363 43.9847 18.3655C44.0499 18.4407 44.1152 18.5185 44.1804 18.5937C44.2255 18.6464 44.2682 18.6991 44.3133 18.7518C44.3334 18.7768 44.3534 18.7994 44.3735 18.8245C44.3785 18.8295 44.3835 18.8345 44.3861 18.8396C44.4237 18.8847 44.4613 18.9324 44.4964 18.9775C44.5215 19.0076 44.5466 19.0402 44.5717 19.0728C44.6143 19.128 44.6569 19.1807 44.6996 19.2359C44.7849 19.3437 44.8676 19.4541 44.9479 19.567C44.988 19.6196 45.0257 19.6723 45.0633 19.725C45.0658 19.73 45.0708 19.735 45.0733 19.7375C45.0934 19.7626 45.111 19.7902 45.131 19.8178C45.1686 19.868 45.2038 19.9206 45.2389 19.9708C45.3016 20.0611 45.3643 20.1514 45.427 20.2442C45.4471 20.2718 45.4646 20.3019 45.4847 20.3295C45.5424 20.4148 45.5976 20.5026 45.6553 20.5904C45.6753 20.6205 45.6929 20.6506 45.7129 20.6807C45.7581 20.7509 45.8007 20.8211 45.8434 20.8939C45.866 20.929 45.886 20.9641 45.9086 21.0017C45.9688 21.102 46.029 21.2024 46.0867 21.3027C46.1042 21.3303 46.1193 21.3604 46.1369 21.388C46.1619 21.4331 46.187 21.4758 46.2121 21.5209C46.2322 21.5561 46.2522 21.5912 46.2698 21.6263C46.2949 21.6689 46.3175 21.7116 46.34 21.7542C46.3425 21.7567 46.3425 21.7592 46.345 21.7617C46.3676 21.8019 46.3877 21.842 46.4103 21.8821C46.4905 22.0326 46.5658 22.1831 46.641 22.3336C46.6586 22.3687 46.6761 22.4064 46.6937 22.4415C46.6987 22.4515 46.7012 22.459 46.7062 22.4691C46.7288 22.5142 46.7489 22.5569 46.7689 22.5995C46.7915 22.6472 46.8141 22.6948 46.8367 22.7425C46.8517 22.7726 46.8668 22.8052 46.8793 22.8353C46.8843 22.8478 46.8893 22.8579 46.8969 22.8704C46.9069 22.893 46.9169 22.9156 46.927 22.9381C46.9395 22.9682 46.9546 22.9983 46.9671 23.0284C46.9897 23.0761 47.0097 23.1238 47.0298 23.1714C47.0499 23.2191 47.0699 23.2667 47.09 23.3119C47.1126 23.3645 47.1352 23.4172 47.1577 23.4724C47.1753 23.5176 47.1954 23.5627 47.2129 23.6079C47.2305 23.6505 47.248 23.6931 47.2631 23.7358C47.2656 23.7458 47.2706 23.7533 47.2731 23.7634C47.2907 23.8085 47.3107 23.8562 47.3283 23.9013C47.3434 23.944 47.3609 23.9866 47.376 24.0293C47.381 24.0418 47.386 24.0543 47.391 24.0669C47.4061 24.1095 47.4236 24.1547 47.4387 24.1973C47.4562 24.2475 47.4738 24.2976 47.4913 24.3453C47.524 24.4381 47.5566 24.5284 47.5867 24.6212C47.6067 24.6789 47.6243 24.7366 47.6444 24.7968C47.6569 24.8394 47.6719 24.8821 47.6845 24.9222C47.687 24.9297 47.6895 24.9398 47.692 24.9473C47.7221 25.0401 47.7497 25.1304 47.7773 25.2232C47.7823 25.2358 47.7848 25.2508 47.7898 25.2633L47.8224 25.3762C47.8425 25.4439 47.8601 25.5092 47.8801 25.5769C47.8927 25.622 47.9052 25.6672 47.9178 25.7123C47.9328 25.765 47.9453 25.8152 47.9579 25.8678C47.9704 25.9205 47.9855 25.9707 47.998 26.0234C48.0081 26.066 48.0181 26.1061 48.0281 26.1463C48.0432 26.209 48.0582 26.2717 48.0733 26.3344C48.0833 26.3745 48.0933 26.4172 48.1009 26.4573C48.1034 26.4673 48.1059 26.4799 48.1084 26.4899C48.1184 26.5351 48.1285 26.5827 48.1385 26.6279C48.1535 26.6956 48.1661 26.7608 48.1811 26.8285C48.1912 26.8737 48.1987 26.9188 48.2087 26.964C48.2213 27.0217 48.2313 27.0769 48.2413 27.1345C48.2514 27.1847 48.2589 27.2324 48.2689 27.2825C48.279 27.3352 48.2865 27.3879 48.2965 27.4406C48.2965 27.4431 48.2965 27.4456 48.2965 27.4456C48.3065 27.4982 48.3141 27.5509 48.3216 27.6011C48.3216 27.6061 48.3241 27.6111 48.3241 27.6136C48.3316 27.6638 48.3392 27.7115 48.3467 27.7616C48.3542 27.8143 48.3617 27.8695 48.3693 27.9222C48.3793 27.9849 48.3868 28.0476 48.3943 28.1103C48.3994 28.1454 48.4044 28.183 48.4094 28.2181C48.4194 28.2909 48.4269 28.3611 48.4345 28.4338C48.4395 28.479 48.4445 28.5267 48.4495 28.5718C48.4495 28.5743 48.4495 28.5768 48.4495 28.5818C48.4545 28.6295 48.4596 28.6746 48.4646 28.7223C48.4646 28.7323 48.4671 28.7424 48.4671 28.7549C48.4696 28.785 48.4721 28.8176 48.4746 28.8477C48.4771 28.8678 48.4771 28.8879 48.4796 28.9079C48.4821 28.9455 48.4846 28.9807 48.4897 29.0158C48.4922 29.0434 48.4947 29.0685 48.4947 29.0935C48.4972 29.1387 48.5022 29.1813 48.5047 29.2265C48.5072 29.2666 48.5097 29.3067 48.5122 29.3494C48.5147 29.377 48.5147 29.4021 48.5172 29.4297C48.5223 29.5099 48.5273 29.5902 48.5298 29.673C48.5298 29.678 48.5298 29.6805 48.5298 29.683C48.5323 29.7056 48.5323 29.7281 48.5323 29.7507C48.5348 29.7833 48.5348 29.8159 48.5373 29.851C48.5373 29.8786 48.5398 29.9062 48.5398 29.9338C48.5398 29.9664 48.5423 29.999 48.5423 30.0291C48.5423 30.0542 48.5423 30.0793 48.5448 30.1019C48.5448 30.1445 48.5473 30.1897 48.5473 30.2323C48.5473 30.285 48.5499 30.3352 48.5499 30.3878V30.3903C48.5624 30.438 48.5624 30.4932 48.5624 30.5484Z" fill="white" stroke="black" stroke-width="2" mask="url(#path-5-inside-1_1241_5840)"/>
<path d="M15.5671 43.157L15.5669 43.1568C14.9809 42.6145 14.5873 41.8694 14.4928 41.032C14.479 40.8983 14.4706 40.7716 14.4706 40.6467C14.4706 39.3431 15.2007 38.2067 16.2767 37.6281L16.2778 37.6275C16.7577 37.368 17.3082 37.2212 17.8961 37.2212L17.8967 37.2212C19.7899 37.219 21.3241 38.7533 21.3241 40.6442C21.3241 42.5352 19.7897 44.0697 17.8986 44.0697H17.8985H17.8983H17.8982H17.898H17.8979H17.8977H17.8976H17.8974H17.8973H17.8971H17.897H17.8969H17.8967H17.8966H17.8964H17.8963H17.8961H17.896H17.8958H17.8957H17.8955H17.8954H17.8953H17.8951H17.895H17.8948H17.8947H17.8945H17.8944H17.8942H17.8941H17.8939H17.8938H17.8937H17.8935H17.8934H17.8932H17.8931H17.8929H17.8928H17.8926H17.8925H17.8923H17.8922H17.8921H17.8919H17.8918H17.8916H17.8915H17.8913H17.8912H17.891H17.8909H17.8908H17.8906H17.8905H17.8903H17.8902H17.89H17.8899H17.8897H17.8896H17.8895H17.8893H17.8892H17.889H17.8889H17.8887H17.8886H17.8885H17.8883H17.8882H17.888H17.8879H17.8877H17.8876H17.8875H17.8873H17.8872H17.887H17.8869H17.8867H17.8866H17.8865H17.8863H17.8862H17.886H17.8859H17.8857H17.8856H17.8855H17.8853H17.8852H17.885H17.8849H17.8847H17.8846H17.8845H17.8843H17.8842H17.884H17.8839H17.8837H17.8836H17.8835H17.8833H17.8832H17.883H17.8829H17.8827H17.8826H17.8825H17.8823H17.8822H17.882H17.8819H17.8818H17.8816H17.8815H17.8813H17.8812H17.881H17.8809H17.8808H17.8806H17.8805H17.8803H17.8802H17.8801H17.8799H17.8798H17.8796H17.8795H17.8793H17.8792H17.8791H17.8789H17.8788H17.8786H17.8785H17.8784H17.8782H17.8781H17.8779H17.8778H17.8777H17.8775H17.8774H17.8772H17.8771H17.8769H17.8768H17.8767H17.8765H17.8764H17.8762H17.8761H17.876H17.8758H17.8757H17.8755H17.8754H17.8753H17.8751H17.875H17.8748H17.8747H17.8746H17.8744H17.8743H17.8741H17.874H17.8739H17.8737H17.8736H17.8734H17.8733H17.8732H17.873H17.8729H17.8727H17.8726H17.8725H17.8723H17.8722H17.872H17.8719H17.8718H17.8716H17.8715H17.8713H17.8712H17.8711H17.8709H17.8708H17.8706H17.8705H17.8704H17.8702H17.8701H17.8699H17.8698H17.8697H17.8695H17.8694H17.8692H17.8691H17.869H17.8688H17.8687H17.8685H17.8684H17.8683H17.8681H17.868H17.8678H17.8677H17.8676H17.8674H17.8673H17.8671H17.867H17.8669H17.8667H17.8666H17.8664H17.8663H17.8662H17.866H17.8659H17.8657H17.8656H17.8655H17.8653H17.8652H17.865H17.8649H17.8648H17.8646H17.8645H17.8643H17.8642H17.8641H17.8639H17.8638H17.8636H17.8635H17.8634H17.8632H17.8631H17.8629H17.8628H17.8627H17.8625H17.8624H17.8622H17.8621H17.862H17.8618H17.8617H17.8615H17.8614H17.8613H17.8611H17.861H17.8608H17.8607H17.8606H17.8604H17.8603H17.8602H17.86H17.8599H17.8597H17.8596H17.8595H17.8593H17.8592H17.859H17.8589H17.8588H17.8586H17.8585H17.8583H17.8582H17.8581H17.8579H17.8578H17.8576H17.8575H17.8574H17.8572H17.8571H17.8569H17.8568H17.8567H17.8565H17.8564H17.8562H17.8561H17.856H17.8558H17.8557H17.8555H17.8554H17.8553H17.8551H17.855H17.8548H17.8547H17.8546H17.8544H17.8543H17.8541H17.854H17.8539H17.8537H17.8536H17.8534H17.8533H17.8532H17.853H17.8529H17.8527H17.8526H17.8525H17.8523H17.8522H17.852H17.8519H17.8518H17.8516H17.8515H17.8513H17.8512H17.8511H17.8509H17.8508H17.8506H17.8505H17.8504H17.8502H17.8501H17.8499H17.8498H17.8497H17.8495H17.8494H17.8492H17.8491H17.8489H17.8488H17.8487H17.8485H17.8484H17.8482H17.8481H17.848H17.8478H17.8477H17.8475H17.8474H17.8473H17.8471H17.847H17.8468H17.8467H17.8466H17.8464H17.8463H17.8461H17.846H17.8458H17.8457H17.8456H17.8454H17.8453H17.8451H17.845H17.8449H17.8447H17.8446H17.8444H17.8443H17.8442H17.844H17.8439H17.8437H17.8436H17.8434H17.8433H17.8432H17.843H17.8429H17.8427H17.8426H17.8425H17.8423H17.8422H17.842H17.8419H17.8417H17.8416H17.8415H17.8413H17.8412H17.841H17.8409H17.8407H17.8406H17.8405H17.8403H17.8402H17.84H17.8399H17.8398H17.8396H17.8395H17.8393H17.8392H17.839H17.8389H17.8388H17.8386H17.8385H17.8383H17.8382H17.838H17.8379H17.8378H17.8376H17.8375H17.8373H17.8372H17.837H17.8369H17.8368H17.8366H17.8365H17.8363H17.8362H17.836H17.8359H17.8357H17.8356H17.8355H17.8353H17.8352H17.835H17.8349H17.8347H17.8346H17.8345H17.8343H17.8342H17.834H17.8339H17.8337H17.8336H17.8334H17.8333H17.8332H17.833H17.8329H17.8327H17.8326H17.8324H17.8323H17.8321H17.832H17.8319H17.8317H17.8316H17.8314H17.8313H17.8311H17.831H17.8308H17.8307H17.8305H17.8304H17.8304C16.9566 44.0534 16.1643 43.7105 15.5671 43.157Z" fill="white" stroke="black"/>
<path d="M43.8972 37.7429L43.8963 37.7425C43.5186 37.5985 43.1074 37.5195 42.6774 37.5195C40.7863 37.5195 39.2518 39.054 39.2518 40.945C39.2518 42.6911 40.5581 44.1319 42.2477 44.3443L43.8972 37.7429ZM43.8972 37.7429C44.9294 38.1343 45.7223 39.0147 45.9979 40.0977L45.9983 40.0993M43.8972 37.7429L45.9983 40.0993M45.9983 40.0993C46.0682 40.3701 46.1054 40.6517 46.1054 40.945C46.1054 42.3801 45.2219 43.6128 43.9652 44.1209M45.9983 40.0993L43.9652 44.1209M43.9652 44.1209C43.5689 44.2807 43.1331 44.3706 42.6774 44.3706C42.5318 44.3706 42.387 44.3617 42.2478 44.3443L43.9652 44.1209Z" fill="white" stroke="black"/>
<path d="M41.7277 44.6463L41.7277 44.6461C42.6655 42.4244 43.3085 39.9149 43.5797 37.2254C43.6733 36.2861 43.7226 35.3246 43.7226 34.3483C43.7226 33.7344 43.7029 33.1257 43.6635 32.5248L43.6634 32.5236C43.2112 25.354 40.1219 19.3468 35.8927 16.4396L35.8927 16.4395C34.7429 15.6489 33.5084 15.0871 32.2182 14.789L32.218 14.789C31.5174 14.6269 30.7976 14.5435 30.0632 14.5435C29.2799 14.5435 28.5124 14.641 27.7649 14.8249C26.5675 15.1207 25.4192 15.6444 24.3419 16.3674C20.0589 19.2421 16.9226 25.2818 16.4604 32.509L16.4604 32.5095C16.421 33.1156 16.4013 33.7268 16.4013 34.3483C16.4013 35.2948 16.4481 36.2242 16.5368 37.1364L41.7277 44.6463ZM41.7277 44.6463C39.5431 49.8282 35.801 53.3672 31.5488 54.0361M41.7277 44.6463L31.5488 54.0361M31.5488 54.0361C31.0588 54.1126 30.5654 54.1531 30.0632 54.1531H30.0631H30.0631H30.063H30.063H30.0629H30.0628H30.0628H30.0627H30.0627H30.0626H30.0626H30.0625H30.0624H30.0624H30.0623H30.0623H30.0622H30.0621H30.0621H30.062H30.062H30.0619H30.0618H30.0618H30.0617H30.0617H30.0616H30.0616H30.0615H30.0614H30.0614H30.0613H30.0613H30.0612H30.0611H30.0611H30.061H30.061H30.0609H30.0609H30.0608H30.0607H30.0607H30.0606H30.0606H30.0605H30.0604H30.0604H30.0603H30.0603H30.0602H30.0601H30.0601H30.06H30.06H30.0599H30.0599H30.0598H30.0597H30.0597H30.0596H30.0596H30.0595H30.0594H30.0594H30.0593H30.0593H30.0592H30.0592H30.0591H30.059H30.059H30.0589H30.0589H30.0588H30.0587H30.0587H30.0586H30.0586H30.0585H30.0584H30.0584H30.0583H30.0583H30.0582H30.0582H30.0581H30.058H30.058H30.0579H30.0579H30.0578H30.0577H30.0577H30.0576H30.0576H30.0575H30.0575H30.0574H30.0573H30.0573H30.0572H30.0572H30.0571H30.057H30.057H30.0569H30.0569H30.0568H30.0568H30.0567H30.0566H30.0566H30.0565H30.0565H30.0564H30.0564H30.0563H30.0562H30.0562H30.0561H30.0561H30.056H30.0559H30.0559H30.0558H30.0558H30.0557H30.0557H30.0556H30.0555H30.0555H30.0554H30.0554H30.0553H30.0553H30.0552H30.0551H30.0551H30.055H30.055H30.0549H30.0548H30.0548H30.0547H30.0547H30.0546H30.0546H30.0545H30.0544H30.0544H30.0543H30.0543H30.0542H30.0542H30.0541H30.054H30.054H30.0539H30.0539H30.0538H30.0538H30.0537H30.0536H30.0536H30.0535H30.0535H30.0534H30.0534H30.0533H30.0532H30.0532H30.0531H30.0531H30.053H30.053H30.0529H30.0528H30.0528H30.0527H30.0527H30.0526H30.0526H30.0525H30.0524H30.0524H30.0523H30.0523H30.0522H30.0522H30.0521H30.052H30.052H30.0519H30.0519H30.0518H30.0518H30.0517H30.0517H30.0516H30.0515H30.0515H30.0514H30.0514H30.0513H30.0513H30.0512H30.0511H30.0511H30.051H30.051H30.0509H30.0509H30.0508H30.0507H30.0507H30.0506H30.0506H30.0505H30.0505H30.0504H30.0504H30.0503H30.0502H30.0502H30.0501H30.0501H30.05H30.05H30.0499H30.0499H30.0498H30.0497H30.0497H30.0496H30.0496H30.0495H30.0495H30.0494H30.0494H30.0493H30.0492H30.0492H30.0491H30.0491H30.049H30.049H30.0489H30.0489H30.0488H30.0487H30.0487H30.0486H30.0486H30.0485H30.0485H30.0484H30.0484H30.0483H30.0482H30.0482H30.0481H30.0481H30.048H30.048H30.0479H30.0479H30.0478H30.0478H30.0477H30.0476H30.0476H30.0475H30.0475H30.0474H30.0474H30.0473H30.0473H30.0472H30.0472H30.0471H30.047H30.047H30.0469H30.0469H30.0468H30.0468H30.0467H30.0467H30.0466H30.0466H30.0465H30.0464H30.0464H30.0463H30.0463H30.0462H30.0462H30.0461H30.0461H30.046H30.046H30.0459H30.0459H30.0458H30.0457H30.0457H30.0456H30.0456H30.0455H30.0455H30.0454H30.0454H30.0453H30.0453H30.0452H30.0452H30.0451H30.0451H30.045H30.0449H30.0449H30.0448H30.0448H30.0447H30.0447H30.0446H30.0446H30.0445H30.0445H30.0444H30.0444H30.0443H30.0443H30.0442H30.0442H30.0441H30.0441H30.044H30.0439H30.0439H30.0438H30.0438H30.0437H30.0437H30.0436H30.0436H30.0435H30.0435H30.0434H30.0434H30.0433H30.0433H30.0432H30.0432H30.0431H30.0431H30.043H30.043H30.0429H30.0429H30.0428H30.0428H30.0427H30.0427H30.0426H30.0426H30.0425H30.0424H30.0424H30.0423H30.0423H30.0422H30.0422H30.0421H30.0421H30.042H30.042H30.0419H30.0419H30.0418H30.0418H30.0417H30.0417H30.0416H30.0416H30.0415H30.0415H30.0414H30.0414H30.0413H30.0413H30.0412H30.0412H30.0411H30.0411H30.041H30.041H30.0409H30.0409H30.0408H30.0408H30.0407H30.0407H30.0406H30.0406H30.0405H30.0405H30.0404H30.0404H30.0403H30.0403H30.0402H30.0402H30.0401H30.0401H30.04H30.04H30.0399H30.0399H30.0398H30.0398H30.0397H30.0397H30.0397H30.0396H30.0396H30.0395H30.0395H30.0394H30.0394H30.0393H30.0393H30.0392H30.0392H30.0391H30.0391H30.039H30.039H30.0389H30.0389H30.0388H30.0388H30.0387H30.0387H30.0386H30.0386H30.0385H30.0385H30.0385H30.0384H30.0384H30.0383H30.0383H30.0382H30.0382H30.0381H30.0381H30.038H30.038H30.0379H30.0379H30.0378H30.0378H30.0377H30.0377H30.0377H30.0376H30.0376H30.0375H30.0375H30.0374H30.0374H30.0373H30.0373H30.0372H30.0372H30.0371H30.0371H30.0371H30.037H30.037H30.0369H30.0369H30.0368H30.0368H30.0367H30.0367H30.0366H30.0366H30.0365H30.0365H30.0365H30.0364H30.0364H30.0363H30.0363H30.0362H30.0362H30.0361H30.0361H30.0361H30.036H30.036H30.0359H30.0359H30.0358L31.5488 54.0361ZM30.0358 54.1531C25.1083 54.1382 20.6972 50.2985 18.2883 44.3813L30.0358 54.1531ZM18.2882 44.3811C17.4017 42.2003 16.7932 39.7519 16.5368 37.1365L18.2882 44.3811Z" fill="white" stroke="black"/>
<circle cx="23.3493" cy="37.2605" r="1.71484" fill="black"/>
<circle cx="36.8493" cy="37.2605" r="1.71484" fill="black"/>
<circle cx="24.6432" cy="36.4092" r="0.763672" fill="white"/>
<circle cx="38.0866" cy="36.4092" r="0.763672" fill="white"/>
<path fill-rule="evenodd" clip-rule="evenodd" d="M40.3012 37.5266C37.9428 35.1681 34.6418 35.989 33.4314 37.4873C33.2579 37.7021 32.932 37.6938 32.8232 37.6064C32.7302 37.5317 32.8247 37.1481 32.9983 36.9333C34.5507 35.0116 38.1953 34.0065 41.0083 36.8195C41.2036 37.0148 41.2036 37.3313 41.0083 37.5266C40.8131 37.7219 40.4965 37.7219 40.3012 37.5266Z" fill="black"/>
<path fill-rule="evenodd" clip-rule="evenodd" d="M19.7225 37.5266C22.081 35.1681 25.3819 35.989 26.5923 37.4873C26.7658 37.7021 27.0917 37.6938 27.2005 37.6064C27.2935 37.5317 27.199 37.1481 27.0255 36.9333C25.473 35.0116 21.8284 34.0065 19.0154 36.8195C18.8201 37.0148 18.8201 37.3313 19.0154 37.5266C19.2106 37.7219 19.5272 37.7219 19.7225 37.5266Z" fill="black"/>
<path d="M30.2798 44.1059C30.0552 43.9971 30.9288 42.6559 31.7727 43.0427C32.378 43.3202 31.1048 43.3279 30.2798 44.1059Z" fill="black"/>
<path d="M29.863 44.1059C30.0909 43.9971 29.2047 42.6559 28.3485 43.0427C27.7344 43.3202 29.0261 43.3279 29.863 44.1059Z" fill="black"/>
<path fill-rule="evenodd" clip-rule="evenodd" d="M27.2564 47.205C26.921 46.8758 28.0574 46.0711 28.3966 45.9687C28.5062 45.9356 28.6704 45.893 28.8269 45.9031C29.2234 45.9288 29.5491 46.2011 29.9043 46.3503C29.9497 46.3693 29.9773 46.3777 29.9905 46.3813C30.0039 46.3775 30.033 46.3686 30.0817 46.348C30.1668 46.312 30.2635 46.262 30.3852 46.1991C30.4982 46.1407 30.6353 46.0698 30.7684 46.015C30.8933 45.9636 31.0697 45.9021 31.2568 45.9021C31.4076 45.9021 31.5566 45.9427 31.6701 45.981C32.0372 46.1048 33.0642 46.7103 32.7834 47.1516C32.5249 47.5579 31.6915 46.9322 31.3461 46.8157C31.2925 46.7977 31.263 46.7919 31.2532 46.7901C31.2436 46.7923 31.2102 46.8 31.1448 46.8269C30.7667 46.9826 30.4121 47.271 29.987 47.271C29.528 47.271 29.1784 46.9306 28.7627 46.792C28.7483 46.7949 28.7219 46.8009 28.6813 46.8132C28.6011 46.8374 28.5016 46.8748 28.3966 46.9204C28.0527 47.0696 27.6286 47.4308 27.2564 47.205Z" fill="black"/>
<path fill-rule="evenodd" clip-rule="evenodd" d="M31.943 47.9259C32.0987 48.154 32.0399 48.4651 31.8118 48.6207C31.2348 49.0145 30.5351 49.1414 29.9092 49.1164C29.2882 49.0915 28.6715 48.9143 28.2429 48.6198C28.0153 48.4634 27.9551 48.1533 28.1114 47.9257C28.2404 47.7379 28.4961 48.4029 29.9092 48.4593C31.3224 48.5157 31.8395 47.7743 31.943 47.9259Z" fill="black"/>
<path fill-rule="evenodd" clip-rule="evenodd" d="M32.2358 12.1198C41.4335 13.2238 48.5618 21.0546 48.5618 30.5483C48.5618 31.1684 48.5319 31.7839 48.472 32.3904C48.4674 32.4368 48.4311 32.4737 48.3848 32.4792C47.6702 32.5632 46.9418 32.6052 46.204 32.6052C39.2976 32.6052 33.2727 28.8329 30.0762 23.2376C30.0373 23.1697 29.9387 23.1697 29.8999 23.2376C26.7034 28.8329 20.6785 32.6052 13.7721 32.6052C13.0443 32.6052 12.3236 32.5632 11.6166 32.4816C11.5701 32.4762 11.5337 32.4392 11.5291 32.3927C11.4693 31.7863 11.4393 31.1708 11.4393 30.5483C11.4393 21.0621 18.5551 13.2388 27.7403 12.1223C27.7403 12.1223 27.7403 12.1223 27.7403 12.1223C27.7403 12.1223 27.7403 12.1223 27.7403 12.1223C28.4803 12.032 29.2353 11.9868 30.0003 11.9868C30.7553 11.9868 31.5028 12.032 32.2352 12.1198C32.2354 12.1198 32.2356 12.1198 32.2358 12.1198Z" fill="white"/>
<path fill-rule="evenodd" clip-rule="evenodd" d="M30.5762 24.0623C33.8769 29.2004 39.6032 32.8522 46.1646 32.8522C46.4031 32.8522 48.4151 33.0037 48.4438 32.713C48.5037 32.1065 48.5618 31.1684 48.5618 30.5483C48.5618 21.0546 41.4335 13.2238 32.2358 12.1198C31.5034 12.032 30.7553 11.9868 30.0003 11.9868C29.2353 11.9868 28.4803 12.032 27.7403 12.1223C18.5552 13.2387 11.4393 21.0621 11.4393 30.5483C11.4393 31.1708 11.4693 31.7863 11.5291 32.3927C11.5575 32.6798 13.5079 32.8522 13.7721 32.8522C20.3334 32.8522 26.0992 29.2004 29.3999 24.0623C29.413 24.0419 29.4261 24.0215 29.4391 24.0011C30.0338 23.0673 30.225 23.5112 30.537 24.0011C30.55 24.0215 30.5631 24.0419 30.5762 24.0623ZM32.1165 13.1127C31.4236 13.0296 30.7155 12.9868 30.0003 12.9868C29.2786 12.9868 28.5681 13.0292 27.8733 13.1135C27.8692 13.114 27.865 13.1145 27.8609 13.115C19.1715 14.1713 12.4393 21.574 12.4393 30.5483C12.4393 30.8874 12.4487 31.2239 12.4674 31.5575C12.8984 31.5891 13.3338 31.6052 13.7721 31.6052C20.3051 31.6052 26.0058 28.038 29.0316 22.7415C29.4543 22.0017 30.5218 22.0017 30.9444 22.7415C33.9703 28.038 39.671 31.6052 46.204 31.6052C46.6519 31.6052 47.0955 31.5888 47.5337 31.5563C47.5524 31.2226 47.5618 30.8863 47.5618 30.5483C47.5618 21.5669 40.8174 14.1572 32.1165 13.1127Z" fill="black"/>
<path d="M13.3294 30.4013C15.2284 24.2129 21.4079 17.4894 26.6078 13.9943C26.7035 13.93 26.6332 13.7806 26.5231 13.8149C18.8749 16.1949 14.0067 21.4918 13.1013 30.3601C13.0888 30.4831 13.2931 30.5195 13.3294 30.4013Z" fill="#CAC9C9"/>
<path d="M14.3984 38.4293C14.0269 37.9969 13.0912 34.9904 12.9326 33.3706C12.9292 33.3362 12.9443 33.3006 12.9785 33.2966C13.1376 33.2778 13.4292 33.5486 13.5655 33.7719C13.7156 34.0181 14.3761 36.3311 14.7404 37.7771C14.7509 37.8188 14.7371 37.8671 14.7216 37.9072C14.6656 38.0523 14.6039 38.3969 14.4614 38.4491C14.4383 38.4576 14.4144 38.448 14.3984 38.4293Z" fill="#CAC9C9"/>
<path d="M45.6063 10.2311C45.0926 9.00271 43.3522 9.00271 42.8385 10.2311L41.0266 14.5643C40.9759 14.6856 40.8794 14.782 40.7582 14.8327L36.425 16.6447C35.1966 17.1583 35.1966 18.8987 36.425 19.4124L40.7582 21.2244C40.8794 21.2751 40.9759 21.3715 41.0266 21.4928L42.8385 25.826C43.3522 27.0544 45.0926 27.0544 45.6063 25.826L47.4183 21.4928C47.469 21.3715 47.5654 21.2751 47.6867 21.2244L52.0198 19.4124C53.2483 18.8987 53.2482 17.1583 52.0198 16.6447L47.6867 14.8327C47.5654 14.782 47.469 14.6856 47.4183 14.5643L45.6063 10.2311Z" fill="#CAC9C9" stroke="white" stroke-linejoin="round"/>
<path d="M43.7643 13.6706C43.7672 13.6633 43.77 13.6559 43.7725 13.6485L44.2674 12.2133L45.5731 15.3359C45.8267 15.9422 46.3088 16.4243 46.9151 16.6779L50.1451 18.0285L46.9151 19.3792C46.3088 19.6328 45.8267 20.1149 45.5731 20.7212L44.2224 23.9512L42.8717 20.7212C42.6182 20.1149 42.1361 19.6328 41.5298 19.3792L38.424 18.0805L41.6465 17.0022C41.6581 16.9983 41.6695 16.994 41.6808 16.9893C41.9167 16.8906 42.1612 16.7851 42.3692 16.6171C42.5947 16.4349 42.7475 16.2066 42.8717 15.9096L42.8718 15.9096L42.8749 15.9018L43.7643 13.6706ZM45.6063 10.2311C45.0926 9.00271 43.3522 9.00271 42.8385 10.2311L41.0266 14.5643C40.9759 14.6856 40.8794 14.782 40.7582 14.8327L36.425 16.6447C35.1966 17.1583 35.1966 18.8987 36.425 19.4124L40.7582 21.2244C40.8794 21.2751 40.9759 21.3715 41.0266 21.4928L42.8385 25.826C43.3522 27.0544 45.0926 27.0544 45.6063 25.826L47.4183 21.4928C47.469 21.3715 47.5654 21.2751 47.6867 21.2244L52.0198 19.4124C53.2483 18.8987 53.2482 17.1583 52.0198 16.6447L47.6867 14.8327C47.5654 14.782 47.469 14.6856 47.4183 14.5643L45.6063 10.2311Z" fill="black" stroke="white" stroke-linejoin="round"/>
<path d="M43.2998 10.424C43.6423 9.60508 44.8026 9.60508 45.145 10.424L46.957 14.7572C47.0584 14.9997 47.2512 15.1926 47.4938 15.294L51.8269 17.106C52.6459 17.4484 52.6459 18.6087 51.8269 18.9511L47.4938 20.7631C47.2512 20.8645 47.0584 21.0574 46.957 21.2999L45.145 25.6331C44.8026 26.452 43.6423 26.452 43.2998 25.6331L41.4879 21.2999C41.3864 21.0574 41.1936 20.8645 40.9511 20.7631L36.6179 18.9511C35.799 18.6087 35.799 17.4484 36.6179 17.106L40.9511 15.294C41.1936 15.1926 41.3864 14.9997 41.4879 14.7572L43.2998 10.424Z" fill="#CAC9C9"/>
<path fill-rule="evenodd" clip-rule="evenodd" d="M46.0344 15.143L44.2224 10.8098L43.2998 13.4855L42.4104 15.7167C42.2076 16.2017 41.9729 16.3252 41.4879 16.528L37.0037 18.0285L41.3369 19.8405C41.8219 20.0434 42.2076 20.429 42.4104 20.9141L44.2224 25.2473L46.0344 20.9141C46.2372 20.429 46.6229 20.0434 47.108 19.8405L51.4411 18.0285L47.108 16.2166C46.6229 16.0137 46.2372 15.628 46.0344 15.143ZM45.145 10.424C44.8026 9.60508 43.6423 9.60508 43.2998 10.424L41.4879 14.7572C41.3864 14.9997 41.1936 15.1926 40.9511 15.294L36.6179 17.106C35.799 17.4484 35.799 18.6087 36.6179 18.9511L40.9511 20.7631C41.1936 20.8645 41.3864 21.0574 41.4879 21.2999L43.2998 25.6331C43.6423 26.452 44.8026 26.452 45.145 25.6331L46.957 21.2999C47.0584 21.0574 47.2512 20.8645 47.4938 20.7631L51.8269 18.9511C52.6459 18.6087 52.6459 17.4484 51.8269 17.106L47.4938 15.294C47.2512 15.1926 47.0584 14.9997 46.957 14.7572L45.145 10.424Z" fill="black"/>
<path d="M16.4876 17.4261C15.9806 16.1799 14.2159 16.1799 13.7088 17.4261L12.7668 19.7415C12.716 19.8664 12.6169 19.9654 12.4921 20.0162L10.1767 20.9583C8.93041 21.4654 8.93041 23.23 10.1767 23.7371L12.4921 24.6792C12.6169 24.73 12.716 24.829 12.7668 24.9539L13.7088 27.2693C14.2159 28.5155 15.9806 28.5155 16.4876 27.2693L17.4297 24.9539C17.4805 24.829 17.5796 24.73 17.7044 24.6792L20.0198 23.7371C21.266 23.23 21.2661 21.4654 20.0198 20.9583L17.7044 20.0162C17.5796 19.9654 17.4805 19.8664 17.4297 19.7415L16.4876 17.4261Z" fill="#CAC9C9" stroke="white" stroke-linejoin="round"/>
<path d="M15.3612 24.0276C15.3547 24.0434 15.3491 24.0596 15.3443 24.076L15.0204 25.186L14.6193 24.2001C14.3653 23.5759 13.87 23.0807 13.2458 22.8267L12.0687 22.3477L13.2458 21.8688C13.7752 21.6534 14.314 21.3646 14.5975 20.6824L15.0906 19.6498L15.5661 20.6793C15.8535 21.3731 16.4381 21.6602 16.9507 21.8688L18.0346 22.3098L16.6131 22.8014C16.6047 22.8044 16.5964 22.8075 16.5881 22.8108C16.3024 22.9271 16.0513 23.0685 15.8388 23.2774C15.6254 23.4872 15.4794 23.7369 15.3612 24.0276ZM12.4921 24.6792L12.6805 24.2161L12.4921 24.6792C12.6169 24.73 12.716 24.829 12.7668 24.9539L13.7088 27.2693C14.2159 28.5155 15.9806 28.5155 16.4876 27.2693L17.4297 24.9539C17.4805 24.829 17.5796 24.73 17.7044 24.6792L20.0198 23.7371C21.266 23.23 21.2661 21.4654 20.0198 20.9583L17.7044 20.0162C17.5796 19.9654 17.4805 19.8664 17.4297 19.7415L16.9666 19.93L17.4297 19.7415L16.4876 17.4261C15.9806 16.1799 14.2159 16.1799 13.7088 17.4261L12.7668 19.7415C12.716 19.8664 12.6169 19.9654 12.4921 20.0162L10.1767 20.9583C8.93041 21.4654 8.93041 23.23 10.1767 23.7371L12.4921 24.6792Z" fill="black" stroke="white" stroke-linejoin="round"/>
<path d="M14.6351 17.803C14.8041 17.3876 15.3923 17.3876 15.5614 17.803L16.5035 20.1184C16.6558 20.493 16.953 20.7901 17.3275 20.9425L19.6429 21.8846C20.0583 22.0536 20.0583 22.6418 19.6429 22.8108L17.3275 23.7529C16.953 23.9053 16.6558 24.2025 16.5035 24.577L15.5614 26.8924C15.3923 27.3078 14.8041 27.3078 14.6351 26.8924L13.693 24.577C13.5406 24.2025 13.2435 23.9053 12.8689 23.7529L10.5535 22.8108C10.1381 22.6418 10.1381 22.0536 10.5535 21.8846L12.8689 20.9425C13.2435 20.7901 13.5406 20.493 13.693 20.1184L14.6351 17.803Z" fill="#CAC9C9" stroke="black"/>
<path d="M16.4876 20.2909L16.4833 20.2802L16.4784 20.2697L15.6414 18.4573C15.4284 17.996 14.7743 17.9918 14.5553 18.4503L13.6891 20.2639L13.6828 20.2772L13.6772 20.2909C13.5527 20.597 13.3346 20.753 12.8689 20.9425C13.2435 20.7901 13.5406 20.493 13.693 20.1184L14.6351 17.803C14.8041 17.3876 15.3923 17.3876 15.5614 17.803L16.5035 20.1184C16.6558 20.493 16.953 20.7901 17.3275 20.9425C16.8441 20.7458 16.6083 20.5876 16.4876 20.2909ZM19.6179 22.8202L19.6305 22.8159L17.3275 23.7529C16.953 23.9053 16.6558 24.2025 16.5035 24.577L15.571 26.8687L15.5782 26.844L16.2968 24.3819C16.3783 24.1871 16.456 24.073 16.5399 23.9905C16.6262 23.9056 16.7468 23.827 16.9531 23.742L19.6179 22.8202Z" fill="black" stroke="black"/>
<path d="M17.2904 35.9611C16.7833 34.7148 15.0186 34.7148 14.5116 35.9611L13.5695 38.2765C13.5187 38.4013 13.4196 38.5003 13.2948 38.5511L10.9794 39.4932C9.73315 40.0003 9.73314 41.7649 10.9794 42.272L13.2948 43.2141C13.4196 43.2649 13.5187 43.364 13.5695 43.4888L14.5116 45.8042C15.0186 47.0504 16.7833 47.0504 17.2904 45.8042L18.2324 43.4888C18.2832 43.364 18.3823 43.2649 18.5071 43.2141L20.8225 42.272C22.0688 41.765 22.0688 40.0003 20.8225 39.4932L18.5071 38.5511C18.3823 38.5003 18.2832 38.4013 18.2324 38.2765L17.2904 35.9611Z" fill="#CAC9C9" stroke="white" stroke-linejoin="round"/>
<path d="M15.5945 39.2474C15.6012 39.231 15.607 39.2142 15.6119 39.1972L15.9153 38.1434L16.3894 39.0532C16.6461 39.6666 17.1368 40.1528 17.7534 40.4037L18.9305 40.8826L17.7534 41.3616C17.1292 41.6156 16.6339 42.1108 16.3799 42.735L15.901 43.9122L15.422 42.735C15.168 42.1108 14.6728 41.6156 14.0485 41.3616L13.0636 40.9608L14.1725 40.6377C14.189 40.6329 14.2052 40.6273 14.2211 40.6208C14.8453 40.3668 15.3405 39.8716 15.5945 39.2474ZM13.2948 43.2141L13.4832 42.751L13.2948 43.2141C13.4196 43.2649 13.5187 43.364 13.5695 43.4888L14.5116 45.8042C15.0186 47.0504 16.7833 47.0504 17.2904 45.8042L18.2324 43.4888C18.2832 43.364 18.3823 43.2649 18.5071 43.2141L20.8225 42.272C22.0688 41.765 22.0688 40.0003 20.8225 39.4932L18.5071 38.5511C18.3823 38.5003 18.2832 38.4013 18.2324 38.2765L17.7693 38.4649L18.2324 38.2765L17.2904 35.9611C16.7833 34.7148 15.0186 34.7148 14.5116 35.9611L13.5695 38.2765C13.5187 38.4013 13.4196 38.5003 13.2948 38.5511L10.9794 39.4932C9.73315 40.0003 9.73314 41.7649 10.9794 42.272L13.2948 43.2141Z" fill="black" stroke="white" stroke-linejoin="round"/>
<path d="M14.9747 36.1495C15.3128 35.3187 16.4892 35.3187 16.8272 36.1495L17.7693 38.4649C17.8709 38.7146 18.069 38.9127 18.3187 39.0143L20.6341 39.9564C21.4649 40.2944 21.4649 41.4708 20.6341 41.8089L18.3187 42.751C18.069 42.8526 17.8709 43.0507 17.7693 43.3004L16.8272 45.6158C16.4892 46.4466 15.3128 46.4466 14.9747 45.6158L14.0326 43.3004C13.931 43.0507 13.7329 42.8526 13.4832 42.751L11.1678 41.8089C10.337 41.4708 10.337 40.2944 11.1678 39.9564L13.4832 39.0143C13.7329 38.9127 13.931 38.7146 14.0326 38.4649L14.9747 36.1495Z" fill="#CAC9C9"/>
<path fill-rule="evenodd" clip-rule="evenodd" d="M16.8431 38.8418L15.7807 36.8035L15.1314 39.0589C14.9282 39.5583 14.532 39.9545 14.0326 40.1577L11.5447 40.8826L13.8601 41.8247C14.3595 42.0279 14.7557 42.4241 14.9589 42.9235L15.901 45.2389L16.8431 42.9235C17.0462 42.4241 17.4424 42.0279 17.9418 41.8247L20.2572 40.8826L17.9418 39.9405C17.4424 39.7374 17.0462 39.3412 16.8431 38.8418ZM16.8272 36.1495C16.4892 35.3187 15.3128 35.3187 14.9747 36.1495L14.0326 38.4649C13.931 38.7146 13.7329 38.9127 13.4832 39.0143L11.1678 39.9564C10.337 40.2944 10.337 41.4708 11.1678 41.8089L13.4832 42.751C13.7329 42.8526 13.931 43.0507 14.0326 43.3004L14.9747 45.6158C15.3128 46.4466 16.4892 46.4466 16.8272 45.6158L17.7693 43.3004C17.8709 43.0507 18.069 42.8526 18.3187 42.751L20.6341 41.8089C21.4649 41.4708 21.4649 40.2944 20.6341 39.9564L18.3187 39.0143C18.069 38.9127 17.8709 38.7146 17.7693 38.4649L16.8272 36.1495Z" fill="black"/>
</g>
<circle cx="50" cy="50.585" r="9.6" fill="#CAC9C9" stroke="white" stroke-width="1.2"/>
<circle cx="50" cy="50.585" r="8.4" fill="black" stroke="black" stroke-width="1.2"/>
<path d="M47.7298 55.585H44.7469L48.1077 45.4031H51.8861L55.2469 55.585H52.2639L50.0367 48.2071H49.9571L47.7298 55.585ZM47.173 51.5679H52.781V53.6361H47.173V51.5679Z" fill="white"/>
<defs>
<filter id="filter0_d_1241_5840" x="7.74197" y="6.55615" width="45.6992" height="49.5971" filterUnits="userSpaceOnUse" color-interpolation-filters="sRGB">
<feFlood flood-opacity="0" result="BackgroundImageFix"/>
<feColorMatrix in="SourceAlpha" type="matrix" values="0 0 0 0 0 0 0 0 0 0 0 0 0 0 0 0 0 0 127 0" result="hardAlpha"/>
<feOffset dx="-1" dy="1.5"/>
<feComposite in2="hardAlpha" operator="out"/>
<feColorMatrix type="matrix" values="0 0 0 0 0 0 0 0 0 0 0 0 0 0 0 0 0 0 0.25 0"/>
<feBlend mode="normal" in2="BackgroundImageFix" result="effect1_dropShadow_1241_5840"/>
<feBlend mode="normal" in="SourceGraphic" in2="effect1_dropShadow_1241_5840" result="shape"/>
</filter>
</defs>
</svg>
