<svg width="60" height="61" viewBox="0 0 60 61" fill="none" xmlns="http://www.w3.org/2000/svg">
<circle cx="30.0001" cy="30.4991" r="29.0001" fill="white" stroke="white" stroke-width="2"/>
<path d="M23.1065 20.999C17.8847 20.9991 18.46 24.9961 9.06074 28.8635C21.8846 26.9344 23.8898 31.7722 29.8949 31.7722C35.9 31.7722 36.0656 27.8063 50.9478 29.1876C41.2874 25.8727 42.4273 20.9991 36.9443 20.999C33.3874 20.999 30.7652 23.4852 29.8949 24.8663C29.1987 23.6693 26.872 20.999 23.1065 20.999Z" fill="#CAC9C9"/>
<path fill-rule="evenodd" clip-rule="evenodd" d="M29.278 24.0071C28.2029 22.7099 26.1053 20.999 23.0837 20.999C20.4384 20.999 19.2768 22.0197 17.5595 23.5286C16.2716 24.6602 14.6711 26.0665 11.8978 27.5228C11.0498 27.9682 10.092 28.4182 9 28.8665C10.1386 28.6956 11.1922 28.5778 12.171 28.505C18.1801 28.0582 21.3723 29.3082 24.1345 30.3898C26.0035 31.1216 27.6756 31.7764 29.8904 31.7764C32.0712 31.7764 33.4839 31.2559 35.1078 30.6577C37.618 29.733 40.6327 28.6224 47.7686 28.9607C48.7625 29.0078 49.8364 29.083 51 29.1908C49.8649 28.8022 48.8786 28.3922 48.0128 27.9711C45.0409 26.5257 43.49 24.9501 42.223 23.6629C40.7093 22.1251 39.6009 20.999 36.9588 20.999C34.0381 20.999 31.7459 22.6669 30.5323 24.0298C30.264 24.3312 30.0484 24.6176 29.8904 24.8678C29.7509 24.6287 29.5463 24.3308 29.278 24.0071ZM45.8045 27.9012C43.9216 26.7503 42.7126 25.5731 41.7118 24.5592C41.657 24.5036 41.6032 24.4491 41.5505 24.3956C40.7958 23.6298 40.244 23.0699 39.5941 22.6652C38.947 22.2623 38.1696 21.9994 36.9588 21.9994C33.8305 21.9994 31.4751 24.2131 30.7207 25.4075L29.8568 26.7754L29.0415 25.3771C28.4408 24.3467 26.3779 21.9994 23.0837 21.9994C21.9132 21.9994 21.126 22.2194 20.4527 22.5728C19.7449 22.9442 19.1187 23.4822 18.2582 24.2382L18.2128 24.2781C17.1866 25.1797 15.9502 26.266 14.0964 27.4155C17.6822 27.3586 20.2129 27.9354 22.3212 28.6488C23.0608 28.8991 23.7421 29.1639 24.3798 29.4135C24.4146 29.4271 24.4493 29.4407 24.4838 29.4542C25.0878 29.6907 25.6479 29.91 26.2098 30.1025C27.3825 30.5044 28.5263 30.776 29.8904 30.776C31.8879 30.776 33.0929 30.3318 34.6504 29.7576C35.2885 29.5224 35.9857 29.2654 36.8208 29.0082C38.8851 28.3723 41.5415 27.8536 45.8045 27.9012Z" fill="black" stroke="black" stroke-width="0.3"/>
<path fill-rule="evenodd" clip-rule="evenodd" d="M17.2728 34.6152C19.9582 36.9676 23.438 39.1588 29.9435 39.1588C36.4616 39.1588 40.0566 37.0878 42.8174 34.8353C43.514 34.2669 44.1575 33.6868 44.7875 33.118L44.8167 33.0916C45.4335 32.5347 46.0401 31.987 46.6582 31.4875C47.9147 30.4722 49.259 29.6218 50.9479 29.2474C48.0924 29.8804 45.6914 33.6537 43.4995 35.4421C40.6046 37.8039 36.7769 39.999 29.9435 39.999C23.0976 39.999 19.378 37.6644 16.5658 35.201C14.548 33.4334 11.7675 29.4286 9.10026 28.9556C10.8672 29.2689 12.2411 30.1132 13.4989 31.1502C14.127 31.6681 14.7351 32.2417 15.3501 32.8282C15.4101 32.8853 15.4701 32.9426 15.5302 33C16.0903 33.5347 16.6603 34.0787 17.2728 34.6152Z" fill="black" stroke="black" stroke-width="0.3"/>
<path d="M21.2513 34.3173C23.0839 35.5384 24.707 36.5642 27.0108 36.7595M36.1736 24.7925C37.7443 24.7927 38.7915 25.2812 39.8387 26.5021" stroke="black" stroke-linecap="round" stroke-linejoin="round"/>
<path d="M40.1388 42.2747L43.0858 47.379" stroke="black" stroke-miterlimit="10" stroke-linecap="round" stroke-linejoin="round"/>
<path d="M44.5959 45.5241L43.5106 48.1153L40.7239 47.7597" stroke="black" stroke-miterlimit="10" stroke-linecap="round" stroke-linejoin="round"/>
<path d="M19.3153 42.2747L16.3683 47.379" stroke="black" stroke-miterlimit="10" stroke-linecap="round" stroke-linejoin="round"/>
<path d="M14.8582 45.5241L15.9435 48.1153L18.7302 47.7597" stroke="black" stroke-miterlimit="10" stroke-linecap="round" stroke-linejoin="round"/>
</svg>
