<svg width="60" height="60" viewBox="0 0 60 60" fill="none" xmlns="http://www.w3.org/2000/svg">
<circle cx="30.0001" cy="30.0001" r="29.0001" fill="white" stroke="white" stroke-width="2"/>
<path d="M24.9237 11.647C23.375 12.0588 22.9878 13.2941 23.7621 14.5294C24.4412 15.6129 26.7298 15.9001 26.0854 14.5294C25.311 12.8823 23.5576 15.2981 24.1493 16.5882C24.696 17.7802 25.311 18.2353 25.311 18.2353" stroke="black" stroke-width="0.941176"/>
<path d="M37.159 12.5883C35.6102 13 35.2231 14.2353 35.9973 15.4706C36.6764 16.5541 38.9651 16.8414 38.3206 15.4706C37.5462 13.8236 35.7929 16.2394 36.3846 17.5294C36.9313 18.7214 37.5462 19.1765 37.5462 19.1765" stroke="black" stroke-width="0.941176"/>
<circle cx="23.8384" cy="8.8386" r="4.23362" fill="#CAC9C9" stroke="black" stroke-width="1.2096"/>
<circle cx="25.0486" cy="8.8389" r="3.62881" fill="white" stroke="black" stroke-width="1.2096"/>
<ellipse cx="26.2566" cy="8.83858" rx="1.2096" ry="2.41921" fill="black"/>
<circle cx="38.9572" cy="8.2338" r="4.23362" fill="white" stroke="black" stroke-width="1.2096"/>
<circle cx="39.5626" cy="7.62929" r="2.41921" fill="black"/>
<g filter="url(#filter0_d_1241_7769)">
<path d="M17.3779 43.2397L17.3776 43.2395C16.8663 42.7663 16.523 42.1163 16.4404 41.3856C16.4284 41.2685 16.421 41.1579 16.421 41.0492C16.421 39.9117 17.0581 38.92 17.9971 38.4151L17.9981 38.4146C18.4168 38.1882 18.897 38.0601 19.4102 38.0601L19.4107 38.0601C21.0627 38.0582 22.4015 39.3969 22.4015 41.047C22.4015 42.6971 21.0625 44.0361 19.4124 44.0361H19.4122H19.4121H19.412H19.4119H19.4117H19.4116H19.4115H19.4113H19.4112H19.4111H19.4109H19.4108H19.4107H19.4106H19.4104H19.4103H19.4102H19.41H19.4099H19.4098H19.4097H19.4095H19.4094H19.4093H19.4091H19.409H19.4089H19.4088H19.4086H19.4085H19.4084H19.4082H19.4081H19.408H19.4079H19.4077H19.4076H19.4075H19.4074H19.4072H19.4071H19.407H19.4068H19.4067H19.4066H19.4065H19.4063H19.4062H19.4061H19.406H19.4058H19.4057H19.4056H19.4054H19.4053H19.4052H19.4051H19.4049H19.4048H19.4047H19.4046H19.4044H19.4043H19.4042H19.404H19.4039H19.4038H19.4037H19.4035H19.4034H19.4033H19.4032H19.403H19.4029H19.4028H19.4027H19.4025H19.4024H19.4023H19.4022H19.402H19.4019H19.4018H19.4016H19.4015H19.4014H19.4013H19.4011H19.401H19.4009H19.4008H19.4006H19.4005H19.4004H19.4003H19.4001H19.4H19.3999H19.3998H19.3996H19.3995H19.3994H19.3993H19.3991H19.399H19.3989H19.3988H19.3986H19.3985H19.3984H19.3983H19.3981H19.398H19.3979H19.3978H19.3976H19.3975H19.3974H19.3973H19.3971H19.397H19.3969H19.3968H19.3966H19.3965H19.3964H19.3963H19.3961H19.396H19.3959H19.3958H19.3956H19.3955H19.3954H19.3953H19.3951H19.395H19.3949H19.3948H19.3946H19.3945H19.3944H19.3943H19.3941H19.394H19.3939H19.3938H19.3936H19.3935H19.3934H19.3933H19.3931H19.393H19.3929H19.3928H19.3927H19.3925H19.3924H19.3923H19.3922H19.392H19.3919H19.3918H19.3917H19.3915H19.3914H19.3913H19.3912H19.391H19.3909H19.3908H19.3907H19.3905H19.3904H19.3903H19.3902H19.3901H19.3899H19.3898H19.3897H19.3896H19.3894H19.3893H19.3892H19.3891H19.3889H19.3888H19.3887H19.3886H19.3884H19.3883H19.3882H19.3881H19.388H19.3878H19.3877H19.3876H19.3875H19.3873H19.3872H19.3871H19.387H19.3868H19.3867H19.3866H19.3865H19.3863H19.3862H19.3861H19.386H19.3859H19.3857H19.3856H19.3855H19.3854H19.3852H19.3851H19.385H19.3849H19.3847H19.3846H19.3845H19.3844H19.3843H19.3841H19.384H19.3839H19.3838H19.3836H19.3835H19.3834H19.3833H19.3831H19.383H19.3829H19.3828H19.3827H19.3825H19.3824H19.3823H19.3822H19.382H19.3819H19.3818H19.3817H19.3815H19.3814H19.3813H19.3812H19.3811H19.3809H19.3808H19.3807H19.3806H19.3804H19.3803H19.3802H19.3801H19.3799H19.3798H19.3797H19.3796H19.3795H19.3793H19.3792H19.3791H19.379H19.3788H19.3787H19.3786H19.3785H19.3783H19.3782H19.3781H19.378H19.3779H19.3777H19.3776H19.3775H19.3774H19.3772H19.3771H19.377H19.3769H19.3767H19.3766H19.3765H19.3764H19.3763H19.3761H19.376H19.3759H19.3758H19.3756H19.3755H19.3754H19.3753H19.3751H19.375H19.3749H19.3748H19.3747H19.3745H19.3744H19.3743H19.3742H19.374H19.3739H19.3738H19.3737H19.3735H19.3734H19.3733H19.3732H19.373H19.3729H19.3728H19.3727H19.3726H19.3724H19.3723H19.3722H19.3721H19.3719H19.3718H19.3717H19.3716H19.3714H19.3713H19.3712H19.3711H19.3709H19.3708H19.3707H19.3706H19.3705H19.3703H19.3702H19.3701H19.37H19.3698H19.3697H19.3696H19.3695H19.3693H19.3692H19.3691H19.369H19.3688H19.3687H19.3686H19.3685H19.3683H19.3682H19.3681H19.368H19.3679H19.3677H19.3676H19.3675H19.3674H19.3672H19.3671H19.367H19.3669H19.3667H19.3666H19.3665H19.3664H19.3662H19.3661H19.366H19.3659H19.3657H19.3656H19.3655H19.3654H19.3652H19.3651H19.365H19.3649H19.3647H19.3646H19.3645H19.3644H19.3642H19.3641H19.364H19.3639H19.3637H19.3636H19.3635H19.3634H19.3632H19.3631H19.363H19.3629H19.3627H19.3626H19.3625H19.3624H19.3622H19.3621H19.362H19.3619H19.3617H19.3616H19.3615H19.3614H19.3612H19.3611H19.361H19.3609H19.3607H19.3606H19.3605H19.3604H19.3602H19.3601H19.36H19.3599H19.3597H19.3596H19.3595H19.3594H19.3592H19.3591H19.359H19.3589H19.3587H19.3586H19.3585H19.3584H19.3582H19.3581H19.358H19.3578H19.3577H19.3576H19.3575H19.3573H19.3572H19.3571H19.357H19.3568H19.3567H19.3566H19.3565H19.3563H19.3562H19.3561H19.3559H19.3558H19.3557H19.3556H19.3554H19.3553H19.3552H19.3551H19.3549H19.3548H19.3547H19.3546H19.3544H19.3543H19.3542H19.354H19.3539H19.3538H19.3537H19.3535H19.3534H19.3533H19.3531H19.353H19.3529H19.3528H19.3526H19.3525C18.5902 44.0218 17.899 43.7226 17.3779 43.2397Z" fill="white" stroke="black" stroke-width="0.941176"/>
<path d="M42.3155 38.5179L42.3146 38.5175C41.9852 38.3918 41.6264 38.3229 41.251 38.3229C39.6008 38.3229 38.2618 39.6619 38.2618 41.3121C38.2618 42.8357 39.4018 44.0931 40.8764 44.2784C40.9976 44.2935 41.1239 44.3012 41.251 44.3012C41.6486 44.3012 42.0288 44.2229 42.3745 44.0835L42.3155 38.5179ZM42.3155 38.5179C43.2161 38.8594 43.908 39.6276 44.1485 40.5726L44.1489 40.5741M42.3155 38.5179L44.1489 40.5741M44.1489 40.5741C44.2099 40.8104 44.2423 41.0561 44.2423 41.3121C44.2423 42.5643 43.4715 43.64 42.3748 44.0833L44.1489 40.5741Z" fill="white" stroke="black" stroke-width="0.941176"/>
<path d="M41.6281 44.2143L41.6282 44.2141C42.5602 42.2636 43.1988 40.0613 43.4682 37.7017C43.5613 36.8773 43.6103 36.0333 43.6103 35.1765C43.6103 34.6378 43.5907 34.1038 43.5516 33.5766L43.5515 33.5753C43.1026 27.2893 40.0368 22.0078 35.8144 19.4437L35.8143 19.4437C34.6649 18.7455 33.4275 18.2474 32.131 17.9827L32.1309 17.9827C31.4267 17.8388 30.7031 17.7647 29.9645 17.7647C29.1765 17.7647 28.4049 17.8514 27.6539 18.0146C26.4509 18.2772 25.3 18.7414 24.2228 19.38C19.9461 21.9157 16.8337 27.2262 16.375 33.5625L16.3749 33.5631C16.3358 34.0948 16.3162 34.6311 16.3162 35.1765C16.3162 36.007 16.3627 36.8225 16.4508 37.623C16.7055 39.9179 17.3099 42.0668 18.191 43.9814C20.5801 49.1658 24.9756 52.575 29.937 52.5882L41.6281 44.2143ZM41.6281 44.2143C39.4602 48.757 35.7326 51.8906 31.4577 52.4845M41.6281 44.2143L31.4577 52.4845M31.4577 52.4845C30.9655 52.5523 30.4695 52.5882 29.9645 52.5882M31.4577 52.4845L29.9645 52.5882M29.9645 52.5882H29.9644M29.9645 52.5882H29.9644M29.9644 52.5882H29.9644M29.9644 52.5882H29.9644M29.9644 52.5882H29.9643M29.9644 52.5882H29.9643M29.9643 52.5882H29.9642M29.9643 52.5882H29.9642M29.9642 52.5882H29.9642M29.9642 52.5882H29.9642M29.9642 52.5882H29.9641M29.9642 52.5882H29.9641M29.9641 52.5882H29.9641M29.9641 52.5882H29.9641M29.9641 52.5882H29.964M29.9641 52.5882H29.964M29.964 52.5882H29.9639M29.964 52.5882H29.9639M29.9639 52.5882H29.9639M29.9639 52.5882H29.9639M29.9639 52.5882H29.9638M29.9639 52.5882H29.9638M29.9638 52.5882H29.9638M29.9638 52.5882H29.9638M29.9638 52.5882H29.9637M29.9638 52.5882H29.9637M29.9637 52.5882H29.9637M29.9637 52.5882H29.9637M29.9637 52.5882H29.9636M29.9637 52.5882H29.9636M29.9636 52.5882H29.9635M29.9636 52.5882H29.9635M29.9635 52.5882H29.9635M29.9635 52.5882H29.9635M29.9635 52.5882H29.9634M29.9635 52.5882H29.9634M29.9634 52.5882H29.9634M29.9634 52.5882H29.9634M29.9634 52.5882H29.9633M29.9634 52.5882H29.9633M29.9633 52.5882H29.9632M29.9633 52.5882H29.9632M29.9632 52.5882H29.9632M29.9632 52.5882H29.9632M29.9632 52.5882H29.9631M29.9632 52.5882H29.9631M29.9631 52.5882H29.9631M29.9631 52.5882H29.9631M29.9631 52.5882H29.963M29.9631 52.5882H29.963M29.963 52.5882H29.9629M29.963 52.5882H29.9629M29.9629 52.5882H29.9629M29.9629 52.5882H29.9629M29.9629 52.5882H29.9628M29.9629 52.5882H29.9628M29.9628 52.5882H29.9628M29.9628 52.5882H29.9628M29.9628 52.5882H29.9627M29.9628 52.5882H29.9627M29.9627 52.5882H29.9627M29.9627 52.5882H29.9627M29.9627 52.5882H29.9626M29.9627 52.5882H29.9626M29.9626 52.5882H29.9625M29.9626 52.5882H29.9625M29.9625 52.5882H29.9625M29.9625 52.5882H29.9625M29.9625 52.5882H29.9624M29.9625 52.5882H29.9624M29.9624 52.5882H29.9624M29.9624 52.5882H29.9624M29.9624 52.5882H29.9623M29.9624 52.5882H29.9623M29.9623 52.5882H29.9622M29.9623 52.5882H29.9622M29.9622 52.5882H29.9622M29.9622 52.5882H29.9622M29.9622 52.5882H29.9621M29.9622 52.5882H29.9621M29.9621 52.5882H29.9621M29.9621 52.5882H29.9621M29.9621 52.5882H29.962M29.9621 52.5882H29.962M29.962 52.5882H29.962M29.962 52.5882H29.962M29.962 52.5882H29.9619M29.962 52.5882H29.9619M29.9619 52.5882H29.9618M29.9619 52.5882H29.9618M29.9618 52.5882H29.9618M29.9618 52.5882H29.9618M29.9618 52.5882H29.9617M29.9618 52.5882H29.9617M29.9617 52.5882H29.9617M29.9617 52.5882H29.9617M29.9617 52.5882H29.9616M29.9617 52.5882H29.9616M29.9616 52.5882H29.9615M29.9616 52.5882H29.9615M29.9615 52.5882H29.9615M29.9615 52.5882H29.9615M29.9615 52.5882H29.9614M29.9615 52.5882H29.9614M29.9614 52.5882H29.9614M29.9614 52.5882H29.9614M29.9614 52.5882H29.9613M29.9614 52.5882H29.9613M29.9613 52.5882H29.9613M29.9613 52.5882H29.9613M29.9613 52.5882H29.9612M29.9613 52.5882H29.9612M29.9612 52.5882H29.9611M29.9612 52.5882H29.9611M29.9611 52.5882H29.9611M29.9611 52.5882H29.9611M29.9611 52.5882H29.961M29.9611 52.5882H29.961M29.961 52.5882H29.961M29.961 52.5882H29.961M29.961 52.5882H29.9609M29.961 52.5882H29.9609M29.9609 52.5882H29.9608M29.9609 52.5882H29.9608M29.9608 52.5882H29.9608M29.9608 52.5882H29.9608M29.9608 52.5882H29.9607M29.9608 52.5882H29.9607M29.9607 52.5882H29.9607M29.9607 52.5882H29.9607M29.9607 52.5882H29.9606M29.9607 52.5882H29.9606M29.9606 52.5882H29.9606M29.9606 52.5882H29.9606M29.9606 52.5882H29.9605M29.9606 52.5882H29.9605M29.9605 52.5882H29.9604M29.9605 52.5882H29.9604M29.9604 52.5882H29.9604M29.9604 52.5882H29.9604M29.9604 52.5882H29.9603M29.9604 52.5882H29.9603M29.9603 52.5882H29.9603M29.9603 52.5882H29.9603M29.9603 52.5882H29.9602M29.9603 52.5882H29.9602M29.9602 52.5882H29.9601M29.9602 52.5882H29.9601M29.9601 52.5882H29.9601M29.9601 52.5882H29.9601M29.9601 52.5882H29.96M29.9601 52.5882H29.96M29.96 52.5882H29.96M29.96 52.5882H29.96M29.96 52.5882H29.9599M29.96 52.5882H29.9599M29.9599 52.5882H29.9599M29.9599 52.5882H29.9599M29.9599 52.5882H29.9598M29.9599 52.5882H29.9598M29.9598 52.5882H29.9597M29.9598 52.5882H29.9597M29.9597 52.5882H29.9597M29.9597 52.5882H29.9597M29.9597 52.5882H29.9596M29.9597 52.5882H29.9596M29.9596 52.5882H29.9596M29.9596 52.5882H29.9596M29.9596 52.5882H29.9595M29.9596 52.5882H29.9595M29.9595 52.5882H29.9594M29.9595 52.5882H29.9594M29.9594 52.5882H29.9594M29.9594 52.5882H29.9594M29.9594 52.5882H29.9593M29.9594 52.5882H29.9593M29.9593 52.5882H29.9593M29.9593 52.5882H29.9593M29.9593 52.5882H29.9592M29.9593 52.5882H29.9592M29.9592 52.5882H29.9592M29.9592 52.5882H29.9592M29.9592 52.5882H29.9591M29.9592 52.5882H29.9591M29.9591 52.5882H29.959M29.9591 52.5882H29.959M29.959 52.5882H29.959M29.959 52.5882H29.959M29.959 52.5882H29.9589M29.959 52.5882H29.9589M29.9589 52.5882H29.9589M29.9589 52.5882H29.9589M29.9589 52.5882H29.9588M29.9589 52.5882H29.9588M29.9588 52.5882H29.9587M29.9588 52.5882H29.9587M29.9587 52.5882H29.9587M29.9587 52.5882H29.9587M29.9587 52.5882H29.9586M29.9587 52.5882H29.9586M29.9586 52.5882H29.9586M29.9586 52.5882H29.9586M29.9586 52.5882H29.9585M29.9586 52.5882H29.9585M29.9585 52.5882H29.9585M29.9585 52.5882H29.9585M29.9585 52.5882H29.9584M29.9585 52.5882H29.9584M29.9584 52.5882H29.9583M29.9584 52.5882H29.9583M29.9583 52.5882H29.9583M29.9583 52.5882H29.9583M29.9583 52.5882H29.9582M29.9583 52.5882H29.9582M29.9582 52.5882H29.9582M29.9582 52.5882H29.9582M29.9582 52.5882H29.9581M29.9582 52.5882H29.9581M29.9581 52.5882H29.9581M29.9581 52.5882H29.9581M29.9581 52.5882H29.958M29.9581 52.5882H29.958M29.958 52.5882H29.9579M29.958 52.5882H29.9579M29.9579 52.5882H29.9579M29.9579 52.5882H29.9579M29.9579 52.5882H29.9578M29.9579 52.5882H29.9578M29.9578 52.5882H29.9578M29.9578 52.5882H29.9578M29.9578 52.5882H29.9577M29.9578 52.5882H29.9577M29.9577 52.5882H29.9576M29.9577 52.5882H29.9576M29.9576 52.5882H29.9576M29.9576 52.5882H29.9576M29.9576 52.5882H29.9575M29.9576 52.5882H29.9575M29.9575 52.5882H29.9575M29.9575 52.5882H29.9575M29.9575 52.5882H29.9574M29.9575 52.5882H29.9574M29.9574 52.5882H29.9574M29.9574 52.5882H29.9574M29.9574 52.5882H29.9573M29.9574 52.5882H29.9573M29.9573 52.5882H29.9572M29.9573 52.5882H29.9572M29.9572 52.5882H29.9572M29.9572 52.5882H29.9572M29.9572 52.5882H29.9571M29.9572 52.5882H29.9571M29.9571 52.5882H29.9571M29.9571 52.5882H29.9571M29.9571 52.5882H29.957M29.9571 52.5882H29.957M29.957 52.5882H29.957M29.957 52.5882H29.957M29.957 52.5882H29.9569M29.957 52.5882H29.9569M29.9569 52.5882H29.9568M29.9569 52.5882H29.9568M29.9568 52.5882H29.9568M29.9568 52.5882H29.9568M29.9568 52.5882H29.9567M29.9568 52.5882H29.9567M29.9567 52.5882H29.9567M29.9567 52.5882H29.9567M29.9567 52.5882H29.9566M29.9567 52.5882H29.9566M29.9566 52.5882H29.9565M29.9566 52.5882H29.9565M29.9565 52.5882H29.9565M29.9565 52.5882H29.9565M29.9565 52.5882H29.9564M29.9565 52.5882H29.9564M29.9564 52.5882H29.9564M29.9564 52.5882H29.9564M29.9564 52.5882H29.9563M29.9564 52.5882H29.9563M29.9563 52.5882H29.9563M29.9563 52.5882H29.9563M29.9563 52.5882H29.9562M29.9563 52.5882H29.9562M29.9562 52.5882H29.9561M29.9562 52.5882H29.9561M29.9561 52.5882H29.9561M29.9561 52.5882H29.9561M29.9561 52.5882H29.956M29.9561 52.5882H29.956M29.956 52.5882H29.956M29.956 52.5882H29.956M29.956 52.5882H29.9559M29.956 52.5882H29.9559M29.9559 52.5882H29.9559M29.9559 52.5882H29.9559M29.9559 52.5882H29.9558M29.9559 52.5882H29.9558M29.9558 52.5882H29.9557M29.9558 52.5882H29.9557M29.9557 52.5882H29.9557M29.9557 52.5882H29.9557M29.9557 52.5882H29.9556M29.9557 52.5882H29.9556M29.9556 52.5882H29.9556M29.9556 52.5882H29.9556M29.9556 52.5882H29.9555M29.9556 52.5882H29.9555M29.9555 52.5882H29.9555M29.9555 52.5882H29.9555M29.9555 52.5882H29.9554M29.9555 52.5882H29.9554M29.9554 52.5882H29.9553M29.9554 52.5882H29.9553M29.9553 52.5882H29.9553M29.9553 52.5882H29.9553M29.9553 52.5882H29.9552M29.9553 52.5882H29.9552M29.9552 52.5882H29.9552M29.9552 52.5882H29.9552M29.9552 52.5882H29.9551M29.9552 52.5882H29.9551M29.9551 52.5882H29.9551M29.9551 52.5882H29.9551M29.9551 52.5882H29.955M29.9551 52.5882H29.955M29.955 52.5882H29.9549M29.955 52.5882H29.9549M29.9549 52.5882H29.9549M29.9549 52.5882H29.9549M29.9549 52.5882H29.9548M29.9549 52.5882H29.9548M29.9548 52.5882H29.9548M29.9548 52.5882H29.9548M29.9548 52.5882H29.9547M29.9548 52.5882H29.9547M29.9547 52.5882H29.9547M29.9547 52.5882H29.9547M29.9547 52.5882H29.9546M29.9547 52.5882H29.9546M29.9546 52.5882H29.9545M29.9546 52.5882H29.9545M29.9545 52.5882H29.9545M29.9545 52.5882H29.9545M29.9545 52.5882H29.9544M29.9545 52.5882H29.9544M29.9544 52.5882H29.9544M29.9544 52.5882H29.9544M29.9544 52.5882H29.9543M29.9544 52.5882H29.9543M29.9543 52.5882H29.9543M29.9543 52.5882H29.9543M29.9543 52.5882H29.9542M29.9543 52.5882H29.9542M29.9542 52.5882H29.9541M29.9542 52.5882H29.9541M29.9541 52.5882H29.9541M29.9541 52.5882H29.9541M29.9541 52.5882H29.954M29.9541 52.5882H29.954M29.954 52.5882H29.954M29.954 52.5882H29.954M29.954 52.5882H29.9539M29.954 52.5882H29.9539M29.9539 52.5882H29.9539M29.9539 52.5882H29.9539M29.9539 52.5882H29.9538M29.9539 52.5882H29.9538M29.9538 52.5882H29.9537M29.9538 52.5882H29.9537M29.9537 52.5882H29.9537M29.9537 52.5882H29.9537M29.9537 52.5882H29.9536M29.9537 52.5882H29.9536M29.9536 52.5882H29.9536M29.9536 52.5882H29.9536M29.9536 52.5882H29.9535M29.9536 52.5882H29.9535M29.9535 52.5882H29.9535M29.9535 52.5882H29.9535M29.9535 52.5882H29.9534M29.9535 52.5882H29.9534M29.9534 52.5882H29.9534M29.9534 52.5882H29.9534M29.9534 52.5882H29.9533M29.9534 52.5882H29.9533M29.9533 52.5882H29.9532M29.9533 52.5882H29.9532M29.9532 52.5882H29.9532M29.9532 52.5882H29.9532M29.9532 52.5882H29.9531M29.9532 52.5882H29.9531M29.9531 52.5882H29.9531M29.9531 52.5882H29.9531M29.9531 52.5882H29.953M29.9531 52.5882H29.953M29.953 52.5882H29.953M29.953 52.5882H29.953M29.953 52.5882H29.9529M29.953 52.5882H29.9529M29.9529 52.5882H29.9528M29.9529 52.5882H29.9528M29.9528 52.5882H29.9528M29.9528 52.5882H29.9528M29.9528 52.5882H29.9527M29.9528 52.5882H29.9527M29.9527 52.5882H29.9527M29.9527 52.5882H29.9527M29.9527 52.5882H29.9526M29.9527 52.5882H29.9526M29.9526 52.5882H29.9526M29.9526 52.5882H29.9526M29.9526 52.5882H29.9525M29.9526 52.5882H29.9525M29.9525 52.5882H29.9525M29.9525 52.5882H29.9525M29.9525 52.5882H29.9524M29.9525 52.5882H29.9524M29.9524 52.5882H29.9523M29.9524 52.5882H29.9523M29.9523 52.5882H29.9523M29.9523 52.5882H29.9523M29.9523 52.5882H29.9522M29.9523 52.5882H29.9522M29.9522 52.5882H29.9522M29.9522 52.5882H29.9522M29.9522 52.5882H29.9521M29.9522 52.5882H29.9521M29.9521 52.5882H29.9521M29.9521 52.5882H29.9521M29.9521 52.5882H29.952M29.9521 52.5882H29.952M29.952 52.5882H29.9519M29.952 52.5882H29.9519M29.9519 52.5882H29.9519M29.9519 52.5882H29.9519M29.9519 52.5882H29.9518M29.9519 52.5882H29.9518M29.9518 52.5882H29.9518M29.9518 52.5882H29.9518M29.9518 52.5882H29.9517M29.9518 52.5882H29.9517M29.9517 52.5882H29.9517M29.9517 52.5882H29.9517M29.9517 52.5882H29.9516M29.9517 52.5882H29.9516M29.9516 52.5882H29.9516M29.9516 52.5882H29.9516M29.9516 52.5882H29.9515M29.9516 52.5882H29.9515M29.9515 52.5882H29.9514M29.9515 52.5882H29.9514M29.9514 52.5882H29.9514M29.9514 52.5882H29.9514M29.9514 52.5882H29.9513M29.9514 52.5882H29.9513M29.9513 52.5882H29.9513M29.9513 52.5882H29.9513M29.9513 52.5882H29.9512M29.9513 52.5882H29.9512M29.9512 52.5882H29.9512M29.9512 52.5882H29.9512M29.9512 52.5882H29.9511M29.9512 52.5882H29.9511M29.9511 52.5882H29.9511M29.9511 52.5882H29.9511M29.9511 52.5882H29.951M29.9511 52.5882H29.951M29.951 52.5882H29.9509M29.951 52.5882H29.9509M29.9509 52.5882H29.9509M29.9509 52.5882H29.9509M29.9509 52.5882H29.9508M29.9509 52.5882H29.9508M29.9508 52.5882H29.9508M29.9508 52.5882H29.9508M29.9508 52.5882H29.9507M29.9508 52.5882H29.9507M29.9507 52.5882H29.9507M29.9507 52.5882H29.9507M29.9507 52.5882H29.9506M29.9507 52.5882H29.9506M29.9506 52.5882H29.9506M29.9506 52.5882H29.9506M29.9506 52.5882H29.9505M29.9506 52.5882H29.9505M29.9505 52.5882H29.9504M29.9505 52.5882H29.9504M29.9504 52.5882H29.9504M29.9504 52.5882H29.9504M29.9504 52.5882H29.9503M29.9504 52.5882H29.9503M29.9503 52.5882H29.9503M29.9503 52.5882H29.9503M29.9503 52.5882H29.9502M29.9503 52.5882H29.9502M29.9502 52.5882H29.9502M29.9502 52.5882H29.9502M29.9502 52.5882H29.9501M29.9502 52.5882H29.9501M29.9501 52.5882H29.9501M29.9501 52.5882H29.9501M29.9501 52.5882H29.95M29.9501 52.5882H29.95M29.95 52.5882H29.9499M29.95 52.5882H29.9499M29.9499 52.5882H29.9499M29.9499 52.5882H29.9499M29.9499 52.5882H29.9498M29.9499 52.5882H29.9498M29.9498 52.5882H29.9498M29.9498 52.5882H29.9498M29.9498 52.5882H29.9497M29.9498 52.5882H29.9497M29.9497 52.5882H29.9497M29.9497 52.5882H29.9497M29.9497 52.5882H29.9496M29.9497 52.5882H29.9496M29.9496 52.5882H29.9496M29.9496 52.5882H29.9496M29.9496 52.5882H29.9495M29.9496 52.5882H29.9495M29.9495 52.5882H29.9495M29.9495 52.5882H29.9495M29.9495 52.5882H29.9494M29.9495 52.5882H29.9494M29.9494 52.5882H29.9493M29.9494 52.5882H29.9493M29.9493 52.5882H29.9493M29.9493 52.5882H29.9493M29.9493 52.5882H29.9492M29.9493 52.5882H29.9492M29.9492 52.5882H29.9492M29.9492 52.5882H29.9492M29.9492 52.5882H29.9491M29.9492 52.5882H29.9491M29.9491 52.5882H29.9491M29.9491 52.5882H29.9491M29.9491 52.5882H29.949M29.9491 52.5882H29.949M29.949 52.5882H29.949M29.949 52.5882H29.949M29.949 52.5882H29.9489M29.949 52.5882H29.9489M29.9489 52.5882H29.9489M29.9489 52.5882H29.9489M29.9489 52.5882H29.9488M29.9489 52.5882H29.9488M29.9488 52.5882H29.9487M29.9488 52.5882H29.9487M29.9487 52.5882H29.9487M29.9487 52.5882H29.9487M29.9487 52.5882H29.9486M29.9487 52.5882H29.9486M29.9486 52.5882H29.9486M29.9486 52.5882H29.9486M29.9486 52.5882H29.9485M29.9486 52.5882H29.9485M29.9485 52.5882H29.9485M29.9485 52.5882H29.9485M29.9485 52.5882H29.9484M29.9485 52.5882H29.9484M29.9484 52.5882H29.9484M29.9484 52.5882H29.9484M29.9484 52.5882H29.9483M29.9484 52.5882H29.9483M29.9483 52.5882H29.9483M29.9483 52.5882H29.9483M29.9483 52.5882H29.9482M29.9483 52.5882H29.9482M29.9482 52.5882H29.9481M29.9482 52.5882H29.9481M29.9481 52.5882H29.9481M29.9481 52.5882H29.9481M29.9481 52.5882H29.948M29.9481 52.5882H29.948M29.948 52.5882H29.948M29.948 52.5882H29.948M29.948 52.5882H29.9479M29.948 52.5882H29.9479M29.9479 52.5882H29.9479M29.9479 52.5882H29.9479M29.9479 52.5882H29.9478M29.9479 52.5882H29.9478M29.9478 52.5882H29.9478M29.9478 52.5882H29.9478M29.9478 52.5882H29.9477M29.9478 52.5882H29.9477M29.9477 52.5882H29.9477M29.9477 52.5882H29.9477M29.9477 52.5882H29.9476M29.9477 52.5882H29.9476M29.9476 52.5882H29.9476M29.9476 52.5882H29.9476M29.9476 52.5882H29.9475M29.9476 52.5882H29.9475M29.9475 52.5882H29.9474M29.9475 52.5882H29.9474M29.9474 52.5882H29.9474M29.9474 52.5882H29.9474M29.9474 52.5882H29.9473M29.9474 52.5882H29.9473M29.9473 52.5882H29.9473M29.9473 52.5882H29.9473M29.9473 52.5882H29.9472M29.9473 52.5882H29.9472M29.9472 52.5882H29.9472M29.9472 52.5882H29.9472M29.9472 52.5882H29.9471M29.9472 52.5882H29.9471M29.9471 52.5882H29.9471M29.9471 52.5882H29.9471M29.9471 52.5882H29.947M29.9471 52.5882H29.947M29.947 52.5882H29.947M29.947 52.5882H29.947M29.947 52.5882H29.9469M29.947 52.5882H29.9469M29.9469 52.5882H29.9469M29.9469 52.5882H29.9469M29.9469 52.5882H29.9468M29.9469 52.5882H29.9468M29.9468 52.5882H29.9468M29.9468 52.5882H29.9468M29.9468 52.5882H29.9467M29.9468 52.5882H29.9467M29.9467 52.5882H29.9466M29.9467 52.5882H29.9466M29.9466 52.5882H29.9466M29.9466 52.5882H29.9466M29.9466 52.5882H29.9465M29.9466 52.5882H29.9465M29.9465 52.5882H29.9465M29.9465 52.5882H29.9465M29.9465 52.5882H29.9464M29.9465 52.5882H29.9464M29.9464 52.5882H29.9464M29.9464 52.5882H29.9464M29.9464 52.5882H29.9463M29.9464 52.5882H29.9463M29.9463 52.5882H29.9463M29.9463 52.5882H29.9463M29.9463 52.5882H29.9462M29.9463 52.5882H29.9462M29.9462 52.5882H29.9462M29.9462 52.5882H29.9462M29.9462 52.5882H29.9461M29.9462 52.5882H29.9461M29.9461 52.5882H29.9461M29.9461 52.5882H29.9461M29.9461 52.5882H29.946M29.9461 52.5882H29.946M29.946 52.5882H29.946M29.946 52.5882H29.946M29.946 52.5882H29.9459M29.946 52.5882H29.9459M29.9459 52.5882H29.9459M29.9459 52.5882H29.9459M29.9459 52.5882H29.9458M29.9459 52.5882H29.9458M29.9458 52.5882H29.9458M29.9458 52.5882H29.9458M29.9458 52.5882H29.9457M29.9458 52.5882H29.9457M29.9457 52.5882H29.9456M29.9457 52.5882H29.9456M29.9456 52.5882H29.9456M29.9456 52.5882H29.9456M29.9456 52.5882H29.9455M29.9456 52.5882H29.9455M29.9455 52.5882H29.9455M29.9455 52.5882H29.9455M29.9455 52.5882H29.9454M29.9455 52.5882H29.9454M29.9454 52.5882H29.9454M29.9454 52.5882H29.9454M29.9454 52.5882H29.9453M29.9454 52.5882H29.9453M29.9453 52.5882H29.9453M29.9453 52.5882H29.9453M29.9453 52.5882H29.9452M29.9453 52.5882H29.9452M29.9452 52.5882H29.9452M29.9452 52.5882H29.9452M29.9452 52.5882H29.9451M29.9452 52.5882H29.9451M29.9451 52.5882H29.9451M29.9451 52.5882H29.9451M29.9451 52.5882H29.945M29.9451 52.5882H29.945M29.945 52.5882H29.945M29.945 52.5882H29.945M29.945 52.5882H29.9449M29.945 52.5882H29.9449M29.9449 52.5882H29.9449M29.9449 52.5882H29.9449M29.9449 52.5882H29.9448M29.9449 52.5882H29.9448M29.9448 52.5882H29.9448M29.9448 52.5882H29.9448M29.9448 52.5882H29.9447M29.9448 52.5882H29.9447M29.9447 52.5882H29.9447M29.9447 52.5882H29.9447M29.9447 52.5882H29.9446M29.9447 52.5882H29.9446M29.9446 52.5882H29.9446M29.9446 52.5882H29.9446M29.9446 52.5882H29.9445M29.9446 52.5882H29.9445M29.9445 52.5882H29.9444M29.9445 52.5882H29.9444M29.9444 52.5882H29.9444M29.9444 52.5882H29.9444M29.9444 52.5882H29.9443M29.9444 52.5882H29.9443M29.9443 52.5882H29.9443M29.9443 52.5882H29.9443M29.9443 52.5882H29.9442M29.9443 52.5882H29.9442M29.9442 52.5882H29.9442M29.9442 52.5882H29.9442M29.9442 52.5882H29.9441M29.9442 52.5882H29.9441M29.9441 52.5882H29.9441M29.9441 52.5882H29.9441M29.9441 52.5882H29.944M29.9441 52.5882H29.944M29.944 52.5882H29.944M29.944 52.5882H29.944M29.944 52.5882H29.9439M29.944 52.5882H29.9439M29.9439 52.5882H29.9439M29.9439 52.5882H29.9439M29.9439 52.5882H29.9438M29.9439 52.5882H29.9438M29.9438 52.5882H29.9438M29.9438 52.5882H29.9438M29.9438 52.5882H29.9437M29.9438 52.5882H29.9437M29.9437 52.5882H29.9437M29.9437 52.5882H29.9437M29.9437 52.5882H29.9436M29.9437 52.5882H29.9436M29.9436 52.5882H29.9436M29.9436 52.5882H29.9436M29.9436 52.5882H29.9435M29.9436 52.5882H29.9435M29.9435 52.5882H29.9435M29.9435 52.5882H29.9435M29.9435 52.5882H29.9434M29.9435 52.5882H29.9434M29.9434 52.5882H29.9434M29.9434 52.5882H29.9434M29.9434 52.5882H29.9433M29.9434 52.5882H29.9433M29.9433 52.5882H29.9433M29.9433 52.5882H29.9433M29.9433 52.5882H29.9432M29.9433 52.5882H29.9432M29.9432 52.5882H29.9432M29.9432 52.5882H29.9432M29.9432 52.5882H29.9431M29.9432 52.5882H29.9431M29.9431 52.5882H29.9431M29.9431 52.5882H29.9431M29.9431 52.5882H29.943M29.9431 52.5882H29.943M29.943 52.5882H29.943M29.943 52.5882H29.943M29.943 52.5882H29.9429M29.943 52.5882H29.9429M29.9429 52.5882H29.9429M29.9429 52.5882H29.9429M29.9429 52.5882H29.9428M29.9429 52.5882H29.9428M29.9428 52.5882H29.9428M29.9428 52.5882H29.9428M29.9428 52.5882H29.9427M29.9428 52.5882H29.9427M29.9427 52.5882H29.9427M29.9427 52.5882H29.9427M29.9427 52.5882H29.9426M29.9427 52.5882H29.9426M29.9426 52.5882H29.9426M29.9426 52.5882H29.9426M29.9426 52.5882H29.9425M29.9426 52.5882H29.9425M29.9425 52.5882H29.9425M29.9425 52.5882H29.9425M29.9425 52.5882H29.9424M29.9425 52.5882H29.9424M29.9424 52.5882H29.9424M29.9424 52.5882H29.9424M29.9424 52.5882H29.9423M29.9424 52.5882H29.9423M29.9423 52.5882H29.9423M29.9423 52.5882H29.9423M29.9423 52.5882H29.9422M29.9423 52.5882H29.9422M29.9422 52.5882H29.9422M29.9422 52.5882H29.9422M29.9422 52.5882H29.9421M29.9422 52.5882H29.9421M29.9421 52.5882H29.9421M29.9421 52.5882H29.9421M29.9421 52.5882H29.942M29.9421 52.5882H29.942M29.942 52.5882H29.942M29.942 52.5882H29.942M29.942 52.5882H29.9419M29.942 52.5882H29.9419M29.9419 52.5882H29.9419M29.9419 52.5882H29.9419M29.9419 52.5882H29.9418M29.9419 52.5882H29.9418M29.9418 52.5882H29.9418M29.9418 52.5882H29.9418M29.9418 52.5882H29.9417M29.9418 52.5882H29.9417M29.9417 52.5882H29.9417M29.9417 52.5882H29.9417M29.9417 52.5882H29.9416M29.9417 52.5882H29.9416M29.9416 52.5882H29.9416M29.9416 52.5882H29.9416M29.9416 52.5882H29.9415M29.9416 52.5882H29.9415M29.9415 52.5882H29.9415M29.9415 52.5882H29.9415M29.9415 52.5882H29.9414M29.9415 52.5882H29.9414M29.9414 52.5882H29.9414M29.9414 52.5882H29.9414M29.9414 52.5882H29.9413M29.9414 52.5882H29.9413M29.9413 52.5882H29.9413M29.9413 52.5882H29.9413M29.9413 52.5882H29.9412M29.9413 52.5882H29.9412M29.9412 52.5882H29.9412M29.9412 52.5882H29.9412M29.9412 52.5882H29.9411M29.9412 52.5882H29.9411M29.9411 52.5882H29.9411M29.9411 52.5882H29.9411M29.9411 52.5882H29.941M29.9411 52.5882H29.941M29.941 52.5882H29.941M29.941 52.5882H29.941M29.941 52.5882H29.9409M29.941 52.5882H29.9409M29.9409 52.5882H29.9409M29.9409 52.5882H29.9409M29.9409 52.5882H29.9409M29.9409 52.5882H29.9409M29.9409 52.5882H29.9408M29.9409 52.5882H29.9408M29.9408 52.5882H29.9408M29.9408 52.5882H29.9408M29.9408 52.5882H29.9407M29.9408 52.5882H29.9407M29.9407 52.5882H29.9407M29.9407 52.5882H29.9407M29.9407 52.5882H29.9406M29.9407 52.5882H29.9406M29.9406 52.5882H29.9406M29.9406 52.5882H29.9406M29.9406 52.5882H29.9405M29.9406 52.5882H29.9405M29.9405 52.5882H29.9405M29.9405 52.5882H29.9405M29.9405 52.5882H29.9404M29.9405 52.5882H29.9404M29.9404 52.5882H29.9404M29.9404 52.5882H29.9404M29.9404 52.5882H29.9403M29.9404 52.5882H29.9403M29.9403 52.5882H29.9403M29.9403 52.5882H29.9403M29.9403 52.5882H29.9402M29.9403 52.5882H29.9402M29.9402 52.5882H29.9402M29.9402 52.5882H29.9402M29.9402 52.5882H29.9401M29.9402 52.5882H29.9401M29.9401 52.5882H29.9401M29.9401 52.5882H29.9401M29.9401 52.5882H29.94M29.9401 52.5882H29.94M29.94 52.5882H29.94M29.94 52.5882H29.94M29.94 52.5882H29.9399M29.94 52.5882H29.9399M29.9399 52.5882H29.9399M29.9399 52.5882H29.9399M29.9399 52.5882H29.9398M29.9399 52.5882H29.9398M29.9398 52.5882H29.9398M29.9398 52.5882H29.9398M29.9398 52.5882H29.9398M29.9398 52.5882H29.9398M29.9398 52.5882H29.9397M29.9398 52.5882H29.9397M29.9397 52.5882H29.9397M29.9397 52.5882H29.9397M29.9397 52.5882H29.9396M29.9397 52.5882H29.9396M29.9396 52.5882H29.9396M29.9396 52.5882H29.9396M29.9396 52.5882H29.9395M29.9396 52.5882H29.9395M29.9395 52.5882H29.9395M29.9395 52.5882H29.9395M29.9395 52.5882H29.9394M29.9395 52.5882H29.9394M29.9394 52.5882H29.9394M29.9394 52.5882H29.9394M29.9394 52.5882H29.9393M29.9394 52.5882H29.9393M29.9393 52.5882H29.9393M29.9393 52.5882H29.9393M29.9393 52.5882H29.9392M29.9393 52.5882H29.9392M29.9392 52.5882H29.9392M29.9392 52.5882H29.9392M29.9392 52.5882H29.9391M29.9392 52.5882H29.9391M29.9391 52.5882H29.9391M29.9391 52.5882H29.9391M29.9391 52.5882H29.939M29.9391 52.5882H29.939M29.939 52.5882H29.939M29.939 52.5882H29.939M29.939 52.5882H29.939M29.939 52.5882H29.939M29.939 52.5882H29.9389M29.939 52.5882H29.9389M29.9389 52.5882H29.9389M29.9389 52.5882H29.9389M29.9389 52.5882H29.9388M29.9389 52.5882H29.9388M29.9388 52.5882H29.9388M29.9388 52.5882H29.9388M29.9388 52.5882H29.9387M29.9388 52.5882H29.9387M29.9387 52.5882H29.9387M29.9387 52.5882H29.9387M29.9387 52.5882H29.9386M29.9387 52.5882H29.9386M29.9386 52.5882H29.9386M29.9386 52.5882H29.9386M29.9386 52.5882H29.9385M29.9386 52.5882H29.9385M29.9385 52.5882H29.9385M29.9385 52.5882H29.9385M29.9385 52.5882H29.9384M29.9385 52.5882H29.9384M29.9384 52.5882H29.9384M29.9384 52.5882H29.9384M29.9384 52.5882H29.9384M29.9384 52.5882H29.9384M29.9384 52.5882H29.9383M29.9384 52.5882H29.9383M29.9383 52.5882H29.9383M29.9383 52.5882H29.9383M29.9383 52.5882H29.9382M29.9383 52.5882H29.9382M29.9382 52.5882H29.9382H29.9382Z" fill="black" stroke="black" stroke-width="0.941176"/>
<path d="M40.4199 43.2452L40.4201 43.245C41.215 42.5932 41.722 41.8877 41.9312 41.1701C42.0034 40.919 42.0408 40.6647 42.0408 40.4082C42.0408 40.2469 42.0258 40.0873 41.9959 39.9296L41.9953 39.9264C41.8234 38.9827 41.1363 38.0517 39.967 37.2283C38.8027 36.4083 37.2036 35.7277 35.3106 35.2773L35.3105 35.2773C34.2807 35.0322 33.1662 34.856 31.993 34.7621L31.993 34.7621C31.3557 34.7111 30.7006 34.6848 30.0321 34.6848C29.3183 34.6848 28.6198 34.7156 27.941 34.7734L40.4199 43.2452ZM40.4199 43.2452C38.5641 44.7688 35.2773 45.8828 31.3839 46.0948M40.4199 43.2452L31.3839 46.0948M18.0663 39.9229L18.0661 39.9243C18.0361 40.0838 18.0211 40.2445 18.0211 40.4082C18.0211 40.6564 18.0565 40.9019 18.125 41.1458C18.3226 41.843 18.8015 42.5296 19.551 43.1677L18.0663 39.9229ZM18.0663 39.9229C18.2422 38.9712 18.9409 38.033 20.1281 37.2055M18.0663 39.9229L20.1281 37.2055M31.3839 46.0948C30.9389 46.1188 30.4897 46.1316 30.0321 46.1316H30.032H30.032H30.0319H30.0318H30.0318H30.0317H30.0317H30.0316H30.0316H30.0315H30.0315H30.0314H30.0314H30.0313H30.0313H30.0312H30.0312H30.0311H30.0311H30.031H30.031H30.0309H30.0309H30.0308H30.0308H30.0307H30.0307H30.0306H30.0306H30.0305H30.0305H30.0304H30.0303H30.0303H30.0302H30.0302H30.0301H30.0301H30.03H30.03H30.0299H30.0299H30.0298H30.0298H30.0297H30.0297H30.0296H30.0296H30.0295H30.0295H30.0294H30.0294H30.0293H30.0293H30.0292H30.0292H30.0291H30.0291H30.029H30.029H30.0289H30.0288H30.0288H30.0287H30.0287H30.0286H30.0286H30.0285H30.0285H30.0284H30.0284H30.0283H30.0283H30.0282H30.0282H30.0281H30.0281H30.028H30.028H30.0279H30.0279H30.0278H30.0278H30.0277H30.0277H30.0276H30.0276H30.0275H30.0275H30.0274H30.0274H30.0273H30.0273H30.0272H30.0271H30.0271H30.027H30.027H30.0269H30.0269H30.0268H30.0268H30.0267H30.0267H30.0266H30.0266H30.0265H30.0265H30.0264H30.0264H30.0263H30.0263H30.0262H30.0262H30.0261H30.0261H30.026H30.026H30.0259H30.0259H30.0258H30.0258H30.0257H30.0257H30.0256H30.0256H30.0255H30.0255H30.0254H30.0254H30.0253H30.0253H30.0252H30.0252H30.0251H30.0251H30.025H30.025H30.0249H30.0248H30.0248H30.0247H30.0247H30.0246H30.0246H30.0245H30.0245H30.0244H30.0244H30.0243H30.0243H30.0242H30.0242H30.0241H30.0241H30.024H30.024H30.0239H30.0239H30.0238H30.0238H30.0237H30.0237H30.0236H30.0236H30.0235H30.0235H30.0234H30.0234H30.0233H30.0233H30.0232H30.0232H30.0231H30.0231H30.023H30.023H30.0229H30.0229H30.0228H30.0228H30.0227H30.0227H30.0226H30.0226H30.0225H30.0225H30.0224H30.0224H30.0223H30.0223H30.0222H30.0222H30.0221H30.0221H30.022H30.022H30.0219H30.0219H30.0218H30.0218H30.0217H30.0217H30.0216H30.0216H30.0215H30.0215H30.0214H30.0214H30.0213H30.0213H30.0212H30.0212H30.0211H30.0211H30.021H30.021H30.0209H30.0209H30.0208H30.0208H30.0207H30.0207H30.0206H30.0206H30.0205H30.0205H30.0204H30.0204H30.0203H30.0203H30.0202H30.0202H30.0201H30.0201H30.02H30.02H30.0199H30.0199H30.0198H30.0198H30.0198H30.0197H30.0197H30.0196H30.0196H30.0195H30.0195H30.0194H30.0194H30.0193H30.0193H30.0192H30.0192H30.0191H30.0191H30.019H30.019H30.0189H30.0189H30.0188H30.0188H30.0187H30.0187H30.0186H30.0186H30.0185H30.0185H30.0184H30.0184H30.0183H30.0183H30.0182H30.0182H30.0182H30.0181H30.0181H30.018H30.018H30.0179H30.0179H30.0178H30.0178H30.0177H30.0177H30.0176H30.0176H30.0175H30.0175H30.0174H30.0174H30.0173H30.0173H30.0172H30.0172H30.0171H30.0171H30.0171H30.017H30.017H30.0169H30.0169H30.0168H30.0168H30.0167H30.0167H30.0166H30.0166H30.0165H30.0165H30.0164H30.0164H30.0163H30.0163H30.0163H30.0162H30.0162H30.0161H30.0161H30.016H30.016H30.0159H30.0159H30.0158H30.0158H30.0157H30.0157H30.0156H30.0156H30.0156H30.0155H30.0155H30.0154H30.0154H30.0153H30.0153H30.0152H30.0152H30.0151H30.0151H30.015H30.015H30.0149H30.0149H30.0149H30.0148H30.0148H30.0147H30.0147H30.0146H30.0146H30.0145H30.0145H30.0144H30.0144H30.0144H30.0143H30.0143H30.0142H30.0142H30.0141H30.0141H30.014H30.014H30.0139H30.0139H30.0139H30.0138H30.0138H30.0137H30.0137H30.0136H30.0136H30.0135H30.0135H30.0135H30.0134H30.0134H30.0133H30.0133H30.0132H30.0132H30.0131H30.0131H30.013H30.013H30.013H30.0129H30.0129H30.0128H30.0128H30.0127H30.0127H30.0127H30.0126H30.0126H30.0125H30.0125H30.0124H30.0124H30.0123H30.0123H30.0123H30.0122H30.0122H30.0121H30.0121H30.012H30.012H30.0119H30.0119H30.0119H30.0118H30.0118H30.0117H30.0117H30.0116H30.0116H30.0116H30.0115H30.0115H30.0114H30.0114H30.0113H30.0113H30.0113H30.0112H30.0112H30.0111H30.0111H30.011H30.011H30.011H30.0109H30.0109H30.0108H30.0108H30.0107H30.0107H30.0107H30.0106H30.0106H30.0105H30.0105H30.0105H30.0104H30.0104H30.0103H30.0103H30.0102H30.0102H30.0102H30.0101H30.0101H30.01H30.01H30.01H30.0099H30.0099H30.0098H30.0098H30.0097H30.0097H30.0097H30.0096H30.0096H30.0095H30.0095H30.0095H30.0094H30.0094H30.0093H30.0093H30.0093H30.0092H30.0092H30.0091H30.0091H30.009H30.009H30.009H30.0089H30.0089H30.0088H30.0088H30.0088H30.0087H30.0087H30.0086H30.0086H30.0086H30.0085H30.0085H30.0084H30.0084H30.0084H30.0083H30.0083H30.0082H30.0082C25.4779 46.1271 21.5942 44.9049 19.5511 43.1678L31.3839 46.0948ZM20.1281 37.2055C21.3101 36.3816 22.9323 35.7005 24.8506 35.2549M20.1281 37.2055L24.8506 35.2549M24.8506 35.2549C25.8159 35.0307 26.8525 34.8665 27.9409 34.7734L24.8506 35.2549Z" fill="#CAC9C9" stroke="black" stroke-width="0.941176"/>
<path fill-rule="evenodd" clip-rule="evenodd" d="M32.4173 15.515C40.579 16.3716 46.9044 22.4484 46.9044 29.8156C46.9044 30.2968 46.8779 30.7744 46.8247 31.2451C46.8207 31.2811 46.7885 31.3098 46.7473 31.314C46.1132 31.3792 45.4668 31.4117 44.8122 31.4117C38.6837 31.4117 33.3374 28.4844 30.5009 24.1424C30.4665 24.0897 30.379 24.0897 30.3445 24.1424C27.508 28.4844 22.1617 31.4117 16.0332 31.4117C15.3875 31.4117 14.7479 31.3792 14.1205 31.3158C14.0793 31.3117 14.047 31.283 14.0429 31.2469C13.9898 30.7763 13.9633 30.2986 13.9633 29.8156C13.9633 22.4542 20.2775 16.3833 28.4281 15.5169C28.4281 15.5169 28.4281 15.5169 28.4281 15.5169C28.4281 15.5169 28.4282 15.5169 28.4282 15.5168C29.0848 15.4468 29.7547 15.4117 30.4336 15.4117C31.1035 15.4117 31.7668 15.4468 32.4168 15.5149C32.4169 15.5149 32.4171 15.5149 32.4173 15.515Z" fill="white"/>
<path fill-rule="evenodd" clip-rule="evenodd" d="M30.5856 26.4326C33.4946 30.961 38.5415 34.1796 44.3243 34.1796C44.5346 34.1796 46.3078 34.313 46.3331 34.0568C46.3859 33.5224 46.4371 32.6955 46.4371 32.149C46.4371 23.7818 40.1546 16.8801 32.0483 15.9072C31.4027 15.8298 30.7434 15.79 30.078 15.79C29.4038 15.79 28.7384 15.8298 28.0862 15.9094C19.991 16.8934 13.7195 23.7884 13.7195 32.149C13.7195 32.6976 13.7459 33.2401 13.7986 33.7745C13.8236 34.0276 15.5426 34.1796 15.7754 34.1796C21.5582 34.1796 26.6398 30.961 29.5489 26.4326C29.5604 26.4147 29.5719 26.3967 29.5834 26.3786C30.1075 25.5557 30.2761 25.9469 30.5511 26.3786C30.5625 26.3967 30.574 26.4147 30.5856 26.4326ZM31.9432 16.7823C31.3324 16.7091 30.7084 16.6713 30.078 16.6713C29.442 16.6713 28.8158 16.7086 28.2034 16.7829C28.1998 16.7834 28.1961 16.7839 28.1925 16.7843C20.5341 17.7152 14.6008 24.2395 14.6008 32.149C14.6008 32.4479 14.6091 32.7445 14.6255 33.0385C15.0054 33.0663 15.3892 33.0805 15.7754 33.0805C21.5332 33.0805 26.5575 29.9366 29.2243 25.2686C29.5968 24.6165 30.5376 24.6165 30.9102 25.2686C33.577 29.9366 36.3417 32.2642 42.0995 32.2642C42.4943 32.2642 45.1447 33.0661 45.531 33.0374C45.5475 32.7433 45.5557 32.4469 45.5557 32.149C45.5557 24.2333 39.6116 17.7028 31.9432 16.7823Z" fill="black"/>
<path d="M15.4087 31.9444C17.1048 26.5244 22.4997 20.6545 27.0545 17.582C27.1445 17.5213 27.0781 17.3809 26.9746 17.4133C20.279 19.5097 16.0097 24.1508 15.1926 31.9044C15.1804 32.0201 15.3739 32.0555 15.4087 31.9444Z" fill="#CAC9C9"/>
<path d="M16.326 39.0931C15.9977 38.7056 15.1765 36.0658 15.036 34.6397C15.0328 34.6074 15.0472 34.5738 15.0795 34.5709C15.2204 34.5584 15.4744 34.7949 15.5935 34.9902C15.7257 35.2069 16.3067 37.2412 16.628 38.5159C16.6379 38.5551 16.6252 38.6009 16.611 38.6388C16.5622 38.7681 16.5081 39.0634 16.3852 39.1116C16.3637 39.12 16.3409 39.1108 16.326 39.0931Z" fill="#CAC9C9"/>
<path d="M16.3161 36.1177C11.3937 31.3659 16.5117 23.8503 18.6761 22.0734C20.1073 20.9362 21.5036 18.2354 31.9769 18.2354C41.0059 18.2353 42.136 23.3528 44.0212 24.7743C45.9064 26.1958 46.9044 27.9419 46.9044 31.505C46.9044 35.0681 43.8042 37.5732 44.0212 36.9688C45.9832 31.505 38.7831 31.904 36.6306 32.217C31.216 33.0044 29.7392 33.4037 24.8168 32.217C21.8633 31.505 13.3627 28.99 16.3161 36.1177Z" fill="white" stroke="black" stroke-width="0.941176"/>
<path d="M26.6978 18.5156C26.8795 18.3222 28.3377 17.4389 29.0276 17.671C29.89 17.9611 30.5905 17.7169 30.6813 17.5384C30.7722 17.3599 31.9074 17.0922 32.1799 17.5384C32.4523 17.9846 33.6136 17.3808 34.3402 17.671C35.0667 17.9611 34.7489 18.1843 35.0213 18.3628C35.2393 18.5057 36.4139 18.7794 36.974 18.8984" stroke="black" stroke-width="0.941176"/>
<path d="M21.5874 19.2052C21.7692 19.0118 23.2274 18.1284 23.9173 18.3606C24.7797 18.6507 25.4802 18.4065 25.571 18.228C25.6618 18.0495 26.797 17.7818 27.0695 18.228C27.342 18.6742 28.5033 18.0704 29.2298 18.3606C29.9564 18.6507 29.6385 18.8739 29.911 19.0524C30.1289 19.1952 31.3036 19.469 31.8636 19.588" stroke="black" stroke-width="0.941176"/>
<path d="M21.425 30.4848C20.7114 30.5376 20.5556 29.9431 20.5669 29.6393L22.0817 29.7301C22.0523 29.9875 22.1387 30.432 21.425 30.4848Z" fill="#CAC9C9"/>
<path d="M18.6016 28.6041C17.8879 28.6569 17.7321 28.0624 17.7434 27.7586L19.2657 27.7586C19.2363 28.0159 19.3152 28.5513 18.6016 28.6041Z" fill="#CAC9C9"/>
<path d="M16.2133 30.2058C15.7747 30.2383 15.679 29.873 15.6859 29.6862L16.8156 29.6908C16.7975 29.849 16.6518 30.1734 16.2133 30.2058Z" fill="#CAC9C9"/>
<path d="M42.4822 31.479C42.0437 31.5114 41.9479 31.1461 41.9548 30.9594L43.0845 30.964C43.0664 31.1221 42.9207 31.4465 42.4822 31.479Z" fill="#CAC9C9"/>
<path d="M28.1448 28.7747C27.3238 28.8354 27.1445 28.1514 27.1574 27.8018L29.2726 27.8105C29.2388 28.1066 28.9659 28.7139 28.1448 28.7747Z" fill="#CAC9C9"/>
<path d="M30.9224 30.4893C30.1014 30.5501 29.9703 30.0048 29.9833 29.6552L31.7006 29.6552C31.6667 29.9513 31.7435 30.4286 30.9224 30.4893Z" fill="#CAC9C9"/>
<path d="M38.2943 29.6703C37.5807 29.7231 37.5077 29.0193 37.519 28.7155L38.6302 28.7155L39.2745 28.8322C39.2451 29.0896 39.0079 29.6175 38.2943 29.6703Z" fill="#CAC9C9"/>
<path d="M15.9376 36.3996C14.7217 37.1872 13.4091 38.8107 14.9044 44.1176C16.7606 50.7059 23.8455 54 30.9044 54C37.9632 54 43.2443 48.8235 44.0809 45.0588C44.5853 42.7889 44.85 39.7139 44.2638 37.8166C44.0763 37.2098 43.4202 37.397 43.3047 38.0215C42.6177 41.7366 40.4937 43.7007 30.9044 44.1176C18.3239 44.6646 17.9056 40.428 17.0114 36.8463C16.893 36.3722 16.3478 36.1339 15.9376 36.3996Z" fill="white" stroke="black" stroke-width="0.941176"/>
<path d="M17.5972 45.8489C16.9352 45.9186 16.7906 45.1341 16.8011 44.7332L18.2063 44.853C18.1791 45.1926 18.2592 45.7793 17.5972 45.8489Z" fill="#CAC9C9"/>
<path d="M20.4207 47.7334C19.7587 47.803 19.6141 47.0186 19.6246 46.6176L21.0368 46.6176C21.0096 46.9572 21.0827 47.6637 20.4207 47.7334Z" fill="#CAC9C9"/>
<path d="M16.7307 42.8122C16.3239 42.855 16.2351 42.373 16.2415 42.1266L17.2895 42.1326C17.2727 42.3413 17.1375 42.7694 16.7307 42.8122Z" fill="#CAC9C9"/>
<path d="M24.2422 50.8364C23.4805 50.9166 23.3142 50.014 23.3262 49.5527L25.2884 49.5641C25.257 49.9548 25.0038 50.7563 24.2422 50.8364Z" fill="#CAC9C9"/>
<path d="M33.7492 48.2162C32.9875 48.2963 32.8659 47.5768 32.878 47.1155L34.471 47.1155C34.4397 47.5062 34.5108 48.1361 33.7492 48.2162Z" fill="#CAC9C9"/>
<path d="M32.0568 51.3236C31.3948 51.3933 31.2502 50.6088 31.2607 50.2079L32.9661 50.2178C32.9388 50.5574 32.7188 51.254 32.0568 51.3236Z" fill="#CAC9C9"/>
<path d="M37.0239 49.736C36.3619 49.8057 36.2942 48.877 36.3047 48.4761L37.3355 48.4761L37.9333 48.6302C37.906 48.9697 37.6859 49.6664 37.0239 49.736Z" fill="#CAC9C9"/>
<path d="M41.0598 45.0749C40.3978 45.1446 40.3301 44.2159 40.3406 43.815L41.3714 43.815L41.9691 43.9691C41.9419 44.3087 41.7218 45.0053 41.0598 45.0749Z" fill="#CAC9C9"/>
<path d="M13.9794 23.9583C13.6342 23.3973 18.9174 18.6758 21.1201 16.9524C21.5807 16.592 22.1952 16.741 22.4953 17.2429C20.7277 18.9425 14.3057 24.4886 13.9794 23.9583Z" fill="white" stroke="black" stroke-width="0.941176"/>
<path d="M14.0199 27.9987C13.1532 26.7751 22.9044 15.8824 22.7333 16.3529L23.8557 17.0157C22.0031 19.7521 14.7132 28.9777 14.0199 27.9987Z" fill="white" stroke="black" stroke-width="0.941176"/>
</g>
<g filter="url(#filter1_d_1241_7769)">
<path d="M19.8106 24.0773C18.5111 23.7192 23.948 16.566 24.1737 16.1284L25.6991 16.4069L21.4488 23.759C21.3359 23.9845 20.8502 24.3638 19.8106 24.0773Z" fill="white" stroke="black" stroke-width="0.941176"/>
<path d="M34.0556 24.8463C33.3325 24.6965 30.8489 18.5692 29.6975 15.5243C29.5586 15.1589 31.0796 15.0377 31.5048 15.0377C31.93 15.0377 35.7035 23.0118 35.9161 23.9852C36.1287 24.9586 34.9594 25.0335 34.0556 24.8463Z" fill="white" stroke="black" stroke-width="0.941176"/>
<path d="M29.0706 23.9425C28.567 23.743 28.2692 19.8442 28.1389 16.9651C28.1003 16.1143 28.7844 15.4117 29.6361 15.4117C30.3116 18.2553 31.6247 23.9956 31.474 24.2081C31.2855 24.4737 29.8246 24.2413 29.0706 23.9425Z" fill="white" stroke="black" stroke-width="0.941176"/>
<path d="M47.6512 19.8738C47.2626 20.0112 37.7018 16.8501 35.1268 15.9242L35.5553 15.3555C38.3874 16.0978 48.4043 18.9584 48.5605 19.0874C48.7557 19.2487 48.137 19.702 47.6512 19.8738Z" fill="white" stroke="black" stroke-width="0.941176"/>
<path d="M41.3984 24.613C40.6866 24.5126 39.5588 21.8401 39.0839 20.5164H40.6859C41.7343 21.7844 43.7599 24.3789 43.4751 24.613C43.119 24.9056 42.2882 24.7384 41.3984 24.613Z" fill="white" stroke="black" stroke-width="0.941176"/>
<path d="M47.9703 26.5019C46.9872 26.3737 43.1928 22.2607 41.4185 20.2203L42.5107 19.451C44.6492 21.4168 49.008 25.4187 49.3356 25.7007C49.7451 26.0533 49.1991 26.6622 47.9703 26.5019Z" fill="white" stroke="black" stroke-width="0.941176"/>
<path d="M49.9275 22.5279C49.8914 22.1433 45.5142 19.9746 43.3301 18.9383L42.3743 19.6434C44.3004 20.8933 48.2437 23.4124 48.6077 23.4893C49.0627 23.5855 49.9727 23.0086 49.9275 22.5279Z" fill="white" stroke="black" stroke-width="0.941176"/>
<path d="M37.0585 23.2203C36.9875 21.7202 33.7158 17.3448 32.0888 15.3446C31.8523 15.0737 31.9295 14.6946 34.1301 15.3446C36.881 16.1571 41.4953 23.2203 41.4953 23.7829C41.4953 24.3455 37.1472 25.0955 37.0585 23.2203Z" fill="white" stroke="black" stroke-width="0.941176"/>
<path fill-rule="evenodd" clip-rule="evenodd" d="M28.8965 15.658C29.1205 15.6364 29.1909 15.7653 29.2215 15.9231L30.4119 21.3287C30.4426 21.4865 30.2859 21.6319 30.0619 21.6535C29.8379 21.6751 30.0253 21.4626 29.9947 21.3048L28.7628 16.1172C28.7321 15.9594 28.6725 15.6796 28.8965 15.658Z" fill="#CAC9C9"/>
<path d="M25.0043 26.2206C24.3282 26.1796 24.406 23.955 24.5294 22.8479L25.0043 17.0268L27.2223 15.8823C27.2223 15.8823 27.533 25.2662 27.2223 25.7096C26.9117 26.1531 25.6804 26.2615 25.0043 26.2206Z" fill="white" stroke="black" stroke-width="0.941176"/>
<path d="M23.3132 23.4408C22.7499 23.3084 23.6316 21.0011 23.9114 19.977C23.9781 19.7329 24.1777 19.4978 24.424 19.44C24.7263 19.369 25.0178 19.5915 25.0269 19.902C25.0583 20.9734 25.1078 23.1351 25.0078 23.4408C24.8739 23.8496 23.8549 23.568 23.3132 23.4408Z" fill="white" stroke="black" stroke-width="0.941176"/>
<path d="M29.5647 23.2881C30.3897 22.8917 28.3825 15.3425 28.073 15.353C27.7635 15.3635 26.9865 17.7064 26.9865 17.7064C27.0801 19.644 27.2769 23.5656 27.3144 23.7505C27.3613 23.9817 28.5333 23.7836 29.5647 23.2881Z" fill="white" stroke="black" stroke-width="0.941176"/>
<path fill-rule="evenodd" clip-rule="evenodd" d="M26.3351 17.2435C26.5611 17.2435 26.606 17.428 26.606 17.6466L26.7444 25.1559C26.7444 25.3746 26.5611 25.5518 26.3351 25.5518C26.109 25.5518 26.3356 25.2873 26.3356 25.0686L26.1141 17.8505C26.1141 17.6319 26.109 17.2435 26.3351 17.2435Z" fill="#CAC9C9"/>
<path fill-rule="evenodd" clip-rule="evenodd" d="M38.3479 20.54C38.5625 20.5906 38.7963 20.5427 38.887 20.6886L40.7562 23.5466C40.8468 23.6925 40.5935 23.7497 40.3864 23.8135C40.1793 23.8773 39.8593 23.6925 39.7687 23.5466L37.555 20.4275C37.4644 20.2817 37.925 20.4404 38.3479 20.54Z" fill="#CAC9C9"/>
</g>
<defs>
<filter id="filter0_d_1241_7769" x="12.5515" y="15.4117" width="34.8235" height="40.4706" filterUnits="userSpaceOnUse" color-interpolation-filters="sRGB">
<feFlood flood-opacity="0" result="BackgroundImageFix"/>
<feColorMatrix in="SourceAlpha" type="matrix" values="0 0 0 0 0 0 0 0 0 0 0 0 0 0 0 0 0 0 127 0" result="hardAlpha"/>
<feOffset dx="-0.941176" dy="1.41176"/>
<feComposite in2="hardAlpha" operator="out"/>
<feColorMatrix type="matrix" values="0 0 0 0 0 0 0 0 0 0 0 0 0 0 0 0 0 0 0.25 0"/>
<feBlend mode="normal" in2="BackgroundImageFix" result="effect1_dropShadow_1241_7769"/>
<feBlend mode="normal" in="SourceGraphic" in2="effect1_dropShadow_1241_7769" result="shape"/>
</filter>
<filter id="filter1_d_1241_7769" x="18.1985" y="14.5151" width="32.2013" height="13.4248" filterUnits="userSpaceOnUse" color-interpolation-filters="sRGB">
<feFlood flood-opacity="0" result="BackgroundImageFix"/>
<feColorMatrix in="SourceAlpha" type="matrix" values="0 0 0 0 0 0 0 0 0 0 0 0 0 0 0 0 0 0 127 0" result="hardAlpha"/>
<feOffset dx="-0.941176" dy="0.941176"/>
<feComposite in2="hardAlpha" operator="out"/>
<feColorMatrix type="matrix" values="0 0 0 0 0 0 0 0 0 0 0 0 0 0 0 0 0 0 0.25 0"/>
<feBlend mode="normal" in2="BackgroundImageFix" result="effect1_dropShadow_1241_7769"/>
<feBlend mode="normal" in="SourceGraphic" in2="effect1_dropShadow_1241_7769" result="shape"/>
</filter>
</defs>
</svg>
