<svg width="61" height="61" viewBox="0 0 61 61" fill="none" xmlns="http://www.w3.org/2000/svg">
<circle cx="30.0001" cy="30.6275" r="29.0001" fill="white" stroke="white" stroke-width="2"/>
<g filter="url(#filter0_d_1241_5652)">
<path d="M44.999 17.2612C44.999 19.1917 43.4753 21.0643 40.7295 22.484C38.0091 23.8905 34.2161 24.7754 29.999 24.7754C25.782 24.7754 21.989 23.8905 19.2685 22.484C16.5227 21.0643 14.999 19.1917 14.999 17.2612C14.999 15.3308 16.5227 13.4582 19.2685 12.0385C21.989 10.6319 25.782 9.74707 29.999 9.74707C34.2161 9.74707 38.0091 10.6319 40.7295 12.0385C43.4753 13.4582 44.999 15.3308 44.999 17.2612Z" stroke="black"/>
<path d="M23.4668 46.4597V30.9274L30.4105 26.2372L37.6816 30.934V46.4471L30.2633 51.3024L23.4668 46.4597Z" fill="white" stroke="black"/>
<path d="M30.501 26.3992V51.0208" stroke="black"/>
<path d="M26.6709 43.2748V34.5048L30.4821 31.9305L34.4775 34.5114V43.2622L30.3993 45.9314L26.6709 43.2748Z" fill="white" stroke="black"/>
<circle cx="30.499" cy="24.2524" r="1.5" fill="#CAC9C9" stroke="black"/>
<path d="M24.5358 31.3747L28.9714 28.4963C29.1045 28.41 29.2803 28.5055 29.2803 28.6641V30.243C29.2803 30.3157 29.2409 30.3827 29.1773 30.4179L25.3158 32.5595C25.2586 32.5912 25.2207 32.6472 25.2138 32.7122C25.1416 33.3931 24.7207 37.2445 24.4502 37.1823C24.1767 37.1194 24.4076 32.2825 24.4452 31.5285C24.4484 31.4645 24.482 31.4095 24.5358 31.3747Z" fill="#CAC9C9"/>
<path d="M27.8232 35.1729L29.5482 33.8794C29.68 33.7805 29.8682 33.8746 29.8682 34.0394V43.6732C29.8682 43.8441 29.6675 43.9363 29.5378 43.8249L27.8128 42.3431C27.7686 42.3051 27.7432 42.2497 27.7432 42.1914V35.3329C27.7432 35.27 27.7728 35.2107 27.8232 35.1729Z" fill="#CAC9C9"/>
</g>
<circle cx="50" cy="50.6274" r="9.6" fill="#CAC9C9" stroke="white" stroke-width="1.2"/>
<circle cx="50" cy="50.6274" r="8.4" fill="black" stroke="black" stroke-width="1.2"/>
<path d="M45.9805 55.6274V45.4456H50.3952C51.1708 45.4456 51.8221 45.55 52.3491 45.7588C52.8794 45.9676 53.2788 46.2626 53.5472 46.6438C53.819 47.0249 53.9549 47.474 53.9549 47.9911C53.9549 48.3656 53.872 48.707 53.7063 49.0152C53.5439 49.3235 53.3152 49.582 53.0202 49.7908C52.7253 49.9963 52.3806 50.1388 51.9862 50.2184V50.3178C52.4237 50.3344 52.8214 50.4454 53.1793 50.6509C53.5373 50.8531 53.8223 51.1331 54.0344 51.4911C54.2466 51.8457 54.3526 52.2633 54.3526 52.7439C54.3526 53.3007 54.2068 53.7962 53.9151 54.2304C53.6268 54.6646 53.2158 55.006 52.6822 55.2546C52.1486 55.5032 51.5122 55.6274 50.7731 55.6274H45.9805ZM48.7447 53.4201H50.0373C50.5013 53.4201 50.8493 53.3339 51.0813 53.1615C51.3133 52.9859 51.4293 52.7273 51.4293 52.386C51.4293 52.1473 51.3746 51.9451 51.2653 51.7794C51.1559 51.6137 51.0001 51.4878 50.7979 51.4016C50.5991 51.3154 50.3588 51.2723 50.0771 51.2723H48.7447V53.4201ZM48.7447 49.5621H49.8782C50.1201 49.5621 50.3339 49.524 50.5195 49.4478C50.7051 49.3715 50.8493 49.2621 50.9521 49.1196C51.0581 48.9738 51.1112 48.7965 51.1112 48.5877C51.1112 48.2728 50.9985 48.0325 50.7731 47.8668C50.5477 47.6978 50.2627 47.6132 49.918 47.6132H48.7447V49.5621Z" fill="white"/>
<defs>
<filter id="filter0_d_1241_5652" x="13.499" y="9.24707" width="32" height="44.1607" filterUnits="userSpaceOnUse" color-interpolation-filters="sRGB">
<feFlood flood-opacity="0" result="BackgroundImageFix"/>
<feColorMatrix in="SourceAlpha" type="matrix" values="0 0 0 0 0 0 0 0 0 0 0 0 0 0 0 0 0 0 127 0" result="hardAlpha"/>
<feOffset dx="-1" dy="1.5"/>
<feComposite in2="hardAlpha" operator="out"/>
<feColorMatrix type="matrix" values="0 0 0 0 0 0 0 0 0 0 0 0 0 0 0 0 0 0 0.25 0"/>
<feBlend mode="normal" in2="BackgroundImageFix" result="effect1_dropShadow_1241_5652"/>
<feBlend mode="normal" in="SourceGraphic" in2="effect1_dropShadow_1241_5652" result="shape"/>
</filter>
</defs>
</svg>
