<svg width="61" height="61" viewBox="0 0 61 61" fill="none" xmlns="http://www.w3.org/2000/svg">
<circle cx="30.1052" cy="30.5235" r="29.0001" fill="white" stroke="white" stroke-width="2"/>
<g filter="url(#filter0_d_1241_6151)">
<path d="M9.66271 18.5628C9.22794 16.7579 10.3387 14.9423 12.1436 14.5075L37.2088 8.46985C39.0137 8.03508 40.8293 9.14582 41.2641 10.9508L47.9486 38.7014C48.3834 40.5064 47.2727 42.322 45.4677 42.7568L20.4026 48.7944C18.5977 49.2292 16.782 48.1184 16.3472 46.3135L9.66271 18.5628Z" fill="url(#paint0_radial_1241_6151)"/>
<mask id="mask0_1241_6151" style="mask-type:alpha" maskUnits="userSpaceOnUse" x="9" y="8" width="40" height="42">
<path d="M9.70369 19.0697C9.26955 17.2674 10.3963 15.4501 12.2203 15.0108L37.5503 8.90932C39.3743 8.46995 41.2049 9.57486 41.6391 11.3772L48.314 39.0879C48.7481 40.8902 47.6214 42.7075 45.7974 43.1469L20.4674 49.2483C18.6433 49.6877 16.8127 48.5828 16.3786 46.7804L9.70369 19.0697Z" fill="url(#paint1_radial_1241_6151)"/>
</mask>
<g mask="url(#mask0_1241_6151)">
<path d="M26.082 24.0113C23.6225 23.2699 14.4921 22.0018 10.6901 27.7129L16.8898 51.2268L57.6484 40.7775C39.1468 38.5389 29.3898 36.1816 26.082 24.0113Z" fill="#CAC9C9"/>
</g>
<path fill-rule="evenodd" clip-rule="evenodd" d="M9.33448 19.096C8.84536 17.0654 10.0949 15.0228 12.1255 14.5337L37.1906 8.49608C39.2212 8.00697 41.2638 9.25655 41.7529 11.2871L48.4374 39.0378C48.9266 41.0683 47.677 43.1109 45.6464 43.6L20.5813 49.6377C18.5507 50.1268 16.5081 48.8772 16.019 46.8467L9.33448 19.096ZM11.9473 15.2268C10.368 15.6072 9.77108 17.3199 10.1515 18.8992L13.2315 33.3123L16.9572 47.3139C17.3376 48.8932 18.8051 49.2011 20.3845 48.8206L45.427 42.415C47.0063 42.0346 47.794 39.8547 47.4136 38.2754L41.4398 12.0478C41.0593 10.4684 38.9668 8.93269 37.3874 9.31312L20.0756 13.0617L11.9473 15.2268Z" fill="black"/>
<path d="M32.5642 18.9623C36.7386 18.9623 40.1226 16.421 40.1226 13.2863C40.1226 10.1516 36.7386 7.61035 32.5642 7.61035C28.3898 7.61035 25.0057 10.1516 25.0057 13.2863C25.0057 16.421 28.3898 18.9623 32.5642 18.9623Z" fill="white"/>
<path fill-rule="evenodd" clip-rule="evenodd" d="M37.4536 16.6936C38.6777 15.7743 39.3645 14.562 39.3645 13.2863C39.3645 12.0106 38.6777 10.7983 37.4536 9.87898C36.2291 8.95951 34.503 8.61738 32.5642 8.61738C30.6253 8.61738 28.8992 8.95951 27.6748 9.87898C26.4506 10.7983 25.7638 12.0106 25.7638 13.2863C25.7638 14.562 26.4506 15.7743 27.6748 16.6936C28.8992 17.6131 30.6253 18.2042 32.5642 18.2042C34.503 18.2042 36.2291 17.6131 37.4536 16.6936ZM40.1226 13.2863C40.1226 16.421 36.7386 18.9623 32.5642 18.9623C28.3898 18.9623 25.0057 16.421 25.0057 13.2863C25.0057 10.1516 28.3898 7.61035 32.5642 7.61035C36.7386 7.61035 40.1226 10.1516 40.1226 13.2863Z" fill="black"/>
<path d="M31.8658 9.01114C27.2334 9.5352 25.8852 13.1353 26.3557 14.0957C26.4071 14.2007 26.5397 14.1663 26.588 14.0598C27.4841 12.0847 29.7005 10.5128 31.9208 9.1738C32.0032 9.12409 31.9614 9.00032 31.8658 9.01114Z" fill="#CAC9C9"/>
<mask id="path-9-inside-1_1241_6151" fill="white">
<path d="M46.5897 25.7983C46.5897 26.2889 46.565 26.7757 46.5155 27.2548C46.3311 29.0498 45.8101 31.0122 45.0153 32.9441C44.5247 34.1363 43.9314 35.3172 43.2488 36.439C42.9046 36.5778 42.5262 36.6558 42.1307 36.6558C42.0052 36.6558 41.8797 36.6482 41.758 36.633C40.0714 40.6337 37.1488 43.4441 33.7508 43.9784C33.3534 44.0374 32.9503 44.0697 32.5453 44.0716C28.5959 44.0602 25.1466 40.9912 23.2888 36.4276C22.5282 36.4143 21.838 36.1158 21.3189 35.6347C20.9804 35.03 20.6686 34.412 20.3853 33.7865C19.387 31.5883 18.7329 29.3122 18.5218 27.2567C18.4724 26.7776 18.4476 26.2908 18.4476 25.7983C18.4476 25.7565 18.4476 25.7165 18.4476 25.6747V25.6633C18.4476 25.6329 18.4476 25.6024 18.4495 25.572C18.4495 25.5625 18.4495 25.5549 18.4495 25.5454C18.4495 25.5245 18.4495 25.5036 18.4514 25.4826C18.4514 25.4712 18.4514 25.4598 18.4514 25.4484C18.4514 25.4313 18.4514 25.4142 18.4533 25.3971C18.4552 25.3628 18.4552 25.3286 18.4571 25.2963C18.4571 25.2906 18.4571 25.2849 18.4571 25.2792C18.4609 25.1955 18.4647 25.1119 18.4685 25.0301C18.4704 24.994 18.4724 24.9559 18.4743 24.9198C18.4743 24.9065 18.4762 24.8932 18.4762 24.8799C18.4781 24.8456 18.48 24.8114 18.4838 24.7772C18.4857 24.743 18.4895 24.7087 18.4914 24.6745C18.4933 24.6593 18.4933 24.646 18.4952 24.6327C18.4971 24.5984 18.5009 24.5661 18.5028 24.5338C18.5028 24.5243 18.5047 24.5148 18.5047 24.5053C18.5104 24.4311 18.518 24.357 18.5256 24.2847C18.5351 24.1934 18.5465 24.1003 18.5579 24.009C18.5617 23.9729 18.5674 23.9348 18.5731 23.8987C18.5731 23.8968 18.5731 23.8968 18.5731 23.8949C18.5788 23.8588 18.5826 23.8226 18.5883 23.7865C18.5959 23.7314 18.6055 23.6743 18.6131 23.6192C18.6169 23.5888 18.6226 23.5602 18.6264 23.5298C18.6264 23.5279 18.6264 23.5241 18.6283 23.5222C18.634 23.4842 18.6397 23.4461 18.6473 23.41C18.6473 23.4062 18.6492 23.4043 18.6492 23.4005C18.6568 23.3606 18.6625 23.3206 18.6701 23.2807C18.6777 23.2389 18.6853 23.199 18.6929 23.159C18.7005 23.1229 18.7062 23.0868 18.7138 23.0506C18.7157 23.043 18.7157 23.0354 18.7176 23.0297C18.7329 22.9556 18.7481 22.8795 18.7633 22.8053C18.7652 22.7939 18.7671 22.7844 18.7709 22.773C18.7785 22.7388 18.7861 22.7065 18.7937 22.6722C18.8032 22.6323 18.8127 22.5924 18.8222 22.5524C18.8317 22.5125 18.8412 22.4726 18.8507 22.4327C18.8584 22.3984 18.8679 22.3642 18.8755 22.3319C18.8869 22.2843 18.9002 22.2349 18.9135 22.1874C18.9344 22.1113 18.9534 22.0371 18.9743 21.9611C18.9762 21.9573 18.9762 21.9554 18.9762 21.9535C18.9877 21.9154 18.9972 21.8774 19.0086 21.8394C19.0181 21.809 19.0276 21.7785 19.0352 21.7481C19.0409 21.731 19.0447 21.7158 19.0504 21.6987C19.0599 21.6683 19.0694 21.6359 19.0789 21.6055C19.0903 21.5694 19.1017 21.5351 19.1132 21.499C19.1398 21.4173 19.1664 21.3336 19.1949 21.2518C19.2044 21.2233 19.2139 21.1948 19.2234 21.1663C19.2291 21.151 19.2348 21.1358 19.2387 21.1206C19.2501 21.0902 19.2596 21.0598 19.271 21.0313C19.2862 20.9913 19.2995 20.9514 19.3147 20.9115C19.328 20.8753 19.3413 20.8392 19.3546 20.8031C19.3851 20.7251 19.4136 20.6472 19.4459 20.5711C19.4611 20.5331 19.4763 20.4969 19.4916 20.4589V20.457C19.5049 20.4228 19.5182 20.3905 19.5334 20.3581C19.5372 20.3505 19.5391 20.3448 19.5429 20.3372C19.5581 20.303 19.5714 20.2688 19.5866 20.2345C19.6018 20.1984 19.619 20.1604 19.6361 20.1242C19.6361 20.1223 19.638 20.1223 19.638 20.1204C19.6532 20.0843 19.6703 20.0482 19.6855 20.014C19.7178 19.9436 19.7502 19.8751 19.7825 19.8048C19.7863 19.7991 19.7882 19.7915 19.792 19.7858C19.8243 19.7154 19.8585 19.6451 19.8928 19.5766C19.9099 19.5405 19.9289 19.5044 19.946 19.4682C19.984 19.3941 20.0221 19.3199 20.0601 19.2477C20.0772 19.2134 20.0962 19.1811 20.1133 19.1488C20.1324 19.1126 20.1514 19.0784 20.1704 19.0423C20.1894 19.0081 20.2084 18.9719 20.2293 18.9377C20.2312 18.932 20.235 18.9282 20.2369 18.9225C20.254 18.8921 20.2712 18.8617 20.2883 18.8331C20.3073 18.7989 20.3282 18.7628 20.3491 18.7285C20.3643 18.7019 20.3795 18.6753 20.3948 18.6506C20.4024 18.6354 20.4119 18.6221 20.4195 18.6088C20.4366 18.5821 20.4518 18.5536 20.4689 18.527C20.4898 18.4909 20.5127 18.4566 20.5336 18.4205C20.5545 18.3882 20.5735 18.3559 20.5944 18.3235C20.5963 18.3216 20.5963 18.3197 20.5982 18.3178C20.6172 18.2855 20.6381 18.2551 20.6572 18.2247C20.6838 18.1828 20.7104 18.141 20.7389 18.0992C20.756 18.0744 20.7713 18.0497 20.7884 18.0231C20.8568 17.9223 20.9253 17.8215 20.9956 17.7208C21.0184 17.6884 21.0413 17.6561 21.066 17.6238C21.0869 17.5953 21.1059 17.5686 21.1268 17.5401C21.1306 17.5363 21.1344 17.5306 21.1363 17.5268C21.1592 17.4964 21.182 17.4641 21.2048 17.4336C21.2295 17.3994 21.2542 17.3652 21.2809 17.3329C21.3018 17.3062 21.3227 17.2796 21.3436 17.2511C21.3721 17.215 21.4006 17.1788 21.4292 17.1408C21.4539 17.1104 21.4767 17.08 21.5014 17.0495C21.5033 17.0476 21.5052 17.0438 21.5071 17.0419C21.5299 17.0134 21.5509 16.9868 21.5737 16.9583C21.5756 16.9564 21.5775 16.9545 21.5794 16.9526C21.6022 16.9259 21.6231 16.8974 21.6459 16.8708C21.6688 16.8442 21.6916 16.8156 21.7125 16.789C21.7258 16.7738 21.7372 16.7586 21.7505 16.7434C21.7505 16.7415 21.7524 16.7396 21.7543 16.7396C21.7886 16.6997 21.8209 16.6597 21.8551 16.6217C21.8646 16.6103 21.8741 16.5989 21.8836 16.5894C21.9083 16.5608 21.9331 16.5323 21.9578 16.5038C21.9597 16.5019 21.9597 16.5019 21.9597 16.5C21.9825 16.4734 22.0072 16.4468 22.0319 16.4201C22.0414 16.4087 22.051 16.3973 22.0624 16.3878C22.0814 16.3669 22.1023 16.3441 22.1213 16.3232C22.1498 16.2927 22.1784 16.2623 22.2069 16.2319C22.224 16.2148 22.2392 16.1958 22.2563 16.1786C22.2715 16.1615 22.2886 16.1444 22.3058 16.1273C22.3191 16.114 22.3324 16.1007 22.3457 16.0855C22.3666 16.0627 22.3894 16.0398 22.4122 16.017C22.4256 16.0037 22.4389 15.9904 22.4522 15.9752C22.4807 15.9467 22.5092 15.9181 22.5358 15.8896C22.551 15.8744 22.5663 15.8573 22.5834 15.8421C22.6043 15.8212 22.6252 15.8003 22.6461 15.7812C22.6556 15.7717 22.6651 15.7622 22.6727 15.7546C22.6937 15.7337 22.7146 15.7147 22.7336 15.6938C22.7526 15.6748 22.7716 15.6576 22.7906 15.6386C22.8249 15.6063 22.8591 15.574 22.8933 15.5416C22.9256 15.5112 22.958 15.4808 22.9903 15.4504C22.996 15.4466 22.9998 15.4409 23.0055 15.4371C23.034 15.4104 23.0625 15.3838 23.0911 15.3591C23.1044 15.3458 23.1196 15.3344 23.1329 15.3211C23.1957 15.264 23.2603 15.2089 23.325 15.1537C23.3421 15.1385 23.3611 15.1233 23.3782 15.1081C23.3972 15.091 23.4162 15.0739 23.4371 15.0587C23.4562 15.0416 23.4771 15.0244 23.4961 15.0073C23.5702 14.9446 23.6444 14.8837 23.7205 14.8248C23.7528 14.8001 23.7851 14.7734 23.8155 14.7487C23.825 14.7411 23.8327 14.7354 23.8422 14.7278C23.8783 14.6993 23.9163 14.6708 23.9543 14.6422C23.981 14.6213 24.0076 14.6004 24.0342 14.5814C24.0437 14.5738 24.0551 14.5662 24.0646 14.5586C24.0837 14.5434 24.1027 14.5301 24.1217 14.5148C24.1445 14.4977 24.1673 14.4806 24.1901 14.4635C24.1977 14.4578 24.2053 14.4521 24.2149 14.4464C24.2491 14.4198 24.2852 14.3951 24.3194 14.3703C24.3251 14.3665 24.3289 14.3627 24.3346 14.3589C24.3727 14.3304 24.4126 14.3038 24.4506 14.2753C24.4868 14.2505 24.521 14.2258 24.5571 14.2011C24.5818 14.184 24.6066 14.1669 24.6313 14.1498C24.6427 14.1422 24.6541 14.1345 24.6655 14.1269C24.6921 14.1098 24.7168 14.0927 24.7435 14.0737C24.7777 14.0509 24.8138 14.0281 24.848 14.0052C24.888 13.9786 24.9279 13.9539 24.9678 13.9273C24.9793 13.9197 24.9907 13.9121 25.0021 13.9064C25.0287 13.8893 25.0572 13.8721 25.0857 13.8531C25.099 13.8455 25.1143 13.836 25.1276 13.8284C25.1599 13.8075 25.1941 13.7866 25.2264 13.7676C25.236 13.7619 25.2474 13.7561 25.2569 13.7485C25.2987 13.7238 25.3405 13.6991 25.3824 13.6744C25.4242 13.6497 25.4679 13.6249 25.5098 13.6002C25.5136 13.5983 25.5193 13.5945 25.5231 13.5926C25.5592 13.5717 25.5953 13.5508 25.6296 13.5318C25.6923 13.4956 25.757 13.4614 25.8197 13.4272C25.852 13.4101 25.8825 13.393 25.9148 13.3759C25.9661 13.3492 26.0175 13.3226 26.0688 13.296C26.0916 13.2846 26.1163 13.2713 26.1392 13.2599C26.1601 13.2485 26.1829 13.237 26.2057 13.2256C26.2399 13.2085 26.2723 13.1914 26.3065 13.1743C26.3217 13.1667 26.3369 13.1591 26.3521 13.1515C26.3768 13.1401 26.4016 13.1268 26.4263 13.1153C26.4491 13.1039 26.4719 13.0944 26.4947 13.083C26.5328 13.064 26.5727 13.0469 26.6107 13.0298C26.6431 13.0146 26.6773 12.9994 26.7096 12.9841C26.7248 12.9765 26.7419 12.9689 26.759 12.9613C26.7857 12.9499 26.8104 12.9385 26.837 12.9271C26.8427 12.9252 26.8484 12.9214 26.8541 12.9195C26.8712 12.9119 26.8883 12.9043 26.9055 12.8967C26.9359 12.8834 26.9682 12.8701 27.0005 12.8567C27.0081 12.8529 27.0138 12.851 27.0215 12.8472C27.0595 12.832 27.0975 12.8149 27.1355 12.7997C27.2363 12.7579 27.339 12.716 27.4417 12.678C27.4778 12.6647 27.5139 12.6514 27.5482 12.6362C27.6033 12.6153 27.6585 12.5943 27.7155 12.5753C27.7554 12.5601 27.7954 12.5468 27.8372 12.5316C27.879 12.5164 27.9228 12.5012 27.9646 12.4879C27.9817 12.4822 27.9988 12.4764 28.0159 12.4707C28.0483 12.4593 28.0806 12.4498 28.111 12.4384C28.1243 12.4346 28.1395 12.4289 28.1528 12.4251C28.1909 12.4137 28.2289 12.4004 28.2669 12.389C28.2688 12.389 28.2707 12.3871 28.2745 12.3871C28.3183 12.3738 28.362 12.3586 28.4076 12.3452C28.4114 12.3433 28.4171 12.3433 28.4209 12.3414C28.4457 12.3338 28.4723 12.3262 28.497 12.3186C28.5217 12.311 28.5484 12.3034 28.5731 12.2958C28.5978 12.2882 28.6244 12.2806 28.651 12.273C28.6777 12.2654 28.7024 12.2578 28.729 12.2521C28.7803 12.2369 28.8317 12.2235 28.8849 12.2102C28.902 12.2064 28.9172 12.2007 28.9344 12.1969C28.9553 12.1912 28.9762 12.1855 28.9971 12.1798C29.037 12.1684 29.0789 12.1589 29.1188 12.1494C29.1435 12.1437 29.1682 12.138 29.193 12.1323C29.3261 12.1 29.4573 12.0695 29.5923 12.041C29.6189 12.0353 29.6455 12.0296 29.6721 12.0239C29.7045 12.0163 29.7387 12.0106 29.771 12.0049C29.79 12.0011 29.8109 11.9973 29.83 11.9935C29.9155 11.9764 30.0011 11.9611 30.0867 11.9459C30.1057 11.9421 30.1266 11.9383 30.1456 11.9364C30.1855 11.9288 30.2255 11.9231 30.2654 11.9174C30.2901 11.9136 30.3167 11.9098 30.3415 11.906C30.3586 11.9041 30.3757 11.9003 30.3928 11.8984C30.4156 11.8946 30.4403 11.8908 30.4632 11.8889C30.5734 11.8718 30.6856 11.8585 30.7978 11.8433C31.3588 11.7748 31.9311 11.7406 32.5111 11.7406C33.0834 11.7406 33.65 11.7748 34.2053 11.8413C34.287 11.8509 34.3688 11.8623 34.4506 11.8737C34.4772 11.8775 34.5038 11.8813 34.5323 11.8851C34.5571 11.8889 34.5818 11.8927 34.6084 11.8965C34.635 11.9003 34.6616 11.9041 34.6883 11.9079C34.7073 11.9098 34.7263 11.9136 34.7472 11.9174C34.789 11.9231 34.8309 11.9307 34.8708 11.9383C34.8936 11.9421 34.9145 11.9459 34.9374 11.9497C34.964 11.9535 34.9906 11.9592 35.0172 11.963C35.0667 11.9726 35.1142 11.9802 35.1636 11.9897C35.1903 11.9954 35.2169 11.9992 35.2416 12.0049C35.3557 12.0277 35.4698 12.0505 35.582 12.0771C35.7113 12.1057 35.8387 12.1361 35.9661 12.1684C35.9927 12.1741 36.0174 12.1817 36.044 12.1893C36.0706 12.195 36.0954 12.2026 36.122 12.2102C36.1524 12.2178 36.1809 12.2255 36.2095 12.2331C36.2323 12.2388 36.2551 12.2464 36.276 12.2521C36.3787 12.2806 36.4814 12.311 36.584 12.3414C36.6069 12.349 36.6316 12.3567 36.6563 12.3624C36.6734 12.3681 36.6905 12.3738 36.7076 12.3776C36.7305 12.3852 36.7552 12.3928 36.7799 12.4004C36.8864 12.4346 36.9929 12.4688 37.0975 12.505C37.1165 12.5107 37.1355 12.5183 37.1545 12.524C37.1678 12.5278 37.1811 12.5335 37.1944 12.5392C37.2191 12.5487 37.2439 12.5563 37.2705 12.5658C37.2857 12.5715 37.3009 12.5772 37.3161 12.5829C37.3351 12.5905 37.3561 12.5981 37.3751 12.6038C37.3998 12.6134 37.4245 12.6229 37.4492 12.6305C37.4644 12.6362 37.4797 12.6419 37.493 12.6476C37.5158 12.6571 37.5405 12.6647 37.5633 12.6742C37.7135 12.7312 37.8619 12.7921 38.0083 12.8548C38.0254 12.8624 38.0425 12.8701 38.0596 12.8777C38.0919 12.891 38.1224 12.9043 38.1547 12.9195C38.1756 12.929 38.1965 12.9385 38.2155 12.9461C38.2441 12.9575 38.2707 12.9708 38.2992 12.9841C38.322 12.9937 38.3448 13.0051 38.3676 13.0165C38.3924 13.0279 38.4171 13.0393 38.4418 13.0507C38.4646 13.0621 38.4874 13.0716 38.5122 13.083C38.5369 13.0944 38.5616 13.1058 38.5863 13.1172C38.6091 13.1287 38.6339 13.1401 38.6567 13.1515C38.7042 13.1743 38.7517 13.1971 38.7993 13.2218C38.8715 13.258 38.9438 13.296 39.0161 13.3321C39.0408 13.3454 39.0636 13.3568 39.0883 13.3701C39.132 13.393 39.1758 13.4158 39.2195 13.4405C39.2652 13.4652 39.3127 13.4918 39.3583 13.5166C39.4002 13.5394 39.4401 13.5622 39.4819 13.585C39.4914 13.5907 39.5009 13.5964 39.5104 13.6021C39.6416 13.6782 39.7709 13.7542 39.9002 13.8341C39.9021 13.8341 39.9022 13.836 39.9041 13.836C39.9915 13.8912 40.079 13.9463 40.1665 14.0033C40.1665 14.0033 40.1684 14.0052 40.1703 14.0052C40.2083 14.03 40.2463 14.0547 40.2844 14.0794C40.2939 14.0851 40.3015 14.0908 40.311 14.0965C40.3509 14.1231 40.3908 14.1498 40.4289 14.1764C40.4726 14.2049 40.5144 14.2353 40.5582 14.2657C40.5962 14.2924 40.6323 14.319 40.6704 14.3437C40.6818 14.3513 40.6951 14.3608 40.7065 14.3703C40.7312 14.3893 40.7578 14.4065 40.7825 14.4255C40.7978 14.4369 40.8111 14.4464 40.8263 14.4578C40.8643 14.4863 40.9004 14.5129 40.9385 14.5415C40.9746 14.5681 41.0088 14.5947 41.043 14.6213C41.0545 14.6289 41.064 14.6384 41.0754 14.646C41.1914 14.7354 41.3055 14.8248 41.4195 14.918C41.4271 14.9256 41.4367 14.9313 41.4443 14.9389C41.4804 14.9693 41.5165 14.9978 41.5507 15.0282C41.6306 15.0948 41.7086 15.1614 41.7865 15.2298C41.7884 15.2317 41.7884 15.2317 41.7903 15.2336C41.8284 15.2678 41.8664 15.3021 41.9063 15.3363C41.9444 15.3705 41.9843 15.4066 42.0223 15.4409C42.0584 15.4751 42.0965 15.5074 42.1326 15.5416C42.1364 15.5455 42.1402 15.5474 42.144 15.5512C42.1763 15.5816 42.2087 15.612 42.2429 15.6443C42.2486 15.6481 42.2524 15.6538 42.2581 15.6595C42.2942 15.6938 42.3304 15.728 42.3646 15.7641C42.4026 15.8003 42.4387 15.8364 42.4749 15.8744C42.511 15.9105 42.549 15.9486 42.5852 15.9847C42.6213 16.0227 42.6574 16.0589 42.6935 16.0969C42.7297 16.1349 42.7658 16.1729 42.8019 16.211C42.8362 16.2471 42.8704 16.2832 42.9027 16.3213C42.9046 16.3232 42.9065 16.327 42.9103 16.3289C42.9426 16.365 42.975 16.4011 43.0073 16.4353C43.0263 16.4563 43.0453 16.4791 43.0643 16.5C43.0814 16.519 43.0986 16.538 43.1138 16.557C43.1157 16.5589 43.1176 16.5608 43.1195 16.5627C43.1689 16.6198 43.2184 16.6787 43.2678 16.7358C43.302 16.7757 43.3343 16.8156 43.3686 16.8556C43.3838 16.8746 43.399 16.8917 43.4142 16.9107C43.418 16.9145 43.4218 16.9183 43.4237 16.9221C43.4522 16.9564 43.4808 16.9925 43.5074 17.0267C43.5264 17.0495 43.5454 17.0743 43.5644 17.099C43.5967 17.1408 43.6291 17.1807 43.6614 17.2226C43.726 17.3043 43.7888 17.388 43.8496 17.4736C43.8801 17.5135 43.9086 17.5534 43.9371 17.5934C43.939 17.5972 43.9428 17.601 43.9447 17.6029C43.9599 17.6219 43.9732 17.6428 43.9885 17.6637C44.017 17.7017 44.0436 17.7417 44.0702 17.7797C44.1178 17.8482 44.1653 17.9166 44.2128 17.987C44.228 18.0079 44.2414 18.0307 44.2566 18.0516C44.3003 18.1163 44.3421 18.1828 44.3859 18.2494C44.4011 18.2722 44.4144 18.295 44.4296 18.3178C44.4638 18.3711 44.4962 18.4243 44.5285 18.4795C44.5456 18.5061 44.5608 18.5327 44.5779 18.5612C44.6236 18.6373 44.6692 18.7133 44.7129 18.7894C44.7262 18.8103 44.7376 18.8331 44.751 18.854C44.77 18.8883 44.789 18.9206 44.808 18.9548C44.8232 18.9814 44.8384 19.0081 44.8517 19.0347C44.8707 19.067 44.8879 19.0993 44.905 19.1317C44.9069 19.1336 44.9069 19.1355 44.9088 19.1374C44.9259 19.1678 44.9411 19.1982 44.9582 19.2286C45.0191 19.3427 45.0761 19.4568 45.1332 19.5709C45.1465 19.5975 45.1598 19.6261 45.1731 19.6527C45.1769 19.6603 45.1788 19.666 45.1826 19.6736C45.1997 19.7078 45.2149 19.7401 45.2301 19.7725C45.2472 19.8086 45.2644 19.8447 45.2815 19.8809C45.2929 19.9037 45.3043 19.9284 45.3138 19.9512C45.3176 19.9607 45.3214 19.9683 45.3271 19.9778C45.3347 19.9949 45.3423 20.0121 45.3499 20.0292C45.3594 20.052 45.3708 20.0748 45.3803 20.0976C45.3975 20.1337 45.4127 20.1699 45.4279 20.206C45.4431 20.2421 45.4583 20.2783 45.4735 20.3125C45.4906 20.3524 45.5077 20.3924 45.5249 20.4342C45.5382 20.4684 45.5534 20.5026 45.5667 20.5369C45.58 20.5692 45.5933 20.6015 45.6047 20.6338C45.6066 20.6414 45.6104 20.6472 45.6123 20.6548C45.6256 20.689 45.6409 20.7251 45.6542 20.7593C45.6656 20.7917 45.6789 20.824 45.6903 20.8563C45.6941 20.8658 45.6979 20.8753 45.7017 20.8848C45.7131 20.9172 45.7264 20.9514 45.7378 20.9837C45.7511 21.0217 45.7644 21.0598 45.7778 21.0959C45.8025 21.1663 45.8272 21.2347 45.85 21.3051C45.8652 21.3488 45.8785 21.3925 45.8937 21.4382C45.9033 21.4705 45.9147 21.5028 45.9242 21.5332C45.9261 21.539 45.928 21.5466 45.9299 21.5523C45.9527 21.6226 45.9736 21.6911 45.9945 21.7614C45.9983 21.7709 46.0002 21.7823 46.004 21.7918L46.0288 21.8774C46.044 21.9288 46.0573 21.9782 46.0725 22.0295C46.082 22.0638 46.0915 22.098 46.101 22.1322C46.1124 22.1721 46.1219 22.2102 46.1314 22.2501C46.1409 22.29 46.1523 22.3281 46.1619 22.368C46.1695 22.4003 46.1771 22.4307 46.1847 22.4612C46.1961 22.5087 46.2075 22.5562 46.2189 22.6038C46.2265 22.6342 46.2341 22.6665 46.2398 22.697C46.2417 22.7046 46.2436 22.7141 46.2455 22.7217C46.2531 22.7559 46.2607 22.792 46.2683 22.8263C46.2797 22.8776 46.2893 22.927 46.3007 22.9784C46.3083 23.0126 46.314 23.0468 46.3216 23.0811C46.3311 23.1248 46.3387 23.1666 46.3463 23.2104C46.3539 23.2484 46.3596 23.2845 46.3672 23.3225C46.3748 23.3625 46.3805 23.4024 46.3881 23.4423C46.3881 23.4442 46.3881 23.4461 46.3881 23.4461C46.3957 23.4861 46.4014 23.526 46.4072 23.564C46.4072 23.5678 46.4091 23.5716 46.4091 23.5735C46.4148 23.6116 46.4205 23.6477 46.4262 23.6857C46.4319 23.7257 46.4376 23.7675 46.4433 23.8074C46.4509 23.855 46.4566 23.9025 46.4623 23.95C46.4661 23.9767 46.4699 24.0052 46.4737 24.0318C46.4813 24.0869 46.487 24.1402 46.4927 24.1953C46.4965 24.2296 46.5003 24.2657 46.5041 24.2999C46.5041 24.3018 46.5041 24.3037 46.5041 24.3075C46.5079 24.3436 46.5117 24.3779 46.5155 24.414C46.5155 24.4216 46.5174 24.4292 46.5174 24.4387C46.5193 24.4615 46.5212 24.4863 46.5231 24.5091C46.525 24.5243 46.525 24.5395 46.5269 24.5547C46.5288 24.5832 46.5307 24.6099 46.5345 24.6365C46.5365 24.6574 46.5384 24.6764 46.5384 24.6954C46.5403 24.7297 46.5441 24.762 46.546 24.7962C46.5479 24.8266 46.5498 24.8571 46.5517 24.8894C46.5536 24.9103 46.5536 24.9293 46.5555 24.9502C46.5593 25.0111 46.5631 25.0719 46.565 25.1347C46.565 25.1385 46.565 25.1404 46.565 25.1423C46.5669 25.1594 46.5669 25.1765 46.5669 25.1936C46.5688 25.2183 46.5688 25.2431 46.5707 25.2697C46.5707 25.2906 46.5726 25.3115 46.5726 25.3324C46.5726 25.3571 46.5745 25.3819 46.5745 25.4047C46.5745 25.4237 46.5745 25.4427 46.5764 25.4598C46.5764 25.4921 46.5783 25.5264 46.5783 25.5587C46.5783 25.5986 46.5802 25.6367 46.5802 25.6766V25.6785C46.5897 25.7146 46.5897 25.7565 46.5897 25.7983Z"/>
</mask>
<path d="M46.5897 25.7983C46.5897 26.2889 46.565 26.7757 46.5155 27.2548C46.3311 29.0498 45.8101 31.0122 45.0153 32.9441C44.5247 34.1363 43.9314 35.3172 43.2488 36.439C42.9046 36.5778 42.5262 36.6558 42.1307 36.6558C42.0052 36.6558 41.8797 36.6482 41.758 36.633C40.0714 40.6337 37.1488 43.4441 33.7508 43.9784C33.3534 44.0374 32.9503 44.0697 32.5453 44.0716C28.5959 44.0602 25.1466 40.9912 23.2888 36.4276C22.5282 36.4143 21.838 36.1158 21.3189 35.6347C20.9804 35.03 20.6686 34.412 20.3853 33.7865C19.387 31.5883 18.7329 29.3122 18.5218 27.2567C18.4724 26.7776 18.4476 26.2908 18.4476 25.7983C18.4476 25.7565 18.4476 25.7165 18.4476 25.6747V25.6633C18.4476 25.6329 18.4476 25.6024 18.4495 25.572C18.4495 25.5625 18.4495 25.5549 18.4495 25.5454C18.4495 25.5245 18.4495 25.5036 18.4514 25.4826C18.4514 25.4712 18.4514 25.4598 18.4514 25.4484C18.4514 25.4313 18.4514 25.4142 18.4533 25.3971C18.4552 25.3628 18.4552 25.3286 18.4571 25.2963C18.4571 25.2906 18.4571 25.2849 18.4571 25.2792C18.4609 25.1955 18.4647 25.1119 18.4685 25.0301C18.4704 24.994 18.4724 24.9559 18.4743 24.9198C18.4743 24.9065 18.4762 24.8932 18.4762 24.8799C18.4781 24.8456 18.48 24.8114 18.4838 24.7772C18.4857 24.743 18.4895 24.7087 18.4914 24.6745C18.4933 24.6593 18.4933 24.646 18.4952 24.6327C18.4971 24.5984 18.5009 24.5661 18.5028 24.5338C18.5028 24.5243 18.5047 24.5148 18.5047 24.5053C18.5104 24.4311 18.518 24.357 18.5256 24.2847C18.5351 24.1934 18.5465 24.1003 18.5579 24.009C18.5617 23.9729 18.5674 23.9348 18.5731 23.8987C18.5731 23.8968 18.5731 23.8968 18.5731 23.8949C18.5788 23.8588 18.5826 23.8226 18.5883 23.7865C18.5959 23.7314 18.6055 23.6743 18.6131 23.6192C18.6169 23.5888 18.6226 23.5602 18.6264 23.5298C18.6264 23.5279 18.6264 23.5241 18.6283 23.5222C18.634 23.4842 18.6397 23.4461 18.6473 23.41C18.6473 23.4062 18.6492 23.4043 18.6492 23.4005C18.6568 23.3606 18.6625 23.3206 18.6701 23.2807C18.6777 23.2389 18.6853 23.199 18.6929 23.159C18.7005 23.1229 18.7062 23.0868 18.7138 23.0506C18.7157 23.043 18.7157 23.0354 18.7176 23.0297C18.7329 22.9556 18.7481 22.8795 18.7633 22.8053C18.7652 22.7939 18.7671 22.7844 18.7709 22.773C18.7785 22.7388 18.7861 22.7065 18.7937 22.6722C18.8032 22.6323 18.8127 22.5924 18.8222 22.5524C18.8317 22.5125 18.8412 22.4726 18.8507 22.4327C18.8584 22.3984 18.8679 22.3642 18.8755 22.3319C18.8869 22.2843 18.9002 22.2349 18.9135 22.1874C18.9344 22.1113 18.9534 22.0371 18.9743 21.9611C18.9762 21.9573 18.9762 21.9554 18.9762 21.9535C18.9877 21.9154 18.9972 21.8774 19.0086 21.8394C19.0181 21.809 19.0276 21.7785 19.0352 21.7481C19.0409 21.731 19.0447 21.7158 19.0504 21.6987C19.0599 21.6683 19.0694 21.6359 19.0789 21.6055C19.0903 21.5694 19.1017 21.5351 19.1132 21.499C19.1398 21.4173 19.1664 21.3336 19.1949 21.2518C19.2044 21.2233 19.2139 21.1948 19.2234 21.1663C19.2291 21.151 19.2348 21.1358 19.2387 21.1206C19.2501 21.0902 19.2596 21.0598 19.271 21.0313C19.2862 20.9913 19.2995 20.9514 19.3147 20.9115C19.328 20.8753 19.3413 20.8392 19.3546 20.8031C19.3851 20.7251 19.4136 20.6472 19.4459 20.5711C19.4611 20.5331 19.4763 20.4969 19.4916 20.4589V20.457C19.5049 20.4228 19.5182 20.3905 19.5334 20.3581C19.5372 20.3505 19.5391 20.3448 19.5429 20.3372C19.5581 20.303 19.5714 20.2688 19.5866 20.2345C19.6018 20.1984 19.619 20.1604 19.6361 20.1242C19.6361 20.1223 19.638 20.1223 19.638 20.1204C19.6532 20.0843 19.6703 20.0482 19.6855 20.014C19.7178 19.9436 19.7502 19.8751 19.7825 19.8048C19.7863 19.7991 19.7882 19.7915 19.792 19.7858C19.8243 19.7154 19.8585 19.6451 19.8928 19.5766C19.9099 19.5405 19.9289 19.5044 19.946 19.4682C19.984 19.3941 20.0221 19.3199 20.0601 19.2477C20.0772 19.2134 20.0962 19.1811 20.1133 19.1488C20.1324 19.1126 20.1514 19.0784 20.1704 19.0423C20.1894 19.0081 20.2084 18.9719 20.2293 18.9377C20.2312 18.932 20.235 18.9282 20.2369 18.9225C20.254 18.8921 20.2712 18.8617 20.2883 18.8331C20.3073 18.7989 20.3282 18.7628 20.3491 18.7285C20.3643 18.7019 20.3795 18.6753 20.3948 18.6506C20.4024 18.6354 20.4119 18.6221 20.4195 18.6088C20.4366 18.5821 20.4518 18.5536 20.4689 18.527C20.4898 18.4909 20.5127 18.4566 20.5336 18.4205C20.5545 18.3882 20.5735 18.3559 20.5944 18.3235C20.5963 18.3216 20.5963 18.3197 20.5982 18.3178C20.6172 18.2855 20.6381 18.2551 20.6572 18.2247C20.6838 18.1828 20.7104 18.141 20.7389 18.0992C20.756 18.0744 20.7713 18.0497 20.7884 18.0231C20.8568 17.9223 20.9253 17.8215 20.9956 17.7208C21.0184 17.6884 21.0413 17.6561 21.066 17.6238C21.0869 17.5953 21.1059 17.5686 21.1268 17.5401C21.1306 17.5363 21.1344 17.5306 21.1363 17.5268C21.1592 17.4964 21.182 17.4641 21.2048 17.4336C21.2295 17.3994 21.2542 17.3652 21.2809 17.3329C21.3018 17.3062 21.3227 17.2796 21.3436 17.2511C21.3721 17.215 21.4006 17.1788 21.4292 17.1408C21.4539 17.1104 21.4767 17.08 21.5014 17.0495C21.5033 17.0476 21.5052 17.0438 21.5071 17.0419C21.5299 17.0134 21.5509 16.9868 21.5737 16.9583C21.5756 16.9564 21.5775 16.9545 21.5794 16.9526C21.6022 16.9259 21.6231 16.8974 21.6459 16.8708C21.6688 16.8442 21.6916 16.8156 21.7125 16.789C21.7258 16.7738 21.7372 16.7586 21.7505 16.7434C21.7505 16.7415 21.7524 16.7396 21.7543 16.7396C21.7886 16.6997 21.8209 16.6597 21.8551 16.6217C21.8646 16.6103 21.8741 16.5989 21.8836 16.5894C21.9083 16.5608 21.9331 16.5323 21.9578 16.5038C21.9597 16.5019 21.9597 16.5019 21.9597 16.5C21.9825 16.4734 22.0072 16.4468 22.0319 16.4201C22.0414 16.4087 22.051 16.3973 22.0624 16.3878C22.0814 16.3669 22.1023 16.3441 22.1213 16.3232C22.1498 16.2927 22.1784 16.2623 22.2069 16.2319C22.224 16.2148 22.2392 16.1958 22.2563 16.1786C22.2715 16.1615 22.2886 16.1444 22.3058 16.1273C22.3191 16.114 22.3324 16.1007 22.3457 16.0855C22.3666 16.0627 22.3894 16.0398 22.4122 16.017C22.4256 16.0037 22.4389 15.9904 22.4522 15.9752C22.4807 15.9467 22.5092 15.9181 22.5358 15.8896C22.551 15.8744 22.5663 15.8573 22.5834 15.8421C22.6043 15.8212 22.6252 15.8003 22.6461 15.7812C22.6556 15.7717 22.6651 15.7622 22.6727 15.7546C22.6937 15.7337 22.7146 15.7147 22.7336 15.6938C22.7526 15.6748 22.7716 15.6576 22.7906 15.6386C22.8249 15.6063 22.8591 15.574 22.8933 15.5416C22.9256 15.5112 22.958 15.4808 22.9903 15.4504C22.996 15.4466 22.9998 15.4409 23.0055 15.4371C23.034 15.4104 23.0625 15.3838 23.0911 15.3591C23.1044 15.3458 23.1196 15.3344 23.1329 15.3211C23.1957 15.264 23.2603 15.2089 23.325 15.1537C23.3421 15.1385 23.3611 15.1233 23.3782 15.1081C23.3972 15.091 23.4162 15.0739 23.4371 15.0587C23.4562 15.0416 23.4771 15.0244 23.4961 15.0073C23.5702 14.9446 23.6444 14.8837 23.7205 14.8248C23.7528 14.8001 23.7851 14.7734 23.8155 14.7487C23.825 14.7411 23.8327 14.7354 23.8422 14.7278C23.8783 14.6993 23.9163 14.6708 23.9543 14.6422C23.981 14.6213 24.0076 14.6004 24.0342 14.5814C24.0437 14.5738 24.0551 14.5662 24.0646 14.5586C24.0837 14.5434 24.1027 14.5301 24.1217 14.5148C24.1445 14.4977 24.1673 14.4806 24.1901 14.4635C24.1977 14.4578 24.2053 14.4521 24.2149 14.4464C24.2491 14.4198 24.2852 14.3951 24.3194 14.3703C24.3251 14.3665 24.3289 14.3627 24.3346 14.3589C24.3727 14.3304 24.4126 14.3038 24.4506 14.2753C24.4868 14.2505 24.521 14.2258 24.5571 14.2011C24.5818 14.184 24.6066 14.1669 24.6313 14.1498C24.6427 14.1422 24.6541 14.1345 24.6655 14.1269C24.6921 14.1098 24.7168 14.0927 24.7435 14.0737C24.7777 14.0509 24.8138 14.0281 24.848 14.0052C24.888 13.9786 24.9279 13.9539 24.9678 13.9273C24.9793 13.9197 24.9907 13.9121 25.0021 13.9064C25.0287 13.8893 25.0572 13.8721 25.0857 13.8531C25.099 13.8455 25.1143 13.836 25.1276 13.8284C25.1599 13.8075 25.1941 13.7866 25.2264 13.7676C25.236 13.7619 25.2474 13.7561 25.2569 13.7485C25.2987 13.7238 25.3405 13.6991 25.3824 13.6744C25.4242 13.6497 25.4679 13.6249 25.5098 13.6002C25.5136 13.5983 25.5193 13.5945 25.5231 13.5926C25.5592 13.5717 25.5953 13.5508 25.6296 13.5318C25.6923 13.4956 25.757 13.4614 25.8197 13.4272C25.852 13.4101 25.8825 13.393 25.9148 13.3759C25.9661 13.3492 26.0175 13.3226 26.0688 13.296C26.0916 13.2846 26.1163 13.2713 26.1392 13.2599C26.1601 13.2485 26.1829 13.237 26.2057 13.2256C26.2399 13.2085 26.2723 13.1914 26.3065 13.1743C26.3217 13.1667 26.3369 13.1591 26.3521 13.1515C26.3768 13.1401 26.4016 13.1268 26.4263 13.1153C26.4491 13.1039 26.4719 13.0944 26.4947 13.083C26.5328 13.064 26.5727 13.0469 26.6107 13.0298C26.6431 13.0146 26.6773 12.9994 26.7096 12.9841C26.7248 12.9765 26.7419 12.9689 26.759 12.9613C26.7857 12.9499 26.8104 12.9385 26.837 12.9271C26.8427 12.9252 26.8484 12.9214 26.8541 12.9195C26.8712 12.9119 26.8883 12.9043 26.9055 12.8967C26.9359 12.8834 26.9682 12.8701 27.0005 12.8567C27.0081 12.8529 27.0138 12.851 27.0215 12.8472C27.0595 12.832 27.0975 12.8149 27.1355 12.7997C27.2363 12.7579 27.339 12.716 27.4417 12.678C27.4778 12.6647 27.5139 12.6514 27.5482 12.6362C27.6033 12.6153 27.6585 12.5943 27.7155 12.5753C27.7554 12.5601 27.7954 12.5468 27.8372 12.5316C27.879 12.5164 27.9228 12.5012 27.9646 12.4879C27.9817 12.4822 27.9988 12.4764 28.0159 12.4707C28.0483 12.4593 28.0806 12.4498 28.111 12.4384C28.1243 12.4346 28.1395 12.4289 28.1528 12.4251C28.1909 12.4137 28.2289 12.4004 28.2669 12.389C28.2688 12.389 28.2707 12.3871 28.2745 12.3871C28.3183 12.3738 28.362 12.3586 28.4076 12.3452C28.4114 12.3433 28.4171 12.3433 28.4209 12.3414C28.4457 12.3338 28.4723 12.3262 28.497 12.3186C28.5217 12.311 28.5484 12.3034 28.5731 12.2958C28.5978 12.2882 28.6244 12.2806 28.651 12.273C28.6777 12.2654 28.7024 12.2578 28.729 12.2521C28.7803 12.2369 28.8317 12.2235 28.8849 12.2102C28.902 12.2064 28.9172 12.2007 28.9344 12.1969C28.9553 12.1912 28.9762 12.1855 28.9971 12.1798C29.037 12.1684 29.0789 12.1589 29.1188 12.1494C29.1435 12.1437 29.1682 12.138 29.193 12.1323C29.3261 12.1 29.4573 12.0695 29.5923 12.041C29.6189 12.0353 29.6455 12.0296 29.6721 12.0239C29.7045 12.0163 29.7387 12.0106 29.771 12.0049C29.79 12.0011 29.8109 11.9973 29.83 11.9935C29.9155 11.9764 30.0011 11.9611 30.0867 11.9459C30.1057 11.9421 30.1266 11.9383 30.1456 11.9364C30.1855 11.9288 30.2255 11.9231 30.2654 11.9174C30.2901 11.9136 30.3167 11.9098 30.3415 11.906C30.3586 11.9041 30.3757 11.9003 30.3928 11.8984C30.4156 11.8946 30.4403 11.8908 30.4632 11.8889C30.5734 11.8718 30.6856 11.8585 30.7978 11.8433C31.3588 11.7748 31.9311 11.7406 32.5111 11.7406C33.0834 11.7406 33.65 11.7748 34.2053 11.8413C34.287 11.8509 34.3688 11.8623 34.4506 11.8737C34.4772 11.8775 34.5038 11.8813 34.5323 11.8851C34.5571 11.8889 34.5818 11.8927 34.6084 11.8965C34.635 11.9003 34.6616 11.9041 34.6883 11.9079C34.7073 11.9098 34.7263 11.9136 34.7472 11.9174C34.789 11.9231 34.8309 11.9307 34.8708 11.9383C34.8936 11.9421 34.9145 11.9459 34.9374 11.9497C34.964 11.9535 34.9906 11.9592 35.0172 11.963C35.0667 11.9726 35.1142 11.9802 35.1636 11.9897C35.1903 11.9954 35.2169 11.9992 35.2416 12.0049C35.3557 12.0277 35.4698 12.0505 35.582 12.0771C35.7113 12.1057 35.8387 12.1361 35.9661 12.1684C35.9927 12.1741 36.0174 12.1817 36.044 12.1893C36.0706 12.195 36.0954 12.2026 36.122 12.2102C36.1524 12.2178 36.1809 12.2255 36.2095 12.2331C36.2323 12.2388 36.2551 12.2464 36.276 12.2521C36.3787 12.2806 36.4814 12.311 36.584 12.3414C36.6069 12.349 36.6316 12.3567 36.6563 12.3624C36.6734 12.3681 36.6905 12.3738 36.7076 12.3776C36.7305 12.3852 36.7552 12.3928 36.7799 12.4004C36.8864 12.4346 36.9929 12.4688 37.0975 12.505C37.1165 12.5107 37.1355 12.5183 37.1545 12.524C37.1678 12.5278 37.1811 12.5335 37.1944 12.5392C37.2191 12.5487 37.2439 12.5563 37.2705 12.5658C37.2857 12.5715 37.3009 12.5772 37.3161 12.5829C37.3351 12.5905 37.3561 12.5981 37.3751 12.6038C37.3998 12.6134 37.4245 12.6229 37.4492 12.6305C37.4644 12.6362 37.4797 12.6419 37.493 12.6476C37.5158 12.6571 37.5405 12.6647 37.5633 12.6742C37.7135 12.7312 37.8619 12.7921 38.0083 12.8548C38.0254 12.8624 38.0425 12.8701 38.0596 12.8777C38.0919 12.891 38.1224 12.9043 38.1547 12.9195C38.1756 12.929 38.1965 12.9385 38.2155 12.9461C38.2441 12.9575 38.2707 12.9708 38.2992 12.9841C38.322 12.9937 38.3448 13.0051 38.3676 13.0165C38.3924 13.0279 38.4171 13.0393 38.4418 13.0507C38.4646 13.0621 38.4874 13.0716 38.5122 13.083C38.5369 13.0944 38.5616 13.1058 38.5863 13.1172C38.6091 13.1287 38.6339 13.1401 38.6567 13.1515C38.7042 13.1743 38.7517 13.1971 38.7993 13.2218C38.8715 13.258 38.9438 13.296 39.0161 13.3321C39.0408 13.3454 39.0636 13.3568 39.0883 13.3701C39.132 13.393 39.1758 13.4158 39.2195 13.4405C39.2652 13.4652 39.3127 13.4918 39.3583 13.5166C39.4002 13.5394 39.4401 13.5622 39.4819 13.585C39.4914 13.5907 39.5009 13.5964 39.5104 13.6021C39.6416 13.6782 39.7709 13.7542 39.9002 13.8341C39.9021 13.8341 39.9022 13.836 39.9041 13.836C39.9915 13.8912 40.079 13.9463 40.1665 14.0033C40.1665 14.0033 40.1684 14.0052 40.1703 14.0052C40.2083 14.03 40.2463 14.0547 40.2844 14.0794C40.2939 14.0851 40.3015 14.0908 40.311 14.0965C40.3509 14.1231 40.3908 14.1498 40.4289 14.1764C40.4726 14.2049 40.5144 14.2353 40.5582 14.2657C40.5962 14.2924 40.6323 14.319 40.6704 14.3437C40.6818 14.3513 40.6951 14.3608 40.7065 14.3703C40.7312 14.3893 40.7578 14.4065 40.7825 14.4255C40.7978 14.4369 40.8111 14.4464 40.8263 14.4578C40.8643 14.4863 40.9004 14.5129 40.9385 14.5415C40.9746 14.5681 41.0088 14.5947 41.043 14.6213C41.0545 14.6289 41.064 14.6384 41.0754 14.646C41.1914 14.7354 41.3055 14.8248 41.4195 14.918C41.4271 14.9256 41.4367 14.9313 41.4443 14.9389C41.4804 14.9693 41.5165 14.9978 41.5507 15.0282C41.6306 15.0948 41.7086 15.1614 41.7865 15.2298C41.7884 15.2317 41.7884 15.2317 41.7903 15.2336C41.8284 15.2678 41.8664 15.3021 41.9063 15.3363C41.9444 15.3705 41.9843 15.4066 42.0223 15.4409C42.0584 15.4751 42.0965 15.5074 42.1326 15.5416C42.1364 15.5455 42.1402 15.5474 42.144 15.5512C42.1763 15.5816 42.2087 15.612 42.2429 15.6443C42.2486 15.6481 42.2524 15.6538 42.2581 15.6595C42.2942 15.6938 42.3304 15.728 42.3646 15.7641C42.4026 15.8003 42.4387 15.8364 42.4749 15.8744C42.511 15.9105 42.549 15.9486 42.5852 15.9847C42.6213 16.0227 42.6574 16.0589 42.6935 16.0969C42.7297 16.1349 42.7658 16.1729 42.8019 16.211C42.8362 16.2471 42.8704 16.2832 42.9027 16.3213C42.9046 16.3232 42.9065 16.327 42.9103 16.3289C42.9426 16.365 42.975 16.4011 43.0073 16.4353C43.0263 16.4563 43.0453 16.4791 43.0643 16.5C43.0814 16.519 43.0986 16.538 43.1138 16.557C43.1157 16.5589 43.1176 16.5608 43.1195 16.5627C43.1689 16.6198 43.2184 16.6787 43.2678 16.7358C43.302 16.7757 43.3343 16.8156 43.3686 16.8556C43.3838 16.8746 43.399 16.8917 43.4142 16.9107C43.418 16.9145 43.4218 16.9183 43.4237 16.9221C43.4522 16.9564 43.4808 16.9925 43.5074 17.0267C43.5264 17.0495 43.5454 17.0743 43.5644 17.099C43.5967 17.1408 43.6291 17.1807 43.6614 17.2226C43.726 17.3043 43.7888 17.388 43.8496 17.4736C43.8801 17.5135 43.9086 17.5534 43.9371 17.5934C43.939 17.5972 43.9428 17.601 43.9447 17.6029C43.9599 17.6219 43.9732 17.6428 43.9885 17.6637C44.017 17.7017 44.0436 17.7417 44.0702 17.7797C44.1178 17.8482 44.1653 17.9166 44.2128 17.987C44.228 18.0079 44.2414 18.0307 44.2566 18.0516C44.3003 18.1163 44.3421 18.1828 44.3859 18.2494C44.4011 18.2722 44.4144 18.295 44.4296 18.3178C44.4638 18.3711 44.4962 18.4243 44.5285 18.4795C44.5456 18.5061 44.5608 18.5327 44.5779 18.5612C44.6236 18.6373 44.6692 18.7133 44.7129 18.7894C44.7262 18.8103 44.7376 18.8331 44.751 18.854C44.77 18.8883 44.789 18.9206 44.808 18.9548C44.8232 18.9814 44.8384 19.0081 44.8517 19.0347C44.8707 19.067 44.8879 19.0993 44.905 19.1317C44.9069 19.1336 44.9069 19.1355 44.9088 19.1374C44.9259 19.1678 44.9411 19.1982 44.9582 19.2286C45.0191 19.3427 45.0761 19.4568 45.1332 19.5709C45.1465 19.5975 45.1598 19.6261 45.1731 19.6527C45.1769 19.6603 45.1788 19.666 45.1826 19.6736C45.1997 19.7078 45.2149 19.7401 45.2301 19.7725C45.2472 19.8086 45.2644 19.8447 45.2815 19.8809C45.2929 19.9037 45.3043 19.9284 45.3138 19.9512C45.3176 19.9607 45.3214 19.9683 45.3271 19.9778C45.3347 19.9949 45.3423 20.0121 45.3499 20.0292C45.3594 20.052 45.3708 20.0748 45.3803 20.0976C45.3975 20.1337 45.4127 20.1699 45.4279 20.206C45.4431 20.2421 45.4583 20.2783 45.4735 20.3125C45.4906 20.3524 45.5077 20.3924 45.5249 20.4342C45.5382 20.4684 45.5534 20.5026 45.5667 20.5369C45.58 20.5692 45.5933 20.6015 45.6047 20.6338C45.6066 20.6414 45.6104 20.6472 45.6123 20.6548C45.6256 20.689 45.6409 20.7251 45.6542 20.7593C45.6656 20.7917 45.6789 20.824 45.6903 20.8563C45.6941 20.8658 45.6979 20.8753 45.7017 20.8848C45.7131 20.9172 45.7264 20.9514 45.7378 20.9837C45.7511 21.0217 45.7644 21.0598 45.7778 21.0959C45.8025 21.1663 45.8272 21.2347 45.85 21.3051C45.8652 21.3488 45.8785 21.3925 45.8937 21.4382C45.9033 21.4705 45.9147 21.5028 45.9242 21.5332C45.9261 21.539 45.928 21.5466 45.9299 21.5523C45.9527 21.6226 45.9736 21.6911 45.9945 21.7614C45.9983 21.7709 46.0002 21.7823 46.004 21.7918L46.0288 21.8774C46.044 21.9288 46.0573 21.9782 46.0725 22.0295C46.082 22.0638 46.0915 22.098 46.101 22.1322C46.1124 22.1721 46.1219 22.2102 46.1314 22.2501C46.1409 22.29 46.1523 22.3281 46.1619 22.368C46.1695 22.4003 46.1771 22.4307 46.1847 22.4612C46.1961 22.5087 46.2075 22.5562 46.2189 22.6038C46.2265 22.6342 46.2341 22.6665 46.2398 22.697C46.2417 22.7046 46.2436 22.7141 46.2455 22.7217C46.2531 22.7559 46.2607 22.792 46.2683 22.8263C46.2797 22.8776 46.2893 22.927 46.3007 22.9784C46.3083 23.0126 46.314 23.0468 46.3216 23.0811C46.3311 23.1248 46.3387 23.1666 46.3463 23.2104C46.3539 23.2484 46.3596 23.2845 46.3672 23.3225C46.3748 23.3625 46.3805 23.4024 46.3881 23.4423C46.3881 23.4442 46.3881 23.4461 46.3881 23.4461C46.3957 23.4861 46.4014 23.526 46.4072 23.564C46.4072 23.5678 46.4091 23.5716 46.4091 23.5735C46.4148 23.6116 46.4205 23.6477 46.4262 23.6857C46.4319 23.7257 46.4376 23.7675 46.4433 23.8074C46.4509 23.855 46.4566 23.9025 46.4623 23.95C46.4661 23.9767 46.4699 24.0052 46.4737 24.0318C46.4813 24.0869 46.487 24.1402 46.4927 24.1953C46.4965 24.2296 46.5003 24.2657 46.5041 24.2999C46.5041 24.3018 46.5041 24.3037 46.5041 24.3075C46.5079 24.3436 46.5117 24.3779 46.5155 24.414C46.5155 24.4216 46.5174 24.4292 46.5174 24.4387C46.5193 24.4615 46.5212 24.4863 46.5231 24.5091C46.525 24.5243 46.525 24.5395 46.5269 24.5547C46.5288 24.5832 46.5307 24.6099 46.5345 24.6365C46.5365 24.6574 46.5384 24.6764 46.5384 24.6954C46.5403 24.7297 46.5441 24.762 46.546 24.7962C46.5479 24.8266 46.5498 24.8571 46.5517 24.8894C46.5536 24.9103 46.5536 24.9293 46.5555 24.9502C46.5593 25.0111 46.5631 25.0719 46.565 25.1347C46.565 25.1385 46.565 25.1404 46.565 25.1423C46.5669 25.1594 46.5669 25.1765 46.5669 25.1936C46.5688 25.2183 46.5688 25.2431 46.5707 25.2697C46.5707 25.2906 46.5726 25.3115 46.5726 25.3324C46.5726 25.3571 46.5745 25.3819 46.5745 25.4047C46.5745 25.4237 46.5745 25.4427 46.5764 25.4598C46.5764 25.4921 46.5783 25.5264 46.5783 25.5587C46.5783 25.5986 46.5802 25.6367 46.5802 25.6766V25.6785C46.5897 25.7146 46.5897 25.7565 46.5897 25.7983Z" fill="white" stroke="black" stroke-width="1.82345" mask="url(#path-9-inside-1_1241_6151)"/>
<path d="M41.3372 36.4558L41.3372 36.4556C42.045 34.7789 42.5306 32.8841 42.7354 30.8527L41.3372 36.4558ZM41.3372 36.4558C39.6873 40.3693 36.8679 43.0263 33.6797 43.5279L41.3372 36.4558ZM22.3302 27.2895L22.3301 27.29C22.3004 27.7477 22.2855 28.2094 22.2855 28.6789C22.2855 29.3939 22.3208 30.0959 22.3879 30.785C22.5815 32.7606 23.0411 34.6095 23.7103 36.2556L22.3302 27.2895ZM22.3302 27.2895C22.6795 21.8272 25.0495 17.2742 28.2711 15.1119C29.081 14.5683 29.9433 14.1752 30.8415 13.9533C31.4024 13.8154 31.9781 13.7422 32.5654 13.7422C33.1163 13.7422 33.6561 13.8048 34.1816 13.9263L34.1817 13.9264M22.3302 27.2895L34.1817 13.9264M34.1817 13.9264C35.1496 14.15 36.0766 14.5716 36.941 15.166L36.9411 15.1661M34.1817 13.9264L36.9411 15.1661M36.9411 15.1661C40.1225 17.3531 42.4569 21.8818 42.7987 27.3005L42.7988 27.3016M36.9411 15.1661L42.7988 27.3016M42.7988 27.3016C42.8286 27.7555 42.8435 28.2152 42.8435 28.6789C42.8435 29.4164 42.8062 30.1427 42.7355 30.8522L42.7988 27.3016ZM33.6792 43.528C33.3117 43.5853 32.9417 43.6156 32.5654 43.6156H32.5654H32.5653H32.5653H32.5652H32.5652H32.5651H32.5651H32.5651H32.565H32.565H32.5649H32.5649H32.5648H32.5648H32.5647H32.5647H32.5646H32.5646H32.5646H32.5645H32.5645H32.5644H32.5644H32.5643H32.5643H32.5642H32.5642H32.5642H32.5641H32.5641H32.564H32.564H32.5639H32.5639H32.5638H32.5638H32.5638H32.5637H32.5637H32.5636H32.5636H32.5635H32.5635H32.5634H32.5634H32.5634H32.5633H32.5633H32.5632H32.5632H32.5631H32.5631H32.563H32.563H32.563H32.5629H32.5629H32.5628H32.5628H32.5627H32.5627H32.5626H32.5626H32.5626H32.5625H32.5625H32.5624H32.5624H32.5623H32.5623H32.5622H32.5622H32.5622H32.5621H32.5621H32.562H32.562H32.5619H32.5619H32.5618H32.5618H32.5618H32.5617H32.5617H32.5616H32.5616H32.5615H32.5615H32.5615H32.5614H32.5614H32.5613H32.5613H32.5612H32.5612H32.5611H32.5611H32.5611H32.561H32.561H32.5609H32.5609H32.5608H32.5608H32.5607H32.5607H32.5607H32.5606H32.5606H32.5605H32.5605H32.5604H32.5604H32.5603H32.5603H32.5603H32.5602H32.5602H32.5601H32.5601H32.56H32.56H32.56H32.5599H32.5599H32.5598H32.5598H32.5597H32.5597H32.5596H32.5596H32.5596H32.5595H32.5595H32.5594H32.5594H32.5593H32.5593H32.5592H32.5592H32.5592H32.5591H32.5591H32.559H32.559H32.5589H32.5589H32.5589H32.5588H32.5588H32.5587H32.5587H32.5586H32.5586H32.5586H32.5585H32.5585H32.5584H32.5584H32.5583H32.5583H32.5582H32.5582H32.5582H32.5581H32.5581H32.558H32.558H32.5579H32.5579H32.5579H32.5578H32.5578H32.5577H32.5577H32.5576H32.5576H32.5576H32.5575H32.5575H32.5574H32.5574H32.5573H32.5573H32.5573H32.5572H32.5572H32.5571H32.5571H32.557H32.557H32.557H32.5569H32.5569H32.5568H32.5568H32.5567H32.5567H32.5566H32.5566H32.5566H32.5565H32.5565H32.5564H32.5564H32.5563H32.5563H32.5563H32.5562H32.5562H32.5561H32.5561H32.5561H32.556H32.556H32.5559H32.5559H32.5558H32.5558H32.5558H32.5557H32.5557H32.5556H32.5556H32.5555H32.5555H32.5555H32.5554H32.5554H32.5553H32.5553H32.5552H32.5552H32.5552H32.5551H32.5551H32.555H32.555H32.5549H32.5549H32.5549H32.5548H32.5548H32.5547H32.5547H32.5547H32.5546H32.5546H32.5545H32.5545H32.5544H32.5544H32.5544H32.5543H32.5543H32.5542H32.5542H32.5542H32.5541H32.5541H32.554H32.554H32.5539H32.5539H32.5539H32.5538H32.5538H32.5537H32.5537H32.5537H32.5536H32.5536H32.5535H32.5535H32.5534H32.5534H32.5534H32.5533H32.5533H32.5532H32.5532H32.5532H32.5531H32.5531H32.553H32.553H32.553H32.5529H32.5529H32.5528H32.5528H32.5527H32.5527H32.5527H32.5526H32.5526H32.5525H32.5525H32.5525H32.5524H32.5524H32.5523H32.5523H32.5523H32.5522H32.5522H32.5521H32.5521H32.5521H32.552H32.552H32.5519H32.5519H32.5519H32.5518H32.5518H32.5517H32.5517H32.5517H32.5516H32.5516H32.5515H32.5515H32.5514H32.5514H32.5514H32.5513H32.5513H32.5512H32.5512H32.5512H32.5511H32.5511H32.551H32.551H32.551H32.5509H32.5509H32.5509H32.5508H32.5508H32.5507H32.5507H32.5507H32.5506H32.5506H32.5505H32.5505H32.5505H32.5504H32.5504H32.5503H32.5503H32.5503H32.5502H32.5502H32.5501H32.5501H32.5501H32.55H32.55H32.5499H32.5499H32.5499H32.5498H32.5498H32.5498H32.5497H32.5497H32.5496H32.5496H32.5496H32.5495H32.5495H32.5494H32.5494H32.5494H32.5493H32.5493H32.5492H32.5492H32.5492H32.5491H32.5491H32.5491H32.549H32.549H32.5489H32.5489H32.5489H32.5488H32.5488H32.5488H32.5487H32.5487H32.5486H32.5486H32.5486H32.5485H32.5485H32.5484H32.5484H32.5484H32.5483H32.5483H32.5483H32.5482H32.5482H32.5481H32.5481H32.5481H32.548H32.548H32.548H32.5479H32.5479H32.5478H32.5478H32.5478H32.5477H32.5477H32.5477H32.5476H32.5476H32.5476H32.5475H32.5475H32.5474H32.5474H32.5474H32.5473H32.5473H32.5473H32.5472H32.5472H32.5472H32.5471H32.5471H32.547H32.547H32.547H32.5469H32.5469H32.5469H32.5468H32.5468H32.5468H32.5467H32.5467H32.5466H32.5466H32.5466H32.5465H32.5465H32.5465H32.5464H32.5464H32.5464H32.5463H32.5463H32.5463H32.5462H32.5462H32.5461H32.5461H32.5461H32.546H32.546H32.546H32.5459H32.5459H32.5459H32.5458L32.5458 43.6156L32.5458 43.6156H32.5458H32.5457H32.5457H32.5457H32.5456H32.5456H32.5455H32.5455H32.5455H32.5454H32.5454H32.5454H32.5453H32.5453H32.5453H32.5452H32.5452H32.5452C28.8529 43.6046 25.5301 40.7259 23.7103 36.2558L33.6792 43.528Z" fill="white" stroke="black" stroke-width="0.911725"/>
<circle cx="27.477" cy="30.8864" r="1.29998" fill="black"/>
<circle cx="37.7115" cy="30.8864" r="1.29998" fill="black"/>
<circle cx="28.4575" cy="30.2411" r="0.578921" fill="white"/>
<circle cx="38.649" cy="30.2411" r="0.578921" fill="white"/>
<path fill-rule="evenodd" clip-rule="evenodd" d="M40.3276 31.0881C38.5397 29.3002 36.0374 29.9225 35.1198 31.0583C34.9883 31.2211 34.7412 31.2149 34.6588 31.1487C34.5882 31.092 34.6599 30.8012 34.7914 30.6384C35.9683 29.1816 38.7312 28.4196 40.8637 30.5521C41.0117 30.7001 41.0117 30.9401 40.8637 31.0881C40.7157 31.2362 40.4757 31.2362 40.3276 31.0881Z" fill="black"/>
<path fill-rule="evenodd" clip-rule="evenodd" d="M24.7273 31.0881C26.5152 29.3002 29.0175 29.9225 29.9351 31.0583C30.0667 31.2211 30.3137 31.2149 30.3962 31.1487C30.4667 31.092 30.395 30.8012 30.2635 30.6384C29.0866 29.1816 26.3237 28.4196 24.1913 30.5521C24.0432 30.7001 24.0432 30.9401 24.1913 31.0881C24.3393 31.2362 24.5793 31.2362 24.7273 31.0881Z" fill="black"/>
<path fill-rule="evenodd" clip-rule="evenodd" d="M30.4377 38.4252C30.1834 38.1757 31.0449 37.5657 31.302 37.488C31.3851 37.4629 31.5096 37.4307 31.6282 37.4383C31.9288 37.4578 32.1757 37.6642 32.4449 37.7773C32.4794 37.7918 32.5003 37.7981 32.5103 37.8008C32.5204 37.798 32.5425 37.7912 32.5794 37.7756C32.6439 37.7483 32.7172 37.7104 32.8095 37.6627C32.8951 37.6185 32.9991 37.5647 33.1 37.5232C33.1947 37.4842 33.3284 37.4375 33.4703 37.4375C33.5846 37.4375 33.6975 37.4684 33.7835 37.4974C34.0618 37.5912 34.8404 38.0502 34.6275 38.3848C34.4316 38.6928 33.7998 38.2185 33.5379 38.1302C33.4973 38.1165 33.4749 38.1121 33.4675 38.1107C33.4602 38.1124 33.4349 38.1182 33.3853 38.1386C33.0987 38.2567 32.8299 38.4753 32.5076 38.4753C32.1597 38.4753 31.8946 38.2172 31.5795 38.1121C31.5686 38.1144 31.5486 38.1189 31.5178 38.1282C31.457 38.1466 31.3816 38.1749 31.302 38.2095C31.0413 38.3226 30.7198 38.5965 30.4377 38.4252Z" fill="#CAC9C9"/>
<path fill-rule="evenodd" clip-rule="evenodd" d="M33.9901 38.9717C34.1081 39.1447 34.0635 39.3805 33.8906 39.4985C33.4532 39.797 32.9228 39.8932 32.4483 39.8742C31.9775 39.8554 31.51 39.721 31.1851 39.4978C31.0126 39.3792 30.9669 39.1442 31.0855 38.9716C31.1832 38.8293 31.3771 39.3333 32.4483 39.3761C33.5196 39.4189 33.9116 38.8568 33.9901 38.9717Z" fill="#CAC9C9"/>
<path fill-rule="evenodd" clip-rule="evenodd" d="M34.2129 11.828C41.1854 12.6649 46.5893 18.6013 46.5893 25.7982C46.5893 26.2683 46.5666 26.7349 46.5212 27.1946C46.5177 27.2298 46.4902 27.2578 46.4551 27.262C45.9133 27.3256 45.3611 27.3575 44.8018 27.3575C39.5663 27.3575 34.999 24.4978 32.5757 20.2561C32.5463 20.2046 32.4716 20.2046 32.4421 20.2561C30.0189 24.4978 25.4516 27.3575 20.216 27.3575C19.6643 27.3575 19.1179 27.3257 18.582 27.2638C18.5468 27.2597 18.5192 27.2317 18.5157 27.1964C18.4703 26.7367 18.4476 26.2701 18.4476 25.7982C18.4476 18.607 23.8419 12.6763 30.8049 11.8299C30.805 11.8299 30.805 11.8299 30.805 11.8299C30.805 11.8299 30.805 11.8299 30.805 11.8299C31.3659 11.7614 31.9383 11.7272 32.5182 11.7272C33.0906 11.7272 33.6572 11.7614 34.2124 11.828C34.2126 11.828 34.2127 11.828 34.2129 11.828Z" fill="white"/>
<path fill-rule="evenodd" clip-rule="evenodd" d="M32.9548 20.8813C35.457 24.7764 39.798 27.5448 44.772 27.5448C44.9528 27.5448 46.4781 27.6596 46.4998 27.4392C46.5452 26.9795 46.5893 26.2683 46.5893 25.7982C46.5893 18.6013 41.1854 12.6649 34.2129 11.828C33.6577 11.7615 33.0906 11.7272 32.5182 11.7272C31.9383 11.7272 31.3659 11.7614 30.805 11.8299C23.842 12.6763 18.4476 18.607 18.4476 25.7982C18.4476 26.2701 18.4703 26.7367 18.5157 27.1964C18.5372 27.414 20.0157 27.5448 20.216 27.5448C25.19 27.5448 29.5609 24.7764 32.0631 20.8813C32.073 20.8659 32.0829 20.8504 32.0928 20.8349C32.5436 20.1271 32.6886 20.4636 32.9251 20.8349C32.935 20.8504 32.9449 20.8659 32.9548 20.8813ZM34.1225 12.5807C33.5972 12.5177 33.0604 12.4853 32.5182 12.4853C31.9712 12.4853 31.4325 12.5174 30.9058 12.5813C30.9027 12.5817 30.8995 12.5821 30.8964 12.5825C24.3092 13.3832 19.2057 18.995 19.2057 25.7982C19.2057 26.0553 19.2128 26.3104 19.227 26.5633C19.5537 26.5872 19.8838 26.5994 20.216 26.5994C25.1685 26.5994 29.4901 23.8952 31.7839 19.8801C32.1043 19.3192 32.9135 19.3192 33.234 19.8801C35.5278 23.8952 39.8493 26.5994 44.8018 26.5994C45.1414 26.5994 45.4777 26.587 45.8099 26.5624C45.8241 26.3094 45.8312 26.0545 45.8312 25.7982C45.8312 18.9896 40.7184 13.3725 34.1225 12.5807Z" fill="black"/>
<path d="M19.9419 25.4939C21.4524 20.8448 26.0821 15.8373 29.9762 13.2295C30.06 13.1733 30.006 13.0434 29.9078 13.0662C24.4076 14.3464 20.4963 18.7919 19.7315 25.4542C19.7187 25.5662 19.9071 25.6011 19.9419 25.4939Z" fill="#CAC9C9"/>
<path d="M25.9062 23.2208C25.5705 19.0174 27.6895 15.0174 29.8452 13.3145C29.9182 13.2568 29.8716 13.1371 29.7792 13.1493C26.2261 13.6207 24.6737 16.7382 25.9062 23.2208Z" fill="#CAC9C9"/>
<path d="M30.8442 42.4953C25.2798 38.4438 23.9773 31.6289 23.1877 28.2436C23.1645 28.1439 23.0329 28.154 23.0281 28.2562C22.8487 32.1198 24.4444 40.1516 30.7645 42.65C30.8631 42.6889 30.9298 42.5577 30.8442 42.4953Z" fill="#CAC9C9"/>
<path d="M32.4872 34.9592C32.4877 33.4145 32.4872 30.899 32.4879 29.4577C32.4879 29.3959 32.4272 29.3533 32.3748 29.3859C31.2337 30.0943 31.3675 35.6017 32.4429 35.0338C32.4698 35.0196 32.4872 34.9896 32.4872 34.9592Z" fill="#CAC9C9"/>
</g>
<circle cx="49.8053" cy="50.7847" r="9.6" fill="#CAC9C9" stroke="white" stroke-width="1.2"/>
<circle cx="49.8053" cy="50.7847" r="8.4" fill="black" stroke="black" stroke-width="1.2"/>
<path d="M47.5351 55.7847H44.5522L47.913 45.6028H51.6914L55.0522 55.7847H52.0692L49.842 48.4068H49.7624L47.5351 55.7847ZM46.9783 51.7676H52.5863V53.8358H46.9783V51.7676Z" fill="white"/>
<defs>
<filter id="filter0_d_1241_6151" x="8.22839" y="7.61035" width="40.3151" height="43.6334" filterUnits="userSpaceOnUse" color-interpolation-filters="sRGB">
<feFlood flood-opacity="0" result="BackgroundImageFix"/>
<feColorMatrix in="SourceAlpha" type="matrix" values="0 0 0 0 0 0 0 0 0 0 0 0 0 0 0 0 0 0 127 0" result="hardAlpha"/>
<feOffset dx="-1" dy="1.5"/>
<feComposite in2="hardAlpha" operator="out"/>
<feColorMatrix type="matrix" values="0 0 0 0 0 0 0 0 0 0 0 0 0 0 0 0 0 0 0.25 0"/>
<feBlend mode="normal" in2="BackgroundImageFix" result="effect1_dropShadow_1241_6151"/>
<feBlend mode="normal" in="SourceGraphic" in2="effect1_dropShadow_1241_6151" result="shape"/>
</filter>
<radialGradient id="paint0_radial_1241_6151" cx="0" cy="0" r="1" gradientUnits="userSpaceOnUse" gradientTransform="translate(19.7136 41.7368) rotate(-58.3553) scale(35.7618 32.9607)">
<stop stop-color="white"/>
<stop offset="1" stop-color="white"/>
</radialGradient>
<radialGradient id="paint1_radial_1241_6151" cx="0" cy="0" r="1" gradientUnits="userSpaceOnUse" gradientTransform="translate(19.7908 42.1981) rotate(-58.0129) scale(35.9271 33.1081)">
<stop stop-color="white"/>
<stop offset="1" stop-color="white"/>
</radialGradient>
</defs>
</svg>
