<svg width="60" height="61" viewBox="0 0 60 61" fill="none" xmlns="http://www.w3.org/2000/svg">
<circle cx="30.0001" cy="30.4561" r="29.0001" fill="white" stroke="white" stroke-width="2"/>
<path d="M36.009 29.8077C34.4279 31.7568 29.5892 31.7309 30.0302 33.7139C30.4711 35.6969 36.5427 36.4777 37.9223 36.6045C40.207 36.8146 45.8144 37.6202 45.8144 36.6045C45.8144 35.5889 47.5831 33.313 45.8144 32.8545C44.0457 32.396 37.5901 27.8586 36.009 29.8077Z" fill="#CAC9C9"/>
<path d="M20.859 30.0989C18.3585 31.3241 13.0871 33.9081 13.528 35.891C13.9689 37.874 12.603 40.7767 13.9826 40.9035C16.2672 41.1135 46.0345 41.9191 46.0345 40.9035C46.0345 40.5111 48.8191 36.8378 41.4312 36.7821C34.0434 36.7264 30.6439 33.781 29.6675 32.995C28.0763 31.714 23.3595 28.8736 20.859 30.0989Z" fill="#CAC9C9"/>
<path fill-rule="evenodd" clip-rule="evenodd" d="M21.4549 22.0651C20.8898 22.0651 20.3374 22.2293 19.8676 22.537C19.3977 22.8447 19.0315 23.282 18.8153 23.7936C18.599 24.3052 18.5425 24.8682 18.6527 25.4114C18.763 25.9545 19.0351 26.4534 19.4346 26.845C19.8342 27.2366 20.3433 27.5033 20.8975 27.6113C21.4517 27.7194 22.0262 27.6639 22.5483 27.452C23.0703 27.2401 23.5166 26.8812 23.8305 26.4207C24.1444 25.9603 24.312 25.4189 24.312 24.8651C24.312 24.1225 24.011 23.4103 23.4752 22.8852C22.9394 22.3601 22.2127 22.0651 21.4549 22.0651ZM21.4549 26.2651C21.1724 26.2651 20.8962 26.183 20.6612 26.0292C20.4263 25.8753 20.2432 25.6567 20.1351 25.4009C20.027 25.1451 19.9987 24.8636 20.0538 24.592C20.1089 24.3204 20.245 24.071 20.4448 23.8752C20.6446 23.6794 20.8991 23.546 21.1762 23.492C21.4533 23.438 21.7406 23.4657 22.0016 23.5717C22.2626 23.6776 22.4857 23.8571 22.6427 24.0873C22.7997 24.3175 22.8835 24.5882 22.8835 24.8651C22.8835 25.2364 22.7329 25.5925 22.465 25.8551C22.1971 26.1176 21.8338 26.2651 21.4549 26.2651Z" fill="black"/>
<path fill-rule="evenodd" clip-rule="evenodd" d="M13.5714 19.2561C13.3819 19.2561 13.2003 19.3298 13.0663 19.4611C12.9324 19.5924 12.8571 19.7704 12.8571 19.9561V40.9561C12.8571 41.1417 12.9324 41.3198 13.0663 41.451C13.2003 41.5823 13.3819 41.6561 13.5714 41.6561H46.428C46.6174 41.6561 46.7991 41.5823 46.9331 41.451C47.067 41.3198 47.1423 41.1417 47.1423 40.9561L47.1429 19.9561C47.1429 19.7704 47.0676 19.5924 46.9337 19.4611C46.7997 19.3298 46.6181 19.2561 46.4286 19.2561L13.5714 19.2561ZM14.2856 20.6561V32.9663L15.2885 31.9828C17.2011 30.1084 19.795 29.0555 22.4998 29.0555C25.2046 29.0555 27.7985 30.1084 29.7111 31.9828C29.7762 32.0466 29.845 32.1055 29.9137 32.1643C29.9633 32.2068 30.0129 32.2493 30.0611 32.2936L30.6625 31.8036C32.5569 30.2564 34.8886 29.3137 37.3451 29.1018C39.8016 28.8899 42.2655 29.4188 44.4066 30.6178L45.7137 31.35L45.7144 20.6561L14.2856 20.6561ZM16.2985 32.9761L14.2856 34.9459V40.2561H45.7137V37.4561H39.7445C37.693 37.4618 35.6606 37.0689 33.765 36.2999C31.8694 35.5309 30.1483 34.4012 28.7011 32.9761C27.0564 31.3644 24.8257 30.4589 22.4998 30.4589C20.1739 30.4589 17.9432 31.3644 16.2985 32.9761ZM31.5775 32.8788L31.1689 33.2127C33.63 35.0599 36.6445 36.0594 39.7445 36.0561H45.7137V32.9621L43.698 31.833C41.8098 30.7758 39.637 30.3094 37.4707 30.4963C35.3044 30.6832 33.2482 31.5145 31.5775 32.8788Z" fill="black"/>
<path fill-rule="evenodd" clip-rule="evenodd" d="M13.5714 16.4561C12.6245 16.4572 11.7168 16.8263 11.0473 17.4824C10.3778 18.1385 10.0011 19.0281 10 19.9561V40.9561C10.0011 41.884 10.3778 42.7736 11.0473 43.4297C11.7168 44.0858 12.6245 44.4549 13.5714 44.4561H46.428C47.3748 44.4549 48.2826 44.0858 48.9521 43.4297C49.6216 42.7736 49.9982 41.884 49.9994 40.9561L50 19.9561C49.9989 19.0281 49.6222 18.1386 48.9527 17.4824C48.2832 16.8263 47.3755 16.4572 46.4286 16.4561L13.5714 16.4561ZM13.5714 17.8561C13.0031 17.8561 12.458 18.0773 12.0562 18.4711C11.6543 18.865 11.4285 19.3991 11.4285 19.9561V40.9561C11.4285 41.513 11.6543 42.0472 12.0562 42.441C12.458 42.8348 13.0031 43.0561 13.5714 43.0561H46.428C46.9963 43.0561 47.5413 42.8348 47.9432 42.441C48.345 42.0472 48.5708 41.513 48.5708 40.9561L48.5714 19.9561C48.5714 19.3991 48.3457 18.865 47.9438 18.4711C47.542 18.0773 46.9969 17.8561 46.4286 17.8561L13.5714 17.8561Z" fill="black"/>
<ellipse cx="21.4287" cy="24.8425" rx="1.4287" ry="1.40015" fill="#D9D9D9"/>
<circle cx="49.7002" cy="50.7847" r="9.6" fill="#CAC9C9" stroke="white" stroke-width="1.2"/>
<circle cx="49.7002" cy="50.7847" r="8.4" fill="black" stroke="black" stroke-width="1.2"/>
<path d="M47.43 55.7847H44.4471L47.8079 45.6028H51.5863L54.9471 55.7847H51.9641L49.7369 48.4068H49.6573L47.43 55.7847ZM46.8732 51.7676H52.4812V53.8358H46.8732V51.7676Z" fill="white"/>
</svg>
