<svg width="61" height="61" viewBox="0 0 61 61" fill="none" xmlns="http://www.w3.org/2000/svg">
<circle cx="30.5323" cy="30.4561" r="29.0001" fill="white" stroke="white" stroke-width="2"/>
<path d="M36.5413 29.8077C34.9601 31.7568 30.1215 31.7309 30.5624 33.7139C31.0033 35.6969 37.0749 36.4777 38.4545 36.6045C40.7392 36.8146 46.3466 37.6202 46.3466 36.6045C46.3466 35.5889 48.1154 33.313 46.3466 32.8545C44.5779 32.396 38.1224 27.8586 36.5413 29.8077Z" fill="#CAC9C9"/>
<path d="M21.3912 30.0991C18.8907 31.3244 13.6193 33.9084 14.0602 35.8913C14.5011 37.8742 13.1353 40.7769 14.5148 40.9037C16.7994 41.1138 46.5667 41.9193 46.5667 40.9037C46.5667 40.5113 49.3513 36.8381 41.9635 36.7824C34.5756 36.7267 31.1762 33.7813 30.1998 32.9952C28.6085 31.7143 23.8917 28.8738 21.3912 30.0991Z" fill="#CAC9C9"/>
<path fill-rule="evenodd" clip-rule="evenodd" d="M21.9871 22.0651C21.4221 22.0651 20.8697 22.2293 20.3998 22.537C19.93 22.8447 19.5638 23.282 19.3475 23.7936C19.1313 24.3052 19.0747 24.8682 19.1849 25.4114C19.2952 25.9545 19.5673 26.4534 19.9669 26.845C20.3664 27.2366 20.8755 27.5033 21.4297 27.6113C21.984 27.7194 22.5584 27.6639 23.0805 27.452C23.6026 27.2401 24.0488 26.8812 24.3627 26.4207C24.6767 25.9603 24.8442 25.4189 24.8442 24.8651C24.8442 24.1225 24.5432 23.4103 24.0074 22.8852C23.4716 22.3601 22.7449 22.0651 21.9871 22.0651ZM21.9871 26.2651C21.7046 26.2651 21.4284 26.183 21.1935 26.0292C20.9586 25.8753 20.7755 25.6567 20.6673 25.4009C20.5592 25.1451 20.5309 24.8636 20.586 24.592C20.6412 24.3204 20.7772 24.071 20.977 23.8752C21.1768 23.6794 21.4313 23.546 21.7084 23.492C21.9855 23.438 22.2728 23.4657 22.5338 23.5717C22.7949 23.6776 23.018 23.8571 23.1749 24.0873C23.3319 24.3175 23.4157 24.5882 23.4157 24.8651C23.4157 25.2364 23.2652 25.5925 22.9973 25.8551C22.7294 26.1176 22.366 26.2651 21.9871 26.2651Z" fill="black"/>
<path fill-rule="evenodd" clip-rule="evenodd" d="M14.1036 19.2561C13.9142 19.2561 13.7325 19.3298 13.5985 19.4611C13.4646 19.5924 13.3893 19.7704 13.3893 19.9561V40.9561C13.3893 41.1417 13.4646 41.3198 13.5985 41.451C13.7325 41.5823 13.9142 41.6561 14.1036 41.6561H46.9602C47.1496 41.6561 47.3313 41.5823 47.4653 41.451C47.5992 41.3198 47.6745 41.1417 47.6745 40.9561L47.6751 19.9561C47.6751 19.7704 47.5999 19.5924 47.4659 19.4611C47.332 19.3298 47.1503 19.2561 46.9609 19.2561L14.1036 19.2561ZM14.8179 20.6561V32.9663L15.8207 31.9828C17.7333 30.1084 20.3273 29.0555 23.032 29.0555C25.7368 29.0555 28.3308 30.1084 30.2433 31.9828C30.3085 32.0466 30.3772 32.1055 30.446 32.1643C30.4956 32.2068 30.5451 32.2493 30.5933 32.2936L31.1947 31.8036C33.0892 30.2564 35.4209 29.3137 37.8773 29.1018C40.3338 28.8899 42.7977 29.4188 44.9388 30.6178L46.2459 31.35L46.2466 20.6561L14.8179 20.6561ZM16.8307 32.9761L14.8179 34.9459V40.2561H46.2459V37.4561H40.2767C38.2252 37.4618 36.1928 37.0689 34.2972 36.2999C32.4017 35.5309 30.6805 34.4012 29.2334 32.9761C27.5886 31.3644 25.3579 30.4589 23.032 30.4589C20.7061 30.4589 18.4755 31.3644 16.8307 32.9761ZM32.1097 32.8788L31.7012 33.2127C34.1623 35.0599 37.1767 36.0594 40.2767 36.0561H46.2459V32.9621L44.2303 31.833C42.342 30.7758 40.1692 30.3094 38.0029 30.4963C35.8367 30.6832 33.7804 31.5145 32.1097 32.8788Z" fill="black"/>
<path fill-rule="evenodd" clip-rule="evenodd" d="M14.1036 16.4561C13.1568 16.4572 12.249 16.8263 11.5795 17.4824C10.91 18.1385 10.5334 19.0281 10.5322 19.9561V40.9561C10.5334 41.884 10.91 42.7736 11.5795 43.4297C12.249 44.0858 13.1568 44.4549 14.1036 44.4561H46.9602C47.907 44.4549 48.8148 44.0858 49.4843 43.4297C50.1538 42.7736 50.5304 41.884 50.5316 40.9561L50.5322 19.9561C50.5311 19.0281 50.1545 18.1386 49.4849 17.4824C48.8154 16.8263 47.9077 16.4572 46.9609 16.4561L14.1036 16.4561ZM14.1036 17.8561C13.5353 17.8561 12.9903 18.0773 12.5884 18.4711C12.1865 18.865 11.9608 19.3991 11.9608 19.9561V40.9561C11.9608 41.513 12.1865 42.0472 12.5884 42.441C12.9903 42.8348 13.5353 43.0561 14.1036 43.0561H46.9602C47.5285 43.0561 48.0736 42.8348 48.4754 42.441C48.8773 42.0472 49.103 41.513 49.103 40.9561L49.1037 19.9561C49.1037 19.3991 48.8779 18.865 48.4761 18.4711C48.0742 18.0773 47.5292 17.8561 46.9609 17.8561L14.1036 17.8561Z" fill="black"/>
<ellipse cx="21.9609" cy="24.8423" rx="1.4287" ry="1.40015" fill="#D9D9D9"/>
<circle cx="50.2324" cy="50.7847" r="9.6" fill="#CAC9C9" stroke="white" stroke-width="1.2"/>
<circle cx="50.2324" cy="50.7847" r="8.4" fill="black" stroke="black" stroke-width="1.2"/>
<path d="M46.2129 55.7847V45.6028H50.6277C51.4032 45.6028 52.0545 45.7073 52.5815 45.9161C53.1118 46.1249 53.5112 46.4198 53.7797 46.801C54.0514 47.1822 54.1873 47.6313 54.1873 48.1483C54.1873 48.5228 54.1045 48.8642 53.9387 49.1725C53.7763 49.4807 53.5476 49.7392 53.2527 49.948C52.9577 50.1535 52.613 50.296 52.2186 50.3756V50.475C52.6561 50.4916 53.0538 50.6026 53.4118 50.8081C53.7697 51.0103 54.0547 51.2903 54.2669 51.6483C54.479 52.0029 54.585 52.4206 54.585 52.9011C54.585 53.458 54.4392 53.9535 54.1475 54.3877C53.8592 54.8218 53.4482 55.1632 52.9146 55.4118C52.381 55.6604 51.7446 55.7847 51.0055 55.7847H46.2129ZM48.9771 53.5773H50.2697C50.7337 53.5773 51.0817 53.4911 51.3137 53.3188C51.5458 53.1431 51.6618 52.8846 51.6618 52.5432C51.6618 52.3046 51.6071 52.1024 51.4977 51.9367C51.3883 51.7709 51.2325 51.645 51.0304 51.5588C50.8315 51.4726 50.5912 51.4296 50.3095 51.4296H48.9771V53.5773ZM48.9771 49.7193H50.1106C50.3526 49.7193 50.5663 49.6812 50.752 49.605C50.9376 49.5287 51.0817 49.4194 51.1845 49.2769C51.2905 49.131 51.3436 48.9537 51.3436 48.7449C51.3436 48.43 51.2309 48.1897 51.0055 48.024C50.7801 47.855 50.4951 47.7705 50.1504 47.7705H48.9771V49.7193Z" fill="white"/>
</svg>
