<svg width="61" height="61" viewBox="0 0 61 61" fill="none" xmlns="http://www.w3.org/2000/svg">
<circle cx="30.1052" cy="30.5643" r="29.0001" fill="white" stroke="white" stroke-width="2"/>
<g filter="url(#filter0_d_1241_7108)">
<mask id="mask0_1241_7108" style="mask-type:alpha" maskUnits="userSpaceOnUse" x="9" y="8" width="44" height="46">
<path d="M10.0478 19.6954C9.55783 17.6614 10.7915 15.6196 12.8033 15.135L40.7407 8.40551C42.7525 7.92091 44.7805 9.177 45.2705 11.2111L52.8036 42.4844C53.2935 44.5185 52.0598 46.5602 50.0481 47.0448L22.1106 53.7743C20.0989 54.2589 18.0708 53.0028 17.5809 50.9688L10.0478 19.6954Z" fill="white"/>
</mask>
<g mask="url(#mask0_1241_7108)">
<rect width="56.9081" height="52.642" transform="matrix(-0.64985 -0.760062 -0.763491 0.645818 71.6108 34.1646)" fill="#CAC9C9"/>
<path d="M51.3019 13.5091L2.69484 46.772L-0.477411 32.1446L51.3019 13.5091Z" fill="white"/>
<path d="M51.2143 13.281L-5.33489 24.2717L-4.57318 14.585L51.2143 13.281Z" fill="white"/>
<path d="M53.8735 12.9036L23.5996 61.7437L19.6218 52.8786L53.8735 12.9036Z" fill="white"/>
<path d="M51.6694 12.7009L41.6997 69.2913L34.714 62.5376L51.6694 12.7009Z" fill="white"/>
</g>
<path fill-rule="evenodd" clip-rule="evenodd" d="M9.67229 20.2492C9.12712 17.986 10.5199 15.7093 12.7831 15.1641L40.7206 8.43462C42.9838 7.88946 45.2605 9.28223 45.8057 11.5455L53.2562 42.4762C53.8013 44.7394 52.4086 47.0161 50.1453 47.5612L22.2079 54.2908C19.9447 54.8359 17.668 53.4431 17.1228 51.1799L9.67229 20.2492ZM12.5846 15.9366C10.8243 16.3607 10.1589 18.2695 10.5829 20.0298L14.0159 36.0946L18.1685 51.7006C18.5925 53.4609 20.2282 53.8041 21.9885 53.3801L49.9008 46.2404C51.6611 45.8164 52.539 43.3867 52.115 41.6264L45.4566 12.3933C45.0326 10.633 42.7002 8.92126 40.9399 9.34528L21.6442 13.5234L12.5846 15.9366Z" fill="black"/>
<path d="M35.5629 20.1003C40.2156 20.1003 43.9874 17.2678 43.9874 13.7739C43.9874 10.2799 40.2156 7.44751 35.5629 7.44751C30.9101 7.44751 27.1383 10.2799 27.1383 13.7739C27.1383 17.2678 30.9101 20.1003 35.5629 20.1003Z" fill="white"/>
<path fill-rule="evenodd" clip-rule="evenodd" d="M41.0126 17.5717C42.377 16.547 43.1425 15.1957 43.1425 13.7739C43.1425 12.352 42.377 11.0007 41.0126 9.97611C39.6478 8.95127 37.7239 8.56993 35.5629 8.56993C33.4019 8.56993 31.4779 8.95127 30.1132 9.97611C28.7487 11.0007 27.9833 12.352 27.9833 13.7739C27.9833 15.1957 28.7487 16.547 30.1132 17.5717C31.4779 18.5965 33.4019 19.2553 35.5629 19.2553C37.7239 19.2553 39.6478 18.5965 41.0126 17.5717ZM43.9874 13.7739C43.9874 17.2678 40.2156 20.1003 35.5629 20.1003C30.9101 20.1003 27.1383 17.2678 27.1383 13.7739C27.1383 10.2799 30.9101 7.44751 35.5629 7.44751C40.2156 7.44751 43.9874 10.2799 43.9874 13.7739Z" fill="black"/>
<path d="M34.8271 9.00398C29.5918 9.5744 28.0948 13.6602 28.6536 14.6985C28.709 14.8015 28.8424 14.7666 28.8902 14.6599C29.887 12.4359 32.3866 10.67 34.8829 9.16723C34.9654 9.11759 34.9228 8.99355 34.8271 9.00398Z" fill="#CAC9C9"/>
<mask id="path-12-inside-1_1241_7108" fill="white">
<path d="M51.1947 27.7197C51.1947 28.2665 51.1672 28.809 51.112 29.3431C50.9065 31.3438 50.3258 33.531 49.4398 35.6843C48.893 37.0132 48.2318 38.3293 47.4709 39.5798C47.0873 39.7345 46.6656 39.8214 46.2247 39.8214C46.0849 39.8214 45.945 39.8129 45.8093 39.7959C43.9294 44.2551 40.6719 47.3876 36.8846 47.9831C36.4416 48.0488 35.9923 48.0849 35.5409 48.087C31.1389 48.0743 27.2944 44.6536 25.2237 39.567C24.376 39.5522 23.6066 39.2195 23.028 38.6833C22.6508 38.0093 22.3032 37.3205 21.9874 36.6232C20.8747 34.1732 20.1457 31.6363 19.9104 29.3452C19.8553 28.8111 19.8278 28.2686 19.8278 27.7197C19.8278 27.673 19.8278 27.6285 19.8278 27.5819V27.5692C19.8278 27.5353 19.8278 27.5014 19.8299 27.4675C19.8299 27.4569 19.8299 27.4484 19.8299 27.4378C19.8299 27.4145 19.8299 27.3912 19.832 27.3678C19.832 27.3551 19.832 27.3424 19.832 27.3297C19.832 27.3106 19.832 27.2915 19.8341 27.2725C19.8362 27.2343 19.8362 27.1962 19.8384 27.1601C19.8384 27.1538 19.8384 27.1474 19.8384 27.1411C19.8426 27.0478 19.8468 26.9546 19.8511 26.8634C19.8532 26.8232 19.8553 26.7808 19.8574 26.7405C19.8574 26.7257 19.8595 26.7108 19.8595 26.696C19.8617 26.6578 19.8638 26.6197 19.868 26.5816C19.8701 26.5434 19.8744 26.5053 19.8765 26.4671C19.8786 26.4502 19.8786 26.4353 19.8807 26.4205C19.8829 26.3823 19.8871 26.3463 19.8892 26.3103C19.8892 26.2997 19.8913 26.2891 19.8913 26.2785C19.8977 26.1958 19.9062 26.1132 19.9147 26.0326C19.9253 25.9309 19.938 25.8271 19.9507 25.7253C19.9549 25.6851 19.9613 25.6427 19.9676 25.6024C19.9676 25.6003 19.9676 25.6003 19.9676 25.5982C19.974 25.5579 19.9782 25.5176 19.9846 25.4774C19.9931 25.4159 20.0037 25.3523 20.0121 25.2908C20.0164 25.2569 20.0227 25.2251 20.027 25.1912C20.027 25.1891 20.027 25.1849 20.0291 25.1828C20.0355 25.1404 20.0418 25.098 20.0503 25.0577C20.0503 25.0535 20.0524 25.0514 20.0524 25.0471C20.0609 25.0026 20.0672 24.9581 20.0757 24.9136C20.0842 24.867 20.0927 24.8225 20.1012 24.778C20.1096 24.7377 20.116 24.6974 20.1245 24.6571C20.1266 24.6487 20.1266 24.6402 20.1287 24.6338C20.1457 24.5512 20.1626 24.4664 20.1796 24.3837C20.1817 24.371 20.1838 24.3604 20.1881 24.3477C20.1965 24.3096 20.205 24.2735 20.2135 24.2354C20.2241 24.1909 20.2347 24.1464 20.2453 24.1019C20.2559 24.0574 20.2665 24.0129 20.2771 23.9683C20.2855 23.9302 20.2961 23.892 20.3046 23.856C20.3173 23.803 20.3322 23.7479 20.347 23.6949C20.3703 23.6102 20.3915 23.5275 20.4148 23.4427C20.4169 23.4385 20.4169 23.4364 20.4169 23.4343C20.4297 23.3919 20.4403 23.3495 20.453 23.3071C20.4636 23.2732 20.4742 23.2393 20.4826 23.2054C20.489 23.1863 20.4932 23.1693 20.4996 23.1503C20.5102 23.1164 20.5208 23.0803 20.5314 23.0464C20.5441 23.0061 20.5568 22.968 20.5695 22.9277C20.5992 22.8366 20.6289 22.7433 20.6607 22.6522C20.6713 22.6204 20.6819 22.5886 20.6925 22.5568C20.6988 22.5399 20.7052 22.5229 20.7094 22.506C20.7221 22.4721 20.7327 22.4381 20.7455 22.4064C20.7624 22.3618 20.7772 22.3173 20.7942 22.2728C20.809 22.2326 20.8239 22.1923 20.8387 22.152C20.8726 22.0651 20.9044 21.9782 20.9404 21.8935C20.9574 21.8511 20.9743 21.8108 20.9913 21.7684V21.7663C21.0061 21.7282 21.021 21.6921 21.0379 21.6561C21.0422 21.6476 21.0443 21.6413 21.0485 21.6328C21.0655 21.5946 21.0803 21.5565 21.0973 21.5183C21.1142 21.4781 21.1333 21.4357 21.1524 21.3954C21.1524 21.3933 21.1545 21.3933 21.1545 21.3912C21.1715 21.3509 21.1905 21.3106 21.2075 21.2725C21.2435 21.1941 21.2795 21.1178 21.3156 21.0394C21.3198 21.033 21.3219 21.0245 21.3262 21.0182C21.3622 20.9397 21.4003 20.8613 21.4385 20.785C21.4576 20.7448 21.4788 20.7045 21.4978 20.6642C21.5402 20.5816 21.5826 20.4989 21.625 20.4184C21.6441 20.3802 21.6653 20.3442 21.6843 20.3082C21.7055 20.2679 21.7267 20.2297 21.7479 20.1895C21.7691 20.1513 21.7903 20.1111 21.8136 20.0729C21.8157 20.0666 21.82 20.0623 21.8221 20.056C21.8412 20.022 21.8603 19.9881 21.8793 19.9563C21.9005 19.9182 21.9238 19.8779 21.9471 19.8398C21.9641 19.8101 21.9811 19.7804 21.998 19.7529C22.0065 19.7359 22.0171 19.7211 22.0256 19.7063C22.0446 19.6766 22.0616 19.6448 22.0807 19.6151C22.104 19.5749 22.1294 19.5367 22.1527 19.4964C22.176 19.4604 22.1972 19.4244 22.2205 19.3883C22.2227 19.3862 22.2227 19.3841 22.2248 19.382C22.246 19.346 22.2693 19.3121 22.2905 19.2781C22.3202 19.2315 22.3498 19.1849 22.3816 19.1383C22.4007 19.1107 22.4177 19.0832 22.4367 19.0535C22.513 18.9412 22.5893 18.8288 22.6677 18.7165C22.6932 18.6805 22.7186 18.6444 22.7462 18.6084C22.7695 18.5766 22.7907 18.547 22.814 18.5152C22.8182 18.5109 22.8225 18.5046 22.8246 18.5003C22.85 18.4664 22.8754 18.4304 22.9009 18.3965C22.9284 18.3583 22.956 18.3202 22.9856 18.2841C23.009 18.2545 23.0323 18.2248 23.0556 18.193C23.0874 18.1527 23.1192 18.1125 23.151 18.0701C23.1785 18.0362 23.2039 18.0023 23.2315 17.9684C23.2336 17.9662 23.2357 17.962 23.2379 17.9599C23.2633 17.9281 23.2866 17.8984 23.312 17.8666C23.3142 17.8645 23.3163 17.8624 23.3184 17.8603C23.3438 17.8306 23.3671 17.7988 23.3926 17.7691C23.418 17.7395 23.4434 17.7077 23.4667 17.678C23.4816 17.661 23.4943 17.6441 23.5091 17.6271C23.5091 17.625 23.5113 17.6229 23.5134 17.6229C23.5515 17.5784 23.5876 17.5339 23.6257 17.4915C23.6363 17.4788 23.6469 17.4661 23.6575 17.4555C23.685 17.4237 23.7126 17.3919 23.7401 17.3601C23.7423 17.358 23.7423 17.358 23.7423 17.3559C23.7677 17.3262 23.7953 17.2965 23.8228 17.2668C23.8334 17.2541 23.844 17.2414 23.8567 17.2308C23.8779 17.2075 23.9012 17.1821 23.9224 17.1588C23.9542 17.1248 23.986 17.0909 24.0178 17.057C24.0369 17.0379 24.0538 17.0168 24.0729 16.9977C24.0898 16.9786 24.1089 16.9595 24.128 16.9405C24.1428 16.9256 24.1577 16.9108 24.1725 16.8938C24.1958 16.8684 24.2213 16.843 24.2467 16.8175C24.2615 16.8027 24.2764 16.7879 24.2912 16.7709C24.323 16.7391 24.3548 16.7073 24.3844 16.6755C24.4014 16.6586 24.4184 16.6395 24.4374 16.6225C24.4607 16.5992 24.4841 16.5759 24.5074 16.5547C24.518 16.5441 24.5286 16.5335 24.537 16.5251C24.5604 16.5017 24.5837 16.4805 24.6049 16.4572C24.6261 16.436 24.6472 16.417 24.6684 16.3958C24.7066 16.3597 24.7447 16.3237 24.7829 16.2877C24.8189 16.2538 24.8549 16.2199 24.891 16.186C24.8973 16.1817 24.9016 16.1754 24.9079 16.1711C24.9397 16.1414 24.9715 16.1118 25.0033 16.0842C25.0181 16.0694 25.0351 16.0567 25.0499 16.0418C25.1199 15.9783 25.1919 15.9168 25.264 15.8553C25.2831 15.8384 25.3043 15.8214 25.3233 15.8045C25.3445 15.7854 25.3657 15.7663 25.389 15.7494C25.4102 15.7303 25.4335 15.7112 25.4547 15.6921C25.5374 15.6222 25.62 15.5544 25.7048 15.4887C25.7409 15.4611 25.7769 15.4315 25.8108 15.4039C25.8214 15.3954 25.8299 15.3891 25.8405 15.3806C25.8807 15.3488 25.9231 15.317 25.9655 15.2852C25.9952 15.2619 26.0248 15.2386 26.0545 15.2174C26.0651 15.2089 26.0778 15.2004 26.0884 15.192C26.1096 15.175 26.1308 15.1602 26.152 15.1432C26.1774 15.1241 26.2029 15.1051 26.2283 15.086C26.2368 15.0796 26.2453 15.0733 26.2559 15.0669C26.294 15.0372 26.3343 15.0097 26.3724 14.9821C26.3788 14.9779 26.383 14.9737 26.3894 14.9694C26.4318 14.9376 26.4763 14.908 26.5187 14.8762C26.5589 14.8486 26.5971 14.8211 26.6374 14.7935C26.6649 14.7744 26.6925 14.7554 26.72 14.7363C26.7327 14.7278 26.7454 14.7193 26.7582 14.7109C26.7878 14.6918 26.8154 14.6727 26.8451 14.6515C26.8832 14.6261 26.9235 14.6006 26.9616 14.5752C27.0061 14.5455 27.0506 14.518 27.0951 14.4883C27.1079 14.4798 27.1206 14.4714 27.1333 14.465C27.163 14.4459 27.1948 14.4269 27.2265 14.4057C27.2414 14.3972 27.2583 14.3866 27.2732 14.3781C27.3092 14.3548 27.3473 14.3315 27.3834 14.3103C27.394 14.3039 27.4067 14.2976 27.4173 14.2891C27.4639 14.2615 27.5105 14.234 27.5572 14.2064C27.6038 14.1789 27.6525 14.1513 27.6992 14.1238C27.7034 14.1217 27.7098 14.1174 27.714 14.1153C27.7543 14.092 27.7945 14.0687 27.8327 14.0475C27.9026 14.0072 27.9747 13.9691 28.0446 13.9309C28.0807 13.9118 28.1146 13.8928 28.1506 13.8737C28.2078 13.844 28.265 13.8144 28.3223 13.7847C28.3477 13.772 28.3753 13.7571 28.4007 13.7444C28.424 13.7317 28.4494 13.719 28.4749 13.7063C28.513 13.6872 28.549 13.6681 28.5872 13.649C28.6041 13.6406 28.6211 13.6321 28.6381 13.6236C28.6656 13.6109 28.6932 13.5961 28.7207 13.5833C28.7461 13.5706 28.7716 13.56 28.797 13.5473C28.8394 13.5261 28.8839 13.507 28.9263 13.488C28.9623 13.471 29.0005 13.4541 29.0365 13.4371C29.0535 13.4286 29.0725 13.4201 29.0916 13.4117C29.1213 13.399 29.1488 13.3862 29.1785 13.3735C29.1849 13.3714 29.1912 13.3672 29.1976 13.365C29.2166 13.3566 29.2357 13.3481 29.2548 13.3396C29.2887 13.3248 29.3247 13.3099 29.3608 13.2951C29.3692 13.2909 29.3756 13.2887 29.3841 13.2845C29.4265 13.2676 29.4689 13.2485 29.5112 13.2315C29.6236 13.1849 29.738 13.1383 29.8525 13.0959C29.8927 13.081 29.933 13.0662 29.9712 13.0493C30.0326 13.0259 30.0941 13.0026 30.1577 12.9814C30.2022 12.9645 30.2467 12.9496 30.2933 12.9327C30.3399 12.9157 30.3887 12.8988 30.4353 12.8839C30.4544 12.8776 30.4734 12.8712 30.4925 12.8649C30.5286 12.8522 30.5646 12.8416 30.5985 12.8288C30.6133 12.8246 30.6303 12.8182 30.6451 12.814C30.6875 12.8013 30.7299 12.7865 30.7723 12.7737C30.7744 12.7737 30.7765 12.7716 30.7808 12.7716C30.8295 12.7568 30.8782 12.7398 30.9291 12.725C30.9334 12.7229 30.9397 12.7229 30.9439 12.7208C30.9715 12.7123 31.0012 12.7038 31.0287 12.6953C31.0563 12.6868 31.0859 12.6784 31.1135 12.6699C31.1411 12.6614 31.1707 12.6529 31.2004 12.6445C31.2301 12.636 31.2576 12.6275 31.2873 12.6211C31.3445 12.6042 31.4017 12.5893 31.4611 12.5745C31.4802 12.5703 31.4971 12.5639 31.5162 12.5597C31.5395 12.5533 31.5628 12.547 31.5861 12.5406C31.6306 12.5279 31.6773 12.5173 31.7218 12.5067C31.7493 12.5003 31.7769 12.494 31.8044 12.4876C31.9528 12.4516 32.099 12.4177 32.2495 12.3859C32.2792 12.3795 32.3088 12.3732 32.3385 12.3668C32.3745 12.3583 32.4127 12.352 32.4487 12.3456C32.4699 12.3414 32.4932 12.3371 32.5144 12.3329C32.6098 12.3138 32.7052 12.2969 32.8005 12.2799C32.8217 12.2757 32.845 12.2714 32.8662 12.2693C32.9107 12.2608 32.9552 12.2545 32.9998 12.2481C33.0273 12.2439 33.057 12.2397 33.0845 12.2354C33.1036 12.2333 33.1227 12.2291 33.1418 12.2269C33.1672 12.2227 33.1947 12.2185 33.2202 12.2163C33.3431 12.1973 33.4681 12.1824 33.5932 12.1655C34.2184 12.0892 34.8563 12.051 35.5028 12.051C36.1407 12.051 36.7723 12.0892 37.3911 12.1634C37.4823 12.1739 37.5734 12.1867 37.6645 12.1994C37.6942 12.2036 37.7239 12.2079 37.7557 12.2121C37.7832 12.2163 37.8108 12.2206 37.8404 12.2248C37.8701 12.2291 37.8998 12.2333 37.9295 12.2375C37.9506 12.2397 37.9718 12.2439 37.9952 12.2481C38.0418 12.2545 38.0884 12.263 38.1329 12.2714C38.1583 12.2757 38.1817 12.2799 38.2071 12.2842C38.2368 12.2884 38.2664 12.2948 38.2961 12.299C38.3512 12.3096 38.4042 12.3181 38.4593 12.3287C38.489 12.335 38.5186 12.3393 38.5462 12.3456C38.6734 12.3711 38.8005 12.3965 38.9256 12.4262C39.0697 12.4579 39.2117 12.4919 39.3537 12.5279C39.3834 12.5342 39.4109 12.5427 39.4406 12.5512C39.4702 12.5576 39.4978 12.566 39.5275 12.5745C39.5614 12.583 39.5932 12.5915 39.625 12.5999C39.6504 12.6063 39.6758 12.6148 39.6991 12.6211C39.8136 12.6529 39.928 12.6868 40.0425 12.7208C40.0679 12.7292 40.0955 12.7377 40.123 12.7441C40.1421 12.7504 40.1612 12.7568 40.1802 12.761C40.2057 12.7695 40.2332 12.778 40.2608 12.7865C40.3795 12.8246 40.4982 12.8628 40.6147 12.903C40.6359 12.9094 40.6571 12.9179 40.6783 12.9242C40.6931 12.9285 40.708 12.9348 40.7228 12.9412C40.7504 12.9518 40.7779 12.9602 40.8076 12.9708C40.8245 12.9772 40.8415 12.9836 40.8584 12.9899C40.8796 12.9984 40.903 13.0069 40.9242 13.0132C40.9517 13.0238 40.9793 13.0344 41.0068 13.0429C41.0238 13.0493 41.0407 13.0556 41.0556 13.062C41.081 13.0726 41.1085 13.081 41.134 13.0916C41.3014 13.1552 41.4667 13.223 41.6299 13.293C41.649 13.3015 41.6681 13.3099 41.6871 13.3184C41.7232 13.3333 41.7571 13.3481 41.7931 13.365C41.8164 13.3756 41.8397 13.3862 41.8609 13.3947C41.8927 13.4074 41.9224 13.4223 41.9542 13.4371C41.9796 13.4477 42.005 13.4604 42.0305 13.4731C42.058 13.4859 42.0856 13.4986 42.1131 13.5113C42.1386 13.524 42.164 13.5346 42.1915 13.5473C42.2191 13.56 42.2466 13.5727 42.2742 13.5855C42.2996 13.5982 42.3272 13.6109 42.3526 13.6236C42.4056 13.649 42.4586 13.6745 42.5116 13.702C42.5921 13.7423 42.6726 13.7847 42.7532 13.825C42.7807 13.8398 42.8062 13.8525 42.8337 13.8673C42.8825 13.8928 42.9312 13.9182 42.98 13.9458C43.0308 13.9733 43.0838 14.003 43.1347 14.0305C43.1813 14.056 43.2258 14.0814 43.2724 14.1068C43.283 14.1132 43.2936 14.1195 43.3042 14.1259C43.4505 14.2107 43.5946 14.2955 43.7387 14.3845C43.7408 14.3845 43.7408 14.3866 43.7429 14.3866C43.8404 14.4481 43.9379 14.5095 44.0354 14.5731C44.0354 14.5731 44.0375 14.5752 44.0396 14.5752C44.082 14.6028 44.1244 14.6303 44.1668 14.6579C44.1774 14.6642 44.1859 14.6706 44.1965 14.6769C44.241 14.7066 44.2855 14.7363 44.3279 14.766C44.3766 14.7978 44.4233 14.8317 44.472 14.8656C44.5144 14.8952 44.5547 14.9249 44.597 14.9525C44.6098 14.9609 44.6246 14.9715 44.6373 14.9821C44.6649 15.0033 44.6945 15.0224 44.7221 15.0436C44.739 15.0563 44.7539 15.0669 44.7708 15.0796C44.8132 15.1114 44.8535 15.1411 44.8959 15.1729C44.9362 15.2026 44.9743 15.2322 45.0125 15.2619C45.0252 15.2704 45.0358 15.281 45.0485 15.2895C45.1778 15.3891 45.3049 15.4887 45.4321 15.5925C45.4406 15.601 45.4512 15.6074 45.4596 15.6158C45.4999 15.6497 45.5402 15.6815 45.5783 15.7154C45.6673 15.7896 45.7542 15.8638 45.8411 15.9401C45.8433 15.9422 45.8432 15.9422 45.8454 15.9443C45.8878 15.9825 45.9301 16.0206 45.9747 16.0588C46.017 16.0969 46.0615 16.1372 46.1039 16.1754C46.1442 16.2135 46.1866 16.2495 46.2269 16.2877C46.2311 16.2919 46.2353 16.294 46.2396 16.2983C46.2756 16.3322 46.3116 16.3661 46.3498 16.4021C46.3561 16.4064 46.3604 16.4127 46.3667 16.4191C46.407 16.4572 46.4473 16.4954 46.4854 16.5357C46.5278 16.5759 46.5681 16.6162 46.6083 16.6586C46.6486 16.6988 46.691 16.7412 46.7313 16.7815C46.7715 16.8239 46.8118 16.8642 46.8521 16.9065C46.8923 16.9489 46.9326 16.9913 46.9729 17.0337C47.011 17.074 47.0492 17.1142 47.0852 17.1566C47.0873 17.1588 47.0894 17.163 47.0937 17.1651C47.1297 17.2054 47.1657 17.2456 47.2018 17.2838C47.223 17.3071 47.2442 17.3325 47.2654 17.3559C47.2844 17.377 47.3035 17.3982 47.3205 17.4194C47.3226 17.4216 47.3247 17.4237 47.3268 17.4258C47.3819 17.4894 47.437 17.5551 47.4921 17.6187C47.5303 17.6632 47.5663 17.7077 47.6045 17.7522C47.6214 17.7734 47.6384 17.7924 47.6553 17.8136C47.6596 17.8179 47.6638 17.8221 47.6659 17.8264C47.6977 17.8645 47.7295 17.9048 47.7592 17.9429C47.7804 17.9684 47.8016 17.9959 47.8228 18.0235C47.8588 18.0701 47.8948 18.1146 47.9308 18.1612C48.0029 18.2524 48.0728 18.3456 48.1407 18.441C48.1746 18.4855 48.2064 18.53 48.2382 18.5745C48.2403 18.5787 48.2445 18.583 48.2466 18.5851C48.2636 18.6063 48.2784 18.6296 48.2954 18.6529C48.3272 18.6953 48.3568 18.7398 48.3865 18.7822C48.4395 18.8585 48.4925 18.9348 48.5455 19.0132C48.5624 19.0365 48.5773 19.062 48.5942 19.0853C48.643 19.1573 48.6896 19.2315 48.7383 19.3057C48.7553 19.3311 48.7701 19.3566 48.7871 19.382C48.8252 19.4413 48.8613 19.5007 48.8973 19.5621C48.9164 19.5918 48.9333 19.6215 48.9524 19.6533C49.0033 19.738 49.0541 19.8228 49.1029 19.9076C49.1177 19.9309 49.1304 19.9563 49.1453 19.9797C49.1665 20.0178 49.1876 20.0538 49.2088 20.092C49.2258 20.1217 49.2427 20.1513 49.2576 20.181C49.2788 20.217 49.2979 20.2531 49.3169 20.2891C49.319 20.2912 49.319 20.2933 49.3212 20.2954C49.3402 20.3294 49.3572 20.3633 49.3763 20.3972C49.4441 20.5243 49.5077 20.6515 49.5713 20.7787C49.5861 20.8083 49.6009 20.8401 49.6158 20.8698C49.62 20.8783 49.6221 20.8846 49.6264 20.8931C49.6454 20.9313 49.6624 20.9673 49.6793 21.0033C49.6984 21.0436 49.7175 21.0839 49.7366 21.1241C49.7493 21.1496 49.762 21.1771 49.7726 21.2025C49.7768 21.2131 49.7811 21.2216 49.7874 21.2322C49.7959 21.2513 49.8044 21.2704 49.8129 21.2894C49.8235 21.3149 49.8362 21.3403 49.8468 21.3657C49.8658 21.406 49.8828 21.4463 49.8998 21.4865C49.9167 21.5268 49.9337 21.5671 49.9506 21.6052C49.9697 21.6497 49.9888 21.6942 50.0078 21.7409C50.0227 21.779 50.0396 21.8172 50.0545 21.8553C50.0693 21.8913 50.0841 21.9274 50.0969 21.9634C50.099 21.9719 50.1032 21.9782 50.1053 21.9867C50.1202 22.0249 50.1371 22.0651 50.152 22.1033C50.1647 22.1393 50.1795 22.1753 50.1922 22.2114C50.1965 22.222 50.2007 22.2326 50.205 22.2432C50.2177 22.2792 50.2325 22.3173 50.2452 22.3534C50.2601 22.3958 50.2749 22.4381 50.2897 22.4784C50.3173 22.5568 50.3448 22.6331 50.3703 22.7115C50.3872 22.7603 50.4021 22.809 50.419 22.8599C50.4296 22.8959 50.4423 22.932 50.4529 22.9659C50.455 22.9722 50.4572 22.9807 50.4593 22.9871C50.4847 23.0655 50.508 23.1418 50.5313 23.2202C50.5356 23.2308 50.5377 23.2435 50.5419 23.2541L50.5695 23.3495C50.5864 23.4067 50.6013 23.4618 50.6182 23.519C50.6288 23.5572 50.6394 23.5953 50.65 23.6335C50.6627 23.678 50.6733 23.7204 50.6839 23.7649C50.6945 23.8094 50.7072 23.8518 50.7178 23.8963C50.7263 23.9323 50.7348 23.9662 50.7433 24.0001C50.756 24.0531 50.7687 24.1061 50.7814 24.1591C50.7899 24.193 50.7984 24.229 50.8047 24.2629C50.8069 24.2714 50.809 24.282 50.8111 24.2905C50.8196 24.3286 50.8281 24.3689 50.8365 24.4071C50.8492 24.4643 50.8598 24.5194 50.8726 24.5766C50.881 24.6148 50.8874 24.6529 50.8959 24.6911C50.9065 24.7398 50.9149 24.7864 50.9234 24.8352C50.9319 24.8776 50.9383 24.9178 50.9467 24.9602C50.9552 25.0047 50.9616 25.0492 50.9701 25.0937C50.9701 25.0959 50.9701 25.098 50.9701 25.098C50.9785 25.1425 50.9849 25.187 50.9912 25.2294C50.9912 25.2336 50.9934 25.2379 50.9934 25.24C50.9997 25.2824 51.0061 25.3226 51.0124 25.365C51.0188 25.4095 51.0252 25.4562 51.0315 25.5007C51.04 25.5536 51.0463 25.6066 51.0527 25.6596C51.0569 25.6893 51.0612 25.7211 51.0654 25.7508C51.0739 25.8122 51.0803 25.8716 51.0866 25.933C51.0909 25.9712 51.0951 26.0114 51.0993 26.0496C51.0993 26.0517 51.0993 26.0538 51.0993 26.0581C51.1036 26.0983 51.1078 26.1365 51.112 26.1767C51.112 26.1852 51.1142 26.1937 51.1142 26.2043C51.1163 26.2297 51.1184 26.2573 51.1205 26.2827C51.1226 26.2997 51.1226 26.3166 51.1248 26.3336C51.1269 26.3654 51.129 26.395 51.1332 26.4247C51.1354 26.448 51.1375 26.4692 51.1375 26.4904C51.1396 26.5286 51.1438 26.5646 51.146 26.6027C51.1481 26.6367 51.1502 26.6706 51.1523 26.7066C51.1544 26.7299 51.1544 26.7511 51.1566 26.7744C51.1608 26.8422 51.165 26.9101 51.1672 26.98C51.1672 26.9842 51.1672 26.9864 51.1672 26.9885C51.1693 27.0075 51.1693 27.0266 51.1693 27.0457C51.1714 27.0732 51.1714 27.1008 51.1735 27.1305C51.1735 27.1538 51.1756 27.1771 51.1756 27.2004C51.1756 27.228 51.1777 27.2555 51.1777 27.281C51.1777 27.3021 51.1778 27.3233 51.1799 27.3424C51.1799 27.3784 51.182 27.4166 51.182 27.4526C51.182 27.4971 51.1841 27.5395 51.1841 27.584V27.5861C51.1947 27.6264 51.1947 27.673 51.1947 27.7197Z"/>
</mask>
<path d="M51.1947 27.7197C51.1947 28.2665 51.1672 28.809 51.112 29.3431C50.9065 31.3438 50.3258 33.531 49.4398 35.6843C48.893 37.0132 48.2318 38.3293 47.4709 39.5798C47.0873 39.7345 46.6656 39.8214 46.2247 39.8214C46.0849 39.8214 45.945 39.8129 45.8093 39.7959C43.9294 44.2551 40.6719 47.3876 36.8846 47.9831C36.4416 48.0488 35.9923 48.0849 35.5409 48.087C31.1389 48.0743 27.2944 44.6536 25.2237 39.567C24.376 39.5522 23.6066 39.2195 23.028 38.6833C22.6508 38.0093 22.3032 37.3205 21.9874 36.6232C20.8747 34.1732 20.1457 31.6363 19.9104 29.3452C19.8553 28.8111 19.8278 28.2686 19.8278 27.7197C19.8278 27.673 19.8278 27.6285 19.8278 27.5819V27.5692C19.8278 27.5353 19.8278 27.5014 19.8299 27.4675C19.8299 27.4569 19.8299 27.4484 19.8299 27.4378C19.8299 27.4145 19.8299 27.3912 19.832 27.3678C19.832 27.3551 19.832 27.3424 19.832 27.3297C19.832 27.3106 19.832 27.2915 19.8341 27.2725C19.8362 27.2343 19.8362 27.1962 19.8384 27.1601C19.8384 27.1538 19.8384 27.1474 19.8384 27.1411C19.8426 27.0478 19.8468 26.9546 19.8511 26.8634C19.8532 26.8232 19.8553 26.7808 19.8574 26.7405C19.8574 26.7257 19.8595 26.7108 19.8595 26.696C19.8617 26.6578 19.8638 26.6197 19.868 26.5816C19.8701 26.5434 19.8744 26.5053 19.8765 26.4671C19.8786 26.4502 19.8786 26.4353 19.8807 26.4205C19.8829 26.3823 19.8871 26.3463 19.8892 26.3103C19.8892 26.2997 19.8913 26.2891 19.8913 26.2785C19.8977 26.1958 19.9062 26.1132 19.9147 26.0326C19.9253 25.9309 19.938 25.8271 19.9507 25.7253C19.9549 25.6851 19.9613 25.6427 19.9676 25.6024C19.9676 25.6003 19.9676 25.6003 19.9676 25.5982C19.974 25.5579 19.9782 25.5176 19.9846 25.4774C19.9931 25.4159 20.0037 25.3523 20.0121 25.2908C20.0164 25.2569 20.0227 25.2251 20.027 25.1912C20.027 25.1891 20.027 25.1849 20.0291 25.1828C20.0355 25.1404 20.0418 25.098 20.0503 25.0577C20.0503 25.0535 20.0524 25.0514 20.0524 25.0471C20.0609 25.0026 20.0672 24.9581 20.0757 24.9136C20.0842 24.867 20.0927 24.8225 20.1012 24.778C20.1096 24.7377 20.116 24.6974 20.1245 24.6571C20.1266 24.6487 20.1266 24.6402 20.1287 24.6338C20.1457 24.5512 20.1626 24.4664 20.1796 24.3837C20.1817 24.371 20.1838 24.3604 20.1881 24.3477C20.1965 24.3096 20.205 24.2735 20.2135 24.2354C20.2241 24.1909 20.2347 24.1464 20.2453 24.1019C20.2559 24.0574 20.2665 24.0129 20.2771 23.9683C20.2855 23.9302 20.2961 23.892 20.3046 23.856C20.3173 23.803 20.3322 23.7479 20.347 23.6949C20.3703 23.6102 20.3915 23.5275 20.4148 23.4427C20.4169 23.4385 20.4169 23.4364 20.4169 23.4343C20.4297 23.3919 20.4403 23.3495 20.453 23.3071C20.4636 23.2732 20.4742 23.2393 20.4826 23.2054C20.489 23.1863 20.4932 23.1693 20.4996 23.1503C20.5102 23.1164 20.5208 23.0803 20.5314 23.0464C20.5441 23.0061 20.5568 22.968 20.5695 22.9277C20.5992 22.8366 20.6289 22.7433 20.6607 22.6522C20.6713 22.6204 20.6819 22.5886 20.6925 22.5568C20.6988 22.5399 20.7052 22.5229 20.7094 22.506C20.7221 22.4721 20.7327 22.4381 20.7455 22.4064C20.7624 22.3618 20.7772 22.3173 20.7942 22.2728C20.809 22.2326 20.8239 22.1923 20.8387 22.152C20.8726 22.0651 20.9044 21.9782 20.9404 21.8935C20.9574 21.8511 20.9743 21.8108 20.9913 21.7684V21.7663C21.0061 21.7282 21.021 21.6921 21.0379 21.6561C21.0422 21.6476 21.0443 21.6413 21.0485 21.6328C21.0655 21.5946 21.0803 21.5565 21.0973 21.5183C21.1142 21.4781 21.1333 21.4357 21.1524 21.3954C21.1524 21.3933 21.1545 21.3933 21.1545 21.3912C21.1715 21.3509 21.1905 21.3106 21.2075 21.2725C21.2435 21.1941 21.2795 21.1178 21.3156 21.0394C21.3198 21.033 21.3219 21.0245 21.3262 21.0182C21.3622 20.9397 21.4003 20.8613 21.4385 20.785C21.4576 20.7448 21.4788 20.7045 21.4978 20.6642C21.5402 20.5816 21.5826 20.4989 21.625 20.4184C21.6441 20.3802 21.6653 20.3442 21.6843 20.3082C21.7055 20.2679 21.7267 20.2297 21.7479 20.1895C21.7691 20.1513 21.7903 20.1111 21.8136 20.0729C21.8157 20.0666 21.82 20.0623 21.8221 20.056C21.8412 20.022 21.8603 19.9881 21.8793 19.9563C21.9005 19.9182 21.9238 19.8779 21.9471 19.8398C21.9641 19.8101 21.9811 19.7804 21.998 19.7529C22.0065 19.7359 22.0171 19.7211 22.0256 19.7063C22.0446 19.6766 22.0616 19.6448 22.0807 19.6151C22.104 19.5749 22.1294 19.5367 22.1527 19.4964C22.176 19.4604 22.1972 19.4244 22.2205 19.3883C22.2227 19.3862 22.2227 19.3841 22.2248 19.382C22.246 19.346 22.2693 19.3121 22.2905 19.2781C22.3202 19.2315 22.3498 19.1849 22.3816 19.1383C22.4007 19.1107 22.4177 19.0832 22.4367 19.0535C22.513 18.9412 22.5893 18.8288 22.6677 18.7165C22.6932 18.6805 22.7186 18.6444 22.7462 18.6084C22.7695 18.5766 22.7907 18.547 22.814 18.5152C22.8182 18.5109 22.8225 18.5046 22.8246 18.5003C22.85 18.4664 22.8754 18.4304 22.9009 18.3965C22.9284 18.3583 22.956 18.3202 22.9856 18.2841C23.009 18.2545 23.0323 18.2248 23.0556 18.193C23.0874 18.1527 23.1192 18.1125 23.151 18.0701C23.1785 18.0362 23.2039 18.0023 23.2315 17.9684C23.2336 17.9662 23.2357 17.962 23.2379 17.9599C23.2633 17.9281 23.2866 17.8984 23.312 17.8666C23.3142 17.8645 23.3163 17.8624 23.3184 17.8603C23.3438 17.8306 23.3671 17.7988 23.3926 17.7691C23.418 17.7395 23.4434 17.7077 23.4667 17.678C23.4816 17.661 23.4943 17.6441 23.5091 17.6271C23.5091 17.625 23.5113 17.6229 23.5134 17.6229C23.5515 17.5784 23.5876 17.5339 23.6257 17.4915C23.6363 17.4788 23.6469 17.4661 23.6575 17.4555C23.685 17.4237 23.7126 17.3919 23.7401 17.3601C23.7423 17.358 23.7423 17.358 23.7423 17.3559C23.7677 17.3262 23.7953 17.2965 23.8228 17.2668C23.8334 17.2541 23.844 17.2414 23.8567 17.2308C23.8779 17.2075 23.9012 17.1821 23.9224 17.1588C23.9542 17.1248 23.986 17.0909 24.0178 17.057C24.0369 17.0379 24.0538 17.0168 24.0729 16.9977C24.0898 16.9786 24.1089 16.9595 24.128 16.9405C24.1428 16.9256 24.1577 16.9108 24.1725 16.8938C24.1958 16.8684 24.2213 16.843 24.2467 16.8175C24.2615 16.8027 24.2764 16.7879 24.2912 16.7709C24.323 16.7391 24.3548 16.7073 24.3844 16.6755C24.4014 16.6586 24.4184 16.6395 24.4374 16.6225C24.4607 16.5992 24.4841 16.5759 24.5074 16.5547C24.518 16.5441 24.5286 16.5335 24.537 16.5251C24.5604 16.5017 24.5837 16.4805 24.6049 16.4572C24.6261 16.436 24.6472 16.417 24.6684 16.3958C24.7066 16.3597 24.7447 16.3237 24.7829 16.2877C24.8189 16.2538 24.8549 16.2199 24.891 16.186C24.8973 16.1817 24.9016 16.1754 24.9079 16.1711C24.9397 16.1414 24.9715 16.1118 25.0033 16.0842C25.0181 16.0694 25.0351 16.0567 25.0499 16.0418C25.1199 15.9783 25.1919 15.9168 25.264 15.8553C25.2831 15.8384 25.3043 15.8214 25.3233 15.8045C25.3445 15.7854 25.3657 15.7663 25.389 15.7494C25.4102 15.7303 25.4335 15.7112 25.4547 15.6921C25.5374 15.6222 25.62 15.5544 25.7048 15.4887C25.7409 15.4611 25.7769 15.4315 25.8108 15.4039C25.8214 15.3954 25.8299 15.3891 25.8405 15.3806C25.8807 15.3488 25.9231 15.317 25.9655 15.2852C25.9952 15.2619 26.0248 15.2386 26.0545 15.2174C26.0651 15.2089 26.0778 15.2004 26.0884 15.192C26.1096 15.175 26.1308 15.1602 26.152 15.1432C26.1774 15.1241 26.2029 15.1051 26.2283 15.086C26.2368 15.0796 26.2453 15.0733 26.2559 15.0669C26.294 15.0372 26.3343 15.0097 26.3724 14.9821C26.3788 14.9779 26.383 14.9737 26.3894 14.9694C26.4318 14.9376 26.4763 14.908 26.5187 14.8762C26.5589 14.8486 26.5971 14.8211 26.6374 14.7935C26.6649 14.7744 26.6925 14.7554 26.72 14.7363C26.7327 14.7278 26.7454 14.7193 26.7582 14.7109C26.7878 14.6918 26.8154 14.6727 26.8451 14.6515C26.8832 14.6261 26.9235 14.6006 26.9616 14.5752C27.0061 14.5455 27.0506 14.518 27.0951 14.4883C27.1079 14.4798 27.1206 14.4714 27.1333 14.465C27.163 14.4459 27.1948 14.4269 27.2265 14.4057C27.2414 14.3972 27.2583 14.3866 27.2732 14.3781C27.3092 14.3548 27.3473 14.3315 27.3834 14.3103C27.394 14.3039 27.4067 14.2976 27.4173 14.2891C27.4639 14.2615 27.5105 14.234 27.5572 14.2064C27.6038 14.1789 27.6525 14.1513 27.6992 14.1238C27.7034 14.1217 27.7098 14.1174 27.714 14.1153C27.7543 14.092 27.7945 14.0687 27.8327 14.0475C27.9026 14.0072 27.9747 13.9691 28.0446 13.9309C28.0807 13.9118 28.1146 13.8928 28.1506 13.8737C28.2078 13.844 28.265 13.8144 28.3223 13.7847C28.3477 13.772 28.3753 13.7571 28.4007 13.7444C28.424 13.7317 28.4494 13.719 28.4749 13.7063C28.513 13.6872 28.549 13.6681 28.5872 13.649C28.6041 13.6406 28.6211 13.6321 28.6381 13.6236C28.6656 13.6109 28.6932 13.5961 28.7207 13.5833C28.7461 13.5706 28.7716 13.56 28.797 13.5473C28.8394 13.5261 28.8839 13.507 28.9263 13.488C28.9623 13.471 29.0005 13.4541 29.0365 13.4371C29.0535 13.4286 29.0725 13.4201 29.0916 13.4117C29.1213 13.399 29.1488 13.3862 29.1785 13.3735C29.1849 13.3714 29.1912 13.3672 29.1976 13.365C29.2166 13.3566 29.2357 13.3481 29.2548 13.3396C29.2887 13.3248 29.3247 13.3099 29.3608 13.2951C29.3692 13.2909 29.3756 13.2887 29.3841 13.2845C29.4265 13.2676 29.4689 13.2485 29.5112 13.2315C29.6236 13.1849 29.738 13.1383 29.8525 13.0959C29.8927 13.081 29.933 13.0662 29.9712 13.0493C30.0326 13.0259 30.0941 13.0026 30.1577 12.9814C30.2022 12.9645 30.2467 12.9496 30.2933 12.9327C30.3399 12.9157 30.3887 12.8988 30.4353 12.8839C30.4544 12.8776 30.4734 12.8712 30.4925 12.8649C30.5286 12.8522 30.5646 12.8416 30.5985 12.8288C30.6133 12.8246 30.6303 12.8182 30.6451 12.814C30.6875 12.8013 30.7299 12.7865 30.7723 12.7737C30.7744 12.7737 30.7765 12.7716 30.7808 12.7716C30.8295 12.7568 30.8782 12.7398 30.9291 12.725C30.9334 12.7229 30.9397 12.7229 30.9439 12.7208C30.9715 12.7123 31.0012 12.7038 31.0287 12.6953C31.0563 12.6868 31.0859 12.6784 31.1135 12.6699C31.1411 12.6614 31.1707 12.6529 31.2004 12.6445C31.2301 12.636 31.2576 12.6275 31.2873 12.6211C31.3445 12.6042 31.4017 12.5893 31.4611 12.5745C31.4802 12.5703 31.4971 12.5639 31.5162 12.5597C31.5395 12.5533 31.5628 12.547 31.5861 12.5406C31.6306 12.5279 31.6773 12.5173 31.7218 12.5067C31.7493 12.5003 31.7769 12.494 31.8044 12.4876C31.9528 12.4516 32.099 12.4177 32.2495 12.3859C32.2792 12.3795 32.3088 12.3732 32.3385 12.3668C32.3745 12.3583 32.4127 12.352 32.4487 12.3456C32.4699 12.3414 32.4932 12.3371 32.5144 12.3329C32.6098 12.3138 32.7052 12.2969 32.8005 12.2799C32.8217 12.2757 32.845 12.2714 32.8662 12.2693C32.9107 12.2608 32.9552 12.2545 32.9998 12.2481C33.0273 12.2439 33.057 12.2397 33.0845 12.2354C33.1036 12.2333 33.1227 12.2291 33.1418 12.2269C33.1672 12.2227 33.1947 12.2185 33.2202 12.2163C33.3431 12.1973 33.4681 12.1824 33.5932 12.1655C34.2184 12.0892 34.8563 12.051 35.5028 12.051C36.1407 12.051 36.7723 12.0892 37.3911 12.1634C37.4823 12.1739 37.5734 12.1867 37.6645 12.1994C37.6942 12.2036 37.7239 12.2079 37.7557 12.2121C37.7832 12.2163 37.8108 12.2206 37.8404 12.2248C37.8701 12.2291 37.8998 12.2333 37.9295 12.2375C37.9506 12.2397 37.9718 12.2439 37.9952 12.2481C38.0418 12.2545 38.0884 12.263 38.1329 12.2714C38.1583 12.2757 38.1817 12.2799 38.2071 12.2842C38.2368 12.2884 38.2664 12.2948 38.2961 12.299C38.3512 12.3096 38.4042 12.3181 38.4593 12.3287C38.489 12.335 38.5186 12.3393 38.5462 12.3456C38.6734 12.3711 38.8005 12.3965 38.9256 12.4262C39.0697 12.4579 39.2117 12.4919 39.3537 12.5279C39.3834 12.5342 39.4109 12.5427 39.4406 12.5512C39.4702 12.5576 39.4978 12.566 39.5275 12.5745C39.5614 12.583 39.5932 12.5915 39.625 12.5999C39.6504 12.6063 39.6758 12.6148 39.6991 12.6211C39.8136 12.6529 39.928 12.6868 40.0425 12.7208C40.0679 12.7292 40.0955 12.7377 40.123 12.7441C40.1421 12.7504 40.1612 12.7568 40.1802 12.761C40.2057 12.7695 40.2332 12.778 40.2608 12.7865C40.3795 12.8246 40.4982 12.8628 40.6147 12.903C40.6359 12.9094 40.6571 12.9179 40.6783 12.9242C40.6931 12.9285 40.708 12.9348 40.7228 12.9412C40.7504 12.9518 40.7779 12.9602 40.8076 12.9708C40.8245 12.9772 40.8415 12.9836 40.8584 12.9899C40.8796 12.9984 40.903 13.0069 40.9242 13.0132C40.9517 13.0238 40.9793 13.0344 41.0068 13.0429C41.0238 13.0493 41.0407 13.0556 41.0556 13.062C41.081 13.0726 41.1085 13.081 41.134 13.0916C41.3014 13.1552 41.4667 13.223 41.6299 13.293C41.649 13.3015 41.6681 13.3099 41.6871 13.3184C41.7232 13.3333 41.7571 13.3481 41.7931 13.365C41.8164 13.3756 41.8397 13.3862 41.8609 13.3947C41.8927 13.4074 41.9224 13.4223 41.9542 13.4371C41.9796 13.4477 42.005 13.4604 42.0305 13.4731C42.058 13.4859 42.0856 13.4986 42.1131 13.5113C42.1386 13.524 42.164 13.5346 42.1915 13.5473C42.2191 13.56 42.2466 13.5727 42.2742 13.5855C42.2996 13.5982 42.3272 13.6109 42.3526 13.6236C42.4056 13.649 42.4586 13.6745 42.5116 13.702C42.5921 13.7423 42.6726 13.7847 42.7532 13.825C42.7807 13.8398 42.8062 13.8525 42.8337 13.8673C42.8825 13.8928 42.9312 13.9182 42.98 13.9458C43.0308 13.9733 43.0838 14.003 43.1347 14.0305C43.1813 14.056 43.2258 14.0814 43.2724 14.1068C43.283 14.1132 43.2936 14.1195 43.3042 14.1259C43.4505 14.2107 43.5946 14.2955 43.7387 14.3845C43.7408 14.3845 43.7408 14.3866 43.7429 14.3866C43.8404 14.4481 43.9379 14.5095 44.0354 14.5731C44.0354 14.5731 44.0375 14.5752 44.0396 14.5752C44.082 14.6028 44.1244 14.6303 44.1668 14.6579C44.1774 14.6642 44.1859 14.6706 44.1965 14.6769C44.241 14.7066 44.2855 14.7363 44.3279 14.766C44.3766 14.7978 44.4233 14.8317 44.472 14.8656C44.5144 14.8952 44.5547 14.9249 44.597 14.9525C44.6098 14.9609 44.6246 14.9715 44.6373 14.9821C44.6649 15.0033 44.6945 15.0224 44.7221 15.0436C44.739 15.0563 44.7539 15.0669 44.7708 15.0796C44.8132 15.1114 44.8535 15.1411 44.8959 15.1729C44.9362 15.2026 44.9743 15.2322 45.0125 15.2619C45.0252 15.2704 45.0358 15.281 45.0485 15.2895C45.1778 15.3891 45.3049 15.4887 45.4321 15.5925C45.4406 15.601 45.4512 15.6074 45.4596 15.6158C45.4999 15.6497 45.5402 15.6815 45.5783 15.7154C45.6673 15.7896 45.7542 15.8638 45.8411 15.9401C45.8433 15.9422 45.8432 15.9422 45.8454 15.9443C45.8878 15.9825 45.9301 16.0206 45.9747 16.0588C46.017 16.0969 46.0615 16.1372 46.1039 16.1754C46.1442 16.2135 46.1866 16.2495 46.2269 16.2877C46.2311 16.2919 46.2353 16.294 46.2396 16.2983C46.2756 16.3322 46.3116 16.3661 46.3498 16.4021C46.3561 16.4064 46.3604 16.4127 46.3667 16.4191C46.407 16.4572 46.4473 16.4954 46.4854 16.5357C46.5278 16.5759 46.5681 16.6162 46.6083 16.6586C46.6486 16.6988 46.691 16.7412 46.7313 16.7815C46.7715 16.8239 46.8118 16.8642 46.8521 16.9065C46.8923 16.9489 46.9326 16.9913 46.9729 17.0337C47.011 17.074 47.0492 17.1142 47.0852 17.1566C47.0873 17.1588 47.0894 17.163 47.0937 17.1651C47.1297 17.2054 47.1657 17.2456 47.2018 17.2838C47.223 17.3071 47.2442 17.3325 47.2654 17.3559C47.2844 17.377 47.3035 17.3982 47.3205 17.4194C47.3226 17.4216 47.3247 17.4237 47.3268 17.4258C47.3819 17.4894 47.437 17.5551 47.4921 17.6187C47.5303 17.6632 47.5663 17.7077 47.6045 17.7522C47.6214 17.7734 47.6384 17.7924 47.6553 17.8136C47.6596 17.8179 47.6638 17.8221 47.6659 17.8264C47.6977 17.8645 47.7295 17.9048 47.7592 17.9429C47.7804 17.9684 47.8016 17.9959 47.8228 18.0235C47.8588 18.0701 47.8948 18.1146 47.9308 18.1612C48.0029 18.2524 48.0728 18.3456 48.1407 18.441C48.1746 18.4855 48.2064 18.53 48.2382 18.5745C48.2403 18.5787 48.2445 18.583 48.2466 18.5851C48.2636 18.6063 48.2784 18.6296 48.2954 18.6529C48.3272 18.6953 48.3568 18.7398 48.3865 18.7822C48.4395 18.8585 48.4925 18.9348 48.5455 19.0132C48.5624 19.0365 48.5773 19.062 48.5942 19.0853C48.643 19.1573 48.6896 19.2315 48.7383 19.3057C48.7553 19.3311 48.7701 19.3566 48.7871 19.382C48.8252 19.4413 48.8613 19.5007 48.8973 19.5621C48.9164 19.5918 48.9333 19.6215 48.9524 19.6533C49.0033 19.738 49.0541 19.8228 49.1029 19.9076C49.1177 19.9309 49.1304 19.9563 49.1453 19.9797C49.1665 20.0178 49.1876 20.0538 49.2088 20.092C49.2258 20.1217 49.2427 20.1513 49.2576 20.181C49.2788 20.217 49.2979 20.2531 49.3169 20.2891C49.319 20.2912 49.319 20.2933 49.3212 20.2954C49.3402 20.3294 49.3572 20.3633 49.3763 20.3972C49.4441 20.5243 49.5077 20.6515 49.5713 20.7787C49.5861 20.8083 49.6009 20.8401 49.6158 20.8698C49.62 20.8783 49.6221 20.8846 49.6264 20.8931C49.6454 20.9313 49.6624 20.9673 49.6793 21.0033C49.6984 21.0436 49.7175 21.0839 49.7366 21.1241C49.7493 21.1496 49.762 21.1771 49.7726 21.2025C49.7768 21.2131 49.7811 21.2216 49.7874 21.2322C49.7959 21.2513 49.8044 21.2704 49.8129 21.2894C49.8235 21.3149 49.8362 21.3403 49.8468 21.3657C49.8658 21.406 49.8828 21.4463 49.8998 21.4865C49.9167 21.5268 49.9337 21.5671 49.9506 21.6052C49.9697 21.6497 49.9888 21.6942 50.0078 21.7409C50.0227 21.779 50.0396 21.8172 50.0545 21.8553C50.0693 21.8913 50.0841 21.9274 50.0969 21.9634C50.099 21.9719 50.1032 21.9782 50.1053 21.9867C50.1202 22.0249 50.1371 22.0651 50.152 22.1033C50.1647 22.1393 50.1795 22.1753 50.1922 22.2114C50.1965 22.222 50.2007 22.2326 50.205 22.2432C50.2177 22.2792 50.2325 22.3173 50.2452 22.3534C50.2601 22.3958 50.2749 22.4381 50.2897 22.4784C50.3173 22.5568 50.3448 22.6331 50.3703 22.7115C50.3872 22.7603 50.4021 22.809 50.419 22.8599C50.4296 22.8959 50.4423 22.932 50.4529 22.9659C50.455 22.9722 50.4572 22.9807 50.4593 22.9871C50.4847 23.0655 50.508 23.1418 50.5313 23.2202C50.5356 23.2308 50.5377 23.2435 50.5419 23.2541L50.5695 23.3495C50.5864 23.4067 50.6013 23.4618 50.6182 23.519C50.6288 23.5572 50.6394 23.5953 50.65 23.6335C50.6627 23.678 50.6733 23.7204 50.6839 23.7649C50.6945 23.8094 50.7072 23.8518 50.7178 23.8963C50.7263 23.9323 50.7348 23.9662 50.7433 24.0001C50.756 24.0531 50.7687 24.1061 50.7814 24.1591C50.7899 24.193 50.7984 24.229 50.8047 24.2629C50.8069 24.2714 50.809 24.282 50.8111 24.2905C50.8196 24.3286 50.8281 24.3689 50.8365 24.4071C50.8492 24.4643 50.8598 24.5194 50.8726 24.5766C50.881 24.6148 50.8874 24.6529 50.8959 24.6911C50.9065 24.7398 50.9149 24.7864 50.9234 24.8352C50.9319 24.8776 50.9383 24.9178 50.9467 24.9602C50.9552 25.0047 50.9616 25.0492 50.9701 25.0937C50.9701 25.0959 50.9701 25.098 50.9701 25.098C50.9785 25.1425 50.9849 25.187 50.9912 25.2294C50.9912 25.2336 50.9934 25.2379 50.9934 25.24C50.9997 25.2824 51.0061 25.3226 51.0124 25.365C51.0188 25.4095 51.0252 25.4562 51.0315 25.5007C51.04 25.5536 51.0463 25.6066 51.0527 25.6596C51.0569 25.6893 51.0612 25.7211 51.0654 25.7508C51.0739 25.8122 51.0803 25.8716 51.0866 25.933C51.0909 25.9712 51.0951 26.0114 51.0993 26.0496C51.0993 26.0517 51.0993 26.0538 51.0993 26.0581C51.1036 26.0983 51.1078 26.1365 51.112 26.1767C51.112 26.1852 51.1142 26.1937 51.1142 26.2043C51.1163 26.2297 51.1184 26.2573 51.1205 26.2827C51.1226 26.2997 51.1226 26.3166 51.1248 26.3336C51.1269 26.3654 51.129 26.395 51.1332 26.4247C51.1354 26.448 51.1375 26.4692 51.1375 26.4904C51.1396 26.5286 51.1438 26.5646 51.146 26.6027C51.1481 26.6367 51.1502 26.6706 51.1523 26.7066C51.1544 26.7299 51.1544 26.7511 51.1566 26.7744C51.1608 26.8422 51.165 26.9101 51.1672 26.98C51.1672 26.9842 51.1672 26.9864 51.1672 26.9885C51.1693 27.0075 51.1693 27.0266 51.1693 27.0457C51.1714 27.0732 51.1714 27.1008 51.1735 27.1305C51.1735 27.1538 51.1756 27.1771 51.1756 27.2004C51.1756 27.228 51.1777 27.2555 51.1777 27.281C51.1777 27.3021 51.1778 27.3233 51.1799 27.3424C51.1799 27.3784 51.182 27.4166 51.182 27.4526C51.182 27.4971 51.1841 27.5395 51.1841 27.584V27.5861C51.1947 27.6264 51.1947 27.673 51.1947 27.7197Z" fill="white" stroke="black" stroke-width="1.82345" mask="url(#path-12-inside-1_1241_7108)"/>
<path d="M45.3896 39.6186L45.3897 39.6184C46.1807 37.7445 46.7232 35.6275 46.952 33.3583C47.031 32.5657 47.0727 31.7542 47.0727 30.9303C47.0727 30.4123 47.056 29.8987 47.0228 29.3917L47.0227 29.3906C46.641 23.3398 44.034 18.275 40.4713 15.8259L40.4712 15.8259C39.5029 15.16 38.4636 14.6871 37.3779 14.4363L37.3778 14.4362C36.7882 14.2999 36.1826 14.2297 35.5646 14.2297C34.9055 14.2297 34.2597 14.3118 33.6306 14.4665C32.623 14.7154 31.6564 15.1562 30.749 15.7652C27.1411 18.1868 24.4944 23.2789 24.1043 29.3783L24.1043 29.3788C24.071 29.8901 24.0544 30.4059 24.0544 30.9303C24.0544 31.7289 24.0939 32.5131 24.1688 33.2828C24.3851 35.4896 24.8985 37.5553 25.6463 39.3949L45.3896 39.6186ZM45.3896 39.6186C43.5465 43.9906 40.3922 46.9697 36.8147 47.5324M45.3896 39.6186L36.8147 47.5324M36.8147 47.5324C36.4023 47.5968 35.9871 47.6308 35.5646 47.6308H35.5645H35.5645H35.5644H35.5644H35.5643H35.5643H35.5642H35.5642H35.5641H35.5641H35.564H35.564H35.5639H35.5639H35.5638H35.5638H35.5637H35.5637H35.5636H35.5636H35.5635H35.5635H35.5634H35.5634H35.5633H35.5633H35.5632H35.5632H35.5631H35.5631H35.563H35.563H35.5629H35.5629H35.5628H35.5628H35.5627H35.5627H35.5626H35.5626H35.5625H35.5625H35.5624H35.5624H35.5623H35.5623H35.5622H35.5622H35.5621H35.5621H35.562H35.562H35.5619H35.5619H35.5618H35.5618H35.5617H35.5617H35.5617H35.5616H35.5616H35.5615H35.5615H35.5614H35.5614H35.5613H35.5613H35.5612H35.5612H35.5611H35.5611H35.561H35.561H35.5609H35.5609H35.5608H35.5608H35.5607H35.5607H35.5606H35.5606H35.5605H35.5605H35.5604H35.5604H35.5603H35.5603H35.5602H35.5602H35.5601H35.5601H35.56H35.56H35.5599H35.5599H35.5598H35.5598H35.5597H35.5597H35.5596H35.5596H35.5595H35.5595H35.5594H35.5594H35.5593H35.5593H35.5592H35.5592H35.5591H35.5591H35.559H35.559H35.5589H35.5589H35.5588H35.5588H35.5587H35.5587H35.5586H35.5586H35.5585H35.5585H35.5584H35.5584H35.5584H35.5583H35.5583H35.5582H35.5582H35.5581H35.5581H35.558H35.558H35.5579H35.5579H35.5578H35.5578H35.5577H35.5577H35.5576H35.5576H35.5575H35.5575H35.5574H35.5574H35.5573H35.5573H35.5572H35.5572H35.5571H35.5571H35.557H35.557H35.5569H35.5569H35.5568H35.5568H35.5567H35.5567H35.5566H35.5566H35.5566H35.5565H35.5565H35.5564H35.5564H35.5563H35.5563H35.5562H35.5562H35.5561H35.5561H35.556H35.556H35.5559H35.5559H35.5558H35.5558H35.5557H35.5557H35.5556H35.5556H35.5555H35.5555H35.5554H35.5554H35.5553H35.5553H35.5552H35.5552H35.5552H35.5551H35.5551H35.555H35.555H35.5549H35.5549H35.5548H35.5548H35.5547H35.5547H35.5546H35.5546H35.5545H35.5545H35.5544H35.5544H35.5543H35.5543H35.5542H35.5542H35.5542H35.5541H35.5541H35.554H35.554H35.5539H35.5539H35.5538H35.5538H35.5537H35.5537H35.5536H35.5536H35.5535H35.5535H35.5534H35.5534H35.5533H35.5533H35.5533H35.5532H35.5532H35.5531H35.5531H35.553H35.553H35.5529H35.5529H35.5528H35.5528H35.5527H35.5527H35.5526H35.5526H35.5525H35.5525H35.5525H35.5524H35.5524H35.5523H35.5523H35.5522H35.5522H35.5521H35.5521H35.552H35.552H35.5519H35.5519H35.5518H35.5518H35.5518H35.5517H35.5517H35.5516H35.5516H35.5515H35.5515H35.5514H35.5514H35.5513H35.5513H35.5512H35.5512H35.5512H35.5511H35.5511H35.551H35.551H35.5509H35.5509H35.5508H35.5508H35.5507H35.5507H35.5506H35.5506H35.5506H35.5505H35.5505H35.5504H35.5504H35.5503H35.5503H35.5502H35.5502H35.5501H35.5501H35.5501H35.55H35.55H35.5499H35.5499H35.5498H35.5498H35.5497H35.5497H35.5497H35.5496H35.5496H35.5495H35.5495H35.5494H35.5494H35.5493H35.5493H35.5492H35.5492H35.5492H35.5491H35.5491H35.549H35.549H35.5489H35.5489H35.5488H35.5488H35.5488H35.5487H35.5487H35.5486H35.5486H35.5485H35.5485H35.5484H35.5484H35.5484H35.5483H35.5483H35.5482H35.5482H35.5481H35.5481H35.548H35.548H35.548H35.5479H35.5479H35.5478H35.5478H35.5477H35.5477H35.5477H35.5476H35.5476H35.5475H35.5475H35.5474H35.5474H35.5473H35.5473H35.5473H35.5472H35.5472H35.5471H35.5471H35.547H35.547H35.547H35.5469H35.5469H35.5468H35.5468H35.5467H35.5467H35.5467H35.5466H35.5466H35.5465H35.5465H35.5464H35.5464H35.5464H35.5463H35.5463H35.5462H35.5462H35.5461H35.5461H35.5461H35.546H35.546H35.5459H35.5459H35.5458H35.5458H35.5458H35.5457H35.5457H35.5456H35.5456H35.5456H35.5455H35.5455H35.5454H35.5454H35.5453H35.5453H35.5453H35.5452H35.5452H35.5451H35.5451H35.5451H35.545H35.545H35.5449H35.5449H35.5448H35.5448H35.5448H35.5447H35.5447H35.5446H35.5446H35.5446H35.5445H35.5445H35.5444H35.5444H35.5444H35.5443H35.5443H35.5442H35.5442H35.5441H35.5441H35.5441H35.544H35.544H35.5439H35.5439H35.5439H35.5438H35.5438H35.5437H35.5437H35.5437H35.5436H35.5436H35.5435H35.5435H35.5435H35.5434H35.5434H35.5433H35.5433H35.5433H35.5432H35.5432H35.5431H35.5431H35.5431H35.543H35.543H35.543H35.5429H35.5429H35.5428H35.5428H35.5428H35.5427H35.5427H35.5426H35.5426L36.8147 47.5324ZM35.5413 47.6308C35.5413 47.6308 35.5413 47.6308 35.5413 47.6308H35.5413ZM35.5413 47.6308C31.3967 47.6182 27.6789 44.3878 25.6464 39.3951L35.5413 47.6308Z" fill="white" stroke="black" stroke-width="0.911725"/>
<circle cx="29.8929" cy="33.3908" r="1.44895" fill="black"/>
<circle cx="41.3001" cy="33.3908" r="1.44895" fill="black"/>
<circle cx="30.9857" cy="32.6716" r="0.645261" fill="white"/>
<circle cx="42.3451" cy="32.6716" r="0.645261" fill="white"/>
<path fill-rule="evenodd" clip-rule="evenodd" d="M44.2161 33.6157C42.2234 31.6229 39.4343 32.3165 38.4115 33.5825C38.2649 33.764 37.9895 33.757 37.8977 33.6832C37.819 33.62 37.8989 33.2959 38.0455 33.1144C39.3573 31.4907 42.4368 30.6414 44.8136 33.0183C44.9786 33.1832 44.9786 33.4507 44.8136 33.6157C44.6486 33.7807 44.3811 33.7807 44.2161 33.6157Z" fill="black"/>
<path fill-rule="evenodd" clip-rule="evenodd" d="M26.8283 33.6157C28.8211 31.6229 31.6102 32.3165 32.6329 33.5825C32.7795 33.764 33.0549 33.757 33.1468 33.6832C33.2254 33.62 33.1455 33.2959 32.9989 33.1144C31.6872 31.4907 28.6077 30.6414 26.2308 33.0183C26.0658 33.1832 26.0658 33.4507 26.2308 33.6157C26.3958 33.7807 26.6633 33.7807 26.8283 33.6157Z" fill="black"/>
<path fill-rule="evenodd" clip-rule="evenodd" d="M33.1921 41.7934C32.9087 41.5153 33.8689 40.8353 34.1555 40.7488C34.2481 40.7208 34.3869 40.6849 34.5191 40.6934C34.8541 40.7151 35.1293 40.9452 35.4294 41.0712C35.4678 41.0873 35.4911 41.0944 35.5023 41.0974C35.5136 41.0942 35.5381 41.0867 35.5793 41.0693C35.6512 41.0389 35.7329 40.9967 35.8358 40.9435C35.9312 40.8942 36.0471 40.8343 36.1595 40.788C36.2651 40.7445 36.4141 40.6925 36.5722 40.6925C36.6996 40.6925 36.8256 40.7269 36.9214 40.7592C37.2316 40.8638 38.0994 41.3754 37.8621 41.7483C37.6437 42.0916 36.9395 41.563 36.6477 41.4645C36.6024 41.4493 36.5775 41.4444 36.5691 41.4429C36.5611 41.4447 36.5328 41.4512 36.4776 41.4739C36.1581 41.6055 35.8585 41.8492 35.4993 41.8492C35.1115 41.8492 34.8161 41.5616 34.4648 41.4444C34.4526 41.447 34.4303 41.452 34.396 41.4624C34.3283 41.4828 34.2442 41.5144 34.1555 41.5529C33.8649 41.679 33.5065 41.9843 33.1921 41.7934Z" fill="#CAC9C9"/>
<path fill-rule="evenodd" clip-rule="evenodd" d="M37.1517 42.4026C37.2832 42.5953 37.2336 42.8581 37.0408 42.9896C36.5532 43.3224 35.962 43.4296 35.4332 43.4085C34.9085 43.3875 34.3874 43.2377 34.0253 42.9889C33.833 42.8567 33.7821 42.5947 33.9142 42.4024C34.0231 42.2438 34.2392 42.8056 35.4332 42.8532C36.6273 42.9009 37.0642 42.2745 37.1517 42.4026Z" fill="#CAC9C9"/>
<path fill-rule="evenodd" clip-rule="evenodd" d="M37.3996 12.1485C45.1712 13.0813 51.1942 19.6979 51.1942 27.7196C51.1942 28.2435 51.1689 28.7636 51.1183 29.276C51.1145 29.3152 51.0838 29.3465 51.0446 29.3511C50.4408 29.422 49.8254 29.4575 49.202 29.4575C43.3665 29.4575 38.2757 26.2701 35.5748 21.5424C35.542 21.485 35.4587 21.485 35.4259 21.5424C32.725 26.2701 27.6343 29.4575 21.7988 29.4575C21.1839 29.4575 20.5749 29.4221 19.9775 29.3531C19.9383 29.3485 19.9075 29.3173 19.9036 29.278C19.853 28.7656 19.8278 28.2455 19.8278 27.7196C19.8278 19.7043 25.8402 13.094 33.6011 12.1506C33.6012 12.1506 33.6012 12.1506 33.6012 12.1506C33.6012 12.1506 33.6012 12.1506 33.6012 12.1506C34.2264 12.0743 34.8643 12.0361 35.5107 12.0361C36.1487 12.0361 36.7803 12.0743 37.3991 12.1485C37.3993 12.1485 37.3994 12.1485 37.3996 12.1485Z" fill="white"/>
<path fill-rule="evenodd" clip-rule="evenodd" d="M35.9973 22.2393C38.7863 26.5807 43.6247 29.6663 49.1687 29.6663C49.3703 29.6663 51.0703 29.7942 51.0945 29.5486C51.1451 29.0362 51.1942 28.2435 51.1942 27.7196C51.1942 19.6979 45.1712 13.0813 37.3996 12.1485C36.7808 12.0743 36.1487 12.0361 35.5107 12.0361C34.8643 12.0361 34.2264 12.0743 33.6012 12.1506C25.8403 13.0939 19.8278 19.7043 19.8278 27.7196C19.8278 28.2455 19.853 28.7656 19.9036 29.278C19.9276 29.5206 21.5756 29.6663 21.7988 29.6663C27.3428 29.6663 32.2145 26.5807 35.0034 22.2393C35.0145 22.222 35.0255 22.2048 35.0365 22.1875C35.539 21.3985 35.7006 21.7736 35.9642 22.1875C35.9752 22.2048 35.9863 22.222 35.9973 22.2393ZM37.2988 12.9874C36.7134 12.9173 36.1151 12.8811 35.5107 12.8811C34.901 12.8811 34.3006 12.9169 33.7135 12.9881C33.7101 12.9885 33.7066 12.989 33.7031 12.9894C26.361 13.8819 20.6727 20.1368 20.6727 27.7196C20.6727 28.0061 20.6806 28.2904 20.6964 28.5723C21.0605 28.599 21.4285 28.6126 21.7988 28.6126C27.3188 28.6126 32.1356 25.5985 34.6923 21.1233C35.0494 20.4981 35.9514 20.4981 36.3085 21.1233C38.8652 25.5985 43.682 28.6126 49.202 28.6126C49.5804 28.6126 49.9552 28.5988 50.3255 28.5713C50.3413 28.2893 50.3493 28.0052 50.3493 27.7196C50.3493 20.1308 44.6506 13.87 37.2988 12.9874Z" fill="black"/>
<path d="M21.4513 27.5116C23.0809 22.3208 28.2449 16.702 32.6072 13.7577C32.6944 13.6988 32.6301 13.5628 32.5297 13.5943C26.1178 15.6039 22.0281 20.0491 21.2418 27.4726C21.2299 27.5847 21.4175 27.6191 21.4513 27.5116Z" fill="black"/>
<path d="M26.9932 24.896C27.0021 20.3091 29.9873 15.7017 32.7825 13.625C32.8608 13.5669 32.808 13.4412 32.7124 13.4602C28.3381 14.3267 26.137 17.9012 26.9932 24.896Z" fill="black"/>
<path d="M29.5638 23.4403C29.6487 20.2823 31.8076 17.0603 33.8306 15.5227C33.9091 15.463 33.8535 15.3359 33.7575 15.3585C30.6727 16.0837 29.0749 18.6231 29.5638 23.4403Z" fill="black"/>
<path d="M40.1767 23.4403C40.0918 20.2823 37.9328 17.0603 35.9099 15.5227C35.8314 15.463 35.887 15.3359 35.983 15.3585C39.0678 16.0837 40.6655 18.6231 40.1767 23.4403Z" fill="black"/>
<path d="M49.1534 27.5116C47.5239 22.3208 42.3598 16.702 37.9975 13.7577C37.9104 13.6988 37.9747 13.5628 38.075 13.5943C44.4869 15.6039 48.5767 20.0491 49.363 27.4726C49.3748 27.5847 49.1872 27.6191 49.1534 27.5116Z" fill="black"/>
<path d="M43.6115 24.8958C43.6026 20.309 40.6174 15.7016 37.8222 13.6249C37.744 13.5668 37.7967 13.4411 37.8923 13.4601C42.2666 14.3266 44.4677 17.9011 43.6115 24.8958Z" fill="black"/>
<path fill-rule="evenodd" clip-rule="evenodd" d="M36.0567 30.2112H35.269V33.2445C35.269 33.027 35.4454 32.8506 35.6629 32.8506C35.8804 32.8506 36.0567 33.027 36.0567 33.2445V30.2112Z" fill="black"/>
<path d="M48.161 29.6913H45.8929C47.109 29.6913 47.5392 30.7991 47.6301 31.5304C47.643 31.6343 47.7634 31.6934 47.849 31.6333L48.2365 31.3612C48.2714 31.3366 48.2922 31.2965 48.2922 31.2538V29.8225C48.2922 29.75 48.2335 29.6913 48.161 29.6913Z" fill="black" stroke="black" stroke-width="0.65596"/>
<path d="M22.8632 29.6913H25.1313C23.9153 29.6913 23.4851 30.7991 23.3942 31.5304C23.3813 31.6343 23.2609 31.6934 23.1752 31.6333L22.7878 31.3612C22.7529 31.3366 22.7321 31.2965 22.7321 31.2538V29.8225C22.7321 29.75 22.7908 29.6913 22.8632 29.6913Z" fill="black" stroke="black" stroke-width="0.65596"/>
<path d="M23.6594 31.3075C23.6594 30.4018 24.3936 29.6676 25.2993 29.6676H34.6129C34.7941 29.6676 34.9409 29.8144 34.9409 29.9956V33.5064C34.9409 36.5858 32.4446 39.0821 29.3652 39.0821H29.2351C26.1557 39.0821 23.6594 36.5858 23.6594 33.5064V31.3075Z" fill="black" stroke="black" stroke-width="0.65596"/>
<path d="M47.6668 31.3075C47.6668 30.4018 46.9326 29.6676 46.0269 29.6676H36.7133C36.5321 29.6676 36.3853 29.8144 36.3853 29.9956V33.5064C36.3853 36.5858 38.8816 39.0821 41.9609 39.0821H42.0911C45.1705 39.0821 47.6668 36.5858 47.6668 33.5064V31.3075Z" fill="black" stroke="black" stroke-width="0.65596"/>
<mask id="mask1_1241_7108" style="mask-type:alpha" maskUnits="userSpaceOnUse" x="24" y="30" width="11" height="9">
<path d="M24.0356 32.0107C24.0356 30.9239 24.9167 30.0428 26.0035 30.0428H33.8458C34.208 30.0428 34.5017 30.3365 34.5017 30.6988V33.4776C34.5017 36.3677 32.1588 38.7106 29.2687 38.7106C26.3786 38.7106 24.0356 36.3677 24.0356 33.4776V32.0107Z" fill="black"/>
</mask>
<g mask="url(#mask1_1241_7108)">
<path d="M23.9689 32.48L25.7835 30.4958C25.8073 30.4697 25.8406 30.4544 25.8759 30.4532L32.6022 30.229C32.7244 30.2249 32.7853 30.3754 32.6946 30.4574L25.2971 37.1487C25.2336 37.2062 25.1329 37.1883 25.093 37.1124L24.6765 36.3196C24.6499 36.269 24.6592 36.2069 24.6995 36.1662L30.0972 30.7249C30.185 30.6364 30.1115 30.4868 29.9878 30.5023L29.6153 30.5491C29.5881 30.5525 29.5627 30.5643 29.5426 30.5828L24.508 35.2291C24.4301 35.301 24.3035 35.2556 24.289 35.1506L23.9358 32.5865C23.9304 32.5478 23.9426 32.5088 23.9689 32.48Z" fill="white"/>
<path d="M29.2365 39.7882L34.5351 34.6659C34.6184 34.5854 34.7575 34.6444 34.7575 34.7602V35.9019C34.7575 35.9409 34.7401 35.978 34.71 36.0029L29.9025 39.9835C29.879 40.003 29.8494 40.0137 29.8188 40.0137H29.3276C29.2097 40.0137 29.1517 39.8701 29.2365 39.7882Z" fill="white"/>
</g>
<mask id="mask2_1241_7108" style="mask-type:alpha" maskUnits="userSpaceOnUse" x="36" y="30" width="12" height="9">
<path d="M46.9704 32.0848C46.9704 31.1791 46.2362 30.4449 45.3305 30.4449H37.4117C37.2306 30.4449 37.0838 30.5918 37.0838 30.7729V33.5134C37.0838 36.2436 39.297 38.4567 42.0271 38.4567C44.7572 38.4567 46.9704 36.2436 46.9704 33.5134V32.0848Z" fill="black" stroke="black" stroke-width="0.65596"/>
</mask>
<g mask="url(#mask2_1241_7108)">
<path d="M35.1943 31.3422L38.3341 29.7816C38.3499 29.7737 38.3671 29.7692 38.3847 29.7681L43.2489 29.4792C43.3718 29.4719 43.4362 29.6227 43.3459 29.7064L36.4521 36.0998C36.3857 36.1614 36.2784 36.1388 36.2425 36.0556L36.0613 35.6359C36.039 35.5841 36.0522 35.5238 36.0943 35.4862L42.1878 30.0302C42.2743 29.9527 42.225 29.8094 42.1092 29.8016L41.6924 29.7733C41.6587 29.771 41.6254 29.7818 41.5995 29.8034L35.888 34.5701C35.8109 34.6345 35.693 34.5918 35.6749 34.493L35.1237 31.4833C35.1132 31.4258 35.142 31.3682 35.1943 31.3422Z" fill="white"/>
<path d="M40.8207 38.6632L47.0529 34.0042C47.1394 33.9395 47.2627 34.0013 47.2627 34.1093V35.2983C47.2627 35.3374 47.2452 35.3745 47.2151 35.3994L42.4279 39.3633C42.3927 39.3924 42.345 39.4012 42.3018 39.3864L40.8568 38.8925C40.757 38.8584 40.7362 38.7264 40.8207 38.6632Z" fill="white"/>
</g>
</g>
<defs>
<filter id="filter0_d_1241_7108" x="8.55408" y="7.44751" width="44.8203" height="48.4614" filterUnits="userSpaceOnUse" color-interpolation-filters="sRGB">
<feFlood flood-opacity="0" result="BackgroundImageFix"/>
<feColorMatrix in="SourceAlpha" type="matrix" values="0 0 0 0 0 0 0 0 0 0 0 0 0 0 0 0 0 0 127 0" result="hardAlpha"/>
<feOffset dx="-1" dy="1.5"/>
<feComposite in2="hardAlpha" operator="out"/>
<feColorMatrix type="matrix" values="0 0 0 0 0 0 0 0 0 0 0 0 0 0 0 0 0 0 0.25 0"/>
<feBlend mode="normal" in2="BackgroundImageFix" result="effect1_dropShadow_1241_7108"/>
<feBlend mode="normal" in="SourceGraphic" in2="effect1_dropShadow_1241_7108" result="shape"/>
</filter>
</defs>
</svg>
