<svg width="61" height="60" viewBox="0 0 61 60" fill="none" xmlns="http://www.w3.org/2000/svg">
<circle cx="30.2946" cy="30.0001" r="29.0001" fill="white" stroke="white" stroke-width="2"/>
<path fill-rule="evenodd" clip-rule="evenodd" d="M22.0116 40.2921C13.7555 38.4662 7.87659 33.7535 7.87659 28.2277C7.87659 21.1175 17.6103 15.3535 29.6175 15.3535C41.6246 15.3535 51.3583 21.1175 51.3583 28.2277C51.3583 33.5828 45.8369 38.1743 37.9813 40.1147C37.2979 43.9523 33.9754 46.8641 29.9797 46.8641C26.0457 46.8641 22.7644 44.0417 22.0116 40.2921ZM36.2667 33.4428C34.7756 31.6081 32.513 30.4377 29.9797 30.4377C27.4316 30.4377 25.1574 31.6218 23.6666 33.4749C17.8892 32.501 13.8319 30.2084 13.8319 27.5354C13.8319 23.9791 21.0138 21.0961 29.8731 21.0961C38.7324 21.0961 45.9143 23.9791 45.9143 27.5354C45.9143 30.1794 41.9444 32.4513 36.2667 33.4428Z" fill="white"/>
<path d="M29.9811 14.0591C17.2865 14.0591 6.95862 20.434 6.95862 28.27C6.95862 34.1078 12.5385 39.2303 21.2056 41.4036C22.4217 45.2249 25.9708 47.8201 29.9811 47.8201C33.9913 47.8201 37.5404 45.2249 38.7565 41.4036C47.4236 39.2303 53.0035 34.1078 53.0035 28.27C53.0035 20.434 42.6756 14.0591 29.9811 14.0591ZM22.6461 36.357L25.3766 37.4813V39.9639L22.5755 40.2585C22.1212 38.7865 22.1918 37.829 22.6461 36.357ZM29.9811 21.1215C37.4119 21.1215 43.8851 24.8543 45.6363 28.1365C44.5466 30.2584 41.5568 32.114 37.3867 33.1639C35.6584 30.8023 32.9075 29.4065 29.9811 29.4065C27.0547 29.4065 24.3037 30.8023 22.5755 33.1639C18.4054 32.114 15.4155 30.2584 14.3258 28.1365C16.077 24.8543 22.5502 21.1215 29.9811 21.1215ZM13.8914 26.1182C14.1723 22.0539 21.4137 18.2081 29.9811 18.2081C38.5485 18.2081 45.7898 22.0539 46.0707 26.1182C43.3011 23.0163 37.118 19.5866 29.9811 19.5866C22.8441 19.5866 16.6611 23.0163 13.8914 26.1182ZM26.9122 40.1665V37.0731C26.9292 37.0455 26.9444 37.0168 26.9574 36.9871C26.9574 36.9825 26.9574 36.9771 26.9574 36.9725L28.3387 35.5912C28.3441 35.5912 28.3487 35.5912 28.3533 35.5912C28.3798 35.5777 28.4055 35.5626 28.43 35.546H31.5335C31.5581 35.5626 31.5837 35.5778 31.6102 35.5912C31.6148 35.5912 31.6194 35.5912 31.6247 35.5912L33.0061 36.9725C33.0061 36.9771 33.0061 36.9825 33.0061 36.9871C33.0192 37.0168 33.0343 37.0455 33.0513 37.0731V40.1673C33.0347 40.1919 33.0195 40.2175 33.0061 40.244C33.0061 40.2486 33.0061 40.254 33.0061 40.2585L31.6247 41.6392C31.6202 41.6392 31.6156 41.6392 31.6109 41.6392C31.5844 41.6527 31.5587 41.6678 31.5342 41.6844H28.4292C28.4046 41.6678 28.3789 41.6526 28.3525 41.6392C28.3479 41.6392 28.3433 41.6392 28.3386 41.6392L26.9573 40.2578C26.9573 40.2532 26.9573 40.2478 26.9573 40.2433C26.944 40.2167 26.9289 40.1911 26.9122 40.1665ZM25.9269 32.1573L27.721 34.3648L25.9253 35.8337L23.2462 34.9389C23.9541 33.6507 24.6383 32.8645 25.9269 32.1573ZM27.721 31.2829C29.1934 30.8286 30.7686 30.8286 32.241 31.2829L30.9267 34.0119H28.6326L27.721 31.2829ZM32.2411 34.3648L33.6562 31.883C34.9454 32.5902 36.0062 33.6503 36.7143 34.9389H36.7128L34.0337 35.8337L32.2411 34.3648ZM26.3044 45.3497C25.0158 44.6423 23.9555 43.5822 23.2478 42.2938L25.9269 41.399L27.4206 42.9351L26.3044 45.3497ZM27.721 45.9498L28.6327 43.2208L31.8789 42.9351L32.2411 45.9498C30.7687 46.4041 29.1934 46.4041 27.721 45.9498ZM33.6577 45.3497L32.7637 42.6706L34.0354 41.399L36.9864 41.9395C36.2787 43.228 34.9464 44.6423 33.6577 45.3497ZM37.3145 40.8756L34.5856 39.9639V38.044L37.3145 36.357C37.7688 37.829 37.7688 39.4037 37.3145 40.8756ZM39.1171 39.7214C39.3458 37.9416 39.0343 36.1342 38.2231 34.5337C44.0524 32.959 47.6316 29.877 47.6316 26.3561C47.6316 21.1822 39.8807 17.2937 29.9811 17.2937C20.0814 17.2937 12.3305 21.1822 12.3305 26.3561C12.3305 29.877 15.9097 32.9559 21.739 34.5337C20.9291 36.1346 20.619 37.942 20.8488 39.7214C13.411 37.6486 8.49348 33.1416 8.49348 28.27C8.49348 21.2804 18.133 15.5939 29.9811 15.5939C41.8292 15.5939 51.4687 21.2804 51.4687 28.27C51.4687 33.1416 46.5511 37.6486 39.1171 39.7214Z" fill="black"/>
<path d="M29.5948 17.6774C16.817 18.0242 13.3753 23.8475 13.2516 26.7158C15.9136 24.5284 22.909 20.1165 29.5948 19.9679C36.2806 19.8193 43.689 23.9919 46.5575 26.0967C46.2273 23.1458 42.3725 17.3307 29.5948 17.6774Z" fill="#CAC9C9" stroke="black" stroke-width="1.04819"/>
<path fill-rule="evenodd" clip-rule="evenodd" d="M46.561 21.9248C47.7386 22.1266 49.3236 25.0697 48.8435 28.3467C48.0206 30.9302 46.3456 32.02 45.4634 32.6007C45.1936 32.7051 43.4799 33.3503 43.3751 33.081C43.2703 32.8118 44.1355 32.4814 44.8841 31.8749C46.1925 30.8149 47.4634 29.4534 47.7386 27.9488C48.2382 23.8385 46.0132 22.0623 46.561 21.9248Z" fill="#CAC9C9"/>
<path fill-rule="evenodd" clip-rule="evenodd" d="M9.01198 26.6427C9.37383 26.6103 9.01198 31.3381 13.2302 34.506C17.4483 37.6738 18.8637 38.2957 19.3045 37.9021C19.6111 37.6282 19.9986 34.2196 21.3868 35.0486C20.3264 37.0923 20.3486 38.971 20.6348 39.6758C18.8143 38.9548 14.9601 37.3597 12.7692 35.6373C11.6736 34.776 10.6838 33.408 9.99802 32.3573C8.38402 29.8998 8.65013 26.6751 9.01198 26.6427Z" fill="#CAC9C9"/>
<path d="M27.7993 37.379L28.9157 36.2626C28.9357 36.2426 28.9627 36.2314 28.9909 36.2314H31.5645C31.6446 36.2314 31.6959 36.3166 31.6585 36.3874L29.0217 41.3726C28.9861 41.4398 28.8936 41.449 28.8455 41.3902L27.7922 40.1027C27.7767 40.0837 27.7682 40.0599 27.7682 40.0354V37.4541C27.7682 37.4259 27.7794 37.3989 27.7993 37.379Z" fill="#CAC9C9"/>
<circle cx="49.8053" cy="49.7847" r="9.6" fill="#CAC9C9" stroke="white" stroke-width="1.2"/>
<circle cx="49.8053" cy="49.7847" r="8.4" fill="black" stroke="black" stroke-width="1.2"/>
<path d="M47.5351 54.7847H44.5522L47.913 44.6028H51.6914L55.0522 54.7847H52.0692L49.842 47.4068H49.7624L47.5351 54.7847ZM46.9783 50.7676H52.5863V52.8358H46.9783V50.7676Z" fill="white"/>
</svg>
