<svg width="61" height="60" viewBox="0 0 61 60" fill="none" xmlns="http://www.w3.org/2000/svg">
<circle cx="30.1052" cy="30.0001" r="29.0001" fill="white" stroke="white" stroke-width="2"/>
<path d="M16.9341 31.5642C17.2102 31.216 17.6632 29.7456 18.7079 29.226C19.7525 28.7063 21.1894 27.6999 22.1056 28.6137C23.0217 29.5274 20.1796 29.8309 19.3818 30.2916C18.5841 30.7523 18.3988 32.0254 17.7732 32.2559C16.9769 32.5492 16.658 31.9125 16.9341 31.5642Z" fill="#CAC9C9" stroke="black" stroke-width="0.648172"/>
<path d="M22.6237 37.2728C22.8998 36.9246 23.2815 35.7662 24.3262 35.2465C25.3709 34.7268 26.0095 33.3102 26.9257 34.2239C27.8418 35.1377 26.2647 36.0822 25.4669 36.543C24.6691 37.0037 24.2407 37.5098 23.6151 37.7402C22.8188 38.0335 22.3476 37.6211 22.6237 37.2728Z" fill="#CAC9C9" stroke="black" stroke-width="0.648172"/>
<g filter="url(#filter0_d_1241_7163)">
<path d="M23.6887 22.699C21.5277 24.8318 20.428 26.1566 21.0307 28.3265C21.6334 30.4965 27.7906 35.8734 29.6781 35.7624C33.0946 35.5614 35.6269 33.8732 37.516 29.6528C38.2165 28.0879 33.4622 21.8341 31.0447 21.3324C28.6272 20.8307 25.8498 20.5662 23.6887 22.699Z" fill="#CAC9C9"/>
<path d="M23.6887 22.699C21.5277 24.8318 20.428 26.1566 21.0307 28.3265C21.6334 30.4965 27.7906 35.8734 29.6781 35.7624C33.0946 35.5614 35.6269 33.8732 37.516 29.6528C38.2165 28.0879 33.4622 21.8341 31.0447 21.3324C28.6272 20.8307 25.8498 20.5662 23.6887 22.699Z" stroke="black" stroke-width="1.08029"/>
</g>
<path d="M22.8667 30.0709C21.5867 30.8679 23.4156 31.1331 24.1128 31.8635C24.81 32.5939 25.482 34.139 25.9524 33.3746C26.4836 32.5114 24.1467 29.2739 22.8667 30.0709Z" fill="black" stroke="black" stroke-width="0.648172"/>
<path d="M20.2244 33.8144C20.2245 33.272 20.8298 31.7197 21.6687 30.9899C22.5076 30.2602 23.5487 29.984 23.9892 30.423C24.4298 30.862 23.9806 31.5765 23.1828 32.0372C22.385 32.4979 22.237 33.7456 21.4407 34.0389C20.6444 34.3322 20.2243 34.3567 20.2244 33.8144Z" fill="#CAC9C9" stroke="black" stroke-width="0.648172"/>
<path d="M21.5902 35.0705C21.6886 34.5372 22.4079 32.7227 23.0656 32.3382C23.7232 31.9536 24.2352 30.9762 25.0295 31.5941C25.8238 32.212 25.7283 33.361 24.8602 33.6694C23.9921 33.9778 23.5819 35.3678 22.7456 35.5118C21.9094 35.6559 21.4917 35.6038 21.5902 35.0705Z" fill="#CAC9C9" stroke="black" stroke-width="0.648172"/>
<g filter="url(#filter1_d_1241_7163)">
<path fill-rule="evenodd" clip-rule="evenodd" d="M11.9579 23.6699C12.3079 23.2163 13.059 22.7354 14.208 22.5109C14.4731 22.4592 14.792 22.3307 15.1343 22.1929C16.0667 21.8173 17.1734 21.3716 17.8437 22.213C18.7474 21.9764 19.5411 22.8787 20.128 23.5459C20.3243 23.769 20.4974 23.9658 20.6438 24.0849C21.371 24.6768 21.7026 25.1486 22.0517 25.7211C22.496 26.4499 21.4631 27.8019 20.8922 27.7534C20.3213 27.7049 19.5102 27.334 18.6993 26.4897C18.5121 26.2948 18.2315 26.0964 17.9302 25.8833C17.5965 25.6473 17.2375 25.3934 16.952 25.1067C16.6028 25.2021 16.2345 25.2575 15.9088 25.3064C15.615 25.3505 15.3558 25.3895 15.1764 25.448C14.4796 25.6752 13.9753 25.7391 13.4682 25.7482C13.1038 26.3256 12.1086 26.74 11.2006 27.118C10.6333 27.3541 10.1 27.5761 9.77613 27.8149C9.27673 28.183 8.84258 28.591 8.43584 28.9732C7.9111 29.4664 7.43198 29.9167 6.91724 30.183C5.75423 30.7848 4.60551 30.1058 4.977 29.5424C5.34849 28.9791 6.4477 28.1685 7.95606 27.185C8.362 26.9203 8.84039 26.4778 9.34913 26.0072C10.1646 25.2529 11.0581 24.4264 11.8564 24.1444C11.8446 23.9465 11.8757 23.7765 11.9579 23.6699Z" fill="white"/>
<path d="M14.208 22.5109L14.1212 22.0668L14.208 22.5109ZM11.9579 23.6699L11.5996 23.3935V23.3935L11.9579 23.6699ZM15.1343 22.1929L15.3034 22.6126V22.6126L15.1343 22.1929ZM17.8437 22.213L17.4898 22.4949L17.6734 22.7253L17.9583 22.6507L17.8437 22.213ZM20.128 23.5459L19.7882 23.8447V23.8447L20.128 23.5459ZM20.6438 24.0849L20.3581 24.4359V24.4359L20.6438 24.0849ZM22.0517 25.7211L22.4381 25.4856V25.4856L22.0517 25.7211ZM20.8922 27.7534L20.9305 27.3025L20.8922 27.7534ZM18.6993 26.4897L19.0256 26.1762V26.1762L18.6993 26.4897ZM17.9302 25.8833L17.6689 26.2527V26.2527L17.9302 25.8833ZM16.952 25.1067L17.2727 24.7874L17.0869 24.6007L16.8328 24.6702L16.952 25.1067ZM15.9088 25.3064L15.9761 25.7539L15.9088 25.3064ZM15.1764 25.448L15.3167 25.8782H15.3167L15.1764 25.448ZM13.4682 25.7482L13.4601 25.2957L13.2159 25.3001L13.0855 25.5067L13.4682 25.7482ZM11.2006 27.118L11.0267 26.7002L11.2006 27.118ZM9.77613 27.8149L9.50764 27.4506H9.50764L9.77613 27.8149ZM8.43584 28.9732L8.74574 29.303L8.43584 28.9732ZM6.91724 30.183L7.1252 30.5849L7.1252 30.5849L6.91724 30.183ZM4.977 29.5424L4.59922 29.2933H4.59922L4.977 29.5424ZM7.95606 27.185L8.20324 27.5641H8.20324L7.95606 27.185ZM9.34913 26.0072L9.04185 25.675L9.34913 26.0072ZM11.8564 24.1444L12.0071 24.5711L12.3282 24.4576L12.3081 24.1177L11.8564 24.1444ZM14.1212 22.0668C12.9004 22.3053 12.0362 22.8276 11.5996 23.3935L12.3162 23.9463C12.5796 23.605 13.2176 23.1655 14.2947 22.9551L14.1212 22.0668ZM14.9653 21.7731C14.6084 21.9168 14.3346 22.0251 14.1212 22.0668L14.2947 22.9551C14.6117 22.8932 14.9755 22.7447 15.3034 22.6126L14.9653 21.7731ZM18.1977 21.931C17.7365 21.3521 17.1158 21.2323 16.5371 21.2968C15.9868 21.3582 15.4169 21.5912 14.9653 21.7731L15.3034 22.6126C15.7842 22.419 16.2338 22.2413 16.6375 22.1963C17.0128 22.1544 17.2806 22.2324 17.4898 22.4949L18.1977 21.931ZM20.4678 23.247C20.1811 22.9211 19.8032 22.4885 19.3706 22.1744C18.9352 21.8582 18.3693 21.6076 17.7291 21.7752L17.9583 22.6507C18.2218 22.5818 18.5047 22.6641 18.8388 22.9067C19.1756 23.1513 19.488 23.5034 19.7882 23.8447L20.4678 23.247ZM20.9294 23.7339C20.8193 23.6443 20.6748 23.4823 20.4678 23.247L19.7882 23.8447C19.9737 24.0556 20.1755 24.2872 20.3581 24.4359L20.9294 23.7339ZM22.4381 25.4856C22.0718 24.8847 21.7086 24.3681 20.9294 23.7339L20.3581 24.4359C21.0334 24.9855 21.3335 25.4125 21.6653 25.9567L22.4381 25.4856ZM20.8539 28.2043C21.1675 28.231 21.4538 28.0709 21.6532 27.9171C21.8695 27.7501 22.0717 27.5229 22.2325 27.2748C22.3928 27.0272 22.5261 26.7369 22.5829 26.4372C22.6396 26.1377 22.6254 25.7927 22.4381 25.4856L21.6653 25.9567C21.7002 26.0139 21.7235 26.1113 21.6936 26.2687C21.6639 26.4259 21.5865 26.6072 21.4729 26.7827C21.3595 26.9577 21.2242 27.1049 21.1002 27.2006C20.9592 27.3094 20.9023 27.3001 20.9305 27.3025L20.8539 28.2043ZM18.3729 26.8032C19.2346 27.7002 20.1417 28.1438 20.8539 28.2043L20.9305 27.3025C20.5009 27.266 19.7859 26.9677 19.0256 26.1762L18.3729 26.8032ZM17.6689 26.2527C17.9829 26.4749 18.2223 26.6464 18.3729 26.8032L19.0256 26.1762C18.802 25.9433 18.48 25.7179 18.1915 25.5138L17.6689 26.2527ZM16.6314 25.426C16.9493 25.7454 17.3421 26.0216 17.6689 26.2527L18.1915 25.5138C17.851 25.273 17.5257 25.0415 17.2727 24.7874L16.6314 25.426ZM15.9761 25.7539C16.2975 25.7056 16.6921 25.6468 17.0713 25.5432L16.8328 24.6702C16.5134 24.7574 16.1715 24.8093 15.8416 24.8589L15.9761 25.7539ZM15.3167 25.8782C15.4517 25.8342 15.6661 25.8005 15.9761 25.7539L15.8416 24.8589C15.5639 24.9006 15.2599 24.9447 15.036 25.0178L15.3167 25.8782ZM13.4763 26.2006C14.0262 26.1908 14.5751 26.1201 15.3167 25.8782L15.036 25.0178C14.384 25.2304 13.9245 25.2874 13.4601 25.2957L13.4763 26.2006ZM13.0855 25.5067C12.9676 25.6935 12.7143 25.8958 12.3211 26.1108C11.9383 26.3202 11.4858 26.509 11.0267 26.7002L11.3746 27.5357C11.8234 27.3489 12.3225 27.1416 12.7553 26.9049C13.1779 26.6739 13.6044 26.3803 13.8509 25.9897L13.0855 25.5067ZM11.0267 26.7002C10.4818 26.927 9.88628 27.1715 9.50764 27.4506L10.0446 28.1792C10.3138 27.9808 10.7848 27.7813 11.3746 27.5357L11.0267 26.7002ZM9.50764 27.4506C8.98323 27.8371 8.53028 28.2635 8.12593 28.6435L8.74574 29.303C9.15488 28.9185 9.57024 28.5288 10.0446 28.1792L9.50764 27.4506ZM8.12593 28.6435C7.58781 29.1492 7.15665 29.5496 6.70927 29.7811L7.1252 30.5849C7.70731 30.2837 8.23439 29.7836 8.74574 29.303L8.12593 28.6435ZM6.70927 29.7811C6.24245 30.0226 5.80591 29.993 5.54946 29.8835C5.41671 29.8268 5.36632 29.7647 5.35614 29.7462C5.35304 29.7406 5.35889 29.7491 5.35838 29.7682C5.35785 29.7886 5.35075 29.7977 5.35478 29.7915L4.59922 29.2933C4.40871 29.5822 4.41337 29.9109 4.56364 30.1834C4.70072 30.4319 4.94054 30.6075 5.1939 30.7158C5.7097 30.9361 6.42902 30.9451 7.1252 30.5849L6.70927 29.7811ZM5.35478 29.7915C5.49625 29.577 5.81129 29.2721 6.31781 28.8787C6.81296 28.494 7.45273 28.0534 8.20324 27.5641L7.70889 26.8059C6.95103 27.3001 6.28702 27.7565 5.7626 28.1639C5.24955 28.5624 4.82924 28.9445 4.59922 29.2933L5.35478 29.7915ZM8.20324 27.5641C8.64864 27.2736 9.15881 26.7997 9.65642 26.3394L9.04185 25.675C8.52197 26.1559 8.07537 26.567 7.70889 26.8059L8.20324 27.5641ZM9.65642 26.3394C10.0669 25.9598 10.481 25.577 10.8899 25.2537C11.3028 24.9271 11.679 24.687 12.0071 24.5711L11.7056 23.7177C11.2355 23.8838 10.7658 24.198 10.3285 24.5437C9.88723 24.8927 9.44691 25.3003 9.04185 25.675L9.65642 26.3394ZM11.5996 23.3935C11.4178 23.6292 11.3906 23.9338 11.4046 24.1711L12.3081 24.1177C12.304 24.048 12.3084 23.997 12.3152 23.9641C12.3222 23.93 12.3285 23.9304 12.3162 23.9463L11.5996 23.3935Z" fill="black"/>
</g>
<path d="M20.8921 27.7534C20.3213 27.7049 19.5101 27.3339 18.6992 26.4896C17.8882 25.6453 15.3215 24.7327 16.9252 22.8583C18.529 20.9838 19.9164 23.4929 20.6437 24.0848C21.3709 24.6767 21.7026 25.1485 22.0516 25.7211C22.4959 26.4498 21.463 27.8019 20.8921 27.7534Z" fill="#CAC9C9" stroke="black" stroke-width="0.45253"/>
<path d="M11.9579 23.6699C12.3078 23.2163 13.059 22.7353 14.2079 22.5109C15.3569 22.2865 17.5142 20.6231 18.2213 22.9865C18.9284 25.3498 16.0677 25.1572 15.1763 25.448C14.2849 25.7387 13.7086 25.762 13.0383 25.7453C12.185 25.7241 11.6079 24.1235 11.9579 23.6699Z" fill="#CAC9C9" stroke="black" stroke-width="0.45253"/>
<path d="M4.97694 29.5424C5.34844 28.979 6.44765 28.1685 7.95601 27.185C9.46437 26.2014 11.9729 22.7631 13.3229 24.5504C14.673 26.3377 10.9197 26.9719 9.77607 27.8149C8.6324 28.6578 7.83091 29.7102 6.91718 30.183C5.75418 30.7847 4.60545 30.1057 4.97694 29.5424Z" fill="#CAC9C9" stroke="black" stroke-width="0.45253"/>
<path fill-rule="evenodd" clip-rule="evenodd" d="M15.0193 16.5462C14.8694 16.7424 14.7186 16.9887 14.5976 17.3172C14.4829 17.6284 14.3702 18.0237 14.255 18.4279C13.9611 19.4591 13.6506 20.5486 13.2474 20.4501C11.9203 20.3061 12.5525 18.4934 12.9385 17.3866L12.9385 17.3866C13.0117 17.1769 13.076 16.9925 13.1164 16.8497C13.1498 16.732 13.1799 16.6171 13.2092 16.5051L13.2092 16.505C13.4035 15.7633 13.5642 15.1495 14.4064 14.7102C14.4402 14.6926 14.473 14.6767 14.5049 14.6624C14.6266 13.9778 15.0014 13.6959 15.7736 13.3172C16.4374 12.9916 17.999 14.072 18.163 15.3128C19.2481 15.6769 20.0164 17.2811 20.6188 18.5389C20.8354 18.9912 21.0306 19.3987 21.2113 19.6876C21.7537 20.5548 22.4078 21.3769 22.9243 22.0262L22.9244 22.0262L22.9244 22.0262C23.265 22.4544 23.5459 22.8074 23.6954 23.0486C24.1743 23.8208 22.9407 24.6765 22.3538 24.6078C21.9969 24.5661 21.3127 23.5914 20.6382 22.6306C20.2035 22.0113 19.7727 21.3977 19.4363 21.0433C19.27 20.8682 18.9673 20.6263 18.6053 20.3371C17.6039 19.5369 16.1488 18.3743 15.8742 17.2595C15.5375 17.1241 15.2474 16.8578 15.0193 16.5462Z" fill="white"/>
<path d="M14.5976 17.3172L14.173 17.1607H14.173L14.5976 17.3172ZM15.0193 16.5462L15.3845 16.2789L15.0272 15.7908L14.6598 16.2714L15.0193 16.5462ZM14.255 18.4279L13.8198 18.3039L14.255 18.4279ZM13.2474 20.4501L13.3549 20.0105L13.3259 20.0034L13.2963 20.0002L13.2474 20.4501ZM12.9385 17.3866L13.3658 17.5356L13.3683 17.5286L13.3705 17.5216L12.9385 17.3866ZM12.9385 17.3866L12.5112 17.2376L12.5088 17.2445L12.5066 17.2516L12.9385 17.3866ZM13.1164 16.8497L13.5518 16.973L13.1164 16.8497ZM13.2092 16.5051L12.7717 16.3893L12.7714 16.3904L13.2092 16.5051ZM13.2092 16.505L13.6467 16.6208L13.647 16.6197L13.2092 16.505ZM14.4064 14.7102L14.6157 15.1115L14.6157 15.1115L14.4064 14.7102ZM14.5049 14.6624L14.6896 15.0756L14.9085 14.9777L14.9505 14.7416L14.5049 14.6624ZM15.7736 13.3172L15.5743 12.9109V12.9109L15.7736 13.3172ZM18.163 15.3128L17.7144 15.3721L17.7514 15.652L18.0191 15.7418L18.163 15.3128ZM20.6188 18.5389L21.0269 18.3434L20.6188 18.5389ZM21.2113 19.6876L21.595 19.4476V19.4476L21.2113 19.6876ZM22.9243 22.0262L23.3009 21.7752L23.2903 21.7593L23.2785 21.7445L22.9243 22.0262ZM22.9244 22.0262L22.5478 22.2772L22.5587 22.2936L22.571 22.3089L22.9244 22.0262ZM22.9244 22.0262L23.2785 21.7445L23.2777 21.7435L22.9244 22.0262ZM23.6954 23.0486L23.3108 23.287V23.287L23.6954 23.0486ZM22.3538 24.6078L22.3012 25.0573L22.3538 24.6078ZM20.6382 22.6306L20.2678 22.8906L20.6382 22.6306ZM19.4363 21.0433L19.7644 20.7317H19.7644L19.4363 21.0433ZM18.6053 20.3371L18.3228 20.6907L18.3228 20.6907L18.6053 20.3371ZM15.8742 17.2595L16.3136 17.1512L16.2582 16.9261L16.043 16.8396L15.8742 17.2595ZM15.0222 17.4737C15.1256 17.1931 15.2527 16.9862 15.3789 16.8211L14.6598 16.2714C14.4861 16.4987 14.3117 16.7843 14.173 17.1607L15.0222 17.4737ZM14.6902 18.552C14.807 18.1423 14.9147 17.7654 15.0222 17.4737L14.173 17.1607C14.0511 17.4914 13.9335 17.905 13.8198 18.3039L14.6902 18.552ZM13.14 20.8897C13.4854 20.9741 13.7408 20.7728 13.8757 20.6169C14.0134 20.4579 14.1213 20.2459 14.2089 20.0392C14.3869 19.6189 14.546 19.0581 14.6902 18.552L13.8198 18.3039C13.6702 18.829 13.527 19.3285 13.3755 19.6861C13.2983 19.8684 13.2346 19.9747 13.1915 20.0245C13.1456 20.0775 13.211 19.9754 13.3549 20.0105L13.14 20.8897ZM12.5112 17.2376C12.324 17.7744 12.0443 18.5664 11.999 19.2495C11.9763 19.5918 12.0065 19.9735 12.1944 20.2948C12.3992 20.645 12.7476 20.8511 13.1986 20.9L13.2963 20.0002C13.0838 19.9772 13.0135 19.9026 12.9757 19.8379C12.9209 19.7442 12.8844 19.5766 12.9021 19.3094C12.9376 18.7733 13.167 18.1056 13.3658 17.5356L12.5112 17.2376ZM12.5066 17.2516L12.5066 17.2516L13.3705 17.5216L13.3705 17.5216L12.5066 17.2516ZM12.681 16.7264C12.6451 16.8532 12.5861 17.0228 12.5112 17.2376L13.3658 17.5356C13.4372 17.3309 13.5068 17.1318 13.5518 16.973L12.681 16.7264ZM12.7714 16.3904C12.7419 16.503 12.7129 16.6137 12.681 16.7264L13.5518 16.973C13.5866 16.8503 13.6178 16.7311 13.647 16.6197L12.7714 16.3904ZM12.7717 16.3892L12.7717 16.3893L13.6467 16.6209L13.6467 16.6208L12.7717 16.3892ZM14.1972 14.309C13.7011 14.5677 13.3849 14.892 13.1707 15.2719C12.967 15.6331 12.8655 16.0313 12.7714 16.3904L13.647 16.6197C13.7472 16.2371 13.8231 15.9575 13.959 15.7164C14.0843 15.4943 14.2696 15.292 14.6157 15.1115L14.1972 14.309ZM14.3202 14.2493C14.2795 14.2675 14.2385 14.2874 14.1972 14.309L14.6157 15.1115C14.6419 15.0978 14.6665 15.0859 14.6896 15.0756L14.3202 14.2493ZM14.9505 14.7416C14.9972 14.4788 15.0832 14.3259 15.2137 14.1967C15.3623 14.0496 15.5898 13.9114 15.9729 13.7235L15.5743 12.9109C15.1852 13.1017 14.8392 13.2938 14.5769 13.5535C14.2966 13.8311 14.1343 14.1615 14.0594 14.5833L14.9505 14.7416ZM15.9729 13.7235C15.9907 13.7147 16.0794 13.6905 16.2703 13.7495C16.4498 13.805 16.6643 13.9185 16.8778 14.0847C17.3146 14.4248 17.6532 14.9087 17.7144 15.3721L18.6117 15.2535C18.5089 14.4761 17.9847 13.7995 17.4338 13.3705C17.1533 13.1522 16.8427 12.9791 16.5376 12.8848C16.2438 12.794 15.8884 12.7569 15.5743 12.9109L15.9729 13.7235ZM21.0269 18.3434C20.7286 17.7205 20.3724 16.9748 19.9483 16.3395C19.5322 15.716 18.9979 15.1156 18.307 14.8838L18.0191 15.7418C18.4132 15.8741 18.8057 16.2579 19.1955 16.8419C19.5775 17.4142 19.9066 18.0995 20.2107 18.7343L21.0269 18.3434ZM21.595 19.4476C21.4309 19.1853 21.2479 18.8048 21.0269 18.3434L20.2107 18.7343C20.4229 19.1776 20.6303 19.6121 20.8277 19.9276L21.595 19.4476ZM23.2785 21.7445C22.7598 21.0925 22.1217 20.2897 21.595 19.4476L20.8277 19.9276C21.3858 20.8198 22.0558 21.6613 22.5702 22.3079L23.2785 21.7445ZM23.3009 21.7752L23.3009 21.7752L22.5478 22.2772L22.5478 22.2772L23.3009 21.7752ZM23.2777 21.7435L23.2777 21.7435L22.571 22.3089L22.571 22.3089L23.2777 21.7435ZM24.08 22.8101C23.9128 22.5405 23.6104 22.1616 23.2785 21.7445L22.5702 22.3079C22.9197 22.7472 23.1789 23.0743 23.3108 23.287L24.08 22.8101ZM22.3012 25.0573C22.5587 25.0874 22.8306 25.0157 23.0583 24.917C23.295 24.8144 23.5335 24.6615 23.7338 24.4736C23.9316 24.2882 24.1153 24.0466 24.203 23.7601C24.2954 23.4584 24.2742 23.1233 24.08 22.8101L23.3108 23.287C23.356 23.3599 23.3602 23.4214 23.3376 23.4952C23.3104 23.5842 23.2388 23.6971 23.1147 23.8135C22.9931 23.9275 22.8431 24.0239 22.6984 24.0866C22.5447 24.1532 22.4423 24.1626 22.4064 24.1584L22.3012 25.0573ZM20.2678 22.8906C20.6021 23.3668 20.9518 23.8653 21.264 24.2493C21.4197 24.4409 21.5769 24.6176 21.7275 24.7529C21.8574 24.8697 22.0594 25.029 22.3012 25.0573L22.4064 24.1584C22.4698 24.1658 22.4524 24.1876 22.3326 24.0799C22.2334 23.9907 22.1105 23.8558 21.9662 23.6784C21.6785 23.3245 21.3488 22.8553 21.0086 22.3706L20.2678 22.8906ZM19.1081 21.3549C19.4158 21.679 19.824 22.2584 20.2678 22.8906L21.0086 22.3706C20.5829 21.7642 20.1296 21.1164 19.7644 20.7317L19.1081 21.3549ZM18.3228 20.6907C18.6978 20.9903 18.9688 21.2082 19.1081 21.3549L19.7644 20.7317C19.5711 20.5281 19.2367 20.2624 18.8878 19.9836L18.3228 20.6907ZM15.4348 17.3677C15.6029 18.0502 16.1109 18.693 16.6452 19.2342C17.1902 19.7863 17.8255 20.2932 18.3228 20.6907L18.8878 19.9836C18.3837 19.5808 17.7907 19.1063 17.2892 18.5984C16.777 18.0795 16.4201 17.5836 16.3136 17.1512L15.4348 17.3677ZM16.043 16.8396C15.8099 16.7459 15.5815 16.5481 15.3845 16.2789L14.6542 16.8135C14.9133 17.1675 15.2652 17.5023 15.7054 17.6793L16.043 16.8396Z" fill="black"/>
<path d="M15.6672 15.5698C15.7477 16.0375 15.0045 16.2122 14.5973 17.3171C14.1901 18.4221 13.8083 20.5872 13.2471 20.4501C11.6686 20.2788 12.8621 17.7466 13.1161 16.8496C13.3701 15.9526 13.4368 15.2158 14.4061 14.7102C15.3755 14.2046 15.5867 15.1021 15.6672 15.5698Z" fill="#CAC9C9" stroke="black" stroke-width="0.45253"/>
<path d="M22.3535 24.6078C21.7666 24.5391 20.2945 21.9475 19.436 21.0433C18.5775 20.1391 14.0847 17.4574 16.5684 15.6622C19.0522 13.8669 20.3108 18.2484 21.211 19.6875C22.1112 21.1267 23.3189 22.4418 23.6951 23.0485C24.174 23.8208 22.9404 24.6765 22.3535 24.6078Z" fill="#CAC9C9" stroke="black" stroke-width="0.45253"/>
<path d="M14.4639 15.0466C14.5109 14.0704 14.8705 13.7599 15.7733 13.3172C16.676 12.8745 19.239 15.0317 17.6897 16.6568C15.8561 18.5802 14.4169 16.0229 14.4639 15.0466Z" fill="#CAC9C9" stroke="black" stroke-width="0.45253"/>
<path fill-rule="evenodd" clip-rule="evenodd" d="M24.3192 9.60459C24.6749 9.5194 24.8329 9.49852 25.6119 9.81066C26.3908 10.1228 28.1052 11.0033 27.9456 11.4903C27.731 12.5001 26.7372 12.1416 25.9764 11.812C26.0082 12.2779 25.9333 12.7677 25.7274 13.1782C26.399 13.8766 26.2586 15.2851 26.1409 16.4651C26.0944 16.9317 26.0514 17.3626 26.0636 17.6996C26.0985 18.6615 26.2854 19.5688 26.4327 20.2843C26.5294 20.754 26.6091 21.1411 26.6177 21.4067C26.6451 22.2598 24.9751 22.66 24.5062 22.1641C24.1817 21.8209 23.928 20.4832 23.7065 19.3158C23.6079 18.7961 23.5158 18.3101 23.4266 17.9607C23.3771 17.7669 23.2764 17.4976 23.1586 17.1826L23.1586 17.1826C22.779 16.168 22.2221 14.6791 22.6294 13.709C21.6465 12.8443 22.3734 10.9786 22.9892 10.4728C23.3687 10.1611 23.6585 9.93315 23.9743 9.85903C24.0863 9.72696 24.2131 9.62999 24.3192 9.60459Z" fill="white"/>
<path d="M25.6119 9.81066L25.7802 9.39061L25.6119 9.81066ZM24.3192 9.60459L24.4246 10.0447V10.0447L24.3192 9.60459ZM27.9456 11.4903L27.5156 11.3494L27.508 11.3725L27.5029 11.3963L27.9456 11.4903ZM25.9764 11.812L26.1563 11.3967L25.4743 11.1012L25.5249 11.8428L25.9764 11.812ZM25.7274 13.1782L25.3229 12.9753L25.1795 13.2612L25.4012 13.4918L25.7274 13.1782ZM26.1409 16.4651L26.5912 16.51L26.1409 16.4651ZM26.0636 17.6996L26.5159 17.6832L26.0636 17.6996ZM26.4327 20.2843L26.8759 20.1931V20.1931L26.4327 20.2843ZM26.6177 21.4067L27.07 21.3922L26.6177 21.4067ZM24.5062 22.1641L24.835 21.8532V21.8532L24.5062 22.1641ZM23.7065 19.3158L24.1511 19.2314V19.2314L23.7065 19.3158ZM23.4266 17.9607L23.8651 17.8488L23.4266 17.9607ZM23.1586 17.1826L22.7293 17.3257L22.7319 17.3334L22.7347 17.3411L23.1586 17.1826ZM23.1586 17.1826L23.5879 17.0395L23.5853 17.0317L23.5824 17.024L23.1586 17.1826ZM22.6294 13.709L23.0467 13.8842L23.1726 13.5842L22.9283 13.3693L22.6294 13.709ZM22.9892 10.4728L22.702 10.1231L22.9892 10.4728ZM23.9743 9.85903L24.0777 10.2996L24.2229 10.2655L24.3194 10.1517L23.9743 9.85903ZM25.7802 9.39061C25.388 9.23343 25.1074 9.14079 24.8641 9.10974C24.5967 9.0756 24.4008 9.11971 24.2138 9.16451L24.4246 10.0447C24.5933 10.0043 24.6542 9.99535 24.7495 10.0075C24.8689 10.0228 25.0568 10.0758 25.4435 10.2307L25.7802 9.39061ZM28.3756 11.6313C28.4425 11.4273 28.3973 11.2379 28.3335 11.1005C28.271 10.9659 28.1769 10.8489 28.0834 10.7521C27.8957 10.5576 27.6365 10.3694 27.3726 10.2025C26.8391 9.86511 26.1904 9.55497 25.7802 9.39061L25.4435 10.2307C25.8123 10.3785 26.4102 10.6647 26.8888 10.9674C27.1309 11.1205 27.319 11.2633 27.4322 11.3806C27.4892 11.4397 27.5089 11.4738 27.5127 11.4818C27.5151 11.487 27.4886 11.4317 27.5156 11.3494L28.3756 11.6313ZM25.7965 12.2272C26.1658 12.3872 26.6853 12.6 27.1602 12.6059C27.4107 12.609 27.6888 12.5559 27.929 12.3726C28.1719 12.1871 28.3185 11.9123 28.3882 11.5844L27.5029 11.3963C27.4653 11.5733 27.4072 11.6323 27.3798 11.6532C27.3494 11.6764 27.2913 11.7024 27.1714 11.7009C26.9056 11.6976 26.5478 11.5664 26.1563 11.3967L25.7965 12.2272ZM25.5249 11.8428C25.5524 12.2447 25.4857 12.6507 25.3229 12.9753L26.1319 13.381C26.3809 12.8846 26.4641 12.3111 26.4279 11.7811L25.5249 11.8428ZM26.5912 16.51C26.6492 15.9279 26.7185 15.2439 26.6819 14.6148C26.6459 13.9952 26.5036 13.3324 26.0536 12.8645L25.4012 13.4918C25.6229 13.7223 25.7461 14.113 25.7784 14.6673C25.81 15.212 25.7502 15.8223 25.6906 16.4201L26.5912 16.51ZM26.5159 17.6832C26.505 17.3838 26.5435 16.9879 26.5912 16.51L25.6906 16.4201C25.6452 16.8755 25.5978 17.3413 25.6114 17.7161L26.5159 17.6832ZM26.8759 20.1931C26.7279 19.4744 26.5492 18.6021 26.5159 17.6832L25.6114 17.7161C25.6479 18.7209 25.8428 19.6632 25.9895 20.3756L26.8759 20.1931ZM27.07 21.3922C27.0599 21.078 26.9688 20.644 26.8759 20.1931L25.9895 20.3756C26.0901 20.8641 26.1584 21.2042 26.1654 21.4213L27.07 21.3922ZM24.1774 22.475C24.4032 22.7138 24.7246 22.8024 24.9994 22.8258C25.286 22.8502 25.596 22.8111 25.8805 22.724C26.1633 22.6374 26.4511 22.4941 26.6744 22.2851C26.9019 22.0723 27.0821 21.7693 27.07 21.3922L26.1654 21.4213C26.167 21.4706 26.1487 21.5376 26.0561 21.6242C25.9594 21.7147 25.8055 21.8004 25.6156 21.8586C25.4274 21.9162 25.2337 21.9374 25.0761 21.924C24.9068 21.9096 24.8436 21.8623 24.835 21.8532L24.1774 22.475ZM23.2619 19.4001C23.372 19.9802 23.4933 20.6206 23.6289 21.1594C23.6967 21.4289 23.7707 21.6838 23.8524 21.8991C23.9291 22.1009 24.0313 22.3205 24.1774 22.475L24.835 21.8532C24.8188 21.836 24.7677 21.7598 24.6985 21.5778C24.6346 21.4092 24.5704 21.1924 24.5066 20.9386C24.3788 20.4309 24.2625 19.8187 24.1511 19.2314L23.2619 19.4001ZM22.9881 18.0726C23.073 18.4051 23.1623 18.8747 23.2619 19.4001L24.1511 19.2314C24.0536 18.7174 23.9586 18.2151 23.8651 17.8488L22.9881 18.0726ZM22.7347 17.3411C22.8565 17.6667 22.9462 17.9083 22.9881 18.0726L23.8651 17.8488C23.8081 17.6254 23.6963 17.3284 23.5824 17.024L22.7347 17.3411ZM22.7293 17.3257L22.7293 17.3257L23.5879 17.0395L23.5879 17.0395L22.7293 17.3257ZM22.2122 13.5338C21.9529 14.1514 22.0158 14.8812 22.1569 15.5259C22.3007 16.1828 22.5468 16.8386 22.7347 17.3411L23.5824 17.024C23.3909 16.5119 23.1687 15.9159 23.041 15.3323C22.9106 14.7364 22.8987 14.2367 23.0467 13.8842L22.2122 13.5338ZM22.9283 13.3693C22.6176 13.0959 22.5308 12.6215 22.6524 12.0506C22.7109 11.7759 22.8133 11.5084 22.9336 11.2843C23.0572 11.0544 23.1844 10.8981 23.2764 10.8225L22.702 10.1231C22.4862 10.3003 22.2916 10.567 22.1363 10.8561C21.9779 11.1511 21.8445 11.4989 21.7672 11.862C21.6171 12.5665 21.6583 13.4574 22.3305 14.0488L22.9283 13.3693ZM23.2764 10.8225C23.6778 10.4929 23.8842 10.345 24.0777 10.2996L23.8709 9.41847C23.4329 9.52128 23.0597 9.82935 22.702 10.1231L23.2764 10.8225ZM24.2138 9.16451C23.9668 9.22366 23.7619 9.40978 23.6291 9.56635L24.3194 10.1517C24.3573 10.107 24.3925 10.0747 24.4193 10.0547C24.4324 10.045 24.4407 10.0402 24.4437 10.0387C24.4472 10.0369 24.4406 10.0408 24.4246 10.0447L24.2138 9.16451Z" fill="black"/>
<path d="M24.3192 9.60459C24.6749 9.5194 24.833 9.49852 25.6119 9.81067C26.3908 10.1228 28.1052 11.0033 27.9456 11.4903C27.656 12.8529 25.9476 11.7241 25.3074 11.5365C24.6672 11.3489 24.304 11.1506 23.8949 10.8994C23.3742 10.5797 23.9635 9.68978 24.3192 9.60459Z" fill="#CAC9C9" stroke="black" stroke-width="0.45253"/>
<path d="M24.5063 22.164C24.0374 21.6681 23.7161 19.095 23.4267 17.9607C23.1372 16.8263 21.0927 13.1096 24.137 12.7634C27.1814 12.4172 26.0059 16.1063 26.0637 17.6996C26.1215 19.2929 26.5962 20.7365 26.6178 21.4067C26.6452 22.2597 24.9752 22.66 24.5063 22.164Z" fill="#CAC9C9" stroke="black" stroke-width="0.45253"/>
<path d="M22.9893 10.4727C23.7888 9.81611 24.1903 9.53096 25.2751 10.2735C26.3599 11.0161 26.387 14.2166 24.013 14.153C21.2032 14.0777 22.1898 11.1293 22.9893 10.4727Z" fill="#CAC9C9" stroke="black" stroke-width="0.45253"/>
<path fill-rule="evenodd" clip-rule="evenodd" d="M30.9912 9.71986C31.2916 9.47508 31.4338 9.38122 32.3494 9.28335C33.2651 9.18548 35.3804 9.14011 35.4777 9.64428C35.8166 10.711 34.4571 10.8137 33.5308 10.8837C33.2974 10.9013 33.0915 10.9169 32.9472 10.9453C32.9032 10.9539 32.8602 10.9621 32.8181 10.9697C32.9688 11.4174 32.7019 11.9309 32.4809 12.3561C32.4421 12.4308 32.4047 12.5028 32.3712 12.5712C32.0786 13.1693 31.9704 13.2939 31.6844 13.623C31.6095 13.7092 31.5225 13.8094 31.4167 13.9359C31.3753 13.9853 31.3323 14.0287 31.2878 14.0666C31.8965 14.8251 31.2938 16.1111 30.7992 17.1662L30.7992 17.1662C30.626 17.5357 30.466 17.8769 30.376 18.1573C30.1193 18.9572 29.995 19.7568 29.897 20.3874C29.8327 20.8013 29.7797 21.1424 29.7079 21.363C29.4775 22.0715 28.0796 21.9117 27.8664 21.3674C27.7189 20.9907 27.9187 19.8182 28.0932 18.7949C28.1708 18.3394 28.2434 17.9134 28.2781 17.6004C28.2973 17.4268 28.2995 17.1762 28.302 16.8831C28.3121 15.7203 28.328 13.8879 29.438 13.5338C29.3279 13.1787 29.4287 12.6862 29.5633 12.0861C29.5965 11.938 29.6158 11.7667 29.6361 11.5874C29.7156 10.8835 29.8089 10.0571 30.8088 10.0345C30.8509 9.89704 30.9149 9.78204 30.9912 9.71986Z" fill="white"/>
<path d="M32.3494 9.28335L32.3013 8.83338L32.3494 9.28335ZM30.9912 9.71986L30.7053 9.36908L30.7053 9.36909L30.9912 9.71986ZM35.4777 9.64428L35.0334 9.73007L35.0384 9.75607L35.0464 9.7813L35.4777 9.64428ZM33.5308 10.8837L33.4967 10.4325L33.5308 10.8837ZM32.9472 10.9453L33.0345 11.3893H33.0345L32.9472 10.9453ZM32.8181 10.9697L32.7375 10.5244L32.222 10.6176L32.3892 11.114L32.8181 10.9697ZM32.4809 12.3561L32.0794 12.1474L32.0794 12.1474L32.4809 12.3561ZM32.3712 12.5712L31.9648 12.3723L31.9648 12.3723L32.3712 12.5712ZM31.6844 13.623L32.0261 13.9198V13.9198L31.6844 13.623ZM31.4167 13.9359L31.7638 14.2262L31.7638 14.2262L31.4167 13.9359ZM31.2878 14.0666L30.9946 13.7219L30.6596 14.0068L30.9349 14.3498L31.2878 14.0666ZM30.7992 17.1662L31.2041 17.3686L31.2089 17.3582L30.7992 17.1662ZM30.7992 17.1662L30.3943 16.9637L30.3894 16.9741L30.7992 17.1662ZM30.376 18.1573L30.8069 18.2956L30.376 18.1573ZM29.897 20.3874L30.3442 20.4569L29.897 20.3874ZM29.7079 21.363L29.2776 21.223L29.7079 21.363ZM27.8664 21.3674L28.2878 21.2023H28.2878L27.8664 21.3674ZM28.0932 18.7949L27.6471 18.7188H27.6471L28.0932 18.7949ZM28.2781 17.6004L28.7278 17.6503L28.2781 17.6004ZM28.302 16.8831L27.8495 16.8792L28.302 16.8831ZM29.438 13.5338L29.5756 13.9649L30.0032 13.8285L29.8703 13.3997L29.438 13.5338ZM29.5633 12.0861L30.0048 12.1851L29.5633 12.0861ZM29.6361 11.5874L29.1864 11.5366L29.6361 11.5874ZM30.8088 10.0345L30.819 10.487L31.1458 10.4796L31.2415 10.1671L30.8088 10.0345ZM32.3013 8.83338C31.8411 8.88257 31.5305 8.93442 31.2888 9.01985C31.0244 9.11332 30.8638 9.2399 30.7053 9.36908L31.2771 10.0706C31.419 9.95504 31.4797 9.9123 31.5904 9.87317C31.7238 9.82601 31.9421 9.78199 32.3975 9.73332L32.3013 8.83338ZM35.9221 9.5585C35.8789 9.33479 35.7316 9.19018 35.6071 9.10564C35.4826 9.02107 35.3375 8.96561 35.2018 8.92654C34.9279 8.84773 34.5869 8.80676 34.2476 8.78634C33.5627 8.74512 32.7793 8.78229 32.3013 8.83338L32.3975 9.73332C32.8352 9.68654 33.5673 9.65209 34.1933 9.68976C34.5094 9.70879 34.7728 9.74489 34.9515 9.79631C35.042 9.82236 35.0853 9.84532 35.0987 9.85438C35.1121 9.86348 35.0523 9.82774 35.0334 9.73007L35.9221 9.5585ZM33.5649 11.3349C34.0059 11.3016 34.6564 11.257 35.1489 11.0571C35.4015 10.9546 35.6719 10.7888 35.8371 10.5071C36.0118 10.2092 36.0222 9.8636 35.909 9.50727L35.0464 9.7813C35.1027 9.95834 35.0703 10.0256 35.0564 10.0492C35.0331 10.089 34.9692 10.1533 34.8085 10.2185C34.4745 10.3541 33.982 10.3958 33.4967 10.4325L33.5649 11.3349ZM33.0345 11.3893C33.146 11.3674 33.3197 11.3535 33.5649 11.3349L33.4967 10.4325C33.2751 10.4492 33.0369 10.4664 32.8598 10.5013L33.0345 11.3893ZM32.8986 11.415C32.943 11.4069 32.9883 11.3984 33.0345 11.3893L32.8598 10.5013C32.818 10.5095 32.7773 10.5172 32.7375 10.5244L32.8986 11.415ZM32.3892 11.114C32.4212 11.2091 32.4189 11.3415 32.3576 11.5343C32.2959 11.7282 32.1933 11.9283 32.0794 12.1474L32.8825 12.5648C32.9895 12.3588 33.1308 12.0895 33.2201 11.8085C33.3099 11.5262 33.3657 11.178 33.2469 10.8253L32.3892 11.114ZM32.0794 12.1474C32.0411 12.221 32.0011 12.2981 31.9648 12.3723L32.7777 12.7701C32.8083 12.7075 32.8431 12.6406 32.8825 12.5648L32.0794 12.1474ZM31.9648 12.3723C31.8216 12.6648 31.7322 12.8235 31.6504 12.9446C31.5688 13.0653 31.4884 13.1586 31.3428 13.3262L32.0261 13.9198C32.1664 13.7583 32.2831 13.6248 32.4002 13.4514C32.5172 13.2784 32.6282 13.0757 32.7777 12.7701L31.9648 12.3723ZM31.3428 13.3262C31.2678 13.4126 31.1783 13.5156 31.0696 13.6455L31.7638 14.2262C31.8666 14.1033 31.9513 14.0059 32.0261 13.9198L31.3428 13.3262ZM31.0696 13.6455C31.0439 13.6763 31.0187 13.7013 30.9946 13.7219L31.581 14.4112C31.6458 14.3561 31.7068 14.2944 31.7638 14.2262L31.0696 13.6455ZM31.2089 17.3582C31.4516 16.8405 31.7473 16.2136 31.8964 15.6145C32.0433 15.0239 32.0806 14.3315 31.6408 13.7833L30.9349 14.3498C31.1037 14.5602 31.144 14.89 31.0181 15.3959C30.8944 15.8931 30.6413 16.4367 30.3894 16.9741L31.2089 17.3582ZM31.2039 17.3686L31.2039 17.3686L30.3944 16.9638L30.3944 16.9638L31.2039 17.3686ZM30.8069 18.2956C30.8861 18.049 31.0312 17.7374 31.2089 17.3583L30.3894 16.9741C30.2207 17.3341 30.046 17.7049 29.9452 18.019L30.8069 18.2956ZM30.3442 20.4569C30.4426 19.8233 30.5625 19.0571 30.8069 18.2956L29.9452 18.019C29.6761 18.8573 29.5474 19.6903 29.4499 20.3179L30.3442 20.4569ZM30.1383 21.503C30.2241 21.2391 30.2826 20.8531 30.3442 20.4569L29.4499 20.3179C29.3828 20.7496 29.3352 21.0458 29.2776 21.223L30.1383 21.503ZM27.4451 21.5324C27.5558 21.8152 27.7947 21.9959 28.013 22.1025C28.2395 22.2132 28.5028 22.2747 28.759 22.287C29.2197 22.3091 29.9236 22.163 30.1383 21.503L29.2776 21.223C29.2618 21.2715 29.1516 21.3997 28.8024 21.383C28.6537 21.3758 28.5132 21.3396 28.4104 21.2894C28.2994 21.2351 28.2836 21.1917 28.2878 21.2023L27.4451 21.5324ZM27.6471 18.7188C27.5604 19.2271 27.4645 19.7893 27.4094 20.2724C27.3819 20.514 27.3634 20.7462 27.3626 20.9486C27.3618 21.1365 27.375 21.3537 27.4451 21.5324L28.2878 21.2023C28.2886 21.2043 28.2818 21.1864 28.276 21.1374C28.2705 21.0909 28.2673 21.0296 28.2676 20.9522C28.2682 20.7969 28.2829 20.6014 28.3087 20.3748C28.3603 19.9216 28.4515 19.3859 28.5393 18.8709L27.6471 18.7188ZM27.8283 17.5506C27.7954 17.8473 27.7256 18.258 27.6471 18.7188L28.5393 18.8709C28.616 18.4207 28.6914 17.9795 28.7278 17.6503L27.8283 17.5506ZM27.8495 16.8792C27.8469 17.1829 27.8443 17.4055 27.8283 17.5506L28.7278 17.6503C28.7502 17.4481 28.7521 17.1696 28.7545 16.8871L27.8495 16.8792ZM29.3005 13.1027C28.5019 13.3574 28.1676 14.124 28.0158 14.807C27.8596 15.5095 27.8545 16.3075 27.8495 16.8792L28.7545 16.8871C28.7597 16.2959 28.7675 15.5963 28.8993 15.0034C29.0355 14.3909 29.2641 14.0643 29.5756 13.9649L29.3005 13.1027ZM29.8703 13.3997C29.8426 13.3107 29.833 13.1722 29.8584 12.9542C29.8835 12.7388 29.9369 12.4881 30.0048 12.1851L29.1217 11.9871C29.0551 12.2842 28.9908 12.5798 28.9594 12.8495C28.9283 13.1165 28.9233 13.4018 29.0058 13.6678L29.8703 13.3997ZM30.0048 12.1851C30.0445 12.0084 30.0662 11.8108 30.0857 11.6381L29.1864 11.5366C29.1654 11.7225 29.1485 11.8677 29.1217 11.9871L30.0048 12.1851ZM30.0857 11.6381C30.128 11.2637 30.1668 10.9746 30.2768 10.768C30.3251 10.6772 30.3811 10.6163 30.4501 10.5743C30.5201 10.5317 30.6321 10.4912 30.819 10.487L30.7986 9.58213C30.4855 9.58918 30.2109 9.66037 29.9797 9.8011C29.7475 9.94239 29.5877 10.1362 29.4778 10.3429C29.2712 10.731 29.2236 11.2071 29.1864 11.5366L30.0857 11.6381ZM30.7053 9.36909C30.5289 9.51292 30.4298 9.72683 30.3761 9.90203L31.2415 10.1671C31.2545 10.1247 31.2685 10.0936 31.2797 10.0741C31.2921 10.0526 31.2941 10.0568 31.2771 10.0706L30.7053 9.36909Z" fill="black"/>
<path d="M30.9905 9.71991C31.2908 9.47512 31.433 9.38126 32.3487 9.28339C33.2643 9.18553 35.3796 9.14016 35.477 9.64433C35.9012 10.9799 33.6633 10.8043 32.9464 10.9453C32.2295 11.0863 31.7752 11.0856 31.2492 11.0603C30.5797 11.0282 30.6901 9.96469 30.9905 9.71991Z" fill="#CAC9C9" stroke="black" stroke-width="0.45253"/>
<path d="M27.8657 21.3674C27.6525 20.8231 28.1648 18.6164 28.2773 17.6005C28.3898 16.5845 27.9185 12.9349 30.3537 13.5409C32.789 14.147 30.8006 16.8322 30.3753 18.1573C29.95 19.4824 29.8882 20.8064 29.7072 21.363C29.4767 22.0715 28.0789 21.9117 27.8657 21.3674Z" fill="#CAC9C9" stroke="black" stroke-width="0.45253"/>
<path d="M29.694 13.9013C29.2497 13.5672 29.3725 12.934 29.5625 12.0862C29.7526 11.2385 29.4887 9.62868 31.5381 10.1284C33.5876 10.6281 32.7398 11.8165 32.3705 12.5713C32.0012 13.3261 31.9256 13.3267 31.416 13.936C30.9064 14.5452 30.1383 14.2353 29.694 13.9013Z" fill="#CAC9C9" stroke="black" stroke-width="0.45253"/>
<path d="M33.3983 12.468C30.3696 14.8923 29.1421 19.0324 29.5336 21.9383C29.9252 24.8442 32.6685 26.5733 34.9835 27.0489C37.2984 27.5244 40.5506 26.309 43.2209 24.24C45.3962 22.5547 46.5178 19.5698 46.9183 17.3671C47.3187 15.1645 45.2796 12.045 42.3647 11.0159C39.4499 9.98679 36.427 10.0436 33.3983 12.468Z" fill="#CAC9C9" stroke="black" stroke-width="1.08029"/>
<path d="M38.9753 22.0482C38.9753 22.0482 34.4204 23.5937 32.9613 22.7068C31.5021 21.8199 31.4147 20.4174 31.243 18.9869C31.0714 17.5564 31.4147 16.1259 31.4147 16.1259C31.4147 16.1259 30.6988 17.3845 30.2406 19.4445C29.7823 21.5044 30.5282 23.0113 30.5282 23.0113L32.588 24.2226L33.8755 26.1967C33.8755 26.1967 34.4275 26.6267 36.0932 26.1967C37.7589 25.7668 38.8251 24.5946 38.8251 24.5946C38.8251 24.5946 37.6131 25.2138 36.812 25.2996C36.0109 25.3854 34.9123 25.2996 34.9123 25.2996C34.9123 25.2996 36.6182 24.9665 37.5051 24.5946C38.3921 24.2226 39.7129 23.3999 39.7129 23.3999C39.7129 23.3999 38.2496 23.8363 37.0799 24.1187C35.9101 24.4011 34.2192 24.2226 34.2192 24.2226C34.2192 24.2226 36.3682 23.4215 37.0799 23.164C37.7916 22.9066 38.9753 22.0482 38.9753 22.0482Z" fill="#A7A7A7"/>
<path d="M24.8796 24.2778C23.3682 25.8167 22.6087 26.6725 23.0302 28.2383C23.4517 29.804 25.2122 31.1963 27.8903 33.0555C30.5683 34.9148 35.5494 30.8577 34.6839 28.4354C33.8183 26.0131 32.2591 23.8275 30.5683 23.4654C28.8776 23.1034 26.391 22.7388 24.8796 24.2778Z" fill="white" stroke="black" stroke-width="0.45253"/>
<path d="M25.6617 24.8949C24.625 26.1989 23.8238 26.7255 24.1129 28.0523C24.402 29.379 28.1445 32.0544 29.0491 32.1393C30.5471 32.2798 32.7425 32.3479 33.6097 28.9959C33.8683 27.9964 32.0838 24.984 30.9241 24.6772C29.7644 24.3705 26.6984 23.5908 25.6617 24.8949Z" fill="#A7A7A7"/>
<g filter="url(#filter2_d_1241_7163)">
<path fill-rule="evenodd" clip-rule="evenodd" d="M47.1695 26.0805C47.6056 26.319 47.9111 26.486 48.1627 26.5767C48.332 26.9456 48.5381 27.3023 48.9048 27.7559C49.0021 27.8763 49.1127 28.0621 49.2381 28.2728C49.7356 29.1087 50.4658 30.3355 51.5205 29.4154C52.0473 29.04 51.0407 27.0668 50.5164 26.2567C50.3422 25.9875 50.207 25.7988 50.0891 25.6614C50.1779 25.3827 49.9595 25.1341 49.65 24.782C49.5795 24.7018 49.5043 24.6162 49.4269 24.5236C48.9274 23.9263 48.0486 23.3057 46.6827 22.6145C45.5374 22.035 44.1559 21.6312 43.3465 22.4482C42.7335 22.6576 42.074 23.2385 41.4483 23.7894C41.1075 24.0895 40.7768 24.3808 40.4692 24.5983C40.2373 24.7623 39.9931 24.9326 39.7446 25.106C38.4967 25.9765 37.1403 26.9226 36.6965 27.5117C36.1642 28.2181 36.7137 29.0098 38.1814 28.59C39.3345 28.2601 40.9802 27.4353 42.4586 26.6825C43.2741 26.2673 44.1084 25.6914 44.6277 25.0876C44.7879 25.1639 44.9636 25.2086 45.1763 25.2628C45.5722 25.3637 46.0965 25.4973 46.8891 25.9276C46.9883 25.9814 47.0815 26.0324 47.1695 26.0805Z" fill="white"/>
<path d="M48.1627 26.5767L48.574 26.3879L48.4947 26.2153L48.3161 26.1509L48.1627 26.5767ZM47.1695 26.0805L46.9524 26.4776L46.9524 26.4776L47.1695 26.0805ZM48.9048 27.7559L49.2567 27.4715L48.9048 27.7559ZM49.2381 28.2728L49.6269 28.0413L49.6269 28.0413L49.2381 28.2728ZM51.5205 29.4154L51.2578 29.0469L51.2397 29.0598L51.223 29.0744L51.5205 29.4154ZM50.5164 26.2567L50.8963 26.0108V26.0108L50.5164 26.2567ZM50.0891 25.6614L49.6579 25.5239L49.5812 25.7645L49.7457 25.9561L50.0891 25.6614ZM49.65 24.782L49.99 24.4833V24.4833L49.65 24.782ZM49.4269 24.5236L49.7741 24.2333V24.2333L49.4269 24.5236ZM46.6827 22.6145L46.4783 23.0183L46.6827 22.6145ZM43.3465 22.4482L43.4929 22.8764L43.5933 22.842L43.668 22.7666L43.3465 22.4482ZM41.4483 23.7894L41.7474 24.129L41.4483 23.7894ZM40.4692 24.5983L40.7304 24.9678H40.7304L40.4692 24.5983ZM39.7446 25.106L40.0035 25.4771L39.7446 25.106ZM36.6965 27.5117L36.3351 27.2394H36.3351L36.6965 27.5117ZM38.1814 28.59L38.0569 28.1549H38.0569L38.1814 28.59ZM42.4586 26.6825L42.2533 26.2793V26.2793L42.4586 26.6825ZM44.6277 25.0876L44.8222 24.679L44.5101 24.5304L44.2846 24.7925L44.6277 25.0876ZM45.1763 25.2628L45.2881 24.8243L45.1763 25.2628ZM46.8891 25.9276L46.6732 26.3253H46.6732L46.8891 25.9276ZM48.3161 26.1509C48.1055 26.0751 47.8365 25.9295 47.3866 25.6835L46.9524 26.4776C47.3747 26.7085 47.7167 26.897 48.0094 27.0024L48.3161 26.1509ZM49.2567 27.4715C48.9145 27.0481 48.7281 26.7237 48.574 26.3879L47.7514 26.7654C47.936 27.1675 48.1617 27.5565 48.5528 28.0404L49.2567 27.4715ZM49.6269 28.0413C49.5088 27.8428 49.3793 27.6231 49.2567 27.4715L48.5528 28.0404C48.6249 28.1295 48.7166 28.2815 48.8492 28.5042L49.6269 28.0413ZM51.223 29.0744C51.0164 29.2546 50.8736 29.2895 50.7862 29.2901C50.6958 29.2906 50.587 29.2546 50.4501 29.1469C50.1531 28.9133 49.8886 28.481 49.6269 28.0413L48.8492 28.5042C49.085 28.9005 49.4344 29.4995 49.8906 29.8583C50.1302 30.0467 50.4328 30.1972 50.7915 30.1951C51.1533 30.193 51.4972 30.0363 51.8179 29.7564L51.223 29.0744ZM50.1365 26.5026C50.3853 26.887 50.7529 27.5559 50.9913 28.1641C51.1116 28.4714 51.188 28.7358 51.2099 28.9285C51.2366 29.1632 51.1674 29.1114 51.2578 29.0469L51.7831 29.784C52.137 29.5317 52.1395 29.0925 52.1092 28.8263C52.0742 28.5181 51.9649 28.1683 51.8339 27.834C51.5696 27.1593 51.1718 26.4365 50.8963 26.0108L50.1365 26.5026ZM49.7457 25.9561C49.8438 26.0704 49.9659 26.2391 50.1365 26.5026L50.8963 26.0108C50.7184 25.7359 50.5703 25.5272 50.4324 25.3666L49.7457 25.9561ZM49.3101 25.0807C49.4752 25.2686 49.5728 25.3824 49.628 25.4771C49.6734 25.555 49.6494 25.5506 49.6579 25.5239L50.5202 25.7989C50.6176 25.4934 50.5289 25.2254 50.4099 25.0213C50.3007 24.8341 50.1343 24.6475 49.99 24.4833L49.3101 25.0807ZM49.0798 24.8139C49.1612 24.9113 49.24 25.0009 49.3101 25.0807L49.99 24.4833C49.9191 24.4026 49.8474 24.321 49.7741 24.2333L49.0798 24.8139ZM46.4783 23.0183C47.8286 23.7015 48.6405 24.2885 49.0798 24.8139L49.7741 24.2333C49.2144 23.564 48.2687 22.9099 46.887 22.2107L46.4783 23.0183ZM43.668 22.7666C43.9395 22.4926 44.3254 22.3954 44.8343 22.4569C45.3485 22.5191 45.9259 22.7387 46.4783 23.0183L46.887 22.2107C46.2942 21.9108 45.6082 21.6388 44.9429 21.5584C44.2724 21.4773 43.5629 21.5867 43.0251 22.1297L43.668 22.7666ZM41.7474 24.129C42.063 23.8511 42.3709 23.5803 42.674 23.3525C42.9797 23.1228 43.2531 22.9583 43.4929 22.8764L43.2002 22.0199C42.827 22.1475 42.464 22.3782 42.1303 22.629C41.794 22.8817 41.4593 23.1768 41.1493 23.4498L41.7474 24.129ZM40.7304 24.9678C41.0618 24.7335 41.4119 24.4245 41.7474 24.129L41.1493 23.4498C40.8032 23.7546 40.4918 24.0281 40.2079 24.2288L40.7304 24.9678ZM40.0035 25.4771C40.2518 25.3039 40.4972 25.1327 40.7304 24.9678L40.2079 24.2288C39.9774 24.3918 39.7344 24.5613 39.4857 24.7348L40.0035 25.4771ZM37.0579 27.784C37.2371 27.5462 37.638 27.1968 38.1931 26.7745C38.7347 26.3623 39.3775 25.9137 40.0035 25.4771L39.4857 24.7348C38.8637 25.1687 38.2044 25.6285 37.645 26.0542C37.0989 26.4698 36.5998 26.888 36.3351 27.2394L37.0579 27.784ZM38.0569 28.1549C37.3802 28.3485 37.076 28.2143 36.9952 28.14C36.9625 28.1099 36.95 28.0795 36.9501 28.0383C36.9502 27.9895 36.9703 27.9003 37.0579 27.784L36.3351 27.2394C36.1566 27.4762 36.0457 27.751 36.045 28.0361C36.0443 28.3289 36.1611 28.6027 36.3827 28.8063C36.8105 29.1996 37.5148 29.2513 38.3058 29.0251L38.0569 28.1549ZM42.2533 26.2793C40.7604 27.0393 39.1586 27.8398 38.0569 28.1549L38.3058 29.0251C39.5103 28.6805 41.1999 27.8312 42.6639 27.0858L42.2533 26.2793ZM44.2846 24.7925C43.8181 25.335 43.0402 25.8786 42.2533 26.2793L42.6639 27.0858C43.5079 26.6561 44.3986 26.0479 44.9708 25.3827L44.2846 24.7925ZM45.2881 24.8243C45.0651 24.7675 44.935 24.7327 44.8222 24.679L44.4332 25.4962C44.6408 25.5951 44.862 25.6497 45.0646 25.7014L45.2881 24.8243ZM47.105 25.5299C46.2652 25.0739 45.6999 24.9292 45.2881 24.8243L45.0646 25.7014C45.4444 25.7981 45.9279 25.9206 46.6732 26.3253L47.105 25.5299ZM47.3866 25.6835C47.2987 25.6354 47.2049 25.5841 47.105 25.5299L46.6732 26.3253C46.7717 26.3788 46.8644 26.4294 46.9524 26.4776L47.3866 25.6835Z" fill="black"/>
</g>
<path d="M49.4085 25.2189C49.8212 25.3651 49.9917 25.4467 50.516 26.2568C51.0403 27.0669 52.0469 29.0401 51.5201 29.4155C50.1996 30.5674 49.3878 28.3541 48.9044 27.7561C48.421 27.158 48.2167 26.7283 48.0078 26.2171C47.7418 25.5665 48.9957 25.0728 49.4085 25.2189Z" fill="#CAC9C9" stroke="black" stroke-width="0.45253"/>
<path d="M49.5341 26.2352C48.5342 26.9063 48.4116 26.7545 46.8887 25.9276C45.3658 25.1008 44.8333 25.3695 44.2997 24.861C43.6327 24.2254 42.6011 23.8869 42.9477 23.0641C43.6142 21.4821 45.3162 21.9234 46.6822 22.6145C48.0482 23.3057 48.927 23.9263 49.4265 24.5236C50.0508 25.2703 50.534 25.5641 49.5341 26.2352Z" fill="#CAC9C9" stroke="black" stroke-width="0.45253"/>
<path d="M36.6961 27.5118C37.2284 26.8054 39.0727 25.5856 40.4688 24.5985C41.9611 23.5433 43.9962 20.7538 45.09 23.6307C45.4771 24.6489 43.9367 25.9299 42.4582 26.6827C40.9798 27.4354 39.3341 28.2603 38.181 28.5901C36.7133 29.01 36.1639 28.2182 36.6961 27.5118Z" fill="#CAC9C9" stroke="black" stroke-width="0.45253"/>
<g filter="url(#filter3_d_1241_7163)">
<path fill-rule="evenodd" clip-rule="evenodd" d="M38.6809 28.4204C36.9213 28.546 36.5024 28.9547 36.0791 29.6216C35.6558 30.2884 35.6325 31.6654 36.9022 31.8887C37.5778 32.0075 38.1797 31.9294 38.9232 31.833C39.2974 31.7844 39.7075 31.7312 40.181 31.6961C41.132 31.6256 41.593 31.6499 42.0385 31.6734C42.2555 31.6849 42.4689 31.6961 42.7334 31.6961C42.9122 31.6961 43.1104 31.6733 43.3148 31.63C43.3975 31.7542 43.4958 31.8734 43.6107 31.9865C44.2133 32.5797 45.944 33.4807 46.7341 33.8571C47.4207 34.374 47.8816 34.5894 48.2703 34.6427C48.2875 34.6742 48.3091 34.7044 48.3355 34.7329C48.7121 35.1382 49.0576 35.4654 49.7401 35.8286C49.8775 35.9017 50.0494 36.0329 50.2444 36.1816L50.2444 36.1816C51.0179 36.7719 52.1532 37.6382 52.9242 36.2439C53.3365 35.6301 51.6804 34.1588 50.8881 33.6063C50.5577 33.376 50.3305 33.2415 50.1442 33.1665C50.1246 32.9655 50.0425 32.7568 49.8763 32.5499C49.3143 31.8508 48.8433 31.3037 47.8591 30.5671C47.7816 30.5091 47.6883 30.4368 47.582 30.3545L47.582 30.3545C46.8854 29.8151 45.6304 28.8432 44.6147 28.622C44.1857 28.0814 43.5889 27.7332 42.8196 27.6876C41.8474 27.63 39.6554 28.1521 38.6809 28.4204Z" fill="white"/>
<path d="M36.0791 29.6216L35.6971 29.379H35.6971L36.0791 29.6216ZM38.6809 28.4204L38.7132 28.8717L38.7579 28.8685L38.801 28.8567L38.6809 28.4204ZM36.9022 31.8887L36.8238 32.3344H36.8238L36.9022 31.8887ZM38.9232 31.833L38.9814 32.2817L38.9232 31.833ZM40.181 31.6961L40.2145 32.1474L40.181 31.6961ZM42.0385 31.6734L42.0147 32.1253L42.0385 31.6734ZM43.3148 31.63L43.6915 31.3793L43.5214 31.1236L43.221 31.1873L43.3148 31.63ZM43.6107 31.9865L43.2933 32.309L43.2933 32.309L43.6107 31.9865ZM46.7341 33.8571L47.0062 33.4956L46.9698 33.4682L46.9287 33.4486L46.7341 33.8571ZM48.2703 34.6427L48.668 34.4267L48.5587 34.2254L48.3317 34.1943L48.2703 34.6427ZM48.3355 34.7329L48.6671 34.4249L48.6671 34.4249L48.3355 34.7329ZM49.7401 35.8286L49.9527 35.4291V35.4291L49.7401 35.8286ZM50.2444 36.1816L49.9698 36.5414L49.9728 36.5436L50.2444 36.1816ZM50.2444 36.1816L50.5189 35.8218L50.5159 35.8196L50.2444 36.1816ZM52.9242 36.2439L52.5485 35.9916L52.5376 36.0078L52.5282 36.0249L52.9242 36.2439ZM50.8881 33.6063L50.6292 33.9775L50.8881 33.6063ZM50.1442 33.1665L49.6938 33.2105L49.7205 33.4837L49.9752 33.5863L50.1442 33.1665ZM49.8763 32.5499L50.229 32.2664V32.2664L49.8763 32.5499ZM47.8591 30.5671L47.5879 30.9294L47.5879 30.9294L47.8591 30.5671ZM47.582 30.3545L47.8591 29.9967L47.8535 29.9925L47.582 30.3545ZM47.582 30.3545L47.3049 30.7123L47.3105 30.7165L47.582 30.3545ZM44.6147 28.622L44.2601 28.9033L44.3605 29.0298L44.5184 29.0642L44.6147 28.622ZM42.8196 27.6876L42.8463 27.2359L42.8196 27.6876ZM36.4612 29.8641C36.6565 29.5564 36.8157 29.3645 37.0917 29.2174C37.3862 29.0604 37.8561 28.933 38.7132 28.8717L38.6487 27.969C37.7461 28.0334 37.1267 28.1731 36.6661 28.4187C36.187 28.674 35.9251 29.0198 35.6971 29.379L36.4612 29.8641ZM36.9806 31.443C36.7451 31.4016 36.5965 31.3128 36.4995 31.2151C36.4003 31.1153 36.3326 30.9833 36.2978 30.8244C36.2245 30.4907 36.3106 30.1012 36.4612 29.8641L35.6971 29.379C35.4243 29.8088 35.2871 30.4412 35.4138 31.0185C35.4789 31.3151 35.617 31.6109 35.8573 31.8529C36.0998 32.097 36.4244 32.2641 36.8238 32.3344L36.9806 31.443ZM38.8649 31.3842C38.1117 31.4819 37.5776 31.548 36.9806 31.443L36.8238 32.3344C37.5781 32.467 38.2476 32.3769 38.9814 32.2817L38.8649 31.3842ZM40.1476 31.2448C39.6602 31.2809 39.2387 31.3357 38.8649 31.3842L38.9814 32.2817C39.3561 32.2331 39.7549 32.1815 40.2145 32.1474L40.1476 31.2448ZM42.0623 31.2215C41.6052 31.1974 41.1238 31.1724 40.1476 31.2448L40.2145 32.1474C41.1402 32.0788 41.5808 32.1024 42.0147 32.1253L42.0623 31.2215ZM42.7334 31.2436C42.4821 31.2436 42.2795 31.233 42.0623 31.2215L42.0147 32.1253C42.2316 32.1368 42.4557 32.1486 42.7334 32.1486V31.2436ZM43.221 31.1873C43.0418 31.2253 42.8754 31.2436 42.7334 31.2436V32.1486C42.949 32.1486 43.179 32.1214 43.4086 32.0727L43.221 31.1873ZM43.9282 31.664C43.8347 31.572 43.7564 31.4767 43.6915 31.3793L42.9381 31.8807C43.0386 32.0318 43.157 32.1749 43.2933 32.309L43.9282 31.664ZM46.9287 33.4486C46.542 33.2643 45.9219 32.9501 45.3265 32.6102C44.7164 32.2618 44.1822 31.914 43.9282 31.664L43.2933 32.309C43.6419 32.6522 44.2744 33.0516 44.8777 33.3961C45.4958 33.749 46.1362 34.0735 46.5395 34.2656L46.9287 33.4486ZM48.3317 34.1943C48.0587 34.1569 47.6732 33.9976 47.0062 33.4956L46.4619 34.2187C47.1682 34.7503 47.7046 35.0219 48.2089 35.091L48.3317 34.1943ZM48.6671 34.4249C48.6657 34.4234 48.6665 34.424 48.668 34.4267L47.8726 34.8586C47.9084 34.9245 47.9525 34.9854 48.004 35.0409L48.6671 34.4249ZM49.9527 35.4291C49.3281 35.0967 49.0215 34.8064 48.6671 34.4249L48.004 35.0409C48.4027 35.4699 48.7871 35.8341 49.5275 36.2281L49.9527 35.4291ZM50.5189 35.8218C50.3367 35.6828 50.1305 35.5237 49.9527 35.4291L49.5275 36.2281C49.6245 36.2796 49.7622 36.3829 49.9699 36.5414L50.5189 35.8218ZM50.5159 35.8196L50.5159 35.8196L49.9728 36.5436L49.9729 36.5436L50.5159 35.8196ZM52.5282 36.0249C52.367 36.3165 52.2139 36.4412 52.0981 36.4951C51.9858 36.5473 51.8569 36.5573 51.6923 36.5173C51.3259 36.4281 50.9273 36.1335 50.5189 35.8219L49.9699 36.5414C50.335 36.82 50.8909 37.2537 51.4782 37.3966C51.7905 37.4727 52.1383 37.4747 52.48 37.3156C52.818 37.1583 53.096 36.8685 53.3202 36.4629L52.5282 36.0249ZM50.6292 33.9775C51.0024 34.2377 51.587 34.7213 52.0213 35.2046C52.2405 35.4486 52.3999 35.669 52.482 35.8433C52.5736 36.0379 52.513 36.0446 52.5485 35.9916L53.2999 36.4962C53.5416 36.1363 53.4285 35.729 53.3008 35.4578C53.1636 35.1663 52.9367 34.8693 52.6945 34.5997C52.2057 34.0557 51.5661 33.5274 51.1469 33.2351L50.6292 33.9775ZM49.9752 33.5863C50.1119 33.6413 50.3046 33.7512 50.6292 33.9775L51.1469 33.2351C50.8108 33.0008 50.5491 32.8417 50.3132 32.7467L49.9752 33.5863ZM49.5236 32.8334C49.6402 32.9786 49.6836 33.1056 49.6938 33.2105L50.5946 33.1225C50.5655 32.8254 50.4448 32.5349 50.229 32.2664L49.5236 32.8334ZM47.5879 30.9294C48.5306 31.6349 48.9746 32.1506 49.5236 32.8334L50.229 32.2664C49.654 31.5511 49.1561 30.9726 48.1302 30.2048L47.5879 30.9294ZM47.3049 30.7123C47.4102 30.7939 47.5068 30.8687 47.5879 30.9294L48.1302 30.2048C48.0564 30.1495 47.9664 30.0798 47.8591 29.9967L47.3049 30.7123ZM47.3105 30.7165L47.3105 30.7165L47.8535 29.9925L47.8535 29.9925L47.3105 30.7165ZM44.5184 29.0642C44.9452 29.1571 45.4576 29.4193 45.974 29.75C46.4824 30.0756 46.9553 30.4416 47.3049 30.7123L47.8591 29.9967C47.512 29.728 47.0092 29.3383 46.4621 28.9878C45.9229 28.6425 45.2999 28.3081 44.7109 28.1798L44.5184 29.0642ZM42.7928 28.1394C43.4255 28.1768 43.906 28.4569 44.2601 28.9033L44.9692 28.3407C44.4655 27.7059 43.7524 27.2896 42.8463 27.2359L42.7928 28.1394ZM38.801 28.8567C39.2796 28.7249 40.0604 28.5301 40.8391 28.3757C41.6343 28.2181 42.3721 28.1144 42.7928 28.1394L42.8463 27.2359C42.2949 27.2032 41.4506 27.3318 40.6631 27.4879C39.8592 27.6473 39.0568 27.8475 38.5608 27.9841L38.801 28.8567Z" fill="black"/>
</g>
<path d="M49.4312 33.1011C49.8963 33.0529 50.0953 33.0539 50.8877 33.6064C51.68 34.1589 53.3361 35.6302 52.9238 36.244C51.9585 37.9896 50.4222 36.1918 49.7397 35.8286C49.0572 35.4655 48.7117 35.1382 48.3351 34.7329C47.8559 34.2171 48.9661 33.1493 49.4312 33.1011Z" fill="#CAC9C9" stroke="black" stroke-width="0.45253"/>
<path d="M49.1199 34.5373C48.4626 34.7423 47.9556 34.7769 46.7337 33.8571C45.9437 33.4808 44.213 32.5798 43.6104 31.9866C42.8571 31.2451 42.8163 30.2437 43.2277 29.2628C44.0189 27.3768 46.9735 29.9046 47.8587 30.5671C48.8429 31.3038 49.3139 31.8509 49.8759 32.55C50.5783 33.4238 49.7772 34.3324 49.1199 34.5373Z" fill="#CAC9C9" stroke="black" stroke-width="0.45253"/>
<path d="M36.0788 29.6216C36.5021 28.9547 36.9209 28.5461 38.6806 28.4204C39.655 28.1521 41.847 27.63 42.8192 27.6876C44.0345 27.7596 44.8192 28.5867 45.1918 29.7343C45.5644 30.882 43.8018 31.6961 42.7331 31.6961C41.9255 31.6961 41.5949 31.5913 40.1807 31.6961C38.7664 31.801 37.9176 32.0673 36.9018 31.8887C35.6321 31.6654 35.6554 30.2884 36.0788 29.6216Z" fill="#CAC9C9" stroke="black" stroke-width="0.45253"/>
<circle cx="25.2673" cy="29.0906" r="0.642309" fill="black"/>
<circle cx="26.7549" cy="30.6523" r="0.642309" fill="black"/>
<path d="M33.2832 13.4346C33.2832 13.4346 35.7461 11.1913 37.9768 10.9499C40.2074 10.7085 41.6887 10.9689 43.8372 12.5263C45.9857 14.0837 46.3431 16.2649 46.3026 17.3158C46.2622 18.3666 45.8985 18.8111 45.6156 19.7003C45.3326 20.5895 43.332 21.1351 43.332 21.1351C43.332 21.1351 44.7127 18.2434 43.9722 17.7913C43.2797 17.3683 39.5435 18.3473 38.8885 18.7676C38.8016 18.8682 38.7642 18.9039 38.7989 18.846C38.8128 18.823 38.8433 18.7966 38.8885 18.7676C39.3376 18.2484 41.1091 16.0021 41.1091 16.0021C41.1091 16.0021 39.937 16.0021 39.1084 16.4623C38.2799 16.9226 37.1647 17.7913 37.1647 17.7913L39.6541 14.9715C39.6541 14.9715 38.336 15.0951 37.6332 15.3353C36.9305 15.5754 35.6214 16.4623 35.6214 16.4623C36.6319 14.9251 36.7904 14.2352 38.6032 13.5569C38.6032 13.5569 36.9653 13.4346 35.8301 13.8277C34.6949 14.2209 33.532 14.6359 33.532 14.6359C33.532 14.6359 34.5011 13.8499 35.3594 13.4346C36.2177 13.0193 37.3962 12.678 37.3962 12.678C37.3962 12.678 36.3008 12.4038 35.2209 12.678C34.1411 12.9522 33.2832 13.4346 33.2832 13.4346Z" fill="white"/>
<g filter="url(#filter4_d_1241_7163)">
<path fill-rule="evenodd" clip-rule="evenodd" d="M37.1353 32.7732C35.2696 32.227 34.6834 32.5001 33.9957 33.0463C33.3081 33.5924 32.7673 35.0489 33.9957 35.7771C34.5708 36.118 35.0056 36.1169 35.6669 36.1152C36.1357 36.1139 36.7184 36.1124 37.5455 36.2323C38.9929 36.442 39.2264 36.7549 39.5764 37.2241C39.7085 37.4013 39.8573 37.6007 40.0944 37.8253C40.435 38.148 41.0088 38.2518 41.5819 38.1756C41.5758 38.2898 41.5639 38.4178 41.5513 38.5545C41.4819 39.3032 41.3883 40.3133 42.0834 40.7506C41.9227 41.0413 41.7725 41.3708 41.6211 41.8026C41.5643 41.9646 41.4558 42.179 41.3327 42.4221C40.8444 43.3868 40.1278 44.8025 41.5121 45.1788C42.128 45.4189 43.3694 43.2925 43.8204 42.3198C44.2714 41.3471 44.2546 41.1435 44.1678 40.6825C44.1648 40.6667 44.1607 40.6505 44.1554 40.6339C44.6921 40.1734 44.5592 39.3163 44.4448 38.5785C44.3963 38.2655 44.3511 37.9741 44.3618 37.7434C44.4079 36.7441 44.145 36.0193 43.8213 35.6326C43.7191 35.5105 43.4972 35.4405 43.235 35.424C43.0123 34.6171 42.515 33.9603 41.6874 33.5924C40.7043 33.1555 38.243 32.8642 37.1353 32.7732Z" fill="white"/>
<path d="M33.9957 33.0463L34.2772 33.4006L33.9957 33.0463ZM37.1353 32.7732L37.0082 33.2075L37.0524 33.2204L37.0983 33.2242L37.1353 32.7732ZM33.9957 35.7771L33.765 36.1664L33.9957 35.7771ZM35.6669 36.1152L35.6657 35.6626L35.6669 36.1152ZM37.5455 36.2323L37.4807 36.6801L37.5455 36.2323ZM39.5764 37.2241L39.2136 37.4947L39.2136 37.4947L39.5764 37.2241ZM40.0944 37.8253L39.7831 38.1538V38.1538L40.0944 37.8253ZM41.5819 38.1756L42.0338 38.1997L42.0629 37.6551L41.5222 37.727L41.5819 38.1756ZM41.5513 38.5545L42.0019 38.5963V38.5963L41.5513 38.5545ZM42.0834 40.7506L42.4795 40.9695L42.6864 40.5952L42.3244 40.3675L42.0834 40.7506ZM41.6211 41.8026L42.0481 41.9524V41.9524L41.6211 41.8026ZM41.3327 42.4221L40.929 42.2177L41.3327 42.4221ZM41.5121 45.1788L41.6765 44.7572L41.654 44.7484L41.6308 44.7421L41.5121 45.1788ZM44.1678 40.6825L44.6125 40.5987L44.6125 40.5987L44.1678 40.6825ZM44.1554 40.6339L43.8607 40.2904L43.6329 40.4859L43.7244 40.7718L44.1554 40.6339ZM44.4448 38.5785L44.892 38.5091V38.5091L44.4448 38.5785ZM44.3618 37.7434L43.9097 37.7226V37.7226L44.3618 37.7434ZM43.8213 35.6326L43.4743 35.9231L43.4743 35.9231L43.8213 35.6326ZM43.235 35.424L42.7987 35.5443L42.8845 35.8553L43.2065 35.8756L43.235 35.424ZM41.6874 33.5924L41.5036 34.006L41.5036 34.006L41.6874 33.5924ZM34.2772 33.4006C34.5975 33.1462 34.8404 32.999 35.1894 32.9478C35.5592 32.8936 36.0977 32.9409 37.0082 33.2075L37.2625 32.3388C36.3073 32.0592 35.6198 31.97 35.0581 32.0523C34.4757 32.1377 34.0816 32.4002 33.7143 32.6919L34.2772 33.4006ZM34.2265 35.3879C33.7866 35.127 33.6786 34.7683 33.726 34.4014C33.7781 33.9976 34.0233 33.6023 34.2772 33.4006L33.7143 32.6919C33.2805 33.0364 32.9114 33.6424 32.8284 34.2855C32.7406 34.9654 32.9765 35.699 33.765 36.1664L34.2265 35.3879ZM35.6657 35.6626C35.0056 35.6644 34.6848 35.6596 34.2265 35.3879L33.765 36.1664C34.4567 36.5765 35.0055 36.5694 35.6681 36.5677L35.6657 35.6626ZM37.6104 35.7844C36.7495 35.6597 36.14 35.6614 35.6657 35.6626L35.6681 36.5677C36.1314 36.5665 36.6873 36.5652 37.4807 36.6801L37.6104 35.7844ZM39.9391 36.9535C39.7647 36.7197 39.5706 36.4533 39.1984 36.2388C38.8409 36.0328 38.3532 35.892 37.6104 35.7844L37.4807 36.6801C38.1852 36.7822 38.5379 36.9028 38.7465 37.023C38.9404 37.1347 39.0381 37.2594 39.2136 37.4947L39.9391 36.9535ZM40.4056 37.4968C40.1988 37.3009 40.0696 37.1285 39.9391 36.9535L39.2136 37.4947C39.3474 37.674 39.5158 37.9005 39.7831 38.1538L40.4056 37.4968ZM41.5222 37.727C41.0144 37.7945 40.6051 37.6858 40.4056 37.4968L39.7831 38.1538C40.2649 38.6102 41.0031 38.7091 41.6415 38.6242L41.5222 37.727ZM41.13 38.1514C41.1245 38.2551 41.1135 38.3737 41.1007 38.5128L42.0019 38.5963C42.0143 38.4619 42.0271 38.3245 42.0338 38.1997L41.13 38.1514ZM41.1007 38.5128C41.0669 38.8768 41.0192 39.3694 41.0823 39.8307C41.1463 40.2988 41.3357 40.8148 41.8425 41.1336L42.3244 40.3675C42.136 40.2491 42.0246 40.0414 41.979 39.708C41.9325 39.3677 41.9662 38.981 42.0019 38.5963L41.1007 38.5128ZM41.6874 40.5316C41.5134 40.8464 41.353 41.1994 41.194 41.6529L42.0481 41.9524C42.1919 41.5422 42.3321 41.2361 42.4795 40.9695L41.6874 40.5316ZM41.194 41.6529C41.1495 41.78 41.0579 41.963 40.929 42.2177L41.7365 42.6265C41.8536 42.395 41.9791 42.1492 42.0481 41.9524L41.194 41.6529ZM40.929 42.2177C40.6956 42.6788 40.3505 43.3486 40.2713 43.9633C40.2303 44.2818 40.2525 44.6381 40.4429 44.957C40.6381 45.2839 40.9667 45.4995 41.3934 45.6155L41.6308 44.7421C41.3653 44.67 41.2644 44.5675 41.2199 44.493C41.1706 44.4104 41.1428 44.2819 41.169 44.0789C41.2242 43.6504 41.4815 43.1301 41.7365 42.6265L40.929 42.2177ZM41.3477 45.6004C41.5638 45.6847 41.7739 45.6497 41.936 45.5856C42.0949 45.5229 42.2393 45.4208 42.3644 45.3132C42.6155 45.0971 42.8673 44.7888 43.0967 44.4666C43.5594 43.8167 43.996 43.0169 44.231 42.5101L43.4099 42.1294C43.1938 42.5954 42.7842 43.3451 42.3595 43.9416C42.1452 44.2426 41.943 44.4817 41.774 44.6272C41.689 44.7003 41.6319 44.7326 41.6033 44.744C41.5778 44.754 41.6144 44.733 41.6765 44.7572L41.3477 45.6004ZM44.231 42.5101C44.4577 42.0211 44.5887 41.6814 44.6412 41.3893C44.698 41.0732 44.6577 40.8384 44.6125 40.5987L43.7231 40.7662C43.7648 40.9876 43.7763 41.0851 43.7504 41.2293C43.7202 41.3974 43.6341 41.6459 43.4099 42.1294L44.231 42.5101ZM44.6125 40.5987C44.6058 40.5628 44.5968 40.5284 44.5864 40.4959L43.7244 40.7718C43.7246 40.7725 43.7239 40.7706 43.7231 40.7662L44.6125 40.5987ZM44.45 40.9773C44.8503 40.634 44.9732 40.1607 44.9961 39.7345C45.0187 39.3146 44.9475 38.8674 44.892 38.5091L43.9976 38.6478C44.0565 39.0273 44.1089 39.3776 44.0924 39.6859C44.0761 39.9878 43.9972 40.1734 43.8607 40.2904L44.45 40.9773ZM44.892 38.5091C44.8409 38.1798 44.8057 37.9394 44.8138 37.7643L43.9097 37.7226C43.8965 38.0087 43.9516 38.3513 43.9976 38.6478L44.892 38.5091ZM44.8138 37.7643C44.8636 36.6856 44.584 35.8387 44.1683 35.3421L43.4743 35.9231C43.706 36.1999 43.9522 36.8025 43.9097 37.7226L44.8138 37.7643ZM44.1683 35.3421C44.0446 35.1944 43.8789 35.1103 43.7356 35.0609C43.5868 35.0096 43.4239 34.9825 43.2635 34.9723L43.2065 35.8756C43.3082 35.882 43.3874 35.8982 43.4407 35.9165C43.4994 35.9368 43.4958 35.9487 43.4743 35.9231L44.1683 35.3421ZM41.5036 34.006C42.1937 34.3127 42.608 34.8529 42.7987 35.5443L43.6712 35.3036C43.4167 34.3813 42.8363 33.6078 41.8712 33.1789L41.5036 34.006ZM37.0983 33.2242C37.6429 33.2689 38.5237 33.3633 39.3873 33.5C40.2678 33.6395 41.0733 33.8147 41.5036 34.006L41.8712 33.1789C41.3183 32.9332 40.4017 32.7443 39.5289 32.6061C38.6392 32.4652 37.7355 32.3684 37.1724 32.3221L37.0983 33.2242Z" fill="black"/>
</g>
<path d="M44.1679 40.6824C44.2547 41.1435 44.2715 41.3471 43.8205 42.3197C43.3695 43.2924 42.1281 45.4189 41.5122 45.1788C39.7789 44.7076 41.3391 42.6071 41.6211 41.8026C41.9032 40.998 42.1813 40.5484 42.5304 40.044C42.9746 39.402 44.081 40.2214 44.1679 40.6824Z" fill="#CAC9C9" stroke="black" stroke-width="0.45253"/>
<path d="M43.8213 35.6326C44.1451 36.0193 44.4079 36.744 44.3618 37.7434C44.3156 38.7428 45.3179 40.8846 43.0964 40.9651C40.8748 41.0457 41.6484 38.718 41.582 37.9177C41.5155 37.1174 41.617 36.6353 41.7733 36.0837C41.9722 35.3817 43.4976 35.2458 43.8213 35.6326Z" fill="#CAC9C9" stroke="black" stroke-width="0.45253"/>
<path d="M33.9957 33.0463C34.6834 32.5001 35.2696 32.227 37.1353 32.7732C38.243 32.8642 40.7043 33.1555 41.6874 33.5924C42.9163 34.1386 43.4169 35.322 43.3714 36.6874C43.3259 38.0529 40.9591 38.6446 40.0944 37.8253C39.2296 37.006 39.5395 36.5212 37.5455 36.2323C35.5516 35.9434 34.9785 36.3597 33.9957 35.7771C32.7673 35.0489 33.3081 33.5924 33.9957 33.0463Z" fill="#CAC9C9" stroke="black" stroke-width="0.45253"/>
<g filter="url(#filter5_d_1241_7163)">
<path fill-rule="evenodd" clip-rule="evenodd" d="M33.8015 37.5564C33.8617 36.3873 33.5769 35.5421 33.2214 35.0928C32.8659 34.6435 31.1732 34.8162 30.9462 35.639C30.7679 36.2854 30.651 36.8501 30.7175 37.7854C30.7308 37.9737 30.7059 38.2346 30.6776 38.5304C30.6126 39.2109 30.53 40.0759 30.8555 40.6649C30.6628 41.4857 30.5338 42.2377 30.5512 43.425C30.555 43.6791 30.5163 44.0335 30.4725 44.4353C30.3663 45.4104 30.2296 46.6643 30.5941 47.4398C30.3166 47.9796 30.0839 48.524 29.8611 49.3614C29.8072 49.564 29.6992 49.838 29.5767 50.1486L29.5767 50.1486C29.0908 51.381 28.3776 53.1898 29.9182 53.3991C30.6075 53.5788 31.8599 50.8335 32.3045 49.5979C32.6305 48.6916 32.7018 48.3212 32.6694 47.9775C33.9125 47.4183 33.7995 45.7022 33.7052 44.2716C33.6728 43.7795 33.6426 43.3212 33.6706 42.9553C33.7329 42.1393 33.6988 41.4442 33.6053 40.8813C34.1363 40.327 34.0021 39.3646 33.8861 38.5322C33.8351 38.1667 33.7876 37.8262 33.8015 37.5564Z" fill="white"/>
<path d="M33.2214 35.0928L32.8665 35.3736V35.3736L33.2214 35.0928ZM33.8015 37.5564L33.3496 37.5332V37.5332L33.8015 37.5564ZM30.9462 35.639L30.51 35.5186L30.9462 35.639ZM30.7175 37.7854L31.1689 37.7534V37.7534L30.7175 37.7854ZM30.6776 38.5304L31.1281 38.5735V38.5735L30.6776 38.5304ZM30.8555 40.6649L31.2961 40.7684L31.3359 40.5986L31.2516 40.446L30.8555 40.6649ZM30.5512 43.425L31.0037 43.4184V43.4184L30.5512 43.425ZM30.4725 44.4353L30.9224 44.4844L30.4725 44.4353ZM30.5941 47.4398L30.9966 47.6467L31.0984 47.4487L31.0037 47.2473L30.5941 47.4398ZM29.8611 49.3614L29.4238 49.2451L29.4238 49.2451L29.8611 49.3614ZM29.5767 50.1486L29.9881 50.3371L29.9932 50.3259L29.9977 50.3145L29.5767 50.1486ZM29.5767 50.1486L29.1653 49.96L29.1602 49.9712L29.1557 49.9826L29.5767 50.1486ZM29.9182 53.3991L30.0324 52.9612L30.0061 52.9544L29.9791 52.9507L29.9182 53.3991ZM32.3045 49.5979L32.7303 49.7511L32.3045 49.5979ZM32.6694 47.9775L32.4838 47.5648L32.1885 47.6976L32.2189 48.0199L32.6694 47.9775ZM33.7052 44.2716L34.1568 44.2418L33.7052 44.2716ZM33.6706 42.9553L33.2193 42.9208V42.9208L33.6706 42.9553ZM33.6053 40.8813L33.2785 40.5683L33.1217 40.7319L33.1588 40.9555L33.6053 40.8813ZM33.8861 38.5322L34.3343 38.4697L33.8861 38.5322ZM32.8665 35.3736C33.134 35.7117 33.4061 36.4371 33.3496 37.5332L34.2535 37.5797C34.3174 36.3375 34.0197 35.3725 33.5763 34.812L32.8665 35.3736ZM31.3824 35.7593C31.4003 35.6948 31.4553 35.6112 31.5905 35.5251C31.7254 35.4392 31.9105 35.3714 32.1163 35.3342C32.3214 35.297 32.5213 35.2948 32.676 35.3197C32.8518 35.348 32.884 35.3958 32.8665 35.3736L33.5763 34.812C33.381 34.5652 33.0683 34.4661 32.8197 34.4261C32.5499 34.3827 32.2458 34.3909 31.9549 34.4436C31.6647 34.4962 31.3618 34.5978 31.1045 34.7616C30.8473 34.9253 30.6056 35.1718 30.51 35.5186L31.3824 35.7593ZM31.1689 37.7534C31.1072 36.8849 31.2129 36.3738 31.3824 35.7593L30.51 35.5186C30.3228 36.197 30.1949 36.8154 30.2661 37.8175L31.1689 37.7534ZM31.1281 38.5735C31.1548 38.2939 31.1855 37.9883 31.1689 37.7534L30.2661 37.8175C30.2761 37.9591 30.257 38.1753 30.2272 38.4874L31.1281 38.5735ZM31.2516 40.446C31.1391 40.2425 31.0834 39.9622 31.0724 39.6176C31.0616 39.2762 31.0952 38.9184 31.1281 38.5735L30.2272 38.4874C30.1951 38.8229 30.1549 39.2379 30.1678 39.6463C30.1807 40.0516 30.2464 40.4983 30.4594 40.8838L31.2516 40.446ZM30.415 40.5615C30.2159 41.409 30.0807 42.1989 30.0988 43.4316L31.0037 43.4184C30.987 42.2766 31.1096 41.5623 31.2961 40.7684L30.415 40.5615ZM30.0988 43.4316C30.102 43.6511 30.0678 43.9723 30.0227 44.3863L30.9224 44.4844C30.9649 44.0947 31.0079 43.7071 31.0037 43.4184L30.0988 43.4316ZM30.0227 44.3863C29.97 44.8697 29.9062 45.4507 29.9043 46.0108C29.9023 46.5627 29.9588 47.152 30.1846 47.6323L31.0037 47.2473C30.8649 46.9522 30.8075 46.5268 30.8093 46.014C30.8111 45.5095 30.8688 44.976 30.9224 44.4844L30.0227 44.3863ZM30.1917 47.2329C29.9009 47.7983 29.6558 48.373 29.4238 49.2451L30.2984 49.4778C30.512 48.675 30.7322 48.1609 30.9966 47.6467L30.1917 47.2329ZM29.4238 49.2451C29.3782 49.4162 29.2824 49.6613 29.1557 49.9826L29.9977 50.3145C30.1159 50.0147 30.2361 49.7118 30.2984 49.4778L29.4238 49.2451ZM29.1653 49.96L29.1653 49.96L29.9881 50.3371L29.9881 50.3371L29.1653 49.96ZM29.1557 49.9826C28.9207 50.5786 28.5887 51.4088 28.5362 52.1244C28.5095 52.4877 28.5484 52.8871 28.7674 53.2233C28.9982 53.5775 29.3758 53.7821 29.8573 53.8475L29.9791 52.9507C29.6903 52.9115 29.5793 52.8115 29.5257 52.7292C29.4603 52.6288 29.419 52.4598 29.4388 52.1907C29.4792 51.6414 29.7468 50.951 29.9977 50.3145L29.1557 49.9826ZM29.8041 53.837C30.0525 53.9018 30.2753 53.8203 30.4322 53.7267C30.5903 53.6324 30.7333 53.4965 30.859 53.3537C31.1122 53.0661 31.3658 52.668 31.5987 52.2491C32.0675 51.4057 32.5013 50.3875 32.7303 49.7511L31.8786 49.4447C31.6631 50.044 31.2484 51.0162 30.8076 51.8094C30.5856 52.2088 30.369 52.5406 30.1797 52.7558C30.0841 52.8644 30.0127 52.9231 29.9686 52.9494C29.9234 52.9764 29.9563 52.9414 30.0324 52.9612L29.8041 53.837ZM32.7303 49.7511C33.0563 48.845 33.1627 48.3892 33.1199 47.9351L32.2189 48.0199C32.2408 48.2533 32.2048 48.5382 31.8786 49.4447L32.7303 49.7511ZM32.8551 48.3902C33.6717 48.0229 34.0071 47.2782 34.1349 46.5273C34.2609 45.7869 34.203 44.9438 34.1568 44.2418L33.2537 44.3013C33.3017 45.03 33.3474 45.7603 33.2427 46.3754C33.1398 46.98 32.9103 47.373 32.4838 47.5648L32.8551 48.3902ZM34.1568 44.2418C34.1236 43.7385 34.0968 43.3165 34.1218 42.9898L33.2193 42.9208C33.1884 43.3259 33.222 43.8205 33.2537 44.3013L34.1568 44.2418ZM34.1218 42.9898C34.1865 42.1427 34.1519 41.4107 34.0517 40.8072L33.1588 40.9555C33.2456 41.4777 33.2794 42.136 33.2193 42.9208L34.1218 42.9898ZM33.4379 38.5947C33.4971 39.0199 33.5524 39.4261 33.5362 39.791C33.5201 40.1545 33.4352 40.4047 33.2785 40.5683L33.932 41.1944C34.3063 40.8037 34.4198 40.2954 34.4404 39.831C34.4609 39.3681 34.391 38.8769 34.3343 38.4697L33.4379 38.5947ZM33.3496 37.5332C33.333 37.8556 33.3891 38.2446 33.4379 38.5947L34.3343 38.4697C34.2811 38.0887 34.2423 37.7968 34.2535 37.5797L33.3496 37.5332Z" fill="black"/>
</g>
<path d="M32.6003 47.5889C32.7198 48.1227 32.7489 48.3622 32.3044 49.5978C31.8599 50.8334 30.6074 53.5787 29.9182 53.3991C27.9893 53.137 29.5933 50.3677 29.861 49.3614C30.1287 48.355 30.4108 47.7718 30.7678 47.1112C31.2222 46.2705 32.4808 47.0551 32.6003 47.5889Z" fill="#CAC9C9" stroke="black" stroke-width="0.648172"/>
<path d="M33.2136 39.6509C33.5485 40.2406 33.7918 41.3698 33.6706 42.9552C33.5493 44.5407 34.5204 47.8618 32.0316 48.1441C29.5428 48.4265 30.5697 44.6873 30.5512 43.4249C30.5327 42.1624 30.6797 41.392 30.8929 40.5079C31.1642 39.3826 32.8787 39.0612 33.2136 39.6509Z" fill="#CAC9C9" stroke="black" stroke-width="0.45253"/>
<path d="M33.2214 35.0928C33.5769 35.5421 33.8617 36.3873 33.8015 37.5564C33.7413 38.7255 34.8333 41.2212 32.3691 41.3355C29.9049 41.4498 30.7839 38.7207 30.7175 37.7854C30.651 36.8501 30.7679 36.2854 30.9462 35.639C31.1732 34.8162 32.8659 34.6435 33.2214 35.0928Z" fill="#CAC9C9" stroke="black" stroke-width="0.45253"/>
<path d="M42.51 30.5842C42.039 29.8047 42.32 28.6022 42.8903 28.3156C43.4606 28.029 44.6613 28.9647 44.7842 29.8713C44.9072 30.7779 42.9811 31.3636 42.51 30.5842Z" fill="white"/>
<path d="M15.4738 15.9503C14.4446 15.563 14.9034 14.2389 15.4737 13.9523C16.044 13.6657 17.537 14.1422 17.072 14.6317C16.6069 15.1212 16.503 16.3376 15.4738 15.9503Z" fill="white"/>
<path d="M23.0275 11.7315C22.5741 10.7296 23.8352 10.1184 24.441 10.3193C25.0468 10.5202 25.7648 11.9133 25.0898 11.9303C24.4149 11.9472 23.4809 12.7333 23.0275 11.7315Z" fill="white"/>
<path d="M30.4447 11.3707C30.1425 10.6936 31.0012 10.2722 31.411 10.4053C31.8209 10.5383 32.3005 11.4795 31.8426 11.4946C31.3846 11.5096 30.7468 12.0479 30.4447 11.3707Z" fill="white"/>
<path d="M11.6788 25.5277C11.3766 24.8506 12.2353 24.4292 12.6452 24.5623C13.055 24.6953 13.5346 25.6365 13.0767 25.6515C12.6187 25.6666 11.981 26.2049 11.6788 25.5277Z" fill="white"/>
<path d="M43.1252 24.5183C42.7922 23.9079 42.9909 22.9661 43.3941 22.7416C43.7973 22.5172 44.6461 23.2501 44.733 23.9601C44.8199 24.67 43.4582 25.1287 43.1252 24.5183Z" fill="white"/>
<path d="M40.6771 37.172C40.2061 36.3925 40.7109 35.7076 41.2812 35.421C41.8514 35.1344 42.8284 35.5526 42.9513 36.4591C43.0743 37.3657 41.1482 37.9514 40.6771 37.172Z" fill="white"/>
<path d="M31.3653 40.5206C30.8943 39.7411 31.5962 39.1636 32.1665 38.877C32.7368 38.5904 33.5166 38.9012 33.6395 39.8077C33.7625 40.7143 31.8364 41.3 31.3653 40.5206Z" fill="white"/>
<defs>
<filter id="filter0_d_1241_7163" x="20.3268" y="20.4417" width="17.7991" height="16.7676" filterUnits="userSpaceOnUse" color-interpolation-filters="sRGB">
<feFlood flood-opacity="0" result="BackgroundImageFix"/>
<feColorMatrix in="SourceAlpha" type="matrix" values="0 0 0 0 0 0 0 0 0 0 0 0 0 0 0 0 0 0 127 0" result="hardAlpha"/>
<feOffset dy="0.90506"/>
<feComposite in2="hardAlpha" operator="out"/>
<feColorMatrix type="matrix" values="0 0 0 0 0 0 0 0 0 0 0 0 0 0 0 0 0 0 0.25 0"/>
<feBlend mode="normal" in2="BackgroundImageFix" result="effect1_dropShadow_1241_7163"/>
<feBlend mode="normal" in="SourceGraphic" in2="effect1_dropShadow_1241_7163" result="shape"/>
</filter>
<filter id="filter1_d_1241_7163" x="4.45337" y="21.2811" width="18.1588" height="10.4944" filterUnits="userSpaceOnUse" color-interpolation-filters="sRGB">
<feFlood flood-opacity="0" result="BackgroundImageFix"/>
<feColorMatrix in="SourceAlpha" type="matrix" values="0 0 0 0 0 0 0 0 0 0 0 0 0 0 0 0 0 0 127 0" result="hardAlpha"/>
<feOffset dy="0.90506"/>
<feComposite in2="hardAlpha" operator="out"/>
<feColorMatrix type="matrix" values="0 0 0 0 0 0 0 0 0 0 0 0 0 0 0 0 0 0 0.25 0"/>
<feBlend mode="normal" in2="BackgroundImageFix" result="effect1_dropShadow_1241_7163"/>
<feBlend mode="normal" in="SourceGraphic" in2="effect1_dropShadow_1241_7163" result="shape"/>
</filter>
<filter id="filter2_d_1241_7163" x="36.045" y="20.6294" width="16.0759" height="9.5657" filterUnits="userSpaceOnUse" color-interpolation-filters="sRGB">
<feFlood flood-opacity="0" result="BackgroundImageFix"/>
<feColorMatrix in="SourceAlpha" type="matrix" values="0 0 0 0 0 0 0 0 0 0 0 0 0 0 0 0 0 0 127 0" result="hardAlpha"/>
<feOffset dy="-0.90506"/>
<feComposite in2="hardAlpha" operator="out"/>
<feColorMatrix type="matrix" values="0 0 0 0 0 0 0 0 0 0 0 0 0 0 0 0 0 0 0.25 0"/>
<feBlend mode="normal" in2="BackgroundImageFix" result="effect1_dropShadow_1241_7163"/>
<feBlend mode="normal" in="SourceGraphic" in2="effect1_dropShadow_1241_7163" result="shape"/>
</filter>
<filter id="filter3_d_1241_7163" x="34.4612" y="27.2308" width="18.9807" height="11.121" filterUnits="userSpaceOnUse" color-interpolation-filters="sRGB">
<feFlood flood-opacity="0" result="BackgroundImageFix"/>
<feColorMatrix in="SourceAlpha" type="matrix" values="0 0 0 0 0 0 0 0 0 0 0 0 0 0 0 0 0 0 127 0" result="hardAlpha"/>
<feOffset dx="-0.90506" dy="0.90506"/>
<feComposite in2="hardAlpha" operator="out"/>
<feColorMatrix type="matrix" values="0 0 0 0 0 0 0 0 0 0 0 0 0 0 0 0 0 0 0.25 0"/>
<feBlend mode="normal" in2="BackgroundImageFix" result="effect1_dropShadow_1241_7163"/>
<feBlend mode="normal" in="SourceGraphic" in2="effect1_dropShadow_1241_7163" result="shape"/>
</filter>
<filter id="filter4_d_1241_7163" x="31.906" y="32.0229" width="13.0944" height="14.5323" filterUnits="userSpaceOnUse" color-interpolation-filters="sRGB">
<feFlood flood-opacity="0" result="BackgroundImageFix"/>
<feColorMatrix in="SourceAlpha" type="matrix" values="0 0 0 0 0 0 0 0 0 0 0 0 0 0 0 0 0 0 127 0" result="hardAlpha"/>
<feOffset dx="-0.90506" dy="0.90506"/>
<feComposite in2="hardAlpha" operator="out"/>
<feColorMatrix type="matrix" values="0 0 0 0 0 0 0 0 0 0 0 0 0 0 0 0 0 0 0.25 0"/>
<feBlend mode="normal" in2="BackgroundImageFix" result="effect1_dropShadow_1241_7163"/>
<feBlend mode="normal" in="SourceGraphic" in2="effect1_dropShadow_1241_7163" result="shape"/>
</filter>
<filter id="filter5_d_1241_7163" x="27.6237" y="34.3982" width="6.82034" height="20.3671" filterUnits="userSpaceOnUse" color-interpolation-filters="sRGB">
<feFlood flood-opacity="0" result="BackgroundImageFix"/>
<feColorMatrix in="SourceAlpha" type="matrix" values="0 0 0 0 0 0 0 0 0 0 0 0 0 0 0 0 0 0 127 0" result="hardAlpha"/>
<feOffset dx="-0.90506" dy="0.90506"/>
<feComposite in2="hardAlpha" operator="out"/>
<feColorMatrix type="matrix" values="0 0 0 0 0 0 0 0 0 0 0 0 0 0 0 0 0 0 0.25 0"/>
<feBlend mode="normal" in2="BackgroundImageFix" result="effect1_dropShadow_1241_7163"/>
<feBlend mode="normal" in="SourceGraphic" in2="effect1_dropShadow_1241_7163" result="shape"/>
</filter>
</defs>
</svg>
