<svg width="61" height="61" viewBox="0 0 61 61" fill="none" xmlns="http://www.w3.org/2000/svg">
<circle cx="30.6052" cy="30.5235" r="29.0001" fill="white" stroke="white" stroke-width="2"/>
<g filter="url(#filter0_d_1241_6188)">
<path d="M10.1627 18.5628C9.72794 16.7579 10.8387 14.9423 12.6436 14.5075L37.7088 8.46985C39.5137 8.03508 41.3293 9.14582 41.7641 10.9508L48.4486 38.7014C48.8834 40.5064 47.7727 42.322 45.9677 42.7568L20.9026 48.7944C19.0977 49.2292 17.282 48.1184 16.8472 46.3135L10.1627 18.5628Z" fill="url(#paint0_radial_1241_6188)"/>
<mask id="mask0_1241_6188" style="mask-type:alpha" maskUnits="userSpaceOnUse" x="10" y="8" width="39" height="42">
<path d="M10.2037 19.0697C9.76955 17.2674 10.8963 15.4501 12.7203 15.0108L38.0503 8.90932C39.8743 8.46995 41.7049 9.57486 42.1391 11.3772L48.814 39.0879C49.2481 40.8902 48.1214 42.7075 46.2974 43.1469L20.9674 49.2483C19.1433 49.6877 17.3127 48.5828 16.8786 46.7804L10.2037 19.0697Z" fill="url(#paint1_radial_1241_6188)"/>
</mask>
<g mask="url(#mask0_1241_6188)">
<path d="M26.582 24.0113C24.1225 23.2699 14.9921 22.0018 11.1901 27.7129L17.3898 51.2268L58.1484 40.7775C39.6468 38.5389 29.8898 36.1816 26.582 24.0113Z" fill="#CAC9C9"/>
</g>
<path fill-rule="evenodd" clip-rule="evenodd" d="M9.83448 19.096C9.34536 17.0654 10.5949 15.0228 12.6255 14.5337L37.6906 8.49608C39.7212 8.00697 41.7638 9.25655 42.2529 11.2871L48.9374 39.0378C49.4266 41.0683 48.177 43.1109 46.1464 43.6L21.0813 49.6377C19.0507 50.1268 17.0081 48.8772 16.519 46.8467L9.83448 19.096ZM12.4473 15.2268C10.868 15.6072 10.2711 17.3199 10.6515 18.8992L13.7315 33.3123L17.4572 47.3139C17.8376 48.8932 19.3051 49.2011 20.8845 48.8206L45.927 42.415C47.5063 42.0346 48.294 39.8547 47.9136 38.2754L41.9398 12.0478C41.5593 10.4684 39.4668 8.93269 37.8874 9.31312L20.5756 13.0617L12.4473 15.2268Z" fill="black"/>
<path d="M33.0642 18.9623C37.2386 18.9623 40.6226 16.421 40.6226 13.2863C40.6226 10.1516 37.2386 7.61035 33.0642 7.61035C28.8898 7.61035 25.5057 10.1516 25.5057 13.2863C25.5057 16.421 28.8898 18.9623 33.0642 18.9623Z" fill="white"/>
<path fill-rule="evenodd" clip-rule="evenodd" d="M37.9536 16.6936C39.1777 15.7743 39.8645 14.562 39.8645 13.2863C39.8645 12.0106 39.1777 10.7983 37.9536 9.87898C36.7291 8.95951 35.003 8.61738 33.0642 8.61738C31.1253 8.61738 29.3992 8.95951 28.1748 9.87898C26.9506 10.7983 26.2638 12.0106 26.2638 13.2863C26.2638 14.562 26.9506 15.7743 28.1748 16.6936C29.3992 17.6131 31.1253 18.2042 33.0642 18.2042C35.003 18.2042 36.7291 17.6131 37.9536 16.6936ZM40.6226 13.2863C40.6226 16.421 37.2386 18.9623 33.0642 18.9623C28.8898 18.9623 25.5057 16.421 25.5057 13.2863C25.5057 10.1516 28.8898 7.61035 33.0642 7.61035C37.2386 7.61035 40.6226 10.1516 40.6226 13.2863Z" fill="black"/>
<path d="M32.3658 9.01114C27.7334 9.5352 26.3852 13.1353 26.8557 14.0957C26.9071 14.2007 27.0397 14.1663 27.088 14.0598C27.9841 12.0847 30.2005 10.5128 32.4208 9.1738C32.5032 9.12409 32.4614 9.00032 32.3658 9.01114Z" fill="#CAC9C9"/>
<mask id="path-9-inside-1_1241_6188" fill="white">
<path d="M47.0897 25.7983C47.0897 26.2889 47.065 26.7757 47.0155 27.2548C46.8311 29.0498 46.3101 31.0122 45.5153 32.9441C45.0247 34.1363 44.4314 35.3172 43.7488 36.439C43.4046 36.5778 43.0262 36.6558 42.6307 36.6558C42.5052 36.6558 42.3797 36.6482 42.258 36.633C40.5714 40.6337 37.6488 43.4441 34.2508 43.9784C33.8534 44.0374 33.4503 44.0697 33.0453 44.0716C29.0959 44.0602 25.6466 40.9912 23.7888 36.4276C23.0282 36.4143 22.338 36.1158 21.8189 35.6347C21.4804 35.03 21.1686 34.412 20.8853 33.7865C19.887 31.5883 19.2329 29.3122 19.0218 27.2567C18.9724 26.7776 18.9476 26.2908 18.9476 25.7983C18.9476 25.7565 18.9476 25.7165 18.9476 25.6747V25.6633C18.9476 25.6329 18.9476 25.6024 18.9495 25.572C18.9495 25.5625 18.9495 25.5549 18.9495 25.5454C18.9495 25.5245 18.9495 25.5036 18.9514 25.4826C18.9514 25.4712 18.9514 25.4598 18.9514 25.4484C18.9514 25.4313 18.9514 25.4142 18.9533 25.3971C18.9552 25.3628 18.9552 25.3286 18.9571 25.2963C18.9571 25.2906 18.9571 25.2849 18.9571 25.2792C18.9609 25.1955 18.9647 25.1119 18.9685 25.0301C18.9704 24.994 18.9724 24.9559 18.9743 24.9198C18.9743 24.9065 18.9762 24.8932 18.9762 24.8799C18.9781 24.8456 18.98 24.8114 18.9838 24.7772C18.9857 24.743 18.9895 24.7087 18.9914 24.6745C18.9933 24.6593 18.9933 24.646 18.9952 24.6327C18.9971 24.5984 19.0009 24.5661 19.0028 24.5338C19.0028 24.5243 19.0047 24.5148 19.0047 24.5053C19.0104 24.4311 19.018 24.357 19.0256 24.2847C19.0351 24.1934 19.0465 24.1003 19.0579 24.009C19.0617 23.9729 19.0674 23.9348 19.0731 23.8987C19.0731 23.8968 19.0731 23.8968 19.0731 23.8949C19.0788 23.8588 19.0826 23.8226 19.0883 23.7865C19.0959 23.7314 19.1055 23.6743 19.1131 23.6192C19.1169 23.5888 19.1226 23.5602 19.1264 23.5298C19.1264 23.5279 19.1264 23.5241 19.1283 23.5222C19.134 23.4842 19.1397 23.4461 19.1473 23.41C19.1473 23.4062 19.1492 23.4043 19.1492 23.4005C19.1568 23.3606 19.1625 23.3206 19.1701 23.2807C19.1777 23.2389 19.1853 23.199 19.1929 23.159C19.2005 23.1229 19.2062 23.0868 19.2138 23.0506C19.2157 23.043 19.2157 23.0354 19.2176 23.0297C19.2329 22.9556 19.2481 22.8795 19.2633 22.8053C19.2652 22.7939 19.2671 22.7844 19.2709 22.773C19.2785 22.7388 19.2861 22.7065 19.2937 22.6722C19.3032 22.6323 19.3127 22.5924 19.3222 22.5524C19.3317 22.5125 19.3412 22.4726 19.3507 22.4327C19.3584 22.3984 19.3679 22.3642 19.3755 22.3319C19.3869 22.2843 19.4002 22.2349 19.4135 22.1874C19.4344 22.1113 19.4534 22.0371 19.4743 21.9611C19.4762 21.9573 19.4762 21.9554 19.4762 21.9535C19.4877 21.9154 19.4972 21.8774 19.5086 21.8394C19.5181 21.809 19.5276 21.7785 19.5352 21.7481C19.5409 21.731 19.5447 21.7158 19.5504 21.6987C19.5599 21.6683 19.5694 21.6359 19.5789 21.6055C19.5903 21.5694 19.6017 21.5351 19.6132 21.499C19.6398 21.4173 19.6664 21.3336 19.6949 21.2518C19.7044 21.2233 19.7139 21.1948 19.7234 21.1663C19.7291 21.151 19.7348 21.1358 19.7387 21.1206C19.7501 21.0902 19.7596 21.0598 19.771 21.0313C19.7862 20.9913 19.7995 20.9514 19.8147 20.9115C19.828 20.8753 19.8413 20.8392 19.8546 20.8031C19.8851 20.7251 19.9136 20.6472 19.9459 20.5711C19.9611 20.5331 19.9763 20.4969 19.9916 20.4589V20.457C20.0049 20.4228 20.0182 20.3905 20.0334 20.3581C20.0372 20.3505 20.0391 20.3448 20.0429 20.3372C20.0581 20.303 20.0714 20.2688 20.0866 20.2345C20.1018 20.1984 20.119 20.1604 20.1361 20.1242C20.1361 20.1223 20.138 20.1223 20.138 20.1204C20.1532 20.0843 20.1703 20.0482 20.1855 20.014C20.2178 19.9436 20.2502 19.8751 20.2825 19.8048C20.2863 19.7991 20.2882 19.7915 20.292 19.7858C20.3243 19.7154 20.3585 19.6451 20.3928 19.5766C20.4099 19.5405 20.4289 19.5044 20.446 19.4682C20.484 19.3941 20.5221 19.3199 20.5601 19.2477C20.5772 19.2134 20.5962 19.1811 20.6133 19.1488C20.6324 19.1126 20.6514 19.0784 20.6704 19.0423C20.6894 19.0081 20.7084 18.9719 20.7293 18.9377C20.7312 18.932 20.735 18.9282 20.7369 18.9225C20.754 18.8921 20.7712 18.8617 20.7883 18.8331C20.8073 18.7989 20.8282 18.7628 20.8491 18.7285C20.8643 18.7019 20.8795 18.6753 20.8948 18.6506C20.9024 18.6354 20.9119 18.6221 20.9195 18.6088C20.9366 18.5821 20.9518 18.5536 20.9689 18.527C20.9898 18.4909 21.0127 18.4566 21.0336 18.4205C21.0545 18.3882 21.0735 18.3559 21.0944 18.3235C21.0963 18.3216 21.0963 18.3197 21.0982 18.3178C21.1172 18.2855 21.1381 18.2551 21.1572 18.2247C21.1838 18.1828 21.2104 18.141 21.2389 18.0992C21.256 18.0744 21.2713 18.0497 21.2884 18.0231C21.3568 17.9223 21.4253 17.8215 21.4956 17.7208C21.5184 17.6884 21.5413 17.6561 21.566 17.6238C21.5869 17.5953 21.6059 17.5686 21.6268 17.5401C21.6306 17.5363 21.6344 17.5306 21.6363 17.5268C21.6592 17.4964 21.682 17.4641 21.7048 17.4336C21.7295 17.3994 21.7542 17.3652 21.7809 17.3329C21.8018 17.3062 21.8227 17.2796 21.8436 17.2511C21.8721 17.215 21.9006 17.1788 21.9292 17.1408C21.9539 17.1104 21.9767 17.08 22.0014 17.0495C22.0033 17.0476 22.0052 17.0438 22.0071 17.0419C22.0299 17.0134 22.0509 16.9868 22.0737 16.9583C22.0756 16.9564 22.0775 16.9545 22.0794 16.9526C22.1022 16.9259 22.1231 16.8974 22.1459 16.8708C22.1688 16.8442 22.1916 16.8156 22.2125 16.789C22.2258 16.7738 22.2372 16.7586 22.2505 16.7434C22.2505 16.7415 22.2524 16.7396 22.2543 16.7396C22.2886 16.6997 22.3209 16.6597 22.3551 16.6217C22.3646 16.6103 22.3741 16.5989 22.3836 16.5894C22.4083 16.5608 22.4331 16.5323 22.4578 16.5038C22.4597 16.5019 22.4597 16.5019 22.4597 16.5C22.4825 16.4734 22.5072 16.4468 22.5319 16.4201C22.5414 16.4087 22.551 16.3973 22.5624 16.3878C22.5814 16.3669 22.6023 16.3441 22.6213 16.3232C22.6498 16.2927 22.6784 16.2623 22.7069 16.2319C22.724 16.2148 22.7392 16.1958 22.7563 16.1786C22.7715 16.1615 22.7886 16.1444 22.8058 16.1273C22.8191 16.114 22.8324 16.1007 22.8457 16.0855C22.8666 16.0627 22.8894 16.0398 22.9122 16.017C22.9256 16.0037 22.9389 15.9904 22.9522 15.9752C22.9807 15.9467 23.0092 15.9181 23.0358 15.8896C23.051 15.8744 23.0663 15.8573 23.0834 15.8421C23.1043 15.8212 23.1252 15.8003 23.1461 15.7812C23.1556 15.7717 23.1651 15.7622 23.1727 15.7546C23.1937 15.7337 23.2146 15.7147 23.2336 15.6938C23.2526 15.6748 23.2716 15.6576 23.2906 15.6386C23.3249 15.6063 23.3591 15.574 23.3933 15.5416C23.4256 15.5112 23.458 15.4808 23.4903 15.4504C23.496 15.4466 23.4998 15.4409 23.5055 15.4371C23.534 15.4104 23.5625 15.3838 23.5911 15.3591C23.6044 15.3458 23.6196 15.3344 23.6329 15.3211C23.6957 15.264 23.7603 15.2089 23.825 15.1537C23.8421 15.1385 23.8611 15.1233 23.8782 15.1081C23.8972 15.091 23.9162 15.0739 23.9371 15.0587C23.9562 15.0416 23.9771 15.0244 23.9961 15.0073C24.0702 14.9446 24.1444 14.8837 24.2205 14.8248C24.2528 14.8001 24.2851 14.7734 24.3155 14.7487C24.325 14.7411 24.3327 14.7354 24.3422 14.7278C24.3783 14.6993 24.4163 14.6708 24.4543 14.6422C24.481 14.6213 24.5076 14.6004 24.5342 14.5814C24.5437 14.5738 24.5551 14.5662 24.5646 14.5586C24.5837 14.5434 24.6027 14.5301 24.6217 14.5148C24.6445 14.4977 24.6673 14.4806 24.6901 14.4635C24.6977 14.4578 24.7053 14.4521 24.7149 14.4464C24.7491 14.4198 24.7852 14.3951 24.8194 14.3703C24.8251 14.3665 24.8289 14.3627 24.8346 14.3589C24.8727 14.3304 24.9126 14.3038 24.9506 14.2753C24.9868 14.2505 25.021 14.2258 25.0571 14.2011C25.0818 14.184 25.1066 14.1669 25.1313 14.1498C25.1427 14.1422 25.1541 14.1345 25.1655 14.1269C25.1921 14.1098 25.2168 14.0927 25.2435 14.0737C25.2777 14.0509 25.3138 14.0281 25.348 14.0052C25.388 13.9786 25.4279 13.9539 25.4678 13.9273C25.4793 13.9197 25.4907 13.9121 25.5021 13.9064C25.5287 13.8893 25.5572 13.8721 25.5857 13.8531C25.599 13.8455 25.6143 13.836 25.6276 13.8284C25.6599 13.8075 25.6941 13.7866 25.7264 13.7676C25.736 13.7619 25.7474 13.7561 25.7569 13.7485C25.7987 13.7238 25.8405 13.6991 25.8824 13.6744C25.9242 13.6497 25.9679 13.6249 26.0098 13.6002C26.0136 13.5983 26.0193 13.5945 26.0231 13.5926C26.0592 13.5717 26.0953 13.5508 26.1296 13.5318C26.1923 13.4956 26.257 13.4614 26.3197 13.4272C26.352 13.4101 26.3825 13.393 26.4148 13.3759C26.4661 13.3492 26.5175 13.3226 26.5688 13.296C26.5916 13.2846 26.6163 13.2713 26.6392 13.2599C26.6601 13.2485 26.6829 13.237 26.7057 13.2256C26.7399 13.2085 26.7723 13.1914 26.8065 13.1743C26.8217 13.1667 26.8369 13.1591 26.8521 13.1515C26.8768 13.1401 26.9016 13.1268 26.9263 13.1153C26.9491 13.1039 26.9719 13.0944 26.9947 13.083C27.0328 13.064 27.0727 13.0469 27.1107 13.0298C27.1431 13.0146 27.1773 12.9994 27.2096 12.9841C27.2248 12.9765 27.2419 12.9689 27.259 12.9613C27.2857 12.9499 27.3104 12.9385 27.337 12.9271C27.3427 12.9252 27.3484 12.9214 27.3541 12.9195C27.3712 12.9119 27.3883 12.9043 27.4055 12.8967C27.4359 12.8834 27.4682 12.8701 27.5005 12.8567C27.5081 12.8529 27.5138 12.851 27.5215 12.8472C27.5595 12.832 27.5975 12.8149 27.6355 12.7997C27.7363 12.7579 27.839 12.716 27.9417 12.678C27.9778 12.6647 28.0139 12.6514 28.0482 12.6362C28.1033 12.6153 28.1585 12.5943 28.2155 12.5753C28.2554 12.5601 28.2954 12.5468 28.3372 12.5316C28.379 12.5164 28.4228 12.5012 28.4646 12.4879C28.4817 12.4822 28.4988 12.4764 28.5159 12.4707C28.5483 12.4593 28.5806 12.4498 28.611 12.4384C28.6243 12.4346 28.6395 12.4289 28.6528 12.4251C28.6909 12.4137 28.7289 12.4004 28.7669 12.389C28.7688 12.389 28.7707 12.3871 28.7745 12.3871C28.8183 12.3738 28.862 12.3586 28.9076 12.3452C28.9114 12.3433 28.9171 12.3433 28.9209 12.3414C28.9457 12.3338 28.9723 12.3262 28.997 12.3186C29.0217 12.311 29.0484 12.3034 29.0731 12.2958C29.0978 12.2882 29.1244 12.2806 29.151 12.273C29.1777 12.2654 29.2024 12.2578 29.229 12.2521C29.2803 12.2369 29.3317 12.2235 29.3849 12.2102C29.402 12.2064 29.4172 12.2007 29.4344 12.1969C29.4553 12.1912 29.4762 12.1855 29.4971 12.1798C29.537 12.1684 29.5789 12.1589 29.6188 12.1494C29.6435 12.1437 29.6682 12.138 29.693 12.1323C29.8261 12.1 29.9573 12.0695 30.0923 12.041C30.1189 12.0353 30.1455 12.0296 30.1721 12.0239C30.2045 12.0163 30.2387 12.0106 30.271 12.0049C30.29 12.0011 30.3109 11.9973 30.33 11.9935C30.4155 11.9764 30.5011 11.9611 30.5867 11.9459C30.6057 11.9421 30.6266 11.9383 30.6456 11.9364C30.6855 11.9288 30.7255 11.9231 30.7654 11.9174C30.7901 11.9136 30.8167 11.9098 30.8415 11.906C30.8586 11.9041 30.8757 11.9003 30.8928 11.8984C30.9156 11.8946 30.9403 11.8908 30.9632 11.8889C31.0734 11.8718 31.1856 11.8585 31.2978 11.8433C31.8588 11.7748 32.4311 11.7406 33.0111 11.7406C33.5834 11.7406 34.15 11.7748 34.7053 11.8413C34.787 11.8509 34.8688 11.8623 34.9506 11.8737C34.9772 11.8775 35.0038 11.8813 35.0323 11.8851C35.0571 11.8889 35.0818 11.8927 35.1084 11.8965C35.135 11.9003 35.1616 11.9041 35.1883 11.9079C35.2073 11.9098 35.2263 11.9136 35.2472 11.9174C35.289 11.9231 35.3309 11.9307 35.3708 11.9383C35.3936 11.9421 35.4145 11.9459 35.4374 11.9497C35.464 11.9535 35.4906 11.9592 35.5172 11.963C35.5667 11.9726 35.6142 11.9802 35.6636 11.9897C35.6903 11.9954 35.7169 11.9992 35.7416 12.0049C35.8557 12.0277 35.9698 12.0505 36.082 12.0771C36.2113 12.1057 36.3387 12.1361 36.4661 12.1684C36.4927 12.1741 36.5174 12.1817 36.544 12.1893C36.5706 12.195 36.5954 12.2026 36.622 12.2102C36.6524 12.2178 36.6809 12.2255 36.7095 12.2331C36.7323 12.2388 36.7551 12.2464 36.776 12.2521C36.8787 12.2806 36.9814 12.311 37.084 12.3414C37.1069 12.349 37.1316 12.3567 37.1563 12.3624C37.1734 12.3681 37.1905 12.3738 37.2076 12.3776C37.2305 12.3852 37.2552 12.3928 37.2799 12.4004C37.3864 12.4346 37.4929 12.4688 37.5975 12.505C37.6165 12.5107 37.6355 12.5183 37.6545 12.524C37.6678 12.5278 37.6811 12.5335 37.6944 12.5392C37.7191 12.5487 37.7439 12.5563 37.7705 12.5658C37.7857 12.5715 37.8009 12.5772 37.8161 12.5829C37.8351 12.5905 37.8561 12.5981 37.8751 12.6038C37.8998 12.6134 37.9245 12.6229 37.9492 12.6305C37.9644 12.6362 37.9797 12.6419 37.993 12.6476C38.0158 12.6571 38.0405 12.6647 38.0633 12.6742C38.2135 12.7312 38.3619 12.7921 38.5083 12.8548C38.5254 12.8624 38.5425 12.8701 38.5596 12.8777C38.5919 12.891 38.6224 12.9043 38.6547 12.9195C38.6756 12.929 38.6965 12.9385 38.7155 12.9461C38.7441 12.9575 38.7707 12.9708 38.7992 12.9841C38.822 12.9937 38.8448 13.0051 38.8676 13.0165C38.8924 13.0279 38.9171 13.0393 38.9418 13.0507C38.9646 13.0621 38.9874 13.0716 39.0122 13.083C39.0369 13.0944 39.0616 13.1058 39.0863 13.1172C39.1091 13.1287 39.1339 13.1401 39.1567 13.1515C39.2042 13.1743 39.2517 13.1971 39.2993 13.2218C39.3715 13.258 39.4438 13.296 39.5161 13.3321C39.5408 13.3454 39.5636 13.3568 39.5883 13.3701C39.632 13.393 39.6758 13.4158 39.7195 13.4405C39.7652 13.4652 39.8127 13.4918 39.8583 13.5166C39.9002 13.5394 39.9401 13.5622 39.9819 13.585C39.9914 13.5907 40.0009 13.5964 40.0104 13.6021C40.1416 13.6782 40.2709 13.7542 40.4002 13.8341C40.4021 13.8341 40.4022 13.836 40.4041 13.836C40.4915 13.8912 40.579 13.9463 40.6665 14.0033C40.6665 14.0033 40.6684 14.0052 40.6703 14.0052C40.7083 14.03 40.7463 14.0547 40.7844 14.0794C40.7939 14.0851 40.8015 14.0908 40.811 14.0965C40.8509 14.1231 40.8908 14.1498 40.9289 14.1764C40.9726 14.2049 41.0144 14.2353 41.0582 14.2657C41.0962 14.2924 41.1323 14.319 41.1704 14.3437C41.1818 14.3513 41.1951 14.3608 41.2065 14.3703C41.2312 14.3893 41.2578 14.4065 41.2825 14.4255C41.2978 14.4369 41.3111 14.4464 41.3263 14.4578C41.3643 14.4863 41.4004 14.5129 41.4385 14.5415C41.4746 14.5681 41.5088 14.5947 41.543 14.6213C41.5545 14.6289 41.564 14.6384 41.5754 14.646C41.6914 14.7354 41.8055 14.8248 41.9195 14.918C41.9271 14.9256 41.9367 14.9313 41.9443 14.9389C41.9804 14.9693 42.0165 14.9978 42.0507 15.0282C42.1306 15.0948 42.2086 15.1614 42.2865 15.2298C42.2884 15.2317 42.2884 15.2317 42.2903 15.2336C42.3284 15.2678 42.3664 15.3021 42.4063 15.3363C42.4444 15.3705 42.4843 15.4066 42.5223 15.4409C42.5584 15.4751 42.5965 15.5074 42.6326 15.5416C42.6364 15.5455 42.6402 15.5474 42.644 15.5512C42.6763 15.5816 42.7087 15.612 42.7429 15.6443C42.7486 15.6481 42.7524 15.6538 42.7581 15.6595C42.7942 15.6938 42.8304 15.728 42.8646 15.7641C42.9026 15.8003 42.9387 15.8364 42.9749 15.8744C43.011 15.9105 43.049 15.9486 43.0852 15.9847C43.1213 16.0227 43.1574 16.0589 43.1935 16.0969C43.2297 16.1349 43.2658 16.1729 43.3019 16.211C43.3362 16.2471 43.3704 16.2832 43.4027 16.3213C43.4046 16.3232 43.4065 16.327 43.4103 16.3289C43.4426 16.365 43.475 16.4011 43.5073 16.4353C43.5263 16.4563 43.5453 16.4791 43.5643 16.5C43.5814 16.519 43.5986 16.538 43.6138 16.557C43.6157 16.5589 43.6176 16.5608 43.6195 16.5627C43.6689 16.6198 43.7184 16.6787 43.7678 16.7358C43.802 16.7757 43.8343 16.8156 43.8686 16.8556C43.8838 16.8746 43.899 16.8917 43.9142 16.9107C43.918 16.9145 43.9218 16.9183 43.9237 16.9221C43.9522 16.9564 43.9808 16.9925 44.0074 17.0267C44.0264 17.0495 44.0454 17.0743 44.0644 17.099C44.0967 17.1408 44.1291 17.1807 44.1614 17.2226C44.226 17.3043 44.2888 17.388 44.3496 17.4736C44.3801 17.5135 44.4086 17.5534 44.4371 17.5934C44.439 17.5972 44.4428 17.601 44.4447 17.6029C44.4599 17.6219 44.4732 17.6428 44.4885 17.6637C44.517 17.7017 44.5436 17.7417 44.5702 17.7797C44.6178 17.8482 44.6653 17.9166 44.7128 17.987C44.728 18.0079 44.7414 18.0307 44.7566 18.0516C44.8003 18.1163 44.8421 18.1828 44.8859 18.2494C44.9011 18.2722 44.9144 18.295 44.9296 18.3178C44.9638 18.3711 44.9962 18.4243 45.0285 18.4795C45.0456 18.5061 45.0608 18.5327 45.0779 18.5612C45.1236 18.6373 45.1692 18.7133 45.2129 18.7894C45.2262 18.8103 45.2376 18.8331 45.251 18.854C45.27 18.8883 45.289 18.9206 45.308 18.9548C45.3232 18.9814 45.3384 19.0081 45.3517 19.0347C45.3707 19.067 45.3879 19.0993 45.405 19.1317C45.4069 19.1336 45.4069 19.1355 45.4088 19.1374C45.4259 19.1678 45.4411 19.1982 45.4582 19.2286C45.5191 19.3427 45.5761 19.4568 45.6332 19.5709C45.6465 19.5975 45.6598 19.6261 45.6731 19.6527C45.6769 19.6603 45.6788 19.666 45.6826 19.6736C45.6997 19.7078 45.7149 19.7401 45.7301 19.7725C45.7472 19.8086 45.7644 19.8447 45.7815 19.8809C45.7929 19.9037 45.8043 19.9284 45.8138 19.9512C45.8176 19.9607 45.8214 19.9683 45.8271 19.9778C45.8347 19.9949 45.8423 20.0121 45.8499 20.0292C45.8594 20.052 45.8708 20.0748 45.8803 20.0976C45.8975 20.1337 45.9127 20.1699 45.9279 20.206C45.9431 20.2421 45.9583 20.2783 45.9735 20.3125C45.9906 20.3524 46.0077 20.3924 46.0249 20.4342C46.0382 20.4684 46.0534 20.5026 46.0667 20.5369C46.08 20.5692 46.0933 20.6015 46.1047 20.6338C46.1066 20.6414 46.1104 20.6472 46.1123 20.6548C46.1256 20.689 46.1409 20.7251 46.1542 20.7593C46.1656 20.7917 46.1789 20.824 46.1903 20.8563C46.1941 20.8658 46.1979 20.8753 46.2017 20.8848C46.2131 20.9172 46.2264 20.9514 46.2378 20.9837C46.2511 21.0217 46.2644 21.0598 46.2778 21.0959C46.3025 21.1663 46.3272 21.2347 46.35 21.3051C46.3652 21.3488 46.3785 21.3925 46.3937 21.4382C46.4033 21.4705 46.4147 21.5028 46.4242 21.5332C46.4261 21.539 46.428 21.5466 46.4299 21.5523C46.4527 21.6226 46.4736 21.6911 46.4945 21.7614C46.4983 21.7709 46.5002 21.7823 46.504 21.7918L46.5288 21.8774C46.544 21.9288 46.5573 21.9782 46.5725 22.0295C46.582 22.0638 46.5915 22.098 46.601 22.1322C46.6124 22.1721 46.6219 22.2102 46.6314 22.2501C46.6409 22.29 46.6523 22.3281 46.6619 22.368C46.6695 22.4003 46.6771 22.4307 46.6847 22.4612C46.6961 22.5087 46.7075 22.5562 46.7189 22.6038C46.7265 22.6342 46.7341 22.6665 46.7398 22.697C46.7417 22.7046 46.7436 22.7141 46.7455 22.7217C46.7531 22.7559 46.7607 22.792 46.7683 22.8263C46.7797 22.8776 46.7893 22.927 46.8007 22.9784C46.8083 23.0126 46.814 23.0468 46.8216 23.0811C46.8311 23.1248 46.8387 23.1666 46.8463 23.2104C46.8539 23.2484 46.8596 23.2845 46.8672 23.3225C46.8748 23.3625 46.8805 23.4024 46.8881 23.4423C46.8881 23.4442 46.8881 23.4461 46.8881 23.4461C46.8957 23.4861 46.9014 23.526 46.9072 23.564C46.9072 23.5678 46.9091 23.5716 46.9091 23.5735C46.9148 23.6116 46.9205 23.6477 46.9262 23.6857C46.9319 23.7257 46.9376 23.7675 46.9433 23.8074C46.9509 23.855 46.9566 23.9025 46.9623 23.95C46.9661 23.9767 46.9699 24.0052 46.9737 24.0318C46.9813 24.0869 46.987 24.1402 46.9927 24.1953C46.9965 24.2296 47.0003 24.2657 47.0041 24.2999C47.0041 24.3018 47.0041 24.3037 47.0041 24.3075C47.0079 24.3436 47.0117 24.3779 47.0155 24.414C47.0155 24.4216 47.0174 24.4292 47.0174 24.4387C47.0193 24.4615 47.0212 24.4863 47.0231 24.5091C47.025 24.5243 47.025 24.5395 47.0269 24.5547C47.0288 24.5832 47.0307 24.6099 47.0345 24.6365C47.0365 24.6574 47.0384 24.6764 47.0384 24.6954C47.0403 24.7297 47.0441 24.762 47.046 24.7962C47.0479 24.8266 47.0498 24.8571 47.0517 24.8894C47.0536 24.9103 47.0536 24.9293 47.0555 24.9502C47.0593 25.0111 47.0631 25.0719 47.065 25.1347C47.065 25.1385 47.065 25.1404 47.065 25.1423C47.0669 25.1594 47.0669 25.1765 47.0669 25.1936C47.0688 25.2183 47.0688 25.2431 47.0707 25.2697C47.0707 25.2906 47.0726 25.3115 47.0726 25.3324C47.0726 25.3571 47.0745 25.3819 47.0745 25.4047C47.0745 25.4237 47.0745 25.4427 47.0764 25.4598C47.0764 25.4921 47.0783 25.5264 47.0783 25.5587C47.0783 25.5986 47.0802 25.6367 47.0802 25.6766V25.6785C47.0897 25.7146 47.0897 25.7565 47.0897 25.7983Z"/>
</mask>
<path d="M47.0897 25.7983C47.0897 26.2889 47.065 26.7757 47.0155 27.2548C46.8311 29.0498 46.3101 31.0122 45.5153 32.9441C45.0247 34.1363 44.4314 35.3172 43.7488 36.439C43.4046 36.5778 43.0262 36.6558 42.6307 36.6558C42.5052 36.6558 42.3797 36.6482 42.258 36.633C40.5714 40.6337 37.6488 43.4441 34.2508 43.9784C33.8534 44.0374 33.4503 44.0697 33.0453 44.0716C29.0959 44.0602 25.6466 40.9912 23.7888 36.4276C23.0282 36.4143 22.338 36.1158 21.8189 35.6347C21.4804 35.03 21.1686 34.412 20.8853 33.7865C19.887 31.5883 19.2329 29.3122 19.0218 27.2567C18.9724 26.7776 18.9476 26.2908 18.9476 25.7983C18.9476 25.7565 18.9476 25.7165 18.9476 25.6747V25.6633C18.9476 25.6329 18.9476 25.6024 18.9495 25.572C18.9495 25.5625 18.9495 25.5549 18.9495 25.5454C18.9495 25.5245 18.9495 25.5036 18.9514 25.4826C18.9514 25.4712 18.9514 25.4598 18.9514 25.4484C18.9514 25.4313 18.9514 25.4142 18.9533 25.3971C18.9552 25.3628 18.9552 25.3286 18.9571 25.2963C18.9571 25.2906 18.9571 25.2849 18.9571 25.2792C18.9609 25.1955 18.9647 25.1119 18.9685 25.0301C18.9704 24.994 18.9724 24.9559 18.9743 24.9198C18.9743 24.9065 18.9762 24.8932 18.9762 24.8799C18.9781 24.8456 18.98 24.8114 18.9838 24.7772C18.9857 24.743 18.9895 24.7087 18.9914 24.6745C18.9933 24.6593 18.9933 24.646 18.9952 24.6327C18.9971 24.5984 19.0009 24.5661 19.0028 24.5338C19.0028 24.5243 19.0047 24.5148 19.0047 24.5053C19.0104 24.4311 19.018 24.357 19.0256 24.2847C19.0351 24.1934 19.0465 24.1003 19.0579 24.009C19.0617 23.9729 19.0674 23.9348 19.0731 23.8987C19.0731 23.8968 19.0731 23.8968 19.0731 23.8949C19.0788 23.8588 19.0826 23.8226 19.0883 23.7865C19.0959 23.7314 19.1055 23.6743 19.1131 23.6192C19.1169 23.5888 19.1226 23.5602 19.1264 23.5298C19.1264 23.5279 19.1264 23.5241 19.1283 23.5222C19.134 23.4842 19.1397 23.4461 19.1473 23.41C19.1473 23.4062 19.1492 23.4043 19.1492 23.4005C19.1568 23.3606 19.1625 23.3206 19.1701 23.2807C19.1777 23.2389 19.1853 23.199 19.1929 23.159C19.2005 23.1229 19.2062 23.0868 19.2138 23.0506C19.2157 23.043 19.2157 23.0354 19.2176 23.0297C19.2329 22.9556 19.2481 22.8795 19.2633 22.8053C19.2652 22.7939 19.2671 22.7844 19.2709 22.773C19.2785 22.7388 19.2861 22.7065 19.2937 22.6722C19.3032 22.6323 19.3127 22.5924 19.3222 22.5524C19.3317 22.5125 19.3412 22.4726 19.3507 22.4327C19.3584 22.3984 19.3679 22.3642 19.3755 22.3319C19.3869 22.2843 19.4002 22.2349 19.4135 22.1874C19.4344 22.1113 19.4534 22.0371 19.4743 21.9611C19.4762 21.9573 19.4762 21.9554 19.4762 21.9535C19.4877 21.9154 19.4972 21.8774 19.5086 21.8394C19.5181 21.809 19.5276 21.7785 19.5352 21.7481C19.5409 21.731 19.5447 21.7158 19.5504 21.6987C19.5599 21.6683 19.5694 21.6359 19.5789 21.6055C19.5903 21.5694 19.6017 21.5351 19.6132 21.499C19.6398 21.4173 19.6664 21.3336 19.6949 21.2518C19.7044 21.2233 19.7139 21.1948 19.7234 21.1663C19.7291 21.151 19.7348 21.1358 19.7387 21.1206C19.7501 21.0902 19.7596 21.0598 19.771 21.0313C19.7862 20.9913 19.7995 20.9514 19.8147 20.9115C19.828 20.8753 19.8413 20.8392 19.8546 20.8031C19.8851 20.7251 19.9136 20.6472 19.9459 20.5711C19.9611 20.5331 19.9763 20.4969 19.9916 20.4589V20.457C20.0049 20.4228 20.0182 20.3905 20.0334 20.3581C20.0372 20.3505 20.0391 20.3448 20.0429 20.3372C20.0581 20.303 20.0714 20.2688 20.0866 20.2345C20.1018 20.1984 20.119 20.1604 20.1361 20.1242C20.1361 20.1223 20.138 20.1223 20.138 20.1204C20.1532 20.0843 20.1703 20.0482 20.1855 20.014C20.2178 19.9436 20.2502 19.8751 20.2825 19.8048C20.2863 19.7991 20.2882 19.7915 20.292 19.7858C20.3243 19.7154 20.3585 19.6451 20.3928 19.5766C20.4099 19.5405 20.4289 19.5044 20.446 19.4682C20.484 19.3941 20.5221 19.3199 20.5601 19.2477C20.5772 19.2134 20.5962 19.1811 20.6133 19.1488C20.6324 19.1126 20.6514 19.0784 20.6704 19.0423C20.6894 19.0081 20.7084 18.9719 20.7293 18.9377C20.7312 18.932 20.735 18.9282 20.7369 18.9225C20.754 18.8921 20.7712 18.8617 20.7883 18.8331C20.8073 18.7989 20.8282 18.7628 20.8491 18.7285C20.8643 18.7019 20.8795 18.6753 20.8948 18.6506C20.9024 18.6354 20.9119 18.6221 20.9195 18.6088C20.9366 18.5821 20.9518 18.5536 20.9689 18.527C20.9898 18.4909 21.0127 18.4566 21.0336 18.4205C21.0545 18.3882 21.0735 18.3559 21.0944 18.3235C21.0963 18.3216 21.0963 18.3197 21.0982 18.3178C21.1172 18.2855 21.1381 18.2551 21.1572 18.2247C21.1838 18.1828 21.2104 18.141 21.2389 18.0992C21.256 18.0744 21.2713 18.0497 21.2884 18.0231C21.3568 17.9223 21.4253 17.8215 21.4956 17.7208C21.5184 17.6884 21.5413 17.6561 21.566 17.6238C21.5869 17.5953 21.6059 17.5686 21.6268 17.5401C21.6306 17.5363 21.6344 17.5306 21.6363 17.5268C21.6592 17.4964 21.682 17.4641 21.7048 17.4336C21.7295 17.3994 21.7542 17.3652 21.7809 17.3329C21.8018 17.3062 21.8227 17.2796 21.8436 17.2511C21.8721 17.215 21.9006 17.1788 21.9292 17.1408C21.9539 17.1104 21.9767 17.08 22.0014 17.0495C22.0033 17.0476 22.0052 17.0438 22.0071 17.0419C22.0299 17.0134 22.0509 16.9868 22.0737 16.9583C22.0756 16.9564 22.0775 16.9545 22.0794 16.9526C22.1022 16.9259 22.1231 16.8974 22.1459 16.8708C22.1688 16.8442 22.1916 16.8156 22.2125 16.789C22.2258 16.7738 22.2372 16.7586 22.2505 16.7434C22.2505 16.7415 22.2524 16.7396 22.2543 16.7396C22.2886 16.6997 22.3209 16.6597 22.3551 16.6217C22.3646 16.6103 22.3741 16.5989 22.3836 16.5894C22.4083 16.5608 22.4331 16.5323 22.4578 16.5038C22.4597 16.5019 22.4597 16.5019 22.4597 16.5C22.4825 16.4734 22.5072 16.4468 22.5319 16.4201C22.5414 16.4087 22.551 16.3973 22.5624 16.3878C22.5814 16.3669 22.6023 16.3441 22.6213 16.3232C22.6498 16.2927 22.6784 16.2623 22.7069 16.2319C22.724 16.2148 22.7392 16.1958 22.7563 16.1786C22.7715 16.1615 22.7886 16.1444 22.8058 16.1273C22.8191 16.114 22.8324 16.1007 22.8457 16.0855C22.8666 16.0627 22.8894 16.0398 22.9122 16.017C22.9256 16.0037 22.9389 15.9904 22.9522 15.9752C22.9807 15.9467 23.0092 15.9181 23.0358 15.8896C23.051 15.8744 23.0663 15.8573 23.0834 15.8421C23.1043 15.8212 23.1252 15.8003 23.1461 15.7812C23.1556 15.7717 23.1651 15.7622 23.1727 15.7546C23.1937 15.7337 23.2146 15.7147 23.2336 15.6938C23.2526 15.6748 23.2716 15.6576 23.2906 15.6386C23.3249 15.6063 23.3591 15.574 23.3933 15.5416C23.4256 15.5112 23.458 15.4808 23.4903 15.4504C23.496 15.4466 23.4998 15.4409 23.5055 15.4371C23.534 15.4104 23.5625 15.3838 23.5911 15.3591C23.6044 15.3458 23.6196 15.3344 23.6329 15.3211C23.6957 15.264 23.7603 15.2089 23.825 15.1537C23.8421 15.1385 23.8611 15.1233 23.8782 15.1081C23.8972 15.091 23.9162 15.0739 23.9371 15.0587C23.9562 15.0416 23.9771 15.0244 23.9961 15.0073C24.0702 14.9446 24.1444 14.8837 24.2205 14.8248C24.2528 14.8001 24.2851 14.7734 24.3155 14.7487C24.325 14.7411 24.3327 14.7354 24.3422 14.7278C24.3783 14.6993 24.4163 14.6708 24.4543 14.6422C24.481 14.6213 24.5076 14.6004 24.5342 14.5814C24.5437 14.5738 24.5551 14.5662 24.5646 14.5586C24.5837 14.5434 24.6027 14.5301 24.6217 14.5148C24.6445 14.4977 24.6673 14.4806 24.6901 14.4635C24.6977 14.4578 24.7053 14.4521 24.7149 14.4464C24.7491 14.4198 24.7852 14.3951 24.8194 14.3703C24.8251 14.3665 24.8289 14.3627 24.8346 14.3589C24.8727 14.3304 24.9126 14.3038 24.9506 14.2753C24.9868 14.2505 25.021 14.2258 25.0571 14.2011C25.0818 14.184 25.1066 14.1669 25.1313 14.1498C25.1427 14.1422 25.1541 14.1345 25.1655 14.1269C25.1921 14.1098 25.2168 14.0927 25.2435 14.0737C25.2777 14.0509 25.3138 14.0281 25.348 14.0052C25.388 13.9786 25.4279 13.9539 25.4678 13.9273C25.4793 13.9197 25.4907 13.9121 25.5021 13.9064C25.5287 13.8893 25.5572 13.8721 25.5857 13.8531C25.599 13.8455 25.6143 13.836 25.6276 13.8284C25.6599 13.8075 25.6941 13.7866 25.7264 13.7676C25.736 13.7619 25.7474 13.7561 25.7569 13.7485C25.7987 13.7238 25.8405 13.6991 25.8824 13.6744C25.9242 13.6497 25.9679 13.6249 26.0098 13.6002C26.0136 13.5983 26.0193 13.5945 26.0231 13.5926C26.0592 13.5717 26.0953 13.5508 26.1296 13.5318C26.1923 13.4956 26.257 13.4614 26.3197 13.4272C26.352 13.4101 26.3825 13.393 26.4148 13.3759C26.4661 13.3492 26.5175 13.3226 26.5688 13.296C26.5916 13.2846 26.6163 13.2713 26.6392 13.2599C26.6601 13.2485 26.6829 13.237 26.7057 13.2256C26.7399 13.2085 26.7723 13.1914 26.8065 13.1743C26.8217 13.1667 26.8369 13.1591 26.8521 13.1515C26.8768 13.1401 26.9016 13.1268 26.9263 13.1153C26.9491 13.1039 26.9719 13.0944 26.9947 13.083C27.0328 13.064 27.0727 13.0469 27.1107 13.0298C27.1431 13.0146 27.1773 12.9994 27.2096 12.9841C27.2248 12.9765 27.2419 12.9689 27.259 12.9613C27.2857 12.9499 27.3104 12.9385 27.337 12.9271C27.3427 12.9252 27.3484 12.9214 27.3541 12.9195C27.3712 12.9119 27.3883 12.9043 27.4055 12.8967C27.4359 12.8834 27.4682 12.8701 27.5005 12.8567C27.5081 12.8529 27.5138 12.851 27.5215 12.8472C27.5595 12.832 27.5975 12.8149 27.6355 12.7997C27.7363 12.7579 27.839 12.716 27.9417 12.678C27.9778 12.6647 28.0139 12.6514 28.0482 12.6362C28.1033 12.6153 28.1585 12.5943 28.2155 12.5753C28.2554 12.5601 28.2954 12.5468 28.3372 12.5316C28.379 12.5164 28.4228 12.5012 28.4646 12.4879C28.4817 12.4822 28.4988 12.4764 28.5159 12.4707C28.5483 12.4593 28.5806 12.4498 28.611 12.4384C28.6243 12.4346 28.6395 12.4289 28.6528 12.4251C28.6909 12.4137 28.7289 12.4004 28.7669 12.389C28.7688 12.389 28.7707 12.3871 28.7745 12.3871C28.8183 12.3738 28.862 12.3586 28.9076 12.3452C28.9114 12.3433 28.9171 12.3433 28.9209 12.3414C28.9457 12.3338 28.9723 12.3262 28.997 12.3186C29.0217 12.311 29.0484 12.3034 29.0731 12.2958C29.0978 12.2882 29.1244 12.2806 29.151 12.273C29.1777 12.2654 29.2024 12.2578 29.229 12.2521C29.2803 12.2369 29.3317 12.2235 29.3849 12.2102C29.402 12.2064 29.4172 12.2007 29.4344 12.1969C29.4553 12.1912 29.4762 12.1855 29.4971 12.1798C29.537 12.1684 29.5789 12.1589 29.6188 12.1494C29.6435 12.1437 29.6682 12.138 29.693 12.1323C29.8261 12.1 29.9573 12.0695 30.0923 12.041C30.1189 12.0353 30.1455 12.0296 30.1721 12.0239C30.2045 12.0163 30.2387 12.0106 30.271 12.0049C30.29 12.0011 30.3109 11.9973 30.33 11.9935C30.4155 11.9764 30.5011 11.9611 30.5867 11.9459C30.6057 11.9421 30.6266 11.9383 30.6456 11.9364C30.6855 11.9288 30.7255 11.9231 30.7654 11.9174C30.7901 11.9136 30.8167 11.9098 30.8415 11.906C30.8586 11.9041 30.8757 11.9003 30.8928 11.8984C30.9156 11.8946 30.9403 11.8908 30.9632 11.8889C31.0734 11.8718 31.1856 11.8585 31.2978 11.8433C31.8588 11.7748 32.4311 11.7406 33.0111 11.7406C33.5834 11.7406 34.15 11.7748 34.7053 11.8413C34.787 11.8509 34.8688 11.8623 34.9506 11.8737C34.9772 11.8775 35.0038 11.8813 35.0323 11.8851C35.0571 11.8889 35.0818 11.8927 35.1084 11.8965C35.135 11.9003 35.1616 11.9041 35.1883 11.9079C35.2073 11.9098 35.2263 11.9136 35.2472 11.9174C35.289 11.9231 35.3309 11.9307 35.3708 11.9383C35.3936 11.9421 35.4145 11.9459 35.4374 11.9497C35.464 11.9535 35.4906 11.9592 35.5172 11.963C35.5667 11.9726 35.6142 11.9802 35.6636 11.9897C35.6903 11.9954 35.7169 11.9992 35.7416 12.0049C35.8557 12.0277 35.9698 12.0505 36.082 12.0771C36.2113 12.1057 36.3387 12.1361 36.4661 12.1684C36.4927 12.1741 36.5174 12.1817 36.544 12.1893C36.5706 12.195 36.5954 12.2026 36.622 12.2102C36.6524 12.2178 36.6809 12.2255 36.7095 12.2331C36.7323 12.2388 36.7551 12.2464 36.776 12.2521C36.8787 12.2806 36.9814 12.311 37.084 12.3414C37.1069 12.349 37.1316 12.3567 37.1563 12.3624C37.1734 12.3681 37.1905 12.3738 37.2076 12.3776C37.2305 12.3852 37.2552 12.3928 37.2799 12.4004C37.3864 12.4346 37.4929 12.4688 37.5975 12.505C37.6165 12.5107 37.6355 12.5183 37.6545 12.524C37.6678 12.5278 37.6811 12.5335 37.6944 12.5392C37.7191 12.5487 37.7439 12.5563 37.7705 12.5658C37.7857 12.5715 37.8009 12.5772 37.8161 12.5829C37.8351 12.5905 37.8561 12.5981 37.8751 12.6038C37.8998 12.6134 37.9245 12.6229 37.9492 12.6305C37.9644 12.6362 37.9797 12.6419 37.993 12.6476C38.0158 12.6571 38.0405 12.6647 38.0633 12.6742C38.2135 12.7312 38.3619 12.7921 38.5083 12.8548C38.5254 12.8624 38.5425 12.8701 38.5596 12.8777C38.5919 12.891 38.6224 12.9043 38.6547 12.9195C38.6756 12.929 38.6965 12.9385 38.7155 12.9461C38.7441 12.9575 38.7707 12.9708 38.7992 12.9841C38.822 12.9937 38.8448 13.0051 38.8676 13.0165C38.8924 13.0279 38.9171 13.0393 38.9418 13.0507C38.9646 13.0621 38.9874 13.0716 39.0122 13.083C39.0369 13.0944 39.0616 13.1058 39.0863 13.1172C39.1091 13.1287 39.1339 13.1401 39.1567 13.1515C39.2042 13.1743 39.2517 13.1971 39.2993 13.2218C39.3715 13.258 39.4438 13.296 39.5161 13.3321C39.5408 13.3454 39.5636 13.3568 39.5883 13.3701C39.632 13.393 39.6758 13.4158 39.7195 13.4405C39.7652 13.4652 39.8127 13.4918 39.8583 13.5166C39.9002 13.5394 39.9401 13.5622 39.9819 13.585C39.9914 13.5907 40.0009 13.5964 40.0104 13.6021C40.1416 13.6782 40.2709 13.7542 40.4002 13.8341C40.4021 13.8341 40.4022 13.836 40.4041 13.836C40.4915 13.8912 40.579 13.9463 40.6665 14.0033C40.6665 14.0033 40.6684 14.0052 40.6703 14.0052C40.7083 14.03 40.7463 14.0547 40.7844 14.0794C40.7939 14.0851 40.8015 14.0908 40.811 14.0965C40.8509 14.1231 40.8908 14.1498 40.9289 14.1764C40.9726 14.2049 41.0144 14.2353 41.0582 14.2657C41.0962 14.2924 41.1323 14.319 41.1704 14.3437C41.1818 14.3513 41.1951 14.3608 41.2065 14.3703C41.2312 14.3893 41.2578 14.4065 41.2825 14.4255C41.2978 14.4369 41.3111 14.4464 41.3263 14.4578C41.3643 14.4863 41.4004 14.5129 41.4385 14.5415C41.4746 14.5681 41.5088 14.5947 41.543 14.6213C41.5545 14.6289 41.564 14.6384 41.5754 14.646C41.6914 14.7354 41.8055 14.8248 41.9195 14.918C41.9271 14.9256 41.9367 14.9313 41.9443 14.9389C41.9804 14.9693 42.0165 14.9978 42.0507 15.0282C42.1306 15.0948 42.2086 15.1614 42.2865 15.2298C42.2884 15.2317 42.2884 15.2317 42.2903 15.2336C42.3284 15.2678 42.3664 15.3021 42.4063 15.3363C42.4444 15.3705 42.4843 15.4066 42.5223 15.4409C42.5584 15.4751 42.5965 15.5074 42.6326 15.5416C42.6364 15.5455 42.6402 15.5474 42.644 15.5512C42.6763 15.5816 42.7087 15.612 42.7429 15.6443C42.7486 15.6481 42.7524 15.6538 42.7581 15.6595C42.7942 15.6938 42.8304 15.728 42.8646 15.7641C42.9026 15.8003 42.9387 15.8364 42.9749 15.8744C43.011 15.9105 43.049 15.9486 43.0852 15.9847C43.1213 16.0227 43.1574 16.0589 43.1935 16.0969C43.2297 16.1349 43.2658 16.1729 43.3019 16.211C43.3362 16.2471 43.3704 16.2832 43.4027 16.3213C43.4046 16.3232 43.4065 16.327 43.4103 16.3289C43.4426 16.365 43.475 16.4011 43.5073 16.4353C43.5263 16.4563 43.5453 16.4791 43.5643 16.5C43.5814 16.519 43.5986 16.538 43.6138 16.557C43.6157 16.5589 43.6176 16.5608 43.6195 16.5627C43.6689 16.6198 43.7184 16.6787 43.7678 16.7358C43.802 16.7757 43.8343 16.8156 43.8686 16.8556C43.8838 16.8746 43.899 16.8917 43.9142 16.9107C43.918 16.9145 43.9218 16.9183 43.9237 16.9221C43.9522 16.9564 43.9808 16.9925 44.0074 17.0267C44.0264 17.0495 44.0454 17.0743 44.0644 17.099C44.0967 17.1408 44.1291 17.1807 44.1614 17.2226C44.226 17.3043 44.2888 17.388 44.3496 17.4736C44.3801 17.5135 44.4086 17.5534 44.4371 17.5934C44.439 17.5972 44.4428 17.601 44.4447 17.6029C44.4599 17.6219 44.4732 17.6428 44.4885 17.6637C44.517 17.7017 44.5436 17.7417 44.5702 17.7797C44.6178 17.8482 44.6653 17.9166 44.7128 17.987C44.728 18.0079 44.7414 18.0307 44.7566 18.0516C44.8003 18.1163 44.8421 18.1828 44.8859 18.2494C44.9011 18.2722 44.9144 18.295 44.9296 18.3178C44.9638 18.3711 44.9962 18.4243 45.0285 18.4795C45.0456 18.5061 45.0608 18.5327 45.0779 18.5612C45.1236 18.6373 45.1692 18.7133 45.2129 18.7894C45.2262 18.8103 45.2376 18.8331 45.251 18.854C45.27 18.8883 45.289 18.9206 45.308 18.9548C45.3232 18.9814 45.3384 19.0081 45.3517 19.0347C45.3707 19.067 45.3879 19.0993 45.405 19.1317C45.4069 19.1336 45.4069 19.1355 45.4088 19.1374C45.4259 19.1678 45.4411 19.1982 45.4582 19.2286C45.5191 19.3427 45.5761 19.4568 45.6332 19.5709C45.6465 19.5975 45.6598 19.6261 45.6731 19.6527C45.6769 19.6603 45.6788 19.666 45.6826 19.6736C45.6997 19.7078 45.7149 19.7401 45.7301 19.7725C45.7472 19.8086 45.7644 19.8447 45.7815 19.8809C45.7929 19.9037 45.8043 19.9284 45.8138 19.9512C45.8176 19.9607 45.8214 19.9683 45.8271 19.9778C45.8347 19.9949 45.8423 20.0121 45.8499 20.0292C45.8594 20.052 45.8708 20.0748 45.8803 20.0976C45.8975 20.1337 45.9127 20.1699 45.9279 20.206C45.9431 20.2421 45.9583 20.2783 45.9735 20.3125C45.9906 20.3524 46.0077 20.3924 46.0249 20.4342C46.0382 20.4684 46.0534 20.5026 46.0667 20.5369C46.08 20.5692 46.0933 20.6015 46.1047 20.6338C46.1066 20.6414 46.1104 20.6472 46.1123 20.6548C46.1256 20.689 46.1409 20.7251 46.1542 20.7593C46.1656 20.7917 46.1789 20.824 46.1903 20.8563C46.1941 20.8658 46.1979 20.8753 46.2017 20.8848C46.2131 20.9172 46.2264 20.9514 46.2378 20.9837C46.2511 21.0217 46.2644 21.0598 46.2778 21.0959C46.3025 21.1663 46.3272 21.2347 46.35 21.3051C46.3652 21.3488 46.3785 21.3925 46.3937 21.4382C46.4033 21.4705 46.4147 21.5028 46.4242 21.5332C46.4261 21.539 46.428 21.5466 46.4299 21.5523C46.4527 21.6226 46.4736 21.6911 46.4945 21.7614C46.4983 21.7709 46.5002 21.7823 46.504 21.7918L46.5288 21.8774C46.544 21.9288 46.5573 21.9782 46.5725 22.0295C46.582 22.0638 46.5915 22.098 46.601 22.1322C46.6124 22.1721 46.6219 22.2102 46.6314 22.2501C46.6409 22.29 46.6523 22.3281 46.6619 22.368C46.6695 22.4003 46.6771 22.4307 46.6847 22.4612C46.6961 22.5087 46.7075 22.5562 46.7189 22.6038C46.7265 22.6342 46.7341 22.6665 46.7398 22.697C46.7417 22.7046 46.7436 22.7141 46.7455 22.7217C46.7531 22.7559 46.7607 22.792 46.7683 22.8263C46.7797 22.8776 46.7893 22.927 46.8007 22.9784C46.8083 23.0126 46.814 23.0468 46.8216 23.0811C46.8311 23.1248 46.8387 23.1666 46.8463 23.2104C46.8539 23.2484 46.8596 23.2845 46.8672 23.3225C46.8748 23.3625 46.8805 23.4024 46.8881 23.4423C46.8881 23.4442 46.8881 23.4461 46.8881 23.4461C46.8957 23.4861 46.9014 23.526 46.9072 23.564C46.9072 23.5678 46.9091 23.5716 46.9091 23.5735C46.9148 23.6116 46.9205 23.6477 46.9262 23.6857C46.9319 23.7257 46.9376 23.7675 46.9433 23.8074C46.9509 23.855 46.9566 23.9025 46.9623 23.95C46.9661 23.9767 46.9699 24.0052 46.9737 24.0318C46.9813 24.0869 46.987 24.1402 46.9927 24.1953C46.9965 24.2296 47.0003 24.2657 47.0041 24.2999C47.0041 24.3018 47.0041 24.3037 47.0041 24.3075C47.0079 24.3436 47.0117 24.3779 47.0155 24.414C47.0155 24.4216 47.0174 24.4292 47.0174 24.4387C47.0193 24.4615 47.0212 24.4863 47.0231 24.5091C47.025 24.5243 47.025 24.5395 47.0269 24.5547C47.0288 24.5832 47.0307 24.6099 47.0345 24.6365C47.0365 24.6574 47.0384 24.6764 47.0384 24.6954C47.0403 24.7297 47.0441 24.762 47.046 24.7962C47.0479 24.8266 47.0498 24.8571 47.0517 24.8894C47.0536 24.9103 47.0536 24.9293 47.0555 24.9502C47.0593 25.0111 47.0631 25.0719 47.065 25.1347C47.065 25.1385 47.065 25.1404 47.065 25.1423C47.0669 25.1594 47.0669 25.1765 47.0669 25.1936C47.0688 25.2183 47.0688 25.2431 47.0707 25.2697C47.0707 25.2906 47.0726 25.3115 47.0726 25.3324C47.0726 25.3571 47.0745 25.3819 47.0745 25.4047C47.0745 25.4237 47.0745 25.4427 47.0764 25.4598C47.0764 25.4921 47.0783 25.5264 47.0783 25.5587C47.0783 25.5986 47.0802 25.6367 47.0802 25.6766V25.6785C47.0897 25.7146 47.0897 25.7565 47.0897 25.7983Z" fill="white" stroke="black" stroke-width="1.82345" mask="url(#path-9-inside-1_1241_6188)"/>
<path d="M41.8372 36.4558L41.8372 36.4556C42.545 34.7789 43.0306 32.8841 43.2354 30.8527L41.8372 36.4558ZM41.8372 36.4558C40.1873 40.3693 37.3679 43.0263 34.1797 43.5279L41.8372 36.4558ZM22.8302 27.2895L22.8301 27.29C22.8004 27.7477 22.7855 28.2094 22.7855 28.6789C22.7855 29.3939 22.8208 30.0959 22.8879 30.785C23.0815 32.7606 23.5411 34.6095 24.2103 36.2556L22.8302 27.2895ZM22.8302 27.2895C23.1795 21.8272 25.5495 17.2742 28.7711 15.1119C29.581 14.5683 30.4433 14.1752 31.3415 13.9533C31.9024 13.8154 32.4781 13.7422 33.0654 13.7422C33.6163 13.7422 34.1561 13.8048 34.6816 13.9263L34.6817 13.9264M22.8302 27.2895L34.6817 13.9264M34.6817 13.9264C35.6496 14.15 36.5766 14.5716 37.441 15.166L37.4411 15.1661M34.6817 13.9264L37.4411 15.1661M37.4411 15.1661C40.6225 17.3531 42.9569 21.8818 43.2987 27.3005L43.2988 27.3016M37.4411 15.1661L43.2988 27.3016M43.2988 27.3016C43.3286 27.7555 43.3435 28.2152 43.3435 28.6789C43.3435 29.4164 43.3062 30.1427 43.2355 30.8522L43.2988 27.3016ZM34.1792 43.528C33.8117 43.5853 33.4417 43.6156 33.0654 43.6156H33.0654H33.0653H33.0653H33.0652H33.0652H33.0651H33.0651H33.0651H33.065H33.065H33.0649H33.0649H33.0648H33.0648H33.0647H33.0647H33.0646H33.0646H33.0646H33.0645H33.0645H33.0644H33.0644H33.0643H33.0643H33.0642H33.0642H33.0642H33.0641H33.0641H33.064H33.064H33.0639H33.0639H33.0638H33.0638H33.0638H33.0637H33.0637H33.0636H33.0636H33.0635H33.0635H33.0634H33.0634H33.0634H33.0633H33.0633H33.0632H33.0632H33.0631H33.0631H33.063H33.063H33.063H33.0629H33.0629H33.0628H33.0628H33.0627H33.0627H33.0626H33.0626H33.0626H33.0625H33.0625H33.0624H33.0624H33.0623H33.0623H33.0622H33.0622H33.0622H33.0621H33.0621H33.062H33.062H33.0619H33.0619H33.0618H33.0618H33.0618H33.0617H33.0617H33.0616H33.0616H33.0615H33.0615H33.0615H33.0614H33.0614H33.0613H33.0613H33.0612H33.0612H33.0611H33.0611H33.0611H33.061H33.061H33.0609H33.0609H33.0608H33.0608H33.0607H33.0607H33.0607H33.0606H33.0606H33.0605H33.0605H33.0604H33.0604H33.0603H33.0603H33.0603H33.0602H33.0602H33.0601H33.0601H33.06H33.06H33.06H33.0599H33.0599H33.0598H33.0598H33.0597H33.0597H33.0596H33.0596H33.0596H33.0595H33.0595H33.0594H33.0594H33.0593H33.0593H33.0592H33.0592H33.0592H33.0591H33.0591H33.059H33.059H33.0589H33.0589H33.0589H33.0588H33.0588H33.0587H33.0587H33.0586H33.0586H33.0586H33.0585H33.0585H33.0584H33.0584H33.0583H33.0583H33.0582H33.0582H33.0582H33.0581H33.0581H33.058H33.058H33.0579H33.0579H33.0579H33.0578H33.0578H33.0577H33.0577H33.0576H33.0576H33.0576H33.0575H33.0575H33.0574H33.0574H33.0573H33.0573H33.0573H33.0572H33.0572H33.0571H33.0571H33.057H33.057H33.057H33.0569H33.0569H33.0568H33.0568H33.0567H33.0567H33.0566H33.0566H33.0566H33.0565H33.0565H33.0564H33.0564H33.0563H33.0563H33.0563H33.0562H33.0562H33.0561H33.0561H33.0561H33.056H33.056H33.0559H33.0559H33.0558H33.0558H33.0558H33.0557H33.0557H33.0556H33.0556H33.0555H33.0555H33.0555H33.0554H33.0554H33.0553H33.0553H33.0552H33.0552H33.0552H33.0551H33.0551H33.055H33.055H33.0549H33.0549H33.0549H33.0548H33.0548H33.0547H33.0547H33.0547H33.0546H33.0546H33.0545H33.0545H33.0544H33.0544H33.0544H33.0543H33.0543H33.0542H33.0542H33.0542H33.0541H33.0541H33.054H33.054H33.0539H33.0539H33.0539H33.0538H33.0538H33.0537H33.0537H33.0537H33.0536H33.0536H33.0535H33.0535H33.0534H33.0534H33.0534H33.0533H33.0533H33.0532H33.0532H33.0532H33.0531H33.0531H33.053H33.053H33.053H33.0529H33.0529H33.0528H33.0528H33.0527H33.0527H33.0527H33.0526H33.0526H33.0525H33.0525H33.0525H33.0524H33.0524H33.0523H33.0523H33.0523H33.0522H33.0522H33.0521H33.0521H33.0521H33.052H33.052H33.0519H33.0519H33.0519H33.0518H33.0518H33.0517H33.0517H33.0517H33.0516H33.0516H33.0515H33.0515H33.0514H33.0514H33.0514H33.0513H33.0513H33.0512H33.0512H33.0512H33.0511H33.0511H33.051H33.051H33.051H33.0509H33.0509H33.0509H33.0508H33.0508H33.0507H33.0507H33.0507H33.0506H33.0506H33.0505H33.0505H33.0505H33.0504H33.0504H33.0503H33.0503H33.0503H33.0502H33.0502H33.0501H33.0501H33.0501H33.05H33.05H33.0499H33.0499H33.0499H33.0498H33.0498H33.0498H33.0497H33.0497H33.0496H33.0496H33.0496H33.0495H33.0495H33.0494H33.0494H33.0494H33.0493H33.0493H33.0492H33.0492H33.0492H33.0491H33.0491H33.0491H33.049H33.049H33.0489H33.0489H33.0489H33.0488H33.0488H33.0488H33.0487H33.0487H33.0486H33.0486H33.0486H33.0485H33.0485H33.0484H33.0484H33.0484H33.0483H33.0483H33.0483H33.0482H33.0482H33.0481H33.0481H33.0481H33.048H33.048H33.048H33.0479H33.0479H33.0478H33.0478H33.0478H33.0477H33.0477H33.0477H33.0476H33.0476H33.0476H33.0475H33.0475H33.0474H33.0474H33.0474H33.0473H33.0473H33.0473H33.0472H33.0472H33.0472H33.0471H33.0471H33.047H33.047H33.047H33.0469H33.0469H33.0469H33.0468H33.0468H33.0468H33.0467H33.0467H33.0466H33.0466H33.0466H33.0465H33.0465H33.0465H33.0464H33.0464H33.0464H33.0463H33.0463H33.0463H33.0462H33.0462H33.0461H33.0461H33.0461H33.046H33.046H33.046H33.0459H33.0459H33.0459H33.0458L33.0458 43.6156L33.0458 43.6156H33.0458H33.0457H33.0457H33.0457H33.0456H33.0456H33.0455H33.0455H33.0455H33.0454H33.0454H33.0454H33.0453H33.0453H33.0453H33.0452H33.0452H33.0452C29.3529 43.6046 26.0301 40.7259 24.2103 36.2558L34.1792 43.528Z" fill="white" stroke="black" stroke-width="0.911725"/>
<circle cx="27.977" cy="30.8864" r="1.29998" fill="black"/>
<circle cx="38.2115" cy="30.8864" r="1.29998" fill="black"/>
<circle cx="28.9575" cy="30.2411" r="0.578921" fill="white"/>
<circle cx="39.149" cy="30.2411" r="0.578921" fill="white"/>
<path fill-rule="evenodd" clip-rule="evenodd" d="M40.8276 31.0881C39.0397 29.3002 36.5374 29.9225 35.6198 31.0583C35.4883 31.2211 35.2412 31.2149 35.1588 31.1487C35.0882 31.092 35.1599 30.8012 35.2914 30.6384C36.4683 29.1816 39.2312 28.4196 41.3637 30.5521C41.5117 30.7001 41.5117 30.9401 41.3637 31.0881C41.2157 31.2362 40.9757 31.2362 40.8276 31.0881Z" fill="black"/>
<path fill-rule="evenodd" clip-rule="evenodd" d="M25.2273 31.0881C27.0152 29.3002 29.5175 29.9225 30.4351 31.0583C30.5667 31.2211 30.8137 31.2149 30.8962 31.1487C30.9667 31.092 30.895 30.8012 30.7635 30.6384C29.5866 29.1816 26.8237 28.4196 24.6913 30.5521C24.5432 30.7001 24.5432 30.9401 24.6913 31.0881C24.8393 31.2362 25.0793 31.2362 25.2273 31.0881Z" fill="black"/>
<path fill-rule="evenodd" clip-rule="evenodd" d="M30.9377 38.4252C30.6834 38.1757 31.5449 37.5657 31.802 37.488C31.8851 37.4629 32.0096 37.4307 32.1282 37.4383C32.4288 37.4578 32.6757 37.6642 32.9449 37.7773C32.9794 37.7918 33.0003 37.7981 33.0103 37.8008C33.0204 37.798 33.0425 37.7912 33.0794 37.7756C33.1439 37.7483 33.2172 37.7104 33.3095 37.6627C33.3951 37.6185 33.4991 37.5647 33.6 37.5232C33.6947 37.4842 33.8284 37.4375 33.9703 37.4375C34.0846 37.4375 34.1975 37.4684 34.2835 37.4974C34.5618 37.5912 35.3404 38.0502 35.1275 38.3848C34.9316 38.6928 34.2998 38.2185 34.0379 38.1302C33.9973 38.1165 33.9749 38.1121 33.9675 38.1107C33.9602 38.1124 33.9349 38.1182 33.8853 38.1386C33.5987 38.2567 33.3299 38.4753 33.0076 38.4753C32.6597 38.4753 32.3946 38.2172 32.0795 38.1121C32.0686 38.1144 32.0486 38.1189 32.0178 38.1282C31.957 38.1466 31.8816 38.1749 31.802 38.2095C31.5413 38.3226 31.2198 38.5965 30.9377 38.4252Z" fill="#CAC9C9"/>
<path fill-rule="evenodd" clip-rule="evenodd" d="M34.4901 38.9717C34.6081 39.1447 34.5635 39.3805 34.3906 39.4985C33.9532 39.797 33.4228 39.8932 32.9483 39.8742C32.4775 39.8554 32.01 39.721 31.6851 39.4978C31.5126 39.3792 31.4669 39.1442 31.5855 38.9716C31.6832 38.8293 31.8771 39.3333 32.9483 39.3761C34.0196 39.4189 34.4116 38.8568 34.4901 38.9717Z" fill="#CAC9C9"/>
<path fill-rule="evenodd" clip-rule="evenodd" d="M34.7129 11.828C41.6854 12.6649 47.0893 18.6013 47.0893 25.7982C47.0893 26.2683 47.0666 26.7349 47.0212 27.1946C47.0177 27.2298 46.9902 27.2578 46.9551 27.262C46.4133 27.3256 45.8611 27.3575 45.3018 27.3575C40.0663 27.3575 35.499 24.4978 33.0757 20.2561C33.0463 20.2046 32.9716 20.2046 32.9421 20.2561C30.5189 24.4978 25.9516 27.3575 20.716 27.3575C20.1643 27.3575 19.6179 27.3257 19.082 27.2638C19.0468 27.2597 19.0192 27.2317 19.0157 27.1964C18.9703 26.7367 18.9476 26.2701 18.9476 25.7982C18.9476 18.607 24.3419 12.6763 31.3049 11.8299C31.305 11.8299 31.305 11.8299 31.305 11.8299C31.305 11.8299 31.305 11.8299 31.305 11.8299C31.8659 11.7614 32.4383 11.7272 33.0182 11.7272C33.5906 11.7272 34.1572 11.7614 34.7124 11.828C34.7126 11.828 34.7127 11.828 34.7129 11.828Z" fill="white"/>
<path fill-rule="evenodd" clip-rule="evenodd" d="M33.4548 20.8813C35.957 24.7764 40.298 27.5448 45.272 27.5448C45.4528 27.5448 46.9781 27.6596 46.9998 27.4392C47.0452 26.9795 47.0893 26.2683 47.0893 25.7982C47.0893 18.6013 41.6854 12.6649 34.7129 11.828C34.1577 11.7615 33.5906 11.7272 33.0182 11.7272C32.4383 11.7272 31.8659 11.7614 31.305 11.8299C24.342 12.6763 18.9476 18.607 18.9476 25.7982C18.9476 26.2701 18.9703 26.7367 19.0157 27.1964C19.0372 27.414 20.5157 27.5448 20.716 27.5448C25.69 27.5448 30.0609 24.7764 32.5631 20.8813C32.573 20.8659 32.5829 20.8504 32.5928 20.8349C33.0436 20.1271 33.1886 20.4636 33.4251 20.8349C33.435 20.8504 33.4449 20.8659 33.4548 20.8813ZM34.6225 12.5807C34.0972 12.5177 33.5604 12.4853 33.0182 12.4853C32.4712 12.4853 31.9325 12.5174 31.4058 12.5813C31.4027 12.5817 31.3995 12.5821 31.3964 12.5825C24.8092 13.3832 19.7057 18.995 19.7057 25.7982C19.7057 26.0553 19.7128 26.3104 19.727 26.5633C20.0537 26.5872 20.3838 26.5994 20.716 26.5994C25.6685 26.5994 29.9901 23.8952 32.2839 19.8801C32.6043 19.3192 33.4135 19.3192 33.734 19.8801C36.0278 23.8952 40.3493 26.5994 45.3018 26.5994C45.6414 26.5994 45.9777 26.587 46.3099 26.5624C46.3241 26.3094 46.3312 26.0545 46.3312 25.7982C46.3312 18.9896 41.2184 13.3725 34.6225 12.5807Z" fill="black"/>
<path d="M20.4419 25.4939C21.9524 20.8448 26.5821 15.8373 30.4762 13.2295C30.56 13.1733 30.506 13.0434 30.4078 13.0662C24.9076 14.3464 20.9963 18.7919 20.2315 25.4542C20.2187 25.5662 20.4071 25.6011 20.4419 25.4939Z" fill="#CAC9C9"/>
<path d="M26.4062 23.2208C26.0705 19.0174 28.1895 15.0174 30.3452 13.3145C30.4182 13.2568 30.3716 13.1371 30.2792 13.1493C26.7261 13.6207 25.1737 16.7382 26.4062 23.2208Z" fill="#CAC9C9"/>
<path d="M31.3442 42.4953C25.7798 38.4438 24.4773 31.6289 23.6877 28.2436C23.6645 28.1439 23.5329 28.154 23.5281 28.2562C23.3487 32.1198 24.9444 40.1516 31.2645 42.65C31.3631 42.6889 31.4298 42.5577 31.3442 42.4953Z" fill="#CAC9C9"/>
<path d="M32.9872 34.9592C32.9877 33.4145 32.9872 30.899 32.9879 29.4577C32.9879 29.3959 32.9272 29.3533 32.8748 29.3859C31.7337 30.0943 31.8675 35.6017 32.9429 35.0338C32.9698 35.0196 32.9872 34.9896 32.9872 34.9592Z" fill="#CAC9C9"/>
</g>
<circle cx="50.3053" cy="50.7847" r="9.6" fill="#CAC9C9" stroke="white" stroke-width="1.2"/>
<circle cx="50.3053" cy="50.7847" r="8.4" fill="black" stroke="black" stroke-width="1.2"/>
<path d="M46.2858 55.7847V45.6028H50.7005C51.4761 45.6028 52.1274 45.7073 52.6544 45.9161C53.1847 46.1249 53.5841 46.4198 53.8525 46.801C54.1243 47.1822 54.2602 47.6313 54.2602 48.1483C54.2602 48.5228 54.1773 48.8642 54.0116 49.1725C53.8492 49.4807 53.6205 49.7392 53.3255 49.948C53.0306 50.1535 52.6859 50.296 52.2914 50.3756V50.475C52.7289 50.4916 53.1267 50.6026 53.4846 50.8081C53.8426 51.0103 54.1276 51.2903 54.3397 51.6483C54.5519 52.0029 54.6579 52.4206 54.6579 52.9011C54.6579 53.458 54.5121 53.9535 54.2204 54.3877C53.9321 54.8218 53.5211 55.1632 52.9875 55.4118C52.4539 55.6604 51.8175 55.7847 51.0784 55.7847H46.2858ZM49.05 53.5773H50.3426C50.8066 53.5773 51.1546 53.4911 51.3866 53.3188C51.6186 53.1431 51.7346 52.8846 51.7346 52.5432C51.7346 52.3046 51.6799 52.1024 51.5706 51.9367C51.4612 51.7709 51.3054 51.645 51.1032 51.5588C50.9044 51.4726 50.6641 51.4296 50.3824 51.4296H49.05V53.5773ZM49.05 49.7193H50.1835C50.4254 49.7193 50.6392 49.6812 50.8248 49.605C51.0104 49.5287 51.1546 49.4194 51.2574 49.2769C51.3634 49.131 51.4164 48.9537 51.4164 48.7449C51.4164 48.43 51.3038 48.1897 51.0784 48.024C50.853 47.855 50.568 47.7705 50.2233 47.7705H49.05V49.7193Z" fill="white"/>
<defs>
<filter id="filter0_d_1241_6188" x="8.72839" y="7.61035" width="40.3151" height="43.6334" filterUnits="userSpaceOnUse" color-interpolation-filters="sRGB">
<feFlood flood-opacity="0" result="BackgroundImageFix"/>
<feColorMatrix in="SourceAlpha" type="matrix" values="0 0 0 0 0 0 0 0 0 0 0 0 0 0 0 0 0 0 127 0" result="hardAlpha"/>
<feOffset dx="-1" dy="1.5"/>
<feComposite in2="hardAlpha" operator="out"/>
<feColorMatrix type="matrix" values="0 0 0 0 0 0 0 0 0 0 0 0 0 0 0 0 0 0 0.25 0"/>
<feBlend mode="normal" in2="BackgroundImageFix" result="effect1_dropShadow_1241_6188"/>
<feBlend mode="normal" in="SourceGraphic" in2="effect1_dropShadow_1241_6188" result="shape"/>
</filter>
<radialGradient id="paint0_radial_1241_6188" cx="0" cy="0" r="1" gradientUnits="userSpaceOnUse" gradientTransform="translate(20.2136 41.7368) rotate(-58.3553) scale(35.7618 32.9607)">
<stop stop-color="white"/>
<stop offset="1" stop-color="white"/>
</radialGradient>
<radialGradient id="paint1_radial_1241_6188" cx="0" cy="0" r="1" gradientUnits="userSpaceOnUse" gradientTransform="translate(20.2908 42.1981) rotate(-58.0129) scale(35.9271 33.1081)">
<stop stop-color="white"/>
<stop offset="1" stop-color="white"/>
</radialGradient>
</defs>
</svg>
