<svg width="60" height="61" viewBox="0 0 60 61" fill="none" xmlns="http://www.w3.org/2000/svg">
<circle cx="30.0001" cy="30.9073" r="29.0001" fill="white" stroke="white" stroke-width="2"/>
<g filter="url(#filter0_d_1241_6744)">
<ellipse cx="29.5322" cy="23.63" rx="20" ry="14.4444" fill="#CAC9C9"/>
<ellipse cx="29.5322" cy="23.63" rx="20" ry="14.4444" stroke="black"/>
</g>
<path fill-rule="evenodd" clip-rule="evenodd" d="M34.2325 36.7844C37.3865 34.261 39.5331 29.2768 39.5331 23.5405C39.5331 17.8043 37.3865 12.82 34.2325 10.2967C40.5266 12.0755 45.0886 17.3323 45.0886 23.5405C45.0886 29.7487 40.5266 35.0056 34.2325 36.7844ZM24.8337 36.7844C18.5395 35.0056 13.9775 29.7487 13.9775 23.5405C13.9775 17.3323 18.5395 12.0755 24.8337 10.2967C21.6797 12.82 19.5331 17.8043 19.5331 23.5405C19.5331 29.2768 21.6797 34.261 24.8337 36.7844Z" fill="white"/>
<path d="M41.8042 36.4682C41.8042 38.1738 41.8042 38.38 41.8042 38.38C41.8042 38.38 47.5322 38.0268 47.5322 36.3212C47.5322 34.6156 37.2217 33.38 30.9209 33.38C24.62 33.38 41.8042 34.7627 41.8042 36.4682Z" fill="#CAC9C9" stroke="black" stroke-width="1.11111"/>
<path d="M17.2603 36.4682C17.2603 38.1738 17.2603 38.38 17.2603 38.38C17.2603 38.38 11.5322 38.0268 11.5322 36.3212C11.5322 34.6156 21.8427 33.38 28.1436 33.38C34.4444 33.38 17.2603 34.7627 17.2603 36.4682Z" fill="#CAC9C9" stroke="black" stroke-width="1.11111"/>
<path fill-rule="evenodd" clip-rule="evenodd" d="M37.3502 34.8196C38.5922 33.5786 39.9569 30.8301 40.869 27.4872C41.781 24.1443 42.0012 21.0835 41.5615 19.3837C42.9567 20.8779 43.3372 24.2733 42.3501 27.8913C41.363 31.5092 39.311 34.241 37.3502 34.8196Z" fill="#CAC9C9"/>
<path fill-rule="evenodd" clip-rule="evenodd" d="M21.638 34.8196C20.3961 33.5786 19.0313 30.8301 18.1193 27.4872C17.2073 24.1443 16.9871 21.0835 17.4268 19.3837C16.0315 20.8779 15.6511 24.2733 16.6382 27.8913C17.6253 31.5092 19.6773 34.241 21.638 34.8196Z" fill="#CAC9C9"/>
<path fill-rule="evenodd" clip-rule="evenodd" d="M31.5464 36.7847C32.8982 34.2614 33.8183 29.277 33.8183 23.5405C33.8183 17.804 32.8982 12.8196 31.5464 10.2964C34.2442 12.0749 36.1995 17.332 36.1995 23.5405C36.1995 29.7491 34.2442 35.0062 31.5464 36.7847ZM27.5184 36.7841C24.8211 35.0049 22.8662 29.7484 22.8662 23.5405C22.8662 17.3327 24.8211 12.0761 27.5184 10.297C26.1667 12.8205 25.2469 17.8045 25.2469 23.5405C25.2469 29.2766 26.1667 34.2606 27.5184 36.7841Z" fill="white"/>
<g filter="url(#filter1_d_1241_6744)">
<path d="M42.8042 45.1153C42.8042 51.5965 42.8042 52.38 42.8042 52.38C42.8042 52.38 48.5322 51.0377 48.5322 44.5565C48.5322 38.0753 38.2217 33.38 31.9209 33.38C25.62 33.38 42.8042 38.6341 42.8042 45.1153Z" fill="#CAC9C9"/>
<path d="M42.8042 45.1153C42.8042 51.5965 42.8042 52.38 42.8042 52.38C42.8042 52.38 48.5322 51.0377 48.5322 44.5565C48.5322 38.0753 38.2217 33.38 31.9209 33.38C25.62 33.38 42.8042 38.6341 42.8042 45.1153Z" stroke="black"/>
</g>
<path fill-rule="evenodd" clip-rule="evenodd" d="M44.2339 48.38C45.8539 47.2171 46.49 44.757 45.6483 42.2262C44.8065 39.6955 42.7448 37.8698 40.6424 37.5825C41.9172 38.3917 43.2277 40.2742 44.0055 42.6126C44.7833 44.951 44.8244 47.132 44.2339 48.38Z" fill="white"/>
<g filter="url(#filter2_d_1241_6744)">
<path d="M41.7451 46.9634C40.8963 51.1343 32.3005 53.0745 28.9672 53.0745C21.1896 53.0745 17.8658 48.63 17.3105 46.4078C16.7551 44.1856 18.4019 42.5189 17.8561 39.1856C17.3102 35.8522 19.5227 31.9634 20.6338 30.8522C21.7449 29.7411 25.0787 28.0745 29.5232 28.0745C33.9676 28.0745 36.7454 29.7411 38.4121 30.8522C40.0787 31.9634 42.3312 36.2247 41.7451 39.7411C41.1591 43.2575 42.594 42.7924 41.7451 46.9634Z" fill="white"/>
<path d="M41.7451 46.9634C40.8963 51.1343 32.3005 53.0745 28.9672 53.0745C21.1896 53.0745 17.8658 48.63 17.3105 46.4078C16.7551 44.1856 18.4019 42.5189 17.8561 39.1856C17.3102 35.8522 19.5227 31.9634 20.6338 30.8522C21.7449 29.7411 25.0787 28.0745 29.5232 28.0745C33.9676 28.0745 36.7454 29.7411 38.4121 30.8522C40.0787 31.9634 42.3312 36.2247 41.7451 39.7411C41.1591 43.2575 42.594 42.7924 41.7451 46.9634Z" stroke="black"/>
</g>
<g filter="url(#filter3_d_1241_6744)">
<path d="M17.2603 45.1153C17.2603 51.5965 17.2603 52.38 17.2603 52.38C17.2603 52.38 11.5322 51.0377 11.5322 44.5565C11.5322 38.0753 21.8427 33.38 28.1436 33.38C34.4444 33.38 17.2603 38.6341 17.2603 45.1153Z" fill="#CAC9C9"/>
<path d="M17.2603 45.1153C17.2603 51.5965 17.2603 52.38 17.2603 52.38C17.2603 52.38 11.5322 51.0377 11.5322 44.5565C11.5322 38.0753 21.8427 33.38 28.1436 33.38C34.4444 33.38 17.2603 38.6341 17.2603 45.1153Z" stroke="black"/>
</g>
<path fill-rule="evenodd" clip-rule="evenodd" d="M16.1494 48.3545C14.3998 47.3331 13.4755 44.9384 14.0135 42.3497C14.5515 39.7611 16.3868 37.7719 18.4447 37.31C17.2721 38.222 16.1909 40.2048 15.6938 42.5967C15.1968 44.9885 15.4141 47.1622 16.1494 48.3545Z" fill="white"/>
<path d="M24.2278 33.38H20.9025H16.247C15.5819 33.38 14.5485 34.1152 14.2513 34.7101C13.5868 36.0403 13.5868 39.3656 14.2513 40.6958C14.5485 41.2908 15.6522 42.394 16.2465 42.691C17.5773 43.3561 23.0375 43.2856 24.2273 42.691C25.5582 42.0259 26.8883 41.3609 27.5527 40.0307C28.2171 38.7006 28.148 37.1612 27.5527 35.3752C27.0207 33.779 24.8934 33.38 24.2278 33.38Z" fill="white" stroke="black" stroke-width="1.33015"/>
<path d="M34.6765 33.38H38.0018H42.6573C43.3224 33.38 44.3558 34.1152 44.653 34.7101C45.3175 36.0403 45.3175 39.3656 44.653 40.6958C44.3558 41.2908 43.2521 42.394 42.6578 42.691C41.327 43.3561 35.8668 43.2856 34.677 42.691C33.3461 42.0259 32.0159 41.3609 31.3516 40.0307C30.6872 38.7006 30.7563 37.1612 31.3516 35.3752C31.8836 33.779 34.0109 33.38 34.6765 33.38Z" fill="white" stroke="black" stroke-width="1.33015"/>
<path d="M27.5537 36.7054C29.5489 36.0403 29.5489 36.0403 30.8791 36.7054" stroke="black" stroke-width="1.33015"/>
<path fill-rule="evenodd" clip-rule="evenodd" d="M24.5322 46.6906C24.5322 46.3838 24.781 46.4078 25.0878 46.4078C26.1322 46.4078 26.9167 46.5557 27.6065 46.6968C27.6525 46.7062 27.6979 46.7156 27.7427 46.7248C28.3743 46.8546 28.9033 46.9633 29.5322 46.9633C30.2125 46.9633 30.902 46.8357 31.6521 46.6951L31.6758 46.6906C32.4006 46.5547 33.1841 46.4078 33.9767 46.4078C34.2835 46.4078 34.3915 46.3838 34.3915 46.6906C34.3915 46.9975 34.2835 46.9633 33.9767 46.9633C33.2964 46.9633 32.6069 47.6465 31.8568 47.7872L31.8331 47.7916C31.1083 47.9275 30.3248 48.0745 29.5322 48.0745C28.7858 48.0745 28.1522 47.9438 27.5357 47.8166C27.485 47.8062 27.4344 47.7957 27.3839 47.7854C26.7157 47.6487 26.0187 46.9633 25.0878 46.9633C24.781 46.9633 24.5322 46.9975 24.5322 46.6906Z" fill="black"/>
<path d="M24.5322 31.38C26.5076 31.38 27.4952 31.9356 28.9767 31.9356C30.4582 31.9356 31.9396 31.38 33.4211 31.38" stroke="black" stroke-width="1.11111" stroke-linecap="round" stroke-linejoin="round"/>
<path fill-rule="evenodd" clip-rule="evenodd" d="M26.4477 43.1331C26.1733 42.9959 25.8395 43.1071 25.7023 43.3816C25.5651 43.656 25.6763 43.9897 25.9508 44.1269C26.5704 44.4367 27.0101 44.5009 27.4166 44.3654C27.5307 44.3274 27.6807 44.2522 27.7365 44.2242C27.7471 44.2188 27.7544 44.2152 27.7572 44.2139C27.8053 44.1921 27.8292 44.1861 27.8612 44.1856C27.8675 44.1873 27.9062 44.1987 27.9861 44.2611C28.0918 44.3436 28.2025 44.4606 28.3459 44.6153L28.3652 44.6362C28.4884 44.7693 28.6488 44.9425 28.817 45.0695C28.977 45.1903 29.2622 45.3601 29.6123 45.2926C29.8956 45.2641 30.1175 45.092 30.2343 44.9952C30.3546 44.8955 30.4833 44.7679 30.5941 44.658L30.5941 44.658L30.5943 44.6578C30.621 44.6314 30.6466 44.606 30.6707 44.5823C30.8111 44.4446 30.929 44.337 31.0375 44.2633C31.1484 44.1881 31.1963 44.1856 31.1986 44.1856C31.233 44.1856 31.2568 44.191 31.3072 44.2139C31.3101 44.2152 31.3173 44.2188 31.328 44.2242C31.3838 44.2522 31.5338 44.3274 31.6479 44.3654C32.0544 44.5009 32.4941 44.4367 33.1137 44.1269C33.3881 43.9897 33.4994 43.656 33.3622 43.3816C33.2249 43.1071 32.8912 42.9959 32.6168 43.1331C32.1441 43.3695 32.0189 43.3192 32.0009 43.3119L31.9993 43.3113C31.9619 43.2989 31.9474 43.2912 31.9183 43.2759C31.891 43.2616 31.8509 43.2405 31.767 43.2024C31.6264 43.1385 31.442 43.0745 31.1986 43.0745C30.8785 43.0745 30.6097 43.2109 30.4136 43.3439C30.2152 43.4786 30.0358 43.6487 29.8929 43.7889C29.8562 43.8248 29.8224 43.8583 29.7906 43.8897L29.7906 43.8897L29.7906 43.8897C29.6852 43.9941 29.6037 44.0748 29.5252 44.1398C29.5063 44.1555 29.4907 44.1675 29.4783 44.1765C29.3985 44.1143 29.3039 44.0144 29.1608 43.86L29.1516 43.8501C29.0226 43.7109 28.8544 43.5293 28.6697 43.3852C28.4827 43.2392 28.2085 43.0745 27.8659 43.0745C27.6225 43.0745 27.438 43.1385 27.2975 43.2024C27.2136 43.2405 27.1735 43.2616 27.1462 43.2759C27.1171 43.2912 27.1026 43.2989 27.0652 43.3113L27.0636 43.3119C27.0456 43.3192 26.9204 43.3695 26.4477 43.1331Z" fill="black"/>
<path fill-rule="evenodd" clip-rule="evenodd" d="M23.3692 50.0973C23.3692 49.5167 23.0322 48.38 23.0322 47.38C23.0322 46.4188 24.043 45.2863 24.6337 44.3021L25.0533 44.2268C24.5322 45.88 24.2703 46.0663 24.0322 46.88C23.7554 47.8264 23.7764 49.5826 23.7764 50.0973H23.3692Z" fill="black"/>
<path fill-rule="evenodd" clip-rule="evenodd" d="M36.1988 50.38C36.1988 49.7866 36.5322 48.6248 36.5322 47.6027C36.5322 46.6203 35.532 45.4629 34.9475 44.4569L34.5322 44.38C35.0479 46.0697 35.3071 46.2601 35.5427 47.0917C35.8166 48.059 35.7958 49.8539 35.7958 50.38H36.1988Z" fill="black"/>
<circle cx="23.5322" cy="39.38" r="1" fill="black" stroke="black" stroke-width="0.666667"/>
<circle cx="35.5322" cy="39.38" r="1" fill="black" stroke="black" stroke-width="0.666667"/>
<circle cx="23.5322" cy="39.38" r="3" stroke="black" stroke-width="0.857143"/>
<circle cx="35.5322" cy="39.38" r="3" stroke="black" stroke-width="0.857143"/>
<defs>
<filter id="filter0_d_1241_6744" x="8.03223" y="8.68555" width="42" height="30.8889" filterUnits="userSpaceOnUse" color-interpolation-filters="sRGB">
<feFlood flood-opacity="0" result="BackgroundImageFix"/>
<feColorMatrix in="SourceAlpha" type="matrix" values="0 0 0 0 0 0 0 0 0 0 0 0 0 0 0 0 0 0 127 0" result="hardAlpha"/>
<feOffset dx="-1" dy="1"/>
<feComposite in2="hardAlpha" operator="out"/>
<feColorMatrix type="matrix" values="0 0 0 0 0 0 0 0 0 0 0 0 0 0 0 0 0 0 0.25 0"/>
<feBlend mode="normal" in2="BackgroundImageFix" result="effect1_dropShadow_1241_6744"/>
<feBlend mode="normal" in="SourceGraphic" in2="effect1_dropShadow_1241_6744" result="shape"/>
</filter>
<filter id="filter1_d_1241_6744" x="29.0322" y="32.88" width="20" height="21.1307" filterUnits="userSpaceOnUse" color-interpolation-filters="sRGB">
<feFlood flood-opacity="0" result="BackgroundImageFix"/>
<feColorMatrix in="SourceAlpha" type="matrix" values="0 0 0 0 0 0 0 0 0 0 0 0 0 0 0 0 0 0 127 0" result="hardAlpha"/>
<feOffset dx="-1" dy="1"/>
<feComposite in2="hardAlpha" operator="out"/>
<feColorMatrix type="matrix" values="0 0 0 0 0 0 0 0 0 0 0 0 0 0 0 0 0 0 0.25 0"/>
<feBlend mode="normal" in2="BackgroundImageFix" result="effect1_dropShadow_1241_6744"/>
<feBlend mode="normal" in="SourceGraphic" in2="effect1_dropShadow_1241_6744" result="shape"/>
</filter>
<filter id="filter2_d_1241_6744" x="15.6948" y="27.5745" width="26.8264" height="27" filterUnits="userSpaceOnUse" color-interpolation-filters="sRGB">
<feFlood flood-opacity="0" result="BackgroundImageFix"/>
<feColorMatrix in="SourceAlpha" type="matrix" values="0 0 0 0 0 0 0 0 0 0 0 0 0 0 0 0 0 0 127 0" result="hardAlpha"/>
<feOffset dx="-1" dy="1"/>
<feComposite in2="hardAlpha" operator="out"/>
<feColorMatrix type="matrix" values="0 0 0 0 0 0 0 0 0 0 0 0 0 0 0 0 0 0 0.25 0"/>
<feBlend mode="normal" in2="BackgroundImageFix" result="effect1_dropShadow_1241_6744"/>
<feBlend mode="normal" in="SourceGraphic" in2="effect1_dropShadow_1241_6744" result="shape"/>
</filter>
<filter id="filter3_d_1241_6744" x="10.0322" y="32.88" width="20" height="21.1307" filterUnits="userSpaceOnUse" color-interpolation-filters="sRGB">
<feFlood flood-opacity="0" result="BackgroundImageFix"/>
<feColorMatrix in="SourceAlpha" type="matrix" values="0 0 0 0 0 0 0 0 0 0 0 0 0 0 0 0 0 0 127 0" result="hardAlpha"/>
<feOffset dx="-1" dy="1"/>
<feComposite in2="hardAlpha" operator="out"/>
<feColorMatrix type="matrix" values="0 0 0 0 0 0 0 0 0 0 0 0 0 0 0 0 0 0 0.25 0"/>
<feBlend mode="normal" in2="BackgroundImageFix" result="effect1_dropShadow_1241_6744"/>
<feBlend mode="normal" in="SourceGraphic" in2="effect1_dropShadow_1241_6744" result="shape"/>
</filter>
</defs>
</svg>
