<svg width="61" height="61" viewBox="0 0 61 61" fill="none" xmlns="http://www.w3.org/2000/svg">
<circle cx="30.1052" cy="30.4991" r="29.0001" fill="white" stroke="white" stroke-width="2"/>
<path d="M50.7628 29.0921C35.5476 27.8169 36.3969 31.0721 29.9498 31.0721C23.5027 31.0721 23.2448 26.9914 9.31897 28.7765C15.7661 30.052 16.7976 39.999 29.9498 39.999C43.1019 39.999 44.5736 30.6226 50.7628 29.0921Z" fill="#CAC9C9"/>
<path d="M23.1888 20.999C17.9529 20.9991 18.5297 24.9976 9.1051 28.8665C21.9635 26.9367 23.9742 31.7764 29.9955 31.7764C36.0167 31.7764 36.1828 27.809 51.1051 29.1908C41.4187 25.8746 42.5616 20.9991 37.0639 20.999C33.4974 20.999 30.8681 23.4861 29.9955 24.8678C29.2973 23.6703 26.9645 20.999 23.1888 20.999Z" fill="white"/>
<path fill-rule="evenodd" clip-rule="evenodd" d="M29.3832 24.0071C28.308 22.7099 26.2104 20.999 23.1888 20.999C20.5435 20.999 19.3819 22.0197 17.6646 23.5286C16.3767 24.6602 14.7762 26.0665 12.0029 27.5228C11.1549 27.9682 10.1971 28.4182 9.1051 28.8665C10.2437 28.6956 11.2973 28.5778 12.2761 28.505C18.2852 28.0582 21.4774 29.3082 24.2396 30.3898C26.1086 31.1216 27.7807 31.7764 29.9955 31.7764C32.1763 31.7764 33.589 31.2559 35.2129 30.6577C37.7231 29.733 40.7378 28.6224 47.8737 28.9607C48.8676 29.0078 49.9415 29.083 51.1051 29.1908C49.97 28.8022 48.9837 28.3922 48.1179 27.9711C45.146 26.5257 43.5951 24.9501 42.3281 23.6629C40.8144 22.1251 39.706 20.999 37.0639 20.999C34.1432 20.999 31.851 22.6669 30.6374 24.0298C30.3691 24.3312 30.1535 24.6176 29.9955 24.8678C29.856 24.6287 29.6514 24.3308 29.3832 24.0071ZM45.9096 27.9012C44.0267 26.7503 42.8177 25.5731 41.8169 24.5592C41.7621 24.5036 41.7083 24.4491 41.6556 24.3956C40.9009 23.6298 40.3491 23.0699 39.6992 22.6652C39.0521 22.2623 38.2747 21.9994 37.0639 21.9994C33.9356 21.9994 31.5802 24.2131 30.8258 25.4075L29.9619 26.7754L29.1466 25.3771C28.5459 24.3467 26.483 21.9994 23.1888 21.9994C22.0183 21.9994 21.2311 22.2194 20.5578 22.5728C19.8501 22.9442 19.2238 23.4822 18.3633 24.2382L18.3179 24.2781C17.2917 25.1797 16.0554 26.266 14.2015 27.4155C17.7873 27.3586 20.318 27.9354 22.4263 28.6488C23.1659 28.8991 23.8472 29.1639 24.4849 29.4135C24.5197 29.4271 24.5544 29.4407 24.5889 29.4542C25.1929 29.6907 25.753 29.91 26.3149 30.1025C27.4876 30.5044 28.6314 30.776 29.9955 30.776C31.993 30.776 33.1981 30.3318 34.7555 29.7576C35.3936 29.5224 36.0908 29.2654 36.9259 29.0082C38.9902 28.3723 41.6466 27.8536 45.9096 27.9012Z" fill="black" stroke="black" stroke-width="0.3"/>
<path fill-rule="evenodd" clip-rule="evenodd" d="M17.3779 34.6016C20.0633 36.96 23.5431 39.1567 30.0486 39.1567C36.5667 39.1567 40.1617 37.0804 42.9225 34.8223C43.6191 34.2525 44.2626 33.6709 44.8926 33.1007L44.9218 33.0742C45.5386 32.5159 46.1452 31.9668 46.7634 31.466C48.0198 30.4481 49.3641 29.5956 51.053 29.2203C48.1975 29.8548 45.7965 33.6377 43.6046 35.4306C40.7098 37.7984 36.8821 39.999 30.0486 39.999C23.2027 39.999 19.4831 37.6585 16.6709 35.1889C14.6531 33.4169 11.8726 29.4019 9.20537 28.9277C10.9723 29.2419 12.3462 30.0883 13.604 31.1279C14.2321 31.6471 14.8402 32.2222 15.4552 32.8101C15.5152 32.8674 15.5752 32.9248 15.6353 32.9823C16.1954 33.5184 16.7654 34.0637 17.3779 34.6016Z" fill="black" stroke="black" stroke-width="0.3" stroke-linejoin="round"/>
<path d="M21.3564 34.3173C23.189 35.5384 24.8121 36.5642 27.1159 36.7595M36.2787 24.7925C37.8495 24.7927 38.8966 25.2812 39.9438 26.5021" stroke="black" stroke-linecap="round" stroke-linejoin="round"/>
<path d="M40.2439 18.6914L43.1909 13.5871" stroke="black" stroke-miterlimit="10" stroke-linecap="round" stroke-linejoin="round"/>
<path d="M44.701 15.442L43.6157 12.8508L40.829 13.2065" stroke="black" stroke-miterlimit="10" stroke-linecap="round" stroke-linejoin="round"/>
<path d="M19.4204 18.6914L16.4734 13.5871" stroke="black" stroke-miterlimit="10" stroke-linecap="round" stroke-linejoin="round"/>
<path d="M14.9633 15.442L16.0486 12.8508L18.8353 13.2065" stroke="black" stroke-miterlimit="10" stroke-linecap="round" stroke-linejoin="round"/>
</svg>
