<svg width="60" height="61" viewBox="0 0 60 61" fill="none" xmlns="http://www.w3.org/2000/svg">
<circle cx="30.0002" cy="30.4561" r="29.0001" fill="white" stroke="white" stroke-width="2"/>
<rect x="10.3556" y="17.2061" width="39.2891" height="26.5005" rx="2.25" fill="white" stroke="black" stroke-width="1.5"/>
<ellipse cx="30.5514" cy="30.4561" rx="8.11136" ry="8.11137" fill="#D9D9D9"/>
<path d="M29.2568 27.8806L34.0144 30.6636L29.2568 33.0423V27.8806Z" fill="white"/>
<path d="M30.5511 22.3447C28.9468 22.3447 27.3785 22.8205 26.0446 23.7118C24.7106 24.6031 23.671 25.8699 23.057 27.3521C22.4431 28.8343 22.2825 30.4652 22.5954 32.0387C22.9084 33.6122 23.681 35.0575 24.8154 36.1919C25.9498 37.3263 27.3951 38.0989 28.9686 38.4118C30.5421 38.7248 32.173 38.5642 33.6552 37.9502C35.1374 37.3363 36.4042 36.2966 37.2955 34.9627C38.1868 33.6288 38.6625 32.0605 38.6625 30.4562C38.6601 28.3057 37.8047 26.2439 36.2841 24.7232C34.7634 23.2025 32.7016 22.3472 30.5511 22.3447ZM30.5511 37.0929C29.2385 37.0929 27.9553 36.7036 26.8639 35.9744C25.7725 35.2452 24.9219 34.2086 24.4196 32.996C23.9173 31.7833 23.7858 30.4488 24.0419 29.1615C24.298 27.8741 24.9301 26.6915 25.8582 25.7634C26.7864 24.8352 27.9689 24.2031 29.2563 23.9471C30.5437 23.691 31.8781 23.8224 33.0908 24.3247C34.3035 24.827 35.34 25.6777 36.0693 26.7691C36.7985 27.8605 37.1877 29.1436 37.1877 30.4562C37.1857 32.2157 36.4858 33.9026 35.2417 35.1468C33.9975 36.391 32.3106 37.0909 30.5511 37.0929Z" fill="black"/>
<path d="M33.9121 29.8423L29.4876 26.8927C29.3765 26.8189 29.2474 26.7765 29.1142 26.7702C28.9809 26.7639 28.8484 26.7938 28.7308 26.8568C28.6131 26.9198 28.5148 27.0134 28.4462 27.1279C28.3775 27.2423 28.3412 27.3731 28.341 27.5066V33.4058C28.3411 33.5393 28.3774 33.6702 28.446 33.7847C28.5146 33.8992 28.613 33.9929 28.7306 34.0559C28.8483 34.1188 28.9808 34.1488 29.1141 34.1424C29.2474 34.136 29.3765 34.0936 29.4876 34.0197L33.9121 31.0701C34.013 31.0026 34.0958 30.9113 34.153 30.8042C34.2103 30.6972 34.2402 30.5776 34.2402 30.4562C34.2402 30.3348 34.2103 30.2152 34.153 30.1082C34.0958 30.0011 34.013 29.9098 33.9121 29.8423ZM29.6729 32.3564V28.5634L32.5534 30.4562L29.6729 32.3564Z" fill="black"/>
<rect x="12.694" y="19.6948" width="2.93896" height="2.69434" rx="0.5" fill="black"/>
<rect x="44.0753" y="19.6948" width="2.93896" height="2.69434" rx="0.5" fill="black"/>
<rect x="12.694" y="24.5229" width="2.93896" height="2.69434" rx="0.5" fill="black"/>
<rect x="44.0753" y="24.5229" width="2.93896" height="2.69434" rx="0.5" fill="black"/>
<rect x="12.694" y="29.1094" width="2.93896" height="2.69434" rx="0.5" fill="black"/>
<rect x="44.0753" y="29.1094" width="2.93896" height="2.69434" rx="0.5" fill="black"/>
<rect x="12.694" y="33.6953" width="2.93896" height="2.69434" rx="0.5" fill="black"/>
<rect x="44.0753" y="33.6953" width="2.93896" height="2.69434" rx="0.5" fill="black"/>
<rect x="12.694" y="38.5234" width="2.93896" height="2.69434" rx="0.5" fill="black"/>
<rect x="44.0753" y="38.5234" width="2.93896" height="2.69434" rx="0.5" fill="black"/>
<circle cx="49.7003" cy="50.7847" r="9.6" fill="#CAC9C9" stroke="white" stroke-width="1.2"/>
<circle cx="49.7003" cy="50.7847" r="8.4" fill="black" stroke="black" stroke-width="1.2"/>
<path d="M45.6808 55.7847V45.6028H50.0956C50.8711 45.6028 51.5224 45.7073 52.0494 45.9161C52.5797 46.1249 52.9791 46.4198 53.2475 46.801C53.5193 47.1822 53.6552 47.6313 53.6552 48.1483C53.6552 48.5228 53.5724 48.8642 53.4066 49.1725C53.2442 49.4807 53.0155 49.7392 52.7206 49.948C52.4256 50.1535 52.0809 50.296 51.6865 50.3756V50.475C52.124 50.4916 52.5217 50.6026 52.8796 50.8081C53.2376 51.0103 53.5226 51.2903 53.7348 51.6483C53.9469 52.0029 54.0529 52.4206 54.0529 52.9011C54.0529 53.458 53.9071 53.9535 53.6154 54.3877C53.3271 54.8218 52.9161 55.1632 52.3825 55.4118C51.8489 55.6604 51.2125 55.7847 50.4734 55.7847H45.6808ZM48.445 53.5773H49.7376C50.2016 53.5773 50.5496 53.4911 50.7816 53.3188C51.0136 53.1431 51.1296 52.8846 51.1296 52.5432C51.1296 52.3046 51.075 52.1024 50.9656 51.9367C50.8562 51.7709 50.7004 51.645 50.4983 51.5588C50.2994 51.4726 50.0591 51.4296 49.7774 51.4296H48.445V53.5773ZM48.445 49.7193H49.5785C49.8205 49.7193 50.0342 49.6812 50.2198 49.605C50.4055 49.5287 50.5496 49.4194 50.6524 49.2769C50.7584 49.131 50.8115 48.9537 50.8115 48.7449C50.8115 48.43 50.6988 48.1897 50.4734 48.024C50.248 47.855 49.963 47.7705 49.6183 47.7705H48.445V49.7193Z" fill="white"/>
</svg>
