<svg width="60" height="61" viewBox="0 0 60 61" fill="none" xmlns="http://www.w3.org/2000/svg">
<circle cx="30.0001" cy="30.4561" r="29.0001" fill="white" stroke="white" stroke-width="2"/>
<rect x="10.3555" y="17.2061" width="39.2891" height="26.5005" rx="2.25" fill="white" stroke="black" stroke-width="1.5"/>
<ellipse cx="30.5513" cy="30.4561" rx="8.11136" ry="8.11137" fill="#D9D9D9"/>
<path d="M29.2567 27.8806L34.0143 30.6636L29.2567 33.0423V27.8806Z" fill="white"/>
<path d="M30.5509 22.3447C28.9466 22.3447 27.3784 22.8205 26.0444 23.7118C24.7105 24.6031 23.6708 25.8699 23.0569 27.3521C22.443 28.8343 22.2823 30.4652 22.5953 32.0387C22.9083 33.6122 23.6808 35.0575 24.8153 36.1919C25.9497 37.3263 27.395 38.0989 28.9685 38.4118C30.5419 38.7248 32.1729 38.5642 33.6551 37.9502C35.1373 37.3363 36.4041 36.2966 37.2954 34.9627C38.1867 33.6288 38.6624 32.0605 38.6624 30.4562C38.66 28.3057 37.8046 26.2439 36.2839 24.7232C34.7633 23.2025 32.7015 22.3472 30.5509 22.3447ZM30.5509 37.0929C29.2383 37.0929 27.9552 36.7036 26.8638 35.9744C25.7724 35.2452 24.9218 34.2086 24.4195 32.996C23.9171 31.7833 23.7857 30.4488 24.0418 29.1615C24.2979 27.8741 24.93 26.6915 25.8581 25.7634C26.7863 24.8352 27.9688 24.2031 29.2562 23.9471C30.5436 23.691 31.878 23.8224 33.0907 24.3247C34.3034 24.827 35.3399 25.6777 36.0691 26.7691C36.7984 27.8605 37.1876 29.1436 37.1876 30.4562C37.1856 32.2157 36.4857 33.9026 35.2415 35.1468C33.9974 36.391 32.3105 37.0909 30.5509 37.0929Z" fill="black"/>
<path d="M33.9119 29.8423L29.4875 26.8927C29.3763 26.8189 29.2473 26.7765 29.114 26.7702C28.9807 26.7639 28.8482 26.7938 28.7306 26.8568C28.613 26.9198 28.5146 27.0134 28.446 27.1279C28.3774 27.2423 28.341 27.3731 28.3408 27.5066V33.4058C28.3409 33.5393 28.3772 33.6702 28.4458 33.7847C28.5144 33.8992 28.6128 33.9929 28.7305 34.0559C28.8481 34.1188 28.9807 34.1488 29.114 34.1424C29.2473 34.136 29.3764 34.0936 29.4875 34.0197L33.9119 31.0701C34.0129 31.0026 34.0956 30.9113 34.1529 30.8042C34.2101 30.6972 34.2401 30.5776 34.2401 30.4562C34.2401 30.3348 34.2101 30.2152 34.1529 30.1082C34.0956 30.0011 34.0129 29.9098 33.9119 29.8423ZM29.6727 32.3564V28.5634L32.5532 30.4562L29.6727 32.3564Z" fill="black"/>
<rect x="12.6938" y="19.6948" width="2.93896" height="2.69434" rx="0.5" fill="black"/>
<rect x="44.0752" y="19.6948" width="2.93896" height="2.69434" rx="0.5" fill="black"/>
<rect x="12.6938" y="24.5229" width="2.93896" height="2.69434" rx="0.5" fill="black"/>
<rect x="44.0752" y="24.5229" width="2.93896" height="2.69434" rx="0.5" fill="black"/>
<rect x="12.6938" y="29.1094" width="2.93896" height="2.69434" rx="0.5" fill="black"/>
<rect x="44.0752" y="29.1094" width="2.93896" height="2.69434" rx="0.5" fill="black"/>
<rect x="12.6938" y="33.6953" width="2.93896" height="2.69434" rx="0.5" fill="black"/>
<rect x="44.0752" y="33.6953" width="2.93896" height="2.69434" rx="0.5" fill="black"/>
<rect x="12.6938" y="38.5234" width="2.93896" height="2.69434" rx="0.5" fill="black"/>
<rect x="44.0752" y="38.5234" width="2.93896" height="2.69434" rx="0.5" fill="black"/>
<circle cx="49.7002" cy="50.7847" r="9.6" fill="#CAC9C9" stroke="white" stroke-width="1.2"/>
<circle cx="49.7002" cy="50.7847" r="8.4" fill="black" stroke="black" stroke-width="1.2"/>
<path d="M47.43 55.7847H44.4471L47.8079 45.6028H51.5863L54.9471 55.7847H51.9641L49.7369 48.4068H49.6573L47.43 55.7847ZM46.8732 51.7676H52.4812V53.8358H46.8732V51.7676Z" fill="white"/>
</svg>
