<svg width="61" height="61" viewBox="0 0 61 61" fill="none" xmlns="http://www.w3.org/2000/svg">
<circle cx="30.1052" cy="30.1465" r="29.0001" fill="white" stroke="white" stroke-width="2"/>
<g filter="url(#filter0_d_1241_5540)">
<circle cx="34.7899" cy="13.3698" r="2.75197" fill="white" stroke="black" stroke-linejoin="round"/>
<path d="M6.12155 39.0905C5.72243 38.5918 12.6869 33.647 16.219 31.2369C22.1197 31.7356 35.4919 33.4061 41.7748 36.0988C37.0377 42.5811 28.6855 43.703 25.8183 43.5784C22.9511 43.4537 19.2113 39.9632 14.5989 39.0905C9.98644 38.2178 6.62045 39.7139 6.12155 39.0905Z" fill="white" stroke="black"/>
<path d="M34.918 12.9124C20.3578 11.7156 16.0527 24.7136 15.7201 31.3623C25.5681 31.3623 36.6256 35.5495 40.3654 36.6715C43.3572 37.569 48.121 36.6715 50.3757 35.8499C51.2899 28.7027 49.4782 14.1092 34.918 12.9124Z" fill="white"/>
<path fill-rule="evenodd" clip-rule="evenodd" d="M16.2883 30.8346C24.5983 30.9658 33.6364 33.9241 38.3963 35.482C39.2516 35.762 39.9688 35.9967 40.5188 36.1617C41.912 36.5797 43.766 36.5885 45.5859 36.3767C47.2344 36.1849 48.8021 35.8186 49.8874 35.4566C50.2813 31.952 50.008 26.8085 47.9668 22.3722C45.8773 17.8312 41.9384 14.0234 34.8749 13.4428C27.79 12.8605 23.2464 15.7193 20.4105 19.5139C17.7104 23.1267 16.5461 27.6105 16.2883 30.8346ZM19.5579 18.8767C22.5977 14.8093 27.4868 11.7675 34.9621 12.3819C42.4588 12.9981 46.7059 17.0855 48.9338 21.9273C51.1456 26.7343 51.3699 32.2763 50.9042 35.9174C50.8789 36.1149 50.7455 36.2818 50.5584 36.35C49.3872 36.7767 47.5915 37.215 45.709 37.434C43.8354 37.652 41.8116 37.6609 40.2129 37.1813C39.6367 37.0084 38.896 36.7663 38.0199 36.48C33.1206 34.8789 27.252 32.9678 16.2883 32.046C16.1425 32.046 15.4354 31.8347 15.335 31.7291C15.2345 31.6235 15.1817 31.4813 15.189 31.3357C15.3591 27.936 16.5407 22.9138 19.5579 18.8767Z" fill="black"/>
<path fill-rule="evenodd" clip-rule="evenodd" d="M23.403 31.7633C23.2375 18.6864 30.7372 13.3711 34.6684 12.3654L34.9322 13.3966C31.4846 14.2786 24.134 18.8454 24.7906 31.7633H23.403Z" fill="black"/>
<path d="M35.0791 13.1057C37.7753 14.7809 42.3576 21.5834 39.1174 35.3915" stroke="black" stroke-linecap="round" stroke-linejoin="round"/>
<path d="M17.099 29.7898C18.188 19.3784 26.1716 14.9611 30.0272 14.0538C17.8483 21.0653 19.6956 27.3419 20.4096 29.7679L20.4161 29.7898H17.099Z" fill="#CAC9C9"/>
<path d="M16.4507 32.4985L8.74182 37.9075C22.1755 35.2728 18.5682 34.6588 38.5238 37.2684C26.4737 33.5843 19.4456 32.8667 16.4507 32.4985Z" fill="#CAC9C9"/>
</g>
<circle cx="50.1051" cy="50.1465" r="9.6" fill="#CAC9C9" stroke="white" stroke-width="1.2"/>
<circle cx="50.1051" cy="50.1465" r="8.4" fill="black" stroke="black" stroke-width="1.2"/>
<path d="M47.835 55.1465H44.852L48.2128 44.9647H51.9912L55.352 55.1465H52.369L50.1418 47.7686H50.0622L47.835 55.1465ZM47.2781 51.1294H52.8861V53.1976H47.2781V51.1294Z" fill="white"/>
<defs>
<filter id="filter0_d_1241_5540" x="4.60474" y="10.1178" width="46.5002" height="34.9694" filterUnits="userSpaceOnUse" color-interpolation-filters="sRGB">
<feFlood flood-opacity="0" result="BackgroundImageFix"/>
<feColorMatrix in="SourceAlpha" type="matrix" values="0 0 0 0 0 0 0 0 0 0 0 0 0 0 0 0 0 0 127 0" result="hardAlpha"/>
<feOffset dx="-1" dy="1"/>
<feComposite in2="hardAlpha" operator="out"/>
<feColorMatrix type="matrix" values="0 0 0 0 0 0 0 0 0 0 0 0 0 0 0 0 0 0 0.25 0"/>
<feBlend mode="normal" in2="BackgroundImageFix" result="effect1_dropShadow_1241_5540"/>
<feBlend mode="normal" in="SourceGraphic" in2="effect1_dropShadow_1241_5540" result="shape"/>
</filter>
</defs>
</svg>
