<svg width="61" height="61" viewBox="0 0 61 61" fill="none" xmlns="http://www.w3.org/2000/svg">
<circle cx="30.1052" cy="30.1465" r="29.0001" fill="white" stroke="white" stroke-width="2"/>
<g filter="url(#filter0_d_1241_5557)">
<circle cx="34.7899" cy="13.3696" r="2.75197" fill="white" stroke="black" stroke-linejoin="round"/>
<path d="M6.12155 39.0905C5.72243 38.5918 12.6869 33.647 16.219 31.2369C22.1197 31.7356 35.4919 33.4061 41.7748 36.0988C37.0377 42.5811 28.6855 43.703 25.8183 43.5784C22.9511 43.4537 19.2113 39.9632 14.5989 39.0905C9.98644 38.2178 6.62045 39.7139 6.12155 39.0905Z" fill="white" stroke="black"/>
<path d="M34.9181 12.9122C20.3579 11.7154 16.0528 24.7135 15.7202 31.3621C25.5682 31.3621 36.6257 35.5494 40.3655 36.6713C43.3573 37.5688 48.1211 36.6713 50.3759 35.8497C51.29 28.7026 49.4783 14.109 34.9181 12.9122Z" fill="white"/>
<path d="M17.0992 29.7897C18.1882 19.3783 26.1718 14.961 30.0275 14.0537C17.8486 21.0652 19.6959 27.3418 20.4099 29.7678L20.4163 29.7897H17.0992Z" fill="#CAC9C9"/>
<path fill-rule="evenodd" clip-rule="evenodd" d="M16.2884 30.8344C24.5984 30.9657 33.6365 33.9239 38.3964 35.4819C39.2517 35.7618 39.9689 35.9966 40.5189 36.1616C41.9121 36.5795 43.7661 36.5884 45.5861 36.3766C47.2345 36.1848 48.8022 35.8185 49.8875 35.4565C50.2814 31.9519 50.0082 26.8084 47.9669 22.3721C45.8774 17.8311 41.9386 14.0233 34.875 13.4427C27.7902 12.8603 23.2466 15.7192 20.4106 19.5138C17.7105 23.1266 16.5462 27.6104 16.2884 30.8344ZM19.558 18.8765C22.5978 14.8091 27.4869 11.7674 34.9622 12.3818C42.4589 12.998 46.706 17.0854 48.9339 21.9272C51.1458 26.7342 51.37 32.2762 50.9043 35.9173C50.879 36.1148 50.7456 36.2817 50.5586 36.3499C49.3874 36.7766 47.5916 37.2148 45.7091 37.4339C43.8355 37.6519 41.8117 37.6607 40.213 37.1811C39.6368 37.0083 38.8961 36.7662 38.0201 36.4799C33.1207 34.8788 27.2521 32.9676 16.2884 32.0458C16.1426 32.0458 15.4355 31.8346 15.3351 31.729C15.2346 31.6234 15.1819 31.4812 15.1891 31.3356C15.3592 27.9359 16.5408 22.9137 19.558 18.8765Z" fill="black"/>
<path fill-rule="evenodd" clip-rule="evenodd" d="M23.4032 31.7633C23.2377 18.6865 30.7374 13.3711 34.6686 12.3654L34.9325 13.3967C31.4849 14.2787 24.1343 18.8454 24.7908 31.7633H23.4032Z" fill="black"/>
<path d="M35.0792 13.1056C37.7754 14.7809 42.3577 21.5834 39.1176 35.3914" stroke="black" stroke-linecap="round" stroke-linejoin="round"/>
<path d="M16.4507 32.4985L8.74182 37.9075C22.1755 35.2728 18.5682 34.6588 38.5238 37.2684C26.4737 33.5843 19.4456 32.8667 16.4507 32.4985Z" fill="#CAC9C9"/>
</g>
<circle cx="50.1051" cy="50.1465" r="9.6" fill="#CAC9C9" stroke="white" stroke-width="1.2"/>
<circle cx="50.1051" cy="50.1465" r="8.4" fill="black" stroke="black" stroke-width="1.2"/>
<path d="M46.0856 55.1465V44.9647H50.5003C51.2759 44.9647 51.9272 45.0691 52.4542 45.2779C52.9845 45.4867 53.3839 45.7817 53.6523 46.1628C53.9241 46.544 54.06 46.9931 54.06 47.5101C54.06 47.8846 53.9771 48.226 53.8114 48.5343C53.649 48.8425 53.4203 49.101 53.1253 49.3098C52.8304 49.5153 52.4857 49.6578 52.0913 49.7374V49.8368C52.5288 49.8534 52.9265 49.9644 53.2844 50.1699C53.6424 50.3721 53.9274 50.6522 54.1395 51.0101C54.3517 51.3648 54.4577 51.7824 54.4577 52.263C54.4577 52.8198 54.3119 53.3153 54.0202 53.7495C53.7319 54.1837 53.3209 54.525 52.7873 54.7736C52.2537 55.0222 51.6173 55.1465 50.8782 55.1465H46.0856ZM48.8498 52.9391H50.1424C50.6064 52.9391 50.9544 52.8529 51.1864 52.6806C51.4184 52.5049 51.5344 52.2464 51.5344 51.905C51.5344 51.6664 51.4797 51.4642 51.3704 51.2985C51.261 51.1328 51.1052 51.0068 50.903 50.9206C50.7042 50.8345 50.4639 50.7914 50.1822 50.7914H48.8498V52.9391ZM48.8498 49.0811H49.9833C50.2252 49.0811 50.439 49.043 50.6246 48.9668C50.8102 48.8906 50.9544 48.7812 51.0572 48.6387C51.1632 48.4928 51.2163 48.3155 51.2163 48.1067C51.2163 47.7918 51.1036 47.5516 50.8782 47.3858C50.6528 47.2168 50.3678 47.1323 50.0231 47.1323H48.8498V49.0811Z" fill="white"/>
<defs>
<filter id="filter0_d_1241_5557" x="4.60474" y="10.1177" width="46.5004" height="34.9695" filterUnits="userSpaceOnUse" color-interpolation-filters="sRGB">
<feFlood flood-opacity="0" result="BackgroundImageFix"/>
<feColorMatrix in="SourceAlpha" type="matrix" values="0 0 0 0 0 0 0 0 0 0 0 0 0 0 0 0 0 0 127 0" result="hardAlpha"/>
<feOffset dx="-1" dy="1"/>
<feComposite in2="hardAlpha" operator="out"/>
<feColorMatrix type="matrix" values="0 0 0 0 0 0 0 0 0 0 0 0 0 0 0 0 0 0 0.25 0"/>
<feBlend mode="normal" in2="BackgroundImageFix" result="effect1_dropShadow_1241_5557"/>
<feBlend mode="normal" in="SourceGraphic" in2="effect1_dropShadow_1241_5557" result="shape"/>
</filter>
</defs>
</svg>
